<?xml version="1.0" encoding="UTF-8" standalone="no"?>
<svg
   width="763.574"
   height="100.879"
   viewBox="0 0 763.574 100.879"
   version="1.1"
   id="svg381"
   sodipodi:docname="fail.svg"
   inkscape:version="1.1.1 (3bf5ae0d25, 2021-09-20)"
   xmlns:inkscape="http://www.inkscape.org/namespaces/inkscape"
   xmlns:sodipodi="http://sodipodi.sourceforge.net/DTD/sodipodi-0.dtd"
   xmlns="http://www.w3.org/2000/svg"
   xmlns:svg="http://www.w3.org/2000/svg">
  <defs
     id="defs385" />
  <sodipodi:namedview
     id="namedview383"
     pagecolor="#505050"
     bordercolor="#eeeeee"
     borderopacity="1"
     inkscape:pageshadow="0"
     inkscape:pageopacity="0"
     inkscape:pagecheckerboard="0"
     showgrid="false"
     inkscape:zoom="1.4381538"
     inkscape:cx="470.39474"
     inkscape:cy="198.5184"
     inkscape:window-width="2400"
     inkscape:window-height="1261"
     inkscape:window-x="-9"
     inkscape:window-y="-9"
     inkscape:window-maximized="1"
     inkscape:current-layer="svgGroup" />
  <g
     id="svgGroup"
     stroke-linecap="round"
     font-size="9pt"
     stroke-width="0.25mm"
     style="stroke:#000;stroke-width:0.25mm;fill:black">
    <path
       d="M 548.535 21.191 L 557.031 21.191 L 557.031 29.199 L 548.34 29.199 L 548.34 33.887 L 548.34 76.27 L 536.426 76.27 L 536.426 33.887 L 536.426 29.199 L 529.199 29.199 L 529.199 21.191 L 536.621 21.191 A 53.207 53.207 0 0 1 537.633 13.861 A 48.721 48.721 0 0 1 537.793 13.135 Q 538.672 9.277 540.576 6.396 A 13.85 13.85 0 0 1 545.151 2.097 A 16.444 16.444 0 0 1 545.752 1.758 A 13.714 13.714 0 0 1 549.194 0.496 Q 551.358 0 554.004 0 Q 555.469 0 557.129 0.244 A 52.745 52.745 0 0 1 560.4 0.83 Q 562.012 1.172 563.379 1.66 A 12.074 12.074 0 0 1 564.25 2.007 Q 564.677 2.199 565.026 2.403 A 5.327 5.327 0 0 1 565.527 2.734 L 561.719 9.766 A 7.234 7.234 0 0 0 560.011 9.072 A 9.82 9.82 0 0 0 558.447 8.789 Q 556.694 8.609 555.892 8.595 A 7.374 7.374 0 0 0 555.762 8.594 A 6.453 6.453 0 0 0 554.228 8.767 A 4.797 4.797 0 0 0 552.49 9.57 A 6.73 6.73 0 0 0 551.047 11.051 A 9.014 9.014 0 0 0 550.293 12.305 A 13.016 13.016 0 0 0 549.426 14.565 A 16.885 16.885 0 0 0 549.023 16.357 A 36.159 36.159 0 0 0 548.602 19.937 A 41.302 41.302 0 0 0 548.535 21.191 Z M 751.66 21.191 L 763.574 21.191 Q 758.203 35.547 754.004 46.631 A 6799.54 6799.54 0 0 0 751.006 54.559 Q 749.819 57.703 748.738 60.579 A 3879.993 3879.993 0 0 0 746.68 66.064 Q 744.531 71.805 742.729 76.322 A 298.849 298.849 0 0 1 741.162 80.176 A 176.32 176.32 0 0 1 739.423 84.229 Q 738.721 85.807 738.057 87.198 A 86.52 86.52 0 0 1 736.768 89.795 A 56.745 56.745 0 0 1 735.42 92.251 Q 734.751 93.397 734.112 94.341 A 23.556 23.556 0 0 1 733.008 95.85 A 18.61 18.61 0 0 1 731.458 97.569 Q 730.442 98.557 729.395 99.219 A 9.445 9.445 0 0 1 725.342 100.635 Q 723.454 100.845 721.096 100.874 A 62.645 62.645 0 0 1 720.313 100.879 Q 719.434 100.879 718.262 100.635 A 26.301 26.301 0 0 1 715.967 100.049 A 33.344 33.344 0 0 1 714.92 99.712 Q 714.427 99.544 713.993 99.376 A 20.177 20.177 0 0 1 713.965 99.365 Q 713.247 99.086 712.92 98.97 A 6.858 6.858 0 0 0 712.793 98.926 A 141.206 141.206 0 0 1 713.184 97.217 A 119.455 119.455 0 0 1 713.574 95.605 A 44.828 44.828 0 0 1 714.031 93.676 A 38.665 38.665 0 0 1 714.209 93.018 A 45.241 45.241 0 0 1 714.371 92.453 Q 714.575 91.757 714.714 91.39 A 4.778 4.778 0 0 1 714.746 91.309 A 3.774 3.774 0 0 1 715.235 91.345 Q 715.968 91.442 717.139 91.797 A 20.145 20.145 0 0 0 717.892 92.011 Q 718.945 92.285 719.531 92.285 A 28.472 28.472 0 0 0 720.921 92.253 Q 721.666 92.216 722.314 92.139 Q 723.535 91.992 724.512 91.26 Q 725.488 90.527 726.367 89.111 A 15.774 15.774 0 0 0 726.936 88.107 Q 727.491 87.045 728.114 85.557 A 54.481 54.481 0 0 0 728.32 85.059 L 732.031 76.27 L 751.66 21.191 Z M 651.758 0.391 L 651.758 59.473 A 20.446 20.446 0 0 0 651.844 61.41 Q 651.935 62.368 652.124 63.169 A 8.059 8.059 0 0 0 652.637 64.697 A 7.139 7.139 0 0 0 653.592 66.245 A 5.638 5.638 0 0 0 655.078 67.529 Q 656.641 68.457 658.643 68.75 A 27.594 27.594 0 0 0 661.209 68.998 A 34.417 34.417 0 0 0 662.988 69.043 L 662.988 76.27 A 32.24 32.24 0 0 1 660.692 76.537 A 35.566 35.566 0 0 1 660.352 76.563 A 33.618 33.618 0 0 1 659.491 76.629 Q 659.109 76.654 658.69 76.674 A 61.19 61.19 0 0 1 657.813 76.709 A 87.934 87.934 0 0 1 654.883 76.758 Q 653.418 76.758 651.953 76.66 Q 650.488 76.563 649.316 76.367 A 10.398 10.398 0 0 1 646.776 75.512 A 7.974 7.974 0 0 1 644.141 73.438 Q 642.285 71.191 641.309 68.408 A 24.006 24.006 0 0 1 640.342 64.818 A 20.491 20.491 0 0 1 640.088 62.988 A 87.24 87.24 0 0 1 639.981 61.743 Q 639.876 60.397 639.851 59.438 A 21.537 21.537 0 0 1 639.844 58.887 L 639.844 57.715 L 639.844 0.391 L 651.758 0.391 Z M 687.207 0.391 L 687.207 59.473 A 20.446 20.446 0 0 0 687.293 61.41 Q 687.384 62.368 687.573 63.169 A 8.059 8.059 0 0 0 688.086 64.697 A 7.139 7.139 0 0 0 689.041 66.245 A 5.638 5.638 0 0 0 690.527 67.529 Q 692.09 68.457 694.092 68.75 A 27.594 27.594 0 0 0 696.659 68.998 A 34.417 34.417 0 0 0 698.437 69.043 L 698.438 76.27 A 32.24 32.24 0 0 1 696.141 76.537 A 35.566 35.566 0 0 1 695.801 76.563 A 33.618 33.618 0 0 1 694.94 76.629 Q 694.559 76.654 694.139 76.674 A 61.19 61.19 0 0 1 693.262 76.709 A 87.934 87.934 0 0 1 690.332 76.758 Q 688.867 76.758 687.402 76.66 Q 685.938 76.563 684.766 76.367 A 10.398 10.398 0 0 1 682.225 75.512 A 7.974 7.974 0 0 1 679.59 73.438 Q 677.734 71.191 676.758 68.408 A 24.006 24.006 0 0 1 675.792 64.818 A 20.491 20.491 0 0 1 675.537 62.988 A 87.24 87.24 0 0 1 675.43 61.743 Q 675.325 60.397 675.301 59.438 A 21.537 21.537 0 0 1 675.293 58.887 L 675.293 57.715 L 675.293 0.391 L 687.207 0.391 Z M 400.781 62.012 L 405.078 68.555 A 22.324 22.324 0 0 1 400.139 73.137 A 20.307 20.307 0 0 1 397.559 74.609 A 19.157 19.157 0 0 1 393.371 76.007 Q 391.354 76.446 389.001 76.59 A 38.975 38.975 0 0 1 386.621 76.66 A 23.404 23.404 0 0 1 376.563 74.463 Q 371.875 72.266 368.555 68.457 A 29.051 29.051 0 0 1 363.791 60.82 A 33.398 33.398 0 0 1 363.281 59.57 Q 361.328 54.492 361.328 48.633 A 30.688 30.688 0 0 1 363.135 38.086 A 29.968 29.968 0 0 1 366.499 31.429 A 26.964 26.964 0 0 1 368.066 29.346 A 26.075 26.075 0 0 1 375.342 23.242 A 20.486 20.486 0 0 1 384.277 20.605 L 384.277 29.98 A 12.848 12.848 0 0 0 380.993 31.049 A 10.548 10.548 0 0 0 378.32 32.91 Q 375.977 35.156 374.658 38.037 A 24.392 24.392 0 0 0 372.803 43.945 A 42.047 42.047 0 0 0 372.475 46.092 Q 372.266 47.778 372.266 49.121 Q 372.266 52.93 373.193 56.201 A 16.419 16.419 0 0 0 374.803 60.032 A 14.363 14.363 0 0 0 376.074 61.865 Q 378.027 64.258 380.908 65.674 A 13.156 13.156 0 0 0 384.204 66.758 Q 385.688 67.048 387.391 67.084 A 23.119 23.119 0 0 0 387.891 67.09 A 12.245 12.245 0 0 0 388.732 67.058 Q 389.138 67.03 389.599 66.977 A 27.778 27.778 0 0 0 390.576 66.846 A 16.999 16.999 0 0 0 392.451 66.447 A 21.679 21.679 0 0 0 393.994 65.967 A 24.769 24.769 0 0 0 397.156 64.594 A 27.642 27.642 0 0 0 397.607 64.355 A 13.711 13.711 0 0 0 400.51 62.275 A 12.777 12.777 0 0 0 400.781 62.012 Z M 11.914 4.297 L 11.914 38.77 A 97.065 97.065 0 0 0 12.051 44.086 Q 12.194 46.688 12.487 48.939 A 46.818 46.818 0 0 0 12.891 51.514 A 39.225 39.225 0 0 0 13.747 55.171 Q 14.563 58.002 15.723 60.107 A 16.822 16.822 0 0 0 17.419 62.646 Q 18.67 64.177 20.166 65.137 A 12.723 12.723 0 0 0 25.964 67.089 A 14.799 14.799 0 0 0 25.977 67.09 L 25.977 76.758 A 28.637 28.637 0 0 1 18.723 75.368 A 25.186 25.186 0 0 1 15.186 73.877 A 22.765 22.765 0 0 1 7.031 66.748 A 31.053 31.053 0 0 1 3.838 61.047 A 42.435 42.435 0 0 1 1.855 55.371 A 49.465 49.465 0 0 1 0.464 48.145 Q 0 44.287 0 39.941 L 0 4.297 L 11.914 4.297 Z M 44.141 4.297 L 55.957 4.297 L 55.957 39.941 Q 55.957 48.344 54.223 54.921 A 42.76 42.76 0 0 1 54.102 55.371 A 41.302 41.302 0 0 1 52.029 61.227 A 30.467 30.467 0 0 1 48.877 66.748 A 23.776 23.776 0 0 1 42.753 72.682 A 22.481 22.481 0 0 1 40.723 73.877 Q 35.938 76.367 29.98 76.758 L 29.98 67.09 A 14.327 14.327 0 0 0 34.628 65.734 A 13.453 13.453 0 0 0 35.791 65.088 A 11.409 11.409 0 0 0 38.437 62.775 Q 39.347 61.706 40.131 60.34 A 19.404 19.404 0 0 0 40.234 60.156 Q 42.09 56.836 43.115 51.611 Q 43.89 47.662 44.08 42.346 A 100.657 100.657 0 0 0 44.141 38.77 L 44.141 4.297 Z M 117.969 45.313 L 117.969 74.316 L 117.969 76.27 L 106.055 76.27 L 106.055 46.289 A 68.157 68.157 0 0 0 105.89 41.473 A 59.762 59.762 0 0 0 105.762 39.941 A 18.867 18.867 0 0 0 105.241 36.959 A 14.685 14.685 0 0 0 104.395 34.57 Q 103.32 32.227 101.465 30.908 A 6.407 6.407 0 0 0 99.566 30.008 Q 98.709 29.753 97.68 29.654 A 14.45 14.45 0 0 0 96.289 29.59 Q 95.054 29.59 93.062 29.948 A 39.897 39.897 0 0 0 92.627 30.029 Q 90.332 30.469 88.184 31.445 L 88.184 23.926 A 35.301 35.301 0 0 1 92.758 21.962 A 40.174 40.174 0 0 1 93.896 21.582 A 20.737 20.737 0 0 1 98.045 20.702 A 18.08 18.08 0 0 1 99.902 20.605 A 17.811 17.811 0 0 1 103.247 20.904 Q 105.349 21.305 107.04 22.248 A 11.097 11.097 0 0 1 107.324 22.412 A 27.478 27.478 0 0 1 110.541 24.676 A 36.87 36.87 0 0 1 113.379 27.246 Q 115.039 28.906 115.967 31.104 A 21.962 21.962 0 0 1 117.334 35.693 A 34.317 34.317 0 0 1 117.871 40.527 A 119.752 119.752 0 0 1 117.969 45.313 Z M 198.145 21.191 L 198.145 51.172 A 70.588 70.588 0 0 0 198.259 55.273 A 57.795 57.795 0 0 0 198.438 57.568 A 20.33 20.33 0 0 0 198.882 60.282 A 14.983 14.983 0 0 0 199.707 62.793 A 8.41 8.41 0 0 0 202.637 66.406 Q 204.59 67.773 207.813 67.773 A 11.763 11.763 0 0 0 208.661 67.739 Q 209.516 67.677 210.682 67.501 A 48.004 48.004 0 0 0 211.426 67.383 A 20.898 20.898 0 0 0 215.918 66.113 L 215.918 73.34 A 36.002 36.002 0 0 1 211.682 75.267 A 41.25 41.25 0 0 1 210.4 75.732 A 18.494 18.494 0 0 1 205.776 76.709 A 16.876 16.876 0 0 1 204.492 76.758 A 21.477 21.477 0 0 1 202.336 76.655 A 15.728 15.728 0 0 1 200.293 76.318 Q 198.438 75.879 196.826 74.951 Q 195.215 74.023 193.75 72.852 A 34.291 34.291 0 0 1 191.599 70.972 A 39.814 39.814 0 0 1 190.82 70.215 A 12.692 12.692 0 0 1 188.184 66.357 A 20.281 20.281 0 0 1 186.768 61.768 Q 186.328 59.375 186.279 56.934 A 239.376 239.376 0 0 1 186.23 52.148 L 186.23 21.191 L 198.145 21.191 Z M 589.746 21.191 L 589.746 51.172 A 70.588 70.588 0 0 0 589.861 55.273 A 57.795 57.795 0 0 0 590.039 57.568 A 20.33 20.33 0 0 0 590.483 60.282 A 14.983 14.983 0 0 0 591.309 62.793 A 8.41 8.41 0 0 0 594.238 66.406 Q 596.191 67.773 599.414 67.773 A 11.763 11.763 0 0 0 600.263 67.739 Q 601.118 67.677 602.284 67.501 A 48.004 48.004 0 0 0 603.027 67.383 A 20.898 20.898 0 0 0 607.52 66.113 L 607.52 73.34 A 36.002 36.002 0 0 1 603.284 75.267 A 41.25 41.25 0 0 1 602.002 75.732 A 18.494 18.494 0 0 1 597.378 76.709 A 16.876 16.876 0 0 1 596.094 76.758 A 21.477 21.477 0 0 1 593.938 76.655 A 15.728 15.728 0 0 1 591.895 76.318 Q 590.039 75.879 588.428 74.951 Q 586.816 74.023 585.352 72.852 A 34.291 34.291 0 0 1 583.2 70.972 A 39.814 39.814 0 0 1 582.422 70.215 A 12.692 12.692 0 0 1 579.785 66.357 A 20.281 20.281 0 0 1 578.369 61.768 Q 577.93 59.375 577.881 56.934 A 239.376 239.376 0 0 1 577.832 52.148 L 577.832 21.191 L 589.746 21.191 Z M 270.117 20.996 L 270.117 30.469 A 11.338 11.338 0 0 0 263.575 34.63 A 16.024 16.024 0 0 0 262.305 36.475 A 20.322 20.322 0 0 0 259.863 43.047 A 28.335 28.335 0 0 0 259.375 48.438 A 31.647 31.647 0 0 0 259.721 53.198 A 27.188 27.188 0 0 0 260.107 55.225 A 23.522 23.522 0 0 0 261.115 58.52 A 18.717 18.717 0 0 0 262.207 60.84 A 14.801 14.801 0 0 0 264.615 64.063 A 13.514 13.514 0 0 0 265.576 64.941 Q 267.578 66.602 270.117 66.992 L 270.117 76.66 A 24.364 24.364 0 0 1 263.896 75.536 A 21.192 21.192 0 0 1 260.449 74.072 A 23.541 23.541 0 0 1 253.125 68.018 A 26.52 26.52 0 0 1 249.024 60.804 A 30.82 30.82 0 0 1 248.486 59.277 A 33.836 33.836 0 0 1 246.881 49.424 A 38.087 38.087 0 0 1 246.875 48.73 A 34.145 34.145 0 0 1 247.781 40.765 A 30.728 30.728 0 0 1 248.486 38.281 A 25.94 25.94 0 0 1 252.465 30.634 A 24.563 24.563 0 0 1 253.223 29.688 A 25.247 25.247 0 0 1 260.596 23.682 A 22.791 22.791 0 0 1 268.176 21.21 A 27.069 27.069 0 0 1 270.117 20.996 Z M 327.246 20.996 L 327.246 30.469 A 11.338 11.338 0 0 0 320.704 34.63 A 16.024 16.024 0 0 0 319.434 36.475 A 20.322 20.322 0 0 0 316.992 43.047 A 28.335 28.335 0 0 0 316.504 48.438 A 31.647 31.647 0 0 0 316.85 53.198 A 27.188 27.188 0 0 0 317.236 55.225 A 23.522 23.522 0 0 0 318.244 58.52 A 18.717 18.717 0 0 0 319.336 60.84 A 14.801 14.801 0 0 0 321.744 64.063 A 13.514 13.514 0 0 0 322.705 64.941 Q 324.707 66.602 327.246 66.992 L 327.246 76.66 A 24.364 24.364 0 0 1 321.025 75.536 A 21.192 21.192 0 0 1 317.578 74.072 A 23.541 23.541 0 0 1 310.254 68.018 A 26.52 26.52 0 0 1 306.153 60.804 A 30.82 30.82 0 0 1 305.615 59.277 A 33.836 33.836 0 0 1 304.01 49.424 A 38.087 38.087 0 0 1 304.004 48.73 A 34.145 34.145 0 0 1 304.91 40.765 A 30.728 30.728 0 0 1 305.615 38.281 A 25.94 25.94 0 0 1 309.594 30.634 A 24.563 24.563 0 0 1 310.352 29.688 A 25.247 25.247 0 0 1 317.725 23.682 A 22.791 22.791 0 0 1 325.305 21.21 A 27.069 27.069 0 0 1 327.246 20.996 Z M 388.281 29.883 L 388.281 20.703 A 25.253 25.253 0 0 1 394.761 22.143 A 22.43 22.43 0 0 1 397.803 23.535 A 24.684 24.684 0 0 1 405.078 29.59 A 26.85 26.85 0 0 1 409.692 38.011 A 30.228 30.228 0 0 1 409.717 38.086 A 31.002 31.002 0 0 1 411.328 48.047 Q 411.328 50.391 411.035 52.734 L 377.539 52.734 L 377.539 44.141 L 400.098 44.141 A 14.518 14.518 0 0 0 399.268 39.258 A 14.745 14.745 0 0 0 396.826 34.912 A 15.436 15.436 0 0 0 393.066 31.543 A 11.063 11.063 0 0 0 388.281 29.883 Z M 219.922 21.191 L 231.836 21.191 L 231.836 76.27 L 221.191 76.27 L 219.922 70.605 L 219.922 21.191 Z M 611.523 21.191 L 623.438 21.191 L 623.438 76.27 L 612.793 76.27 L 611.523 70.605 L 611.523 21.191 Z M 72.363 21.191 L 82.91 21.191 L 84.18 26.758 L 84.18 76.27 L 72.363 76.27 L 72.363 21.191 Z M 733.984 61.523 L 729.98 71.094 L 709.473 21.191 L 721.289 21.191 L 735.352 58.203 L 733.984 61.523 Z M 154.102 54.688 L 154.102 44.336 A 133.141 133.141 0 0 1 160.059 46.484 A 25.744 25.744 0 0 1 164.945 48.984 A 23.726 23.726 0 0 1 165.576 49.414 Q 168.066 51.172 169.678 53.76 Q 171.289 56.348 171.289 60.254 A 17.906 17.906 0 0 1 170.999 63.557 A 13.266 13.266 0 0 1 169.922 66.895 A 15.533 15.533 0 0 1 166.26 71.777 A 16.647 16.647 0 0 1 161.796 74.612 A 19.363 19.363 0 0 1 160.84 75 A 26.88 26.88 0 0 1 155.439 76.389 A 30.903 30.903 0 0 1 154.102 76.563 L 154.102 67.285 A 15.751 15.751 0 0 0 156.205 66.773 Q 158.043 66.179 159.229 65.186 A 4.927 4.927 0 0 0 161.019 61.6 A 6.752 6.752 0 0 0 161.035 61.133 A 5.14 5.14 0 0 0 160.717 59.288 Q 160.252 58.069 159.108 57.231 A 5.736 5.736 0 0 0 159.033 57.178 A 17.506 17.506 0 0 0 156.876 55.886 Q 155.612 55.241 154.102 54.688 Z M 447.363 54.688 L 447.363 44.336 A 133.141 133.141 0 0 1 453.32 46.484 A 25.744 25.744 0 0 1 458.207 48.984 A 23.726 23.726 0 0 1 458.838 49.414 Q 461.328 51.172 462.939 53.76 Q 464.551 56.348 464.551 60.254 A 17.906 17.906 0 0 1 464.26 63.557 A 13.266 13.266 0 0 1 463.184 66.895 A 15.533 15.533 0 0 1 459.521 71.777 A 16.647 16.647 0 0 1 455.058 74.612 A 19.363 19.363 0 0 1 454.102 75 A 26.88 26.88 0 0 1 448.701 76.389 A 30.903 30.903 0 0 1 447.363 76.563 L 447.363 67.285 A 15.751 15.751 0 0 0 449.467 66.773 Q 451.305 66.179 452.49 65.186 A 4.927 4.927 0 0 0 454.281 61.6 A 6.752 6.752 0 0 0 454.297 61.133 A 5.14 5.14 0 0 0 453.979 59.288 Q 453.514 58.069 452.369 57.231 A 5.736 5.736 0 0 0 452.295 57.178 A 17.506 17.506 0 0 0 450.138 55.886 Q 448.874 55.241 447.363 54.688 Z M 499.707 54.688 L 499.707 44.336 A 133.141 133.141 0 0 1 505.664 46.484 A 25.744 25.744 0 0 1 510.551 48.984 A 23.726 23.726 0 0 1 511.182 49.414 Q 513.672 51.172 515.283 53.76 Q 516.895 56.348 516.895 60.254 A 17.906 17.906 0 0 1 516.604 63.557 A 13.266 13.266 0 0 1 515.527 66.895 A 15.533 15.533 0 0 1 511.865 71.777 A 16.647 16.647 0 0 1 507.402 74.612 A 19.363 19.363 0 0 1 506.445 75 A 26.88 26.88 0 0 1 501.045 76.389 A 30.903 30.903 0 0 1 499.707 76.563 L 499.707 67.285 A 15.751 15.751 0 0 0 501.811 66.773 Q 503.648 66.179 504.834 65.186 A 4.927 4.927 0 0 0 506.625 61.6 A 6.752 6.752 0 0 0 506.641 61.133 A 5.14 5.14 0 0 0 506.323 59.288 Q 505.858 58.069 504.713 57.231 A 5.736 5.736 0 0 0 504.639 57.178 A 17.506 17.506 0 0 0 502.482 55.886 Q 501.218 55.241 499.707 54.688 Z M 150.098 20.313 L 150.098 30.078 A 8.697 8.697 0 0 0 148.285 30.624 A 6.125 6.125 0 0 0 146.143 32.129 A 5.128 5.128 0 0 0 145.038 34.147 Q 144.804 34.934 144.746 35.877 A 10.474 10.474 0 0 0 144.727 36.523 A 5.887 5.887 0 0 0 144.958 38.213 A 4.581 4.581 0 0 0 146.24 40.283 A 12.241 12.241 0 0 0 148.022 41.653 Q 148.904 42.216 149.957 42.708 A 20.032 20.032 0 0 0 150.098 42.773 L 150.098 53.223 A 51.058 51.058 0 0 1 146.729 52.1 A 43.394 43.394 0 0 1 143.359 50.684 A 38.491 38.491 0 0 1 140.107 48.769 Q 137.294 46.909 135.596 44.922 A 10.411 10.411 0 0 1 133.403 40.507 Q 133.032 38.963 133.009 37.156 A 18.899 18.899 0 0 1 133.008 36.914 A 17.328 17.328 0 0 1 133.44 32.971 A 14.403 14.403 0 0 1 134.375 30.225 Q 135.742 27.246 138.184 25.146 Q 140.625 23.047 143.701 21.826 A 22.646 22.646 0 0 1 150.098 20.313 Z M 443.359 20.313 L 443.359 30.078 A 8.697 8.697 0 0 0 441.547 30.624 A 6.125 6.125 0 0 0 439.404 32.129 A 5.128 5.128 0 0 0 438.299 34.147 Q 438.066 34.934 438.008 35.877 A 10.474 10.474 0 0 0 437.988 36.523 A 5.887 5.887 0 0 0 438.219 38.213 A 4.581 4.581 0 0 0 439.502 40.283 A 12.241 12.241 0 0 0 441.284 41.653 Q 442.165 42.216 443.218 42.708 A 20.032 20.032 0 0 0 443.359 42.773 L 443.359 53.223 A 51.058 51.058 0 0 1 439.99 52.1 A 43.394 43.394 0 0 1 436.621 50.684 A 38.491 38.491 0 0 1 433.369 48.769 Q 430.556 46.909 428.857 44.922 A 10.411 10.411 0 0 1 426.664 40.507 Q 426.294 38.963 426.271 37.156 A 18.899 18.899 0 0 1 426.27 36.914 A 17.328 17.328 0 0 1 426.702 32.971 A 14.403 14.403 0 0 1 427.637 30.225 Q 429.004 27.246 431.445 25.146 Q 433.887 23.047 436.963 21.826 A 22.646 22.646 0 0 1 443.359 20.313 Z M 495.703 20.313 L 495.703 30.078 A 8.697 8.697 0 0 0 493.891 30.624 A 6.125 6.125 0 0 0 491.748 32.129 A 5.128 5.128 0 0 0 490.643 34.147 Q 490.41 34.934 490.351 35.877 A 10.474 10.474 0 0 0 490.332 36.523 A 5.887 5.887 0 0 0 490.563 38.213 A 4.581 4.581 0 0 0 491.846 40.283 A 12.241 12.241 0 0 0 493.627 41.653 Q 494.509 42.216 495.562 42.708 A 20.032 20.032 0 0 0 495.703 42.773 L 495.703 53.223 A 51.058 51.058 0 0 1 492.334 52.1 A 43.394 43.394 0 0 1 488.965 50.684 A 38.491 38.491 0 0 1 485.712 48.769 Q 482.899 46.909 481.201 44.922 A 10.411 10.411 0 0 1 479.008 40.507 Q 478.638 38.963 478.615 37.156 A 18.899 18.899 0 0 1 478.613 36.914 A 17.328 17.328 0 0 1 479.046 32.971 A 14.403 14.403 0 0 1 479.98 30.225 Q 481.348 27.246 483.789 25.146 Q 486.23 23.047 489.307 21.826 A 22.646 22.646 0 0 1 495.703 20.313 Z M 133.203 71.875 L 138.184 63.965 A 22.881 22.881 0 0 0 140.32 65.283 Q 141.479 65.918 142.822 66.504 Q 145.508 67.676 149.609 67.676 L 150.098 67.676 L 150.098 76.758 A 72 72 0 0 1 147.754 76.721 A 55.654 55.654 0 0 1 145.605 76.611 Q 143.555 76.465 141.553 75.928 A 22.945 22.945 0 0 1 138.522 74.875 A 26.436 26.436 0 0 1 137.5 74.414 A 26.944 26.944 0 0 1 135.266 73.211 A 35.639 35.639 0 0 1 133.203 71.875 Z M 426.465 71.875 L 431.445 63.965 A 22.881 22.881 0 0 0 433.582 65.283 Q 434.741 65.918 436.084 66.504 Q 438.77 67.676 442.871 67.676 L 443.359 67.676 L 443.359 76.758 A 72 72 0 0 1 441.016 76.721 A 55.654 55.654 0 0 1 438.867 76.611 Q 436.816 76.465 434.814 75.928 A 22.945 22.945 0 0 1 431.784 74.875 A 26.436 26.436 0 0 1 430.762 74.414 A 26.944 26.944 0 0 1 428.528 73.211 A 35.639 35.639 0 0 1 426.465 71.875 Z M 478.809 71.875 L 483.789 63.965 A 22.881 22.881 0 0 0 485.925 65.283 Q 487.085 65.918 488.428 66.504 Q 491.113 67.676 495.215 67.676 L 495.703 67.676 L 495.703 76.758 A 72 72 0 0 1 493.359 76.721 A 55.654 55.654 0 0 1 491.211 76.611 Q 489.16 76.465 487.158 75.928 A 22.945 22.945 0 0 1 484.128 74.875 A 26.436 26.436 0 0 1 483.105 74.414 A 26.944 26.944 0 0 1 480.871 73.211 A 35.639 35.639 0 0 1 478.809 71.875 Z M 290.332 29.102 L 285.059 35.449 A 12.239 12.239 0 0 0 283.439 33.855 Q 282.596 33.159 281.551 32.507 A 22.08 22.08 0 0 0 281.006 32.178 A 11.39 11.39 0 0 0 278.621 31.149 Q 277.411 30.774 275.968 30.565 A 24.467 24.467 0 0 0 274.121 30.371 L 274.121 20.996 Q 279.392 21.284 283.205 23.217 A 17.117 17.117 0 0 1 283.35 23.291 A 21.208 21.208 0 0 1 288.464 27.051 A 26.207 26.207 0 0 1 290.332 29.102 Z M 347.461 29.102 L 342.188 35.449 A 12.239 12.239 0 0 0 340.567 33.855 Q 339.724 33.159 338.68 32.507 A 22.08 22.08 0 0 0 338.135 32.178 A 11.39 11.39 0 0 0 335.75 31.149 Q 334.54 30.774 333.097 30.565 A 24.467 24.467 0 0 0 331.25 30.371 L 331.25 20.996 Q 336.521 21.284 340.334 23.217 A 17.117 17.117 0 0 1 340.479 23.291 A 21.208 21.208 0 0 1 345.593 27.051 A 26.207 26.207 0 0 1 347.461 29.102 Z M 274.121 76.66 L 274.121 66.992 A 20.44 20.44 0 0 0 277.001 66.473 Q 278.564 66.067 279.861 65.42 A 12.383 12.383 0 0 0 280.127 65.283 A 31.861 31.861 0 0 0 284.863 62.207 L 289.258 68.555 A 26.777 26.777 0 0 1 286.211 71.82 A 20.164 20.164 0 0 1 282.715 74.365 Q 279.354 76.279 274.564 76.631 A 28.27 28.27 0 0 1 274.121 76.66 Z M 331.25 76.66 L 331.25 66.992 A 20.44 20.44 0 0 0 334.13 66.473 Q 335.693 66.067 336.99 65.42 A 12.383 12.383 0 0 0 337.256 65.283 A 31.861 31.861 0 0 0 341.992 62.207 L 346.387 68.555 A 26.777 26.777 0 0 1 343.339 71.82 A 20.164 20.164 0 0 1 339.844 74.365 Q 336.483 76.279 331.693 76.631 A 28.27 28.27 0 0 1 331.25 76.66 Z M 169.434 24.707 L 165.625 32.813 Q 162.988 31.445 160.01 30.762 Q 157.031 30.078 154.102 29.883 L 154.102 20.215 Q 158.496 20.41 162.207 21.436 A 25.999 25.999 0 0 1 168.33 24.035 A 29.882 29.882 0 0 1 169.434 24.707 Z M 462.695 24.707 L 458.887 32.813 Q 456.25 31.445 453.271 30.762 Q 450.293 30.078 447.363 29.883 L 447.363 20.215 Q 451.758 20.41 455.469 21.436 A 25.999 25.999 0 0 1 461.592 24.035 A 29.882 29.882 0 0 1 462.695 24.707 Z M 515.039 24.707 L 511.23 32.813 Q 508.594 31.445 505.615 30.762 Q 502.637 30.078 499.707 29.883 L 499.707 20.215 Q 504.102 20.41 507.813 21.436 A 25.999 25.999 0 0 1 513.936 24.035 A 29.882 29.882 0 0 1 515.039 24.707 Z"
       vector-effect="non-scaling-stroke"
       id="path378"
       fill="red"
       stroke="yellow" />
  </g>
</svg>
