<?xml version="1.0" encoding="UTF-8" standalone="no"?>
<svg
   width="605.8"
   height="102.2"
   viewBox="0 0 605.8 102.2"
   version="1.1"
   id="svg30"
   sodipodi:docname="pass.svg"
   inkscape:version="1.1.1 (3bf5ae0d25, 2021-09-20)"
   xmlns:inkscape="http://www.inkscape.org/namespaces/inkscape"
   xmlns:sodipodi="http://sodipodi.sourceforge.net/DTD/sodipodi-0.dtd"
   xmlns="http://www.w3.org/2000/svg"
   xmlns:svg="http://www.w3.org/2000/svg">
  <defs
     id="defs34">
    <filter
       style="color-interpolation-filters:sRGB;"
       inkscape:label="Drop Shadow"
       id="filter204"
       x="-0.012678451"
       y="-0.075072806"
       width="1.0356298"
       height="1.208854">
      <feFlood
         flood-opacity="0.498039"
         flood-color="rgb(0,0,0)"
         result="flood"
         id="feFlood194" />
      <feComposite
         in="flood"
         in2="SourceGraphic"
         operator="in"
         result="composite1"
         id="feComposite196" />
      <feGaussianBlur
         in="composite1"
         stdDeviation="3"
         result="blur"
         id="feGaussianBlur198" />
      <feOffset
         dx="6"
         dy="6"
         result="offset"
         id="feOffset200" />
      <feComposite
         in="SourceGraphic"
         in2="offset"
         operator="over"
         result="composite2"
         id="feComposite202" />
    </filter>
  </defs>
  <sodipodi:namedview
     id="namedview32"
     pagecolor="#505050"
     bordercolor="#eeeeee"
     borderopacity="1"
     inkscape:pageshadow="0"
     inkscape:pageopacity="0"
     inkscape:pagecheckerboard="0"
     showgrid="false"
     inkscape:zoom="1.2817762"
     inkscape:cx="376.43077"
     inkscape:cy="109.61352"
     inkscape:window-width="2400"
     inkscape:window-height="1261"
     inkscape:window-x="-9"
     inkscape:window-y="-9"
     inkscape:window-maximized="1"
     inkscape:current-layer="svg30" />
  <g
     id="svgGroup"
     stroke-linecap="round"
     font-size="9pt"
     stroke="#000"
     stroke-width="0.25mm"
     style="stroke:#000;stroke-width:0.25mm;fill:black;filter:url(#filter204)">
    <path
       d="M 0 57.8 L 9.7 57.8 Q 10.2 62.7 13.75 66.05 Q 16.731 68.863 22.005 69.314 A 24.62 24.62 0 0 0 24.1 69.4 A 21.025 21.025 0 0 0 28.244 69.016 Q 30.75 68.512 32.696 67.346 A 11.69 11.69 0 0 0 34.35 66.15 Q 38.1 62.9 38.1 57.8 A 11.856 11.856 0 0 0 37.768 54.917 A 8.511 8.511 0 0 0 35.9 51.3 A 13.95 13.95 0 0 0 30.808 47.667 A 16.307 16.307 0 0 0 30.4 47.5 Q 27.1 46.2 21.5 44.7 Q 16.972 43.519 13.628 42.338 A 49.242 49.242 0 0 1 10.45 41.1 A 17.58 17.58 0 0 1 3.914 36.154 A 20.857 20.857 0 0 1 3.35 35.45 A 13.419 13.419 0 0 1 1.095 30.785 Q 0.574 28.887 0.443 26.638 A 26.604 26.604 0 0 1 0.4 25.1 A 19.032 19.032 0 0 1 1.396 18.867 A 17.127 17.127 0 0 1 3.3 15 A 18.422 18.422 0 0 1 9.867 8.999 A 22.652 22.652 0 0 1 11.45 8.2 Q 16.7 5.8 23.5 5.8 A 32.104 32.104 0 0 1 30.549 6.533 A 22.295 22.295 0 0 1 39.55 10.7 A 18.034 18.034 0 0 1 46.545 23.197 A 22.746 22.746 0 0 1 46.6 23.7 L 36.6 23.7 A 9.933 9.933 0 0 0 34.272 18.493 A 14.149 14.149 0 0 0 32.4 16.65 A 12.796 12.796 0 0 0 27.32 14.143 Q 25.173 13.6 22.6 13.6 Q 16.9 13.6 13.3 16.55 A 9.624 9.624 0 0 0 9.809 23.028 A 13.958 13.958 0 0 0 9.7 24.8 A 10.999 10.999 0 0 0 10.028 27.555 A 8.121 8.121 0 0 0 11.85 31 Q 14 33.4 17.15 34.65 A 51.703 51.703 0 0 0 19.368 35.465 Q 22.081 36.4 26 37.5 Q 30.636 38.777 34.053 40.031 A 52.202 52.202 0 0 1 37.1 41.25 A 18.377 18.377 0 0 1 43.92 46.477 A 21.553 21.553 0 0 1 44.3 46.95 Q 46.908 50.297 47.249 55.721 A 26.77 26.77 0 0 1 47.3 57.4 Q 47.3 62.5 44.6 67 A 18.708 18.708 0 0 1 39.376 72.591 A 23.917 23.917 0 0 1 36.6 74.3 A 23.701 23.701 0 0 1 29.435 76.673 A 31.936 31.936 0 0 1 24.1 77.1 A 33.278 33.278 0 0 1 17.181 76.409 A 26.744 26.744 0 0 1 11.75 74.65 A 22.577 22.577 0 0 1 6.623 71.511 A 19.043 19.043 0 0 1 3.2 67.85 A 17.272 17.272 0 0 1 0.024 58.507 A 21.055 21.055 0 0 1 0 57.8 Z M 596.4 21.6 L 605.8 21.6 L 572.8 102.2 L 563.4 102.2 L 574.2 75.8 L 552.1 21.6 L 562.2 21.6 L 579.4 66 L 596.4 21.6 Z M 100.2 21.6 L 109.3 21.6 L 109.3 76.4 L 100.2 76.4 L 100.2 68.3 A 17.683 17.683 0 0 1 93.095 74.776 A 20.981 20.981 0 0 1 92.95 74.85 A 22.125 22.125 0 0 1 83.742 77.179 A 26.075 26.075 0 0 1 82.7 77.2 Q 76.3 77.2 71.2 74.55 A 19.191 19.191 0 0 1 63.336 66.929 A 23.007 23.007 0 0 1 63.15 66.6 A 22.472 22.472 0 0 1 60.806 60.115 Q 60.2 57.144 60.2 53.7 L 60.2 21.6 L 69.2 21.6 L 69.2 52.5 Q 69.2 60.6 73.3 64.95 A 13.542 13.542 0 0 0 80.915 68.989 A 19.713 19.713 0 0 0 84.5 69.3 A 19.127 19.127 0 0 0 89.347 68.719 A 13.606 13.606 0 0 0 96 64.8 Q 99.527 61.021 100.092 54.35 A 31.418 31.418 0 0 0 100.2 51.7 L 100.2 21.6 Z M 484.9 21.6 L 494 21.6 L 494 76.4 L 484.9 76.4 L 484.9 68.3 A 17.683 17.683 0 0 1 477.795 74.776 A 20.981 20.981 0 0 1 477.65 74.85 A 22.125 22.125 0 0 1 468.442 77.179 A 26.075 26.075 0 0 1 467.4 77.2 Q 461 77.2 455.9 74.55 A 19.191 19.191 0 0 1 448.036 66.929 A 23.007 23.007 0 0 1 447.85 66.6 A 22.472 22.472 0 0 1 445.506 60.115 Q 444.9 57.144 444.9 53.7 L 444.9 21.6 L 453.9 21.6 L 453.9 52.5 Q 453.9 60.6 458 64.95 A 13.542 13.542 0 0 0 465.615 68.989 A 19.713 19.713 0 0 0 469.2 69.3 A 19.127 19.127 0 0 0 474.047 68.719 A 13.606 13.606 0 0 0 480.7 64.8 Q 484.227 61.021 484.792 54.35 A 31.418 31.418 0 0 0 484.9 51.7 L 484.9 21.6 Z M 305.1 60.3 L 314.5 60.3 A 9.155 9.155 0 0 0 318.02 66.743 A 11.993 11.993 0 0 0 318.35 67 A 12.283 12.283 0 0 0 322.766 69.066 Q 324.469 69.5 326.464 69.581 A 22.977 22.977 0 0 0 327.4 69.6 Q 332.6 69.6 335.6 67.3 A 8.231 8.231 0 0 0 337.472 65.342 A 6.776 6.776 0 0 0 338.6 61.5 Q 338.6 58.269 336.023 56.528 A 7.787 7.787 0 0 0 335.4 56.15 A 21.998 21.998 0 0 0 333.192 55.115 Q 330.211 53.895 325.5 52.7 A 106.083 106.083 0 0 1 321.406 51.544 Q 319.499 50.961 317.885 50.371 A 45.939 45.939 0 0 1 315.55 49.45 Q 311.7 47.8 308.95 44.55 A 11.243 11.243 0 0 1 306.603 39.757 Q 306.213 38.083 306.2 36.127 A 20.286 20.286 0 0 1 306.2 36 Q 306.2 31.8 308.7 28.3 A 15.649 15.649 0 0 1 313.007 24.251 A 20.575 20.575 0 0 1 315.8 22.75 A 23.366 23.366 0 0 1 322.058 20.988 A 30.157 30.157 0 0 1 326.3 20.7 Q 335.4 20.7 341 25.3 A 16.126 16.126 0 0 1 346.819 35.953 A 22.281 22.281 0 0 1 347 37.9 L 337.9 37.9 A 10.257 10.257 0 0 0 336.993 34.242 A 9.251 9.251 0 0 0 334.45 31 A 10.824 10.824 0 0 0 330.243 28.902 Q 328.688 28.494 326.859 28.418 A 20.556 20.556 0 0 0 326 28.4 A 18.569 18.569 0 0 0 322.868 28.648 Q 321.142 28.944 319.753 29.592 A 9.438 9.438 0 0 0 318.2 30.5 A 7.435 7.435 0 0 0 316.377 32.339 A 6.37 6.37 0 0 0 315.3 36 A 6.824 6.824 0 0 0 315.635 38.181 A 5.765 5.765 0 0 0 317.05 40.45 A 11.913 11.913 0 0 0 319.808 42.486 A 15.03 15.03 0 0 0 321.45 43.25 A 42.404 42.404 0 0 0 323.306 43.931 Q 325.251 44.597 327.91 45.351 A 146.381 146.381 0 0 0 328.8 45.6 A 117.579 117.579 0 0 1 332.596 46.694 Q 335.972 47.733 338.4 48.75 Q 342.1 50.3 344.75 53.4 A 11.088 11.088 0 0 1 347.091 58.118 A 15.963 15.963 0 0 1 347.5 61.5 Q 347.5 66 345 69.6 A 15.782 15.782 0 0 1 340.223 74.052 A 20.115 20.115 0 0 1 337.95 75.25 Q 333.4 77.3 327.5 77.3 A 31.669 31.669 0 0 1 321.173 76.693 A 25.363 25.363 0 0 1 316.2 75.15 A 21.052 21.052 0 0 1 311.495 72.398 A 17.493 17.493 0 0 1 308.3 69.15 Q 305.4 65.3 305.1 60.3 Z M 357.3 60.3 L 366.7 60.3 A 9.155 9.155 0 0 0 370.22 66.743 A 11.993 11.993 0 0 0 370.55 67 A 12.283 12.283 0 0 0 374.966 69.066 Q 376.669 69.5 378.664 69.581 A 22.977 22.977 0 0 0 379.6 69.6 Q 384.8 69.6 387.8 67.3 A 8.231 8.231 0 0 0 389.672 65.342 A 6.776 6.776 0 0 0 390.8 61.5 Q 390.8 58.269 388.223 56.528 A 7.787 7.787 0 0 0 387.6 56.15 A 21.998 21.998 0 0 0 385.392 55.115 Q 382.411 53.895 377.7 52.7 A 106.083 106.083 0 0 1 373.606 51.544 Q 371.699 50.961 370.085 50.371 A 45.939 45.939 0 0 1 367.75 49.45 Q 363.9 47.8 361.15 44.55 A 11.243 11.243 0 0 1 358.803 39.757 Q 358.413 38.083 358.4 36.127 A 20.286 20.286 0 0 1 358.4 36 Q 358.4 31.8 360.9 28.3 A 15.649 15.649 0 0 1 365.207 24.251 A 20.575 20.575 0 0 1 368 22.75 A 23.366 23.366 0 0 1 374.258 20.988 A 30.157 30.157 0 0 1 378.5 20.7 Q 387.6 20.7 393.2 25.3 A 16.126 16.126 0 0 1 399.019 35.953 A 22.281 22.281 0 0 1 399.2 37.9 L 390.1 37.9 A 10.257 10.257 0 0 0 389.193 34.242 A 9.251 9.251 0 0 0 386.65 31 A 10.824 10.824 0 0 0 382.443 28.902 Q 380.888 28.494 379.059 28.418 A 20.556 20.556 0 0 0 378.2 28.4 A 18.569 18.569 0 0 0 375.068 28.648 Q 373.342 28.944 371.953 29.592 A 9.438 9.438 0 0 0 370.4 30.5 A 7.435 7.435 0 0 0 368.577 32.339 A 6.37 6.37 0 0 0 367.5 36 A 6.824 6.824 0 0 0 367.835 38.181 A 5.765 5.765 0 0 0 369.25 40.45 A 11.913 11.913 0 0 0 372.008 42.486 A 15.03 15.03 0 0 0 373.65 43.25 A 42.404 42.404 0 0 0 375.506 43.931 Q 377.451 44.597 380.11 45.351 A 146.381 146.381 0 0 0 381 45.6 A 117.579 117.579 0 0 1 384.796 46.694 Q 388.172 47.733 390.6 48.75 Q 394.3 50.3 396.95 53.4 A 11.088 11.088 0 0 1 399.291 58.118 A 15.963 15.963 0 0 1 399.7 61.5 Q 399.7 66 397.2 69.6 A 15.782 15.782 0 0 1 392.423 74.052 A 20.115 20.115 0 0 1 390.15 75.25 Q 385.6 77.3 379.7 77.3 A 31.669 31.669 0 0 1 373.373 76.693 A 25.363 25.363 0 0 1 368.4 75.15 A 21.052 21.052 0 0 1 363.695 72.398 A 17.493 17.493 0 0 1 360.5 69.15 Q 357.6 65.3 357.3 60.3 Z M 173.3 39.2 L 163.5 39.2 Q 162.1 34.2 158.05 31.3 A 15.177 15.177 0 0 0 152.061 28.775 A 21.027 21.027 0 0 0 148 28.4 A 18.431 18.431 0 0 0 141.978 29.343 A 15.491 15.491 0 0 0 135.4 33.75 A 17.496 17.496 0 0 0 131.726 40.45 Q 130.917 43.112 130.689 46.312 A 36.485 36.485 0 0 0 130.6 48.9 A 32.762 32.762 0 0 0 131.115 54.904 Q 131.743 58.268 133.136 60.914 A 16.46 16.46 0 0 0 135.4 64.2 A 15.806 15.806 0 0 0 146.8 69.567 A 21.56 21.56 0 0 0 148 69.6 A 21.205 21.205 0 0 0 152.542 69.138 A 15.004 15.004 0 0 0 158 66.8 A 13.775 13.775 0 0 0 162.97 60.366 A 17.858 17.858 0 0 0 163.5 58.8 L 173.3 58.8 Q 171.1 67.2 164.5 72.25 Q 157.9 77.3 148 77.3 A 29.614 29.614 0 0 1 139.992 76.253 A 25.14 25.14 0 0 1 134.15 73.8 Q 128.1 70.3 124.7 63.9 A 28.61 28.61 0 0 1 121.778 55.041 A 37.927 37.927 0 0 1 121.3 48.9 A 35.983 35.983 0 0 1 122.047 41.404 A 27.697 27.697 0 0 1 124.7 34.05 Q 128.1 27.7 134.15 24.2 A 26.104 26.104 0 0 1 144.671 20.867 A 32.409 32.409 0 0 1 148 20.7 A 34.227 34.227 0 0 1 155.349 21.448 A 23.855 23.855 0 0 1 164.65 25.6 Q 171.2 30.5 173.3 39.2 Z M 234 39.2 L 224.2 39.2 Q 222.8 34.2 218.75 31.3 A 15.177 15.177 0 0 0 212.761 28.775 A 21.027 21.027 0 0 0 208.7 28.4 A 18.431 18.431 0 0 0 202.678 29.343 A 15.491 15.491 0 0 0 196.1 33.75 A 17.496 17.496 0 0 0 192.426 40.45 Q 191.617 43.112 191.389 46.312 A 36.485 36.485 0 0 0 191.3 48.9 A 32.762 32.762 0 0 0 191.815 54.904 Q 192.443 58.268 193.836 60.914 A 16.46 16.46 0 0 0 196.1 64.2 A 15.806 15.806 0 0 0 207.5 69.567 A 21.56 21.56 0 0 0 208.7 69.6 A 21.205 21.205 0 0 0 213.242 69.138 A 15.004 15.004 0 0 0 218.7 66.8 A 13.775 13.775 0 0 0 223.67 60.366 A 17.858 17.858 0 0 0 224.2 58.8 L 234 58.8 Q 231.8 67.2 225.2 72.25 Q 218.6 77.3 208.7 77.3 A 29.614 29.614 0 0 1 200.692 76.253 A 25.14 25.14 0 0 1 194.85 73.8 Q 188.8 70.3 185.4 63.9 A 28.61 28.61 0 0 1 182.478 55.041 A 37.927 37.927 0 0 1 182 48.9 A 35.983 35.983 0 0 1 182.747 41.404 A 27.697 27.697 0 0 1 185.4 34.05 Q 188.8 27.7 194.85 24.2 A 26.104 26.104 0 0 1 205.371 20.867 A 32.409 32.409 0 0 1 208.7 20.7 A 34.227 34.227 0 0 1 216.049 21.448 A 23.855 23.855 0 0 1 225.35 25.6 Q 231.9 30.5 234 39.2 Z M 295.8 52.4 L 252 52.4 Q 252.5 60.5 257.55 65.05 Q 262.6 69.6 269.8 69.6 A 20.912 20.912 0 0 0 274.272 69.146 A 14.858 14.858 0 0 0 279.65 66.85 Q 283.6 64.1 285.2 59.5 L 295 59.5 Q 292.8 67.4 286.2 72.35 A 24.315 24.315 0 0 1 275.887 76.767 A 33.325 33.325 0 0 1 269.8 77.3 A 29.737 29.737 0 0 1 261.333 76.13 A 25.872 25.872 0 0 1 255.85 73.8 Q 249.7 70.3 246.2 63.85 A 28.736 28.736 0 0 1 243.046 54.043 A 37.049 37.049 0 0 1 242.7 48.9 A 35.963 35.963 0 0 1 243.498 41.158 A 28.007 28.007 0 0 1 246.1 34 Q 249.5 27.6 255.65 24.15 A 26.959 26.959 0 0 1 265.681 20.943 A 33.989 33.989 0 0 1 269.8 20.7 A 30.42 30.42 0 0 1 277.526 21.646 A 25.207 25.207 0 0 1 283.6 24.1 Q 289.6 27.5 292.85 33.45 A 26.722 26.722 0 0 1 295.981 44.086 A 32.702 32.702 0 0 1 296.1 46.9 A 50.208 50.208 0 0 1 295.983 50.267 A 59.616 59.616 0 0 1 295.8 52.4 Z M 434.8 21.6 L 434.8 29.1 L 423.3 29.1 L 423.3 76.4 L 414.2 76.4 L 414.2 29.1 L 407.1 29.1 L 407.1 21.6 L 414.2 21.6 L 414.2 17.7 Q 414.2 11.854 416.118 8.007 A 12.404 12.404 0 0 1 418.95 4.25 A 14.169 14.169 0 0 1 423.535 1.579 Q 427.532 0.099 433.408 0.006 A 50.28 50.28 0 0 1 434.2 0 L 434.2 7.6 Q 429.079 7.6 426.544 9.312 A 5.971 5.971 0 0 0 425.75 9.95 Q 423.964 11.663 423.48 14.997 A 18.867 18.867 0 0 0 423.3 17.7 L 423.3 21.6 L 434.8 21.6 Z M 509.4 2.4 L 518.5 2.4 L 518.5 76.4 L 509.4 76.4 L 509.4 2.4 Z M 534 2.4 L 543.1 2.4 L 543.1 76.4 L 534 76.4 L 534 2.4 Z M 252.1 45 L 286.7 45 A 19.713 19.713 0 0 0 286.228 40.585 A 15.038 15.038 0 0 0 284.4 36.05 Q 282.1 32.3 278.15 30.35 A 19.058 19.058 0 0 0 270.879 28.448 A 22.704 22.704 0 0 0 269.4 28.4 A 17.948 17.948 0 0 0 262.693 29.624 A 16.64 16.64 0 0 0 257.65 32.8 A 16.427 16.427 0 0 0 252.897 40.615 A 23.434 23.434 0 0 0 252.1 45 Z"
       vector-effect="non-scaling-stroke"
       id="path27"
       fill="green" />
  </g>
</svg>
