<?xml version="1.0" standalone="no"?>
<!DOCTYPE svg PUBLIC "-//W3C//DTD SVG 20010904//EN"
 "http://www.w3.org/TR/2001/REC-SVG-20010904/DTD/svg10.dtd">
<svg version="1.0" xmlns="http://www.w3.org/2000/svg"
 width="768.000000pt" height="768.000000pt" viewBox="0 0 768.000000 768.000000"
 preserveAspectRatio="xMidYMid meet">
<metadata>
Created by potrace 1.14, written by Peter Selinger 2001-2017
</metadata>
<g transform="translate(0.000000,768.000000) scale(0.100000,-0.100000)"
fill="#000000" stroke="none">
<path d="M2360 7477 c-3 -3 -23 -7 -45 -10 -22 -3 -47 -8 -55 -11 -8 -3 -26
-7 -40 -10 -40 -7 -183 -46 -194 -54 -6 -3 -16 -7 -21 -8 -27 -4 -179 -70
-260 -113 -151 -80 -202 -112 -315 -201 -76 -59 -203 -172 -257 -228 -99 -103
-125 -133 -191 -222 -40 -52 -76 -100 -80 -105 -22 -27 -124 -208 -160 -285
-37 -78 -105 -261 -117 -313 -2 -12 -14 -59 -25 -104 -20 -85 -25 -108 -34
-183 -3 -25 -8 -56 -11 -70 -3 -14 -8 -42 -10 -64 -2 -21 -9 -63 -15 -93 -5
-31 -7 -59 -5 -63 3 -5 1 -11 -5 -15 -6 -4 -8 -9 -6 -13 2 -4 0 -29 -5 -57 -5
-27 -11 -68 -14 -90 -3 -22 -7 -49 -9 -61 -5 -22 -16 -109 -22 -159 -1 -16 -3
-30 -4 -30 -2 0 -8 -33 -15 -80 -3 -22 -7 -49 -9 -61 -2 -12 -7 -45 -11 -75
-4 -30 -10 -74 -15 -99 -4 -25 -8 -52 -8 -60 0 -8 -3 -26 -6 -40 -5 -24 -10
-61 -21 -137 -3 -21 -8 -49 -11 -63 -2 -14 -7 -43 -9 -64 -3 -22 -7 -51 -9
-65 -3 -14 -7 -46 -11 -71 -4 -25 -9 -58 -12 -75 -2 -16 -6 -43 -8 -58 -11
-75 -17 -117 -25 -167 -5 -30 -12 -73 -15 -95 -3 -23 -8 -52 -10 -65 -5 -23
-11 -65 -20 -145 -2 -16 -6 -39 -8 -50 -2 -11 -8 -42 -12 -70 -4 -27 -9 -63
-12 -80 -3 -16 -6 -43 -8 -60 -2 -16 -4 -30 -5 -30 -1 0 -3 -13 -5 -30 -4 -33
-14 -98 -20 -136 -2 -13 -6 -42 -9 -64 -3 -22 -7 -49 -10 -60 -2 -11 -7 -40
-10 -65 -3 -25 -8 -56 -10 -70 -3 -14 -7 -45 -10 -70 -4 -25 -8 -56 -10 -70
-3 -14 -10 -61 -16 -105 -7 -44 -13 -87 -15 -95 -3 -16 -11 -71 -20 -132 -10
-70 -34 -233 -41 -270 -36 -214 -25 -518 26 -710 25 -90 63 -195 97 -262 35
-70 121 -216 132 -226 3 -3 25 -30 48 -61 150 -202 396 -386 648 -484 44 -17
186 -53 240 -61 22 -3 58 -9 81 -13 23 -5 55 -7 73 -7 17 1 31 -2 31 -6 0 -6
756 -4 1880 7 261 2 795 7 1185 10 996 9 1009 10 1110 37 22 6 49 13 60 15 29
6 38 9 57 17 9 4 22 9 30 10 7 2 24 8 38 13 14 6 45 19 70 29 25 10 60 26 78
36 18 10 39 18 46 18 8 0 16 3 18 8 2 4 41 29 88 56 73 42 171 103 205 128
138 101 373 319 434 403 16 22 39 50 50 62 40 43 169 242 212 329 24 49 49 92
54 96 6 4 7 8 2 8 -4 0 2 18 13 40 11 22 18 40 14 40 -4 0 -2 6 3 13 5 6 20
46 32 87 13 41 25 82 29 90 3 8 6 22 8 30 4 21 17 83 19 95 2 6 5 24 8 40 5
28 20 113 32 180 3 17 8 45 11 64 3 18 8 43 10 55 3 11 7 35 9 51 3 17 7 41
10 55 3 14 12 63 20 110 8 47 17 96 20 110 3 14 8 45 11 70 3 25 10 50 15 56
5 6 6 14 3 17 -4 3 -1 28 5 54 6 26 13 64 16 83 3 19 7 46 10 60 3 14 7 41 10
60 3 19 8 49 12 65 4 17 8 38 9 48 1 9 2 18 3 20 2 1 4 13 6 27 2 14 10 63 19
110 9 47 18 99 21 115 2 17 7 41 10 55 2 13 7 40 10 60 3 20 7 47 10 60 3 14
8 41 11 60 4 19 8 44 10 55 5 25 9 46 28 160 9 50 18 101 21 115 3 14 8 45 11
70 3 25 8 48 10 51 2 3 6 21 9 40 3 19 8 45 10 59 3 14 8 43 10 65 3 22 7 54
10 70 3 17 7 46 9 65 3 19 7 49 10 65 8 49 16 107 21 160 2 28 6 59 9 71 4 19
9 58 21 164 2 19 7 60 11 90 4 30 8 71 10 90 9 116 15 189 20 215 3 17 7 139
8 273 3 208 1 251 -13 300 -37 122 -109 192 -223 218 -33 8 -132 4 -167 -6
-16 -4 -32 -6 -35 -2 -3 3 -6 1 -6 -5 0 -6 -10 -13 -22 -17 -16 -4 -39 -34
-73 -93 -27 -49 -51 -94 -53 -100 -2 -7 -8 -13 -13 -13 -5 0 -9 -4 -9 -10 0
-5 -39 -76 -86 -157 -117 -200 -189 -324 -237 -408 -22 -38 -60 -103 -84 -143
-24 -40 -43 -74 -43 -76 0 -2 -24 -43 -53 -92 -29 -49 -56 -96 -60 -104 -4 -8
-15 -28 -26 -45 -10 -16 -28 -48 -41 -70 -12 -22 -53 -93 -91 -157 -38 -64
-69 -121 -69 -127 0 -5 -4 -11 -8 -13 -4 -1 -19 -23 -33 -48 -14 -25 -35 -62
-47 -82 -12 -21 -30 -53 -41 -70 -10 -18 -32 -57 -50 -86 -17 -29 -31 -57 -31
-62 0 -6 -4 -10 -9 -10 -5 0 -12 -11 -15 -25 -4 -14 -11 -25 -16 -25 -6 0 -10
-4 -10 -9 0 -8 -58 -111 -160 -286 -29 -49 -64 -110 -78 -135 -14 -25 -33 -57
-43 -72 -11 -14 -19 -30 -19 -36 0 -5 -7 -15 -15 -22 -9 -7 -13 -15 -10 -18 3
-3 -6 -19 -18 -36 -13 -17 -26 -35 -28 -41 -4 -10 -83 -149 -99 -175 -16 -25
-126 -214 -133 -230 -4 -8 -13 -24 -20 -35 -7 -11 -36 -63 -66 -115 -30 -52
-58 -97 -63 -98 -4 -2 -8 -8 -8 -12 0 -5 -28 -58 -63 -118 -35 -60 -67 -115
-71 -123 -4 -8 -12 -23 -19 -34 -53 -86 -86 -146 -92 -164 -3 -11 -11 -21 -16
-21 -5 0 -9 -4 -9 -9 0 -5 -20 -42 -45 -83 -24 -40 -53 -89 -63 -108 -10 -19
-51 -91 -90 -158 -40 -68 -72 -128 -72 -133 0 -5 -4 -9 -9 -9 -5 0 -11 -6 -13
-13 -3 -10 -53 -98 -144 -255 -12 -20 -33 -41 -47 -47 -16 -7 -466 -9 -1333
-8 -720 0 -1311 1 -1314 2 -5 1 -6 77 -9 431 0 25 0 52 0 60 0 14 0 278 -1
310 0 8 -2 247 -4 530 -5 482 -7 824 -21 2757 l-6 761 861 1 860 0 1 -22 c0
-12 -1 -132 -2 -267 0 -135 -2 -410 -3 -612 0 -203 -4 -368 -8 -368 -4 0 -3
-11 2 -24 5 -13 6 -27 3 -30 -4 -4 -6 -30 -4 -59 1 -28 2 -56 2 -62 0 -5 -3
-136 -5 -290 -3 -154 -8 -386 -11 -515 -4 -129 -6 -241 -6 -247 1 -7 1 -19 2
-25 0 -7 0 -133 -1 -280 -1 -147 1 -271 4 -276 2 -4 2 -13 -2 -19 -4 -6 -5
-41 -4 -77 l4 -67 46 51 c26 29 64 84 85 123 21 40 69 128 107 197 96 177 119
221 185 345 32 61 63 113 69 117 6 4 8 8 4 8 -4 0 14 37 39 82 25 45 49 91 54
102 5 12 17 35 27 51 10 17 41 73 69 125 52 99 106 200 153 285 15 28 51 95
81 150 29 55 68 127 87 160 18 33 39 72 45 88 6 15 15 27 19 27 4 0 8 9 8 19
0 11 4 22 9 26 6 3 16 18 24 33 7 15 37 72 67 127 29 55 57 107 61 115 4 8 18
33 30 55 13 22 24 46 26 54 1 8 6 17 11 20 7 5 88 154 169 311 15 30 30 57 33
60 3 3 17 28 31 55 14 28 39 75 56 105 17 30 49 91 73 135 23 44 57 107 75
140 62 113 98 180 133 250 20 39 39 72 42 75 3 3 19 32 36 65 17 33 42 80 56
105 14 25 46 86 73 135 26 50 60 113 75 140 84 154 80 143 85 257 4 106 -20
204 -62 256 -30 37 -105 82 -133 81 -8 -1 -17 0 -20 1 -3 1 -16 4 -30 7 -31 6
-3134 16 -3140 10z"/>
</g>
</svg>
