<?xml version="1.0" encoding="UTF-8" standalone="no"?>
<!-- Created with Inkscape (http://www.inkscape.org/) -->

<svg
   width="26.880096mm"
   height="15.476527mm"
   viewBox="0 0 26.880096 15.476527"
   version="1.1"
   id="svg1650"
   inkscape:version="1.1.2 (0a00cf5339, 2022-02-04, custom)"
   sodipodi:docname="apikey.svg"
   xmlns:inkscape="http://www.inkscape.org/namespaces/inkscape"
   xmlns:sodipodi="http://sodipodi.sourceforge.net/DTD/sodipodi-0.dtd"
   xmlns="http://www.w3.org/2000/svg"
   xmlns:svg="http://www.w3.org/2000/svg">
  <sodipodi:namedview
     id="namedview1652"
     pagecolor="#505050"
     bordercolor="#eeeeee"
     borderopacity="1"
     inkscape:pageshadow="0"
     inkscape:pageopacity="0"
     inkscape:pagecheckerboard="0"
     inkscape:document-units="mm"
     showgrid="false"
     fit-margin-top="0"
     fit-margin-left="0"
     fit-margin-right="0"
     fit-margin-bottom="0"
     inkscape:zoom="0.73406285"
     inkscape:cx="303.10756"
     inkscape:cy="388.93127"
     inkscape:window-width="2400"
     inkscape:window-height="1261"
     inkscape:window-x="-2409"
     inkscape:window-y="-462"
     inkscape:window-maximized="1"
     inkscape:current-layer="layer1" />
  <defs
     id="defs1647" />
  <g
     inkscape:label="Layer 1"
     inkscape:groupmode="layer"
     id="layer1"
     transform="translate(-24.766263,-45.606397)">
    <g
       transform="matrix(0.102515,0,0,0.102515,27.774982,50.531685)"
       id="g412"
       style="stroke:#000000;stroke-width:0.998817;stroke-miterlimit:4;stroke-dasharray:none;stroke-opacity:1;paint-order:stroke markers fill">
      <path
         fill-mode="evenodd"
         fill="#ab228b"
         d="m 0.518,-6.526 0.297,0.048 0.172,0.098 0.529,0.107 1.005,0.677 0.095,0.142 0.06,0.034 0.019,0.007 0.08,0.194 0.039,0.058 0.367,0.393 0.363,1.406 -0.005,0.019 0.021,0.053 -0.4,1.416 -0.175,0.162 -0.059,0.16 -0.125,0.073 -0.083,0.192 -0.126,0.054 -0.071,0.106 -0.559,0.377 -0.051,0.091 -0.121,0.071 -0.081,0.2 -0.23,0.235 L 1.354,0.02 1.318,0.038 1.3,0.087 1.003,0.24 0.953,0.299 0.643,0.707 0.246,1.398 0.125,1.519 0.084,1.648 l -0.422,0.596 -0.348,1.052 -0.06,0.081 -0.032,0.157 -0.637,1.495 -0.76,1.908 -0.595,2.193 -0.016,0.023 -0.008,0.056 -0.823,2.689 -0.755,3.262 -0.004,0.007 -0.002,0.017 -0.939,3.808 -0.53,4.523 -0.006,0.011 -0.004,0.063 -0.761,5.267 -0.679,5.752 -0.476,5.949 -0.001,10e-4 -0.488,6.215 -0.418,5.851 v 11.198 l 0.138,4.966 0.479,4.512 0.626,4.102 0.665,3.654 0.905,2.842 0.001,0.006 0.823,2.518 0.812,1.882 0.083,0.395 0.103,0.163 0.231,0.965 0.39,0.544 0.057,0.177 0.154,0.166 0.026,0.051 0.269,-0.195 0.452,-0.638 0.463,-0.239 0.57,0.57 -0.009,0.098 -0.149,0.856 -0.046,0.629 -0.031,0.066 -0.079,0.335 -0.445,0.896 -0.072,0.044 -0.051,0.158 -0.295,0.405 -0.246,0.124 -0.126,0.257 -0.442,0.343 -1.44,0.494 -0.647,-0.092 -0.917,-0.262 -0.163,-0.113 -0.3,-0.072 -1.16,-0.586 -0.08,-0.074 -0.103,-0.029 -0.516,-0.542 -0.501,-0.462 -0.026,-0.092 -0.068,-0.072 -0.746,-1.384 -1.071,-1.869 -0.082,-0.303 -0.158,-0.203 -0.98,-2.601 -0.019,-0.104 -0.034,-0.045 -1.015,-3.044 -0.064,-0.39 -0.066,-0.112 -0.711,-3.912 -0.01,-0.101 -0.01,-0.019 -0.641,-4.2 -0.012,-0.156 -0.011,-0.021 -0.499,-4.705 -0.015,-0.264 -0.005,-0.022 -0.143,-5.145 -10e-4,-0.102 V 52.498 l 0.009,-0.248 0.429,-6.019 0.002,-0.005 0.001,-0.021 0.513,-6.235 v -10e-4 -10e-4 l 0.521,-6.019 0.008,-0.026 0.005,-0.094 0.739,-5.879 0.007,-0.011 0.004,-0.061 0.803,-5.26 0.584,-4.674 0.035,-0.065 0.041,-0.329 1.018,-4.02 0.783,-3.313 0.033,-0.052 0.022,-0.145 0.852,-2.758 0.632,-2.308 0.071,-0.104 0.045,-0.235 0.868,-2.167 0.017,-0.021 0.007,-0.035 0.594,-1.38 0.464,-1.386 0.301,-0.407 0.149,-0.462 0.632,-0.878 0.437,-0.739 0.191,-0.188 0.061,-0.175 0.513,-0.645 0.103,-0.083 0.027,-0.07 0.512,-0.567 v 0 l 0.443,-0.49 0.48,-0.35 0.05,-0.066 0.302,-0.258 0.065,-0.024 0.195,-0.106 0.286,-0.073 0.536,-0.361 0.354,-0.071 0.209,-0.115 0.203,-0.03 L 0,-6.568 Z"
         id="path406"
         style="stroke:#000000;stroke-width:0.998817;stroke-miterlimit:4;stroke-dasharray:none;stroke-opacity:1;paint-order:stroke markers fill" />
      <g
         transform="translate(-5,98.625)"
         id="g410"
         style="stroke:#000000;stroke-width:0.998817;stroke-miterlimit:4;stroke-dasharray:none;stroke-opacity:1;paint-order:stroke markers fill">
        <path
           fill-mode="evenodd"
           fill="#ab228b"
           d="m 19.879,-39.254 0.09,0.061 0.053,0.011 0.019,0.013 0.04,0.009 0.162,0.081 0.192,0.175 0.693,0.467 0.294,0.437 0.197,0.18 0.055,0.194 0.2,0.295 0.273,1.355 v 0.5 l -0.179,1.101 -0.15,0.453 -0.194,0.263 -0.037,0.181 -0.106,0.158 -0.061,0.203 -0.151,0.227 -0.201,0.183 -0.226,0.335 -0.347,0.348 -0.156,0.2 -0.357,0.714 -0.189,0.206 -0.071,0.224 -0.836,1.185 -0.797,1.196 -1.116,1.814 -0.021,0.02 -0.007,0.023 -1.238,1.926 -1.166,2.06 -1.268,2.325 -0.045,0.048 -0.017,0.058 -1.498,2.498 -1.251,2.175 -1.061,2.321 -0.908,2.169 -0.033,0.04 -0.014,0.063 -0.849,1.82 -0.423,1.814 -0.102,0.16 -0.077,0.382 -0.661,1.563 -0.208,0.962 v 0.982 l -0.022,0.385 -0.094,0.848 0.078,0.545 0.038,0.511 v 0 L 6.06,-0.114 5.928,0.559 5.831,1.118 5.754,1.253 5.675,1.677 5.529,2.06 5.06,2.655 4.921,2.99 4.734,3.067 4.549,3.3 3.004,3.784 v 0 L 1.96,3.574 1.579,3.416 1.485,3.339 1.343,3.304 0.255,2.34 -0.087,1.85 -0.117,1.754 -0.215,1.782 -1.295,1.477 -1.368,1.432 -1.574,1.219 -1.677,1.176 -1.7,1.119 -1.854,1.038 -2.121,0.785 -2.332,0.705 -2.482,0.574 V 0.573 L -2.6,0.528 -2.995,0.211 -3.248,0.139 -3.29,0.094 -3.388,0.058 -3.583,-0.104 -3.79,-0.368 -3.803,-0.371 -3.84,-0.398 l -0.323,-0.117 -0.392,-0.326 -0.12,-0.156 -0.173,-0.124 -0.24,-0.259 -0.023,-0.059 -0.09,-0.07 -0.518,-0.622 -0.012,-0.032 -0.042,-0.035 -0.439,-0.554 -0.163,-0.467 -0.361,-0.479 -0.196,-0.552 -0.21,-0.49 -0.483,-0.743 -0.117,-0.391 -0.228,-0.299 -0.326,-0.901 -0.446,-1.007 -0.007,-0.03 -0.012,-0.014 -0.615,-1.418 -0.591,-1.167 -0.032,-0.131 -0.067,-0.081 -0.466,-1.088 -0.624,-0.949 -0.033,-0.111 -0.091,-0.093 -0.715,-1.267 -0.023,-0.087 -0.057,-0.062 -0.685,-1.354 -0.856,-1.212 -0.045,-0.143 -0.13,-0.13 -0.831,-1.445 -0.808,-1.272 -0.067,-0.23 -0.158,-0.182 -0.663,-1.44 -0.055,-0.078 -0.373,-0.099 -0.01,-0.006 -0.186,-0.037 -0.244,-0.148 -0.575,-0.132 -1.085,-0.872 -0.07,-0.042 -0.007,-0.019 -0.024,-0.02 -0.071,-0.088 -0.299,-0.199 -0.05,-0.055 -0.052,-0.017 -0.153,-0.208 -0.858,-0.944 -0.056,-0.22 -0.056,-0.067 -0.068,-0.186 -0.037,-0.051 -0.211,-0.207 -0.064,-0.107 -0.234,-0.273 -0.06,-0.161 -0.398,-0.52 -0.363,-1.239 -0.012,-0.124 -0.312,-0.492 -0.11,-0.375 -0.219,-0.283 -0.206,-0.548 -0.038,-0.205 -0.057,-0.085 -0.137,-0.476 -0.002,-0.02 -0.004,-0.005 -0.126,-0.44 -0.157,-0.47 -0.093,-0.232 -0.079,-0.406 -0.094,-0.151 -0.138,-0.621 -0.087,-0.773 10e-4,-0.017 v -0.144 0 -0.011 l 0.002,-0.216 v 0 -0.004 l 0.003,-0.288 0.162,-0.764 0.11,-0.545 0.007,-0.011 0.003,-0.013 0.443,-0.649 0.288,-0.426 0.007,-0.005 0.005,-0.007 0.72,-0.482 0.367,-0.247 0.004,-10e-4 0.004,-0.003 1.338,-0.268 0.114,0.002 0.149,0.005 0.042,0.009 0.048,0.002 0.153,0.009 0.878,0.228 0.103,0.021 0.014,0.01 0.265,0.068 0.065,0.048 0.058,0.014 0.186,0.164 0.713,0.521 0.158,0.246 0.152,0.133 0.198,0.282 0.035,0.111 0.103,0.101 0.058,0.094 0.296,0.304 0.151,0.228 0.155,0.132 0.418,0.567 0.086,0.262 0.227,0.251 0.433,0.871 0.417,0.681 0.695,0.948 0.106,0.32 0.258,0.303 0.497,1.104 0.779,1.058 0.028,0.087 0.284,-0.019 0.818,-0.207 0.243,-0.031 0.057,-0.032 1.181,-0.197 0.951,-0.225 1.08,-0.361 1.086,-0.572 0.455,-0.113 0.246,-0.167 1.6,-0.449 1.359,-0.557 1.837,-0.817 0.052,-0.011 0.027,-0.023 1.83,-0.775 1.766,-0.816 0.015,-0.003 0.006,-0.006 1.796,-0.829 1.539,-0.804 0.307,-0.076 0.183,-0.136 1.617,-0.561 1.249,-0.655 0.397,-0.098 0.224,-0.157 1.62,-0.494 0.042,-0.007 0.014,-0.009 1.132,-0.334 0.872,-0.312 0.171,-0.031 0.068,-0.046 0.618,-0.177 0.276,-0.154 0.75,-0.196 0.334,-0.194 0.766,-0.14 h 0.003 l 0.293,-0.06 0.705,-0.071 h 1.002 z m -8.876,9.14 -0.311,0.077 -0.184,0.138 -1.621,0.562 -1.394,0.728 -0.103,0.025 -0.067,0.058 -1.838,0.849 -0.015,0.004 -0.007,0.005 -1.838,0.85 -0.079,0.017 -0.045,0.037 -1.837,0.778 -0.003,0.001 -1.871,0.832 -0.077,0.017 -0.041,0.033 -1.55,0.635 -0.28,0.056 -0.122,0.083 -1.435,0.402 -1.011,0.533 -0.34,0.085 -0.199,0.146 -1.478,0.493 -0.244,0.041 -0.084,0.053 -1.192,0.281 -0.204,0.024 -0.045,0.026 -0.251,0.042 0.747,1.315 0.899,1.294 0.073,0.232 0.187,0.207 0.755,1.527 0.616,1.125 0.707,1.107 0.088,0.298 0.19,0.233 0.526,1.27 0.576,1.164 0.028,0.12 0.06,0.073 0.63,1.483 v 0.004 l 0.486,1.119 0.033,0.156 0.059,0.079 0.23,0.649 0.427,0.672 0.089,0.304 0.191,0.235 0.342,0.839 0.038,0.193 0.063,0.088 0.048,0.151 0.106,0.15 v 0 l 0.015,0.021 0.162,-0.747 0.106,-0.169 0.086,-0.424 0.671,-1.588 0.437,-1.876 0.13,-0.205 0.1,-0.452 0.979,-2.1 0.906,-2.16 0.025,-0.03 0.01,-0.048 1.154,-2.525 0.098,-0.114 0.042,-0.154 1.367,-2.377 0.018,-0.017 0.005,-0.02 1.471,-2.452 1.257,-2.306 0.014,-0.014 0.004,-0.017 1.225,-2.163 0.068,-0.068 0.023,-0.081 1.244,-1.936 z"
           id="path408"
           style="stroke:#000000;stroke-width:0.998817;stroke-miterlimit:4;stroke-dasharray:none;stroke-opacity:1;paint-order:stroke markers fill" />
      </g>
    </g>
    <g
       transform="matrix(0.102515,0,0,0.102515,30.427557,51.108332)"
       id="g440"
       style="stroke:#000000;stroke-width:0.998817;stroke-miterlimit:4;stroke-dasharray:none;stroke-opacity:1;paint-order:stroke markers fill">
      <path
         fill-mode="evenodd"
         fill="#ab228b"
         d="m 2.624,-51.448 0.077,0.002 0.141,0.033 0.553,0.068 0.31,0.077 0.073,0.048 0.543,0.11 0.565,0.38 0.198,0.068 0.077,0.118 0.236,0.159 0.174,0.258 0.118,0.043 0.199,0.347 0.486,0.44 0.092,0.319 0.335,0.493 0.21,0.209 0.264,0.45 0.313,0.492 v 0.001 l 0.632,0.972 0.081,0.27 0.185,0.218 0.441,0.991 0.553,0.972 0.122,0.46 0.194,0.278 0.448,1.513 0.623,1.419 0.034,0.162 0.063,0.083 0.784,2.192 0.051,0.285 0.065,0.103 0.53,2.231 0.922,2.492 0.039,0.216 0.059,0.087 0.783,2.835 0.001,0.002 0.975,3.201 0.016,0.106 0.024,0.036 0.852,3.195 v 0.004 l 0.983,3.441 0.011,0.078 0.017,0.024 0.841,3.229 0.964,3.103 0.001,0.006 0.992,3.121 0.037,0.236 0.047,0.076 0.595,2.644 0.912,2.477 0.04,0.221 0.058,0.087 0.637,2.337 0.007,0.052 0.01,0.015 0.494,1.908 v 0.002 l 0.547,1.919 0.041,0.282 0.043,0.074 0.266,1.477 0.299,1.219 0.297,0.936 0.086,0.544 0.057,0.109 0.05,0.42 0.015,0.035 0.01,0.043 0.027,0.041 0.261,1.294 -0.14,0.958 -0.105,0.35 -0.165,0.235 -0.1,0.382 -0.16,0.288 -0.182,0.187 -0.317,0.47 -0.418,0.282 -0.179,0.183 -0.156,0.043 -0.216,0.145 -1.186,0.24 -1.124,-0.215 -0.217,-0.085 -0.129,-0.103 -0.089,-0.025 -0.21,-0.217 -0.167,-0.133 -0.337,-0.14 -0.082,-0.198 -0.25,-0.201 -0.099,-0.32 L 18.579,10.381 18.517,10.143 18.35,9.908 18.091,9.102 17.777,8.568 17.649,7.894 17.368,7.093 17.329,6.869 17.275,6.786 16.915,5.381 16.889,5.178 16.859,5.126 16.599,3.715 16.079,1.903 16.068,1.823 16.051,1.797 15.554,-0.11 l -10e-4,-0.006 -0.602,-2.201 -0.94,-2.545 -0.062,-0.339 -0.075,-0.12 -0.614,-2.721 -0.949,-2.972 -0.005,-0.035 -0.009,-0.011 -0.996,-3.194 -0.021,-0.133 -0.03,-0.046 -0.854,-3.266 -0.001,-0.002 -0.98,-3.425 -0.009,-0.063 -0.014,-0.02 -0.85,-3.182 -0.971,-3.188 -0.013,-0.087 -0.02,-0.03 -0.748,-2.729 -0.937,-2.551 -0.057,-0.314 -0.072,-0.114 -0.157,-0.673 -0.036,1.211 -0.006,0.023 -0.012,0.233 -0.286,2.662 -0.007,0.013 -0.006,0.085 -0.346,2.442 -0.264,2.658 -0.065,2.735 -0.008,0.033 -0.025,0.359 -0.411,2.892 -0.206,2.891 -0.008,0.031 -0.009,0.139 -0.355,2.839 -0.281,2.725 -0.202,2.32 -0.005,1.93 v 0.002 L 3.02,-5.611 2.869,-3.598 2.868,-3.597 2.727,-1.785 2.718,-0.546 v 0 0.005 L 2.707,0.615 2.811,1.545 V 1.548 L 2.931,2.505 2.958,2.932 2.957,3.013 2.936,3.875 V 3.877 L 2.935,3.914 2.911,4.563 2.91,4.565 V 4.588 L 2.883,5.167 2.882,5.171 2.881,5.2 2.851,5.708 2.849,5.712 2.847,5.753 2.814,6.19 2.799,6.22 2.777,6.482 2.738,6.709 2.694,6.785 2.654,7.055 2.609,7.209 2.542,7.303 2.502,7.502 1.837,8.489 1.589,8.656 1.503,8.779 1.314,8.841 0.85,9.154 -0.358,9.398 -1.566,9.154 -1.772,9.014 -1.89,8.961 -2.021,8.847 -2.029,8.841 -2.218,8.779 -2.303,8.657 -2.552,8.489 -2.592,8.43 -2.725,8.375 -2.817,8.154 -3.114,7.894 -3.318,7.204 -3.33,7.187 -3.364,7.078 -3.372,7.021 -3.587,6.294 -3.535,6.117 -3.562,5.764 -3.564,5.703 -3.566,5.699 -3.596,5.209 -3.597,5.164 -3.598,5.159 -3.625,4.596 -3.626,4.56 V 4.557 L -3.65,3.92 -3.651,3.873 -3.652,3.87 -3.667,3.238 -3.789,2.48 -3.796,2.401 -3.803,2.387 -3.959,1.263 -3.989,0.833 -3.992,0.818 -4.005,-0.539 v -0.008 0 l -0.01,-1.357 v -0.027 l 0.008,-0.235 0.136,-1.943 v 0 L -3.745,-5.977 -3.75,-7.93 v -0.009 l 0.012,-0.285 0.213,-2.517 0.002,-0.009 0.002,-0.037 0.286,-2.804 0.004,-0.008 0.003,-0.053 0.346,-2.779 0.21,-2.92 0.011,-0.044 0.014,-0.184 0.402,-2.811 0.069,-2.664 0.005,-0.019 0.011,-0.229 0.29,-2.876 0.008,-0.016 0.008,-0.111 0.353,-2.456 0.266,-2.45 0.069,-2.231 0.01,-0.046 0.03,-0.379 0.244,-1.525 v -1.731 l 0.006,-0.197 0.065,-1.118 -0.001,-1.401 -10e-4,-1.143 -0.002,-0.857 v -0.002 0 -0.858 l -0.001,-0.857 v -0.002 0 l -0.001,-0.219 -0.022,-0.136 -0.049,-0.577 v -0.356 l -0.001,-0.356 v -0.004 -0.003 l 0.001,-0.358 v 0 0 -0.287 0 -0.021 l 0.001,-0.145 0.002,-0.008 0.001,-0.051 0.002,-0.075 0.161,-0.716 0.104,-0.512 0.018,-0.027 0.007,-0.032 0.427,-0.613 0.273,-0.405 0.018,-0.012 0.012,-0.017 0.695,-0.459 0.352,-0.237 0.01,-0.003 0.01,-0.006 1.298,-0.258 z"
         id="path414"
         style="stroke:#000000;stroke-width:0.998817;stroke-miterlimit:4;stroke-dasharray:none;stroke-opacity:1;paint-order:stroke markers fill" />
      <g
         transform="translate(4,-10.5)"
         id="g418"
         style="stroke:#000000;stroke-width:0.998817;stroke-miterlimit:4;stroke-dasharray:none;stroke-opacity:1;paint-order:stroke markers fill">
        <path
           fill-mode="evenodd"
           fill="#ab228b"
           d="m 11.485,-6.014 1.005,0.1 0.106,0.053 0.569,0.091 0.967,0.318 0.134,0.099 0.237,0.055 1.042,0.845 0.369,0.468 0.297,0.334 0.603,1.577 -0.027,0.352 -0.067,0.448 -0.096,0.174 -0.113,0.447 -0.241,0.447 -0.13,0.077 -0.089,0.226 -0.286,0.307 -0.05,0.021 L 15.693,0.474 15.52,0.629 15.248,0.95 14.805,1.154 14.23,0.658 14.203,0.473 v 0 L 14.194,0.453 13.804,0.534 13.5,0.517 13.044,0.467 12.374,0.49 11.567,0.57 10.465,0.738 H 10.463 L 9.228,0.949 8.351,1.147 7.525,1.509 7.381,1.539 7.307,1.596 6.15,2.019 5.149,2.542 5.087,2.557 5.047,2.593 4.06,3.074 3.714,3.154 3.535,3.28 2.515,3.586 1.81,3.864 1.683,3.888 1.625,3.931 0.855,4.19 0.146,4.307 0.129,4.312 0.033,4.358 -0.003,4.361 -0.095,4.423 -1.359,4.678 -1.613,4.665 -2.074,4.758 -2.249,4.753 -2.614,4.733 -2.637,4.723 -2.915,4.701 -3.073,4.677 -3.177,4.619 -3.313,4.603 -3.469,4.565 -3.535,4.523 -3.798,4.469 -3.862,4.427 -3.918,4.415 -4.899,3.754 -5.035,3.552 -5.138,3.485 -5.2,3.308 -5.56,2.774 l -0.242,-1.2 0.242,-1.201 0.36,-0.534 0.062,-0.177 0.102,-0.066 0.137,-0.203 0.981,-0.661 0.056,-0.011 0.064,-0.043 0.283,-0.058 0.067,-0.043 0.114,-0.028 0.17,-0.021 0.109,-0.061 0.122,-0.019 0.247,-0.019 0.074,-0.047 0.876,-0.254 0.402,-0.22 0.265,-0.04 0.383,-0.15 0.753,-0.332 0.221,-0.047 0.109,-0.08 0.889,-0.29 0.737,-0.379 H 2.024 L 3.18,-4.032 3.449,-4.1 3.617,-4.23 4.897,-4.708 5.922,-5.157 6.389,-5.256 6.574,-5.37 7.839,-5.648 8.054,-5.671 8.096,-5.695 9.439,-5.891 9.641,-5.906 9.663,-5.917 10.87,-6.018 11.158,-6.03 Z"
           id="path416"
           style="stroke:#000000;stroke-width:0.998817;stroke-miterlimit:4;stroke-dasharray:none;stroke-opacity:1;paint-order:stroke markers fill" />
      </g>
      <g
         transform="translate(23.5,-36.875)"
         id="g422"
         style="stroke:#000000;stroke-width:0.998817;stroke-miterlimit:4;stroke-dasharray:none;stroke-opacity:1;paint-order:stroke markers fill">
        <path
           fill-mode="evenodd"
           fill="#ab228b"
           d="m 1.507,-6.18 0.103,0.069 0.096,0.023 0.251,0.211 0.212,0.143 0.184,0.055 0.009,0.011 0.023,0.007 0.123,0.091 0.518,0.609 0.143,0.119 0.024,0.078 0.308,0.363 0.026,0.108 0.057,0.068 0.045,0.1 0.276,0.362 0.263,0.776 0.381,0.625 0.282,1.336 0.022,0.208 0.022,0.04 0.208,1.453 0.336,1.879 0.479,2.187 V 4.745 L 6.528,7.4 6.57,7.753 6.602,7.814 6.958,10.801 v 0.005 l 0.42,3.287 0.557,3.338 0.011,0.131 0.011,0.021 0.428,3.344 0.005,0.08 0.005,0.01 0.356,3.347 v 0.002 l 0.353,2.957 0.009,0.15 0.008,0.03 0.211,2.95 0.278,2.64 0.002,0.045 0.003,0.01 0.214,2.275 0.003,0.077 0.004,0.014 0.142,1.991 10e-4,0.004 0.141,1.836 0.011,0.279 v 1.502 l -0.005,0.182 -0.06,1.149 -0.054,0.216 -0.085,0.581 -0.243,0.81 -0.108,0.154 -0.066,0.288 -0.287,0.597 -0.429,0.479 -0.118,0.286 -0.22,0.091 -0.27,0.302 L 6.652,46.706 5.118,46.261 4.85,45.96 4.628,45.868 4.505,45.572 4.073,45.087 3.802,44.525 3.728,44.206 3.613,44.041 3.383,43.278 3.292,42.669 3.237,42.449 3.177,41.316 3.172,41.126 V 39.758 L 3.04,38.043 3.039,38.016 3.038,38.012 2.897,36.042 2.688,33.812 V 33.809 L 2.406,31.135 2.4,31.024 2.394,31.003 2.185,28.078 1.839,25.175 1.836,25.122 1.833,25.115 1.478,21.777 1.062,18.522 0.505,15.183 0.494,15.052 0.482,15.031 0.055,11.687 0.053,11.646 0.05,11.64 -0.285,8.832 -0.877,6.333 -0.885,6.268 -0.896,6.251 -1.392,3.985 -1.406,3.859 -1.422,3.83 -1.777,1.849 -1.788,1.729 -1.799,1.708 l -0.2,-1.394 -0.13,-0.619 -0.119,-0.184 -0.277,-0.938 -0.081,-0.121 -0.012,-0.058 -0.148,-0.273 -0.07,-0.493 -0.031,-0.431 -0.07,-0.344 0.254,-1.254 0.327,-0.486 0.065,-0.196 0.075,-0.099 0.135,-0.113 0.088,-0.131 0.01,-0.006 0.051,-0.076 0.543,-0.366 0.256,-0.214 0.095,-0.023 0.103,-0.069 1.221,-0.247 z"
           id="path420"
           style="stroke:#000000;stroke-width:0.998817;stroke-miterlimit:4;stroke-dasharray:none;stroke-opacity:1;paint-order:stroke markers fill" />
      </g>
      <g
         transform="translate(23.75,-35.5)"
         id="g426"
         style="stroke:#000000;stroke-width:0.998817;stroke-miterlimit:4;stroke-dasharray:none;stroke-opacity:1;paint-order:stroke markers fill">
        <path
           fill-mode="evenodd"
           fill="#ab228b"
           d="m 9.716,-6.388 1.651,0.069 0.153,0.036 0.562,0.077 1.811,0.504 10e-4,0.001 1.552,0.421 0.033,0.022 0.079,0.012 1.811,0.578 0.035,0.025 0.073,0.013 1.381,0.507 0.137,0.107 0.218,0.053 1.519,0.794 0.051,0.048 0.066,0.018 1.232,0.722 0.151,0.153 0.15,0.051 1.511,1.148 0.231,0.278 0.303,0.239 0.897,1.1 0.96,1.094 0.104,0.275 0.323,0.343 0.709,1.341 0.037,0.149 0.08,0.096 0.639,1.481 0.079,0.382 0.101,0.158 0.355,1.479 0.049,0.4 0.029,0.059 0.145,1.488 0.015,0.303 10e-4,0.005 0.007,1.501 v 0.016 l -0.049,0.555 -0.28,1.595 -0.054,0.094 -0.052,0.324 -0.496,1.529 -0.037,0.05 -0.019,0.103 -0.569,1.457 -0.09,0.113 -0.043,0.176 -0.641,1.239 -0.115,0.124 -0.043,0.145 -0.855,1.306 -0.188,0.174 -0.055,0.148 -0.926,1.084 -0.32,0.243 -0.219,0.257 -1.061,0.785 v 0 l -1.121,0.844 -0.121,0.041 -0.119,0.125 -1.13,0.708 -0.209,0.061 -0.164,0.142 -1.053,0.491 -0.321,0.072 -0.158,0.109 -1.41,0.415 -0.29,0.043 -0.077,0.044 -1.057,0.19 -0.216,0.02 -0.032,0.016 -0.92,0.099 -0.357,0.02 -0.248,-0.01 -1.078,-0.083 -0.038,-0.019 -0.317,-0.031 -0.776,-0.153 -0.039,-0.023 -0.13,-0.017 -0.82,-0.218 L 10.389,25.374 9.973,25.26 9.497,24.776 9.193,24.572 9.138,24.41 8.976,24.246 8.738,23.826 8.412,22.601 8.468,22.463 8.451,22.426 8.413,22.513 8.422,22.273 8.395,21.857 8.391,21.743 8.887,20.546 8.955,20.518 8.982,20.457 9.127,20.334 9.444,19.921 9.662,19.814 9.757,19.656 10.443,19.284 11,18.768 l 0.372,-0.146 0.547,0.546 -0.043,0.212 -0.255,0.608 0.031,-0.019 0.737,-0.147 0.347,-0.035 0.039,-0.018 0.873,-0.068 0.71,-0.143 0.003,-0.001 0.904,-0.2 1.078,-0.331 0.685,-0.321 0.86,-0.537 1.024,-0.765 0.022,-0.007 0.021,-0.024 0.782,-0.569 0.561,-0.64 0.664,-0.978 0.495,-0.914 0.483,-1.183 0.403,-1.182 0.199,-1.057 L 22.547,9.798 22.441,8.673 22.199,7.652 21.713,6.513 21.236,5.604 20.487,4.746 20.471,4.702 20.409,4.653 19.721,3.803 18.673,3.003 17.684,2.42 16.44,1.768 15.327,1.358 13.669,0.827 12.155,0.413 12.153,0.411 10.718,0.008 9.505,-0.047 7.999,-0.052 v 0 H 7.993 L 6.49,-0.06 v 0 H 6.476 L 5.273,-0.073 4.227,-0.028 3.433,0.052 2.557,0.296 2.534,0.299 2.528,0.303 1.679,0.537 1.451,0.569 1.392,0.603 0.729,0.723 0.283,0.871 0.025,0.913 -0.057,0.963 -0.698,1.097 h -0.003 l -0.188,0.043 -0.303,0.034 -0.044,0.022 -0.287,0.029 -0.265,0.013 -1.836,-0.761 -0.761,-1.836 0.682,-1.754 0.086,-0.094 0.047,-0.067 0.07,-0.06 10e-4,-10e-4 10e-4,-0.002 0.907,-0.791 0.069,-0.017 0.044,-0.039 0.513,-0.241 0.493,-0.28 0.348,-0.093 0.219,-0.157 0.758,-0.245 0.723,-0.285 0.093,-0.018 0.043,-0.032 1.11,-0.387 0.46,-0.08 0.118,-0.065 1.123,-0.169 0.227,-0.017 0.022,-0.011 1.204,-0.09 0.207,-0.008 0.006,-0.002 1.286,-0.013 h 0.016 v 0 L 7.992,-6.385 H 8 v 0 l 1.573,-0.006 h 0.011 z"
           id="path424"
           style="stroke:#000000;stroke-width:0.998817;stroke-miterlimit:4;stroke-dasharray:none;stroke-opacity:1;paint-order:stroke markers fill" />
      </g>
      <g
         transform="translate(62,-37.125)"
         id="g430"
         style="stroke:#000000;stroke-width:0.998817;stroke-miterlimit:4;stroke-dasharray:none;stroke-opacity:1;paint-order:stroke markers fill">
        <path
           fill-mode="evenodd"
           fill="#ab228b"
           d="m -1.153,-6.47 0.185,0.038 0.237,0.144 0.515,0.127 0.697,0.611 0.203,0.124 0.029,0.079 0.096,0.084 0.21,0.296 0.097,0.303 0.223,0.27 0.055,0.128 0.075,0.124 0.09,0.32 0.174,0.226 0.33,0.889 0.042,0.228 0.059,0.089 0.211,0.798 0.455,1.131 0.09,0.46 0.094,0.158 0.283,1.446 0.529,1.635 0.057,0.361 0.059,0.101 0.418,2.327 0.671,2.3 0.044,0.301 0.045,0.078 0.486,2.73 0.747,2.841 0.042,0.317 0.038,0.069 0.494,3.322 0.555,3.061 10e-4,0.004 0.628,3.158 0.013,0.129 0.015,0.025 0.493,3.129 0.01,0.116 0.009,0.018 0.35,2.845 0.004,0.067 0.004,0.008 0.254,2.41 0.567,2.249 0.108,0.844 -0.001,0.035 -0.02,1.951 0.033,1.613 0.076,1.444 0.005,0.178 L 9.997,41.734 9.873,42.592 9.772,42.775 9.647,43.373 9.328,44.105 9.272,44.171 9.248,44.272 8.481,45.151 8.475,45.166 8.464,45.171 8.351,45.299 8.143,45.448 6.58,45.951 5.266,45.607 4.897,45.254 4.686,45.166 4.616,44.999 4.605,44.974 4.306,44.688 4.172,44.474 3.834,43.299 3.727,43.067 3.694,42.433 3.594,41.752 3.592,41.717 3.589,41.712 3.385,40.237 3.369,40.017 3.358,39.974 3.251,38.269 3.245,38.091 3.244,38.086 3.227,36.498 2.683,34.422 2.626,33.991 2.588,33.917 2.295,31.287 V 31.285 L 1.942,28.509 1.455,25.482 0.827,22.362 0.82,22.295 0.812,22.281 0.241,19.155 0.231,19.045 0.219,19.025 -0.256,15.841 -0.987,13.039 -1.02,12.795 -1.054,12.735 -1.519,10.04 -2.167,7.727 -2.211,7.414 -2.253,7.338 -2.631,5.032 -3.113,3.389 -3.166,3.021 -3.214,2.934 -3.424,1.564 -3.787,0.485 -3.856,0.07 l -0.063,-0.111 -0.148,-0.89 -0.197,-0.796 -0.01,-0.075 -0.012,-0.021 -0.079,-0.35 -0.077,-0.688 v -0.02 l 0.001,-0.128 -0.009,-0.063 -0.014,-0.065 -0.06,-0.582 0.822,-1.986 1.985,-0.822 z"
           id="path428"
           style="stroke:#000000;stroke-width:0.998817;stroke-miterlimit:4;stroke-dasharray:none;stroke-opacity:1;paint-order:stroke markers fill" />
      </g>
      <g
         transform="translate(50.75,-36.25)"
         id="g434"
         style="stroke:#000000;stroke-width:0.998817;stroke-miterlimit:4;stroke-dasharray:none;stroke-opacity:1;paint-order:stroke markers fill">
        <path
           fill-mode="evenodd"
           fill="#ab228b"
           d="m 23.836,-5.049 1.007,0.047 1.277,0.314 0.066,0.047 0.058,0.014 0.642,0.329 0.394,0.367 0.29,0.112 0.311,0.284 0.701,0.967 0.258,1.209 -0.052,0.18 0.009,0.021 0.042,-0.114 -0.008,0.279 -0.438,1.185 -0.006,0.021 -0.003,0.002 -0.122,0.331 -0.137,0.088 -0.05,0.119 L 27.694,0.911 27.396,1.103 27.19,1.288 26.833,1.464 26.78,1.476 26.747,1.505 26.514,2.012 26.035,2.317 25.506,1.807 V 1.804 L 24.961,1.848 24.849,1.852 24.835,1.855 23.947,1.897 22.787,2.026 22.599,2.037 22.57,2.044 21.268,2.113 19.698,2.249 19.693,2.25 18.283,2.378 16.533,2.702 16.201,2.734 16.118,2.756 14.267,2.884 12.721,3.193 12.574,3.208 12.545,3.224 10.89,3.479 9.331,3.917 9.091,3.95 9.025,3.989 7.533,4.276 6.4,4.763 5.955,4.855 5.778,4.966 4.249,5.314 3.172,5.602 2.105,5.986 1.941,6.015 1.875,6.06 0.879,6.349 0.681,6.378 0.623,6.413 -0.186,6.586 -0.771,6.793 -0.85,6.807 -0.882,6.831 -1.527,7.039 -2.503,7.195 h -0.02 L -3.024,7.191 -3.046,7.187 -3.664,7.119 -4.025,7.04 -4.159,6.956 -4.201,6.947 -4.345,6.849 -4.671,6.781 -4.974,6.564 -5.173,6.497 -5.269,6.423 -5.405,6.258 -5.609,6.112 -5.743,5.968 -5.837,5.731 -6.08,5.435 -6.267,4.64 -6.36,4.404 -6.489,4.097 -6.49,3.954 v -0.02 l 0.35,-1.313 0.287,-0.29 0.013,-0.037 0.038,-0.021 0.081,-0.198 0.197,-0.081 0.008,-0.004 0.312,-0.316 0.22,-0.131 0.268,-0.074 0.236,-0.212 0.311,-0.078 0.02,-0.027 0.092,-0.045 0.63,-0.486 0.225,-0.084 0.447,-0.349 0.207,-0.072 0.199,-0.139 0.551,-0.163 0.258,-0.038 0.012,-0.005 0.272,-0.007 0.631,-0.282 0.267,-0.057 0.229,0.042 0.071,0.026 0.719,-0.335 0.349,-0.079 0.172,-0.118 1.259,-0.366 0.169,-0.024 0.052,-0.033 1.267,-0.288 1.187,-0.509 0.542,-0.113 0.194,-0.115 1.723,-0.332 1.619,-0.454 0.352,-0.049 0.081,-0.045 1.792,-0.276 1.68,-0.337 0.368,-0.037 0.098,-0.026 1.876,-0.13 1.713,-0.318 0.26,-0.024 0.08,-0.023 1.56,-0.142 0.023,-0.001 0.004,-0.001 1.632,-0.142 0.116,-0.005 0.016,-0.004 1.259,-0.067 1.17,-0.13 0.4,-0.023 v 0 z M 28.183,0.493 28.19,0.489 28.226,0.39 Z"
           id="path432"
           style="stroke:#000000;stroke-width:0.998817;stroke-miterlimit:4;stroke-dasharray:none;stroke-opacity:1;paint-order:stroke markers fill" />
      </g>
      <g
         transform="translate(62.625,3.75)"
         id="g438"
         style="stroke:#000000;stroke-width:0.998817;stroke-miterlimit:4;stroke-dasharray:none;stroke-opacity:1;paint-order:stroke markers fill">
        <path
           fill-mode="evenodd"
           fill="#ab228b"
           d="m 25.825,-4.663 0.82,0.192 0.168,0.108 0.385,0.082 0.382,0.17 0.02,0.017 0.03,0.007 0.482,0.23 0.415,0.37 0.248,0.103 0.078,0.188 0.258,0.23 0.384,1.321 -0.558,1.56 -0.244,0.297 -0.143,0.213 v 0 l -0.001,0.001 -0.011,0.017 -1.127,1.016 -0.172,0.044 -0.11,0.09 -0.733,0.309 -0.639,0.13 -0.192,0.106 -0.979,0.153 -0.149,0.012 -0.021,0.011 -1.271,0.141 -0.033,0.002 -0.003,0.002 -1.201,0.126 -0.866,0.174 -1.402,0.335 -0.117,0.014 -0.03,0.018 -1.384,0.277 -1.353,0.323 -1.596,0.466 -0.146,0.021 -0.046,0.03 -1.318,0.314 -1.547,0.558 -1.465,0.6 -0.049,0.01 L 10.566,5.743 8.944,6.379 8.751,6.416 8.666,6.476 7.046,6.97 H 7.044 L 5.631,7.442 5.612,7.445 5.606,7.449 4.129,7.943 4.025,7.96 3.986,7.987 2.854,8.321 1.981,8.633 1.963,8.636 1.957,8.641 1.071,8.958 0.577,9.179 0.031,9.296 -0.176,9.42 -0.471,9.479 -0.533,9.494 -0.648,9.571 -2.003,9.845 h -0.5 -0.048 L -2.768,9.842 -2.87,9.82 -3.718,9.695 -3.873,9.649 -3.965,9.585 -4.103,9.555 -4.114,9.548 -4.198,9.531 -5.29,8.795 -5.475,8.521 -5.611,8.425 -5.681,8.216 -6.026,7.703 -6.296,6.366 -6.198,5.55 -6.143,5.324 -6.049,5.178 -5.979,4.834 -5.675,4.382 -5.673,4.375 -5.666,4.369 -5.254,3.758 -5.031,3.608 -4.958,3.494 -4.762,3.427 -4.621,3.331 -4.574,3.267 -4.379,3.101 -4.193,2.844 -3.975,2.645 -3.814,2.582 -3.609,2.361 -3.47,2.271 -3.299,2.22 -2.924,1.911 -2.727,1.716 -2.467,1.566 -2.268,1.434 -2.239,1.425 -2.214,1.399 -1.905,1.207 -1.656,0.949 -1.449,0.664 -1.057,0.466 -0.913,0.258 -0.732,0.19 -0.637,0.096 -0.535,-0.193 0,-0.568 l 0.536,0.379 0.155,0.44 0.044,0.25 V 0.513 L 0.726,1.018 0.725,1.021 0.717,1.13 0.703,1.233 0.753,1.372 0.806,1.669 v 0 L 1.983,1.322 3.381,0.855 3.4,0.852 3.406,0.848 4.883,0.354 4.964,0.341 4.995,0.319 6.519,-0.146 8.007,-0.729 h 0.004 l 1.52,-0.623 0.109,-0.022 0.053,-0.04 1.764,-0.636 0.291,-0.052 0.106,-0.067 1.43,-0.341 1.595,-0.466 0.147,-0.022 0.046,-0.029 1.478,-0.353 0.118,-0.014 0.03,-0.018 1.384,-0.277 1.401,-0.334 0.117,-0.015 0.03,-0.017 1.051,-0.211 0.297,-0.03 0.043,-0.022 1.344,-0.142 h 0.005 l 1.259,-0.141 0.938,-0.122 0.466,-0.031 z"
           id="path436"
           style="stroke:#000000;stroke-width:0.998817;stroke-miterlimit:4;stroke-dasharray:none;stroke-opacity:1;paint-order:stroke markers fill" />
      </g>
    </g>
    <g
       transform="matrix(0.102515,0,0,0.102515,41.345405,46.354199)"
       id="g456"
       style="stroke:#000000;stroke-width:0.998817;stroke-miterlimit:4;stroke-dasharray:none;stroke-opacity:1;paint-order:stroke markers fill">
      <path
         fill-mode="evenodd"
         fill="#ab228b"
         d="m -0.275,-6.655 0.165,0.02 0.146,0.078 0.34,0.107 0.491,0.118 0.07,0.059 0.089,0.028 0.104,0.135 0.171,0.144 0.112,0.047 0.031,0.074 0.115,0.097 0.196,0.104 0.034,0.09 0.124,0.105 0.183,0.245 0.127,0.379 0.282,0.359 0.261,0.674 0.075,0.398 0.081,0.135 0.194,0.97 0.005,0.05 0.007,0.011 0.23,1.232 0.403,1.277 0.079,0.504 0.054,0.104 0.234,1.905 0.359,1.948 0.016,0.172 0.015,0.028 0.299,2.342 0.01,0.157 0.01,0.034 0.212,2.844 0.475,2.75 0.011,0.123 0.011,0.021 0.431,3.201 0.006,0.082 0.005,0.011 0.358,3.203 0.002,0.041 0.003,0.004 0.358,3.49 v 0.003 l 0.354,3.105 0.005,0.082 0.004,0.009 0.286,3.133 0.01,0.213 0.004,0.017 0.067,2.505 0.395,2.56 0.029,0.379 0.011,0.044 0.069,2.162 0.137,2.068 0.138,1.671 V 41.2 l 0.119,1.404 0.389,-0.169 0.551,0.551 -0.058,0.246 -0.488,0.977 -0.303,0.755 -0.012,0.474 0.034,0.255 0.039,0.076 0.057,0.508 0.057,0.227 0.096,0.773 -0.005,0.084 0.054,0.274 -0.571,1.674 -0.17,0.112 -0.062,0.151 -0.253,0.105 -0.013,0.025 -0.214,0.081 -0.748,0.498 -0.21,0.057 L 5.722,50.443 4.933,50.336 4.723,50.279 4.554,50.163 4.221,50.088 3.16,49.249 2.869,48.891 2.669,48.333 2.268,47.751 2.107,47.203 1.925,46.748 1.794,46.078 1.679,45.562 1.656,44.494 1.655,44.446 V 44.445 L 1.645,43.292 1.512,41.795 1.511,41.77 1.509,41.767 1.365,40.064 1.362,40.003 1.36,39.993 1.216,37.858 1.212,37.74 1.21,37.73 1.145,35.716 0.749,33.146 0.718,32.741 0.709,32.702 0.641,30.092 0.369,27.082 0.019,23.997 0.016,23.949 0.013,23.943 -0.342,20.453 V 20.449 L -0.694,17.272 -1.107,14.151 -1.587,11.307 -1.612,11.023 -1.629,10.957 -1.829,8.026 -2.083,5.813 -2.403,3.835 -2.42,3.618 -2.434,3.592 -2.594,1.848 -2.912,0.612 -2.962,0.219 -2.998,0.151 -3.16,-1.27 -3.165,-1.361 -3.17,-1.37 l -0.07,-0.806 -0.093,-0.428 -0.051,-0.172 -0.094,-0.635 -0.124,-0.308 0.185,-1.032 0.054,-0.145 0.51,-0.656 0.152,-0.367 0.198,-0.082 0.19,-0.244 1.669,-0.526 z"
         id="path442"
         style="stroke:#000000;stroke-width:0.998817;stroke-miterlimit:4;stroke-dasharray:none;stroke-opacity:1;paint-order:stroke markers fill" />
      <g
         transform="translate(20.375,11.875)"
         id="g446"
         style="stroke:#000000;stroke-width:0.998817;stroke-miterlimit:4;stroke-dasharray:none;stroke-opacity:1;paint-order:stroke markers fill">
        <path
           fill-mode="evenodd"
           fill="#ab228b"
           d="m 1.995,-3.326 0.261,0.284 0.202,0.083 0.102,0.248 0.369,0.401 0.094,0.183 0.26,1.067 0.047,0.107 0.017,0.49 0.002,0.105 L 3.206,0.349 3.213,0.499 3.216,0.644 2.969,1.868 2.789,2.135 2.739,2.309 2.301,3.011 2.254,3.056 2.238,3.106 2.071,3.351 1.898,3.782 1.821,3.878 1.785,4.028 1.326,4.932 0.998,5.287 0.889,5.582 0.226,6.36 l -0.517,0.814 -0.186,0.174 -0.056,0.157 -0.952,1.156 -0.816,1.088 -0.127,0.106 -0.117,0.183 -1.032,1.096 -0.859,1.105 -0.629,0.882 0.354,0.094 0.042,0.024 0.154,0.034 0.401,0.251 0.665,0.191 0.22,0.137 0.277,0.092 0.506,0.373 0.505,0.174 0.652,0.506 0.121,0.149 0.195,0.132 0.182,0.181 0.486,0.284 0.187,0.188 0.18,0.062 0.651,0.506 0.228,0.279 0.301,0.234 0.455,0.546 0.542,0.407 0.261,0.31 0.343,0.273 0.921,1.133 0.596,0.715 1.033,1.033 0.157,0.233 0.166,0.139 0.64,0.854 0.874,0.764 0.033,0.044 0.052,0.033 1.146,1.075 0.172,0.242 0.193,0.158 0.655,0.842 0.615,0.41 0.222,0.244 0.385,0.276 0.537,0.578 0.441,0.237 0.284,0.271 0.252,0.09 0.051,0.042 0.023,-0.061 0.021,-0.012 0.009,-0.021 0.105,-0.047 0.017,-0.065 0.503,-0.382 0.235,0.116 0.516,-0.105 0.465,-0.047 0.223,0.011 0.415,0.041 0.069,0.034 0.403,0.057 0.419,0.119 0.19,0.131 0.347,0.083 0.505,0.256 0.123,0.113 0.149,0.044 0.454,0.514 0.614,0.568 0.054,0.188 0.127,0.145 0.184,0.384 0.019,0.081 0.055,0.082 0.273,1.354 -0.248,1.292 -0.025,0.061 v 10e-4 10e-4 l -0.085,0.213 -0.058,0.287 -0.144,0.213 -0.043,0.164 -0.214,0.218 -0.345,0.511 -0.439,0.296 -0.061,0.061 -0.021,0.014 -0.149,0.152 -0.342,0.206 -0.067,0.019 -0.527,0.355 -0.276,0.056 -0.123,0.084 -0.476,0.136 -0.98,0.141 v 0 H 13.446 L 12.092,35.749 11.881,35.607 11.72,35.564 11.665,35.533 11.21,35.428 10.884,35.221 10.29,35.063 9.772,34.768 9.651,34.648 9.52,34.607 8.794,34.099 8.691,33.982 8.597,33.949 8.07,33.517 7.416,33.166 7.184,32.944 6.534,32.479 5.883,31.778 5.138,31.282 4.808,30.919 4.334,30.531 3.5,29.458 2.599,28.614 1.496,27.648 1.26,27.333 1.007,27.121 0.297,26.174 -0.672,25.205 -0.768,25.063 -0.885,24.972 -1.596,24.119 -1.603,24.1 -1.628,24.08 -2.287,23.268 -2.812,22.875 -3.055,22.584 -3.388,22.326 -3.863,21.756 -4.027,21.628 -4.702,21.235 -4.914,21.022 -5.393,20.699 -5.74,20.351 h -10e-4 l -0.104,-0.035 -0.303,-0.223 -0.417,-0.12 -0.064,-0.04 -0.086,-0.019 -0.331,-0.207 -0.348,-0.093 -0.055,-0.008 -0.019,-0.01 -0.092,-0.008 -0.48,-0.087 h -0.585 l -0.11,0.02 -0.49,0.204 -0.176,0.036 -0.084,0.062 -0.032,0.01 -0.039,0.05 -0.709,0.566 -0.151,0.054 -0.161,0.17 -0.526,0.335 -0.568,0.757 -0.047,0.04 -0.013,0.037 -0.698,0.874 -0.381,0.653 -0.189,0.188 -0.061,0.179 -0.507,0.652 -0.018,0.015 -0.005,0.014 -0.292,0.365 -0.03,0.024 -0.009,0.023 -0.362,0.434 -0.115,0.09 -0.093,0.138 -0.649,0.437 -0.314,0.244 -0.072,0.016 -0.071,0.048 -1.354,0.274 h -0.143 l -1.354,-0.274 -1.106,-0.745 -0.746,-1.106 -0.273,-1.354 v -0.143 l 0.273,-1.355 0.746,-1.106 0.061,-0.061 0.068,-0.159 0.017,-0.02 0.007,-0.034 0.854,-1.153 0.28,-0.249 0.248,-0.392 0.059,-0.054 0.018,-0.059 0.508,-0.726 0.188,-0.166 0.195,-0.288 0.644,-0.644 0.08,-0.054 0.052,-0.072 0.023,-0.02 0.744,-0.992 0.007,-0.006 0.002,-0.006 1.151,-1.511 0.059,-0.049 0.016,-0.046 0.912,-1.107 1.071,-1.54 0.146,-0.128 0.042,-0.115 1.055,-1.253 0.999,-1.399 0.06,-0.052 0.018,-0.052 1.007,-1.295 0.11,-0.09 0.097,-0.151 1.011,-1.074 0.748,-0.998 0.071,-0.059 0.02,-0.056 0.877,-1.065 0.55,-0.846 0.205,-0.19 0.242,-0.36 0.652,-0.652 0.325,-0.49 0.382,-0.631 0.233,-0.226 0.327,-0.459 0.414,-0.388 0.061,-0.063 0.083,-0.34 0.73,-0.836 0.111,-0.165 0.016,-0.005 0.351,-0.317 0.159,-0.181 0.018,-0.042 0.031,-0.012 0.132,-0.15 0.174,-0.122 0.069,-0.021 0.023,-0.022 0.218,-0.055 1.167,-0.369 z"
           id="path444"
           style="stroke:#000000;stroke-width:0.998817;stroke-miterlimit:4;stroke-dasharray:none;stroke-opacity:1;paint-order:stroke markers fill" />
      </g>
      <g
         transform="translate(37.125,29)"
         id="g450"
         style="stroke:#000000;stroke-width:0.998817;stroke-miterlimit:4;stroke-dasharray:none;stroke-opacity:1;paint-order:stroke markers fill">
        <path
           fill-mode="evenodd"
           fill="#ab228b"
           d="m 6.983,-16.247 0.595,0.15 0.063,0.041 0.162,0.026 0.667,0.223 0.099,0.072 0.183,0.039 0.665,0.296 0.468,0.401 0.367,0.138 0.497,0.436 0.573,0.445 0.347,0.425 0.344,0.304 0.232,0.331 0.429,0.352 0.361,0.459 0.31,0.284 0.564,0.847 0.063,0.205 0.157,0.174 0.336,0.672 0.444,0.668 0.013,0.042 0.037,0.035 0.49,0.775 0.131,0.448 0.233,0.321 0.247,0.752 0.294,0.716 0.313,0.701 0.111,0.516 0.119,0.198 0.129,0.624 0.009,0.092 0.012,0.02 0.124,0.698 0.054,0.603 -0.003,0.141 -0.021,0.507 -0.301,1.244 -0.021,0.029 -0.006,0.026 -0.126,0.262 -0.139,0.342 -0.063,0.076 -0.028,0.119 -0.108,0.219 -0.065,0.071 -0.026,0.096 -0.708,0.708 -0.374,0.409 -0.049,0.014 -0.039,0.039 -0.43,0.25 L 14.267,1.957 14.238,1.978 13.63,2.177 13.148,2.49 12.665,2.613 11.873,2.714 11.807,2.713 11.496,2.707 11.308,2.726 11.084,2.788 10.228,2.907 H 10.215 L 9.638,2.904 9.145,2.992 8.583,3.043 H 8.561 L 7.989,3.039 7.461,3.035 6.871,3.13 6.484,3.161 6.97,5.15 l 0.784,2.152 0.007,0.04 0.013,0.016 0.765,2.166 0.981,1.777 0.875,1.457 1.221,1.394 1.129,1.128 0.82,0.723 0.909,0.475 1.121,0.391 0.641,0.187 h 0.418 l 0.621,-0.133 h 0.004 l 0.623,-0.146 0.437,-0.269 0.516,-0.444 0.05,-0.019 0.055,-0.068 0.76,-0.604 0.502,-0.603 0.083,-0.064 0.066,-0.103 0.594,-0.618 0.439,-0.646 0.269,-0.241 0.067,-0.162 0.19,-0.188 0.206,-0.332 0.261,-0.249 0.308,-0.348 0.035,-0.024 0.091,-0.149 0.076,-0.042 0.046,-0.122 0.091,-0.105 0.003,-0.013 -0.061,-0.15 -0.04,-0.199 0.514,-0.515 0.196,0.039 0.349,0.144 0.054,0.081 0.168,0.071 0.319,0.331 0.01,0.023 0.021,0.01 0.227,0.259 0.333,0.343 0.021,0.05 0.044,0.02 0.25,0.29 0.045,0.12 0.15,0.144 0.347,0.557 0.078,0.272 0.152,0.199 0.184,0.502 0.179,0.993 -0.011,0.25 -0.092,1.037 -0.095,0.193 -0.197,0.864 -0.49,1.027 -0.07,0.078 -0.028,0.107 -0.565,0.995 -0.236,0.238 -0.403,0.562 -0.957,0.883 -0.684,0.645 -0.353,0.227 -0.169,0.179 -1.126,0.715 -0.661,0.193 -0.41,0.26 -1.192,0.284 -0.076,0.009 -0.02,0.012 -0.978,0.211 -0.751,0.081 H 15.735 L 14.754,23.857 13.514,23.492 13.469,23.461 13.371,23.444 11.916,22.935 11.748,22.808 11.476,22.741 9.956,21.944 9.583,21.592 9.291,21.481 8.072,20.405 8.011,20.322 7.918,20.26 6.632,18.972 6.563,18.87 6.474,18.804 4.976,17.09 4.891,16.864 4.61,16.588 3.546,14.815 3.526,14.744 3.475,14.691 2.339,12.635 2.253,12.305 2.097,12.096 1.246,9.689 1.245,9.683 0.399,7.358 0.348,7.073 0.281,6.968 -0.356,4.345 -0.39,4.063 -0.422,4.004 -0.499,3.479 -0.789,3.417 -0.947,3.32 -1.303,3.238 -1.605,3.092 -1.939,2.791 -2.154,2.704 -2.265,2.597 -2.272,2.581 -2.288,2.574 -2.352,2.419 -2.479,2.306 -2.663,1.668 -2.88,1.144 -2.663,0.62 l 0.184,-0.637 0.126,-0.112 0.065,-0.156 0.016,-0.007 0.007,-0.016 0.11,-0.107 0.223,-0.09 0.34,-0.304 0.198,-0.096 0.244,-0.148 0.043,-0.012 0.032,-0.031 0.012,-0.007 -0.009,-0.092 -0.008,-0.15 -0.007,-0.025 -0.135,-2.279 -0.006,-0.213 v -0.015 l 0.009,-2.075 v -0.003 l 0.01,-0.251 0.153,-1.943 0.04,-0.143 0.046,-0.386 0.37,-1.524 0.012,-0.019 0.007,-0.05 0.298,-1.095 0.209,-0.309 0.136,-0.497 0.416,-0.709 0.295,-0.646 0.239,-0.274 0.093,-0.289 0.435,-0.318 0.469,-0.539 0.448,-0.132 0.33,-0.241 0.134,-0.045 0.897,-0.332 0.818,-0.42 0.357,-0.039 0.203,-0.058 0.955,-0.136 z m -0.792,7.113 -0.158,0.609 -0.272,1.171 -0.107,1.531 0.008,1.84 0.064,0.963 0.352,-0.004 0.595,-0.104 0.519,-0.046 0.013,-0.003 0.786,-0.005 v 0 L 8.283,-3.184 8.778,-3.276 9.345,-3.33 9.356,-3.332 9.77,-3.334 9.825,-3.35 10.179,-3.402 10.172,-3.417 10.154,-3.498 10.116,-3.544 9.762,-4.378 9.726,-4.55 9.664,-4.635 9.506,-5.099 9.236,-5.521 v 0 L 8.698,-6.324 8.636,-6.528 8.478,-6.701 8.14,-7.373 7.968,-7.631 7.569,-7.957 7.25,-8.362 6.941,-8.635 6.734,-8.931 6.487,-9.122 6.411,-9.216 6.344,-9.241 6.283,-9.294 Z"
           id="path448"
           style="stroke:#000000;stroke-width:0.998817;stroke-miterlimit:4;stroke-dasharray:none;stroke-opacity:1;paint-order:stroke markers fill" />
      </g>
      <g
         transform="translate(66.75,16.875)"
         id="g454"
         style="stroke:#000000;stroke-width:0.998817;stroke-miterlimit:4;stroke-dasharray:none;stroke-opacity:1;paint-order:stroke markers fill">
        <path
           fill-mode="evenodd"
           fill="#ab228b"
           d="m 13.728,-10.43 1.106,0.746 0.745,1.106 0.096,0.473 0.072,0.09 0.04,0.098 0.062,0.104 0.101,0.362 0.194,0.254 0.257,0.705 0.163,0.378 0.008,0.037 0.015,0.018 0.191,0.458 0.375,0.501 0.066,0.196 0.19,0.194 0.634,1.128 0.084,0.314 0.158,0.206 0.36,0.975 0.764,1.146 0.117,0.384 0.243,0.309 0.677,1.757 0.936,2.005 0.044,0.196 0.082,0.108 0.829,2.275 1.089,2.517 0.015,0.073 0.031,0.038 1.136,2.838 v 0.002 l 1.187,2.791 0.027,0.129 0.049,0.065 1.136,3.12 1.248,3.119 0.021,0.105 0.037,0.049 1.208,3.409 10e-4,0.004 1.124,3.02 0.029,0.158 0.047,0.066 0.995,3.266 0.026,0.175 0.037,0.057 0.71,2.98 0.025,0.21 0.027,0.047 0.498,2.984 0.03,0.355 0.016,0.064 0.142,2.852 0.005,0.182 v 2.861 l -0.005,0.188 -0.143,2.656 -0.031,0.119 -0.051,0.459 -0.577,2.527 -0.028,0.044 -0.018,0.127 -0.65,2.242 -0.091,0.131 -0.057,0.269 -1.01,2.311 -0.199,0.235 -0.085,0.278 -1.152,1.729 -0.141,0.128 -0.042,0.119 -1.22,1.508 -0.286,0.227 -0.225,0.282 -1.495,1.211 -0.237,0.084 -0.259,0.252 -1.771,0.993 -0.467,0.123 -0.276,0.19 -1.692,0.494 -0.117,0.017 -0.038,0.025 -1.978,0.495 -0.868,0.109 h -2.289 l -0.578,-0.048 -2.003,-0.337 -0.07,-0.04 -0.265,-0.037 -2.301,-0.65 L 10.332,61.961 9.988,61.879 7.778,60.758 7.777,60.757 5.614,59.657 5.532,59.581 5.433,59.553 3.38,58.239 3.37,58.222 3.339,58.212 1.359,56.855 1.335,56.809 1.266,56.785 l -1.602,-1.32 -1.739,-1.21 -0.018,-0.035 -0.05,-0.019 -1.446,-1.288 -0.185,-0.415 0.555,-0.555 0.281,0.076 1.613,0.944 1.97,0.716 v 10e-4 h 0.001 l 1.915,0.715 2.215,0.559 2.241,0.461 2.325,0.274 0.02,0.011 0.116,0.01 2.202,0.387 2.141,0.054 0.005,10e-4 0.063,10e-4 1.928,0.09 h 1.778 l 1.54,-0.386 1.256,-0.367 1.184,-0.663 0.985,-0.798 0.884,-1.092 0.885,-1.328 0.789,-1.805 0.554,-1.911 0.481,-2.106 0.121,-2.253 v -2.679 l -0.128,-2.574 -0.45,-2.694 -0.664,-2.788 -0.941,-3.088 -1.095,-2.94 -0.01,-0.053 -0.017,-0.023 -1.2,-3.386 -1.245,-3.111 -0.017,-0.086 -0.031,-0.041 -1.119,-3.074 -1.165,-2.739 -0.012,-0.061 -0.025,-0.031 -1.136,-2.837 v -0.001 l -0.906,-2.094 -0.125,1.88 -0.013,0.046 -0.014,0.204 -0.279,1.953 -0.208,1.946 -0.075,0.147 -0.125,0.689 -0.556,1.484 -0.308,1.418 -0.108,0.175 -0.089,0.433 -0.553,1.291 -0.3,1.084 -0.264,0.386 -0.162,0.548 -0.633,0.98 -0.396,0.907 -0.026,0.03 -0.011,0.05 -0.915,1.176 -0.34,0.284 -0.192,0.356 -0.202,0.211 -0.392,0.581 -0.5,0.501 -1.106,0.746 -0.172,0.034 -0.082,0.061 -0.412,0.137 -0.472,0.237 -0.566,0.135 -0.255,0.159 -0.62,0.138 -0.778,0.087 v 0 L 3.908,29.595 3.382,29.445 3.032,29.204 2.519,29.057 2.018,28.744 1.44,28.423 1.162,28.152 0.454,27.594 -0.185,26.813 -0.222,26.71 -0.347,26.599 -0.765,26.002 -1.381,25.263 -1.522,24.874 -1.9,24.425 -2.392,23.303 -2.399,23.272 -2.411,23.257 -3.046,21.777 -3.072,21.651 -3.122,21.587 -3.615,20.252 -3.621,20.218 -3.631,20.204 -4.267,18.44 -4.375,17.83 -4.451,17.687 -4.641,16.239 -5.015,14.744 -5.036,14.576 -5.062,14.533 -5.416,12.695 -5.439,12.452 -5.459,12.414 -5.664,10.642 -5.671,10.527 -5.677,10.502 -5.784,9.151 -6.012,7.818 -6.05,7.374 -6.062,7.324 -6.095,6.206 -6.186,5.17 -6.2,4.864 -6.196,4.705 -6.148,3.698 -6.146,3.688 -6.144,3.621 -6.091,2.899 -6.089,2.895 -6.087,2.861 -6.03,2.21 v 0 l 0.059,-0.647 0.005,-0.009 0.004,-0.067 0.06,-0.508 0.067,-0.126 0.096,-0.545 0.195,-0.536 0.123,-0.369 0.075,-0.101 0.041,-0.185 0.745,-0.983 0.338,-0.29 0.349,-0.13 0.426,-0.347 0.241,-0.101 1.06,-0.213 0.098,0.041 0.045,-0.019 0.36,0.04 -0.047,-0.024 0.131,0.022 0.029,0.015 0.097,0.011 0.325,0.073 0.036,0.023 0.106,0.016 0.369,0.111 0.557,0.394 0.3,0.124 0.052,0.124 0.144,0.102 0.416,1.25 L 0.466,0.593 0.412,0.666 0.38,0.828 0.266,1.105 0.261,1.111 0.255,1.205 0.229,1.39 0.239,1.472 0.245,1.565 0.25,1.575 0.307,2.201 0.308,2.221 0.309,2.223 0.365,2.849 0.367,2.905 0.369,2.91 0.421,3.61 0.424,3.695 0.427,3.706 0.465,4.516 0.617,5.447 0.636,5.682 0.65,5.71 0.74,6.72 1.008,7.992 1.041,8.297 1.065,8.344 1.231,9.828 v 0.003 l 0.206,1.645 0.319,1.658 0.398,1.59 0.044,0.351 0.036,0.067 0.166,1.272 0.508,1.409 10e-4,0.005 0.474,1.282 0.593,1.383 10e-4,0.004 0.301,0.687 0.393,0.472 0.041,0.113 0.141,0.125 0.202,0.289 0.585,-0.752 0.227,-0.189 0.181,-0.415 0.181,-0.213 0.076,-0.26 0.498,-0.77 0.221,-0.799 0.091,-0.133 0.058,-0.282 0.513,-1.199 0.291,-1.34 0.077,-0.124 0.06,-0.335 0.49,-1.306 L 8.772,12.488 8.78,12.474 8.786,12.382 9.054,10.504 9.18,8.608 V -0.349 L 9.051,-1.831 9.037,-2.146 V -3.144 L 8.923,-4.057 8.894,-4.506 v -2.718 l 0.274,-1.354 0.745,-1.106 1.106,-0.746 1.355,-0.273 z"
           id="path452"
           style="stroke:#000000;stroke-width:0.998817;stroke-miterlimit:4;stroke-dasharray:none;stroke-opacity:1;paint-order:stroke markers fill" />
      </g>
    </g>
  </g>
</svg>
