<?xml version="1.0" encoding="UTF-8" standalone="no"?>
<!-- Generator: Adobe Illustrator 19.0.0, SVG Export Plug-In . SVG Version: 6.00 Build 0)  -->

<svg
   version="1.1"
   id="Layer_1"
   x="0px"
   y="0px"
   viewBox="0 0 452.3813 461.87963"
   xml:space="preserve"
   sodipodi:docname="cad_wallet.svg"
   inkscape:version="1.1.2 (0a00cf5339, 2022-02-04, custom)"
   width="45"
   height="46"
   xmlns:inkscape="http://www.inkscape.org/namespaces/inkscape"
   xmlns:sodipodi="http://sodipodi.sourceforge.net/DTD/sodipodi-0.dtd"
   xmlns="http://www.w3.org/2000/svg"
   xmlns:svg="http://www.w3.org/2000/svg"><defs
   id="defs1737"><filter
     style="color-interpolation-filters:sRGB"
     inkscape:label="Drop Shadow"
     id="filter2220"
     x="-0.020060816"
     y="-0.02961352"
     width="1.0459751"
     height="1.0678679"><feFlood
       flood-opacity="0.498039"
       flood-color="rgb(0,0,0)"
       result="flood"
       id="feFlood2210" /><feComposite
       in="flood"
       in2="SourceGraphic"
       operator="in"
       result="composite1"
       id="feComposite2212" /><feGaussianBlur
       in="composite1"
       stdDeviation="6.68693"
       result="blur"
       id="feGaussianBlur2214" /><feOffset
       dx="4.68278"
       dy="4.68278"
       result="offset"
       id="feOffset2216" /><feComposite
       in="SourceGraphic"
       in2="offset"
       operator="over"
       result="composite2"
       id="feComposite2218" /></filter><filter
     style="color-interpolation-filters:sRGB;"
     inkscape:label="Drop Shadow"
     id="filter2921"
     x="-0.020060816"
     y="-0.02961352"
     width="1.0459751"
     height="1.0678679"><feFlood
       flood-opacity="0.498039"
       flood-color="rgb(0,0,0)"
       result="flood"
       id="feFlood2911" /><feComposite
       in="flood"
       in2="SourceGraphic"
       operator="in"
       result="composite1"
       id="feComposite2913" /><feGaussianBlur
       in="composite1"
       stdDeviation="6.68693"
       result="blur"
       id="feGaussianBlur2915" /><feOffset
       dx="4.68278"
       dy="4.68278"
       result="offset"
       id="feOffset2917" /><feComposite
       in="SourceGraphic"
       in2="offset"
       operator="over"
       result="composite2"
       id="feComposite2919" /></filter><filter
     style="color-interpolation-filters:sRGB;"
     inkscape:label="Drop Shadow"
     id="filter3120"
     x="-0.020060816"
     y="-0.02961352"
     width="1.0459751"
     height="1.0678679"><feFlood
       flood-opacity="0.498039"
       flood-color="rgb(0,0,0)"
       result="flood"
       id="feFlood3110" /><feComposite
       in="flood"
       in2="SourceGraphic"
       operator="in"
       result="composite1"
       id="feComposite3112" /><feGaussianBlur
       in="composite1"
       stdDeviation="6.68693"
       result="blur"
       id="feGaussianBlur3114" /><feOffset
       dx="4.68278"
       dy="4.68278"
       result="offset"
       id="feOffset3116" /><feComposite
       in="SourceGraphic"
       in2="offset"
       operator="over"
       result="composite2"
       id="feComposite3118" /></filter></defs><sodipodi:namedview
   id="namedview1735"
   pagecolor="#505050"
   bordercolor="#eeeeee"
   borderopacity="1"
   inkscape:pageshadow="0"
   inkscape:pageopacity="0"
   inkscape:pagecheckerboard="0"
   showgrid="false"
   inkscape:zoom="3.2313753"
   inkscape:cx="318.1308"
   inkscape:cy="422.11129"
   inkscape:window-width="2400"
   inkscape:window-height="1261"
   inkscape:window-x="-2409"
   inkscape:window-y="-462"
   inkscape:window-maximized="1"
   inkscape:current-layer="Layer_1"
   fit-margin-top="0"
   fit-margin-left="0"
   fit-margin-right="0"
   fit-margin-bottom="0" />
<path
   style="fill:#fff8ef"
   d="m 268,108.7 c -3.1,-2.8 -6.4,-5.7 -9.3,-8.4 -5.8,-5.8 -14,-9.1 -22.5,-9.1 -6.4,0 -12.6,1.8 -18.1,5.4 L 151.5,141 h 142.1 l 2,-9.6 c -4.9,-2.1 -17.5,-13.5 -27.6,-22.7 z"
   id="path1658" />
<path
   style="fill:#cc9966"
   d="M 397,181 V 147 H 56 C 42.2,147 29.6,141.7 19.5,131.7 L 11,123.2 v 35.7 l 1.5,1.5 c 4.7,4.7 24,19.8 78.5,20.6 v 6 C 61.1,186.5 36.7,181.3 18.3,171.6 l -5.9,8 c 0.8,0.8 1.7,1.4 2.8,2 l 10.2,122.1 c 1.8,19.6 10.7,36.5 25.1,47.5 l 0.1,0.1 c 18.4,13.3 41.9,20.4 69.6,20.9 h 7.7 269 v -74 H 279.2 C 264.8,298.2 253,286.4 253,272 V 239.2 C 253,224.8 264.8,213 279.2,213 H 397 v -26 h -80 v -6 z m -250,6 h -30 v -6 h 30 z m 136,0 H 181 v -6 h 102 z"
   id="path1660" />
<g
   id="g1666"
   transform="translate(-12.016)">
	<path
   style="fill:#b37d4d"
   d="m 29.616,158.4 -1.6,-22.4 v 20.8 c 0.8,0.8 0.8,0.8 1.6,1.6 z"
   id="path1662" />
	<path
   style="fill:#b37d4d"
   d="m 132.416,367.2 v 0 c 2.5,0.1 5,0.1 7.6,0 v 0 z"
   id="path1664" />
</g>
<path
   style="fill:#fff8ef"
   d="m 296,243 c -7.2,0 -13,5.8 -13,13 0,7.2 5.8,13 13,13 7.2,0 13,-5.8 13,-13 0,-7.2 -5.8,-13 -13,-13 z"
   id="path1668" />
<g
   id="g1676"
   transform="translate(-12.016)">
	<path
   style="fill:#b37d4d"
   d="m 167.216,51 h -99.2 c -9.5,0 -19.4,3.3 -27,9 l -12,9 h 123.8 z"
   id="path1670" />
	<polygon
   style="fill:#b37d4d"
   points="353.016,75 353.016,69 385.016,69 385.016,51 298.016,51 365.516,141 385.016,141 385.016,75 "
   id="polygon1672" />
	<path
   style="fill:#b37d4d"
   d="m 291.216,219.8 c -11.1,0 -20.2,9.1 -20.2,20.2 v 32.8 c 0,10.3 9,19.9 19.7,21 h 0.2 142 v -74 z m 16.8,55.2 c -10.8,0 -19,-8.2 -19,-19 0,-10.8 8.2,-19 19,-19 10.8,0 19,8.2 19,19 0,10.8 -8.2,19 -19,19 z"
   id="path1674" />
</g>
<g
   id="g1686"
   transform="translate(-12.016)">
	<polygon
   style="fill:#7ac943"
   points="223.916,430 145.316,393.1 139.316,400.7 173.316,444.1 "
   id="polygon1678" />
	<polygon
   style="fill:#7ac943"
   points="325.516,379 152.016,379 149.916,388.5 267.716,444.5 "
   id="polygon1680" />
	<polygon
   style="fill:#7ac943"
   points="204.816,12 129.616,110.6 136.716,117.5 235.916,37.6 "
   id="polygon1682" />
	<path
   style="fill:#7ac943"
   d="m 155.316,141 102.9,-79.4 c 0.3,-0.2 0.8,-0.4 1.6,-0.4 1.2,0 2.3,0.5 2.6,1 l 63.2,78.8 h 32.3 L 268.116,20.1 116.916,141 Z"
   id="path1684" />
</g>
<path
   style="fill:#996632"
   d="m 56,141 h 30.3 l 16.2,-18.9 -14.8,3.4 -0.5,0.1 c -4.1,0.9 -8,1.4 -11.6,1.4 v 0 C 50.3,127 45.2,104 45,103 v -0.2 l -0.1,-0.2 C 42.6,94.8 42.8,86.3 43.5,80.6 L 44,75 H 15.6 l -1.1,3.4 C 12.8,83.5 11,89.6 11,96 c 0,25.2 19.8,45 45,45 z"
   id="path1688" />
<g
   id="g1694"
   transform="translate(-12.016)">
	<path
   style="fill:#b37d4d"
   d="m 52.016,104 c 0,0 7.1,35.7 48.2,26.5 l 39,-50.5 h -88.8 c -0.8,7.2 -0.8,16 1.6,24 z"
   id="path1690" />
	<path
   style="fill:#b37d4d"
   d="m 132.416,367.2 v 0 h -50 c -29.6,0.8 -54.4,-24 -54.4,-53.6 v -0.8 c 0,30.4 24.8,54.4 54.4,54.4 h 50 c -32.4,-0.7 -53.4,-10.3 -66.8,-20 -13.6,-10.4 -21.6,-26.4 -23.2,-44 l -10.4,-124.8 c -1.6,-0.8 -3.2,-1.6 -4,-2.4 2.6,1.4 5.7,2.9 9.2,4.3 l -0.4,-5.1 -2.5,-1.3 c -0.9,-0.4 -2.4,-1.2 -2.7,-1.5 l -8.5,-8.5 v 148.9 c 0,32.8 26.6,59.4 59.4,59.4 h 50 z"
   id="path1692" />
</g>
<path
   style="fill:#cc9966"
   d="m 16,312.8 v 0.8 c 0,29.6 24.8,54.4 54.4,53.6 h 50 v 0 h -50 C 40.8,367.2 16,343.2 16,312.8 Z"
   id="path1696" />
<path
   style="fill:#e0cbb5"
   d="m 248,68.2 -70.2,54.2 -12.8,9.6 5.8,8.2 6.2,-4.2 h -9 l 52.8,-35.2 c 11.2,-7.2 25.6,-5.6 34.4,3.2 13.6,12 31.2,28.8 38.4,32 h -9.2 c 2.9,2.1 5.3,3.7 7.2,4.6 l 1,0.4 h 13.9 z"
   id="path1698" />
<polygon
   style="fill:#fff8ef"
   points="179.216,136 180.016,136 192.816,126.4 258.716,75.6 258.416,75.2 "
   id="polygon1700"
   transform="translate(-12.016)" />
<path
   style="fill:#42210b"
   d="m 176,176 h 112 v 16 H 176 Z m 112,80 c 0,4 4,8 8,8 4,0 8,-4 8,-8 0,-4 -4,-8 -8,-8 -4,0 -8,4 -8,8 z m 32,0 c 0,13.6 -10.4,24 -24,24 -13.6,0 -24,-10.4 -24,-24 0,-13.6 10.4,-24 24,-24 13.6,0 24,10.4 24,24 z M 112,176 h 40 v 16 h -40 z m 85.6,252.8 -66.4,-31.2 32,40.8 z M 56,56 c -8.8,0 -16.8,3.2 -24,8 h 107.2 l 6.4,-8 z m 160,-18.4 -23.2,-18.4 -72,94.4 z M 140,384 254.4,438.4 302.4,384 Z M 246.4,75.2 167.2,136 h 128 z m 8,-16 61.6,76.8 h 20 L 254.4,27.2 119.2,136 h 22.4 L 243.2,57.6 c 3.2,-2.4 8,-2.4 11.2,1.6 z M 16,96 c 0,22.4 17.6,40 40,40 H 84 L 127.2,80 H 19.2 C 17.6,84.8 16,90.4 16,96 Z m 40,56 c -16,0 -29.6,-6.4 -40,-16.8 v 21.6 c 4.8,4.8 24.8,19.2 80,19.2 v 16 c -42.4,0 -66.4,-8 -80,-16 v 136.8 c 0,30.4 24.8,54.4 54.4,54.4 H 392 v -64 H 279.2 C 261.6,303.2 248,288.8 248,272 V 239.2 C 248,221.6 262.4,208 279.2,208 H 392 v -16 h -80 v -16 h 80 v -24 h -16 -16 z m 360,72 H 279.2 c -8.8,0 -15.2,7.2 -15.2,15.2 V 272 c 0,8.8 7.2,15.2 15.2,15.2 H 416 Z m -60,-88 h 4 8 V 80 H 336 V 64 h 32 v -8 h -72 z m 52,8 v 64 h 16 c 4,0 8,4 8,8 v 80 c 0,4 -4,8 -8,8 h -16 v 72 c 0,4 -4,8 -8,8 h -76 l -61.6,69.6 c -2.4,2.4 -6.4,3.2 -9.6,1.6 l -34.4,-16.8 v 0.8 l -56,16 c -0.8,0 -1.6,0 -2.4,0 -2.4,0 -4.8,-0.8 -6.4,-3.2 L 100,384 H 70.4 C 32,384 0,352 0,313.6 V 88 H 0.8 C 4.8,60.8 28,40 56,40 h 101.6 l 28,-36.8 c 1.6,-1.6 3.2,-3.2 5.6,-3.2 2.4,0 4,0 5.6,1.6 l 32,25.6 22.4,-17.6 c 1.6,-0.8 4,-1.6 5.6,-1.6 2.4,0 4,1.6 5.6,3.2 L 284,40 h 92 c 4,0 8,3.2 8,8 v 88 h 16 c 4,0 8,4 8,8 z"
   id="path1702" />
<g
   id="g1704"
   transform="translate(-12.016)">
</g>
<g
   id="g1706"
   transform="translate(-12.016)">
</g>
<g
   id="g1708"
   transform="translate(-12.016)">
</g>
<g
   id="g1710"
   transform="translate(-12.016)">
</g>
<g
   id="g1712"
   transform="translate(-12.016)">
</g>
<g
   id="g1714"
   transform="translate(-12.016)">
</g>
<g
   id="g1716"
   transform="translate(-12.016)">
</g>
<g
   id="g1718"
   transform="translate(-12.016)">
</g>
<g
   id="g1720"
   transform="translate(-12.016)">
</g>
<g
   id="g1722"
   transform="translate(-12.016)">
</g>
<g
   id="g1724"
   transform="translate(-12.016)">
</g>
<g
   id="g1726"
   transform="translate(-12.016)">
</g>
<g
   id="g1728"
   transform="translate(-12.016)">
</g>
<g
   id="g1730"
   transform="translate(-12.016)">
</g>
<g
   id="g1732"
   transform="translate(-12.016)">
</g>
<g
   id="g3087"
   transform="matrix(0.28734525,0,0,0.28734525,217.74498,263.24962)"
   style="filter:url(#filter3120)">
	<path
   fill="#103b9b"
   d="m 24.807,646.161 v -91.322 c 0,-6.563 -5.34,-11.903 -11.903,-11.903 h -1 v -27.807 h 1 c 6.563,0 11.903,-5.34 11.903,-11.903 V 153.839 H 775.194 V 646.161 Z M 400,530.032 c -13.678,0 -24.807,11.128 -24.807,24.807 0,13.679 11.128,24.807 24.807,24.807 13.679,0 24.807,-11.128 24.807,-24.807 0,-13.679 -11.128,-24.807 -24.807,-24.807 z m 77.396,-20.75 c -4.328,0 -8.608,1.151 -12.38,3.329 -5.738,3.313 -9.843,8.662 -11.558,15.063 -1.715,6.401 -0.834,13.085 2.479,18.823 4.419,7.653 12.659,12.407 21.507,12.407 4.327,0 8.607,-1.15 12.378,-3.328 5.738,-3.313 9.843,-8.662 11.558,-15.063 1.715,-6.401 0.835,-13.085 -2.479,-18.823 -4.418,-7.653 -12.659,-12.408 -21.505,-12.408 z m -154.792,0 c -8.847,0 -17.088,4.755 -21.506,12.408 -3.314,5.738 -4.194,12.423 -2.479,18.823 1.715,6.4 5.82,11.75 11.558,15.063 3.77,2.178 8.05,3.328 12.378,3.328 8.847,0 17.088,-4.754 21.507,-12.407 3.314,-5.738 4.194,-12.424 2.479,-18.824 -1.715,-6.399 -5.819,-11.749 -11.557,-15.062 -3.771,-2.177 -8.051,-3.329 -12.38,-3.329 z m 211.512,-56.674 c -8.847,0 -17.087,4.755 -21.505,12.408 -3.313,5.738 -4.193,12.424 -2.479,18.824 1.714,6.4 5.819,11.749 11.558,15.061 3.771,2.178 8.053,3.329 12.381,3.329 8.847,0 17.087,-4.755 21.505,-12.408 6.839,-11.846 2.766,-27.047 -9.079,-33.885 -3.771,-2.177 -8.052,-3.329 -12.381,-3.329 z m -268.233,0 c -4.328,0 -8.609,1.151 -12.38,3.329 -5.738,3.312 -9.842,8.66 -11.557,15.061 -1.715,6.401 -0.835,13.086 2.478,18.824 4.418,7.653 12.658,12.408 21.505,12.408 4.328,0 8.609,-1.151 12.38,-3.329 5.738,-3.312 9.842,-8.66 11.557,-15.061 1.715,-6.401 0.835,-13.086 -2.478,-18.824 -4.418,-7.653 -12.658,-12.408 -21.505,-12.408 z m 288.956,-77.415 c -13.679,0 -24.807,11.128 -24.807,24.807 0,13.679 11.128,24.807 24.807,24.807 13.679,0 24.807,-11.128 24.807,-24.807 0,-13.678 -11.128,-24.807 -24.807,-24.807 z m -309.678,0 c -13.678,0 -24.806,11.128 -24.806,24.807 0,13.679 11.128,24.807 24.806,24.807 13.678,0 24.807,-11.128 24.807,-24.807 0,-13.678 -11.129,-24.807 -24.807,-24.807 z M 534.07,297.77 c -4.328,0 -8.608,1.151 -12.38,3.329 -5.738,3.312 -9.843,8.661 -11.558,15.061 -1.715,6.4 -0.835,13.086 2.479,18.825 4.418,7.653 12.658,12.408 21.506,12.408 4.328,0 8.608,-1.151 12.38,-3.329 5.737,-3.312 9.842,-8.661 11.557,-15.061 1.716,-6.4 0.835,-13.086 -2.478,-18.825 -4.418,-7.654 -12.658,-12.408 -21.506,-12.408 z m -268.142,0 c -8.847,0 -17.087,4.754 -21.505,12.408 -3.313,5.739 -4.193,12.424 -2.478,18.825 1.715,6.4 5.819,11.749 11.557,15.061 3.771,2.178 8.052,3.329 12.38,3.329 8.847,0 17.087,-4.754 21.505,-12.408 6.838,-11.846 2.766,-27.047 -9.079,-33.885 -3.771,-2.18 -8.052,-3.33 -12.38,-3.33 z m 211.516,-56.675 c -8.848,0 -17.089,4.754 -21.507,12.408 -3.313,5.738 -4.194,12.423 -2.479,18.823 1.715,6.4 5.819,11.75 11.558,15.063 3.771,2.178 8.052,3.329 12.38,3.329 8.847,0 17.088,-4.754 21.506,-12.408 3.313,-5.738 4.194,-12.423 2.479,-18.823 -1.716,-6.4 -5.82,-11.75 -11.559,-15.063 -3.77,-2.178 -8.051,-3.329 -12.378,-3.329 z m -154.888,-0.001 c -4.328,0 -8.608,1.151 -12.378,3.329 -5.738,3.313 -9.843,8.662 -11.558,15.063 -1.715,6.401 -0.835,13.085 2.479,18.822 4.418,7.654 12.659,12.408 21.506,12.408 4.328,0 8.609,-1.151 12.38,-3.329 5.738,-3.312 9.842,-8.661 11.557,-15.061 1.715,-6.4 0.834,-13.085 -2.479,-18.824 -4.419,-7.654 -12.66,-12.408 -21.507,-12.408 z M 400,220.355 c -13.678,0 -24.807,11.128 -24.807,24.806 0,13.679 11.128,24.807 24.807,24.807 13.679,0 24.807,-11.128 24.807,-24.807 0,-13.678 -11.128,-24.806 -24.807,-24.806 z"
   id="path3057" />
	<path
   fill="#103b9b"
   d="m 25.807,554.839 v 90.322 H 774.194 V 154.839 H 25.807 v 348.387 c 0,7.128 -5.777,12.903 -12.903,12.903 v 25.807 c 7.125,0 12.903,5.775 12.903,12.903 z M 278.81,499.768 c -12.342,7.128 -28.126,2.899 -35.252,-9.445 -7.126,-12.344 -2.897,-28.127 9.445,-35.251 12.342,-7.128 28.125,-2.899 35.252,9.445 7.126,12.343 2.897,28.127 -9.445,35.251 z M 580.646,400 c 0,14.252 -11.555,25.807 -25.807,25.807 -14.252,0 -25.807,-11.555 -25.807,-25.807 0,-14.252 11.555,-25.807 25.807,-25.807 14.252,0 25.807,11.555 25.807,25.807 z M 521.19,300.232 c 12.343,-7.128 28.126,-2.899 35.252,9.445 7.126,12.344 2.896,28.127 -9.445,35.252 -12.343,7.127 -28.126,2.899 -35.252,-9.445 -7.126,-12.344 -2.897,-28.128 9.445,-35.252 z m -9.445,164.285 c 7.126,-12.345 22.909,-16.573 35.252,-9.445 12.343,7.126 16.571,22.907 9.445,35.251 -7.126,12.345 -22.909,16.573 -35.252,9.445 -12.342,-7.124 -16.571,-22.908 -9.445,-35.251 z M 455.071,253.003 c 7.126,-12.342 22.909,-16.573 35.251,-9.445 12.343,7.126 16.573,22.909 9.445,35.252 -7.126,12.344 -22.909,16.573 -35.252,9.445 -12.341,-7.126 -16.572,-22.91 -9.444,-35.252 z m 9.445,258.742 c 12.343,-7.128 28.126,-2.898 35.252,9.445 7.126,12.343 2.897,28.126 -9.445,35.252 -12.342,7.128 -28.125,2.896 -35.251,-9.445 -7.129,-12.343 -2.898,-28.126 9.444,-35.252 z M 400,219.355 c 14.252,0 25.807,11.554 25.807,25.806 0,14.252 -11.555,25.807 -25.807,25.807 -14.252,0 -25.807,-11.555 -25.807,-25.807 0,-14.252 11.555,-25.806 25.807,-25.806 z m 0,309.677 c 14.252,0 25.807,11.555 25.807,25.807 0,14.252 -11.555,25.807 -25.807,25.807 -14.252,0 -25.807,-11.555 -25.807,-25.807 0,-14.252 11.555,-25.807 25.807,-25.807 z M 309.678,243.556 c 12.342,-7.128 28.125,-2.897 35.251,9.445 7.126,12.344 2.897,28.127 -9.444,35.251 -12.343,7.128 -28.126,2.899 -35.252,-9.445 -7.129,-12.34 -2.898,-28.125 9.445,-35.251 z m -9.446,277.634 c 7.126,-12.344 22.909,-16.573 35.252,-9.445 12.342,7.126 16.572,22.908 9.444,35.252 -7.126,12.342 -22.909,16.573 -35.251,9.445 -12.342,-7.126 -16.573,-22.909 -9.445,-35.252 z M 243.556,309.677 c 7.126,-12.344 22.909,-16.573 35.251,-9.445 12.342,7.126 16.571,22.907 9.445,35.251 -7.126,12.344 -22.909,16.573 -35.251,9.445 -12.342,-7.123 -16.571,-22.907 -9.445,-35.251 z m 1.605,64.516 c 14.252,0 25.807,11.555 25.807,25.807 0,14.252 -11.555,25.807 -25.807,25.807 -14.252,0 -25.806,-11.555 -25.806,-25.807 0,-14.252 11.554,-25.807 25.806,-25.807 z"
   id="path3059" />
	<circle
   fill="#ffe000"
   cx="400"
   cy="245.161"
   r="25.806"
   id="circle3061" />
	<circle
   fill="#ffe000"
   cx="322.58099"
   cy="265.90601"
   r="25.806999"
   id="circle3063" />
	<circle
   fill="#ffe000"
   cx="265.90601"
   cy="322.58099"
   r="25.806"
   id="circle3065" />
	<circle
   fill="#ffe000"
   cx="245.161"
   cy="400"
   r="25.806999"
   id="circle3067" />
	<circle
   fill="#ffe000"
   cx="265.90601"
   cy="477.41901"
   r="25.806"
   id="circle3069" />
	<circle
   fill="#ffe000"
   cx="322.58099"
   cy="534.09399"
   r="25.806999"
   id="circle3071" />
	<circle
   fill="#ffe000"
   cx="400"
   cy="554.83899"
   r="25.806999"
   id="circle3073" />
	<circle
   fill="#ffe000"
   cx="477.41901"
   cy="534.09399"
   r="25.806999"
   id="circle3075" />
	<circle
   fill="#ffe000"
   cx="534.09399"
   cy="477.41901"
   r="25.806"
   id="circle3077" />
	<circle
   fill="#ffe000"
   cx="554.83899"
   cy="400"
   r="25.806999"
   id="circle3079" />
	<circle
   fill="#ffe000"
   cx="534.09399"
   cy="322.58099"
   r="25.806"
   id="circle3081" />
	<circle
   fill="#ffe000"
   cx="477.41901"
   cy="265.90601"
   r="25.806999"
   id="circle3083" />
	<path
   d="M 787.097,129.032 H 12.903 C 5.777,129.032 0,134.808 0,141.936 v 361.29 c 0,7.128 5.777,12.903 12.903,12.903 7.126,0 12.903,-5.775 12.903,-12.903 V 154.839 H 774.193 V 645.161 H 25.807 v -90.322 c 0,-7.128 -5.777,-12.903 -12.903,-12.903 C 5.778,541.936 0,547.711 0,554.839 v 103.226 c 0,7.128 5.777,12.903 12.903,12.903 h 774.193 c 7.128,0 12.903,-5.775 12.903,-12.903 V 141.936 c 10e-4,-7.128 -5.774,-12.904 -12.902,-12.904 z"
   id="path3085" />
</g></svg>
