<?xml version="1.0" encoding="UTF-8" standalone="no"?>
<!-- Created with Inkscape (http://www.inkscape.org/) -->

<svg
   width="251.85582mm"
   height="104.44593mm"
   viewBox="0 0 251.85582 104.44593"
   version="1.1"
   id="svg5"
   inkscape:version="1.1.2 (0a00cf5339, 2022-02-04, custom)"
   sodipodi:docname="settlement.svg"
   xmlns:inkscape="http://www.inkscape.org/namespaces/inkscape"
   xmlns:sodipodi="http://sodipodi.sourceforge.net/DTD/sodipodi-0.dtd"
   xmlns="http://www.w3.org/2000/svg"
   xmlns:svg="http://www.w3.org/2000/svg">
  <sodipodi:namedview
     id="namedview7"
     pagecolor="#505050"
     bordercolor="#eeeeee"
     borderopacity="1"
     inkscape:pageshadow="0"
     inkscape:pageopacity="0"
     inkscape:pagecheckerboard="0"
     inkscape:document-units="mm"
     showgrid="false"
     fit-margin-top="0"
     fit-margin-left="0"
     fit-margin-right="0"
     fit-margin-bottom="0"
     inkscape:zoom="0.71357323"
     inkscape:cx="534.63328"
     inkscape:cy="374.87393"
     inkscape:window-width="2100"
     inkscape:window-height="1224"
     inkscape:window-x="2391"
     inkscape:window-y="-9"
     inkscape:window-maximized="1"
     inkscape:current-layer="layer1" />
  <defs
     id="defs2" />
  <g
     inkscape:label="Layer 1"
     inkscape:groupmode="layer"
     id="layer1"
     transform="translate(32.10346,-35.859428)">
    <path
       style="fill:#d388e2;fill-opacity:1;stroke-width:0.264583"
       d="m 89.620787,111.68109 -0.06936,-10.02212 -0.852945,1.32292 c -1.563169,2.42448 -1.730602,2.57442 -2.533732,2.26907 -0.459187,-0.17458 -0.714364,-0.46763 -0.714364,-0.82037 0,-0.53363 3.373424,-5.876754 4.464388,-7.071094 1.06548,-1.166439 1.288172,-0.992317 3.974928,3.108004 2.394726,3.65465 2.657499,4.63106 1.24631,4.63106 -0.644835,0 -0.936604,-0.25819 -1.852084,-1.63892 -0.597667,-0.90141 -1.1708,-1.64555 -1.273625,-1.65365 -0.102827,-0.008 -0.19436,4.35313 -0.203403,9.69163 -0.009,5.33849 -0.05899,9.7489 -0.110988,9.8009 -0.052,0.052 -0.524568,0.16433 -1.050155,0.24961 l -0.955609,0.15508 z M -10.65667,110.0595 -10.72566,98.748558 -11.620449,100.1227 c -0.974265,1.4962 -1.488445,1.84151 -2.049164,1.37615 -0.519953,-0.43152 -0.452845,-0.75191 0.430544,-2.05553 0.431339,-0.636527 0.708432,-1.280001 0.615762,-1.429943 -0.09267,-0.149942 -0.0513,-0.200192 0.09194,-0.111668 0.143235,0.08852 0.591437,-0.362722 0.996006,-1.002768 1.390914,-2.200484 2.1553881,-2.419424 2.9670953,-0.849757 0.229915,0.444606 0.9447266,1.531506 1.5884737,2.415334 1.3320448,1.828822 1.6629168,2.741782 1.1185922,3.086512 -0.6933936,0.43913 -1.0250699,0.23651 -1.9887988,-1.21497 -0.5314104,-0.800366 -1.0178706,-1.45521 -1.0810188,-1.45521 -0.063148,0 -0.094782,0.506016 -0.070294,1.12448 0.024474,0.61846 0.033478,5.67862 0.019976,11.24479 l -0.024529,10.12031 H -9.7967737 -10.587685 Z M 187.31497,96.208453 V 71.012942 l -0.99219,1.503715 c -0.81473,1.23477 -1.11009,1.490956 -1.65138,1.43239 -1.0197,-0.110326 -0.92948,-0.78373 0.37836,-2.824091 l 1.20341,-1.877438 h -23.17701 -23.177 l 0.0938,6.151562 0.0938,6.151563 h -1.05833 -1.05833 l -0.071,-6.151563 -0.071,-6.151562 H 113.6148 89.401505 l 0.02761,6.151562 0.02761,6.151563 H 88.445754 87.43476 L 87.36374,75.39908 87.29272,69.247518 H 64.808008 42.323301 v 6.217708 6.217708 H 41.264968 40.206635 V 75.465226 69.247518 H 16.261843 -7.6829487 v 5.820833 5.820833 h -1.0607569 -1.0607595 l 0.068572,-13.427603 0.068569,-13.427604 0.9921875,-0.08212 0.9921875,-0.08212 v 6.102795 6.102794 l 23.8786461,-0.06755 23.878646,-0.06755 0.07141,-5.622396 0.07141,-5.622396 h 1.053071 1.05307 v 5.688542 5.688541 h 22.071068 c 12.139089,0 22.259402,-0.07227 22.489584,-0.160599 0.363154,-0.139354 0.418515,-0.891858 0.418515,-5.688542 v -5.527942 h 1.058333 c 0.827445,0 1.060683,0.101013 1.069102,0.463021 0.0059,0.254662 0.0013,2.614443 -0.01,5.243962 -0.01143,2.629517 0.056,4.981001 0.149828,5.225521 0.158052,0.411871 1.939523,0.444579 24.214116,0.444579 h 24.04351 l 0.0714,-5.622395 0.0714,-5.622396 h 1.05833 1.05833 l 0.0409,5.55625 0.0409,5.55625 33.5612,0.07109 c 18.45865,0.0391 34.80672,0.0391 36.329,0 l 2.7678,-0.07109 -2.50322,-1.694278 c -3.27525,-2.216809 -3.69385,-2.61302 -3.69385,-3.496215 0,-0.765405 0.81426,-1.556382 1.60219,-1.556382 0.23436,0 2.35841,1.312127 4.72011,2.91584 2.3617,1.603711 4.42404,2.835471 4.58298,2.737244 0.16362,-0.10111 0.21402,-0.0573 0.1162,0.100965 -0.095,0.15376 0.24559,0.526408 0.75695,0.828109 0.97449,0.574961 1.54498,1.595599 1.27916,2.288376 -0.0862,0.224655 -1.30326,1.19697 -2.70458,2.160696 -1.40128,0.963729 -2.68578,1.919975 -2.85443,2.124996 -0.16864,0.205017 -0.37827,0.362913 -0.46582,0.350874 -0.15888,-0.02185 -1.49045,0.77451 -1.74109,1.04127 -0.0728,0.07744 -0.89263,0.603496 -1.82192,1.169012 -1.40692,0.856175 -1.80457,0.987792 -2.37654,0.786638 -0.82365,-0.289666 -1.34057,-1.497079 -0.92657,-2.164337 0.15324,-0.246983 0.87577,-0.865777 1.60562,-1.3751 0.72988,-0.509323 1.96913,-1.371479 2.75394,-1.915904 l 1.42693,-0.989862 -11.32025,-0.0024 c -12.84391,-0.0026 -11.74143,-0.25395 -9.83611,2.242159 1.06147,1.390607 1.1361,2.335593 0.19501,2.469369 -0.44425,0.06315 -0.79708,-0.212368 -1.44,-1.124479 -0.46836,-0.664414 -0.94947,-1.208069 -1.06914,-1.208069 -0.11966,0 -0.21143,11.162109 -0.20393,24.804686 l 0.0136,24.804686 -0.80347,0.0829 -0.80347,0.0829 z M 79.080977,117.73241 c -2.116671,-1.70987 -4.436731,-3.58176 -5.155689,-4.15975 -0.718957,-0.57799 -1.726549,-1.41143 -2.239092,-1.85208 -0.512543,-0.44065 -1.397021,-1.15838 -1.965507,-1.59494 -0.568484,-0.43656 -2.05413,-1.63039 -3.301434,-2.65296 -3.043359,-2.495 -4.154559,-3.30097 -4.35184,-3.15643 -0.09072,0.0665 -0.111086,0.0471 -0.04525,-0.0429 0.06583,-0.0901 -0.02347,-0.30118 -0.198437,-0.46909 -0.493869,-0.47395 -7.159488,-5.863765 -7.499845,-6.064367 -0.203092,-0.119697 -0.166648,0.328906 0.11086,1.364623 0.476533,1.778524 0.331589,2.422204 -0.545438,2.422204 -0.524703,0 -0.695897,-0.23683 -1.099698,-1.52135 -0.263041,-0.836746 -0.601668,-1.819011 -0.752505,-2.182813 -0.150836,-0.363802 -0.257585,-0.743059 -0.237222,-0.842791 0.02037,-0.09973 -0.141756,-0.688043 -0.360262,-1.307356 -0.352772,-0.999863 -0.35291,-1.170398 -0.0013,-1.522071 0.34245,-0.34245 0.867296,-0.35582 3.878389,-0.0988 1.915293,0.163483 3.600384,0.415282 3.744653,0.559551 0.144267,0.144267 0.186561,0.564094 0.09399,0.932947 -0.164579,0.655733 -0.207434,0.666991 -1.927294,0.506389 -1.236543,-0.115469 -1.706147,-0.07878 -1.581105,0.123542 0.09783,0.158287 1.99181,1.753507 4.208851,3.544932 2.217042,1.79143 4.269111,3.45559 4.560152,3.69815 0.561264,0.46775 1.019445,0.83871 10.246773,8.29613 3.241045,2.61938 5.952342,4.83419 6.025102,4.92182 0.10213,0.12299 1.648783,1.38513 3.399438,2.77409 0.114192,0.0906 -0.83444,1.41244 -1.021873,1.4239 -0.07479,0.005 -1.8678,-1.39067 -3.984472,-3.10054 z m 22.004733,2.49394 c -0.36186,-0.67615 -0.89654,-0.0895 6.44548,-7.07209 2.87836,-2.73746 6.94215,-6.54309 8.21399,-7.6922 0.43656,-0.39443 2.10074,-1.94727 3.69818,-3.45074 7.10625,-6.68824 6.85581,-6.337043 4.04771,-5.676203 -0.83298,0.196029 -1.45612,0.261929 -1.38474,0.146441 0.0714,-0.115488 0.009,-0.284763 -0.13913,-0.376166 -0.3165,-0.195609 -0.34193,-0.668795 -0.0598,-1.112599 0.23375,-0.367678 6.75676,-1.528482 7.3373,-1.305708 0.56067,0.215148 0.46635,1.446445 -0.35549,4.640714 -0.77199,3.000511 -1.26729,3.679661 -2.08627,2.860671 -0.43038,-0.43038 -0.43367,-0.56847 -0.0487,-2.046032 0.22705,-0.871476 0.33873,-1.584505 0.24819,-1.584505 -0.37337,0 -2.65495,2.562577 -2.46628,2.770017 0.11268,0.12388 0.0632,0.14401 -0.10998,0.0447 -0.18455,-0.10581 -1.0524,0.50625 -2.09699,1.47893 -0.98018,0.9127 -2.03811,1.89757 -2.35096,2.18861 -0.31285,0.29105 -1.51417,1.42214 -2.66961,2.51355 -8.49477,8.024 -10.88559,10.26558 -14.32158,13.4276 -1.10978,1.0213 -1.46158,1.06663 -1.90131,0.24498 z M 15.419764,64.418872 c -0.901144,-0.998169 -2.729796,-3.849642 -2.729796,-4.256653 0,-0.311348 0.515964,-0.704284 0.924793,-0.704284 0.04827,0 0.45525,0.499705 0.904401,1.110456 l 0.816639,1.110459 v -5.964242 c 0,-5.432105 0.04297,-6.003131 0.481653,-6.400131 0.444741,-0.402486 5.839881,-0.435853 70.40054,-0.435408 61.522476,5.29e-4 69.966126,0.04773 70.312286,0.393885 0.32597,0.325969 0.39099,1.425315 0.37933,6.413669 l -0.0141,6.02027 0.81558,-0.992187 c 0.8608,-1.047194 1.82178,-1.326028 1.82372,-0.529167 0.002,0.734825 -2.9195,4.866275 -3.37666,4.775444 -0.35239,-0.07002 -2.97308,-3.455996 -3.41854,-4.41683 -0.0985,-0.212341 0.0437,-0.526476 0.33494,-0.73995 0.46038,-0.337505 0.59152,-0.270811 1.45422,0.739542 l 0.9482,1.110502 0.0571,-5.596073 0.0571,-5.596072 c 0,0 -46.2226,0 -69.333907,0 -23.111321,0 -69.333962,0 -69.333962,0 l 0.01556,5.622396 c 0.01233,4.458602 0.0808,5.518671 0.330729,5.121288 0.783521,-1.24577 1.436468,-1.83107 1.860976,-1.668169 0.690285,0.264888 0.528524,0.849712 -0.778849,2.81582 -0.669581,1.006954 -1.139647,1.956663 -1.044593,2.110465 0.102603,0.166013 0.01685,0.219787 -0.211027,0.132339 -0.211119,-0.08101 -0.462454,-0.02011 -0.558524,0.135324 -0.260118,0.420878 -0.521576,0.347737 -1.117809,-0.312693 z"
       id="path1100"
       sodipodi:nodetypes="ccsssssssccssccccsssssssssssssccccccssscccccccccccccccccccccccccccccccccccccccccccccssscsscsscccccccsscsssssssssssssssssccssssscccccssssscsssssssscssssssssssccccssssscssssssssssssccsssscsscsscscscsscccscssssssss" />
    <text
       xml:space="preserve"
       style="font-size:7.03623px;line-height:1.25;font-family:'MesloLGM NF';-inkscape-font-specification:'MesloLGM NF';fill:#000000;fill-opacity:1;stroke-width:0.293176"
       x="-9.1412315"
       y="129.93997"
       id="text3465"><tspan
         sodipodi:role="line"
         id="tspan3463"
         style="font-style:normal;font-variant:normal;font-weight:normal;font-stretch:normal;font-size:7.03623px;font-family:'RobotoMono Nerd Font';-inkscape-font-specification:'RobotoMono Nerd Font';text-align:center;text-anchor:middle;fill:#000000;fill-opacity:1;stroke-width:0.293176"
         x="-9.1412325"
         y="129.93997">Transaction</tspan><tspan
         sodipodi:role="line"
         style="font-style:normal;font-variant:normal;font-weight:normal;font-stretch:normal;font-size:7.03623px;font-family:'RobotoMono Nerd Font';-inkscape-font-specification:'RobotoMono Nerd Font';text-align:center;text-anchor:middle;fill:#000000;fill-opacity:1;stroke-width:0.293176"
         x="-9.1412315"
         y="138.80397"
         id="tspan3467">Date</tspan></text>
    <text
       xml:space="preserve"
       style="font-size:7.03623px;line-height:1.25;font-family:'MesloLGM NF';-inkscape-font-specification:'MesloLGM NF';fill:#000000;fill-opacity:1;stroke-width:0.293176"
       x="91.527306"
       y="129.93997"
       id="text10323"><tspan
         sodipodi:role="line"
         style="font-style:normal;font-variant:normal;font-weight:normal;font-stretch:normal;font-size:7.03623px;font-family:'RobotoMono Nerd Font';-inkscape-font-specification:'RobotoMono Nerd Font';text-align:center;text-anchor:middle;fill:#000000;fill-opacity:1;stroke-width:0.293176"
         x="91.527306"
         y="129.93997"
         id="tspan10321">Settlement</tspan><tspan
         sodipodi:role="line"
         style="font-style:normal;font-variant:normal;font-weight:normal;font-stretch:normal;font-size:7.03623px;font-family:'RobotoMono Nerd Font';-inkscape-font-specification:'RobotoMono Nerd Font';text-align:center;text-anchor:middle;fill:#000000;fill-opacity:1;stroke-width:0.293176"
         x="91.527306"
         y="138.80397"
         id="tspan11981">Date</tspan></text>
    <text
       xml:space="preserve"
       style="font-size:7.03623px;line-height:1.25;font-family:'MesloLGM NF';-inkscape-font-specification:'MesloLGM NF';fill:#000000;fill-opacity:1;stroke-width:0.293176"
       x="187.37563"
       y="129.93997"
       id="text14245"><tspan
         sodipodi:role="line"
         style="font-style:normal;font-variant:normal;font-weight:normal;font-stretch:normal;font-size:7.03623px;font-family:'RobotoMono Nerd Font';-inkscape-font-specification:'RobotoMono Nerd Font';text-align:center;text-anchor:middle;fill:#000000;fill-opacity:1;stroke-width:0.293176"
         x="187.37563"
         y="129.93997"
         id="tspan14243">Business</tspan><tspan
         sodipodi:role="line"
         style="font-style:normal;font-variant:normal;font-weight:normal;font-stretch:normal;font-size:7.03623px;font-family:'RobotoMono Nerd Font';-inkscape-font-specification:'RobotoMono Nerd Font';text-align:center;text-anchor:middle;fill:#000000;fill-opacity:1;stroke-width:0.293176"
         x="187.37563"
         y="138.80397"
         id="tspan14379">Days</tspan></text>
    <text
       xml:space="preserve"
       style="font-size:7.03623px;line-height:1.25;font-family:'MesloLGM NF';-inkscape-font-specification:'MesloLGM NF';fill:#000000;fill-opacity:1;stroke-width:0.293176"
       x="90.044167"
       y="41.1366"
       id="text16367"><tspan
         sodipodi:role="line"
         style="font-style:normal;font-variant:normal;font-weight:normal;font-stretch:normal;font-size:7.03623px;font-family:'RobotoMono Nerd Font';-inkscape-font-specification:'RobotoMono Nerd Font';text-align:center;text-anchor:middle;fill:#000000;fill-opacity:1;stroke-width:0.293176"
         x="90.044167"
         y="41.1366"
         id="tspan16365">Settlement Period</tspan></text>
    <text
       xml:space="preserve"
       style="font-size:23.4476px;line-height:1.25;font-family:'MesloLGM NF';-inkscape-font-specification:'MesloLGM NF';fill:#000000;fill-opacity:1;stroke-width:0.586186"
       x="57.356892"
       y="-55.263775"
       id="text19764"
       transform="matrix(0,0.6970438,-1.4346301,0,0,0)"><tspan
         sodipodi:role="line"
         id="tspan19762"
         style="font-style:normal;font-variant:normal;font-weight:300;font-stretch:normal;font-family:'RobotoMono Nerd Font Mono';-inkscape-font-specification:'RobotoMono Nerd Font Mono Light';fill:#000000;fill-opacity:1;stroke-width:0.586186"
         x="57.356892"
         y="-55.263775">{</tspan></text>
    <text
       xml:space="preserve"
       style="font-size:14.1111px;line-height:1.25;font-family:'MesloLGM NF';-inkscape-font-specification:'MesloLGM NF';fill:#000000;fill-opacity:1;stroke-width:0.401489"
       x="-14.412557"
       y="93.588623"
       id="text8624"><tspan
         sodipodi:role="line"
         id="tspan8622"
         style="font-style:normal;font-variant:normal;font-weight:bold;font-stretch:normal;font-size:14.1111px;font-family:'RobotoMono Nerd Font Mono';-inkscape-font-specification:'RobotoMono Nerd Font Mono Bold';fill:#000000;fill-opacity:1;stroke-width:0.401489"
         x="-14.412557"
         y="93.588623">T</tspan></text>
    <text
       xml:space="preserve"
       style="font-size:14.1111px;line-height:1.25;font-family:'MesloLGM NF';-inkscape-font-specification:'MesloLGM NF';fill:#000000;fill-opacity:1;stroke-width:0.401489"
       x="42.958698"
       y="93.588623"
       id="text15662"><tspan
         sodipodi:role="line"
         id="tspan15660"
         style="font-style:normal;font-variant:normal;font-weight:bold;font-stretch:normal;font-size:14.1111px;font-family:'RobotoMono Nerd Font Mono';-inkscape-font-specification:'RobotoMono Nerd Font Mono Bold';text-align:center;text-anchor:middle;fill:#000000;fill-opacity:1;stroke-width:0.401489"
         x="42.958698"
         y="93.588623">T1</tspan></text>
    <text
       xml:space="preserve"
       style="font-size:14.1111px;line-height:1.25;font-family:'MesloLGM NF';-inkscape-font-specification:'MesloLGM NF';fill:#000000;fill-opacity:1;stroke-width:0.401489"
       x="90.419373"
       y="93.588623"
       id="text18384"><tspan
         sodipodi:role="line"
         id="tspan18382"
         style="font-style:normal;font-variant:normal;font-weight:bold;font-stretch:normal;font-size:14.1111px;font-family:'RobotoMono Nerd Font Mono';-inkscape-font-specification:'RobotoMono Nerd Font Mono Bold';text-align:center;text-anchor:middle;fill:#000000;fill-opacity:1;stroke-width:0.401489"
         x="90.419373"
         y="93.588623">T2</tspan></text>
    <text
       xml:space="preserve"
       style="font-size:14.1111px;line-height:1.25;font-family:'MesloLGM NF';-inkscape-font-specification:'MesloLGM NF';fill:#000000;fill-opacity:1;stroke-width:0.401489"
       x="140.47556"
       y="93.588623"
       id="text19894"><tspan
         sodipodi:role="line"
         id="tspan19892"
         style="font-style:normal;font-variant:normal;font-weight:bold;font-stretch:normal;font-size:14.1111px;font-family:'RobotoMono Nerd Font Mono';-inkscape-font-specification:'RobotoMono Nerd Font Mono Bold';text-align:center;text-anchor:middle;fill:#000000;fill-opacity:1;stroke-width:0.401489"
         x="140.47556"
         y="93.588623">T3</tspan></text>
  </g>
</svg>
