<?xml version="1.0" encoding="UTF-8" standalone="no"?>
<!-- Created with Inkscape (http://www.inkscape.org/) -->

<svg
   width="27.630041mm"
   height="14.99129mm"
   viewBox="0 0 27.630041 14.99129"
   version="1.1"
   id="svg1901"
   inkscape:version="1.1.2 (0a00cf5339, 2022-02-04, custom)"
   sodipodi:docname="sharedsecret.svg"
   xmlns:inkscape="http://www.inkscape.org/namespaces/inkscape"
   xmlns:sodipodi="http://sodipodi.sourceforge.net/DTD/sodipodi-0.dtd"
   xmlns="http://www.w3.org/2000/svg"
   xmlns:svg="http://www.w3.org/2000/svg">
  <sodipodi:namedview
     id="namedview1903"
     pagecolor="#505050"
     bordercolor="#eeeeee"
     borderopacity="1"
     inkscape:pageshadow="0"
     inkscape:pageopacity="0"
     inkscape:pagecheckerboard="false"
     inkscape:document-units="mm"
     showgrid="false"
     inkscape:zoom="0.73406285"
     inkscape:cx="52.447825"
     inkscape:cy="27.926764"
     inkscape:window-width="1920"
     inkscape:window-height="991"
     inkscape:window-x="-9"
     inkscape:window-y="-9"
     inkscape:window-maximized="1"
     inkscape:current-layer="layer1" />
  <defs
     id="defs1898" />
  <g
     inkscape:label="Layer 1"
     inkscape:groupmode="layer"
     id="layer1"
     transform="translate(-91.25233,-141.18458)">
    <g
       transform="matrix(0.10302905,0,0,0.10302905,92.316877,142.8842)"
       id="g516"
       style="stroke:#000000;stroke-width:0.99897;stroke-miterlimit:4;stroke-dasharray:none;stroke-opacity:1;paint-order:stroke fill markers">
      <path
         fill-mode="evenodd"
         fill="red"
         d="m 2.193,-8.185 0.817,0.55 0.079,0.032 0.079,0.073 0.04,0.057 0.032,0.013 0.032,0.076 0.583,0.819 0.253,1.201 -0.137,0.651 -0.027,0.284 -0.049,0.263 -0.152,0.257 -0.011,0.041 0.059,-0.059 -0.036,0.076 -0.037,0.037 -0.016,0.057 -0.026,0.028 -0.107,0.349 -0.013,0.02 -0.01,0.067 -0.022,0.816 -0.003,0.016 -0.008,0.185 -0.105,1.213 v 1.756 l 0.137,2.543 0.003,0.106 0.002,0.006 0.068,2.805 0.332,3.384 0.758,4.2 0.014,0.15 0.014,0.026 0.63,4.692 0.97,4.912 1.333,5.542 0.014,0.117 0.019,0.03 1.125,5.554 1.537,5.726 v 0.001 l 1.609,5.382 1.819,5.246 1.965,5.12 0.003,0.016 0.004,0.005 1.753,4.556 2.009,4.362 1.874,3.747 1.954,3.557 0.018,0.071 0.044,0.048 1.484,2.927 1.491,2.499 0.032,0.116 0.08,0.087 1.171,2.283 1.027,1.728 0.045,0.161 0.103,0.119 0.715,1.544 0.139,0.622 0.092,0.173 0.088,0.703 0.247,0.776 0.09,0.566 -0.047,0.113 0.001,0.002 0.072,0.386 -0.312,0.752 -0.133,0.055 -0.051,0.092 -0.236,0.15 -0.316,0.092 -0.217,0.112 -0.281,0.046 0.055,-0.029 -0.003,0.001 -0.114,-0.047 -0.243,0.1 -0.858,-0.214 -0.925,-0.493 -0.136,-0.128 -0.137,-0.046 -0.74,-0.55 -0.164,-0.194 -0.116,-0.048 -1.218,-1.212 -0.014,-0.035 -0.061,-0.043 -1.454,-1.558 -0.066,-0.165 -0.239,-0.215 -1.488,-2.185 -0.002,-0.004 -0.003,-0.003 -1.716,-2.511 -0.052,-0.167 -0.14,-0.147 -1.604,-2.964 -0.001,-0.003 -1.992,-3.627 -0.021,-0.081 -0.05,-0.055 -1.922,-3.842 -0.018,-0.075 -0.04,-0.046 L 11.153,63.63 11.121,63.483 11.057,63.403 9.277,58.778 9.274,58.758 9.268,58.751 7.274,53.553 7.257,53.464 7.227,53.423 5.374,48.083 5.354,47.963 5.321,47.915 3.682,42.433 3.669,42.344 3.649,42.314 2.081,36.473 2.056,36.289 2.026,36.238 0.89,30.633 -0.445,25.084 -0.461,24.953 -0.481,24.92 -1.479,19.864 -1.498,19.667 -1.517,19.632 -2.152,14.909 -2.92,10.652 -2.941,10.425 -2.962,10.353 -3.318,6.72 -3.331,6.469 -3.335,6.45 -3.406,3.569 -3.545,0.984 -3.551,0.787 v -2.003 l 0.027,-0.428 0.169,-1.373 v 0 l 0.113,-0.969 0.052,-0.101 0.075,-0.497 0.201,-0.651 0.067,-0.093 0.038,-0.189 0.207,-0.498 10e-4,-0.001 0.127,-0.31 0.209,-0.255 0.092,-0.301 0.408,-0.333 0.021,-0.056 0.084,-0.047 0.354,-0.432 0.315,-0.096 0.26,-0.212 0.152,-0.064 0.566,-0.114 0.169,-0.095 0.353,-0.055 0.492,-0.04 z"
         id="path458"
         style="stroke:#000000;stroke-width:0.99897;stroke-miterlimit:4;stroke-dasharray:none;stroke-opacity:1;paint-order:stroke fill markers" />
      <g
         transform="translate(-4,14)"
         id="g462"
         style="stroke:#000000;stroke-width:0.99897;stroke-miterlimit:4;stroke-dasharray:none;stroke-opacity:1;paint-order:stroke fill markers">
        <path
           fill-mode="evenodd"
           fill="red"
           d="m 3.636,-29.744 0.799,0.539 0.093,0.036 0.019,0.04 0.072,0.049 0.663,0.983 0.049,0.239 0.013,0.015 0.215,0.408 0.036,0.146 0.077,0.093 0.083,0.192 0.267,0.468 0.059,0.222 0.124,0.153 0.274,0.662 0.207,0.446 0.329,0.464 0.026,0.081 0.077,0.073 0.712,1.129 0.034,0.118 0.089,0.094 0.474,0.889 0.756,0.86 0.069,0.181 0.231,0.219 0.789,1.243 1.054,1.379 0.009,0.025 0.028,0.025 0.963,1.303 1.064,1.314 1.169,1.169 0.103,0.152 0.12,0.096 1.083,1.336 1.133,1.07 0.083,0.118 0.11,0.081 1.083,1.217 1.148,1.148 0.926,0.924 1.069,0.933 0.06,0.081 0.092,0.061 0.953,0.952 0.811,0.741 0.039,0.054 0.059,0.039 0.859,0.858 0.05,0.074 0.068,0.05 0.588,0.653 0.441,0.441 0.173,0.256 0.169,0.147 0.289,0.404 0.09,0.108 0.208,0.173 0.061,0.078 0.098,0.064 0.161,0.153 0.018,0.015 0.092,0.069 0.191,0.231 0.196,0.132 0.375,0.556 0.167,0.202 0.017,0.071 0.158,0.234 0.064,0.32 0.006,0.019 0.006,0.038 0.187,0.925 -0.239,1.241 -0.024,0.06 v 0 10e-4 L 27.822,2.285 27.67,2.473 27.599,2.732 27.49,2.916 26.934,3.464 26.336,4.082 25.809,4.406 25.421,4.684 25.03,4.81 24.68,5.09 24.093,5.326 23.247,5.749 23.05,5.796 22.933,5.889 21.752,6.349 20.536,6.926 20.268,6.987 20.126,7.092 18.648,7.585 h -0.001 l -1.484,0.541 -0.025,0.004 -0.01,0.007 -1.6,0.577 -1.507,0.754 -0.252,0.061 -0.145,0.11 -1.764,0.636 -0.046,0.008 -0.019,0.014 -1.835,0.636 -0.162,0.028 -0.062,0.042 -1.504,0.422 -1.208,0.576 -0.057,0.013 -0.032,0.028 -1.409,0.635 -0.45,0.098 -0.193,0.122 -1.393,0.333 -0.757,0.237 -0.585,0.293 -0.004,10e-4 -0.005,0.003 -1.252,0.358 -0.212,0.019 -0.098,0.044 -0.326,0.07 -0.153,0.105 -0.109,0.031 -0.065,0.044 -0.293,0.059 -0.01,0.003 -0.013,0.002 -1.038,0.21 h -0.43 l -1.354,-0.274 -1.106,-0.746 -0.746,-1.105 -0.032,-0.16 -0.016,-0.014 -0.152,-0.187 -0.532,-1.494 0.053,-0.13 0.202,-0.487 0.224,-0.73 0.169,-0.251 0.162,-0.403 0.001,-0.002 0.179,-0.437 0.144,-0.677 0.088,-0.142 0.074,-0.305 0.365,-0.709 0.293,-0.64 0.036,-0.042 0.015,-0.057 0.153,-0.277 0.319,-1.377 0.016,-0.025 0.009,-0.07 0.303,-1.099 0.209,-1.179 0.047,-1.168 0.003,-0.006 0.004,-0.097 0.129,-1.657 0.002,-0.004 0.002,-0.036 0.132,-1.373 v 0 l 0.124,-1.396 0.058,-1.649 -0.006,-1.298 V -7 -7 l -0.005,-1.645 v -0.009 l 0.012,-0.26 0.14,-1.585 0.002,-0.004 0.001,-0.027 0.125,-1.208 -0.002,-1.49 v -0.004 l 0.015,-0.303 0.125,-1.208 -0.001,-1.49 v 0 0 l -10e-4,-1.288 v -0.002 l 0.004,-0.152 0.07,-1.367 0.005,-0.011 0.01,-0.161 0.138,-1.23 0.001,-0.001 0.136,-1.159 0.019,-0.035 0.02,-0.198 0.208,-1.023 0.025,-0.04 0.018,-0.131 0.163,-0.599 -0.005,-0.432 -10e-4,-0.041 0.061,-0.599 0.109,-0.539 0.022,-0.177 -0.005,-0.394 -0.007,-0.17 v -0.027 l -0.001,-0.001 -0.009,-0.28 v -0.019 l -0.013,-0.155 0.24,-1.189 0.023,-0.034 0.007,-0.033 0.14,-0.311 0.167,-0.194 0.251,-0.372 0.069,-0.181 0.136,-0.155 0.044,-0.033 0.077,-0.114 0.073,-0.049 0.019,-0.04 0.092,-0.036 0.639,-0.43 0.077,-0.058 0.012,-0.002 0.072,-0.049 1.204,-0.243 z m 0.388,12.302 -0.001,1.209 v 0 l -0.002,1.645 v 0 l -0.016,0.311 -0.129,1.206 -0.002,1.488 -10e-4,10e-4 -0.016,0.309 L 3.712,-9.919 3.581,-8.511 3.576,-7 v 0 0.005 L 3.57,-5.635 H 3.569 l -0.002,0.114 -0.08,1.794 -0.004,0.01 -0.007,0.15 L 3.322,-2.054 3.32,-2.05 3.319,-2.03 3.166,-0.686 3.016,0.88 2.931,2.197 2.914,2.232 2.88,2.574 2.572,4.09 2.533,4.154 2.503,4.352 2.138,5.523 1.888,6.457 2.952,6.203 4.058,5.705 H 4.06 L 5.493,5.021 5.88,4.933 6.071,4.803 7.77,4.327 9.495,3.729 9.5,3.728 l 1.578,-0.569 1.508,-0.755 0.252,-0.06 0.145,-0.11 1.764,-0.636 0.011,-0.002 0.003,-0.002 1.549,-0.565 0.079,-0.014 0.034,-0.024 1.308,-0.437 1.143,-0.542 0.159,-0.037 0.09,-0.071 0.464,-0.18 -0.632,-0.633 -0.808,-0.743 -0.04,-0.055 -0.059,-0.04 -0.925,-0.927 -1.066,-0.935 -0.06,-0.081 -0.091,-0.061 -1,-1.002 -1.214,-1.215 -0.056,-0.082 -0.073,-0.055 -1.052,-1.183 -1.187,-1.122 -0.132,-0.187 -0.155,-0.124 -1.111,-1.372 -1.168,-1.168 -0.103,-0.153 -0.122,-0.097 -1.211,-1.496 -0.021,-0.06 -0.073,-0.063 -0.992,-1.349 -1.115,-1.466 -0.04,-0.12 -0.125,-0.119 -0.726,-1.153 -0.199,-0.229 z"
           id="path460"
           style="stroke:#000000;stroke-width:0.99897;stroke-miterlimit:4;stroke-dasharray:none;stroke-opacity:1;paint-order:stroke fill markers" />
      </g>
      <g
         transform="translate(58.25,46.75)"
         id="g466"
         style="stroke:#000000;stroke-width:0.99897;stroke-miterlimit:4;stroke-dasharray:none;stroke-opacity:1;paint-order:stroke fill markers">
        <path
           fill-mode="evenodd"
           fill="red"
           d="m -2.334,-5.172 0.509,0.047 0.026,0.013 0.188,0.016 0.367,0.06 0.728,0.414 0.79,0.286 0.244,0.204 0.084,0.107 0.067,0.027 0.138,0.132 0.383,0.285 0.226,0.255 0.043,0.114 0.022,0.02 0.044,0.154 0.583,1.536 L 1.382,0.36 1.325,0.388 1.302,0.443 0.73,0.68 0.508,0.789 0.312,0.968 0.101,1.075 -0.23,1.154 -0.276,1.185 -0.312,1.192 -0.407,1.239 -0.646,1.26 -0.711,1.273 -0.931,1.387 -1.119,1.41 -1.502,1.433 -1.635,1.417 l -0.525,0.1 -0.481,0.126 -0.013,10e-4 -0.022,0.011 -0.713,0.186 -0.048,0.041 -0.118,0.053 -0.17,0.1 -0.088,0.017 -0.216,0.098 -0.618,0.309 -0.084,0.02 -0.052,0.045 -0.61,0.278 -0.526,0.316 -0.089,0.025 -0.067,0.063 -0.754,0.407 -0.534,0.374 -0.133,0.043 -0.12,0.12 -0.71,0.414 -0.354,0.258 -0.478,0.525 -0.004,0.003 -0.003,0.005 -0.58,0.633 -0.241,0.379 -0.429,0.859 -0.086,0.094 -0.033,0.12 -0.323,0.538 -0.103,0.553 -0.023,0.039 -0.018,0.141 -0.182,0.731 v 2.121 l 0.126,0.406 0.006,0.042 0.144,0.118 0.109,0.045 0.135,0.112 0.194,0.05 0.054,0.03 0.493,0.062 0.044,0.023 0.236,0.025 0.847,0.181 0.847,0.1 h 1.296 v 0 h 1.431 l 0.315,0.014 1.418,0.129 h 1.628 l 0.289,0.012 1.73,0.144 0.02,0.005 0.077,0.005 1.796,0.206 1.865,0.138 0.142,0.039 0.405,0.048 1.865,0.45 1.724,0.191 0.079,0.041 0.426,0.056 1.869,0.503 1.67,0.416 0.04,0.026 0.105,0.016 1.67,0.507 0.103,0.073 0.209,0.043 1.346,0.565 1.6,0.625 0.049,0.04 0.089,0.019 1.145,0.833 0.492,0.542 0.889,0.666 0.595,0.71 0.314,0.314 0.492,0.842 0.143,0.523 0.213,0.315 0.352,1.263 0.132,0.956 v 1.073 l -0.114,0.885 -0.363,1.384 -0.037,0.054 -0.022,0.136 -0.508,1.526 -0.162,0.221 -0.09,0.344 -0.724,1.305 -0.101,0.104 -0.036,0.119 -1.153,1.729 -0.229,0.208 -0.258,0.369 -1.379,1.314 -1.252,1.449 -0.13,0.098 -0.1,0.143 -1.501,1.429 -0.101,0.066 -0.062,0.08 -1.783,1.498 -0.105,0.038 -0.115,0.133 -1.492,1.066 -0.248,0.08 -0.229,0.208 -1.581,0.791 -1.347,0.835 -0.439,0.126 -0.307,0.225 -1.478,0.493 -0.462,0.077 -0.12,0.066 -1.339,0.212 -0.562,0.046 v 0 L 1.505,43.902 0.338,43.684 0.199,43.602 -0.22,43.526 -1.389,43.088 -1.916,42.676 -2.37,42.511 -3.234,41.792 -3.519,41.425 -3.814,41.171 -4.556,40.152 -4.919,39.043 -5.201,38.494 -5.325,37.355 -5.346,36.978 v -0.017 l 0.007,-1.359 0.006,-0.029 0.099,-0.769 0.35,-1.326 0.032,-0.049 0.019,-0.12 0.481,-1.433 0.028,-0.038 0.015,-0.075 0.606,-1.537 0.346,-0.431 0.116,-0.296 1.081,-1.165 0.907,-1.188 0.146,-0.072 0.074,-0.161 1.031,-0.891 1.034,-1.167 0.086,-0.039 0.038,-0.077 1.122,-0.869 1.088,-1.006 0.353,-0.139 0.52,0.52 -0.095,0.299 -0.867,1.232 -0.74,1.106 L 2,27.327 1.998,27.329 1.996,27.336 1.534,28.525 1.31,29.933 l -0.028,0.05 -0.029,0.194 -0.371,1.247 0.039,1.239 0.059,1.47 0.051,1.065 0.219,1.001 0.079,0.292 0.13,0.153 0.171,0.143 0.313,0.117 0.254,0.048 0.482,-0.077 0.844,-0.282 1.14,-0.706 0.163,-0.046 0.127,-0.116 1.475,-0.738 1.168,-0.835 1.599,-1.343 1.3,-1.238 1.252,-1.449 0.129,-0.098 0.101,-0.143 1.221,-1.163 0.853,-1.28 0.489,-0.881 0.365,-1.098 0.212,-0.806 v -0.146 l -0.084,-0.3 -0.536,-0.402 -0.191,-0.228 -0.287,-0.209 -0.167,-0.183 -0.91,-0.356 L 12.92,22.812 12.883,22.804 11.684,22.3 10.286,21.875 8.645,21.466 8.634,21.459 8.608,21.455 7.001,21.023 5.322,20.837 5.259,20.804 4.905,20.762 3.104,20.328 1.448,20.206 1.423,20.199 1.318,20.193 -0.496,19.984 -2.006,19.858 h -1.642 l -0.315,-0.014 -1.418,-0.129 h -2.773 l -0.406,-0.024 -1.233,-0.144 -0.046,-0.025 -0.26,-0.027 -0.859,-0.184 -1.006,-0.125 -0.323,-0.171 -0.918,-0.238 -0.475,-0.264 -0.698,-0.29 -0.072,-0.059 -0.116,-0.028 -1.198,-0.98 -0.233,-0.3 -0.308,-0.24 -0.003,-0.003 -0.002,-0.001 -0.007,-0.01 -0.961,-1.178 -0.112,-0.478 -0.147,-0.227 -0.196,-0.778 -0.248,-0.806 -0.161,-1.048 V 9.012 l 0.104,-0.844 0.263,-1.054 0.197,-1.054 0.227,-0.383 0.206,-0.744 0.577,-0.962 0.448,-0.898 0.121,-0.132 0.046,-0.16 0.509,-0.8 0.165,-0.155 0.198,-0.315 0.784,-0.856 0.71,-0.781 0.323,-0.234 0.203,-0.237 0.777,-0.565 0.156,-0.051 0.147,-0.147 0.738,-0.431 0.582,-0.408 0.188,-0.06 0.169,-0.161 0.868,-0.468 0.621,-0.373 0.21,-0.059 0.156,-0.134 0.744,-0.339 0.622,-0.311 0.11,-0.027 0.067,-0.056 0.623,-0.275 0.382,-0.081 0.559,-0.163 0.124,-0.056 0.886,-0.193 0.2,-0.101 0.417,-0.042 0.353,-0.018 0.223,0.007 0.078,0.006 0.415,-0.084 z"
           id="path464"
           style="stroke:#000000;stroke-width:0.99897;stroke-miterlimit:4;stroke-dasharray:none;stroke-opacity:1;paint-order:stroke fill markers" />
      </g>
      <g
         transform="translate(72.25,37.25)"
         id="g470"
         style="stroke:#000000;stroke-width:0.99897;stroke-miterlimit:4;stroke-dasharray:none;stroke-opacity:1;paint-order:stroke fill markers">
        <path
           fill-mode="evenodd"
           fill="red"
           d="m 1.035,-5.78 0.249,0.043 0.18,0.105 0.49,0.107 0.927,0.697 0.2,0.23 0.012,0.031 0.043,0.034 0.258,0.313 0.103,0.287 0.285,0.323 0.277,0.583 0.457,0.782 0.188,0.685 0.185,0.321 0.217,1.225 0.398,1.465 0.553,1.763 10e-4,0.005 0.638,1.967 0.026,0.164 0.037,0.057 0.616,2.455 0.807,2.353 0.028,0.161 0.04,0.061 0.781,2.911 0.011,0.081 0.015,0.024 0.706,2.962 0.173,0.621 0.099,-0.315 0.033,-0.045 0.017,-0.094 0.551,-1.456 0.478,-1.447 0.183,-0.249 0.099,-0.356 0.79,-1.304 0.004,-0.004 0.001,-0.003 0.715,-1.162 0.014,-0.012 0.004,-0.015 0.786,-1.233 0.226,-0.211 0.28,-0.389 0.706,-0.649 0.084,-0.033 0.102,-0.126 0.916,-0.72 0.014,-0.005 0.013,-0.016 0.56,-0.431 1.037,-0.356 0.564,-0.284 0.772,-0.078 0.327,-0.017 0.318,0.016 0.658,0.067 0.185,0.094 0.779,0.168 1.016,0.745 0.012,0.007 0.002,0.004 0.006,0.004 0.327,0.364 0.635,0.437 0.982,1.103 0.032,0.13 0.071,0.083 0.461,1.049 0.653,1.234 0.059,0.235 0.112,0.145 0.638,1.695 0.024,0.132 0.041,0.057 0.687,2.199 0.809,2.088 0.018,0.093 0.031,0.042 0.78,2.267 0.022,0.13 0.035,0.05 0.675,2.363 0.864,2.191 0.051,0.265 0.072,0.109 0.662,2.519 0.912,2.213 0.062,0.311 0.084,0.129 0.626,2.449 0.601,1.974 0.013,0.085 0.02,0.029 0.539,1.989 0.025,0.18 0.029,0.049 0.368,1.851 0.037,0.37 0.017,0.037 0.101,1.486 0.122,1.4 0.01,0.216 10e-4,0.004 0.011,0.933 0.034,0.512 0.005,0.16 -0.333,1.196 -0.175,0.292 -0.237,0.23 -0.062,0.149 -0.159,0.066 L 33.41,46.682 32.4,46.95 31.093,46.475 30.837,46.26 30.832,46.25 30.82,46.246 30.369,45.859 29.719,45.002 29.71,44.962 29.691,44.939 29.298,44.037 29.257,43.846 29.19,43.752 28.757,42.391 28.724,42.18 28.682,42.112 28.367,40.683 27.909,38.945 27.336,37.043 27.335,37.038 26.694,35.016 26.673,34.88 26.641,34.833 26.046,32.536 25.136,30.329 25.077,30.036 24.995,29.912 24.324,27.369 23.472,25.207 23.43,24.99 23.366,24.897 22.669,22.461 21.926,20.302 21.104,18.18 21.075,18.029 21.028,17.962 20.334,15.745 19.792,14.301 19.181,13.136 19.147,13 l -0.073,-0.087 -0.068,-0.155 -0.025,0.019 -0.319,0.281 -0.563,0.857 -0.703,1.111 -0.583,0.947 -0.399,1.188 -0.025,0.033 -0.012,0.065 -0.547,1.432 -0.452,1.415 -0.395,1.508 -0.303,1.388 -0.12,1.307 -0.068,1.647 -0.001,1.654 -10e-4,1.645 -10e-4,1.644 v 1.575 l 0.065,1.443 0.002,0.02 0.427,1.704 v 0.004 l 0.486,1.802 0.008,0.058 0.012,0.018 0.424,1.695 0.032,0.256 0.03,0.055 0.196,1.309 0.252,1.07 v 0.005 l 0.203,0.814 0.095,0.759 v 0.011 0.213 l 0.019,0.07 0.12,0.851 -0.24,1.189 -0.005,0.007 -10e-4,0.008 -0.218,0.317 -0.431,0.64 -0.014,0.009 -0.009,0.014 -0.144,0.141 -0.027,0.011 -0.921,0.621 -1.189,0.24 -1.189,-0.24 -0.269,-0.182 -0.167,-0.048 -0.147,-0.164 -0.388,-0.261 -0.451,-0.669 -0.127,-0.141 -0.089,-0.18 -0.142,-0.237 -0.18,-0.648 -0.2,-0.334 L 10.221,44.263 9.965,43.598 9.92,43.363 9.858,43.268 9.577,42.217 9.551,42.021 9.521,41.971 9.311,40.845 9.31,40.837 v 0 L 9.027,39.354 9.014,39.22 9.001,39.196 8.789,37.71 8.779,37.57 8.77,37.552 8.628,36.063 8.626,36.029 8.625,36.026 8.551,35.176 8.498,34.966 7.758,32.746 7.702,32.408 7.645,32.31 7.159,29.67 6.489,26.921 5.671,24.331 5.662,24.275 5.648,24.255 4.724,21.13 4.717,21.08 4.706,21.064 3.852,18.01 3.838,17.907 3.818,17.875 3.107,14.892 2.36,12.115 1.545,9.74 1.511,9.539 1.464,9.466 0.843,6.978 0.242,5.098 0.235,5.05 0.223,5.033 -0.335,3.192 -0.353,3.07 -0.38,3.029 -0.788,1.401 -0.824,1.117 -0.855,1.06 -0.977,0.179 l -0.244,-0.493 -0.062,-0.259 -0.104,-0.143 -0.209,-0.633 -0.107,-0.258 -0.076,-0.374 -0.085,-0.14 -0.062,-0.284 -0.025,-0.231 -0.15,-0.511 0.162,-0.393 0.013,-0.118 0.01,-0.047 0.138,-0.223 0.46,-1.109 1.89,-0.783 z"
           id="path468"
           style="stroke:#000000;stroke-width:0.99897;stroke-miterlimit:4;stroke-dasharray:none;stroke-opacity:1;paint-order:stroke fill markers" />
      </g>
      <g
         transform="translate(116.125,58.375)"
         id="g474"
         style="stroke:#000000;stroke-width:0.99897;stroke-miterlimit:4;stroke-dasharray:none;stroke-opacity:1;paint-order:stroke fill markers">
        <path
           fill-mode="evenodd"
           fill="red"
           d="m -2.437,-8.401 0.504,0.011 v 0 l 0.002,0.001 0.647,0.015 0.006,0.003 0.185,0.008 0.154,0.013 0.363,0.017 0.488,0.02 0.04,0.018 0.019,10e-4 0.435,0.017 0.004,0.002 0.084,0.003 0.223,0.016 0.219,0.105 0.976,0.253 0.293,0.163 0.047,0.046 0.316,0.075 0.636,0.53 0.182,0.092 0.035,0.09 0.131,0.109 0.176,0.233 0.072,0.214 0.197,0.213 0.08,0.156 0.034,0.142 0.07,0.086 0.079,0.194 0.085,-0.058 1.162,-0.234 1.163,0.234 0.249,0.168 0.165,0.047 0.154,0.168 0.381,0.257 0.408,0.606 0.145,0.158 0.137,0.269 0.324,1.345 0.005,0.012 v 0.099 l 0.018,0.046 0.033,0.18 0.052,0.075 0.281,0.98 0.005,0.031 0.006,0.01 0.354,1.265 0.014,0.1 0.02,0.031 0.354,1.481 0.015,0.123 0.018,0.031 0.238,1.24 0.612,1.588 0.067,0.359 0.076,0.125 0.35,1.672 0.458,1.828 0.598,1.794 0.01,0.059 0.016,0.023 0.637,2.053 0.012,0.079 0.019,0.028 0.44,1.585 0.6,1.361 0.055,0.258 0.084,0.122 0.43,1.463 0.501,1.441 0.072,0.419 0.058,0.106 0.188,1.261 0.187,0.967 0.047,0.472 -0.06,0.533 -0.19,0.836 -0.044,0.358 -0.064,0.12 -0.093,0.414 -0.172,0.361 -0.158,0.1 -0.123,0.292 -0.142,0.141 -0.784,0.322 -0.419,-0.082 -0.195,-0.078 -0.1,-0.081 L 12.894,25.371 12.685,25.237 12.377,25.104 12.214,24.966 12.029,24.908 11.8,24.616 11.472,24.339 11.403,24.11 11.261,23.93 11.025,23.316 10.591,22.705 10.502,22.43 10.3,22.183 9.831,21.058 9.147,19.733 9.097,19.527 9.001,19.403 8.485,18.026 8.447,17.946 8.412,18.033 8.393,18.056 8.385,18.092 8.027,18.901 7.886,19.067 7.826,19.273 7.181,20.29 6.962,20.497 6.899,20.663 6.426,21.197 6.054,21.788 5.751,22.075 5.369,22.545 4.81,22.984 4.178,23.555 3.936,23.649 3.619,23.957 2.991,24.308 2.387,24.466 2.099,24.639 1.403,24.779 0.798,24.841 0.792,24.842 0.006,24.844 H 0.005 v 0 L -0.71,24.845 H -0.715 L -1.895,24.607 -2.209,24.395 -2.389,24.341 -2.951,23.969 -3.875,23.443 -4.06,23.261 -4.5,22.965 -5.146,22.323 -5.283,22.12 -5.429,21.998 -6.07,21.148 -6.095,21.074 -6.174,21.002 -7.028,19.726 -7.042,19.679 -7.084,19.64 -7.793,18.509 -7.871,18.239 -8.038,18.034 -8.675,16.481 -8.714,16.284 -8.778,16.194 -9.273,14.571 -9.307,14.349 -9.347,14.283 -9.702,12.586 -9.716,12.453 -9.731,12.426 -10.012,10.672 -10.355,8.89 -10.386,8.566 -10.403,8.53 -10.546,6.681 -10.555,6.437 V 4.291 l 0.011,-0.264 0.144,-1.657 0.021,-0.041 0.031,-0.303 0.361,-1.737 0.009,-0.015 0.006,-0.049 0.362,-1.523 0.132,-0.207 0.101,-0.427 0.546,-1.096 0.294,-0.886 0.204,-0.277 0.109,-0.375 0.507,-0.8 0.496,-0.466 0.433,-0.46 0.739,-0.471 0.649,-0.452 h 0.001 l 0.489,-0.346 0.294,-0.093 0.261,-0.219 0.628,-0.271 0.021,-0.005 0.021,-0.014 1.182,-0.238 z m 2.414,5.966 -0.031,10e-4 -0.04,0.018 -0.494,0.021 h -0.001 l -0.352,0.016 -0.141,0.013 -0.199,0.009 -0.006,0.003 -0.445,0.01 -0.119,0.086 -0.023,0.008 -0.02,0.023 -0.705,0.496 -0.067,0.021 -0.06,0.064 -0.177,0.113 -0.222,0.662 -0.103,0.139 -0.056,0.238 -0.487,0.973 -0.27,1.135 -0.308,1.48 -0.116,1.331 V 6.32 l 0.121,1.571 0.323,1.67 0.009,0.095 0.011,0.019 0.276,1.726 0.315,1.51 0.42,1.381 0.491,1.2 0.558,0.895 0.782,1.177 0.461,0.617 0.201,0.203 0.662,0.379 0.023,0.023 h 0.245 l 0.409,-0.366 0.08,-0.03 0.094,-0.114 0.233,-0.18 0.23,-0.358 0.235,-0.218 0.066,-0.169 0.483,-0.53 0.4,-0.615 0.259,-0.557 0.309,-0.73 0.301,-0.831 0.171,-0.594 0.053,-0.763 0.007,-0.014 0.009,-0.143 0.121,-0.961 V 10.832 L 3.771,9.803 3.75,9.443 v 0 L 3.749,8.274 3.582,7.333 3.561,7.108 3.547,7.079 3.404,5.589 3.389,5.295 v 0 L 3.388,4.412 3.235,3.55 2.979,2.532 2.94,2.216 2.909,2.158 2.767,1.028 V 1.016 L 2.766,1.015 2.696,0.458 2.671,0.076 V 0.075 L 2.67,-0.56 2.656,-0.632 2.638,-0.603 2.321,-0.427 2.162,-0.17 1.954,-0.067 1.772,0.102 1.532,0.197 1.247,0.343 0.989,0.372 0.87,0.42 0.684,0.568 0.286,0.708 0.095,0.679 -0.169,0.596 -0.551,0.072 l 0.338,-0.46 0.043,-0.107 0.053,-0.035 0.046,-0.133 0.215,-0.274 0.1,-0.048 0.048,-0.096 0.043,-0.033 0.023,-0.089 0.034,-0.025 0.037,-0.162 0.052,-0.104 v -0.06 L 0.416,-1.916 0.413,-1.923 0.411,-2.28 0.404,-2.282 0.319,-2.325 0.219,-2.36 0.118,-2.44 Z"
           id="path472"
           style="stroke:#000000;stroke-width:0.99897;stroke-miterlimit:4;stroke-dasharray:none;stroke-opacity:1;paint-order:stroke fill markers" />
      </g>
      <g
         transform="translate(145.125,72.5)"
         id="g478"
         style="stroke:#000000;stroke-width:0.99897;stroke-miterlimit:4;stroke-dasharray:none;stroke-opacity:1;paint-order:stroke fill markers">
        <path
           fill-mode="evenodd"
           fill="red"
           d="m -6.929,-30.685 0.16,0.217 0.184,0.076 0.162,0.392 0.516,0.697 0.212,0.623 0.153,0.913 0.003,0.006 10e-4,0.461 0.098,0.735 0.314,1.255 0.05,0.397 0.028,0.055 0.13,1.446 0.328,1.785 0.011,0.117 0.011,0.021 0.26,1.866 0.45,1.846 0.012,0.099 0.015,0.026 0.205,1.009 0.217,-0.596 0.149,-0.194 0.076,-0.274 0.912,-1.532 0.716,-1.535 0.15,-0.171 0.061,-0.199 1.065,-1.593 0.173,-0.157 0.049,-0.131 1.027,-1.175 0.764,-1.098 0.258,-0.228 0.065,-0.157 1.141,-1.148 0.252,-0.105 0.402,-0.391 1.103,-0.617 0.942,-0.578 0.394,-0.112 0.267,-0.191 0.863,-0.274 0.836,-0.131 0.015,-0.006 0.715,-0.007 h 0.026 l 1.335,0.352 0.365,0.353 0.214,0.088 0.082,0.197 0.311,0.3 0.239,0.389 0.126,0.441 0.174,0.269 0.069,0.271 0.069,0.548 -0.087,0.612 -0.203,0.701 -0.166,0.239 -0.093,0.295 -0.249,0.353 -0.253,0.482 -0.021,0.012 -0.013,0.046 -0.354,0.577 -0.174,0.43 -0.584,0.39 -0.586,-0.394 -0.197,-0.486 -0.03,-0.147 -0.019,-0.017 -0.102,-0.525 -0.769,0.518 -0.11,0.034 -0.095,0.093 -0.797,0.452 -0.69,0.686 -0.728,1.018 -0.161,0.139 -0.043,0.112 -1.03,1.139 -0.854,1.23 -0.712,1.455 -0.096,0.105 -0.038,0.132 -0.874,1.407 -0.541,1.402 -0.535,1.625 -0.471,1.819 -0.265,1.393 -0.161,1.272 0.637,1.67 0.692,1.38 0.02,0.086 0.045,0.053 0.683,1.569 0.009,0.041 0.018,0.022 0.615,1.494 0.019,0.09 0.033,0.044 L 3.068,0.145 3.707,1.213 3.803,1.56 3.96,1.784 4.258,2.771 4.673,3.673 4.697,3.78 4.742,3.839 5.055,4.657 5.197,4.94 5.436,5.271 5.514,5.512 5.7,5.734 5.912,6.217 5.938,6.34 5.985,6.403 6.13,6.812 6.173,7.06 6.401,7.467 6.414,7.544 6.427,7.604 6.487,8.154 5.943,9.728 5.794,9.825 5.739,9.959 5.325,10.13 4.557,10.629 4.441,10.659 3.791,10.741 2.918,10.474 2.531,10.387 2.284,10.272 2.267,10.257 2.244,10.252 1.857,10.059 1.622,9.845 1.403,9.769 0.881,9.356 0.75,9.194 0.56,9.056 0.179,8.636 -0.205,8.267 -0.725,7.824 -0.738,7.807 -0.749,7.803 -1.4,7.233 -2.089,6.312 -2.111,6.209 -2.156,6.153 -2.332,5.7 -2.631,5.369 -2.749,5.064 -3.1,4.656 -3.444,3.901 -3.908,2.974 -3.92,2.922 -3.948,2.89 -4.441,1.834 -4.473,1.693 -4.533,1.616 -4.954,0.49 -5.021,0.125 -5.089,0.009 -5.3,-1.118 V -1.119 L -5.573,-2.415 -5.614,-2.799 -5.631,-2.834 -5.705,-4.042 -5.71,-4.206 V -4.207 L -5.715,-5.229 -6.206,-6.2 -6.263,-6.433 -6.359,-6.565 -6.936,-8.308 v 0 l -0.537,-1.478 -0.029,-0.163 -0.043,-0.064 -0.528,-1.922 -0.251,-0.742 -0.021,-0.041 -0.023,-0.091 -0.061,-0.179 -0.087,-0.116 -0.366,-1.031 -0.615,-1.164 -0.118,-0.469 -0.14,-0.226 -0.27,-1.2 -0.328,-1.098 -0.04,-0.268 -0.04,-0.07 -0.181,-1.048 -0.349,-0.964 -0.066,-0.372 -0.063,-0.11 -0.222,-1.268 -0.011,-0.128 -0.011,-0.021 -0.137,-1.085 -0.191,-0.849 -0.068,-0.604 -0.003,-0.007 -0.008,-1.143 v -0.001 l -0.006,-0.856 v 0 l -0.005,-0.642 v -0.023 l 0.015,-0.292 0.069,-0.657 0.529,-1.035 0.255,-0.627 0.084,-0.037 0.044,-0.087 1.303,-0.501 0.514,-0.225 0.14,-0.003 h 0.003 v 0 l 0.14,-0.004 0.075,-10e-4 z"
           id="path476"
           style="stroke:#000000;stroke-width:0.99897;stroke-miterlimit:4;stroke-dasharray:none;stroke-opacity:1;paint-order:stroke fill markers" />
      </g>
      <g
         transform="translate(161.625,67.75)"
         id="g482"
         style="stroke:#000000;stroke-width:0.99897;stroke-miterlimit:4;stroke-dasharray:none;stroke-opacity:1;paint-order:stroke fill markers">
        <path
           fill-mode="evenodd"
           fill="red"
           d="m 2.341,-21.13 0.948,0.143 0.137,0.076 0.487,0.088 0.264,0.098 0.621,0.095 0.387,0.216 0.809,0.232 0.586,0.365 0.075,0.079 0.079,0.025 0.343,0.244 0.632,0.345 0.196,0.189 0.522,0.352 0.357,0.358 0.174,0.257 0.169,0.148 0.322,0.45 0.452,0.58 0.218,0.632 0.37,0.57 0.139,0.55 0.1,0.8 10e-4,0.003 v 0.354 l 0.088,0.484 0.055,0.594 v 0.002 0.573 l -10e-4,10e-4 -0.032,0.452 -0.11,0.777 -10e-4,0.7 v 10e-4 l -0.033,0.457 -0.146,1.019 -0.215,0.391 -0.243,0.843 -0.058,0.092 L 9.932,-7.024 9.756,-6.74 9.611,-6.177 9.49,-5.956 9.48,-5.867 9.333,-5.581 9.096,-4.666 8.653,-3.866 8.514,-3.725 8.466,-3.574 8.049,-2.99 7.751,-2.474 7.546,-2.269 7.48,-2.083 7.065,-1.568 6.772,-1.121 6.181,-0.578 5.793,-0.176 5.752,-0.152 5.697,0.002 5.576,0.159 5.514,0.405 4.719,1.276 4.579,1.457 4.542,1.469 4.509,1.505 4.372,1.596 4.346,1.649 4.301,1.699 4.283,1.768 3.297,2.799 3.251,2.85 3.248,2.851 3.247,2.852 2.916,3.059 2.877,3.107 l -0.05,0.04 0.69,1.84 0.899,1.376 1.209,1.383 1.45,1.262 1.332,1.102 1.267,0.634 1.067,0.418 1.196,0.096 1.205,0.004 1.123,-0.169 0.828,-0.371 1.047,-0.61 1.163,-0.927 0.026,-0.009 0.025,-0.03 0.995,-0.762 0.805,-0.828 0.951,-1.242 0.15,-0.124 0.038,-0.092 0.82,-0.839 0.512,-1.053 0.156,-0.174 0.056,-0.158 0.612,-0.761 0.535,-0.971 0.349,-0.844 0.193,-0.794 0.147,-0.813 0.502,-0.416 0.503,0.42 0.147,0.813 0.207,0.85 0.011,0.088 0.009,0.016 0.131,1.032 0.01,0.152 v 0 l -0.001,0.045 -0.05,1.302 -0.001,0.003 -0.003,0.061 -0.087,1.04 -0.022,1.445 -0.012,0.029 -0.158,0.775 -0.598,1.41 -0.63,1.558 -0.117,0.143 -0.054,0.197 -0.781,1.32 -0.236,0.232 -0.07,0.186 -0.968,1.099 -0.078,0.058 -0.058,0.086 -1.222,1.211 -0.28,0.187 -0.151,0.169 -1.317,0.898 -0.199,0.062 -0.175,0.159 -1.326,0.665 -0.658,0.157 -0.248,0.141 -1.766,0.301 -0.532,0.045 -0.008,0.002 -1.573,0.006 H 11.801 L 11.548,17.628 9.749,17.485 9.618,17.421 8.853,17.277 7.186,16.627 7.092,16.553 6.943,16.517 5.207,15.652 4.893,15.365 4.619,15.266 2.968,13.904 2.938,13.866 2.911,13.856 1.261,12.423 1.131,12.249 0.958,12.119 -0.542,10.407 -0.604,10.244 -0.816,10.048 -2.025,8.201 -2.133,7.843 -2.351,7.562 -3.203,5.295 -3.204,5.293 -4.179,2.855 -4.264,2.422 -4.354,2.272 -4.85,-0.211 -4.876,-0.467 -4.896,-0.506 -5.167,-2.945 -5.636,-5.289 -5.686,-5.782 -5.7,-5.845 -5.772,-8.344 -5.773,-8.44 v -2.145 l 0.002,-0.123 0.072,-1.866 0.013,-0.055 0.031,-0.361 0.287,-1.664 0.042,-0.073 0.038,-0.264 0.362,-1.238 0.124,-0.178 0.077,-0.326 0.507,-1.021 0.241,-0.263 0.086,-0.253 0.505,-0.651 0.268,-0.22 0.226,-0.287 0.78,-0.641 0.278,-0.1 0.313,-0.286 0.41,-0.209 0.629,-0.152 0.255,-0.149 0.767,-0.142 0.586,-0.055 0.009,-0.002 0.714,-0.002 H 1.86 Z m -0.895,6.435 -0.084,0.108 -0.232,0.463 -0.227,0.77 -0.219,1.251 -0.061,1.58 v 2.038 l 0.063,2.186 0.388,1.936 0.561,-0.61 0.209,-0.138 0.087,-0.086 0.045,-0.134 0.342,-0.458 0.242,-0.452 0.126,-0.133 0.046,-0.148 0.396,-0.578 0.034,-0.064 0.008,-0.084 0.129,-0.258 0.243,-0.96 0.205,-0.38 0.121,-0.569 0.229,-0.372 0.178,-0.624 0.017,-0.116 -10e-4,-0.701 v -10e-4 0 l 0.033,-0.455 0.11,-0.776 v -0.05 l -0.088,-0.482 -0.051,-0.545 -0.048,-0.041 -0.118,-0.166 -0.322,-0.176 -0.152,-0.146 -0.161,-0.052 -0.36,-0.256 -0.281,-0.044 -0.14,-0.078 -0.486,-0.088 -0.263,-0.099 -0.361,-0.056 -0.102,-10e-4 z"
           id="path480"
           style="stroke:#000000;stroke-width:0.99897;stroke-miterlimit:4;stroke-dasharray:none;stroke-opacity:1;paint-order:stroke fill markers" />
      </g>
      <g
         transform="translate(197,19)"
         id="g486"
         style="stroke:#000000;stroke-width:0.99897;stroke-miterlimit:4;stroke-dasharray:none;stroke-opacity:1;paint-order:stroke fill markers">
        <path
           fill-mode="evenodd"
           fill="red"
           d="m 0.462,-1.858 0.148,0.104 0.052,0.101 0.066,0.03 0.004,0.004 0.071,0.029 0.451,1.089 L 1.229,-0.439 1.26,-0.358 1.229,-0.263 1.277,0.068 1.289,0.231 1.295,0.244 1.324,0.743 1.575,1.315 1.661,1.719 1.729,1.842 1.91,3.04 1.917,3.141 1.924,3.154 2.09,4.812 2.43,6.317 3.063,8.355 3.08,8.46 l 0.023,0.036 0.522,2.124 0.002,0.02 0.003,0.005 0.53,2.194 0.003,0.028 0.004,0.007 0.509,2.196 0.842,2.172 0.046,0.245 0.057,0.09 0.519,2.26 0.774,2.022 0.018,0.094 0.03,0.042 0.755,2.328 0.001,0.004 0.665,1.951 0.002,0.008 10e-4,0.002 0.731,2.12 0.021,0.121 0.031,0.047 0.465,1.675 0.709,1.592 0.082,0.381 0.091,0.149 0.332,1.574 0.449,1.339 0.003,0.016 0.004,0.005 0.495,1.484 0.003,0.014 0.003,0.004 0.495,1.484 0.022,0.129 0.031,0.047 0.354,1.34 0.005,0.039 0.007,0.011 0.198,0.79 0.31,0.529 0.247,0.907 0.103,0.214 0.062,0.861 0.117,0.632 v 0.003 l 0.135,0.67 0.053,0.521 v 0.001 l 10e-4,0.641 v 0.127 l 0.145,0.735 v 0.493 l 10e-4,0.277 v 0.013 0 l 0.001,0.079 0.054,0.07 0.681,0.749 0.094,0.242 0.27,0.331 0.369,0.891 0.061,0.305 0.067,0.111 0.253,1.233 0.019,0.179 0.015,0.03 0.128,1.044 0.02,0.319 -0.025,0.352 -0.124,0.885 -0.087,0.16 -0.112,0.528 -0.408,0.919 -0.311,0.908 -0.105,0.141 -0.057,0.23 -0.729,0.82 -0.076,0.102 -0.02,0.006 -0.018,0.02 -0.892,0.62 -0.807,0.606 -0.154,0.051 -0.151,0.148 -1.131,0.636 -0.601,0.159 L 10.05,60.299 8.85,60.51 8.647,60.528 8.621,60.541 7.13,60.682 6.866,60.695 6.311,60.637 4.934,60.347 4.933,60.346 3.272,59.984 3.131,59.897 2.789,59.826 1.127,59.102 1.115,59.092 1.098,59.088 -0.635,58.295 -0.927,58.04 l -0.262,-0.092 -1.507,-1.22 -0.118,-0.149 -0.087,-0.036 -1.454,-1.454 -1.454,-1.315 -0.233,-0.319 -0.199,-0.181 -1.281,-1.922 -0.026,-0.085 -0.073,-0.073 -1.065,-1.847 -0.024,-0.089 -0.059,-0.065 -0.922,-1.844 -0.067,-0.277 -0.105,-0.15 -0.567,-1.84 -0.018,-0.118 -0.026,-0.04 -0.496,-1.984 -0.025,-0.2 -0.025,-0.045 -0.284,-1.773 -0.008,-0.092 -0.007,-0.014 -0.214,-1.703 -0.022,-0.342 V 38.77 l -0.003,-1.644 v -0.005 l 0.088,-0.681 0.305,-1.171 0.12,-1.099 0.069,-0.135 0.115,-0.581 0.407,-0.996 0.166,-0.78 0.205,-0.333 0.159,-0.545 0.65,-1.012 v -0.001 l 0.495,-0.778 0.212,-0.199 0.265,-0.358 0.526,-0.467 0.469,-0.528 0.214,-0.158 0.146,-0.178 0.639,-0.495 0.28,-0.097 0.287,-0.243 0.627,-0.278 0.229,-0.049 0.11,-0.077 0.697,-0.208 0.04,-0.006 0.013,-0.009 0.482,-0.137 0.754,-0.107 v 0 l 0.486,0.044 0.804,0.147 0.302,0.178 0.588,0.164 0.216,0.131 0.509,0.228 0.205,0.176 0.225,0.071 0.722,0.508 0.353,0.402 0.332,0.305 0.415,0.626 0.47,0.673 v 0 l 0.699,0.981 0.02,0.061 0.059,0.055 0.637,0.992 0.042,0.143 0.106,0.117 0.428,0.855 0.334,0.503 L 4.89,32.147 4.833,31.877 4.755,31.758 4.283,29.955 3.619,27.896 3.612,27.852 3.6,27.835 2.996,25.839 2.989,25.793 2.979,25.778 2.319,23.441 1.611,21.283 1.57,21.027 1.527,20.954 1.111,18.678 0.363,16.481 0.322,16.238 0.278,16.165 -0.177,13.81 V 13.807 L -0.637,11.623 -0.638,11.619 -1.098,9.541 -1.696,7.477 -1.719,7.314 -1.746,7.269 -2.074,5.561 -2.099,5.299 -2.11,5.276 -2.215,3.509 -2.296,2.56 -2.53,1.859 -2.636,1.216 l 0.004,-0.117 0.05,-0.86 0.006,-0.013 0.01,-0.147 0.053,-0.361 0.01,-0.018 0.008,-0.085 0.059,-0.286 0.368,-0.601 0.128,-0.309 0.082,-0.034 0.055,-0.09 1.144,-0.408 0.013,-0.005 0.033,-0.001 0.112,-0.046 z m -3.527,32.857 -0.185,0.083 -0.189,0.148 -0.41,0.462 -0.129,0.094 -0.094,0.128 -0.362,0.322 -0.305,0.479 -0.001,0.002 v 0 l -0.379,0.588 -0.116,0.54 -0.078,0.125 -0.063,0.32 -0.358,0.866 -0.104,0.921 -0.031,0.058 -0.041,0.316 -0.271,1.024 -0.002,1.126 0.189,1.51 0.26,1.624 0.458,1.826 0.484,1.571 0.798,1.594 0.989,1.713 1.051,1.577 1.256,1.137 0.053,0.073 0.041,0.017 1.402,1.402 1.13,0.914 1.408,0.645 1.356,0.588 1.403,0.303 v 10e-4 l 0.923,0.193 0.987,-0.095 0.658,-0.117 0.593,-0.334 0.709,-0.532 0.047,-0.016 0.045,-0.05 0.232,-0.16 0.082,-0.221 0.111,-0.142 0.054,-0.211 0.444,-0.796 0.13,-0.356 0.09,-0.738 0.108,-1.179 L 10.216,50.084 9.915,49.934 9.7,49.736 9.496,49.665 9.307,49.376 8.898,49 8.823,48.741 8.721,48.613 8.7,48.555 8.631,48.495 8.313,48.053 8.077,47.76 7.911,47.291 7.594,46.82 7.54,46.627 7.309,46.372 7.253,46.226 7.054,46.041 6.552,45.268 V 45.267 L 5.906,44.284 5.866,44.15 5.763,44.038 5.342,43.223 4.743,42.404 v 0 L 3.963,41.364 3.914,41.219 3.773,41.075 3.053,39.807 3.043,39.768 3.017,39.741 2.426,38.641 1.645,37.478 1.584,37.279 1.437,37.111 1.019,36.22 0.28,35.114 0.231,34.953 0.106,34.815 -0.332,33.941 -0.863,33.116 -1.533,32.181 -1.537,32.166 -1.552,32.153 -2.048,31.447 -2.057,31.418 -2.086,31.392 -2.235,31.169 -2.323,31.108 -2.746,30.922 -2.763,30.908 Z"
           id="path484"
           style="stroke:#000000;stroke-width:0.99897;stroke-miterlimit:4;stroke-dasharray:none;stroke-opacity:1;paint-order:stroke fill markers" />
      </g>
      <g
         transform="translate(109.125,89.625)"
         id="g490"
         style="stroke:#000000;stroke-width:0.99897;stroke-miterlimit:4;stroke-dasharray:none;stroke-opacity:1;paint-order:stroke fill markers">
        <path
           fill-mode="evenodd"
           fill="red"
           d="m 2.25,-3.671 0.415,0.28 0.197,0.064 0.105,0.074 0.047,0.054 0.047,0.016 0.096,0.074 0.09,0.11 0.022,0.016 0.012,0.017 0.154,0.104 0.363,0.538 0.209,0.256 0.019,0.083 0.059,0.088 0.239,1.182 L 4.085,0.467 4.026,0.554 4.007,0.638 3.801,0.889 3.435,1.432 3.334,1.5 3.328,1.507 3.233,1.582 3.15,1.683 3.068,1.747 3.012,1.766 2.957,1.829 2.872,1.89 2.822,1.907 2.216,2.385 1.754,2.49 1.737,2.501 1.632,2.581 1.586,2.597 1.547,2.622 1.459,2.643 1.317,2.695 1.149,2.725 1.082,2.771 0.94,2.812 0.897,2.839 0.764,2.879 0.559,3.034 -0.694,3.389 -1.082,3.424 -1.36,3.619 l -0.691,0.208 -0.316,0.047 -0.086,0.05 -0.314,0.057 -0.43,0.115 -0.322,0.209 -0.392,0.099 -0.068,0.038 -0.577,0.155 -0.322,0.209 -0.566,0.142 -0.046,0.02 -0.202,0.145 -0.31,0.1 -0.283,0.243 -0.311,0.142 -0.181,0.249 -0.047,0.04 -0.014,0.04 -0.486,0.625 -0.547,0.729 -0.521,0.813 -0.488,0.868 -0.428,1.04 -0.264,0.322 -0.113,0.353 -0.607,0.849 -0.388,0.691 -0.192,0.578 -0.121,0.563 0.458,-0.08 0.137,-0.071 0.984,-0.11 0.898,-0.264 0.432,-0.064 0.228,-0.067 1.107,-0.111 0.879,-0.259 0.278,-0.041 0.077,-0.045 1.48,-0.283 0.407,-0.039 0.084,-0.021 1.35,-0.071 0.191,-0.005 h 2.79 l 0.165,0.004 1.51,0.071 0.032,0.008 0.201,0.012 1.219,0.143 1.329,0.14 0.036,0.018 0.226,0.021 1.166,0.218 0.02,0.012 0.072,0.008 1.311,0.29 0.084,0.053 0.238,0.039 1.097,0.364 0.016,0.012 0.029,0.005 1.026,0.366 0.071,0.054 0.129,0.027 1.167,0.509 0.142,0.121 0.194,0.053 0.875,0.509 0.258,0.26 0.22,0.081 0.934,0.791 0.212,0.275 0.253,0.203 0.567,0.709 0.034,0.097 0.115,0.102 0.636,0.919 0.073,0.231 0.186,0.205 0.491,0.981 0.151,0.629 0.158,0.265 0.161,0.798 0.321,0.856 0.108,0.585 0.115,0.443 0.071,1.134 0.007,0.228 -0.008,0.231 -0.072,1.084 -0.113,0.426 -0.1,0.553 -0.323,0.864 -0.162,0.866 -0.117,0.198 -0.112,0.534 -0.509,1.166 -0.32,0.377 -0.123,0.356 -0.793,1.009 -0.01,0.008 -0.003,0.008 -0.863,1.08 -0.056,0.044 -0.014,0.04 -0.863,1.006 -0.161,0.123 -0.125,0.173 -0.856,0.784 -0.468,0.295 -0.18,0.175 -1.083,0.61 -1.053,0.659 -0.443,0.128 -0.315,0.231 -1.032,0.344 -1.04,0.391 -0.459,0.085 -0.145,0.085 -1.123,0.211 -0.663,0.063 v 0 L 4.074,38.857 3.025,38.726 2.047,38.661 1.352,38.477 0.918,38.388 -0.106,37.95 l -0.317,-0.266 -0.336,-0.11 -0.796,-0.579 -0.18,-0.209 -0.289,-0.203 -0.589,-0.622 -0.501,-0.496 -0.739,-1.087 -0.072,-0.355 -0.096,-0.148 -0.215,-0.851 -0.047,-0.372 -0.035,-0.067 -0.111,-0.927 -0.025,-0.402 0.036,-0.48 0.159,-1.067 0.081,-0.145 0.094,-0.502 0.341,-0.875 0.007,-0.008 0.003,-0.013 0.463,-1.134 0.047,-0.058 0.021,-0.092 0.502,-1.019 0.518,-0.57 0.087,-0.183 0.722,-0.588 0.668,-0.826 0.127,-0.061 0.061,-0.133 0.862,-0.747 0.074,-0.028 0.026,-0.051 0.881,-0.616 0.003,-0.002 0.002,-0.002 1.06,-0.738 0.117,-0.037 0.028,-0.041 1.059,-0.416 0.196,-0.037 0.527,0.527 -0.202,0.415 -0.817,0.639 -0.632,0.909 -0.379,0.827 -0.256,0.873 -0.114,1.118 -0.02,0.04 -0.032,0.243 -0.185,0.711 0.063,0.711 0.005,0.13 0.003,0.006 0.045,1.166 0.051,0.749 0.094,0.628 0.166,0.477 0.127,0.082 0.495,0.47 0.287,0.208 0.097,0.041 0.49,0.033 0.033,0.009 0.156,0.01 0.605,0.075 0.315,-0.059 0.836,-0.314 0.101,-0.019 0.044,-0.032 0.682,-0.228 0.778,-0.486 0.085,-0.025 0.067,-0.066 0.796,-0.448 0.407,-0.373 0.685,-0.799 0.818,-1.023 0.496,-0.631 0.164,-0.376 0.145,-0.775 0.082,-0.14 0.076,-0.419 0.25,-0.666 0.022,-0.337 -0.025,-0.4 L 10.983,23.632 10.905,23.21 10.821,23.069 10.698,22.453 10.515,22.087 10.08,21.46 9.796,21.105 9.357,20.734 8.933,20.486 8.077,20.113 7.198,19.799 6.36,19.521 5.292,19.284 4.354,19.109 3.125,18.979 3.121,18.977 3.098,18.976 1.998,18.847 0.703,18.785 h -2.614 l -1.032,0.055 -1.106,0.211 -1.024,0.302 -0.432,0.063 -0.228,0.067 -1.107,0.111 -0.879,0.259 -0.527,0.078 -0.096,0.049 -0.883,0.098 -0.595,0.213 -0.171,0.031 -0.068,0.046 -0.977,0.28 -0.475,0.068 -0.216,0.06 -0.845,0.071 -0.302,0.013 h -1.359 l -0.384,-0.022 -0.66,-0.073 -0.706,-0.365 -1.067,-0.374 -0.365,-0.292 -0.478,-0.598 -0.016,-0.011 -0.02,-0.028 -0.289,-0.284 -0.206,-0.343 -0.052,-0.185 -0.179,-0.266 -0.273,-1.354 v -1.359 l 0.178,-1.1 0.137,-0.412 0.102,-0.562 0.26,-0.444 0.233,-0.794 0.3,-0.468 0.087,-0.405 0.055,-0.089 0.042,-0.259 0.365,-1.098 0.169,-0.228 0.092,-0.353 0.653,-1.161 0.142,-0.145 0.05,-0.155 0.482,-0.674 0.356,-0.868 0.121,-0.148 0.056,-0.21 0.652,-1.162 0.072,-0.073 0.025,-0.085 0.652,-1.015 0.103,-0.096 0.032,-0.097 0.65,-0.867 0.024,-0.02 0.007,-0.02 0.468,-0.602 0.544,-0.748 0.432,-0.37 0.353,-0.405 0.49,-0.351 0.31,-0.1 0.283,-0.243 0.48,-0.219 0.215,-0.153 0.324,-0.105 0.295,-0.25 0.622,-0.278 0.412,-0.088 0.179,-0.116 0.392,-0.099 0.068,-0.039 0.577,-0.154 0.322,-0.209 0.392,-0.098 0.068,-0.039 0.767,-0.206 0.353,-0.205 0.598,-0.11 0.146,-0.044 0.138,-0.079 0.091,-0.024 0.116,-0.086 1.267,-0.347 0.359,-0.028 0.457,-0.109 0.271,-0.152 0.63,-0.101 0.327,-0.026 0.058,-0.015 0.352,-0.017 0.176,-0.005 0.276,0.033 0.224,-0.034 z"
           id="path488"
           style="stroke:#000000;stroke-width:0.99897;stroke-miterlimit:4;stroke-dasharray:none;stroke-opacity:1;paint-order:stroke fill markers" />
      </g>
      <g
         transform="translate(129.75,102.375)"
         id="g494"
         style="stroke:#000000;stroke-width:0.99897;stroke-miterlimit:4;stroke-dasharray:none;stroke-opacity:1;paint-order:stroke fill markers">
        <path
           fill-mode="evenodd"
           fill="red"
           d="m 6.379,-18.501 0.81,0.22 0.201,0.136 0.384,0.091 0.734,0.366 0.037,0.034 0.05,0.012 0.804,0.438 0.156,0.151 0.166,0.053 0.511,0.364 0.155,0.179 0.126,0.049 0.709,0.638 0.636,0.565 0.056,0.075 0.084,0.057 0.5,0.5 0.71,1.053 0.014,0.068 0.026,0.034 0.256,0.663 0.271,0.451 0.282,1.009 0.178,0.347 0.055,0.501 0.111,0.551 0.067,0.669 v 0.002 0.929 0.858 l -0.064,0.649 -0.109,0.545 -0.056,0.619 -0.013,0.027 -0.017,0.204 -0.145,0.878 -0.075,0.132 -0.078,0.44 -0.136,0.375 -0.037,0.432 -0.08,0.161 -0.17,0.837 -0.373,0.549 -0.103,0.493 -0.037,0.179 -10e-4,0.002 -10e-4,0.002 -0.708,1.039 -0.008,0.006 -0.006,0.008 -0.332,0.325 -0.145,0.434 -0.375,0.5 -0.361,0.301 -0.293,0.347 -0.646,0.48 -0.204,0.068 -0.2,0.19 L 9.531,2.873 9.359,3.001 9.144,3.073 8.934,3.269 8.437,3.531 8.087,3.768 7.782,3.863 7.524,4.074 6.896,4.339 6.888,4.341 6.882,4.345 5.716,4.58 5.527,4.679 5.037,4.8 4.797,4.953 4.026,5.138 3.991,5.142 4.293,6.537 5.28,8.693 v 0.002 l 1.019,2.099 1.105,1.628 1.462,1.652 1.183,1.237 1.327,0.738 1.297,0.53 1.311,0.437 h 0.831 l 1.008,-0.308 1.021,-0.438 0.998,-0.698 1.046,-0.925 L 19.69,13.81 20.305,12.775 20.91,11.492 21.546,9.976 22.015,8.774 22.272,7.423 22.273,7.422 22.569,5.843 22.586,5.814 22.599,5.71 22.851,4.719 22.934,3.965 22.945,3.944 22.958,3.816 23.072,3.277 23.076,3.179 22.949,2.97 22.895,2.898 22.785,2.575 22.894,2.253 22.974,2.148 23.531,1.872 v 0 l 0.149,0.016 0.559,0.122 0.029,0.036 0.211,0.053 0.437,0.235 0.074,0.124 0.208,0.086 0.466,0.461 0.03,0.07 0.062,0.029 0.578,0.677 0.098,0.265 0.249,0.316 0.41,1.068 0.061,0.323 0.062,0.105 0.296,1.572 0.019,0.21 0.015,0.029 0.164,1.608 0.016,0.307 -0.037,0.463 -0.261,1.619 -0.036,0.065 -0.035,0.253 -0.472,1.697 -0.057,0.083 -0.035,0.189 -0.597,1.545 -0.117,0.147 -0.056,0.22 -0.84,1.534 -0.355,0.366 -0.105,0.267 -1.135,1.228 -0.13,0.093 -0.091,0.124 -1.281,1.145 -0.14,0.054 -0.169,0.191 -1.42,0.995 -0.321,0.102 -0.282,0.235 -1.481,0.635 -0.245,0.051 -0.116,0.081 -1.621,0.494 -0.978,0.148 -0.004,0.001 -1.859,10e-4 h -0.002 v 0 L 12.404,23.441 10.45,22.791 10.388,22.745 10.267,22.721 8.672,22.07 8.537,21.959 8.341,21.909 6.393,20.828 6.176,20.616 5.627,20.233 4.054,18.589 4.016,18.53 3.966,18.493 2.324,16.637 2.266,16.484 2.062,16.3 0.711,14.308 0.64,14.08 0.465,13.884 -0.67,11.543 -0.683,11.488 -0.711,11.456 -1.847,8.973 -1.955,8.48 -2.079,8.278 -2.647,5.654 V 5.653 L -3.24,3.223 -3.446,2.646 -3.373,2.443 -3.637,0.013 -3.651,-0.243 -3.656,-0.266 -3.728,-2.836 -3.729,-2.932 v 0 L -3.73,-5.221 v 0 l 0.002,-0.113 0.072,-2.08 0.009,-0.039 0.021,-0.307 0.288,-2.021 v -10e-4 l 0.213,-1.501 0.113,-0.206 0.142,-0.664 0.575,-1.283 0.309,-0.932 0.271,-0.367 0.138,-0.446 0.65,-0.941 0.198,-0.177 0.055,-0.143 0.646,-0.719 1.091,-0.801 0.21,-0.045 0.107,-0.079 0.835,-0.28 0.664,-0.111 0.11,-0.054 0.773,-0.071 0.309,-0.015 h 0.002 l 0.572,-10e-4 h 0.003 v 0 h 0.858 10e-4 z m -2.25,6.695 -0.216,0.648 -0.074,0.1 -0.04,0.186 L 3.346,-9.867 3.195,-8.812 3.194,-8.811 2.935,-7 2.871,-5.163 v 2.185 l 0.054,1.964 0.263,-0.174 0.174,-0.053 0.301,-0.209 1.124,-0.249 0.08,-0.06 0.159,-0.053 0.156,-0.157 0.384,-0.225 0.12,-0.103 L 5.837,-2.354 6.012,-2.545 6.23,-2.69 6.231,-2.691 6.26,-2.839 6.773,-3.612 6.894,-4.213 6.896,-4.216 v -0.003 l 0.233,-0.346 0.166,-0.247 0.107,-0.608 0.182,-0.504 0.074,-0.442 0.061,-0.672 0.02,-0.041 0.029,-0.293 0.079,-0.396 v -0.528 -0.6 L 7.772,-9.269 7.752,-9.467 7.682,-9.582 7.596,-9.891 7.423,-10.111 7.321,-10.375 6.807,-10.832 6.802,-10.839 6.797,-10.841 6.22,-11.36 6.034,-11.493 5.463,-11.804 5.105,-11.983 5.062,-11.994 4.648,-11.995 v 0 H 4.645 4.261 Z"
           id="path492"
           style="stroke:#000000;stroke-width:0.99897;stroke-miterlimit:4;stroke-dasharray:none;stroke-opacity:1;paint-order:stroke fill markers" />
      </g>
      <g
         transform="translate(165,95.5)"
         id="g498"
         style="stroke:#000000;stroke-width:0.99897;stroke-miterlimit:4;stroke-dasharray:none;stroke-opacity:1;paint-order:stroke fill markers">
        <path
           fill-mode="evenodd"
           fill="red"
           d="m -5.059,-7.757 0.359,0.002 v 0 l 0.642,0.004 0.023,0.005 0.672,0.076 0.664,0.153 0.24,0.152 0.486,0.119 0.443,0.229 0.193,0.182 0.622,0.435 0.02,0.021 0.577,0.341 0.419,0.424 0.044,0.041 0.167,0.1 0.183,0.187 0.391,0.264 0.465,0.465 0.199,0.294 0.444,0.657 v 0.002 l 0.002,0.002 0.092,0.458 0.144,0.705 v 0.15 L 2.634,-1.43 2.539,-0.722 2.45,-0.389 2.311,-0.183 2.219,0.17 1.845,0.562 1.811,0.656 1.668,0.828 1.61,0.855 1.55,0.943 v 0 L 1.54,0.968 1.408,1.022 1.353,1.08 1.266,1.135 1.233,1.144 1.186,1.258 1.069,1.306 0.953,1.452 0,1.749 -0.953,1.452 -1.068,1.307 -1.186,1.258 -1.232,1.148 -1.256,1.141 -1.363,1.074 -1.415,1.019 -1.54,0.968 -1.582,0.866 -1.671,0.824 -1.764,0.713 -2.64,-0.033 l -0.193,-0.26 -0.584,-0.439 -0.411,-0.214 -0.024,-0.022 -0.03,-0.008 -0.38,-0.21 -0.221,-0.216 h -0.003 l -0.075,0.085 -0.01,0.007 -0.002,0.007 -0.471,0.523 -0.316,0.491 -0.387,1.053 -0.037,0.048 -0.018,0.085 -0.464,1.083 -0.162,1.348 -0.011,0.022 -0.011,0.123 -0.331,1.923 -0.117,1.635 0.122,2.08 0.304,2.01 0.572,1.97 0.575,1.724 0.881,1.434 0.968,1.31 1.03,0.978 1.214,0.809 1.729,0.689 1.487,0.46 1.661,-0.001 H 3.648 5.36 L 6.516,20.06 6.637,20.038 6.69,20 8.35,19.472 9.677,18.683 h 0.001 l 1.515,-0.911 1.225,-0.85 0.945,-0.693 0.501,-0.639 0.677,-0.997 0.139,-0.125 0.039,-0.104 0.619,-0.703 0.019,-0.009 0.009,-0.022 0.164,-0.179 -0.02,-0.159 -0.009,-0.132 0.299,-0.721 0.722,-0.299 0.126,0.008 0.403,0.05 0.215,0.114 0.393,0.127 0.498,0.36 0.039,0.075 0.102,0.039 0.545,1.081 0.081,0.813 0.011,0.213 v 0.027 l -0.013,0.936 -0.003,0.008 -0.037,0.399 -0.239,1.282 -0.064,0.109 -0.059,0.325 -0.464,1.235 -0.446,0.568 -0.148,0.372 -1.11,1.175 -0.126,0.088 -0.086,0.114 -1.225,1.066 -0.141,0.053 -0.167,0.183 -1.536,1.034 -0.055,0.017 -0.047,0.049 -1.621,1.011 -0.418,0.121 -0.293,0.212 -1.948,0.634 -1.613,0.606 -1.14,0.211 H 3.648 3.646 L 1.5,26.853 1.493,26.852 0.558,26.71 -1.539,26.058 -1.609,26.008 -1.754,25.98 -3.921,25.113 -4.175,24.907 -4.481,24.814 -6.208,23.662 -6.446,23.4 l -0.175,-0.07 -1.432,-1.36 -0.18,-0.256 -0.185,-0.157 -1.21,-1.637 -0.039,-0.117 -0.118,-0.113 -1.137,-1.846 -0.114,-0.397 -0.203,-0.277 -0.709,-2.123 -0.017,-0.103 -0.027,-0.039 -0.638,-2.194 -0.051,-0.35 -0.045,-0.082 -0.357,-2.342 -0.022,-0.286 -0.011,-0.023 -0.143,-2.423 -0.006,-0.196 0.009,-0.226 0.143,-2.013 0.014,-0.029 0.023,-0.274 0.345,-2.002 0.204,-1.714 0.093,-0.176 0.14,-0.682 0.615,-1.439 0.475,-1.292 0.203,-0.262 0.099,-0.337 0.651,-1.014 0.237,-0.22 0.067,-0.175 0.64,-0.712 0.567,-0.637 1.052,-0.777 0.022,-0.005 0.011,-0.009 0.624,-0.277 0.207,-0.045 0.104,-0.076 0.622,-0.206 1.02,-0.167 z"
           id="path496"
           style="stroke:#000000;stroke-width:0.99897;stroke-miterlimit:4;stroke-dasharray:none;stroke-opacity:1;paint-order:stroke fill markers" />
      </g>
      <g
         transform="translate(190.75,112)"
         id="g502"
         style="stroke:#000000;stroke-width:0.99897;stroke-miterlimit:4;stroke-dasharray:none;stroke-opacity:1;paint-order:stroke fill markers">
        <path
           fill-mode="evenodd"
           fill="red"
           d="m 11.223,-28.561 0.639,0.172 0.589,0.114 0.215,0.129 0.332,0.103 0.605,0.415 0.441,0.207 0.757,0.338 0.008,0.012 0.033,0.009 0.928,0.5 0.271,0.456 -0.52,0.52 -0.1,-0.01 -0.937,-0.182 -0.584,0.053 -0.376,0.177 -0.298,0.068 -0.078,0.039 -0.317,0.036 -0.107,0.105 -0.153,0.063 -0.06,0.116 -0.498,0.358 -0.725,0.641 -0.064,0.025 -0.076,0.09 -0.82,0.627 -0.44,0.469 -0.779,1.086 -0.144,0.124 -0.039,0.104 -0.652,0.739 -0.491,1.016 -0.008,0.009 -0.003,0.012 -0.717,1.431 -0.555,1.315 -0.434,1.773 -0.072,0.111 -0.051,0.273 -0.619,1.587 -0.17,1.78 -0.02,0.04 -0.027,0.272 -0.401,2.008 -0.18,1.684 -0.002,1.686 v 0 0.002 l -0.003,1.56 0.177,1.26 0.006,0.088 0.006,0.012 0.12,1.056 0.225,1.029 0.002,0.008 0.133,0.189 0.108,0.341 0.24,0.298 0.28,0.693 V 0.676 L 6.002,1.1 6.088,1.508 6.19,1.672 6.206,1.742 6.655,2.393 6.659,2.41 6.669,2.425 6.761,2.876 6.917,3.592 6.919,3.698 V 3.71 L 6.936,3.791 6.925,4.047 6.918,4.129 6.846,4.278 6.683,5.084 6.01,6.082 5.939,6.13 5.92,6.169 5.829,6.204 5.013,6.755 3.791,7.001 2.569,6.755 2.363,6.616 2.312,6.597 2.164,6.482 2.12,6.452 1.861,6.383 1.193,5.725 0.85,5.458 0.818,5.356 0.725,5.264 0.437,4.783 0.398,4.644 0.261,4.449 0.144,3.942 0.036,3.755 -0.006,3.6 -0.103,3.489 -0.234,3.207 -0.501,3.317 -1.136,3.054 -1.643,2.904 -1.723,2.81 -1.784,2.785 -1.815,2.712 -1.88,2.681 -1.895,2.664 -1.984,2.627 -2.079,2.398 -2.409,2.016 -2.451,1.924 -2.508,1.844 -2.533,1.769 -2.606,1.699 -2.848,1.313 -3.2,0.797 -3.296,0.489 -3.495,0.233 l -0.306,-0.802 -10e-4,-0.003 -0.341,-0.844 -0.109,-0.552 -0.079,-0.146 -0.067,-0.489 -0.304,-0.583 -0.017,-0.067 -0.038,-0.043 -0.53,-1.108 -0.051,-0.219 -0.088,-0.12 -0.328,-0.951 -0.528,-1.066 -0.731,-1.227 -0.077,-0.274 -0.154,-0.195 -0.523,-1.332 -0.701,-1.315 -0.037,-0.145 -0.079,-0.095 -0.637,-1.462 -0.609,-1.268 -0.752,-1.184 -0.091,-0.313 -0.189,-0.239 -0.389,-0.993 -0.605,-0.934 -0.037,-0.127 -0.1,-0.104 -0.391,-0.728 -0.495,-0.663 -0.061,-0.183 -0.174,-0.179 -0.349,-0.628 -0.071,-0.272 -0.135,-0.175 -0.125,-0.336 -0.065,-0.113 -0.092,-0.124 -0.027,-0.081 -0.084,-0.077 -0.134,-0.204 -0.057,-0.187 -0.218,-0.324 -0.246,-1.219 v -0.032 l 0.002,-0.144 0.146,-0.691 0.099,-0.494 0.007,-0.01 0.003,-0.011 0.401,-0.588 0.26,-0.385 0.006,-0.005 0.005,-0.006 0.652,-0.436 0.331,-0.224 h 0.004 l 0.004,-0.003 1.21,-0.243 1.211,0.243 0.003,0.003 h 0.004 l 0.332,0.224 0.403,0.27 0.036,0.011 0.017,0.024 0.196,0.131 0.004,0.006 0.007,0.005 0.012,0.018 0.005,0.004 0.142,0.144 0.289,0.435 0.049,0.049 0.647,0.962 0.014,0.016 0.005,0.011 0.002,0.003 10e-4,0.004 0.012,0.029 0.173,0.197 0.004,0.013 0.019,0.014 0.425,0.497 0.061,0.165 0.205,0.193 0.493,0.775 0.048,0.162 0.118,0.131 0.225,0.448 0.525,0.684 0.052,0.152 0.156,0.154 0.635,1.059 0.002,0.008 0.005,0.004 0.786,1.31 0.692,0.946 0.07,0.21 0.187,0.201 0.831,1.595 0.738,1.275 0.008,0.031 0.021,0.021 0.504,0.9 0.139,-1.424 0.074,-0.146 0.136,-0.715 0.717,-1.815 0.464,-1.82 0.103,-0.156 0.072,-0.338 0.74,-1.658 0.074,-0.087 0.032,-0.124 0.822,-1.503 0.014,-0.015 0.005,-0.019 0.769,-1.348 0.233,-0.235 0.405,-0.544 1.023,-0.902 1.063,-1.002 0.278,-0.111 0.399,-0.365 0.927,-0.47 0.328,-0.08 0.173,-0.117 1.192,-0.338 0.148,-0.021 0.042,-0.025 1.045,-0.216 0.453,-0.047 z"
           id="path500"
           style="stroke:#000000;stroke-width:0.99897;stroke-miterlimit:4;stroke-dasharray:none;stroke-opacity:1;paint-order:stroke fill markers" />
      </g>
      <g
         transform="translate(211.375,104.875)"
         id="g506"
         style="stroke:#000000;stroke-width:0.99897;stroke-miterlimit:4;stroke-dasharray:none;stroke-opacity:1;paint-order:stroke fill markers">
        <path
           fill-mode="evenodd"
           fill="red"
           d="m 4.058,-20.428 0.036,0.025 0.036,0.008 0.806,0.364 0.034,0.03 0.052,0.012 0.375,0.187 0.455,0.15 0.613,0.452 0.455,0.174 0.633,0.569 0.564,0.437 0.107,0.131 0.174,0.117 0.644,0.643 0.434,0.642 0.145,0.16 0.205,0.409 0.422,0.514 0.187,0.522 0.384,0.552 0.209,0.693 10e-4,0.005 0.278,0.903 0.052,0.338 0.049,0.087 0.139,0.84 0.044,0.521 v 0.004 l -10e-4,1.002 v 0 l -0.002,1.001 v 0.004 l -0.043,0.504 -0.147,0.876 -0.026,0.046 -0.023,0.179 -0.294,1.165 -0.041,0.062 -0.026,0.157 -0.226,0.663 -0.31,0.415 -0.145,0.428 -0.279,0.368 -0.076,0.287 -0.373,0.56 -0.196,0.556 -0.516,0.641 -0.114,0.091 -0.029,0.073 -0.592,0.633 -0.461,0.56 L 7.519,-0.549 7.396,-0.377 6.879,0.101 6.827,0.121 6.766,0.2 6.033,0.814 5.864,0.875 5.672,1.073 5.341,1.274 4.981,1.58 4.756,1.663 4.489,1.917 3.966,2.199 3.595,2.294 3.389,2.434 3.021,2.537 3.646,3.644 4.527,4.628 5.681,5.66 l 1.04,0.809 0.91,0.527 1.084,0.361 1.018,0.242 0.605,10e-4 0.959,-0.25 0.128,-0.017 0.036,-0.022 1.161,-0.244 0.736,-0.432 0.964,-0.714 0.122,-0.04 0.117,-0.121 0.744,-0.449 0.475,-0.482 0.601,-0.858 0.107,-0.093 0.03,-0.083 0.837,-0.986 0.154,-0.072 0.32,-0.35 0.371,-0.247 0.271,-0.384 0.31,-0.667 0.208,-0.131 0.159,-0.33 0.456,-0.362 0.197,-0.352 0.152,-0.088 0.093,-0.171 0.529,-0.343 0.31,-0.092 0.566,0.565 -0.05,0.232 -0.144,0.322 0.088,0.297 0.044,0.294 -0.016,0.181 -0.086,0.466 0.155,0.534 0.049,0.336 0.016,0.034 0.056,0.976 0.004,0.119 -0.056,0.465 -0.195,0.806 -0.029,0.045 -0.02,0.122 -0.412,1.241 -0.001,0.001 -0.388,1.19 -0.172,0.235 -0.094,0.332 -0.673,1.088 -0.252,0.242 -0.339,0.437 -0.927,0.777 -1.016,0.877 -0.163,0.061 -0.194,0.204 -1.261,0.802 -0.607,0.178 -0.368,0.229 -1.599,0.361 -1.265,0.337 -0.798,0.106 -0.006,0.002 -1.359,10e-4 H 9.37 L 8.662,13.632 7.139,13.271 7.075,13.229 6.902,13.201 5.378,12.695 5.16,12.534 4.833,12.447 3.46,11.652 3.291,11.483 3.128,11.427 1.834,10.421 1.75,10.318 1.679,10.291 0.317,9.072 0.217,8.935 0.08,8.835 -1.133,7.479 -1.224,7.243 -1.519,6.941 -2.421,5.346 -3.445,3.708 -3.558,3.319 -3.761,3.043 -4.399,1.133 -4.408,1.073 -4.425,1.051 l -0.638,-2.053 -0.021,-0.139 -0.031,-0.047 -0.496,-1.981 -0.06,-0.47 -0.028,-0.058 -0.143,-1.849 -0.01,-0.247 v 0 -2.002 -0.001 l 0.008,-0.225 0.143,-1.942 0.023,-0.047 0.044,-0.395 0.353,-1.557 0.277,-1.39 0.068,-0.112 0.058,-0.326 0.507,-1.38 0.041,-0.053 0.02,-0.095 0.508,-1.164 0.139,-0.164 0.06,-0.209 0.364,-0.585 0.282,-0.268 0.368,-0.468 0.748,-0.614 0.527,-0.464 0.342,-0.129 0.434,-0.369 0.523,-0.235 0.504,-0.282 0.138,-0.036 0.175,-0.119 1.194,-0.243 0.858,-0.002 h 0.007 z m -1.678,6.097 -0.218,0.19 -0.038,0.014 -0.043,0.054 -0.382,0.312 -0.361,0.826 -0.384,1.043 -0.242,1.212 -0.008,0.014 -0.005,0.045 -0.307,1.353 -0.119,1.588 v 1.77 l 0.114,1.486 0.419,1.679 0.114,0.367 0.046,-0.029 0.136,-0.126 0.35,-0.412 0.2,-0.153 0.151,-0.193 0.387,-0.322 0.552,-0.535 0.31,-0.334 0.388,-0.529 0.114,-0.097 0.031,-0.084 0.561,-0.648 0.044,-0.059 0.062,-0.264 0.314,-0.49 0.198,-0.6 0.34,-0.461 0.024,-0.074 0.227,-0.92 0.079,-0.483 -0.001,-0.746 v 0 0 l -10e-4,-0.746 -0.069,-0.408 -0.22,-0.712 -0.004,-0.031 -0.008,-0.01 -0.038,-0.128 -0.25,-0.306 -0.098,-0.273 -0.278,-0.306 -0.135,-0.269 -0.154,-0.155 -0.499,-0.389 -0.088,-0.108 -0.074,-0.029 -0.238,-0.215 -0.06,-0.02 -0.139,-0.102 -0.237,-0.057 -0.356,-0.177 z"
           id="path504"
           style="stroke:#000000;stroke-width:0.99897;stroke-miterlimit:4;stroke-dasharray:none;stroke-opacity:1;paint-order:stroke fill markers" />
      </g>
      <g
         transform="translate(230.875,64.5)"
         id="g510"
         style="stroke:#000000;stroke-width:0.99897;stroke-miterlimit:4;stroke-dasharray:none;stroke-opacity:1;paint-order:stroke fill markers">
        <path
           fill-mode="evenodd"
           fill="red"
           d="m 0.247,-5.102 0.219,0.192 0.186,0.058 0.123,0.153 0.043,0.018 0.028,0.067 0.186,0.077 0.099,0.24 0.08,0.113 0.016,0.051 0.068,0.086 0.157,0.143 0.203,0.303 0.038,0.125 0.102,0.106 0.405,0.742 0.044,0.173 0.094,0.114 0.364,0.87 0.477,0.916 0.033,0.136 0.072,0.087 0.477,1.114 0.869,1.525 0.09,0.337 0.16,0.217 0.553,1.625 0.873,1.887 0.022,0.099 0.044,0.055 1.01,2.475 0.011,0.057 0.022,0.028 1.004,2.62 0.005,0.026 0.008,0.011 1.071,2.837 0.028,0.152 0.046,0.066 0.968,3.168 1.226,3.063 0.017,0.088 0.031,0.041 1.201,3.342 0.001,0.005 1.258,3.41 0.022,0.12 0.036,0.051 0.961,3.064 v 0.003 l 0.969,2.859 1.16,2.674 0.052,0.25 0.081,0.117 0.715,2.425 0.946,2.145 0.057,0.268 0.085,0.124 0.548,1.96 0.586,1.633 0.669,1.63 0.09,0.446 0.067,0.124 0.165,1.16 0.009,0.131 0.007,0.013 0.068,0.869 0.007,0.156 v 0 l -0.002,0.073 -0.024,0.638 -0.016,0.036 -0.075,0.442 -0.098,0.285 -0.256,0.342 -0.078,0.188 -0.093,0.038 -0.083,0.112 -0.827,0.266 -0.652,-0.159 -0.268,-0.138 -0.39,-0.364 -0.13,-0.062 -0.398,-0.49 L 18.158,51.257 18.056,51.161 17.591,50.428 17.56,50.319 17.481,50.233 17.005,49.284 16.08,47.849 16.058,47.777 16,47.718 15.08,46.094 15.04,45.943 14.952,45.839 14.153,44.018 12.978,41.93 12.91,41.673 12.78,41.505 11.881,39.097 10.606,36.498 10.562,36.313 10.48,36.206 9.365,33.243 9.349,33.158 9.322,33.121 8.299,30.097 7.029,26.768 7.02,26.722 7.004,26.702 5.789,23.367 4.536,20.24 4.498,20.045 4.437,19.958 3.463,16.752 2.442,14.015 2.44,14 2.436,13.996 1.452,11.367 V 11.364 L 0.491,8.918 -0.376,6.924 -0.428,6.675 -0.511,6.557 -0.97,5.031 -1.723,3.57 -1.786,3.314 -1.899,3.164 -2.332,1.93 -2.742,0.946 -2.784,0.735 -2.852,0.638 l -0.28,-0.936 -0.258,-0.693 -0.073,-0.402 -0.069,-0.12 -0.062,-0.355 -0.043,-0.492 0.196,-1.026 0.104,-0.265 0.392,-0.486 0.012,-0.039 0.085,-0.121 0.099,-0.24 0.186,-0.077 0.028,-0.067 0.042,-0.017 0.124,-0.154 0.185,-0.058 0.22,-0.192 1.106,-0.273 z"
           id="path508"
           style="stroke:#000000;stroke-width:0.99897;stroke-miterlimit:4;stroke-dasharray:none;stroke-opacity:1;paint-order:stroke fill markers" />
      </g>
      <g
         transform="translate(232.875,86.875)"
         id="g514"
         style="stroke:#000000;stroke-width:0.99897;stroke-miterlimit:4;stroke-dasharray:none;stroke-opacity:1;paint-order:stroke fill markers">
        <path
           fill-mode="evenodd"
           fill="red"
           d="m 23.533,-9.374 0.204,0.136 0.053,0.098 0.059,0.025 0.012,0.029 0.122,0.051 0.484,1.167 -0.003,0.093 -0.013,0.243 -0.016,0.034 -0.044,0.352 -0.191,0.758 -0.534,0.814 -0.148,0.346 -0.772,0.738 -0.026,0.01 -0.031,0.043 -1.132,1.025 -0.128,0.049 -0.157,0.179 -1.266,0.898 -0.144,0.046 -0.132,0.129 -1.559,0.886 -1.549,0.972 -0.108,0.032 -0.086,0.082 -1.84,0.997 L 14.546,0.869 14.518,0.895 12.888,1.74 12.786,1.765 12.72,1.821 10.875,2.66 10.764,2.685 10.703,2.733 9.186,3.332 7.635,4.039 7.349,4.102 7.209,4.2 5.715,4.648 5.541,4.674 5.487,4.708 4.206,4.999 3.728,5.053 3.684,5.074 2.615,5.136 2.432,5.142 2.361,5.141 1.215,5.114 1.202,5.108 0.848,5.081 0.063,4.961 -0.121,4.858 -0.667,4.738 -1.123,4.527 -1.299,4.374 -1.496,4.312 -1.91,4.027 -2.109,3.802 -2.244,3.746 -2.319,3.565 -2.678,3.162 -2.966,2.003 -2.85,1.711 l 0.003,-0.045 -0.07,-0.45 0.326,-1.069 0.177,-0.146 0.058,-0.14 0.132,-0.054 0.008,-0.02 0.129,-0.054 0.348,-0.285 0.065,-0.028 0.673,-0.136 0.085,0.008 0.344,-0.119 0.599,0.224 0.116,0.034 0.01,0.013 0.031,0.011 0.647,-0.1 0.024,-0.002 0.004,-0.001 1.048,-0.158 0.801,-0.168 1.07,-0.354 1.251,-0.461 1.446,-0.726 0.127,-0.031 0.078,-0.064 1.527,-0.649 1.728,-0.81 1.547,-0.814 h 0.002 l 1.807,-0.968 1.574,-0.929 0.153,-0.042 0.112,-0.1 1.654,-0.79 0.034,-0.008 0.019,-0.016 1.401,-0.649 0.003,-10e-4 1.365,-0.644 0.556,-0.126 0.194,-0.11 0.811,-0.134 0.467,-0.179 0.753,-0.142 z"
           id="path512"
           style="stroke:#000000;stroke-width:0.99897;stroke-miterlimit:4;stroke-dasharray:none;stroke-opacity:1;paint-order:stroke fill markers" />
      </g>
    </g>
  </g>
</svg>
