<?xml version="1.0" encoding="UTF-8" standalone="no"?>
<!-- Generator: Adobe Illustrator 19.0.0, SVG Export Plug-In . SVG Version: 6.00 Build 0)  -->

<svg
   version="1.1"
   id="Layer_1"
   x="0px"
   y="0px"
   viewBox="0 0 452.3813 461.87963"
   xml:space="preserve"
   sodipodi:docname="usd_wallet.svg"
   inkscape:version="1.1.2 (0a00cf5339, 2022-02-04, custom)"
   width="45"
   height="46"
   xmlns:inkscape="http://www.inkscape.org/namespaces/inkscape"
   xmlns:sodipodi="http://sodipodi.sourceforge.net/DTD/sodipodi-0.dtd"
   xmlns="http://www.w3.org/2000/svg"
   xmlns:svg="http://www.w3.org/2000/svg"><defs
   id="defs1737"><filter
     style="color-interpolation-filters:sRGB"
     inkscape:label="Drop Shadow"
     id="filter2220"
     x="-0.020060816"
     y="-0.02961352"
     width="1.0459751"
     height="1.0678679"><feFlood
       flood-opacity="0.498039"
       flood-color="rgb(0,0,0)"
       result="flood"
       id="feFlood2210" /><feComposite
       in="flood"
       in2="SourceGraphic"
       operator="in"
       result="composite1"
       id="feComposite2212" /><feGaussianBlur
       in="composite1"
       stdDeviation="6.68693"
       result="blur"
       id="feGaussianBlur2214" /><feOffset
       dx="4.68278"
       dy="4.68278"
       result="offset"
       id="feOffset2216" /><feComposite
       in="SourceGraphic"
       in2="offset"
       operator="over"
       result="composite2"
       id="feComposite2218" /></filter></defs><sodipodi:namedview
   id="namedview1735"
   pagecolor="#505050"
   bordercolor="#eeeeee"
   borderopacity="1"
   inkscape:pageshadow="0"
   inkscape:pageopacity="0"
   inkscape:pagecheckerboard="0"
   showgrid="false"
   inkscape:zoom="0.80784382"
   inkscape:cx="-185.06052"
   inkscape:cy="304.51431"
   inkscape:window-width="2400"
   inkscape:window-height="1261"
   inkscape:window-x="-2409"
   inkscape:window-y="-462"
   inkscape:window-maximized="1"
   inkscape:current-layer="Layer_1"
   fit-margin-top="0"
   fit-margin-left="0"
   fit-margin-right="0"
   fit-margin-bottom="0" />
<path
   style="fill:#fff8ef"
   d="m 268,108.7 c -3.1,-2.8 -6.4,-5.7 -9.3,-8.4 -5.8,-5.8 -14,-9.1 -22.5,-9.1 -6.4,0 -12.6,1.8 -18.1,5.4 L 151.5,141 h 142.1 l 2,-9.6 c -4.9,-2.1 -17.5,-13.5 -27.6,-22.7 z"
   id="path1658" />
<path
   style="fill:#cc9966"
   d="M 397,181 V 147 H 56 C 42.2,147 29.6,141.7 19.5,131.7 L 11,123.2 v 35.7 l 1.5,1.5 c 4.7,4.7 24,19.8 78.5,20.6 v 6 C 61.1,186.5 36.7,181.3 18.3,171.6 l -5.9,8 c 0.8,0.8 1.7,1.4 2.8,2 l 10.2,122.1 c 1.8,19.6 10.7,36.5 25.1,47.5 l 0.1,0.1 c 18.4,13.3 41.9,20.4 69.6,20.9 h 7.7 269 v -74 H 279.2 C 264.8,298.2 253,286.4 253,272 V 239.2 C 253,224.8 264.8,213 279.2,213 H 397 v -26 h -80 v -6 z m -250,6 h -30 v -6 h 30 z m 136,0 H 181 v -6 h 102 z"
   id="path1660" />
<g
   id="g1666"
   transform="translate(-12.016)">
	<path
   style="fill:#b37d4d"
   d="m 29.616,158.4 -1.6,-22.4 v 20.8 c 0.8,0.8 0.8,0.8 1.6,1.6 z"
   id="path1662" />
	<path
   style="fill:#b37d4d"
   d="m 132.416,367.2 v 0 c 2.5,0.1 5,0.1 7.6,0 v 0 z"
   id="path1664" />
</g>
<path
   style="fill:#fff8ef"
   d="m 296,243 c -7.2,0 -13,5.8 -13,13 0,7.2 5.8,13 13,13 7.2,0 13,-5.8 13,-13 0,-7.2 -5.8,-13 -13,-13 z"
   id="path1668" />
<g
   id="g1676"
   transform="translate(-12.016)">
	<path
   style="fill:#b37d4d"
   d="m 167.216,51 h -99.2 c -9.5,0 -19.4,3.3 -27,9 l -12,9 h 123.8 z"
   id="path1670" />
	<polygon
   style="fill:#b37d4d"
   points="353.016,75 353.016,69 385.016,69 385.016,51 298.016,51 365.516,141 385.016,141 385.016,75 "
   id="polygon1672" />
	<path
   style="fill:#b37d4d"
   d="m 291.216,219.8 c -11.1,0 -20.2,9.1 -20.2,20.2 v 32.8 c 0,10.3 9,19.9 19.7,21 h 0.2 142 v -74 z m 16.8,55.2 c -10.8,0 -19,-8.2 -19,-19 0,-10.8 8.2,-19 19,-19 10.8,0 19,8.2 19,19 0,10.8 -8.2,19 -19,19 z"
   id="path1674" />
</g>
<g
   id="g1686"
   transform="translate(-12.016)">
	<polygon
   style="fill:#7ac943"
   points="223.916,430 145.316,393.1 139.316,400.7 173.316,444.1 "
   id="polygon1678" />
	<polygon
   style="fill:#7ac943"
   points="325.516,379 152.016,379 149.916,388.5 267.716,444.5 "
   id="polygon1680" />
	<polygon
   style="fill:#7ac943"
   points="204.816,12 129.616,110.6 136.716,117.5 235.916,37.6 "
   id="polygon1682" />
	<path
   style="fill:#7ac943"
   d="m 155.316,141 102.9,-79.4 c 0.3,-0.2 0.8,-0.4 1.6,-0.4 1.2,0 2.3,0.5 2.6,1 l 63.2,78.8 h 32.3 L 268.116,20.1 116.916,141 Z"
   id="path1684" />
</g>
<path
   style="fill:#996632"
   d="m 56,141 h 30.3 l 16.2,-18.9 -14.8,3.4 -0.5,0.1 c -4.1,0.9 -8,1.4 -11.6,1.4 v 0 C 50.3,127 45.2,104 45,103 v -0.2 l -0.1,-0.2 C 42.6,94.8 42.8,86.3 43.5,80.6 L 44,75 H 15.6 l -1.1,3.4 C 12.8,83.5 11,89.6 11,96 c 0,25.2 19.8,45 45,45 z"
   id="path1688" />
<g
   id="g1694"
   transform="translate(-12.016)">
	<path
   style="fill:#b37d4d"
   d="m 52.016,104 c 0,0 7.1,35.7 48.2,26.5 l 39,-50.5 h -88.8 c -0.8,7.2 -0.8,16 1.6,24 z"
   id="path1690" />
	<path
   style="fill:#b37d4d"
   d="m 132.416,367.2 v 0 h -50 c -29.6,0.8 -54.4,-24 -54.4,-53.6 v -0.8 c 0,30.4 24.8,54.4 54.4,54.4 h 50 c -32.4,-0.7 -53.4,-10.3 -66.8,-20 -13.6,-10.4 -21.6,-26.4 -23.2,-44 l -10.4,-124.8 c -1.6,-0.8 -3.2,-1.6 -4,-2.4 2.6,1.4 5.7,2.9 9.2,4.3 l -0.4,-5.1 -2.5,-1.3 c -0.9,-0.4 -2.4,-1.2 -2.7,-1.5 l -8.5,-8.5 v 148.9 c 0,32.8 26.6,59.4 59.4,59.4 h 50 z"
   id="path1692" />
</g>
<path
   style="fill:#cc9966"
   d="m 16,312.8 v 0.8 c 0,29.6 24.8,54.4 54.4,53.6 h 50 v 0 h -50 C 40.8,367.2 16,343.2 16,312.8 Z"
   id="path1696" />
<path
   style="fill:#e0cbb5"
   d="m 248,68.2 -70.2,54.2 -12.8,9.6 5.8,8.2 6.2,-4.2 h -9 l 52.8,-35.2 c 11.2,-7.2 25.6,-5.6 34.4,3.2 13.6,12 31.2,28.8 38.4,32 h -9.2 c 2.9,2.1 5.3,3.7 7.2,4.6 l 1,0.4 h 13.9 z"
   id="path1698" />
<polygon
   style="fill:#fff8ef"
   points="179.216,136 180.016,136 192.816,126.4 258.716,75.6 258.416,75.2 "
   id="polygon1700"
   transform="translate(-12.016)" />
<path
   style="fill:#42210b"
   d="m 176,176 h 112 v 16 H 176 Z m 112,80 c 0,4 4,8 8,8 4,0 8,-4 8,-8 0,-4 -4,-8 -8,-8 -4,0 -8,4 -8,8 z m 32,0 c 0,13.6 -10.4,24 -24,24 -13.6,0 -24,-10.4 -24,-24 0,-13.6 10.4,-24 24,-24 13.6,0 24,10.4 24,24 z M 112,176 h 40 v 16 h -40 z m 85.6,252.8 -66.4,-31.2 32,40.8 z M 56,56 c -8.8,0 -16.8,3.2 -24,8 h 107.2 l 6.4,-8 z m 160,-18.4 -23.2,-18.4 -72,94.4 z M 140,384 254.4,438.4 302.4,384 Z M 246.4,75.2 167.2,136 h 128 z m 8,-16 61.6,76.8 h 20 L 254.4,27.2 119.2,136 h 22.4 L 243.2,57.6 c 3.2,-2.4 8,-2.4 11.2,1.6 z M 16,96 c 0,22.4 17.6,40 40,40 H 84 L 127.2,80 H 19.2 C 17.6,84.8 16,90.4 16,96 Z m 40,56 c -16,0 -29.6,-6.4 -40,-16.8 v 21.6 c 4.8,4.8 24.8,19.2 80,19.2 v 16 c -42.4,0 -66.4,-8 -80,-16 v 136.8 c 0,30.4 24.8,54.4 54.4,54.4 H 392 v -64 H 279.2 C 261.6,303.2 248,288.8 248,272 V 239.2 C 248,221.6 262.4,208 279.2,208 H 392 v -16 h -80 v -16 h 80 v -24 h -16 -16 z m 360,72 H 279.2 c -8.8,0 -15.2,7.2 -15.2,15.2 V 272 c 0,8.8 7.2,15.2 15.2,15.2 H 416 Z m -60,-88 h 4 8 V 80 H 336 V 64 h 32 v -8 h -72 z m 52,8 v 64 h 16 c 4,0 8,4 8,8 v 80 c 0,4 -4,8 -8,8 h -16 v 72 c 0,4 -4,8 -8,8 h -76 l -61.6,69.6 c -2.4,2.4 -6.4,3.2 -9.6,1.6 l -34.4,-16.8 v 0.8 l -56,16 c -0.8,0 -1.6,0 -2.4,0 -2.4,0 -4.8,-0.8 -6.4,-3.2 L 100,384 H 70.4 C 32,384 0,352 0,313.6 V 88 H 0.8 C 4.8,60.8 28,40 56,40 h 101.6 l 28,-36.8 c 1.6,-1.6 3.2,-3.2 5.6,-3.2 2.4,0 4,0 5.6,1.6 l 32,25.6 22.4,-17.6 c 1.6,-0.8 4,-1.6 5.6,-1.6 2.4,0 4,1.6 5.6,3.2 L 284,40 h 92 c 4,0 8,3.2 8,8 v 88 h 16 c 4,0 8,4 8,8 z"
   id="path1702" />
<g
   id="g1704"
   transform="translate(-12.016)">
</g>
<g
   id="g1706"
   transform="translate(-12.016)">
</g>
<g
   id="g1708"
   transform="translate(-12.016)">
</g>
<g
   id="g1710"
   transform="translate(-12.016)">
</g>
<g
   id="g1712"
   transform="translate(-12.016)">
</g>
<g
   id="g1714"
   transform="translate(-12.016)">
</g>
<g
   id="g1716"
   transform="translate(-12.016)">
</g>
<g
   id="g1718"
   transform="translate(-12.016)">
</g>
<g
   id="g1720"
   transform="translate(-12.016)">
</g>
<g
   id="g1722"
   transform="translate(-12.016)">
</g>
<g
   id="g1724"
   transform="translate(-12.016)">
</g>
<g
   id="g1726"
   transform="translate(-12.016)">
</g>
<g
   id="g1728"
   transform="translate(-12.016)">
</g>
<g
   id="g1730"
   transform="translate(-12.016)">
</g>
<g
   id="g1732"
   transform="translate(-12.016)">
</g>
<g
   id="g2135"
   transform="matrix(0.282252,0,0,0.282252,220.72851,266.64611)"
   style="filter:url(#filter2220)">
	<path
   fill="#ffffff"
   d="m 412.37,326.882 h -46.486 v 31.535 h 408.31 V 326.882 H 463.982 c -7.126,0 -12.902,-5.775 -12.902,-12.903 h -25.807 c 0,7.127 -5.777,12.903 -12.903,12.903 z"
   id="path2001" />
	<path
   fill="#ffffff"
   d="m 645.161,543.363 c 0,7.128 -5.777,12.903 -12.903,12.903 H 25.807 v 31.553 h 748.387 v -31.553 h -90.322 c -7.126,0 -12.903,-5.775 -12.903,-12.903 v 0 z"
   id="path2003" />
	<rect
   x="25.806999"
   y="441.58301"
   fill="#ffffff"
   width="748.38702"
   height="31.535"
   id="rect2005" />
	<rect
   x="365.884"
   y="212.181"
   fill="#ffffff"
   width="408.31"
   height="31.552999"
   id="rect2007" />
	<rect
   x="24.806999"
   y="612.62598"
   fill="#ed1f34"
   width="750.38702"
   height="33.535"
   id="rect2009" />
	<rect
   x="25.806999"
   y="613.62598"
   fill="#ed1f34"
   width="748.38702"
   height="31.535"
   id="rect2011" />
	<path
   fill="#ed1f34"
   d="m 644.161,544.363 v -1 c 0,-6.563 -5.34,-11.903 -11.903,-11.903 H 24.807 v -33.535 h 750.387 v 33.535 h -91.322 c -6.563,0 -11.903,5.34 -11.903,11.903 v 1 z"
   id="path2013" />
	<path
   fill="#ed1f34"
   d="m 25.807,498.925 v 31.535 h 606.451 c 7.126,0 12.903,5.775 12.903,12.903 h 25.807 c 0,-7.128 5.777,-12.903 12.903,-12.903 h 90.322 v -31.535 z"
   id="path2015" />
	<rect
   x="364.884"
   y="383.224"
   fill="#ed1f34"
   width="410.31"
   height="33.553001"
   id="rect2017" />
	<rect
   x="365.884"
   y="384.224"
   fill="#ed1f34"
   width="408.31"
   height="31.552999"
   id="rect2019" />
	<path
   fill="#ed1f34"
   d="m 424.273,314.979 v -1 c 0,-6.563 -5.34,-11.903 -11.903,-11.903 H 364.884 V 268.54 h 410.31 v 33.535 H 463.982 c -6.563,0 -11.902,5.34 -11.902,11.903 v 1 h -27.807 z"
   id="path2021" />
	<path
   fill="#ed1f34"
   d="m 365.884,269.54 v 31.535 h 46.486 c 7.126,0 12.903,5.775 12.903,12.903 h 25.807 c 0,-7.128 5.776,-12.903 12.902,-12.903 H 774.193 V 269.54 Z"
   id="path2023" />
	<rect
   x="364.884"
   y="153.839"
   fill="#ed1f34"
   width="410.31"
   height="33.535"
   id="rect2025" />
	<rect
   x="365.884"
   y="154.839"
   fill="#ed1f34"
   width="408.31"
   height="31.535"
   id="rect2027" />
	<path
   fill="#164fce"
   d="M 24.807,416.776 V 153.839 H 341.078 V 416.777 H 24.807 Z m 286.032,-40.662 c -4.571,0 -8.29,3.719 -8.29,8.291 0,4.572 3.719,8.291 8.29,8.291 4.571,0 8.29,-3.719 8.29,-8.291 0,-4.572 -3.719,-8.291 -8.29,-8.291 z m -51.159,0 c -4.571,0 -8.291,3.719 -8.291,8.291 0,4.572 3.719,8.291 8.291,8.291 4.572,0 8.29,-3.719 8.29,-8.291 0,-4.572 -3.719,-8.291 -8.29,-8.291 z m -51.159,0 c -4.571,0 -8.291,3.719 -8.291,8.291 0,4.572 3.719,8.291 8.291,8.291 4.572,0 8.29,-3.719 8.29,-8.291 0,-4.572 -3.718,-8.291 -8.29,-8.291 z m -51.158,0 c -4.571,0 -8.291,3.719 -8.291,8.291 0,4.572 3.719,8.291 8.291,8.291 4.572,0 8.29,-3.719 8.29,-8.291 0,-4.572 -3.719,-8.291 -8.29,-8.291 z m -51.159,0 c -4.571,0 -8.291,3.719 -8.291,8.291 0,4.572 3.719,8.291 8.291,8.291 4.572,0 8.29,-3.719 8.29,-8.291 0,-4.572 -3.719,-8.291 -8.29,-8.291 z m -51.159,0 c -4.571,0 -8.29,3.719 -8.29,8.291 0,4.572 3.719,8.291 8.29,8.291 4.571,0 8.291,-3.719 8.291,-8.291 0,-4.572 -3.72,-8.291 -8.291,-8.291 z M 285.259,351.34 c -4.571,0 -8.29,3.719 -8.29,8.29 0,4.571 3.719,8.291 8.29,8.291 4.571,0 8.291,-3.719 8.291,-8.291 0,-4.572 -3.719,-8.29 -8.291,-8.29 z m -51.158,0 c -4.571,0 -8.29,3.719 -8.29,8.29 0,4.571 3.719,8.291 8.29,8.291 4.571,0 8.291,-3.719 8.291,-8.291 0,-4.572 -3.72,-8.29 -8.291,-8.29 z m -51.159,0 c -4.571,0 -8.291,3.719 -8.291,8.29 0,4.571 3.719,8.291 8.291,8.291 4.572,0 8.291,-3.719 8.291,-8.291 0,-4.572 -3.72,-8.29 -8.291,-8.29 z m -51.159,0 c -4.571,0 -8.291,3.719 -8.291,8.29 0,4.571 3.719,8.291 8.291,8.291 4.572,0 8.291,-3.719 8.291,-8.291 0,-4.572 -3.72,-8.29 -8.291,-8.29 z m -51.158,0 c -4.571,0 -8.291,3.719 -8.291,8.29 0,4.571 3.719,8.291 8.291,8.291 4.572,0 8.291,-3.719 8.291,-8.291 0,-4.572 -3.72,-8.29 -8.291,-8.29 z m 230.214,-24.775 c -4.571,0 -8.29,3.718 -8.29,8.289 0,4.571 3.719,8.291 8.29,8.291 4.571,0 8.29,-3.719 8.29,-8.291 0,-4.57 -3.719,-8.289 -8.29,-8.289 z m -51.159,0 c -4.571,0 -8.291,3.718 -8.291,8.289 0,4.571 3.719,8.291 8.291,8.291 4.572,0 8.29,-3.719 8.29,-8.291 0,-4.57 -3.719,-8.289 -8.29,-8.289 z m -51.159,0 c -4.571,0 -8.291,3.718 -8.291,8.289 0,4.571 3.719,8.291 8.291,8.291 4.572,0 8.29,-3.719 8.29,-8.291 0.001,-4.57 -3.718,-8.289 -8.29,-8.289 z m -51.158,0 c -4.571,0 -8.291,3.718 -8.291,8.289 0,4.571 3.719,8.291 8.291,8.291 4.572,0 8.29,-3.719 8.29,-8.291 0,-4.57 -3.719,-8.289 -8.29,-8.289 z m -51.159,0 c -4.571,0 -8.291,3.718 -8.291,8.289 0,4.571 3.719,8.291 8.291,8.291 4.572,0 8.29,-3.719 8.29,-8.291 0,-4.57 -3.719,-8.289 -8.29,-8.289 z m -51.159,0 c -4.571,0 -8.29,3.718 -8.29,8.289 0,4.571 3.719,8.291 8.29,8.291 4.571,0 8.291,-3.719 8.291,-8.291 -10e-4,-4.57 -3.72,-8.289 -8.291,-8.289 z m 230.214,-24.773 c -4.571,0 -8.29,3.719 -8.29,8.29 0,4.571 3.719,8.291 8.29,8.291 4.571,0 8.291,-3.719 8.291,-8.291 0,-4.572 -3.719,-8.29 -8.291,-8.29 z m -51.158,0 c -4.571,0 -8.29,3.719 -8.29,8.29 0,4.571 3.719,8.291 8.29,8.291 4.571,0 8.291,-3.719 8.291,-8.291 0,-4.572 -3.72,-8.29 -8.291,-8.29 z m -51.159,0 c -4.571,0 -8.291,3.719 -8.291,8.29 0,4.571 3.719,8.291 8.291,8.291 4.572,0 8.291,-3.719 8.291,-8.291 0,-4.572 -3.72,-8.29 -8.291,-8.29 z m -51.159,0 c -4.571,0 -8.291,3.719 -8.291,8.29 0,4.571 3.719,8.291 8.291,8.291 4.572,0 8.291,-3.719 8.291,-8.291 0,-4.572 -3.72,-8.29 -8.291,-8.29 z m -51.158,0 c -4.571,0 -8.291,3.719 -8.291,8.29 0,4.571 3.719,8.291 8.291,8.291 4.572,0 8.291,-3.719 8.291,-8.291 0,-4.572 -3.72,-8.29 -8.291,-8.29 z m 230.214,-24.775 c -4.571,0 -8.29,3.719 -8.29,8.291 0,4.572 3.719,8.29 8.29,8.29 4.571,0 8.29,-3.719 8.29,-8.29 0,-4.571 -3.719,-8.291 -8.29,-8.291 z m -51.159,0 c -4.571,0 -8.291,3.719 -8.291,8.291 0,4.572 3.719,8.29 8.291,8.29 4.572,0 8.29,-3.719 8.29,-8.29 0,-4.571 -3.719,-8.291 -8.29,-8.291 z m -51.159,0 c -4.571,0 -8.291,3.719 -8.291,8.291 0,4.572 3.719,8.29 8.291,8.29 4.572,0 8.29,-3.719 8.29,-8.29 0,-4.571 -3.718,-8.291 -8.29,-8.291 z m -51.158,0 c -4.571,0 -8.291,3.719 -8.291,8.291 0,4.572 3.719,8.29 8.291,8.29 4.572,0 8.29,-3.719 8.29,-8.29 0,-4.571 -3.719,-8.291 -8.29,-8.291 z m -51.159,0 c -4.571,0 -8.291,3.719 -8.291,8.291 0,4.572 3.719,8.29 8.291,8.29 4.572,0 8.29,-3.719 8.29,-8.29 0,-4.571 -3.719,-8.291 -8.29,-8.291 z m -51.159,0 c -4.571,0 -8.29,3.719 -8.29,8.291 0,4.572 3.719,8.29 8.29,8.29 4.571,0 8.291,-3.719 8.291,-8.29 0,-4.571 -3.72,-8.291 -8.291,-8.291 z m 230.214,-24.774 c -4.571,0 -8.29,3.719 -8.29,8.29 0,4.571 3.719,8.291 8.29,8.291 4.571,0 8.291,-3.719 8.291,-8.291 0,-4.572 -3.719,-8.29 -8.291,-8.29 z m -51.158,0 c -4.571,0 -8.29,3.719 -8.29,8.29 0,4.571 3.719,8.291 8.29,8.291 4.571,0 8.291,-3.719 8.291,-8.291 0,-4.572 -3.72,-8.29 -8.291,-8.29 z m -51.159,0 c -4.571,0 -8.291,3.719 -8.291,8.29 0,4.571 3.719,8.291 8.291,8.291 4.572,0 8.291,-3.719 8.291,-8.291 0,-4.572 -3.72,-8.29 -8.291,-8.29 z m -51.159,0 c -4.571,0 -8.291,3.719 -8.291,8.29 0,4.571 3.719,8.291 8.291,8.291 4.572,0 8.291,-3.719 8.291,-8.291 0,-4.572 -3.72,-8.29 -8.291,-8.29 z m -51.158,0 c -4.571,0 -8.291,3.719 -8.291,8.29 0,4.571 3.719,8.291 8.291,8.291 4.572,0 8.291,-3.719 8.291,-8.291 0,-4.572 -3.72,-8.29 -8.291,-8.29 z m 230.214,-24.774 c -4.571,0 -8.29,3.719 -8.29,8.291 0,4.572 3.719,8.29 8.29,8.29 4.571,0 8.29,-3.719 8.29,-8.29 0,-4.571 -3.719,-8.291 -8.29,-8.291 z m -51.159,0 c -4.571,0 -8.291,3.719 -8.291,8.291 0,4.572 3.719,8.29 8.291,8.29 4.572,0 8.29,-3.719 8.29,-8.29 0,-4.571 -3.719,-8.291 -8.29,-8.291 z m -51.159,0 c -4.571,0 -8.291,3.719 -8.291,8.291 0,4.572 3.719,8.29 8.291,8.29 4.572,0 8.29,-3.719 8.29,-8.29 0,-4.571 -3.718,-8.291 -8.29,-8.291 z m -51.158,0 c -4.571,0 -8.291,3.719 -8.291,8.291 0,4.572 3.719,8.29 8.291,8.29 4.572,0 8.29,-3.719 8.29,-8.29 0,-4.571 -3.719,-8.291 -8.29,-8.291 z m -51.159,0 c -4.571,0 -8.291,3.719 -8.291,8.291 0,4.572 3.719,8.29 8.291,8.29 4.572,0 8.29,-3.719 8.29,-8.29 0,-4.571 -3.719,-8.291 -8.29,-8.291 z m -51.159,0 c -4.571,0 -8.29,3.719 -8.29,8.291 0,4.572 3.719,8.29 8.29,8.29 4.571,0 8.291,-3.719 8.291,-8.29 0,-4.571 -3.72,-8.291 -8.291,-8.291 z m 230.214,-24.774 c -4.571,0 -8.29,3.719 -8.29,8.29 0,4.571 3.719,8.291 8.29,8.291 4.571,0 8.291,-3.719 8.291,-8.291 0,-4.572 -3.719,-8.29 -8.291,-8.29 z m -51.158,0 c -4.571,0 -8.29,3.719 -8.29,8.29 0,4.571 3.719,8.291 8.29,8.291 4.571,0 8.291,-3.719 8.291,-8.291 0,-4.572 -3.72,-8.29 -8.291,-8.29 z m -51.159,0 c -4.571,0 -8.291,3.719 -8.291,8.29 0,4.571 3.719,8.291 8.291,8.291 4.572,0 8.291,-3.719 8.291,-8.291 0,-4.572 -3.72,-8.29 -8.291,-8.29 z m -51.159,0 c -4.571,0 -8.291,3.719 -8.291,8.29 0,4.571 3.719,8.291 8.291,8.291 4.572,0 8.291,-3.719 8.291,-8.291 0,-4.572 -3.72,-8.29 -8.291,-8.29 z m -51.158,0 c -4.571,0 -8.291,3.719 -8.291,8.29 0,4.571 3.719,8.291 8.291,8.291 4.572,0 8.291,-3.719 8.291,-8.291 0,-4.572 -3.72,-8.29 -8.291,-8.29 z M 310.839,177.92 c -4.571,0 -8.29,3.719 -8.29,8.291 0,4.572 3.719,8.29 8.29,8.29 4.571,0 8.29,-3.719 8.29,-8.29 0,-4.571 -3.719,-8.291 -8.29,-8.291 z m -51.159,0 c -4.571,0 -8.291,3.719 -8.291,8.291 0,4.572 3.719,8.29 8.291,8.29 4.572,0 8.29,-3.719 8.29,-8.29 0,-4.571 -3.719,-8.291 -8.29,-8.291 z m -51.159,0 c -4.571,0 -8.291,3.719 -8.291,8.291 0,4.572 3.719,8.29 8.291,8.29 4.572,0 8.29,-3.719 8.29,-8.29 0,-4.571 -3.718,-8.291 -8.29,-8.291 z m -51.158,0 c -4.571,0 -8.291,3.719 -8.291,8.291 0,4.572 3.719,8.29 8.291,8.29 4.572,0 8.29,-3.719 8.29,-8.29 0,-4.571 -3.719,-8.291 -8.29,-8.291 z m -51.159,0 c -4.571,0 -8.291,3.719 -8.291,8.291 0,4.572 3.719,8.29 8.291,8.29 4.572,0 8.29,-3.719 8.29,-8.29 0,-4.571 -3.719,-8.291 -8.29,-8.291 z m -51.159,0 c -4.571,0 -8.29,3.719 -8.29,8.291 0,4.572 3.719,8.29 8.29,8.29 4.571,0 8.291,-3.719 8.291,-8.29 0,-4.571 -3.72,-8.291 -8.291,-8.291 z"
   id="path2029" />
	<path
   fill="#164fce"
   d="M 25.807,415.776 H 340.078 V 154.839 H 25.807 Z M 310.839,176.92 c 5.13,0 9.29,4.158 9.29,9.291 0,5.13 -4.16,9.29 -9.29,9.29 -5.131,0 -9.29,-4.16 -9.29,-9.29 0,-5.132 4.158,-9.291 9.29,-9.291 z m 0,49.549 c 5.13,0 9.29,4.16 9.29,9.291 0,5.131 -4.16,9.29 -9.29,9.29 -5.131,0 -9.29,-4.158 -9.29,-9.29 0,-5.131 4.158,-9.291 9.29,-9.291 z m 0,49.548 c 5.13,0 9.29,4.159 9.29,9.291 0,5.132 -4.16,9.29 -9.29,9.29 -5.131,0 -9.29,-4.158 -9.29,-9.29 0,-5.132 4.158,-9.291 9.29,-9.291 z m 0,49.548 c 5.13,0 9.29,4.158 9.29,9.289 0,5.131 -4.16,9.291 -9.29,9.291 -5.131,0 -9.29,-4.158 -9.29,-9.291 0,-5.128 4.158,-9.289 9.29,-9.289 z m 0,49.549 c 5.13,0 9.29,4.159 9.29,9.291 0,5.132 -4.16,9.291 -9.29,9.291 -5.131,0 -9.29,-4.159 -9.29,-9.291 0,-5.132 4.158,-9.291 9.29,-9.291 z m -25.58,-173.419 c 5.13,0 9.291,4.158 9.291,9.29 0,5.132 -4.16,9.291 -9.291,9.291 -5.131,0 -9.29,-4.158 -9.29,-9.291 0,-5.132 4.158,-9.29 9.29,-9.29 z m 0,49.548 c 5.13,0 9.291,4.158 9.291,9.29 0,5.13 -4.16,9.291 -9.291,9.291 -5.131,0 -9.29,-4.16 -9.29,-9.291 0,-5.131 4.158,-9.29 9.29,-9.29 z m 0,49.549 c 5.13,0 9.291,4.16 9.291,9.29 0,5.13 -4.16,9.291 -9.291,9.291 -5.131,0 -9.29,-4.158 -9.29,-9.291 0,-5.131 4.158,-9.29 9.29,-9.29 z m 0,49.548 c 5.13,0 9.291,4.158 9.291,9.29 0,5.132 -4.16,9.291 -9.291,9.291 -5.131,0 -9.29,-4.158 -9.29,-9.291 0,-5.132 4.158,-9.29 9.29,-9.29 z M 259.68,176.92 c 5.13,0 9.29,4.158 9.29,9.291 0,5.13 -4.16,9.29 -9.29,9.29 -5.13,0 -9.291,-4.16 -9.291,-9.29 10e-4,-5.132 4.161,-9.291 9.291,-9.291 z m 0,49.549 c 5.13,0 9.29,4.16 9.29,9.291 0,5.131 -4.16,9.29 -9.29,9.29 -5.13,0 -9.291,-4.158 -9.291,-9.29 10e-4,-5.131 4.161,-9.291 9.291,-9.291 z m 0,49.548 c 5.13,0 9.29,4.159 9.29,9.291 0,5.132 -4.16,9.29 -9.29,9.29 -5.13,0 -9.291,-4.158 -9.291,-9.29 0,-5.132 4.161,-9.291 9.291,-9.291 z m 0,49.548 c 5.13,0 9.29,4.158 9.29,9.289 0,5.131 -4.16,9.291 -9.29,9.291 -5.13,0 -9.291,-4.158 -9.291,-9.291 10e-4,-5.128 4.161,-9.289 9.291,-9.289 z m 0,49.549 c 5.13,0 9.29,4.159 9.29,9.291 0,5.132 -4.16,9.291 -9.29,9.291 -5.13,0 -9.291,-4.159 -9.291,-9.291 0,-5.132 4.161,-9.291 9.291,-9.291 z M 234.101,201.695 c 5.13,0 9.291,4.158 9.291,9.29 0,5.132 -4.16,9.291 -9.291,9.291 -5.131,0 -9.29,-4.158 -9.29,-9.291 0,-5.132 4.159,-9.29 9.29,-9.29 z m 0,49.548 c 5.13,0 9.291,4.158 9.291,9.29 0,5.13 -4.16,9.291 -9.291,9.291 -5.131,0 -9.29,-4.16 -9.29,-9.291 0,-5.131 4.159,-9.29 9.29,-9.29 z m 0,49.549 c 5.13,0 9.291,4.16 9.291,9.29 0,5.13 -4.16,9.291 -9.291,9.291 -5.131,0 -9.29,-4.158 -9.29,-9.291 0,-5.131 4.159,-9.29 9.29,-9.29 z m 0,49.548 c 5.13,0 9.291,4.158 9.291,9.29 0,5.132 -4.16,9.291 -9.291,9.291 -5.131,0 -9.29,-4.158 -9.29,-9.291 0,-5.132 4.159,-9.29 9.29,-9.29 z m -25.58,-173.42 c 5.13,0 9.29,4.158 9.29,9.291 0,5.13 -4.16,9.29 -9.29,9.29 -5.13,0 -9.291,-4.16 -9.291,-9.29 0.001,-5.132 4.161,-9.291 9.291,-9.291 z m 0,49.549 c 5.13,0 9.29,4.16 9.29,9.291 0,5.131 -4.16,9.29 -9.29,9.29 -5.13,0 -9.291,-4.158 -9.291,-9.29 0.001,-5.131 4.161,-9.291 9.291,-9.291 z m 0,49.548 c 5.13,0 9.29,4.159 9.29,9.291 0,5.132 -4.16,9.29 -9.29,9.29 -5.13,0 -9.291,-4.158 -9.291,-9.29 0,-5.132 4.161,-9.291 9.291,-9.291 z m 0,49.548 c 5.13,0 9.29,4.158 9.29,9.289 0,5.131 -4.16,9.291 -9.29,9.291 -5.13,0 -9.291,-4.158 -9.291,-9.291 0.001,-5.128 4.161,-9.289 9.291,-9.289 z m 0,49.549 c 5.13,0 9.29,4.159 9.29,9.291 0,5.132 -4.16,9.291 -9.29,9.291 -5.13,0 -9.291,-4.159 -9.291,-9.291 0,-5.132 4.161,-9.291 9.291,-9.291 z M 182.942,201.695 c 5.13,0 9.291,4.158 9.291,9.29 0,5.132 -4.16,9.291 -9.291,9.291 -5.131,0 -9.291,-4.158 -9.291,-9.291 0,-5.132 4.161,-9.29 9.291,-9.29 z m 0,49.548 c 5.13,0 9.291,4.158 9.291,9.29 0,5.13 -4.16,9.291 -9.291,9.291 -5.131,0 -9.291,-4.16 -9.291,-9.291 0,-5.131 4.161,-9.29 9.291,-9.29 z m 0,49.549 c 5.13,0 9.291,4.16 9.291,9.29 0,5.13 -4.16,9.291 -9.291,9.291 -5.131,0 -9.291,-4.158 -9.291,-9.291 0,-5.131 4.161,-9.29 9.291,-9.29 z m 0,49.548 c 5.13,0 9.291,4.158 9.291,9.29 0,5.132 -4.16,9.291 -9.291,9.291 -5.131,0 -9.291,-4.158 -9.291,-9.291 0,-5.132 4.161,-9.29 9.291,-9.29 z M 157.363,176.92 c 5.13,0 9.29,4.158 9.29,9.291 0,5.13 -4.16,9.29 -9.29,9.29 -5.13,0 -9.291,-4.16 -9.291,-9.29 0,-5.132 4.16,-9.291 9.291,-9.291 z m 0,49.549 c 5.13,0 9.29,4.16 9.29,9.291 0,5.131 -4.16,9.29 -9.29,9.29 -5.13,0 -9.291,-4.158 -9.291,-9.29 0,-5.131 4.16,-9.291 9.291,-9.291 z m 0,49.548 c 5.13,0 9.29,4.159 9.29,9.291 0,5.132 -4.16,9.29 -9.29,9.29 -5.13,0 -9.291,-4.158 -9.291,-9.29 0,-5.132 4.16,-9.291 9.291,-9.291 z m 0,49.548 c 5.13,0 9.29,4.158 9.29,9.289 0,5.131 -4.16,9.291 -9.29,9.291 -5.13,0 -9.291,-4.158 -9.291,-9.291 0,-5.128 4.16,-9.289 9.291,-9.289 z m 0,49.549 c 5.13,0 9.29,4.159 9.29,9.291 0,5.132 -4.16,9.291 -9.29,9.291 -5.13,0 -9.291,-4.159 -9.291,-9.291 0,-5.132 4.16,-9.291 9.291,-9.291 z m -25.58,-173.419 c 5.13,0 9.291,4.158 9.291,9.29 0,5.132 -4.16,9.291 -9.291,9.291 -5.131,0 -9.291,-4.158 -9.291,-9.291 10e-4,-5.132 4.161,-9.29 9.291,-9.29 z m 0,49.548 c 5.13,0 9.291,4.158 9.291,9.29 0,5.13 -4.16,9.291 -9.291,9.291 -5.131,0 -9.291,-4.16 -9.291,-9.291 0,-5.131 4.161,-9.29 9.291,-9.29 z m 0,49.549 c 5.13,0 9.291,4.16 9.291,9.29 0,5.13 -4.16,9.291 -9.291,9.291 -5.131,0 -9.291,-4.158 -9.291,-9.291 10e-4,-5.131 4.161,-9.29 9.291,-9.29 z m 0,49.548 c 5.13,0 9.291,4.158 9.291,9.29 0,5.132 -4.16,9.291 -9.291,9.291 -5.131,0 -9.291,-4.158 -9.291,-9.291 10e-4,-5.132 4.161,-9.29 9.291,-9.29 z M 106.204,176.92 c 5.13,0 9.29,4.158 9.29,9.291 0,5.13 -4.16,9.29 -9.29,9.29 -5.13,0 -9.291,-4.16 -9.291,-9.29 0.001,-5.132 4.161,-9.291 9.291,-9.291 z m 0,49.549 c 5.13,0 9.29,4.16 9.29,9.291 0,5.131 -4.16,9.29 -9.29,9.29 -5.13,0 -9.291,-4.158 -9.291,-9.29 0.001,-5.131 4.161,-9.291 9.291,-9.291 z m 0,49.548 c 5.13,0 9.29,4.159 9.29,9.291 0,5.132 -4.16,9.29 -9.29,9.29 -5.13,0 -9.291,-4.158 -9.291,-9.29 0,-5.132 4.161,-9.291 9.291,-9.291 z m 0,49.548 c 5.13,0 9.29,4.158 9.29,9.289 0,5.131 -4.16,9.291 -9.29,9.291 -5.13,0 -9.291,-4.158 -9.291,-9.291 0.001,-5.128 4.161,-9.289 9.291,-9.289 z m 0,49.549 c 5.13,0 9.29,4.159 9.29,9.291 0,5.132 -4.16,9.291 -9.29,9.291 -5.13,0 -9.291,-4.159 -9.291,-9.291 0,-5.132 4.161,-9.291 9.291,-9.291 z M 80.625,201.695 c 5.13,0 9.291,4.158 9.291,9.29 0,5.132 -4.16,9.291 -9.291,9.291 -5.131,0 -9.291,-4.158 -9.291,-9.291 0,-5.132 4.16,-9.29 9.291,-9.29 z m 0,49.548 c 5.13,0 9.291,4.158 9.291,9.29 0,5.13 -4.16,9.291 -9.291,9.291 -5.131,0 -9.291,-4.16 -9.291,-9.291 0,-5.131 4.16,-9.29 9.291,-9.29 z m 0,49.549 c 5.13,0 9.291,4.16 9.291,9.29 0,5.13 -4.16,9.291 -9.291,9.291 -5.131,0 -9.291,-4.158 -9.291,-9.291 0,-5.131 4.16,-9.29 9.291,-9.29 z m 0,49.548 c 5.13,0 9.291,4.158 9.291,9.29 0,5.132 -4.16,9.291 -9.291,9.291 -5.131,0 -9.291,-4.158 -9.291,-9.291 0,-5.132 4.16,-9.29 9.291,-9.29 z M 55.045,176.92 c 5.13,0 9.291,4.158 9.291,9.291 0,5.13 -4.16,9.29 -9.291,9.29 -5.13,0 -9.29,-4.16 -9.29,-9.29 0,-5.132 4.16,-9.291 9.29,-9.291 z m 0,49.549 c 5.13,0 9.291,4.16 9.291,9.291 0,5.131 -4.16,9.29 -9.291,9.29 -5.13,0 -9.29,-4.158 -9.29,-9.29 0,-5.131 4.16,-9.291 9.29,-9.291 z m 0,49.548 c 5.13,0 9.291,4.159 9.291,9.291 0,5.132 -4.16,9.29 -9.291,9.29 -5.13,0 -9.29,-4.158 -9.29,-9.29 0,-5.132 4.16,-9.291 9.29,-9.291 z m 0,49.548 c 5.13,0 9.291,4.158 9.291,9.289 0,5.131 -4.16,9.291 -9.291,9.291 -5.13,0 -9.29,-4.158 -9.29,-9.291 0,-5.128 4.16,-9.289 9.29,-9.289 z m 0,49.549 c 5.13,0 9.291,4.159 9.291,9.291 0,5.132 -4.16,9.291 -9.291,9.291 -5.13,0 -9.29,-4.159 -9.29,-9.291 0,-5.132 4.16,-9.291 9.29,-9.291 z"
   id="path2031" />
	<path
   d="M 787.097,129.032 H 12.903 C 5.777,129.032 0,134.808 0,141.936 v 516.129 c 0,7.128 5.777,12.903 12.903,12.903 h 774.193 c 7.126,0 12.903,-5.775 12.903,-12.903 V 141.936 C 800,134.808 794.223,129.032 787.097,129.032 Z M 463.982,301.075 c -7.126,0 -12.902,5.775 -12.902,12.903 0,7.128 5.776,12.903 12.902,12.903 h 310.211 v 31.535 h -408.31 v -31.535 h 46.486 c 7.126,0 12.903,-5.775 12.903,-12.903 0,-7.128 -5.777,-12.903 -12.903,-12.903 H 365.883 V 269.54 h 408.31 v 31.535 H 463.982 Z M 683.871,530.46 c -7.126,0 -12.903,5.775 -12.903,12.903 v 0 c 0,7.128 5.777,12.903 12.903,12.903 h 90.322 v 31.553 H 25.807 v -31.553 h 606.451 c 7.126,0 12.903,-5.775 12.903,-12.903 v 0 c 0,-7.128 -5.777,-12.903 -12.903,-12.903 H 25.807 V 498.925 H 774.194 V 530.46 Z M 25.807,473.118 v -31.535 h 748.387 v 31.535 z m 340.077,-57.342 v -31.553 h 408.31 v 31.553 z m 0,-172.043 V 212.18 h 408.31 v 31.553 z m 408.309,-57.359 h -408.31 v -31.535 h 408.31 z M 340.077,415.776 H 25.807 V 154.839 H 340.078 V 415.776 Z M 25.807,645.161 v -31.535 h 748.387 v 31.535 z"
   id="path2033" />
	<circle
   fill="#ffffff"
   cx="80.625"
   cy="359.63"
   r="9.29"
   id="circle2035" />
	<circle
   fill="#ffffff"
   cx="131.783"
   cy="359.63"
   r="9.29"
   id="circle2037" />
	<circle
   fill="#ffffff"
   cx="182.942"
   cy="359.63"
   r="9.29"
   id="circle2039" />
	<circle
   fill="#ffffff"
   cx="234.101"
   cy="359.63"
   r="9.29"
   id="circle2041" />
	<circle
   fill="#ffffff"
   cx="285.259"
   cy="359.63"
   r="9.29"
   id="circle2043" />
	<circle
   fill="#ffffff"
   cx="55.044998"
   cy="384.40399"
   r="9.2910004"
   id="circle2045" />
	<circle
   fill="#ffffff"
   cx="106.204"
   cy="384.40399"
   r="9.2910004"
   id="circle2047" />
	<circle
   fill="#ffffff"
   cx="157.36301"
   cy="384.40399"
   r="9.2910004"
   id="circle2049" />
	<circle
   fill="#ffffff"
   cx="208.521"
   cy="384.40399"
   r="9.2910004"
   id="circle2051" />
	<circle
   fill="#ffffff"
   cx="259.67999"
   cy="384.40399"
   r="9.2910004"
   id="circle2053" />
	<circle
   fill="#ffffff"
   cx="310.83899"
   cy="384.40399"
   r="9.2910004"
   id="circle2055" />
	<circle
   fill="#ffffff"
   cx="55.044998"
   cy="334.85599"
   r="9.29"
   id="circle2057" />
	<circle
   fill="#ffffff"
   cx="106.204"
   cy="334.85599"
   r="9.29"
   id="circle2059" />
	<circle
   fill="#ffffff"
   cx="157.36301"
   cy="334.85599"
   r="9.29"
   id="circle2061" />
	<circle
   fill="#ffffff"
   cx="208.521"
   cy="334.85599"
   r="9.29"
   id="circle2063" />
	<circle
   fill="#ffffff"
   cx="259.67999"
   cy="334.85599"
   r="9.29"
   id="circle2065" />
	<circle
   fill="#ffffff"
   cx="310.83899"
   cy="334.85599"
   r="9.29"
   id="circle2067" />
	<circle
   fill="#ffffff"
   cx="80.625"
   cy="310.082"
   r="9.29"
   id="circle2069" />
	<circle
   fill="#ffffff"
   cx="131.783"
   cy="310.082"
   r="9.29"
   id="circle2071" />
	<circle
   fill="#ffffff"
   cx="182.942"
   cy="310.082"
   r="9.29"
   id="circle2073" />
	<circle
   fill="#ffffff"
   cx="234.101"
   cy="310.082"
   r="9.29"
   id="circle2075" />
	<circle
   fill="#ffffff"
   cx="285.259"
   cy="310.082"
   r="9.29"
   id="circle2077" />
	<circle
   fill="#ffffff"
   cx="55.044998"
   cy="285.30701"
   r="9.29"
   id="circle2079" />
	<circle
   fill="#ffffff"
   cx="106.204"
   cy="285.30701"
   r="9.29"
   id="circle2081" />
	<circle
   fill="#ffffff"
   cx="157.36301"
   cy="285.30701"
   r="9.29"
   id="circle2083" />
	<circle
   fill="#ffffff"
   cx="208.521"
   cy="285.30701"
   r="9.29"
   id="circle2085" />
	<circle
   fill="#ffffff"
   cx="259.67999"
   cy="285.30701"
   r="9.29"
   id="circle2087" />
	<circle
   fill="#ffffff"
   cx="310.83899"
   cy="285.30701"
   r="9.29"
   id="circle2089" />
	<circle
   fill="#ffffff"
   cx="80.625"
   cy="260.53299"
   r="9.29"
   id="circle2091" />
	<circle
   fill="#ffffff"
   cx="131.783"
   cy="260.53299"
   r="9.29"
   id="circle2093" />
	<circle
   fill="#ffffff"
   cx="182.942"
   cy="260.53299"
   r="9.29"
   id="circle2095" />
	<circle
   fill="#ffffff"
   cx="234.101"
   cy="260.53299"
   r="9.29"
   id="circle2097" />
	<circle
   fill="#ffffff"
   cx="285.259"
   cy="260.53299"
   r="9.29"
   id="circle2099" />
	<circle
   fill="#ffffff"
   cx="55.044998"
   cy="235.759"
   r="9.29"
   id="circle2101" />
	<circle
   fill="#ffffff"
   cx="106.204"
   cy="235.759"
   r="9.29"
   id="circle2103" />
	<circle
   fill="#ffffff"
   cx="157.36301"
   cy="235.759"
   r="9.29"
   id="circle2105" />
	<circle
   fill="#ffffff"
   cx="208.521"
   cy="235.759"
   r="9.29"
   id="circle2107" />
	<circle
   fill="#ffffff"
   cx="259.67999"
   cy="235.759"
   r="9.29"
   id="circle2109" />
	<circle
   fill="#ffffff"
   cx="310.83899"
   cy="235.759"
   r="9.29"
   id="circle2111" />
	<circle
   fill="#ffffff"
   cx="80.625"
   cy="210.985"
   r="9.29"
   id="circle2113" />
	<circle
   fill="#ffffff"
   cx="131.783"
   cy="210.985"
   r="9.29"
   id="circle2115" />
	<circle
   fill="#ffffff"
   cx="182.942"
   cy="210.985"
   r="9.29"
   id="circle2117" />
	<circle
   fill="#ffffff"
   cx="234.101"
   cy="210.985"
   r="9.29"
   id="circle2119" />
	<circle
   fill="#ffffff"
   cx="285.259"
   cy="210.985"
   r="9.29"
   id="circle2121" />
	<circle
   fill="#ffffff"
   cx="55.044998"
   cy="186.211"
   r="9.29"
   id="circle2123" />
	<circle
   fill="#ffffff"
   cx="106.204"
   cy="186.211"
   r="9.29"
   id="circle2125" />
	<circle
   fill="#ffffff"
   cx="157.36301"
   cy="186.211"
   r="9.29"
   id="circle2127" />
	<circle
   fill="#ffffff"
   cx="208.521"
   cy="186.211"
   r="9.29"
   id="circle2129" />
	<circle
   fill="#ffffff"
   cx="259.67999"
   cy="186.211"
   r="9.29"
   id="circle2131" />
	<circle
   fill="#ffffff"
   cx="310.83899"
   cy="186.211"
   r="9.29"
   id="circle2133" />
</g></svg>
