<?xml version="1.0" encoding="UTF-8"?>
<svg width="540" height="264" version="1.1" viewBox="0 0 540 264" xmlns="http://www.w3.org/2000/svg" xmlns:xlink="http://www.w3.org/1999/xlink">
 <title>VoPay Logo White</title>
 <g data-name="Layer 2">
  <g fill="#fff" data-name="Layer 1">
   <g transform="matrix(.76801 0 0 .76801 27.138 -108.95)">
    <path d="m204.35 326.68c-1.29 2.49-2.46 4.81-3.69 7.11-1.05 1.95-2.18 3.86-3.23 5.82q-7.52 14.16-15.08 28.33l-8.84 16.57-11.65 21.77q-4.44 8.26-8.85 16.56c-0.21 0.39-0.61 0.71-0.71 1.12-0.63 2.53-2.4 2.67-4.63 2.66-7.47 0-14.95 0.2-22.42 0.23-2.64 0-5.28-0.27-8.09-0.42-0.29-2.18-0.59-4.42-0.88-6.66-0.4-3-0.8-6.07-1.17-9.11-0.34-2.8-0.61-5.61-0.95-8.41-0.37-3-0.8-6.07-1.17-9.11-0.34-2.85-0.6-5.71-0.95-8.57s-0.75-5.68-1.1-8.52c-0.26-2.06-0.45-4.13-0.71-6.19-0.36-2.9-0.78-5.78-1.14-8.67s-0.62-5.71-1-8.56-0.79-6-1.15-9-0.62-5.71-1-8.56c-0.25-2.06-0.57-4.11-0.81-6.17a19.36 19.36 0 0 1 0-2.17h27.71c0.3 3.57 0.56 7.12 0.9 10.66 0.36 3.9 0.81 7.79 1.17 11.68 0.25 2.73 0.39 5.46 0.64 8.18 0.36 4.1 0.8 8.19 1.17 12.29 0.24 2.57 0.4 5.15 0.63 7.72 0.39 4.3 0.81 8.59 1.19 12.89 0.24 2.77 0.4 5.55 0.62 8.32a31.09 31.09 0 0 0 0.73 5q2-4.22 4.09-8.42c0.54-1.11 1-2.25 1.56-3.35q5.25-10.78 10.51-21.56 4.09-8.46 8.15-16.93 6.15-12.56 12.15-25.13a2.1 2.1 0 0 1 2.23-1.39c8.51 0.02 17-0.01 25.77-0.01z"/>
    <path d="m306.22 391.86-6.87 34.8h-26.84q9.84-49.89 19.84-99.98h1.52c12.72 0 25.45-0.16 38.16 0.06 7.23 0.12 14.38 1.2 21 4.5a18.33 18.33 0 0 1 10.52 14.73 42 42 0 0 1-1.44 16.47 37 37 0 0 1-10.62 18.33 39.25 39.25 0 0 1-15.58 8.72 67.64 67.64 0 0 1-20.31 2.38c-3.15-0.04-6.25-0.01-9.38-0.01zm3.22-17.94c4.49-0.16 8.94 0 13.28-0.56a14.12 14.12 0 0 0 10.41-6.55 20 20 0 0 0 3.09-12.59 9 9 0 0 0-6.07-8.29c-4.87-1.87-9.88-1.32-14.91-1.45-1.89 9.8-3.84 19.48-5.8 29.44z"/>
    <path d="m271 380.33a53.32 53.32 0 0 1-5.68 23 44 44 0 0 1-13.57 15.75c-6.14 4.58-13.09 7.15-20.48 8.66a51.08 51.08 0 0 1-6.66 0.65 63.93 63.93 0 0 1-7.18 0.28c-6.84-0.34-13.63-1.12-19.73-4.53-7.27-4.07-12-10.13-13.54-18.45a42.14 42.14 0 0 1 0.27-15.39 47.66 47.66 0 0 1 7.65-19.32 45.35 45.35 0 0 1 27.62-18.63 63.46 63.46 0 0 1 13.26-1.55 60.44 60.44 0 0 1 15.6 1.28c11 2.61 18.72 9.21 21.55 20.44a58.08 58.08 0 0 1 0.89 7.81zm-48 30.22c5.38 0.41 9.56-2 13.09-5.59a24.35 24.35 0 0 0 5.26-8.14c2.19-5.54 3.56-11.19 2.63-17.2a13.93 13.93 0 0 0-3.72-8.19c-3.94-3.82-8.79-3.79-13.62-2.49-6.58 1.74-10.53 6.64-13.29 12.38a30.21 30.21 0 0 0-2.93 18.15 14.25 14.25 0 0 0 4.63 8.61 10.09 10.09 0 0 0 7.91 2.47z"/>
    <path d="m442.19 352.7h27.61q3 25.31 6.09 50.46h0.34q3.74-7.47 7.48-14.95c5.3-10.61 10.78-21.13 15.77-31.89 1.46-3.16 3.13-3.9 6.33-3.79 7.08 0.26 14.18 0.08 21.54 0.08-1.25 2.14-2.39 4.13-3.58 6.1q-5.68 9.49-11.41 19-7 11.66-14 23.31c-3.65 6.07-7.28 12.16-11 18.19-4.37 7.07-8.69 14.19-13.31 21.09a40 40 0 0 1-16.49 14.17 32.14 32.14 0 0 1-11.6 3.18 84.71 84.71 0 0 1-9.14 0.27c-3.34-0.15-6.66-0.7-10.27-1.1 2.09-6.54 4.08-12.78 6.12-19.13 1.63 0.34 3.21 0.69 4.79 1a18.13 18.13 0 0 0 12.19-2c2.92-1.53 5-4 7.15-6.46 0.93-1.07 0.65-2.19 0.43-3.31-2.28-11.17-4.62-22.34-6.88-33.51-1.77-8.73-3.44-17.47-5.18-26.2-0.93-4.82-1.96-9.62-2.98-14.51z"/>
    <path d="m407.61 379.79c1.79-5.93-0.85-10.81-7.25-12.37a33.72 33.72 0 0 0-18.15 0.74c-4.32 1.33-8.58 2.81-13 4.28 0.21-1.39 0.4-2.82 0.65-4.24 0.67-3.88 1.34-7.76 2.09-11.62a1.94 1.94 0 0 1 1.08-1.28c5.07-1.35 10.14-2.76 15.27-3.84 6.2-1.29 12.55-1.21 18.82-0.86 6.45 0.35 12.74 1.78 17.86 6.12a17.63 17.63 0 0 1 5.75 9.81 40.75 40.75 0 0 1 0.62 13.18c-0.9 9-3.13 17.74-4.85 26.58-1.23 6.37-2.43 12.76-3.66 19.14-0.08 0.43-0.24 0.85-0.35 1.25h-22.02c0.52-3.75 1-7.28 1.5-10.87-1.59 1.44-3.11 2.93-4.76 4.28a29.28 29.28 0 0 1-13.93 6.42 70.05 70.05 0 0 1-11.57 0.9c-5.15 0-10-1.5-13.83-5.12a15.59 15.59 0 0 1-4.7-9.18 27.28 27.28 0 0 1 3-16.93 24.76 24.76 0 0 1 9.24-9.67c5.06-3.14 10.72-4.56 16.54-5.52 8.07-1.33 16.21-1.22 24.35-1.2zm-2.18 13c-6.49-0.21-12.79-0.32-18.84 1.55-5.18 1.6-9.25 4.88-9 11.16a6.08 6.08 0 0 0 4 5.63 15.91 15.91 0 0 0 8.94 0.15 18.51 18.51 0 0 0 10.62-7 22.18 22.18 0 0 0 4.28-11.45z"/>
   </g>
   <path d="m312.01 47.532c2.6353-1.1106 5.2141-0.11922 5.5341 2.9051a39.052 39.052 0 0 1-0.15686 6.6259c-0.13177 2.0016-0.3953 3.9969-0.62745 5.9921q-0.41412 3.2941-0.91609 6.582l-5.0823 28.455a23.065 23.065 0 0 1-4.3357 9.349 28.467 28.467 0 0 1-7.8306 7.1969c-2.811 1.7631-5.7914 3.1372-9.1608 3.4322l-48.314 0.42037c-2.8424-0.18822-5.7035-0.48939-8.2761-1.8008a19.074 19.074 0 0 1-7.9749-7.5294c-2.1772-3.658-2.7357-7.6612-2.4031-11.809l7.0588-46.864c1.0855-6.5569 4.3545-11.865 9.3239-16.113a24.866 24.866 0 0 1 13.183-6.08l36.856 0.03137c1.7945 0.17569 3.6957-0.0502 4.3168 1.9325a6.5882 6.5882 0 0 1 0.0753 3.6831l-26.598 49.349a5.1263 5.1263 0 0 1-0.62745 0.71529v-8.0188c0.044-3.2439 0.16314-6.4878 0.20078-9.7318 0.0941-7.0023 0.15059-14.005 0.21961-21.013v-1.2173h-22.136v0.9851l0.43293 60.172h1.3867q15.736 0 31.467 0a1.2925 1.2925 0 0 0 1.3867-0.77803z" stroke-width=".62745"/>
  </g>
 </g>
</svg>
