<?xml version="1.0" encoding="UTF-8" standalone="no"?>
<!-- Generator: Adobe Illustrator 19.0.0, SVG Export Plug-In . SVG Version: 6.00 Build 0)  -->

<svg
   version="1.1"
   id="Layer_1"
   x="0px"
   y="0px"
   viewBox="0 0 452.3813 461.87963"
   xml:space="preserve"
   sodipodi:docname="cad_wallet.svg"
   inkscape:version="1.1.2 (0a00cf5339, 2022-02-04, custom)"
   width="45"
   height="46"
   xmlns:inkscape="http://www.inkscape.org/namespaces/inkscape"
   xmlns:sodipodi="http://sodipodi.sourceforge.net/DTD/sodipodi-0.dtd"
   xmlns="http://www.w3.org/2000/svg"
   xmlns:svg="http://www.w3.org/2000/svg"><defs
   id="defs1737"><filter
     style="color-interpolation-filters:sRGB"
     inkscape:label="Drop Shadow"
     id="filter2220"
     x="-0.020060816"
     y="-0.02961352"
     width="1.0459751"
     height="1.0678679"><feFlood
       flood-opacity="0.498039"
       flood-color="rgb(0,0,0)"
       result="flood"
       id="feFlood2210" /><feComposite
       in="flood"
       in2="SourceGraphic"
       operator="in"
       result="composite1"
       id="feComposite2212" /><feGaussianBlur
       in="composite1"
       stdDeviation="6.68693"
       result="blur"
       id="feGaussianBlur2214" /><feOffset
       dx="4.68278"
       dy="4.68278"
       result="offset"
       id="feOffset2216" /><feComposite
       in="SourceGraphic"
       in2="offset"
       operator="over"
       result="composite2"
       id="feComposite2218" /></filter><filter
     style="color-interpolation-filters:sRGB;"
     inkscape:label="Drop Shadow"
     id="filter2921"
     x="-0.020060816"
     y="-0.02961352"
     width="1.0459751"
     height="1.0678679"><feFlood
       flood-opacity="0.498039"
       flood-color="rgb(0,0,0)"
       result="flood"
       id="feFlood2911" /><feComposite
       in="flood"
       in2="SourceGraphic"
       operator="in"
       result="composite1"
       id="feComposite2913" /><feGaussianBlur
       in="composite1"
       stdDeviation="6.68693"
       result="blur"
       id="feGaussianBlur2915" /><feOffset
       dx="4.68278"
       dy="4.68278"
       result="offset"
       id="feOffset2917" /><feComposite
       in="SourceGraphic"
       in2="offset"
       operator="over"
       result="composite2"
       id="feComposite2919" /></filter></defs><sodipodi:namedview
   id="namedview1735"
   pagecolor="#505050"
   bordercolor="#eeeeee"
   borderopacity="1"
   inkscape:pageshadow="0"
   inkscape:pageopacity="0"
   inkscape:pagecheckerboard="0"
   showgrid="false"
   inkscape:zoom="2.2849274"
   inkscape:cx="200.44401"
   inkscape:cy="338.30397"
   inkscape:window-width="2400"
   inkscape:window-height="1261"
   inkscape:window-x="-2409"
   inkscape:window-y="-462"
   inkscape:window-maximized="1"
   inkscape:current-layer="Layer_1"
   fit-margin-top="0"
   fit-margin-left="0"
   fit-margin-right="0"
   fit-margin-bottom="0" />
<path
   style="fill:#fff8ef"
   d="m 268,108.7 c -3.1,-2.8 -6.4,-5.7 -9.3,-8.4 -5.8,-5.8 -14,-9.1 -22.5,-9.1 -6.4,0 -12.6,1.8 -18.1,5.4 L 151.5,141 h 142.1 l 2,-9.6 c -4.9,-2.1 -17.5,-13.5 -27.6,-22.7 z"
   id="path1658" />
<path
   style="fill:#cc9966"
   d="M 397,181 V 147 H 56 C 42.2,147 29.6,141.7 19.5,131.7 L 11,123.2 v 35.7 l 1.5,1.5 c 4.7,4.7 24,19.8 78.5,20.6 v 6 C 61.1,186.5 36.7,181.3 18.3,171.6 l -5.9,8 c 0.8,0.8 1.7,1.4 2.8,2 l 10.2,122.1 c 1.8,19.6 10.7,36.5 25.1,47.5 l 0.1,0.1 c 18.4,13.3 41.9,20.4 69.6,20.9 h 7.7 269 v -74 H 279.2 C 264.8,298.2 253,286.4 253,272 V 239.2 C 253,224.8 264.8,213 279.2,213 H 397 v -26 h -80 v -6 z m -250,6 h -30 v -6 h 30 z m 136,0 H 181 v -6 h 102 z"
   id="path1660" />
<g
   id="g1666"
   transform="translate(-12.016)">
	<path
   style="fill:#b37d4d"
   d="m 29.616,158.4 -1.6,-22.4 v 20.8 c 0.8,0.8 0.8,0.8 1.6,1.6 z"
   id="path1662" />
	<path
   style="fill:#b37d4d"
   d="m 132.416,367.2 v 0 c 2.5,0.1 5,0.1 7.6,0 v 0 z"
   id="path1664" />
</g>
<path
   style="fill:#fff8ef"
   d="m 296,243 c -7.2,0 -13,5.8 -13,13 0,7.2 5.8,13 13,13 7.2,0 13,-5.8 13,-13 0,-7.2 -5.8,-13 -13,-13 z"
   id="path1668" />
<g
   id="g1676"
   transform="translate(-12.016)">
	<path
   style="fill:#b37d4d"
   d="m 167.216,51 h -99.2 c -9.5,0 -19.4,3.3 -27,9 l -12,9 h 123.8 z"
   id="path1670" />
	<polygon
   style="fill:#b37d4d"
   points="353.016,75 353.016,69 385.016,69 385.016,51 298.016,51 365.516,141 385.016,141 385.016,75 "
   id="polygon1672" />
	<path
   style="fill:#b37d4d"
   d="m 291.216,219.8 c -11.1,0 -20.2,9.1 -20.2,20.2 v 32.8 c 0,10.3 9,19.9 19.7,21 h 0.2 142 v -74 z m 16.8,55.2 c -10.8,0 -19,-8.2 -19,-19 0,-10.8 8.2,-19 19,-19 10.8,0 19,8.2 19,19 0,10.8 -8.2,19 -19,19 z"
   id="path1674" />
</g>
<g
   id="g1686"
   transform="translate(-12.016)">
	<polygon
   style="fill:#7ac943"
   points="223.916,430 145.316,393.1 139.316,400.7 173.316,444.1 "
   id="polygon1678" />
	<polygon
   style="fill:#7ac943"
   points="325.516,379 152.016,379 149.916,388.5 267.716,444.5 "
   id="polygon1680" />
	<polygon
   style="fill:#7ac943"
   points="204.816,12 129.616,110.6 136.716,117.5 235.916,37.6 "
   id="polygon1682" />
	<path
   style="fill:#7ac943"
   d="m 155.316,141 102.9,-79.4 c 0.3,-0.2 0.8,-0.4 1.6,-0.4 1.2,0 2.3,0.5 2.6,1 l 63.2,78.8 h 32.3 L 268.116,20.1 116.916,141 Z"
   id="path1684" />
</g>
<path
   style="fill:#996632"
   d="m 56,141 h 30.3 l 16.2,-18.9 -14.8,3.4 -0.5,0.1 c -4.1,0.9 -8,1.4 -11.6,1.4 v 0 C 50.3,127 45.2,104 45,103 v -0.2 l -0.1,-0.2 C 42.6,94.8 42.8,86.3 43.5,80.6 L 44,75 H 15.6 l -1.1,3.4 C 12.8,83.5 11,89.6 11,96 c 0,25.2 19.8,45 45,45 z"
   id="path1688" />
<g
   id="g1694"
   transform="translate(-12.016)">
	<path
   style="fill:#b37d4d"
   d="m 52.016,104 c 0,0 7.1,35.7 48.2,26.5 l 39,-50.5 h -88.8 c -0.8,7.2 -0.8,16 1.6,24 z"
   id="path1690" />
	<path
   style="fill:#b37d4d"
   d="m 132.416,367.2 v 0 h -50 c -29.6,0.8 -54.4,-24 -54.4,-53.6 v -0.8 c 0,30.4 24.8,54.4 54.4,54.4 h 50 c -32.4,-0.7 -53.4,-10.3 -66.8,-20 -13.6,-10.4 -21.6,-26.4 -23.2,-44 l -10.4,-124.8 c -1.6,-0.8 -3.2,-1.6 -4,-2.4 2.6,1.4 5.7,2.9 9.2,4.3 l -0.4,-5.1 -2.5,-1.3 c -0.9,-0.4 -2.4,-1.2 -2.7,-1.5 l -8.5,-8.5 v 148.9 c 0,32.8 26.6,59.4 59.4,59.4 h 50 z"
   id="path1692" />
</g>
<path
   style="fill:#cc9966"
   d="m 16,312.8 v 0.8 c 0,29.6 24.8,54.4 54.4,53.6 h 50 v 0 h -50 C 40.8,367.2 16,343.2 16,312.8 Z"
   id="path1696" />
<path
   style="fill:#e0cbb5"
   d="m 248,68.2 -70.2,54.2 -12.8,9.6 5.8,8.2 6.2,-4.2 h -9 l 52.8,-35.2 c 11.2,-7.2 25.6,-5.6 34.4,3.2 13.6,12 31.2,28.8 38.4,32 h -9.2 c 2.9,2.1 5.3,3.7 7.2,4.6 l 1,0.4 h 13.9 z"
   id="path1698" />
<polygon
   style="fill:#fff8ef"
   points="179.216,136 180.016,136 192.816,126.4 258.716,75.6 258.416,75.2 "
   id="polygon1700"
   transform="translate(-12.016)" />
<path
   style="fill:#42210b"
   d="m 176,176 h 112 v 16 H 176 Z m 112,80 c 0,4 4,8 8,8 4,0 8,-4 8,-8 0,-4 -4,-8 -8,-8 -4,0 -8,4 -8,8 z m 32,0 c 0,13.6 -10.4,24 -24,24 -13.6,0 -24,-10.4 -24,-24 0,-13.6 10.4,-24 24,-24 13.6,0 24,10.4 24,24 z M 112,176 h 40 v 16 h -40 z m 85.6,252.8 -66.4,-31.2 32,40.8 z M 56,56 c -8.8,0 -16.8,3.2 -24,8 h 107.2 l 6.4,-8 z m 160,-18.4 -23.2,-18.4 -72,94.4 z M 140,384 254.4,438.4 302.4,384 Z M 246.4,75.2 167.2,136 h 128 z m 8,-16 61.6,76.8 h 20 L 254.4,27.2 119.2,136 h 22.4 L 243.2,57.6 c 3.2,-2.4 8,-2.4 11.2,1.6 z M 16,96 c 0,22.4 17.6,40 40,40 H 84 L 127.2,80 H 19.2 C 17.6,84.8 16,90.4 16,96 Z m 40,56 c -16,0 -29.6,-6.4 -40,-16.8 v 21.6 c 4.8,4.8 24.8,19.2 80,19.2 v 16 c -42.4,0 -66.4,-8 -80,-16 v 136.8 c 0,30.4 24.8,54.4 54.4,54.4 H 392 v -64 H 279.2 C 261.6,303.2 248,288.8 248,272 V 239.2 C 248,221.6 262.4,208 279.2,208 H 392 v -16 h -80 v -16 h 80 v -24 h -16 -16 z m 360,72 H 279.2 c -8.8,0 -15.2,7.2 -15.2,15.2 V 272 c 0,8.8 7.2,15.2 15.2,15.2 H 416 Z m -60,-88 h 4 8 V 80 H 336 V 64 h 32 v -8 h -72 z m 52,8 v 64 h 16 c 4,0 8,4 8,8 v 80 c 0,4 -4,8 -8,8 h -16 v 72 c 0,4 -4,8 -8,8 h -76 l -61.6,69.6 c -2.4,2.4 -6.4,3.2 -9.6,1.6 l -34.4,-16.8 v 0.8 l -56,16 c -0.8,0 -1.6,0 -2.4,0 -2.4,0 -4.8,-0.8 -6.4,-3.2 L 100,384 H 70.4 C 32,384 0,352 0,313.6 V 88 H 0.8 C 4.8,60.8 28,40 56,40 h 101.6 l 28,-36.8 c 1.6,-1.6 3.2,-3.2 5.6,-3.2 2.4,0 4,0 5.6,1.6 l 32,25.6 22.4,-17.6 c 1.6,-0.8 4,-1.6 5.6,-1.6 2.4,0 4,1.6 5.6,3.2 L 284,40 h 92 c 4,0 8,3.2 8,8 v 88 h 16 c 4,0 8,4 8,8 z"
   id="path1702" />
<g
   id="g1704"
   transform="translate(-12.016)">
</g>
<g
   id="g1706"
   transform="translate(-12.016)">
</g>
<g
   id="g1708"
   transform="translate(-12.016)">
</g>
<g
   id="g1710"
   transform="translate(-12.016)">
</g>
<g
   id="g1712"
   transform="translate(-12.016)">
</g>
<g
   id="g1714"
   transform="translate(-12.016)">
</g>
<g
   id="g1716"
   transform="translate(-12.016)">
</g>
<g
   id="g1718"
   transform="translate(-12.016)">
</g>
<g
   id="g1720"
   transform="translate(-12.016)">
</g>
<g
   id="g1722"
   transform="translate(-12.016)">
</g>
<g
   id="g1724"
   transform="translate(-12.016)">
</g>
<g
   id="g1726"
   transform="translate(-12.016)">
</g>
<g
   id="g1728"
   transform="translate(-12.016)">
</g>
<g
   id="g1730"
   transform="translate(-12.016)">
</g>
<g
   id="g1732"
   transform="translate(-12.016)">
</g>
<g
   id="g2909"
   transform="matrix(0.28296712,0,0,0.28296712,220.40377,266.47361)"
   style="filter:url(#filter2921)"><g
     id="g2847">
	<rect
   x="24.806999"
   y="153.838"
   style="fill:#ed1f34"
   width="148.23599"
   height="492.32199"
   id="rect2829" />
	<path
   style="fill:#ed1f34"
   d="M 626.957,646.16 V 262.365 c 0,-6.563 -5.34,-11.903 -11.903,-11.903 h -1 v -27.807 h 1 c 6.563,0 11.903,-5.339 11.903,-11.903 V 153.838 H 775.193 V 646.16 Z"
   id="path2831" />
	<path
   style="fill:#ed1f34"
   d="m 336.884,473.183 v -22.591 c 0,-3.589 -1.594,-6.949 -4.372,-9.22 l -62.878,-51.362 -2.582,-47.962 47.962,2.582 40.444,49.512 c 2.272,2.781 5.634,4.376 9.222,4.376 1.568,0 3.099,-0.306 4.551,-0.909 4.891,-2.026 7.82,-6.925 7.289,-12.191 l -8.608,-85.394 32.088,-35.741 32.088,35.74 -8.608,85.394 c -0.531,5.266 2.397,10.165 7.288,12.19 1.453,0.603 2.984,0.908 4.552,0.908 3.59,0 6.952,-1.594 9.223,-4.374 l 40.444,-49.512 47.962,-2.582 -2.583,47.962 -62.878,51.362 c -2.779,2.271 -4.373,5.632 -4.373,9.22 v 22.591 H 336.884 Z"
   id="path2833" />
	<path
   style="fill:#ffffff"
   d="M 602.15,210.752 V 154.838 H 197.85 V 645.16 h 404.3 V 262.365 c 0,-7.128 5.777,-12.903 12.903,-12.903 v -25.807 c -7.125,0 -12.903,-5.776 -12.903,-12.903 z m -30.546,177.6 -21.464,17.533 c -0.004,0.001 -0.006,0.005 -0.008,0.007 l -62.21,50.818 v 28.373 c 0,7.128 -5.777,12.903 -12.903,12.903 h -62.116 v 55.544 c 0,7.128 -5.777,12.903 -12.903,12.903 -7.126,0 -12.903,-5.775 -12.903,-12.903 v -55.544 h -62.114 c -7.126,0 -12.903,-5.775 -12.903,-12.903 V 456.71 l -62.211,-50.818 c -0.003,-0.002 -0.005,-0.006 -0.007,-0.007 l -21.464,-17.533 c -5.519,-4.509 -6.338,-12.638 -1.831,-18.157 4.208,-5.149 11.566,-6.202 17.017,-2.658 l -2.013,-37.395 c -0.196,-3.658 1.17,-7.228 3.761,-9.819 2.589,-2.591 6.161,-3.955 9.819,-3.761 l 37.396,2.013 c -3.545,-5.449 -2.491,-12.807 2.658,-17.015 5.518,-4.508 13.648,-3.688 18.156,1.829 l 17.532,21.462 c 0.004,0.003 0.006,0.005 0.009,0.009 l 16.639,20.37 -4.835,-47.955 -2.78,-27.585 c -0.714,-7.09 4.454,-13.417 11.544,-14.132 6.6,-0.685 12.564,3.789 13.912,10.152 l 25.02,-27.867 c 2.447,-2.726 5.938,-4.282 9.603,-4.282 3.664,0 7.153,1.557 9.602,4.282 l 25.02,27.867 c 1.348,-6.362 7.3,-10.837 13.912,-10.152 7.092,0.714 12.258,7.042 11.544,14.132 l -2.78,27.585 -4.835,47.955 16.639,-20.37 c 0.004,-0.003 0.005,-0.005 0.009,-0.009 l 17.533,-21.462 c 4.509,-5.517 12.636,-6.338 18.155,-1.829 5.151,4.208 6.204,11.566 2.658,17.015 l 37.396,-2.013 c 3.661,-0.186 7.228,1.17 9.819,3.761 2.591,2.591 3.957,6.161 3.761,9.819 l -2.014,37.395 c 5.451,-3.546 12.809,-2.491 17.018,2.658 4.5,5.52 3.681,13.647 -1.838,18.157 z"
   id="path2835" />
	<rect
   x="25.806999"
   y="154.838"
   style="fill:#ed1f34"
   width="146.23599"
   height="490.32199"
   id="rect2837" />
	<path
   style="fill:#ed1f34"
   d="m 627.957,210.752 c 0,7.127 -5.777,12.903 -12.903,12.903 v 25.807 c 7.126,0 12.903,5.775 12.903,12.903 V 645.16 H 774.193 V 154.838 H 627.957 Z"
   id="path2839" />
	<path
   d="M 787.097,129.031 H 12.903 C 5.777,129.031 0,134.807 0,141.935 v 516.129 c 0,7.128 5.777,12.903 12.903,12.903 h 774.193 c 7.126,0 12.903,-5.775 12.903,-12.903 V 141.935 C 800,134.807 794.223,129.031 787.097,129.031 Z M 774.193,645.16 H 627.957 V 262.365 c 0,-7.128 -5.777,-12.903 -12.903,-12.903 -7.126,0 -12.903,5.775 -12.903,12.903 V 645.16 H 197.85 V 154.838 h 404.3 v 55.914 c 0,7.127 5.777,12.903 12.903,12.903 7.126,0 12.903,-5.775 12.903,-12.903 V 154.838 H 774.192 Z M 25.807,154.838 H 172.043 V 645.16 H 25.807 Z"
   id="path2841" />
	<path
   d="m 556.418,367.538 2.013,-37.396 c 0.196,-3.658 -1.17,-7.228 -3.761,-9.818 -2.591,-2.59 -6.155,-3.947 -9.818,-3.761 l -37.396,2.013 c 3.545,-5.449 2.49,-12.807 -2.658,-17.015 -5.52,-4.507 -13.646,-3.688 -18.156,1.829 l -17.533,21.462 c -0.003,0.003 -0.005,0.005 -0.008,0.008 l -16.639,20.37 4.834,-47.956 2.781,-27.585 c 0.714,-7.09 -4.455,-13.418 -11.545,-14.132 -6.611,-0.685 -12.565,3.79 -13.911,10.152 L 409.6,237.843 c -2.446,-2.725 -5.937,-4.282 -9.602,-4.282 -3.664,0 -7.153,1.557 -9.602,4.282 l -25.021,27.868 c -1.347,-6.364 -7.313,-10.837 -13.911,-10.152 -7.092,0.714 -12.258,7.042 -11.544,14.132 l 2.78,27.585 4.834,47.956 -16.638,-20.37 c -0.004,-0.003 -0.006,-0.005 -0.009,-0.008 l -17.533,-21.462 c -4.507,-5.518 -12.638,-6.338 -18.155,-1.829 -5.151,4.208 -6.204,11.566 -2.658,17.015 l -37.397,-2.013 c -3.656,-0.195 -7.228,1.17 -9.818,3.761 -2.591,2.591 -3.957,6.161 -3.761,9.818 l 2.013,37.396 c -5.449,-3.546 -12.809,-2.491 -17.017,2.658 -4.507,5.52 -3.688,13.648 1.831,18.158 l 21.464,17.532 c 0.003,0.002 0.005,0.006 0.007,0.008 l 62.211,50.817 v 28.374 c 0,7.127 5.777,12.903 12.903,12.903 h 62.119 v 55.544 c 0,7.128 5.777,12.903 12.903,12.903 7.126,0 12.903,-5.775 12.903,-12.903 V 497.99 h 62.114 c 7.126,0 12.903,-5.776 12.903,-12.903 v -28.374 l 62.211,-50.817 c 0.003,-0.002 0.005,-0.006 0.007,-0.008 l 21.464,-17.532 c 5.52,-4.509 6.338,-12.638 1.831,-18.158 -4.205,-5.151 -11.564,-6.206 -17.014,-2.66 z m -94.304,83.052 v 21.592 H 337.884 V 450.59 c 0,-3.874 -1.741,-7.542 -4.739,-9.994 l -62.536,-51.083 -2.498,-46.409 46.408,2.498 40.165,49.17 c 3.603,4.409 9.673,5.94 14.932,3.757 5.262,-2.18 8.472,-7.549 7.9,-13.214 L 368.952,300.36 400,265.778 l 31.049,34.583 -8.564,84.955 c -0.571,5.665 2.639,11.035 7.9,13.214 5.261,2.183 11.327,0.654 14.932,-3.757 l 40.165,-49.17 46.408,-2.498 -2.498,46.409 -62.536,51.083 c -3.001,2.451 -4.742,6.119 -4.742,9.993 z"
   id="path2843" />
	<path
   style="fill:#ed1f34"
   d="m 531.89,343.106 -46.408,2.498 -40.165,49.17 c -3.603,4.41 -9.671,5.939 -14.932,3.757 -5.262,-2.18 -8.472,-7.549 -7.9,-13.214 L 431.049,300.362 400,265.78 l -31.049,34.583 8.564,84.955 c 0.571,5.666 -2.639,11.035 -7.9,13.214 -5.259,2.185 -11.327,0.654 -14.932,-3.757 l -40.165,-49.17 -46.408,-2.498 2.498,46.409 62.536,51.083 c 3,2.451 4.739,6.12 4.739,9.994 v 21.591 h 124.23 v -21.591 c 0,-3.875 1.741,-7.543 4.74,-9.994 l 62.536,-51.083 z"
   id="path2845" />
</g><g
     id="g2849">
</g><g
     id="g2851">
</g><g
     id="g2853">
</g><g
     id="g2855">
</g><g
     id="g2857">
</g><g
     id="g2859">
</g><g
     id="g2861">
</g><g
     id="g2863">
</g><g
     id="g2865">
</g><g
     id="g2867">
</g><g
     id="g2869">
</g><g
     id="g2871">
</g><g
     id="g2873">
</g><g
     id="g2875">
</g><g
     id="g2877">
</g></g></svg>
