<?xml version="1.0" encoding="UTF-8" standalone="no"?>
<svg
   width="860"
   height="22"
   fill="none"
   stroke-linecap="square"
   stroke-miterlimit="10"
   version="1.1"
   viewBox="0 0 860 22"
   id="svg3643"
   sodipodi:docname="concat.svg"
   inkscape:version="1.1.2 (0a00cf5339, 2022-02-04, custom)"
   xmlns:inkscape="http://www.inkscape.org/namespaces/inkscape"
   xmlns:sodipodi="http://sodipodi.sourceforge.net/DTD/sodipodi-0.dtd"
   xmlns="http://www.w3.org/2000/svg"
   xmlns:svg="http://www.w3.org/2000/svg"
   xmlns:rdf="http://www.w3.org/1999/02/22-rdf-syntax-ns#"
   xmlns:cc="http://creativecommons.org/ns#"
   xmlns:dc="http://purl.org/dc/elements/1.1/">
  <defs
     id="defs3647" />
  <sodipodi:namedview
     id="namedview3645"
     pagecolor="#505050"
     bordercolor="#eeeeee"
     borderopacity="1"
     inkscape:pageshadow="0"
     inkscape:pageopacity="0"
     inkscape:pagecheckerboard="0"
     showgrid="false"
     inkscape:zoom="1.2476744"
     inkscape:cx="430"
     inkscape:cy="10.82013"
     inkscape:window-width="1920"
     inkscape:window-height="991"
     inkscape:window-x="-9"
     inkscape:window-y="-9"
     inkscape:window-maximized="1"
     inkscape:current-layer="svg3643" />
  <title
     id="title3622">A concatenation of three strings</title>
  <clipPath
     id="a">
    <path
       d="m0 0h1024v768h-1024z"
       id="path3624" />
  </clipPath>
  <g
     clip-path="url(#a)"
     id="g3641">
    <path
       d="m0 0h1024v768h-1024z"
       fill="#000"
       fill-opacity="0"
       fill-rule="evenodd"
       id="path3627" />
    <path
       d="m10.045 14.318h501.95v43.622h-501.95z"
       fill="#000"
       fill-opacity="0"
       fill-rule="evenodd"
       id="path3629" />
    <path
       d="m12.935 10.083v1.4688h1.2812q0.67188 0 1.2344 0.15625t0.96875 0.48438q0.39062 0.3125 0.60938 0.79688t0.21875 1.1562-0.1875 1.1719q-0.1875 0.48438-0.54688 0.8125-0.34375 0.32812-0.84375 0.5-0.5 0.15625-1.1094 0.15625-0.625 0-1.125-0.17188t-0.85938-0.5q-0.34375-0.32812-0.54688-0.78125-0.1875-0.45312-0.1875-1.0156h-1.7969q0 0.9375 0.34375 1.6719 0.35938 0.73438 0.96875 1.2344 0.60938 0.51562 1.4375 0.78125t1.7656 0.26562q0.95312 0 1.7656-0.28125 0.82812-0.28125 1.4375-0.82812 0.60938-0.51562 0.95312-1.2812 0.34375-0.78125 0.34375-1.7812 0-0.48438-0.125-0.98438-0.10938-0.5-0.375-0.95312-0.28125-0.4375-0.75-0.79688-0.46875-0.375-1.1562-0.59375 0.57812-0.25 0.98438-0.60938 0.42188-0.35938 0.6875-0.78125t0.39062-0.85938 0.125-0.84375q0-0.98438-0.3125-1.7344t-0.875-1.2656q-0.57812-0.5-1.375-0.76562-0.78125-0.26562-1.7344-0.26562-0.98438 0-1.7969 0.3125-0.79688 0.3125-1.375 0.84375t-0.90625 1.25q-0.3125 0.71875-0.3125 1.5313h1.8281q0-0.5625 0.17188-1 0.1875-0.45312 0.53125-0.78125 0.32812-0.32812 0.79688-0.5 0.48438-0.17188 1.0625-0.17188 0.59375 0 1.0469 0.15625 0.46875 0.15625 0.78125 0.45312 0.32812 0.3125 0.48438 0.79688 0.17188 0.46875 0.17188 1.0938 0 0.54688-0.1875 1-0.17188 0.4375-0.53125 0.76562t-0.89062 0.51562q-0.51562 0.17188-1.2031 0.17188zm9.5488 2.6094v0.20312q0 1.1406 0.29688 2.125 0.3125 0.96875 0.85938 1.7031 0.54688 0.71875 1.3125 1.1406 0.78125 0.40625 1.7344 0.40625 0.98438 0 1.7188-0.32812 0.73438-0.34375 1.25-0.98438l0.07813 1.1094h1.6719v-15h-1.8125v5.4844q-0.51562-0.60938-1.2344-0.92188-0.70312-0.32813-1.6406-0.32813-0.96875 0-1.75 0.40625-0.78125 0.39062-1.3281 1.1094-0.5625 0.71875-0.85938 1.7188-0.29688 0.98438-0.29688 2.1562zm1.8125 0.20312v-0.20312q0-0.76562 0.15625-1.4688 0.17188-0.70312 0.51562-1.2344t0.89062-0.84375 1.2969-0.3125q0.89062 0 1.4844 0.42188 0.59375 0.40625 0.95312 1.0625v4.8906q-0.35938 0.70312-0.95312 1.1094t-1.5 0.40625q-0.75 0-1.2969-0.29688-0.53125-0.3125-0.875-0.84375t-0.51562-1.2188q-0.15625-0.6875-0.15625-1.4688zm17.471 5.1719h1.8906v-0.15625q-0.17188-0.4375-0.28125-1.0312-0.09375-0.59375-0.09375-1.125v-4.9062q0-0.89062-0.32812-1.5469-0.3125-0.67188-0.875-1.125-0.5625-0.4375-1.3438-0.65625-0.76562-0.21875-1.6562-0.21875-0.98438 0-1.7656 0.28125-0.78125 0.26562-1.3125 0.70312-0.54688 0.45312-0.84375 1.0156-0.28125 0.54688-0.29688 1.125h1.8281q0-0.32812 0.15625-0.625 0.15625-0.3125 0.45312-0.54688 0.29688-0.21875 0.71875-0.35938t0.95312-0.14062q0.57812 0 1.0469 0.15625 0.46875 0.14062 0.78125 0.40625 0.32812 0.26562 0.5 0.65625 0.17188 0.375 0.17188 0.85938v0.82812h-1.9688q-1.0938 0-2 0.21875-0.89062 0.20312-1.5156 0.64062-0.64062 0.4375-0.98438 1.0938t-0.34375 1.5156q0 0.67188 0.25 1.25 0.26562 0.5625 0.73438 0.96875 0.46875 0.42188 1.1406 0.67188 0.6875 0.25 1.5312 0.25 0.51562 0 0.96875-0.10938 0.46875-0.10938 0.875-0.29688t0.73438-0.42188q0.34375-0.25 0.60938-0.53125 0.03125 0.32812 0.09375 0.64062t0.17188 0.51562zm-3.1875-1.375q-0.53125 0-0.9375-0.14062-0.39062-0.14062-0.65625-0.375t-0.40625-0.5625q-0.125-0.34375-0.125-0.73438 0-0.40625 0.15625-0.71875 0.15625-0.32812 0.4375-0.5625 0.42188-0.34375 1.1094-0.5 0.70312-0.15625 1.6406-0.15625h1.6719v2.1406q-0.15625 0.3125-0.4375 0.60938-0.26562 0.28125-0.625 0.5-0.39062 0.21875-0.84375 0.35938t-0.98438 0.14062zm8.8926-5.75 1.4531 0.35938q0.23438-0.20312 0.46875-0.375t0.48438-0.28125q0.26562-0.125 0.59375-0.1875t0.78125-0.0625q0.6875 0 1.2031 0.25 0.53125 0.25 0.89062 0.65625 0.35938 0.4375 0.54688 1.0156 0.20312 0.57812 0.20312 1.2344 0 0.73438-0.17187 1.3281-0.17188 0.59375-0.5 1.0156-0.34375 0.4375-0.84375 0.67188-0.5 0.21875-1.1406 0.21875-1.1406 0-1.875-0.625-0.71875-0.625-0.89062-1.8281h-1.7188q0.09375 0.98438 0.48438 1.7344 0.39062 0.73438 0.98438 1.2188t1.3594 0.73438q0.78125 0.25 1.6562 0.25 1.125 0 1.9688-0.35938 0.84375-0.35938 1.3906-1 0.54688-0.625 0.8125-1.4844 0.28125-0.875 0.28125-1.8906 0-1.0781-0.29688-1.9531-0.28125-0.875-0.82812-1.5t-1.3281-0.95312q-0.78125-0.34375-1.7656-0.34375-0.78125 0-1.375 0.1875-0.57812 0.17188-0.98438 0.42188l0.39062-3.7969h5.7812v-1.75h-7.2969zm18.689 2.3438v-9.4375h-1.9375l-6.3594 9.8594v1.0625h6.4844v3.2969h1.8125v-3.2969h1.9688v-1.4844zm-6.2969 0 4.1875-6.4844 0.29688-0.54688v7.0313zm16.83 4.7812v-14.219h-0.15625l-5.375 2.0625v1.6563l3.7188-1.4219v11.922zm6.7832-7.125 1.4531 0.35938q0.23438-0.20312 0.46875-0.375t0.48438-0.28125q0.26562-0.125 0.59375-0.1875t0.78125-0.0625q0.6875 0 1.2031 0.25 0.53125 0.25 0.89062 0.65625 0.35938 0.4375 0.54688 1.0156 0.20313 0.57812 0.20313 1.2344 0 0.73438-0.17188 1.3281-0.17188 0.59375-0.5 1.0156-0.34375 0.4375-0.84375 0.67188-0.5 0.21875-1.1406 0.21875-1.1406 0-1.875-0.625-0.71875-0.625-0.89062-1.8281h-1.7188q0.09375 0.98438 0.48438 1.7344 0.39062 0.73438 0.98438 1.2188t1.3594 0.73438q0.78125 0.25 1.6562 0.25 1.125 0 1.9688-0.35938 0.84375-0.35938 1.3906-1 0.54688-0.625 0.8125-1.4844 0.28125-0.875 0.28125-1.8906 0-1.0781-0.29687-1.9531-0.28125-0.875-0.82813-1.5-0.54687-0.625-1.3281-0.95312-0.78125-0.34375-1.7656-0.34375-0.78125 0-1.375 0.1875-0.57812 0.17188-0.98438 0.42188l0.39062-3.7969h5.7812v-1.75h-7.2969zm12.002 0 1.4531 0.35938q0.23438-0.20312 0.46875-0.375 0.23438-0.17188 0.48438-0.28125 0.26562-0.125 0.59375-0.1875 0.32812-0.0625 0.78125-0.0625 0.6875 0 1.2031 0.25 0.53125 0.25 0.89063 0.65625 0.35937 0.4375 0.54687 1.0156 0.20313 0.57812 0.20313 1.2344 0 0.73438-0.17188 1.3281-0.17187 0.59375-0.5 1.0156-0.34375 0.4375-0.84375 0.67188-0.5 0.21875-1.1406 0.21875-1.1406 0-1.875-0.625-0.71875-0.625-0.89063-1.8281h-1.7188q0.0937 0.98438 0.48438 1.7344 0.39062 0.73438 0.98437 1.2188t1.3594 0.73438q0.78125 0.25 1.6562 0.25 1.125 0 1.9688-0.35938t1.3906-1q0.54688-0.625 0.8125-1.4844 0.28125-0.875 0.28125-1.8906 0-1.0781-0.29687-1.9531-0.28125-0.875-0.82813-1.5-0.54687-0.625-1.3281-0.95312-0.78125-0.34375-1.7656-0.34375-0.78125 0-1.375 0.1875-0.57812 0.17188-0.98437 0.42188l0.39062-3.7969h5.7813v-1.75h-7.2969zm13.299 5.5156h-0.1875v1.625h0.1875q1.7656 0 2.9844-0.48438 1.2344-0.48438 1.9219-1.2656 1.1562-1.2969 1.5-2.9531 0.35937-1.6719 0.35937-3.3281v-0.64062q0-1.1719-0.32812-2.3281-0.32813-1.1719-0.96875-1.9531-0.54688-0.67188-1.3594-1.0781-0.79687-0.40625-1.8906-0.40625t-1.9219 0.40625q-0.82812 0.39062-1.375 1.0625-0.54687 0.67188-0.82812 1.5625-0.28125 0.89063-0.28125 1.8906 0 0.85938 0.23437 1.7188 0.23438 0.84375 0.73438 1.5156t1.2656 1.0938q0.76563 0.42188 1.8281 0.42188 0.54687 0 1-0.10938 0.46875-0.125 0.84375-0.3125 0.39062-0.20312 0.6875-0.45312 0.29687-0.26562 0.53125-0.5625v0.03125q-0.0469 0.89062-0.28125 1.7344-0.23438 0.84375-0.90625 1.5625-0.54688 0.60938-1.4688 0.9375-0.90625 0.3125-2.2812 0.3125zm2.1562-4.6406q-0.65625 0-1.1406-0.28125-0.46875-0.29688-0.78125-0.76562-0.32812-0.46875-0.48437-1.0625-0.15625-0.60938-0.15625-1.2344 0-0.70312 0.17187-1.3125 0.17188-0.60938 0.51563-1.0625 0.34375-0.4375 0.82812-0.6875 0.48438-0.25 1.125-0.25 0.54688 0 1.0312 0.28125 0.5 0.26562 0.89063 0.76562 0.375 0.51562 0.59375 1.2656 0.21875 0.73438 0.21875 1.6875v0.57812q-0.17188 0.46875-0.46875 0.84375-0.28125 0.375-0.64063 0.64062-0.375 0.29688-0.8125 0.45312-0.42187 0.14062-0.89062 0.14062zm9.8457 4.6406h-0.1875v1.625h0.1875q1.7656 0 2.9844-0.48438 1.2344-0.48438 1.9219-1.2656 1.1562-1.2969 1.5-2.9531 0.35937-1.6719 0.35937-3.3281v-0.64062q0-1.1719-0.32812-2.3281-0.32813-1.1719-0.96875-1.9531-0.54688-0.67188-1.3594-1.0781-0.79687-0.40625-1.8906-0.40625t-1.9219 0.40625q-0.82812 0.39062-1.375 1.0625-0.54687 0.67188-0.82812 1.5625-0.28125 0.89063-0.28125 1.8906 0 0.85938 0.23437 1.7188 0.23438 0.84375 0.73438 1.5156t1.2656 1.0938q0.76563 0.42188 1.8281 0.42188 0.54687 0 1-0.10938 0.46875-0.125 0.84375-0.3125 0.39062-0.20312 0.6875-0.45312 0.29687-0.26562 0.53125-0.5625v0.03125q-0.0469 0.89062-0.28125 1.7344-0.23438 0.84375-0.90625 1.5625-0.54688 0.60938-1.4688 0.9375-0.90625 0.3125-2.2812 0.3125zm2.1562-4.6406q-0.65625 0-1.1406-0.28125-0.46875-0.29688-0.78125-0.76562-0.32812-0.46875-0.48437-1.0625-0.15625-0.60938-0.15625-1.2344 0-0.70312 0.17187-1.3125 0.17188-0.60938 0.51563-1.0625 0.34375-0.4375 0.82812-0.6875 0.48438-0.25 1.125-0.25 0.54688 0 1.0312 0.28125 0.5 0.26562 0.89063 0.76562 0.375 0.51562 0.59375 1.2656 0.21875 0.73438 0.21875 1.6875v0.57812q-0.17188 0.46875-0.46875 0.84375-0.28125 0.375-0.64063 0.64062-0.375 0.29688-0.8125 0.45312-0.42187 0.14062-0.89062 0.14062zm13.768 6.25v-14.219h-0.15625l-5.375 2.0625v1.6563l3.7188-1.4219v11.922zm14.893-10.516q0-0.92188-0.32813-1.6406-0.3125-0.73438-0.89062-1.2344-0.5625-0.5-1.3438-0.76562-0.76563-0.26562-1.6562-0.26562-0.90625 0-1.6719 0.26562-0.76562 0.26562-1.3125 0.76562-0.5625 0.5-0.875 1.2344-0.3125 0.71875-0.3125 1.6406 0 0.53125 0.14063 1.0156 0.15625 0.46875 0.42187 0.875 0.25 0.40625 0.625 0.73438 0.39063 0.32812 0.85938 0.5625-0.54688 0.23438-0.98438 0.59375-0.4375 0.34375-0.75 0.78125-0.3125 0.45312-0.48437 0.98438-0.15625 0.53125-0.15625 1.125 0 0.98438 0.34375 1.7344 0.35937 0.75 0.96875 1.2656 0.60937 0.51562 1.4219 0.78125 0.82813 0.26562 1.7969 0.26562 0.9375 0 1.75-0.26562 0.82812-0.28125 1.4375-0.79688 0.60937-0.51562 0.95312-1.2656 0.35938-0.75 0.35938-1.7188 0-0.59375-0.17188-1.1094-0.15625-0.53125-0.46875-0.98438-0.32812-0.45312-0.78125-0.79688-0.4375-0.34375-0.98437-0.57812 0.3125-0.15625 0.57812-0.34375 0.28125-0.20312 0.5-0.4375 0.46875-0.46875 0.73438-1.0781 0.26562-0.625 0.28125-1.3438zm-1.4844 6.6406q0 0.60938-0.20312 1.0938-0.20313 0.48438-0.54688 0.8125-0.35937 0.34375-0.85937 0.51562t-1.0938 0.17188q-0.625 0-1.1406-0.17188-0.5-0.17188-0.84375-0.51562-0.35937-0.32812-0.54687-0.8125t-0.1875-1.0938q0-0.59375 0.1875-1.0938t0.54687-0.85938q0.34375-0.35938 0.84375-0.54688 0.5-0.20312 1.1094-0.20312 0.60937 0 1.1094 0.20312 0.5 0.1875 0.85938 0.54688 0.35937 0.35938 0.5625 0.85938 0.20312 0.5 0.20312 1.0938zm-0.32812-6.6094q0 0.54688-0.1875 1-0.17188 0.45312-0.48438 0.76562-0.32812 0.3125-0.76562 0.48438t-0.95313 0.17188q-0.53125 0-0.96875-0.17188-0.42187-0.17188-0.73437-0.48438-0.32813-0.3125-0.5-0.75-0.17188-0.45312-0.17188-1.0156 0-0.54688 0.17188-1 0.17187-0.45312 0.48437-0.78125t0.73438-0.5q0.4375-0.17188 0.96875-0.17188t0.96875 0.1875 0.75 0.5q0.3125 0.32812 0.5 0.78125t0.1875 0.98438zm12.002 10.484h1.8906v-0.15625q-0.17187-0.4375-0.28125-1.0312-0.0937-0.59375-0.0937-1.125v-4.9062q0-0.89062-0.32812-1.5469-0.3125-0.67188-0.875-1.125-0.5625-0.4375-1.3438-0.65625-0.76563-0.21875-1.6562-0.21875-0.98438 0-1.7656 0.28125-0.78125 0.26562-1.3125 0.70312-0.54687 0.45312-0.84375 1.0156-0.28125 0.54688-0.29687 1.125h1.8281q0-0.32812 0.15625-0.625 0.15625-0.3125 0.45313-0.54688 0.29687-0.21875 0.71875-0.35938 0.42187-0.14062 0.95312-0.14062 0.57813 0 1.0469 0.15625 0.46875 0.14062 0.78125 0.40625 0.32812 0.26562 0.5 0.65625 0.17187 0.375 0.17187 0.85938v0.82812h-1.9688q-1.0938 0-2 0.21875-0.89062 0.20312-1.5156 0.64062-0.64063 0.4375-0.98438 1.0938t-0.34375 1.5156q0 0.67188 0.25 1.25 0.26563 0.5625 0.73438 0.96875 0.46875 0.42188 1.1406 0.67188 0.6875 0.25 1.5312 0.25 0.51563 0 0.96875-0.10938 0.46875-0.10938 0.875-0.29688t0.73438-0.42188q0.34375-0.25 0.60937-0.53125 0.0312 0.32812 0.0937 0.64062t0.17188 0.51562zm-3.1875-1.375q-0.53125 0-0.9375-0.14062-0.39063-0.14062-0.65625-0.375-0.26563-0.23438-0.40625-0.5625-0.125-0.34375-0.125-0.73438 0-0.40625 0.15625-0.71875 0.15625-0.32812 0.4375-0.5625 0.42187-0.34375 1.1094-0.5 0.70313-0.15625 1.6406-0.15625h1.6719v2.1406q-0.15625 0.3125-0.4375 0.60938-0.26562 0.28125-0.625 0.5-0.39062 0.21875-0.84375 0.35938-0.45312 0.14062-0.98437 0.14062zm17.002-9.1406q0-0.92188-0.32812-1.6406-0.3125-0.73438-0.89063-1.2344-0.5625-0.5-1.3438-0.76562-0.76562-0.26562-1.6562-0.26562-0.90625 0-1.6719 0.26562-0.76563 0.26562-1.3125 0.76562-0.5625 0.5-0.875 1.2344-0.3125 0.71875-0.3125 1.6406 0 0.53125 0.14062 1.0156 0.15625 0.46875 0.42188 0.875 0.25 0.40625 0.625 0.73438 0.39062 0.32812 0.85937 0.5625-0.54687 0.23438-0.98437 0.59375-0.4375 0.34375-0.75 0.78125-0.3125 0.45312-0.48438 0.98438-0.15625 0.53125-0.15625 1.125 0 0.98438 0.34375 1.7344 0.35938 0.75 0.96875 1.2656 0.60938 0.51562 1.4219 0.78125 0.82812 0.26562 1.7969 0.26562 0.9375 0 1.75-0.26562 0.82813-0.28125 1.4375-0.79688 0.60938-0.51562 0.95313-1.2656 0.35937-0.75 0.35937-1.7188 0-0.59375-0.17187-1.1094-0.15625-0.53125-0.46875-0.98438-0.32813-0.45312-0.78125-0.79688-0.4375-0.34375-0.98438-0.57812 0.3125-0.15625 0.57813-0.34375 0.28125-0.20312 0.5-0.4375 0.46875-0.46875 0.73437-1.0781 0.26563-0.625 0.28125-1.3438zm-1.4844 6.6406q0 0.60938-0.20313 1.0938-0.20312 0.48438-0.54687 0.8125-0.35938 0.34375-0.85938 0.51562t-1.0938 0.17188q-0.625 0-1.1406-0.17188-0.5-0.17188-0.84375-0.51562-0.35938-0.32812-0.54688-0.8125t-0.1875-1.0938q0-0.59375 0.1875-1.0938t0.54688-0.85938q0.34375-0.35938 0.84375-0.54688 0.5-0.20312 1.1094-0.20312 0.60938 0 1.1094 0.20312 0.5 0.1875 0.85937 0.54688 0.35938 0.35938 0.5625 0.85938 0.20313 0.5 0.20313 1.0938zm-0.32813-6.6094q0 0.54688-0.1875 1-0.17187 0.45312-0.48437 0.76562-0.32813 0.3125-0.76563 0.48438t-0.95312 0.17188q-0.53125 0-0.96875-0.17188-0.42188-0.17188-0.73438-0.48438-0.32812-0.3125-0.5-0.75-0.17187-0.45312-0.17187-1.0156 0-0.54688 0.17187-1 0.17188-0.45312 0.48438-0.78125t0.73437-0.5q0.4375-0.17188 0.96875-0.17188t0.96875 0.1875 0.75 0.5q0.3125 0.32812 0.5 0.78125t0.1875 0.98438zm13.986 5.0469v-3.3281q0-1.3594-0.3125-2.4063-0.3125-1.0625-0.89062-1.7812-0.60938-0.71875-1.4688-1.0938-0.84375-0.375-1.9375-0.375-1.0781 0-1.9375 0.375-0.85938 0.375-1.4375 1.0938-0.59375 0.71875-0.90625 1.7812-0.3125 1.0469-0.3125 2.4063v3.3281q0 1.3594 0.3125 2.4062t0.90625 1.7656q0.59375 0.73438 1.4531 1.1094 0.85938 0.35938 1.9375 0.35938 1.0938 0 1.9375-0.375 0.85938-0.375 1.4531-1.0938 0.57812-0.71875 0.89062-1.7656t0.3125-2.4062zm-7.3906-0.35938q0-0.26562 0-0.5 0-0.25 0-0.48438v-2.3906q0-1 0.20312-1.75 0.20313-0.76562 0.60938-1.2344 0.34375-0.39062 0.82812-0.57812 0.5-0.20312 1.1406-0.20312 0.64062 0 1.125 0.1875 0.48437 0.1875 0.8125 0.54688 0.34375 0.35938 0.53125 0.90625 0.20312 0.54688 0.28125 1.25zm5.5781 0.73438q0 1.0469-0.21875 1.8281-0.20312 0.76562-0.65625 1.2344-0.32812 0.35938-0.8125 0.54688-0.46875 0.1875-1.0938 0.1875-0.57812 0-1.0469-0.17188t-0.79688-0.5q-0.375-0.35938-0.59375-0.89062-0.21875-0.54688-0.3125-1.2656l5.5312-4.2344q0 0.28125 0 0.70312 0 0.40625 0 0.54688zm13.643-5.4531q0-0.92188-0.32813-1.6406-0.3125-0.73438-0.89062-1.2344-0.5625-0.5-1.3438-0.76562-0.76563-0.26562-1.6562-0.26562-0.90625 0-1.6719 0.26562-0.76562 0.26562-1.3125 0.76562-0.5625 0.5-0.875 1.2344-0.3125 0.71875-0.3125 1.6406 0 0.53125 0.14063 1.0156 0.15625 0.46875 0.42187 0.875 0.25 0.40625 0.625 0.73438 0.39063 0.32812 0.85938 0.5625-0.54688 0.23438-0.98438 0.59375-0.4375 0.34375-0.75 0.78125-0.3125 0.45312-0.48437 0.98438-0.15625 0.53125-0.15625 1.125 0 0.98438 0.34375 1.7344 0.35937 0.75 0.96875 1.2656 0.60937 0.51562 1.4219 0.78125 0.82813 0.26562 1.7969 0.26562 0.9375 0 1.75-0.26562 0.82812-0.28125 1.4375-0.79688 0.60937-0.51562 0.95312-1.2656 0.35938-0.75 0.35938-1.7188 0-0.59375-0.17188-1.1094-0.15625-0.53125-0.46875-0.98438-0.32812-0.45312-0.78125-0.79688-0.4375-0.34375-0.98437-0.57812 0.3125-0.15625 0.57812-0.34375 0.28125-0.20312 0.5-0.4375 0.46875-0.46875 0.73438-1.0781 0.26562-0.625 0.28125-1.3438zm-1.4844 6.6406q0 0.60938-0.20312 1.0938-0.20313 0.48438-0.54688 0.8125-0.35937 0.34375-0.85937 0.51562t-1.0938 0.17188q-0.625 0-1.1406-0.17188-0.5-0.17188-0.84375-0.51562-0.35937-0.32812-0.54687-0.8125t-0.1875-1.0938q0-0.59375 0.1875-1.0938t0.54687-0.85938q0.34375-0.35938 0.84375-0.54688 0.5-0.20312 1.1094-0.20312 0.60937 0 1.1094 0.20312 0.5 0.1875 0.85938 0.54688 0.35937 0.35938 0.5625 0.85938 0.20312 0.5 0.20312 1.0938zm-0.32812-6.6094q0 0.54688-0.1875 1-0.17188 0.45312-0.48438 0.76562-0.32812 0.3125-0.76562 0.48438t-0.95313 0.17188q-0.53125 0-0.96875-0.17188-0.42187-0.17188-0.73437-0.48438-0.32813-0.3125-0.5-0.75-0.17188-0.45312-0.17188-1.0156 0-0.54688 0.17188-1 0.17187-0.45312 0.48437-0.78125t0.73438-0.5q0.4375-0.17188 0.96875-0.17188t0.96875 0.1875 0.75 0.5q0.3125 0.32812 0.5 0.78125t0.1875 0.98438zm9.5644 9.2188q-0.84375 0-1.4219-0.32812-0.57813-0.34375-0.90625-0.89062-0.35938-0.54688-0.51563-1.2188-0.14062-0.6875-0.14062-1.375v-0.40625q0-0.6875 0.14062-1.3594 0.15625-0.67188 0.51563-1.2188 0.34375-0.54688 0.90625-0.875 0.57812-0.34375 1.4219-0.34375 0.54688 0 1.0156 0.1875 0.48437 0.1875 0.8125 0.51562 0.34375 0.3125 0.54687 0.75 0.20313 0.42188 0.21875 0.89062h1.7031q0-0.79688-0.32813-1.5-0.3125-0.70312-0.89062-1.2188-0.5625-0.51562-1.3594-0.8125-0.78125-0.29688-1.7188-0.29688-1.2031 0-2.1094 0.4375-0.89063 0.42188-1.4844 1.1406-0.60937 0.73438-0.92187 1.7031-0.29688 0.95312-0.29688 2v0.40625q0 1.0469 0.29688 2 0.3125 0.95312 0.92187 1.6875 0.59375 0.71875 1.4844 1.1562 0.90625 0.4375 2.1094 0.4375 0.84375 0 1.6094-0.28125 0.76562-0.29688 1.375-0.79688 0.59375-0.46875 0.9375-1.1094 0.35937-0.64062 0.375-1.3438h-1.7031q-0.0156 0.4375-0.23437 0.8125-0.21875 0.375-0.57813 0.65625-0.35937 0.28125-0.82812 0.4375t-0.95313 0.15625zm16.221 1.2656v-1.4688h-7.1406l3.8125-4.1406q0.54687-0.59375 1.0312-1.1875 0.48437-0.59375 0.84375-1.1875 0.375-0.60938 0.57812-1.2188 0.21875-0.625 0.21875-1.2656 0-0.84375-0.29687-1.5625-0.29688-0.73438-0.85938-1.2656-0.54687-0.51562-1.3594-0.8125-0.79688-0.3125-1.8125-0.3125-1.0938 0-1.9531 0.35938-0.84375 0.34375-1.4375 0.95312-0.59375 0.59375-0.90625 1.3906t-0.3125 1.6875h1.8125q0-0.65625 0.17188-1.1875 0.17187-0.54688 0.53125-0.9375 0.34375-0.35938 0.85937-0.5625 0.53125-0.21875 1.2344-0.21875 0.59375 0 1.0469 0.20312 0.46875 0.20312 0.79688 0.54688 0.32812 0.34375 0.5 0.8125 0.17187 0.45312 0.17187 0.98438 0 0.42188-0.10937 0.82812-0.10938 0.40625-0.35938 0.85938t-0.67187 1q-0.42188 0.53125-1.0469 1.2344l-4.6562 5.1719v1.2969zm10.611-4.7812v-9.4375h-1.9375l-6.3594 9.8594v1.0625h6.4844v3.2969h1.8125v-3.2969h1.9688v-1.4844zm-6.2969 0 4.1875-6.4844 0.29687-0.54688v7.0313zm19.893-0.65625v-3.3281q0-1.3594-0.3125-2.4063-0.3125-1.0625-0.89063-1.7812-0.60937-0.71875-1.4688-1.0938-0.84375-0.375-1.9375-0.375-1.0781 0-1.9375 0.375-0.85937 0.375-1.4375 1.0938-0.59375 0.71875-0.90625 1.7812-0.3125 1.0469-0.3125 2.4063v3.3281q0 1.3594 0.3125 2.4062t0.90625 1.7656q0.59375 0.73438 1.4531 1.1094 0.85937 0.35938 1.9375 0.35938 1.0938 0 1.9375-0.375 0.85937-0.375 1.4531-1.0938 0.57813-0.71875 0.89063-1.7656t0.3125-2.4062zm-7.3906-0.35938q0-0.26562 0-0.5 0-0.25 0-0.48438v-2.3906q0-1 0.20313-1.75 0.20312-0.76562 0.60937-1.2344 0.34375-0.39062 0.82813-0.57812 0.5-0.20312 1.1406-0.20312 0.64063 0 1.125 0.1875 0.48438 0.1875 0.8125 0.54688 0.34375 0.35938 0.53125 0.90625 0.20313 0.54688 0.28125 1.25zm5.5781 0.73438q0 1.0469-0.21875 1.8281-0.20313 0.76562-0.65625 1.2344-0.32813 0.35938-0.8125 0.54688-0.46875 0.1875-1.0938 0.1875-0.57813 0-1.0469-0.17188t-0.79687-0.5q-0.375-0.35938-0.59375-0.89062-0.21875-0.54688-0.3125-1.2656l5.5312-4.2344q0 0.28125 0 0.70312 0 0.40625 0 0.54688zm13.611 5.0625v-1.4688h-7.1406l3.8125-4.1406q0.54687-0.59375 1.0312-1.1875 0.48437-0.59375 0.84375-1.1875 0.375-0.60938 0.57812-1.2188 0.21875-0.625 0.21875-1.2656 0-0.84375-0.29687-1.5625-0.29688-0.73438-0.85938-1.2656-0.54687-0.51562-1.3594-0.8125-0.79688-0.3125-1.8125-0.3125-1.0938 0-1.9531 0.35938-0.84375 0.34375-1.4375 0.95312-0.59375 0.59375-0.90625 1.3906t-0.3125 1.6875h1.8125q0-0.65625 0.17188-1.1875 0.17187-0.54688 0.53125-0.9375 0.34375-0.35938 0.85937-0.5625 0.53125-0.21875 1.2344-0.21875 0.59375 0 1.0469 0.20312 0.46875 0.20312 0.79688 0.54688 0.32812 0.34375 0.5 0.8125 0.17187 0.45312 0.17187 0.98438 0 0.42188-0.10937 0.82812-0.10938 0.40625-0.35938 0.85938t-0.67187 1q-0.42188 0.53125-1.0469 1.2344l-4.6562 5.1719v1.2969zm12.236-5.1719v-0.20312q0-0.82812-0.14062-1.5781-0.14063-0.75-0.39063-1.3594-0.26562-0.54688-0.59375-0.98438-0.32812-0.45312-0.75-0.76562-0.46875-0.32812-1.0469-0.51563-0.57813-0.1875-1.2656-0.1875-0.54687 0-1.0156 0.10938t-0.85938 0.3125q-0.3125 0.17188-0.59375 0.40625-0.26562 0.21875-0.48437 0.5v-5.5625h-1.8125v15h1.6719l0.0781-1.2031q0.1875 0.21875 0.375 0.40625 0.20312 0.1875 0.40625 0.34375 0.45312 0.3125 1.0156 0.48438t1.25 0.17188q0.59375 0 1.0938-0.15625 0.51563-0.14062 0.95313-0.40625 0.59375-0.39062 1.0156-0.96875 0.42188-0.57812 0.6875-1.3125 0.20313-0.54688 0.29688-1.1875 0.10937-0.64062 0.10937-1.3438zm-1.8125-0.20312v0.20312q0 0.46875-0.0625 0.92188-0.0469 0.45312-0.17187 0.84375-0.15625 0.51562-0.42188 0.9375-0.26562 0.42188-0.65625 0.6875-0.29687 0.21875-0.67187 0.32812-0.35938 0.10938-0.8125 0.10938-0.46875 0-0.85938-0.10938-0.39062-0.125-0.70312-0.35938-0.3125-0.21875-0.5625-0.51562-0.23438-0.29688-0.40625-0.65625v-4.6094q0.17187-0.35938 0.40625-0.65625 0.23437-0.29688 0.54687-0.51562t0.70313-0.34375q0.39062-0.125 0.85937-0.125 0.42188 0 0.76563 0.10938 0.35937 0.09375 0.64062 0.26562 0.42188 0.25 0.70313 0.6875 0.28125 0.42188 0.45312 0.9375 0.125 0.42188 0.1875 0.89062t0.0625 0.96875zm13.814 0.20312v-0.20312q0-0.82812-0.14062-1.5781-0.14063-0.75-0.39063-1.3594-0.26562-0.54688-0.59375-0.98438-0.32812-0.45312-0.75-0.76562-0.46875-0.32812-1.0469-0.51563-0.57813-0.1875-1.2656-0.1875-0.54687 0-1.0156 0.10938t-0.85938 0.3125q-0.3125 0.17188-0.59375 0.40625-0.26562 0.21875-0.48437 0.5v-5.5625h-1.8125v15h1.6719l0.0781-1.2031q0.1875 0.21875 0.375 0.40625 0.20312 0.1875 0.40625 0.34375 0.45312 0.3125 1.0156 0.48438t1.25 0.17188q0.59375 0 1.0938-0.15625 0.51563-0.14062 0.95313-0.40625 0.59375-0.39062 1.0156-0.96875 0.42188-0.57812 0.6875-1.3125 0.20313-0.54688 0.29688-1.1875 0.10937-0.64062 0.10937-1.3438zm-1.8125-0.20312v0.20312q0 0.46875-0.0625 0.92188-0.0469 0.45312-0.17187 0.84375-0.15625 0.51562-0.42188 0.9375-0.26562 0.42188-0.65625 0.6875-0.29687 0.21875-0.67187 0.32812-0.35938 0.10938-0.8125 0.10938-0.46875 0-0.85938-0.10938-0.39062-0.125-0.70312-0.35938-0.3125-0.21875-0.5625-0.51562-0.23438-0.29688-0.40625-0.65625v-4.6094q0.17187-0.35938 0.40625-0.65625 0.23437-0.29688 0.54687-0.51562t0.70313-0.34375q0.39062-0.125 0.85937-0.125 0.42188 0 0.76563 0.10938 0.35937 0.09375 0.64062 0.26562 0.42188 0.25 0.70313 0.6875 0.28125 0.42188 0.45312 0.9375 0.125 0.42188 0.1875 0.89062t0.0625 0.96875zm11.799 5.375h1.8906v-0.15625q-0.17188-0.4375-0.28125-1.0312-0.0937-0.59375-0.0937-1.125v-4.9062q0-0.89062-0.32813-1.5469-0.3125-0.67188-0.875-1.125-0.5625-0.4375-1.3438-0.65625-0.76562-0.21875-1.6562-0.21875-0.98437 0-1.7656 0.28125-0.78125 0.26562-1.3125 0.70312-0.54688 0.45312-0.84375 1.0156-0.28125 0.54688-0.29688 1.125h1.8281q0-0.32812 0.15625-0.625 0.15625-0.3125 0.45312-0.54688 0.29688-0.21875 0.71875-0.35938 0.42188-0.14062 0.95313-0.14062 0.57812 0 1.0469 0.15625 0.46875 0.14062 0.78125 0.40625 0.32813 0.26562 0.5 0.65625 0.17188 0.375 0.17188 0.85938v0.82812h-1.9688q-1.0938 0-2 0.21875-0.89063 0.20312-1.5156 0.64062-0.64062 0.4375-0.98437 1.0938t-0.34375 1.5156q0 0.67188 0.25 1.25 0.26562 0.5625 0.73437 0.96875 0.46875 0.42188 1.1406 0.67188 0.6875 0.25 1.5312 0.25 0.51562 0 0.96875-0.10938 0.46875-0.10938 0.875-0.29688t0.73437-0.42188q0.34375-0.25 0.60938-0.53125 0.0312 0.32812 0.0937 0.64062t0.17187 0.51562zm-3.1875-1.375q-0.53125 0-0.9375-0.14062-0.39062-0.14062-0.65625-0.375-0.26562-0.23438-0.40625-0.5625-0.125-0.34375-0.125-0.73438 0-0.40625 0.15625-0.71875 0.15625-0.32812 0.4375-0.5625 0.42188-0.34375 1.1094-0.5 0.70312-0.15625 1.6406-0.15625h1.6719v2.1406q-0.15625 0.3125-0.4375 0.60938-0.26563 0.28125-0.625 0.5-0.39063 0.21875-0.84375 0.35938-0.45313 0.14062-0.98438 0.14062zm8.8926-5.75 1.4531 0.35938q0.23437-0.20312 0.46875-0.375 0.23437-0.17188 0.48437-0.28125 0.26563-0.125 0.59375-0.1875 0.32813-0.0625 0.78125-0.0625 0.6875 0 1.2031 0.25 0.53125 0.25 0.89062 0.65625 0.35938 0.4375 0.54688 1.0156 0.20312 0.57812 0.20312 1.2344 0 0.73438-0.17187 1.3281-0.17188 0.59375-0.5 1.0156-0.34375 0.4375-0.84375 0.67188-0.5 0.21875-1.1406 0.21875-1.1406 0-1.875-0.625-0.71875-0.625-0.89062-1.8281h-1.7188q0.0937 0.98438 0.48437 1.7344 0.39063 0.73438 0.98438 1.2188t1.3594 0.73438q0.78125 0.25 1.6562 0.25 1.125 0 1.9688-0.35938t1.3906-1q0.54687-0.625 0.8125-1.4844 0.28125-0.875 0.28125-1.8906 0-1.0781-0.29688-1.9531-0.28125-0.875-0.82812-1.5-0.54688-0.625-1.3281-0.95312-0.78125-0.34375-1.7656-0.34375-0.78125 0-1.375 0.1875-0.57813 0.17188-0.98438 0.42188l0.39063-3.7969h5.7812v-1.75h-7.2969zm20.283 1.6875v-3.3281q0-1.3594-0.3125-2.4063-0.3125-1.0625-0.89062-1.7812-0.60938-0.71875-1.4688-1.0938-0.84375-0.375-1.9375-0.375-1.0781 0-1.9375 0.375-0.85938 0.375-1.4375 1.0938-0.59375 0.71875-0.90625 1.7812-0.3125 1.0469-0.3125 2.4063v3.3281q0 1.3594 0.3125 2.4062t0.90625 1.7656q0.59375 0.73438 1.4531 1.1094 0.85938 0.35938 1.9375 0.35938 1.0938 0 1.9375-0.375 0.85938-0.375 1.4531-1.0938 0.57812-0.71875 0.89062-1.7656t0.3125-2.4062zm-7.3906-0.35938q0-0.26562 0-0.5 0-0.25 0-0.48438v-2.3906q0-1 0.20312-1.75 0.20313-0.76562 0.60938-1.2344 0.34375-0.39062 0.82812-0.57812 0.5-0.20312 1.1406-0.20312 0.64062 0 1.125 0.1875 0.48437 0.1875 0.8125 0.54688 0.34375 0.35938 0.53125 0.90625 0.20312 0.54688 0.28125 1.25zm5.5781 0.73438q0 1.0469-0.21875 1.8281-0.20312 0.76562-0.65625 1.2344-0.32812 0.35938-0.8125 0.54688-0.46875 0.1875-1.0938 0.1875-0.57812 0-1.0469-0.17188t-0.79688-0.5q-0.375-0.35938-0.59375-0.89062-0.21875-0.54688-0.3125-1.2656l5.5312-4.2344q0 0.28125 0 0.70312 0 0.40625 0 0.54688zm10.752 5.0625v-14.219h-0.15625l-5.375 2.0625v1.6563l3.7188-1.4219v11.922zm14.861 0v-1.4688h-7.1406l3.8125-4.1406q0.54687-0.59375 1.0312-1.1875 0.48437-0.59375 0.84375-1.1875 0.375-0.60938 0.57812-1.2188 0.21875-0.625 0.21875-1.2656 0-0.84375-0.29687-1.5625-0.29688-0.73438-0.85938-1.2656-0.54687-0.51562-1.3594-0.8125-0.79688-0.3125-1.8125-0.3125-1.0938 0-1.9531 0.35938-0.84375 0.34375-1.4375 0.95312-0.59375 0.59375-0.90625 1.3906t-0.3125 1.6875h1.8125q0-0.65625 0.17188-1.1875 0.17187-0.54688 0.53125-0.9375 0.34375-0.35938 0.85937-0.5625 0.53125-0.21875 1.2344-0.21875 0.59375 0 1.0469 0.20312 0.46875 0.20312 0.79688 0.54688 0.32812 0.34375 0.5 0.8125 0.17187 0.45312 0.17187 0.98438 0 0.42188-0.10937 0.82812-0.10938 0.40625-0.35938 0.85938t-0.67187 1q-0.42188 0.53125-1.0469 1.2344l-4.6562 5.1719v1.2969zm5.9707 0h1.8281v-9.1719h4.0625v-1.3906h-4.0625v-0.75q0-0.65625 0.15625-1.1562 0.17188-0.5 0.51563-0.8125 0.3125-0.29688 0.78125-0.45312t1.0938-0.15625q0.59375 0 1.125 0.10938 0.54687 0.09375 0.9375 0.23438l0.21875-1.5q-0.25-0.0625-0.5-0.10938-0.25-0.0625-0.48438-0.10938-0.375-0.0625-0.76562-0.10938-0.375-0.04687-0.76563-0.04687-0.9375 0-1.7031 0.26562-0.75 0.26562-1.2969 0.78125-0.54687 0.51562-0.84375 1.2812-0.29687 0.76562-0.29687 1.7812v0.75h-2.9062v1.3906h2.9062zm15.971-14.234h-0.15625q-1.5156 0-2.7188 0.4375-1.2031 0.42188-2.0469 1.25-1.2188 1.2344-1.6406 2.9531-0.42187 1.7188-0.42187 3.4844v0.85938q0 1.0312 0.3125 2.0625t0.95312 1.7969q0.5625 0.70312 1.3906 1.1562 0.82812 0.4375 1.9219 0.4375t1.9062-0.375q0.82813-0.39062 1.3906-1.0625 0.5625-0.65625 0.82812-1.5312 0.28125-0.875 0.28125-1.875 0-0.875-0.23437-1.7031-0.23438-0.84375-0.73438-1.5156-0.5-0.65625-1.2656-1.0625-0.76563-0.40625-1.8281-0.40625-0.5 0-0.95312 0.10938-0.4375 0.10938-0.8125 0.29688-0.39063 0.20312-0.71875 0.46875-0.32813 0.25-0.59375 0.54688 0.0625-0.9375 0.375-1.8125 0.32812-0.89063 0.9375-1.5469 0.59375-0.60938 1.4844-0.96875 0.90625-0.375 2.1875-0.375h0.15625zm-2.3594 6.4063q0.65625 0 1.1406 0.28125 0.48438 0.26562 0.8125 0.73438 0.3125 0.45312 0.46875 1.0469t0.15625 1.2188q0 0.70312-0.17187 1.3125-0.15625 0.59375-0.5 1.0156-0.34375 0.4375-0.82813 0.6875-0.48437 0.23438-1.125 0.23438-0.54687 0-1.0469-0.25-0.48438-0.26562-0.875-0.76562-0.375-0.5-0.60938-1.2188-0.21875-0.73438-0.21875-1.6719v-0.60938q0.17188-0.45312 0.45313-0.8125 0.28125-0.375 0.65625-0.64062 0.35937-0.26562 0.78125-0.40625 0.4375-0.15625 0.90625-0.15625zm12.205 6.5625q-0.84375 0-1.4219-0.32812-0.57813-0.34375-0.90625-0.89062-0.35938-0.54688-0.51563-1.2188-0.14062-0.6875-0.14062-1.375v-0.40625q0-0.6875 0.14062-1.3594 0.15625-0.67188 0.51563-1.2188 0.34375-0.54688 0.90625-0.875 0.57812-0.34375 1.4219-0.34375 0.54688 0 1.0156 0.1875 0.48437 0.1875 0.8125 0.51562 0.34375 0.3125 0.54687 0.75 0.20313 0.42188 0.21875 0.89062h1.7031q0-0.79688-0.32813-1.5-0.3125-0.70312-0.89062-1.2188-0.5625-0.51562-1.3594-0.8125-0.78125-0.29688-1.7188-0.29688-1.2031 0-2.1094 0.4375-0.89063 0.42188-1.4844 1.1406-0.60937 0.73438-0.92187 1.7031-0.29688 0.95312-0.29688 2v0.40625q0 1.0469 0.29688 2 0.3125 0.95312 0.92187 1.6875 0.59375 0.71875 1.4844 1.1562 0.90625 0.4375 2.1094 0.4375 0.84375 0 1.6094-0.28125 0.76562-0.29688 1.375-0.79688 0.59375-0.46875 0.9375-1.1094 0.35937-0.64062 0.375-1.3438h-1.7031q-0.0156 0.4375-0.23437 0.8125-0.21875 0.375-0.57813 0.65625-0.35937 0.28125-0.82812 0.4375t-0.95313 0.15625zm14.158-12.969h-0.15625q-1.5156 0-2.7188 0.4375-1.2031 0.42188-2.0469 1.25-1.2188 1.2344-1.6406 2.9531-0.42188 1.7188-0.42188 3.4844v0.85938q0 1.0312 0.3125 2.0625t0.95313 1.7969q0.5625 0.70312 1.3906 1.1562 0.82813 0.4375 1.9219 0.4375t1.9062-0.375q0.82812-0.39062 1.3906-1.0625 0.5625-0.65625 0.82813-1.5312 0.28125-0.875 0.28125-1.875 0-0.875-0.23438-1.7031-0.23437-0.84375-0.73437-1.5156-0.5-0.65625-1.2656-1.0625-0.76562-0.40625-1.8281-0.40625-0.5 0-0.95313 0.10938-0.4375 0.10938-0.8125 0.29688-0.39062 0.20312-0.71875 0.46875-0.32812 0.25-0.59375 0.54688 0.0625-0.9375 0.375-1.8125 0.32813-0.89063 0.9375-1.5469 0.59375-0.60938 1.4844-0.96875 0.90625-0.375 2.1875-0.375h0.15625zm-2.3594 6.4063q0.65625 0 1.1406 0.28125 0.48437 0.26562 0.8125 0.73438 0.3125 0.45312 0.46875 1.0469t0.15625 1.2188q0 0.70312-0.17188 1.3125-0.15625 0.59375-0.5 1.0156-0.34375 0.4375-0.82812 0.6875-0.48438 0.23438-1.125 0.23438-0.54688 0-1.0469-0.25-0.48437-0.26562-0.875-0.76562-0.375-0.5-0.60937-1.2188-0.21875-0.73438-0.21875-1.6719v-0.60938q0.17187-0.45312 0.45312-0.8125 0.28125-0.375 0.65625-0.64062 0.35938-0.26562 0.78125-0.40625 0.4375-0.15625 0.90625-0.15625zm16.627 2.3906v-3.3281q0-1.3594-0.3125-2.4063-0.3125-1.0625-0.89062-1.7812-0.60938-0.71875-1.4688-1.0938-0.84375-0.375-1.9375-0.375-1.0781 0-1.9375 0.375-0.85938 0.375-1.4375 1.0938-0.59375 0.71875-0.90625 1.7812-0.3125 1.0469-0.3125 2.4063v3.3281q0 1.3594 0.3125 2.4062t0.90625 1.7656q0.59375 0.73438 1.4531 1.1094 0.85938 0.35938 1.9375 0.35938 1.0938 0 1.9375-0.375 0.85938-0.375 1.4531-1.0938 0.57812-0.71875 0.89062-1.7656t0.3125-2.4062zm-7.3906-0.35938q0-0.26562 0-0.5 0-0.25 0-0.48438v-2.3906q0-1 0.20312-1.75 0.20313-0.76562 0.60938-1.2344 0.34375-0.39062 0.82812-0.57812 0.5-0.20312 1.1406-0.20312 0.64062 0 1.125 0.1875 0.48437 0.1875 0.8125 0.54688 0.34375 0.35938 0.53125 0.90625 0.20312 0.54688 0.28125 1.25zm5.5781 0.73438q0 1.0469-0.21875 1.8281-0.20312 0.76562-0.65625 1.2344-0.32812 0.35938-0.8125 0.54688-0.46875 0.1875-1.0938 0.1875-0.57812 0-1.0469-0.17188t-0.79688-0.5q-0.375-0.35938-0.59375-0.89062-0.21875-0.54688-0.3125-1.2656l5.5312-4.2344q0 0.28125 0 0.70312 0 0.40625 0 0.54688zm13.846-0.10938v-0.20312q0-0.82812-0.14063-1.5781-0.14062-0.75-0.39062-1.3594-0.26563-0.54688-0.59375-0.98438-0.32813-0.45312-0.75-0.76562-0.46875-0.32812-1.0469-0.51563-0.57812-0.1875-1.2656-0.1875-0.54688 0-1.0156 0.10938t-0.85937 0.3125q-0.3125 0.17188-0.59375 0.40625-0.26563 0.21875-0.48438 0.5v-5.5625h-1.8125v15h1.6719l0.0781-1.2031q0.1875 0.21875 0.375 0.40625 0.20313 0.1875 0.40625 0.34375 0.45313 0.3125 1.0156 0.48438t1.25 0.17188q0.59375 0 1.0938-0.15625 0.51562-0.14062 0.95312-0.40625 0.59375-0.39062 1.0156-0.96875 0.42187-0.57812 0.6875-1.3125 0.20312-0.54688 0.29687-1.1875 0.10938-0.64062 0.10938-1.3438zm-1.8125-0.20312v0.20312q0 0.46875-0.0625 0.92188-0.0469 0.45312-0.17188 0.84375-0.15625 0.51562-0.42187 0.9375-0.26563 0.42188-0.65625 0.6875-0.29688 0.21875-0.67188 0.32812-0.35937 0.10938-0.8125 0.10938-0.46875 0-0.85937-0.10938-0.39063-0.125-0.70313-0.35938-0.3125-0.21875-0.5625-0.51562-0.23437-0.29688-0.40625-0.65625v-4.6094q0.17188-0.35938 0.40625-0.65625 0.23438-0.29688 0.54688-0.51562t0.70312-0.34375q0.39063-0.125 0.85938-0.125 0.42187 0 0.76562 0.10938 0.35938 0.09375 0.64063 0.26562 0.42187 0.25 0.70312 0.6875 0.28125 0.42188 0.45313 0.9375 0.125 0.42188 0.1875 0.89062t0.0625 0.96875zm13.58 5.375v-1.4688h-7.1406l3.8125-4.1406q0.54688-0.59375 1.0312-1.1875 0.48438-0.59375 0.84375-1.1875 0.375-0.60938 0.57813-1.2188 0.21875-0.625 0.21875-1.2656 0-0.84375-0.29688-1.5625-0.29687-0.73438-0.85937-1.2656-0.54688-0.51562-1.3594-0.8125-0.79687-0.3125-1.8125-0.3125-1.0938 0-1.9531 0.35938-0.84375 0.34375-1.4375 0.95312-0.59375 0.59375-0.90625 1.3906t-0.3125 1.6875h1.8125q0-0.65625 0.17187-1.1875 0.17188-0.54688 0.53125-0.9375 0.34375-0.35938 0.85938-0.5625 0.53125-0.21875 1.2344-0.21875 0.59375 0 1.0469 0.20312 0.46875 0.20312 0.79687 0.54688 0.32813 0.34375 0.5 0.8125 0.17188 0.45312 0.17188 0.98438 0 0.42188-0.10938 0.82812-0.10937 0.40625-0.35937 0.85938t-0.67188 1q-0.42187 0.53125-1.0469 1.2344l-4.6562 5.1719v1.2969zm12.283-13.203v-1.0156h-9.6094v1.5781h7.7031l-5.875 12.641h1.8906zm9.6582-1.0312h-0.15625q-1.5156 0-2.7188 0.4375-1.2031 0.42188-2.0469 1.25-1.2188 1.2344-1.6406 2.9531-0.42187 1.7188-0.42187 3.4844v0.85938q0 1.0312 0.3125 2.0625t0.95312 1.7969q0.5625 0.70312 1.3906 1.1562 0.82812 0.4375 1.9219 0.4375t1.9062-0.375q0.82813-0.39062 1.3906-1.0625 0.5625-0.65625 0.82812-1.5312 0.28125-0.875 0.28125-1.875 0-0.875-0.23437-1.7031-0.23438-0.84375-0.73438-1.5156-0.5-0.65625-1.2656-1.0625-0.76563-0.40625-1.8281-0.40625-0.5 0-0.95312 0.10938-0.4375 0.10938-0.8125 0.29688-0.39063 0.20312-0.71875 0.46875-0.32813 0.25-0.59375 0.54688 0.0625-0.9375 0.375-1.8125 0.32812-0.89063 0.9375-1.5469 0.59375-0.60938 1.4844-0.96875 0.90625-0.375 2.1875-0.375h0.15625zm-2.3594 6.4063q0.65625 0 1.1406 0.28125 0.48438 0.26562 0.8125 0.73438 0.3125 0.45312 0.46875 1.0469t0.15625 1.2188q0 0.70312-0.17187 1.3125-0.15625 0.59375-0.5 1.0156-0.34375 0.4375-0.82813 0.6875-0.48437 0.23438-1.125 0.23438-0.54687 0-1.0469-0.25-0.48438-0.26562-0.875-0.76562-0.375-0.5-0.60938-1.2188-0.21875-0.73438-0.21875-1.6719v-0.60938q0.17188-0.45312 0.45313-0.8125 0.28125-0.375 0.65625-0.64062 0.35937-0.26562 0.78125-0.40625 0.4375-0.15625 0.90625-0.15625zm14.361-6.4063h-0.15625q-1.5156 0-2.7188 0.4375-1.2031 0.42188-2.0469 1.25-1.2188 1.2344-1.6406 2.9531-0.42187 1.7188-0.42187 3.4844v0.85938q0 1.0312 0.3125 2.0625t0.95312 1.7969q0.5625 0.70312 1.3906 1.1562 0.82812 0.4375 1.9219 0.4375t1.9062-0.375q0.82813-0.39062 1.3906-1.0625 0.5625-0.65625 0.82812-1.5312 0.28125-0.875 0.28125-1.875 0-0.875-0.23437-1.7031-0.23438-0.84375-0.73438-1.5156-0.5-0.65625-1.2656-1.0625-0.76563-0.40625-1.8281-0.40625-0.5 0-0.95312 0.10938-0.4375 0.10938-0.8125 0.29688-0.39063 0.20312-0.71875 0.46875-0.32813 0.25-0.59375 0.54688 0.0625-0.9375 0.375-1.8125 0.32812-0.89063 0.9375-1.5469 0.59375-0.60938 1.4844-0.96875 0.90625-0.375 2.1875-0.375h0.15625zm-2.3594 6.4063q0.65625 0 1.1406 0.28125 0.48438 0.26562 0.8125 0.73438 0.3125 0.45312 0.46875 1.0469t0.15625 1.2188q0 0.70312-0.17187 1.3125-0.15625 0.59375-0.5 1.0156-0.34375 0.4375-0.82813 0.6875-0.48437 0.23438-1.125 0.23438-0.54687 0-1.0469-0.25-0.48438-0.26562-0.875-0.76562-0.375-0.5-0.60938-1.2188-0.21875-0.73438-0.21875-1.6719v-0.60938q0.17188-0.45312 0.45313-0.8125 0.28125-0.375 0.65625-0.64062 0.35937-0.26562 0.78125-0.40625 0.4375-0.15625 0.90625-0.15625zm13.564 7.8281v-14.219h-0.15625l-5.375 2.0625v1.6563l3.7188-1.4219v11.922zm10.643-1.2656q-0.84375 0-1.4219-0.32812-0.57813-0.34375-0.90625-0.89062-0.35938-0.54688-0.51563-1.2188-0.14062-0.6875-0.14062-1.375v-0.40625q0-0.6875 0.14062-1.3594 0.15625-0.67188 0.51563-1.2188 0.34375-0.54688 0.90625-0.875 0.57812-0.34375 1.4219-0.34375 0.54688 0 1.0156 0.1875 0.48437 0.1875 0.8125 0.51562 0.34375 0.3125 0.54687 0.75 0.20313 0.42188 0.21875 0.89062h1.7031q0-0.79688-0.32813-1.5-0.3125-0.70312-0.89062-1.2188-0.5625-0.51562-1.3594-0.8125-0.78125-0.29688-1.7188-0.29688-1.2031 0-2.1094 0.4375-0.89063 0.42188-1.4844 1.1406-0.60937 0.73438-0.92187 1.7031-0.29688 0.95312-0.29688 2v0.40625q0 1.0469 0.29688 2 0.3125 0.95312 0.92187 1.6875 0.59375 0.71875 1.4844 1.1562 0.90625 0.4375 2.1094 0.4375 0.84375 0 1.6094-0.28125 0.76562-0.29688 1.375-0.79688 0.59375-0.46875 0.9375-1.1094 0.35937-0.64062 0.375-1.3438h-1.7031q-0.0156 0.4375-0.23437 0.8125-0.21875 0.375-0.57813 0.65625-0.35937 0.28125-0.82812 0.4375t-0.95313 0.15625z"
       fill="#00f"
       id="path3631"
       style="fill:#0069bf;fill-opacity:1" />
    <path
       d="m496 14.318h314.96v43.622h-314.96z"
       fill="#000"
       fill-opacity="0"
       fill-rule="evenodd"
       id="path3633" />
    <path
       d="m506.03 11.771v-1.6094q-0.0156-0.76562-0.14062-1.5469-0.125-0.78125-0.375-1.5-0.26563-0.73438-0.65625-1.3594-0.39063-0.625-0.9375-1.0938-0.54688-0.46875-1.2656-0.73438-0.71875-0.28125-1.5938-0.28125t-1.5938 0.28125q-0.70312 0.26562-1.25 0.73438-0.54687 0.46875-0.9375 1.1094-0.39062 0.625-0.65625 1.3438-0.25 0.73438-0.375 1.5156-0.125 0.76562-0.14062 1.5312v1.6094q0.0156 0.76562 0.14062 1.5469 0.125 0.76562 0.39063 1.4844 0.25 0.71875 0.65625 1.3594 0.40625 0.625 0.95312 1.0938 0.54688 0.46875 1.25 0.75 0.70313 0.26562 1.5781 0.26562 0.89062 0 1.5938-0.26562 0.70312-0.28125 1.25-0.75 0.54687-0.46875 0.9375-1.0938 0.40625-0.625 0.65625-1.3438t0.375-1.5 0.14062-1.5469zm-1.7969-1.6406v1.6406q0 0.51562-0.0625 1.0781-0.0469 0.54688-0.1875 1.0938-0.14063 0.54688-0.375 1.0469-0.23438 0.48438-0.57813 0.84375-0.34375 0.39062-0.82812 0.625-0.48438 0.21875-1.125 0.21875-0.625 0-1.1094-0.21875-0.46875-0.23438-0.82812-0.625-0.34375-0.35938-0.57813-0.85938-0.23437-0.5-0.39062-1.0469-0.14063-0.53125-0.20313-1.0938t-0.0781-1.0625v-1.6406q0.0156-0.48438 0.0781-1.0312 0.0625-0.5625 0.20313-1.1094 0.14062-0.53125 0.375-1.0313 0.23437-0.5 0.57812-0.875 0.35938-0.375 0.82813-0.59375 0.48437-0.21875 1.1094-0.21875 0.64063 0 1.1094 0.21875 0.48437 0.21875 0.84375 0.57812 0.34375 0.39062 0.57812 0.89062 0.23438 0.48438 0.375 1.0156 0.14063 0.54688 0.20313 1.1094 0.0625 0.54688 0.0625 1.0469zm14.143-4.7344v-1.5469h-10.547v1.5469h4.3906v12.672h1.75v-12.672zm10.221 6.0938v-1.5312h-5.9375v-4.5625h6.8438v-1.5469h-8.6406v14.219h8.7344v-1.5312h-6.9375v-5.0469zm5.0332 10.844q0.71875 0 1.2656-0.26562 0.54688-0.26562 0.95313-0.65625t0.6875-0.84375q0.29687-0.45312 0.48437-0.875l5.3594-12.188h-2.0156l-2.7344 6.8438-0.48438 1.25-0.46875-1.2812-2.9062-6.8125h-2.0156l4.5469 10.063-0.71875 1.4062q-0.10937 0.20312-0.28125 0.5-0.17187 0.29688-0.40625 0.59375-0.23437 0.28125-0.54687 0.48438t-0.67188 0.20312q-0.14062 0-0.39062-0.01563-0.23438-0.01563-0.46875-0.03125l-0.29688 1.4687q0.17188 0.04687 0.51563 0.09375 0.34375 0.0625 0.59375 0.0625zm12.627-5.7969 7.1094-11.313-0.0312-1.375h-9.0156v1.5469h6.9531l-7.0781 11.266 0.0312 1.4062h9.3906v-1.5312zm11.268 1.5312h1.8594l1.7344-10.109 0.10937-0.60938 0.0937 0.59375 1.7344 10.125h1.8438l1.7344-14.219h-1.7188l-1.0156 9.7813-0.0625 0.59375-0.10938-0.57812-1.7188-9.7969h-1.5781l-1.7188 9.7813-0.10938 0.59375-0.0625-0.57812-1.0156-9.7969h-1.7188zm13.252-14.219h-2.2344v14.219h1.75v-5.6719l-0.14063-5.7344 2.4062 7.4531h1.0312l2.625-7.6563-0.14062 5.9375v5.6719h1.7656v-14.219h-2.25l-2.5 7.1094zm17.346 9.4375v-9.4375h-1.9375l-6.3594 9.8594v1.0625h6.4844v3.2969h1.8125v-3.2969h1.9688v-1.4844zm-6.2969 0 4.1875-6.4844 0.29688-0.54688v7.0313zm12.955-9.4375h-2.2344v14.219h1.75v-5.6719l-0.14062-5.7344 2.4062 7.4531h1.0312l2.625-7.6563-0.14063 5.9375v5.6719h1.7656v-14.219h-2.25l-2.5 7.1094zm9.8301 14.219h3.2969q1.0156-0.01563 1.8906-0.25 0.89062-0.23438 1.5938-0.67188 0.67187-0.42188 1.2031-1.0156 0.54688-0.59375 0.89063-1.3281 0.34375-0.70312 0.51562-1.5312 0.1875-0.84375 0.1875-1.7812v-1.0469q-0.0156-0.98438-0.20312-1.8438-0.1875-0.85938-0.54688-1.5781-0.40625-0.84375-1.0781-1.4844-0.65625-0.65625-1.5312-1.0625-0.625-0.29688-1.3594-0.45312-0.73437-0.15625-1.5625-0.17188h-3.2969zm1.8281-12.734h1.4688q0.67188 0.01563 1.2344 0.15625 0.5625 0.14062 1.0312 0.39062 0.64062 0.34375 1.0781 0.89062 0.45313 0.54688 0.71875 1.2344 0.20313 0.53125 0.29688 1.1406 0.10937 0.60938 0.10937 1.2812v1.0625q0 0.65625-0.10937 1.25-0.0937 0.59375-0.28125 1.125-0.23438 0.625-0.625 1.1406-0.375 0.51562-0.90625 0.85938-0.5 0.34375-1.1406 0.53125-0.625 0.1875-1.4062 0.20312h-1.4688zm19.268 12.734v-14.219h-1.8281l-0.0312 10.609-5.5156-10.609h-1.8438v14.219h1.8281l0.0312-10.625 5.5156 10.625zm3.377-10.563v1.5625h3.5938v7.4375h-3.5938v1.5625h8.8438v-1.5625h-3.4375v-9zm3.3594-2.7812q0 0.4375 0.26562 0.73438 0.26563 0.29688 0.8125 0.29688 0.54688 0 0.8125-0.29688 0.28125-0.29688 0.28125-0.73438 0-0.23438-0.0781-0.4375-0.0781-0.21875-0.23438-0.34375-0.125-0.14062-0.32812-0.20312-0.1875-0.07813-0.45313-0.07813-0.25 0-0.45312 0.07813-0.20313 0.0625-0.32813 0.20312-0.15625 0.14062-0.23437 0.34375-0.0625 0.20312-0.0625 0.4375zm10.346-0.875h-2.2344v14.219h1.75v-5.6719l-0.14063-5.7344 2.4062 7.4531h1.0312l2.625-7.6563-0.14062 5.9375v5.6719h1.7656v-14.219h-2.25l-2.5 7.1094zm10.846 3.6562h-1.625v10.563h1.7188v-8.4062q0.0625-0.15625 0.15625-0.29688 0.0937-0.14062 0.21875-0.25 0.17188-0.125 0.40625-0.20312 0.23438-0.07813 0.5625-0.07813 0.29688 0 0.51563 0.07813t0.35937 0.23438q0.15625 0.15625 0.21875 0.42188 0.0781 0.25 0.0781 0.57812v7.9219h1.7188v-7.9062q0-0.0625 0-0.10938 0-0.04687 0-0.09375 0.0312-0.23438 0.125-0.4375 0.0937-0.20312 0.25-0.35938 0.15625-0.14062 0.39062-0.23438 0.23438-0.09375 0.54688-0.09375t0.53125 0.07813q0.23437 0.07813 0.39062 0.23438 0.14063 0.17188 0.21875 0.42188 0.0781 0.25 0.0781 0.59375v7.9062h1.7188v-7.8906q0-0.76562-0.17188-1.3281-0.17187-0.5625-0.5-0.90625-0.3125-0.3125-0.75-0.46875-0.4375-0.17188-0.98437-0.17188-0.40625 0.01563-0.75 0.10938-0.32813 0.09375-0.59375 0.26563-0.21875 0.14062-0.40625 0.34375-0.1875 0.1875-0.32813 0.42188-0.0937-0.25-0.25-0.4375-0.15625-0.20312-0.34375-0.34375-0.25-0.17188-0.59375-0.26563-0.32812-0.09375-0.75-0.09375-0.73437 0.01563-1.2656 0.32813-0.51563 0.3125-0.84375 0.85938zm20.08 10.563v-14.219h-1.8281l-0.0312 10.609-5.5156-10.609h-1.8438v14.219h1.8281l0.0312-10.625 5.5156 10.625zm3.0957-14.219v1.5781h3.3281v11.078h-3.3281v1.5625h8.5938v-1.5625h-3.4062v-11.078h3.4062v-1.5781zm20.908 14.219v-14.219h-1.8281l-0.0312 10.609-5.5156-10.609h-1.8438v14.219h1.8281l0.0312-10.625 5.5156 10.625zm2.9082 0h3.2969q1.0156-0.01563 1.8906-0.25 0.89063-0.23438 1.5938-0.67188 0.67188-0.42188 1.2031-1.0156 0.54687-0.59375 0.89062-1.3281 0.34375-0.70312 0.51563-1.5312 0.1875-0.84375 0.1875-1.7812v-1.0469q-0.0156-0.98438-0.20313-1.8438-0.1875-0.85938-0.54687-1.5781-0.40625-0.84375-1.0781-1.4844-0.65625-0.65625-1.5312-1.0625-0.625-0.29688-1.3594-0.45312-0.73438-0.15625-1.5625-0.17188h-3.2969zm1.8281-12.734h1.4688q0.67187 0.01563 1.2344 0.15625 0.5625 0.14062 1.0312 0.39062 0.64063 0.34375 1.0781 0.89062 0.45312 0.54688 0.71875 1.2344 0.20312 0.53125 0.29687 1.1406 0.10938 0.60938 0.10938 1.2812v1.0625q0 0.65625-0.10938 1.25-0.0937 0.59375-0.28125 1.125-0.23437 0.625-0.625 1.1406-0.375 0.51562-0.90625 0.85938-0.5 0.34375-1.1406 0.53125-0.625 0.1875-1.4062 0.20312h-1.4688zm13.518 7.7969 3.875 4.9375h2.2969l-4.9219-6.1562 4.2656-4.4063h-2.1875l-3.4688 3.4688-1.1875 1.2656v-9.1719h-1.8125v15h1.8125v-3.6562zm17.549-2.6875v-1.5625h-8.7188v1.5625zm0 4.0625v-1.5625h-8.7188v1.5625z"
       fill="#0f0"
       id="path3635"
       style="fill:#02a556;fill-opacity:1" />
    <path
       d="m741.29 14.318h143.84v43.622h-143.84z"
       fill="#000"
       fill-opacity="0"
       fill-rule="evenodd"
       id="path3637" />
    <path
       d="m750.79 18.068v-1.4688h-7.1406l3.8125-4.1406q0.54688-0.59375 1.0312-1.1875 0.48438-0.59375 0.84375-1.1875 0.375-0.60938 0.57813-1.2188 0.21875-0.625 0.21875-1.2656 0-0.84375-0.29688-1.5625-0.29687-0.73438-0.85937-1.2656-0.54688-0.51562-1.3594-0.8125-0.79687-0.3125-1.8125-0.3125-1.0938 0-1.9531 0.35938-0.84375 0.34375-1.4375 0.95312-0.59375 0.59375-0.90625 1.3906t-0.3125 1.6875h1.8125q0-0.65625 0.17187-1.1875 0.17188-0.54688 0.53125-0.9375 0.34375-0.35938 0.85938-0.5625 0.53125-0.21875 1.2344-0.21875 0.59375 0 1.0469 0.20312 0.46875 0.20312 0.79687 0.54688 0.32813 0.34375 0.5 0.8125 0.17188 0.45312 0.17188 0.98438 0 0.42188-0.10938 0.82812-0.10937 0.40625-0.35937 0.85938t-0.67188 1q-0.42187 0.53125-1.0469 1.2344l-4.6562 5.1719v1.2969zm12.205-5.4375v-3.3281q0-1.3594-0.3125-2.4063-0.3125-1.0625-0.89063-1.7812-0.60937-0.71875-1.4688-1.0938-0.84375-0.375-1.9375-0.375-1.0781 0-1.9375 0.375-0.85937 0.375-1.4375 1.0938-0.59375 0.71875-0.90625 1.7812-0.3125 1.0469-0.3125 2.4063v3.3281q0 1.3594 0.3125 2.4062t0.90625 1.7656q0.59375 0.73438 1.4531 1.1094 0.85937 0.35938 1.9375 0.35938 1.0938 0 1.9375-0.375 0.85937-0.375 1.4531-1.0938 0.57813-0.71875 0.89063-1.7656t0.3125-2.4062zm-7.3906-0.35938q0-0.26562 0-0.5 0-0.25 0-0.48438v-2.3906q0-1 0.20313-1.75 0.20312-0.76562 0.60937-1.2344 0.34375-0.39062 0.82813-0.57812 0.5-0.20312 1.1406-0.20312 0.64063 0 1.125 0.1875 0.48438 0.1875 0.8125 0.54688 0.34375 0.35938 0.53125 0.90625 0.20313 0.54688 0.28125 1.25zm5.5781 0.73438q0 1.0469-0.21875 1.8281-0.20313 0.76562-0.65625 1.2344-0.32813 0.35938-0.8125 0.54688-0.46875 0.1875-1.0938 0.1875-0.57813 0-1.0469-0.17188t-0.79687-0.5q-0.375-0.35938-0.59375-0.89062-0.21875-0.54688-0.3125-1.2656l5.5312-4.2344q0 0.28125 0 0.70312 0 0.40625 0 0.54688zm13.611 5.0625v-1.4688h-7.1406l3.8125-4.1406q0.54688-0.59375 1.0312-1.1875 0.48438-0.59375 0.84375-1.1875 0.375-0.60938 0.57813-1.2188 0.21875-0.625 0.21875-1.2656 0-0.84375-0.29688-1.5625-0.29687-0.73438-0.85937-1.2656-0.54688-0.51562-1.3594-0.8125-0.79687-0.3125-1.8125-0.3125-1.0938 0-1.9531 0.35938-0.84375 0.34375-1.4375 0.95312-0.59375 0.59375-0.90625 1.3906t-0.3125 1.6875h1.8125q0-0.65625 0.17187-1.1875 0.17188-0.54688 0.53125-0.9375 0.34375-0.35938 0.85938-0.5625 0.53125-0.21875 1.2344-0.21875 0.59375 0 1.0469 0.20312 0.46875 0.20312 0.79687 0.54688 0.32813 0.34375 0.5 0.8125 0.17188 0.45312 0.17188 0.98438 0 0.42188-0.10938 0.82812-0.10937 0.40625-0.35937 0.85938t-0.67188 1q-0.42187 0.53125-1.0469 1.2344l-4.6562 5.1719v1.2969zm12.002 0v-1.4688h-7.1406l3.8125-4.1406q0.54688-0.59375 1.0312-1.1875 0.48438-0.59375 0.84375-1.1875 0.375-0.60938 0.57813-1.2188 0.21875-0.625 0.21875-1.2656 0-0.84375-0.29688-1.5625-0.29687-0.73438-0.85937-1.2656-0.54688-0.51562-1.3594-0.8125-0.79687-0.3125-1.8125-0.3125-1.0938 0-1.9531 0.35938-0.84375 0.34375-1.4375 0.95312-0.59375 0.59375-0.90625 1.3906t-0.3125 1.6875h1.8125q0-0.65625 0.17187-1.1875 0.17188-0.54688 0.53125-0.9375 0.34375-0.35938 0.85938-0.5625 0.53125-0.21875 1.2344-0.21875 0.59375 0 1.0469 0.20312 0.46875 0.20312 0.79687 0.54688 0.32813 0.34375 0.5 0.8125 0.17188 0.45312 0.17188 0.98438 0 0.42188-0.10938 0.82812-0.10937 0.40625-0.35937 0.85938t-0.67188 1q-0.42187 0.53125-1.0469 1.2344l-4.6562 5.1719v1.2969zm11.174-5.4844v-1.4844h-7.4688v1.4844zm13.033 0.04687v-3.3281q0-1.3594-0.3125-2.4063-0.3125-1.0625-0.89063-1.7812-0.60937-0.71875-1.4688-1.0938-0.84375-0.375-1.9375-0.375-1.0781 0-1.9375 0.375-0.85937 0.375-1.4375 1.0938-0.59375 0.71875-0.90625 1.7812-0.3125 1.0469-0.3125 2.4063v3.3281q0 1.3594 0.3125 2.4062t0.90625 1.7656q0.59375 0.73438 1.4531 1.1094 0.85937 0.35938 1.9375 0.35938 1.0938 0 1.9375-0.375 0.85937-0.375 1.4531-1.0938 0.57813-0.71875 0.89063-1.7656t0.3125-2.4062zm-7.3906-0.35938q0-0.26562 0-0.5 0-0.25 0-0.48438v-2.3906q0-1 0.20313-1.75 0.20312-0.76562 0.60937-1.2344 0.34375-0.39062 0.82813-0.57812 0.5-0.20312 1.1406-0.20312 0.64063 0 1.125 0.1875 0.48438 0.1875 0.8125 0.54688 0.34375 0.35938 0.53125 0.90625 0.20313 0.54688 0.28125 1.25zm5.5781 0.73438q0 1.0469-0.21875 1.8281-0.20313 0.76562-0.65625 1.2344-0.32813 0.35938-0.8125 0.54688-0.46875 0.1875-1.0938 0.1875-0.57813 0-1.0469-0.17188t-0.79687-0.5q-0.375-0.35938-0.59375-0.89062-0.21875-0.54688-0.3125-1.2656l5.5312-4.2344q0 0.28125 0 0.70312 0 0.40625 0 0.54688zm10.752 5.0625v-14.219h-0.15625l-5.375 2.0625v1.6563l3.7188-1.4219v11.922zm14.033-5.4844v-1.4844h-7.4688v1.4844zm12.83 5.4844v-1.4688h-7.1406l3.8125-4.1406q0.54687-0.59375 1.0312-1.1875 0.48437-0.59375 0.84375-1.1875 0.375-0.60938 0.57812-1.2188 0.21875-0.625 0.21875-1.2656 0-0.84375-0.29687-1.5625-0.29688-0.73438-0.85938-1.2656-0.54687-0.51562-1.3594-0.8125-0.79688-0.3125-1.8125-0.3125-1.0938 0-1.9531 0.35938-0.84375 0.34375-1.4375 0.95312-0.59375 0.59375-0.90625 1.3906t-0.3125 1.6875h1.8125q0-0.65625 0.17188-1.1875 0.17187-0.54688 0.53125-0.9375 0.34375-0.35938 0.85937-0.5625 0.53125-0.21875 1.2344-0.21875 0.59375 0 1.0469 0.20312 0.46875 0.20312 0.79688 0.54688 0.32812 0.34375 0.5 0.8125 0.17187 0.45312 0.17187 0.98438 0 0.42188-0.10937 0.82812-0.10938 0.40625-0.35938 0.85938t-0.67187 1q-0.42188 0.53125-1.0469 1.2344l-4.6562 5.1719v1.2969zm12.033-10.516q0-0.92188-0.32813-1.6406-0.3125-0.73438-0.89062-1.2344-0.5625-0.5-1.3438-0.76562-0.76563-0.26562-1.6562-0.26562-0.90625 0-1.6719 0.26562-0.76562 0.26562-1.3125 0.76562-0.5625 0.5-0.875 1.2344-0.3125 0.71875-0.3125 1.6406 0 0.53125 0.14063 1.0156 0.15625 0.46875 0.42187 0.875 0.25 0.40625 0.625 0.73438 0.39063 0.32812 0.85938 0.5625-0.54688 0.23438-0.98438 0.59375-0.4375 0.34375-0.75 0.78125-0.3125 0.45312-0.48437 0.98438-0.15625 0.53125-0.15625 1.125 0 0.98438 0.34375 1.7344 0.35937 0.75 0.96875 1.2656 0.60937 0.51562 1.4219 0.78125 0.82813 0.26562 1.7969 0.26562 0.9375 0 1.75-0.26562 0.82812-0.28125 1.4375-0.79688 0.60937-0.51562 0.95312-1.2656 0.35938-0.75 0.35938-1.7188 0-0.59375-0.17188-1.1094-0.15625-0.53125-0.46875-0.98438-0.32812-0.45312-0.78125-0.79688-0.4375-0.34375-0.98437-0.57812 0.3125-0.15625 0.57812-0.34375 0.28125-0.20312 0.5-0.4375 0.46875-0.46875 0.73438-1.0781 0.26562-0.625 0.28125-1.3438zm-1.4844 6.6406q0 0.60938-0.20312 1.0938-0.20313 0.48438-0.54688 0.8125-0.35937 0.34375-0.85937 0.51562t-1.0938 0.17188q-0.625 0-1.1406-0.17188-0.5-0.17188-0.84375-0.51562-0.35937-0.32812-0.54687-0.8125t-0.1875-1.0938q0-0.59375 0.1875-1.0938t0.54687-0.85938q0.34375-0.35938 0.84375-0.54688 0.5-0.20312 1.1094-0.20312 0.60937 0 1.1094 0.20312 0.5 0.1875 0.85938 0.54688 0.35937 0.35938 0.5625 0.85938 0.20312 0.5 0.20312 1.0938zm-0.32812-6.6094q0 0.54688-0.1875 1-0.17188 0.45312-0.48438 0.76562-0.32812 0.3125-0.76562 0.48438t-0.95313 0.17188q-0.53125 0-0.96875-0.17188-0.42187-0.17188-0.73437-0.48438-0.32813-0.3125-0.5-0.75-0.17188-0.45312-0.17188-1.0156 0-0.54688 0.17188-1 0.17187-0.45312 0.48437-0.78125t0.73438-0.5q0.4375-0.17188 0.96875-0.17188t0.96875 0.1875 0.75 0.5q0.3125 0.32812 0.5 0.78125t0.1875 0.98438z"
       fill="#90f"
       id="path3639"
       style="fill:#5b2d90;fill-opacity:1" />
  </g>
  <metadata
     id="metadata3668">
    <rdf:RDF>
      <cc:Work
         rdf:about="">
        <dc:title>A concatenation of three strings</dc:title>
      </cc:Work>
    </rdf:RDF>
  </metadata>
</svg>
