<?xml version="1.0" encoding="UTF-8" standalone="no"?>
<svg
   width="25.364662mm"
   height="24.029999mm"
   version="1.1"
   viewBox="0 0 25.364663 24.029998"
   id="svg13"
   sodipodi:docname="favicon.svg"
   inkscape:version="1.1.1 (3bf5ae0d25, 2021-09-20)"
   xmlns:inkscape="http://www.inkscape.org/namespaces/inkscape"
   xmlns:sodipodi="http://sodipodi.sourceforge.net/DTD/sodipodi-0.dtd"
   xmlns="http://www.w3.org/2000/svg"
   xmlns:svg="http://www.w3.org/2000/svg">
  <defs
     id="defs17" />
  <sodipodi:namedview
     id="namedview15"
     pagecolor="#505050"
     bordercolor="#eeeeee"
     borderopacity="1"
     inkscape:pageshadow="0"
     inkscape:pageopacity="0"
     inkscape:pagecheckerboard="0"
     inkscape:document-units="mm"
     showgrid="false"
     inkscape:zoom="6.060155"
     inkscape:cx="-3.0527272"
     inkscape:cy="50.081227"
     inkscape:window-width="1920"
     inkscape:window-height="991"
     inkscape:window-x="2391"
     inkscape:window-y="444"
     inkscape:window-maximized="1"
     inkscape:current-layer="g11"
     fit-margin-top="0"
     fit-margin-left="0"
     fit-margin-right="0"
     fit-margin-bottom="0" />
  <g
     transform="translate(-4.352943,-8.7234802)"
     id="g11">
    <path
       d="m 28.151,13.896 c 0.69725,-0.29384 1.3796,-0.03154 1.4642,0.76864 a 10.333,10.333 0 0 1 -0.0415,1.7531 c -0.03486,0.52958 -0.10459,1.0575 -0.16601,1.5854 q -0.10957,0.87157 -0.24238,1.7415 l -1.3447,7.5287 a 6.1026,6.1026 0 0 1 -1.1471,2.4736 7.532,7.532 0 0 1 -2.0718,1.9042 c -0.74374,0.4665 -1.5323,0.83006 -2.4238,0.90809 l -12.783,0.11122 c -0.75204,-0.0498 -1.5091,-0.12948 -2.1897,-0.47646 a 5.0468,5.0468 0 0 1 -2.11,-1.9922 C 4.51915,29.23394 4.3714,28.17479 4.45938,27.07739 l 1.8676,-12.399 c 0.2872,-1.7348 1.1521,-3.1393 2.467,-4.2632 a 6.5791,6.5791 0 0 1 3.4879,-1.6087 l 9.7516,0.0083 c 0.4748,0.046484 0.97781,-0.013282 1.1422,0.51132 a 1.7431,1.7431 0 0 1 0.01992,0.97449 l -7.0373,13.057 a 1.3563,1.3563 0 0 1 -0.16601,0.18926 v -2.1216 c 0.01164,-0.85829 0.04316,-1.7166 0.05312,-2.5749 0.0249,-1.8527 0.03984,-3.7054 0.0581,-5.5598 V 12.9685 h -5.8569 v 0.26064 l 0.11455,15.921 h 0.36689 q 4.1636,0 8.3255,0 a 0.34199,0.34199 0 0 0 0.36689,-0.20585 z"
       fill="#ffffff"
       stroke-width="0.16601"
       id="path9"
       stroke="#000000" />
  </g>
</svg>
