<?xml version="1.0" encoding="UTF-8" standalone="no"?>
<!-- Created with Inkscape (http://www.inkscape.org/) -->

<svg
   width="20.961716mm"
   height="15.169773mm"
   viewBox="0 0 20.961716 15.169773"
   version="1.1"
   id="svg2182"
   inkscape:version="1.1.2 (0a00cf5339, 2022-02-04, custom)"
   sodipodi:docname="formatteddate.svg"
   xmlns:inkscape="http://www.inkscape.org/namespaces/inkscape"
   xmlns:sodipodi="http://sodipodi.sourceforge.net/DTD/sodipodi-0.dtd"
   xmlns="http://www.w3.org/2000/svg"
   xmlns:svg="http://www.w3.org/2000/svg">
  <sodipodi:namedview
     id="namedview2184"
     pagecolor="#505050"
     bordercolor="#eeeeee"
     borderopacity="1"
     inkscape:pageshadow="0"
     inkscape:pageopacity="0"
     inkscape:pagecheckerboard="0"
     inkscape:document-units="mm"
     showgrid="false"
     inkscape:zoom="0.73406285"
     inkscape:cx="180.50226"
     inkscape:cy="217.28385"
     inkscape:window-width="1920"
     inkscape:window-height="991"
     inkscape:window-x="-9"
     inkscape:window-y="-9"
     inkscape:window-maximized="1"
     inkscape:current-layer="layer1" />
  <defs
     id="defs2179" />
  <g
     inkscape:label="Layer 1"
     inkscape:groupmode="layer"
     id="layer1"
     transform="translate(-57.281272,-91.174821)">
    <g
       id="g2416"
       transform="matrix(0.07490279,0,0,0.07490279,-75.56791,77.747085)"
       style="stroke:#000000;stroke-width:0.999657;stroke-miterlimit:4;stroke-dasharray:none;stroke-opacity:1;paint-order:stroke fill markers">
      <g
         transform="translate(1885.9921,273.4311)"
         id="g524"
         style="stroke:#000000;stroke-width:0.999657;stroke-miterlimit:4;stroke-dasharray:none;stroke-opacity:1;paint-order:stroke fill markers">
        <path
           fill-mode="evenodd"
           fill="orange"
           d="m 3.365,-11.972 0.021,0.014 0.023,0.005 0.5,0.337 0.99,0.646 0.028,0.04 0.04,0.027 0.384,0.569 0.607,0.855 0.017,0.071 0.042,0.062 0.149,0.737 0.232,0.975 0.014,0.344 0.004,0.209 L 6.155,-5.489 5.921,-4.788 5.829,-4.615 5.802,-4.482 5.408,-3.54 4.881,-1.995 4.212,0.277 4.211,0.279 3.379,3.226 3.314,3.364 3.291,3.497 2.083,6.94 l -1.017,4.02 -0.003,0.007 -1.284,5.015 -0.002,0.003 -1.32,5.363 -1.268,6.066 -0.002,0.005 -1.321,6.337 -0.984,6.589 -0.01,0.029 -0.005,0.058 -1.133,6.567 -0.852,6.485 -0.003,0.009 -10e-4,0.017 -0.855,6.025 -0.519,5.878 -0.019,0.065 -0.016,0.223 -0.823,5.494 -0.563,5.044 -0.464,4.594 -0.023,0.076 -0.018,0.223 -0.66,3.917 -0.463,3.466 -0.039,0.119 -0.027,0.241 -0.63,2.813 -0.009,0.014 -0.005,0.04 -0.577,2.352 -0.105,0.16 -0.075,0.37 -0.584,1.379 -0.123,0.148 -0.055,0.199 -0.507,0.86 -0.307,0.302 -0.08,0.192 -0.393,0.391 -1.389,0.574 -1.39,-0.574 -0.393,-0.391 -0.082,-0.198 -0.311,-0.308 -0.493,-0.834 -0.108,-0.39 -0.184,-0.256 -0.443,-1.38 -0.066,-0.413 -0.089,-0.279 -0.293,-2.357 -0.026,-0.409 -0.006,-0.03 -0.061,-2.848 v -0.04 l -0.001,-0.001 -0.047,-3.57 v -0.065 l 0.016,-0.384 0.324,-3.957 0.242,-4.589 0.004,-0.019 0.005,-0.117 0.428,-5.174 0.014,-0.048 0.011,-0.18 0.722,-5.46 0.461,-5.883 0.016,-0.056 0.015,-0.222 0.846,-6.18 v -0.002 l 0.846,-6.54 0.017,-0.055 0.012,-0.129 1.135,-6.629 0.989,-6.662 0.031,-0.09 0.019,-0.178 1.365,-6.543 0.002,-0.005 1.287,-6.148 0.024,-0.062 0.011,-0.085 1.369,-5.543 0.004,-0.01 10e-4,-0.005 1.299,-5.042 0.002,-0.005 1.071,-4.201 0.094,-0.208 0.035,-0.205 1.247,-3.519 0.828,-2.872 0.017,-0.034 0.004,-0.029 0.743,-2.392 0.069,-0.137 0.021,-0.119 0.685,-1.812 0.151,-0.192 0.073,-0.303 0.555,-1.08 0.053,-0.056 0.019,-0.074 0.25,-0.446 0.081,-0.177 0.182,-0.208 0.785,-1.163 0.577,-0.389 0.233,-0.265 0.284,-0.084 0.464,-0.312 1.907,-0.386 z"
           id="path518"
           style="stroke:#000000;stroke-width:0.999657;stroke-miterlimit:4;stroke-dasharray:none;stroke-opacity:1;paint-order:stroke fill markers" />
        <g
           transform="translate(-22.25,95.875)"
           id="g522"
           style="stroke:#000000;stroke-width:0.999657;stroke-miterlimit:4;stroke-dasharray:none;stroke-opacity:1;paint-order:stroke fill markers">
          <path
             fill-mode="evenodd"
             fill="orange"
             d="m -13.042,-31.65 0.03,0.019 0.032,0.007 0.507,0.341 0.21,0.136 0.107,0.032 0.067,0.081 0.622,0.401 0.04,0.056 0.055,0.037 0.385,0.571 0.617,0.853 0.024,0.098 0.058,0.085 0.024,0.119 0.16,0.367 0.008,0.039 0.025,0.036 0.032,0.157 0.198,0.172 0.114,0.159 0.336,0.335 0.368,0.362 0.021,0.018 0.343,0.148 0.638,0.199 0.166,0.084 0.138,0.026 0.612,0.24 0.1,0.027 0.663,0.083 0.062,0.019 0.151,0.013 1.002,0.173 0.96,0.106 1.037,0.097 1.238,-0.007 h 0.032 6.823 l 1.8,-0.129 0.389,-0.014 h 1.829 l 1.956,-0.13 0.168,-0.006 0.016,-0.004 1.972,-0.068 1.81,-0.134 h 0.006 l 1.838,-0.142 0.419,-0.017 h 1.344 l 1.108,-0.158 0.766,-0.056 h 2.32 l 0.637,-0.08 0.492,-0.099 0.441,-0.045 0.144,-0.041 0.766,-0.07 0.145,-0.007 0.162,-0.029 0.217,-0.063 1.471,-0.21 v 0 h 0.501 l 2.031,0.41 1.659,1.119 1.118,1.659 0.411,2.031 -0.411,2.032 -0.298,0.443 -0.084,0.291 -0.291,0.265 -0.445,0.66 -1.088,0.733 -0.268,0.244 -0.257,0.13 -0.045,0.01 -0.001,0.001 -0.013,0.003 -0.1,0.024 -0.173,0.116 -2.032,0.41 h -0.028 l -0.362,0.197 -0.128,0.046 -0.138,0.114 -0.262,0.153 -0.13,0.145 -0.992,0.683 -0.521,0.417 -0.82,0.973 -0.064,0.05 -0.051,0.082 -1.145,1.265 -1.186,1.686 -0.006,0.006 -0.004,0.008 -1.296,1.814 -1.011,1.727 -1.077,2.155 v 10e-4 l -1.057,2.182 -0.948,2.214 -0.589,1.706 -0.027,0.05 -0.007,0.039 -0.871,2.325 -0.002,0.003 -0.541,1.445 -0.247,0.931 -0.183,0.967 -0.252,0.655 -0.09,0.426 -0.494,1.122 -0.049,0.057 -0.02,0.088 -0.238,0.489 -0.224,0.248 -0.674,0.999 -0.585,0.395 -0.239,0.265 -0.269,0.078 -0.418,0.282 -1.851,0.373 v 0 L 6.446,11.606 6.028,11.324 5.759,11.246 5.524,10.984 4.934,10.586 4.228,9.539 4.024,9.312 3.811,8.879 3.78,8.743 3.684,8.6 3.29,6.652 3.38,5.705 3.543,4.859 3.571,4.39 3.224,6.107 2.818,6.709 2.805,6.756 2.756,6.801 2.225,7.589 v 0 L 1.036,8.39 1.009,8.415 0.976,8.434 0.97,8.435 0.742,8.589 -1.073,8.955 -2.888,8.589 -2.927,8.562 -2.969,8.554 -3.174,8.406 -3.18,8.403 -3.186,8.398 -3.429,8.224 -3.515,8.166 -3.517,8.165 -3.52,8.162 -4.371,7.589 -4.422,7.513 -4.493,7.462 -4.699,7.239 -4.982,6.793 -5.213,6.577 -5.407,6.277 -5.452,6.125 -5.573,6.001 -5.824,5.552 -5.902,5.255 -6.069,5.053 -6.301,4.509 -6.549,4.058 -6.611,3.818 -6.749,3.656 -6.928,3.253 -7.434,2.536 -7.714,1.981 -7.858,1.82 -8.5,0.496 -8.504,0.478 -8.512,0.469 l -0.7,-1.441 -0.801,-1.511 -0.017,-0.067 -0.039,-0.043 -0.925,-1.827 -0.071,-0.296 -0.141,-0.178 -0.641,-1.642 -0.88,-1.748 -0.063,-0.26 -0.126,-0.157 -0.846,-2.103 -0.945,-2.149 -0.047,-0.223 -0.149,-0.292 -0.554,-1.717 -0.713,-1.542 -0.007,-0.029 -0.012,-0.014 -0.775,-1.685 -0.069,-0.314 -0.124,-0.166 -0.448,-1.283 -0.447,-0.843 -0.072,-0.286 -0.3,-0.602 -0.158,-0.501 -0.126,-0.199 -0.078,-0.263 -0.045,-0.046 -0.009,-0.016 -0.141,-0.155 -0.272,-0.544 -0.037,-0.153 -0.111,-0.165 -0.098,-0.486 -0.09,-0.131 -0.002,-0.011 -0.007,-0.009 -0.125,-0.616 -0.277,-1.315 -0.002,-0.238 -0.001,-0.065 -0.007,-0.031 0.008,-0.27 0.004,-0.085 0.247,-0.978 0.143,-0.707 0.057,-0.084 0.025,-0.099 0.616,-0.853 0.385,-0.571 0.055,-0.037 0.04,-0.056 1.006,-0.65 0.507,-0.341 0.032,-0.007 0.03,-0.019 1.907,-0.372 z m 24.605,15.835 -2.045,0.137 -0.363,0.012 H 7.339 l -1.8,0.129 -0.389,0.014 h -7.01 -0.03 l -1.504,-0.009 -0.011,-0.002 -0.56,-0.033 -0.88,-0.102 0.386,0.884 0.025,0.119 0.05,0.063 0.784,1.966 0.885,1.779 0.072,0.304 0.139,0.178 0.626,1.645 0.796,1.608 0.001,0.004 0.812,1.577 0.03,0.121 0.067,0.077 0.691,1.476 0.007,0.031 0.014,0.016 0.469,1.012 0.541,0.806 0.165,0.54 0.349,0.44 0.297,0.76 L 2.617,0.3 2.673,0.557 2.852,0.92 3.087,1.685 3.089,1.698 3.091,1.702 3.242,2.185 3.291,2.502 3.381,2.739 3.447,3.08 3.452,3.133 3.461,3.155 3.511,3.428 3.582,4.2 3.592,4.033 3.656,3.789 3.75,3.049 4.113,1.653 4.227,1.401 4.268,1.171 4.924,-0.581 4.927,-0.584 5.762,-2.815 6.38,-4.605 6.476,-4.783 6.504,-4.917 7.59,-7.454 l 0.061,-0.073 0.026,-0.114 1.158,-2.391 0.012,-0.012 0.003,-0.015 1.158,-2.318 0.11,-0.12 0.042,-0.156 1.229,-2.098 0.109,-0.108 0.133,-0.262 0.51,-0.714 z"
             id="path520"
             style="stroke:#000000;stroke-width:0.999657;stroke-miterlimit:4;stroke-dasharray:none;stroke-opacity:1;paint-order:stroke fill markers" />
        </g>
      </g>
      <g
         transform="translate(1794.8671,260.0561)"
         id="g558"
         style="stroke:#000000;stroke-width:0.999657;stroke-miterlimit:4;stroke-dasharray:none;stroke-opacity:1;paint-order:stroke fill markers">
        <path
           fill-mode="evenodd"
           fill="orange"
           d="m -11.922,-66.428 0.717,0.004 0.021,0.004 0.907,0.087 0.817,0.158 0.061,0.024 0.092,0.011 1.031,0.24 1.426,0.61 0.048,0.014 0.034,0.021 0.002,10e-4 0.002,0.001 0.823,0.518 0.06,0.063 0.135,0.068 0.987,0.695 0.195,0.223 0.348,0.226 0.917,0.877 0.978,0.896 0.3,0.416 0.308,0.263 1.041,1.416 0.09,0.173 0.081,0.076 0.868,1.349 0.039,0.132 0.105,0.107 0.685,1.215 0.008,0.031 0.02,0.021 0.722,1.305 0.182,0.701 0.227,0.36 0.295,1.272 0.335,1.046 0.07,0.444 0.061,0.11 0.205,1.315 0.031,0.383 0.009,0.04 0.027,0.999 0.081,0.938 0.01,0.226 -0.141,0.835 -0.262,0.757 -0.148,0.524 -0.056,0.659 -0.026,0.052 -0.053,0.308 -0.217,0.607 -0.228,0.692 -0.846,0.607 -0.848,-0.613 -0.194,-0.588 -0.2,-0.331 -0.461,-0.517 -0.049,-0.128 -0.088,-0.046 -0.444,-0.64 -0.039,-0.121 -0.101,-0.108 -0.259,-0.488 -0.481,-0.543 -0.043,-0.114 -0.155,-0.135 -0.618,-0.874 -0.014,-0.044 -0.044,-0.04 -0.624,-0.937 -0.69,-0.793 -0.183,-0.304 -0.152,-0.143 -0.532,-0.83 -0.751,-0.727 -0.033,-0.048 -0.047,-0.033 -0.991,-1.013 -0.03,-0.045 -0.042,-0.03 -1.085,-1.163 -0.88,-0.915 -0.759,-0.526 -0.056,-0.064 -0.113,-0.061 -0.74,-0.568 -0.031,0.253 -0.013,0.04 -0.008,0.099 -0.189,1.216 -0.123,1.32 -0.119,1.535 0.002,1.48 0.132,1.808 0.002,0.063 0.002,0.009 0.132,2.124 0.312,1.98 0.476,2.436 0.007,0.074 0.012,0.032 0.496,2.758 0.003,0.038 0.005,0.013 0.432,2.459 0.854,2.435 0.053,0.308 0.117,0.283 0.618,2.737 0.806,2.816 0.019,0.132 0.041,0.095 0.664,2.72 0.842,2.458 0.034,0.201 0.082,0.181 0.652,2.473 0.894,2.359 0.028,0.154 0.08,0.159 0.574,1.833 0.757,1.406 0.08,0.312 0.383,0.874 0.391,1.555 0.579,1.26 0.049,0.223 0.164,0.314 0.489,1.464 0.416,1.129 0.421,0.962 0.051,0.243 0.093,0.124 0.322,0.909 0.286,0.698 0.06,0.303 0.162,0.362 0.04,0.152 0.069,0.11 0.116,0.401 0.256,0.307 0.149,0.349 0.024,0.114 0.046,0.058 0.055,0.14 L 3.441,0.787 3.064,2.655 3.003,2.745 2.983,2.836 2.65,3.269 2.035,4.181 1.975,4.222 1.958,4.247 1.835,4.33 1.741,4.452 1.677,4.506 0.866,4.983 0.467,5.252 0.378,5.27 0.287,5.324 -1.359,5.621 -3.004,5.324 -3.097,5.27 -3.185,5.252 -3.27,5.195 -3.307,5.181 -3.395,5.11 -3.44,5.08 -3.638,5.035 -4.029,4.722 -4.388,4.511 -4.466,4.446 -4.557,4.327 -4.676,4.247 -4.734,4.16 -5.303,3.707 -5.555,3.394 v 0 L -5.934,2.926 -6.368,2.161 -6.553,1.953 -6.847,1.349 -6.91,1.076 -7.132,0.631 -7.214,0.37 l -0.252,-0.589 -0.04,-0.195 -0.075,-0.098 -0.31,-0.854 -0.416,-0.945 -0.043,-0.205 -0.082,-0.107 -0.49,-1.324 -0.018,-0.094 -0.047,-0.092 -0.419,-1.252 -0.657,-1.432 -0.078,-0.355 -0.242,-0.554 -0.348,-1.393 -0.688,-1.276 -0.072,-0.283 -0.313,-0.626 -0.677,-2.166 -0.931,-2.456 -0.049,-0.261 -0.123,-0.273 -0.673,-2.555 -0.855,-2.498 -0.042,-0.248 -0.096,-0.222 -0.7,-2.863 -0.815,-2.85 -0.026,-0.184 -0.054,-0.129 -0.581,-2.585 -0.892,-2.545 -0.076,-0.442 -0.141,-0.387 -0.495,-2.831 -10e-4,-0.01 -0.496,-2.756 v -0.007 l -0.486,-2.497 -0.015,-0.153 -0.023,-0.066 -0.351,-2.261 -0.033,-0.416 -0.021,-0.083 -0.14,-2.347 v 0 l -0.136,-1.947 -0.014,-0.367 v -0.007 l 0.003,-1.86 10e-4,-0.002 0.016,-0.4 0.148,-1.807 0.003,-0.011 0.002,-0.044 0.148,-1.523 0.02,-0.069 0.017,-0.214 0.207,-1.3 0.136,-1.073 0.238,-0.736 0.109,-0.542 0.373,-0.89 0.002,-0.003 0.355,-0.849 0.307,-0.371 0.133,-0.44 0.014,-0.021 0.012,-0.039 0.339,-0.688 0.069,-0.268 0.131,-0.138 0.156,-0.315 1.084,-1.114 0.218,-0.115 0.096,-0.101 0.767,-0.489 0.124,-0.036 0.101,-0.099 0.476,-0.273 0.316,-0.084 0.219,-0.182 0.469,-0.202 0.026,-0.005 0.025,-0.017 1.942,-0.392 z"
           id="path526"
           style="stroke:#000000;stroke-width:0.999657;stroke-miterlimit:4;stroke-dasharray:none;stroke-opacity:1;paint-order:stroke fill markers" />
        <g
           transform="translate(-11.375,-23.75)"
           id="g530"
           style="stroke:#000000;stroke-width:0.999657;stroke-miterlimit:4;stroke-dasharray:none;stroke-opacity:1;paint-order:stroke fill markers">
          <path
             fill-mode="evenodd"
             fill="orange"
             d="m 12.559,-3.531 1.146,0.011 h 0.003 l 0.114,0.002 1.003,0.036 0.571,0.134 0.861,0.161 0.65,0.25 0.035,0.028 0.064,0.013 1.328,0.903 0.242,0.245 0.315,0.317 0.472,0.701 0.241,0.358 v 0.001 l 0.001,0.002 0.262,1.299 -0.262,1.299 -0.001,10e-4 v 0.002 l -0.237,0.352 -0.476,0.707 -0.315,0.316 -0.243,0.246 -1.327,0.902 -0.085,0.018 -0.042,0.033 -0.592,0.231 -0.166,0.031 -0.075,0.054 -0.913,0.303 -0.496,0.081 -0.363,0.119 -1.038,0.14 -0.711,0.129 -0.911,0.239 -1,0.298 L 9.787,6.73 9.634,6.757 9.571,6.802 8.613,7.103 7.626,7.511 7.541,7.528 7.5,7.561 6.644,7.892 6.053,8.267 5.607,8.398 5.264,8.673 4.29,9.065 3.405,9.546 3.385,9.552 3.373,9.563 l -0.85,0.46 -0.2,0.051 -0.133,0.113 -0.992,0.446 -0.219,0.047 -0.116,0.089 -0.778,0.284 -0.489,0.088 -0.445,0.15 -0.136,0.02 -0.088,0.045 -0.148,0.036 -0.167,0.113 -1.688,0.34 h -0.077 l -0.24,-0.005 -0.12,0.021 -0.707,0.063 -1.551,-0.313 -0.612,-0.413 -0.24,-0.08 -0.237,-0.179 -0.118,-0.142 -0.06,-0.04 L -7.055,10.731 -7.243,10.604 -7.685,9.949 -7.942,9.64 -7.969,9.527 -8.05,9.406 -8.347,7.939 -8.309,7.751 -8.329,7.653 -8.084,6.443 -7.418,5.456 -7.321,5.39 -7.243,5.274 -7.106,5.182 -6.899,4.939 -5.673,4.002 -5.557,3.898 -5.555,3.897 -5.391,3.745 -4.979,3.484 -4.661,3.131 -4.645,3.124 -4.638,3.106 -3.997,2.421 -3.34,1.666 -3.184,1.595 -2.722,1.244 -2.058,1.005 -1.457,0.37 -1.451,0.367 -1.449,0.362 -0.602,-0.512 0,-0.767 0.593,-0.521 0.838,0.072 0.78,0.316 1.283,0.103 l 0.624,-0.407 0.49,-0.147 0.386,-0.306 1.255,-0.491 0.004,-0.001 1.134,-0.468 0.293,-0.059 0.135,-0.096 1.079,-0.337 0.858,-0.305 0.15,-0.027 0.142,-0.067 1.183,-0.346 0.149,-0.022 0.109,-0.046 1.115,-0.267 0.445,-0.054 0.187,-0.056 0.984,-0.104 0.512,-0.028 z"
             id="path528"
             style="stroke:#000000;stroke-width:0.999657;stroke-miterlimit:4;stroke-dasharray:none;stroke-opacity:1;paint-order:stroke fill markers" />
        </g>
        <g
           transform="translate(12.25,-20.75)"
           id="g534"
           style="stroke:#000000;stroke-width:0.999657;stroke-miterlimit:4;stroke-dasharray:none;stroke-opacity:1;paint-order:stroke fill markers">
          <path
             fill-mode="evenodd"
             fill="orange"
             d="m 4.968,-7.901 0.98,0.177 0.579,0.217 0.41,0.084 1.059,0.451 0.347,0.291 0.408,0.124 1.039,0.696 0.293,0.324 0.511,0.361 0.688,0.729 0.81,0.69 0.347,0.455 0.378,0.316 0.85,1.132 0.261,0.49 0.158,0.167 0.631,1.19 0.019,0.076 0.044,0.048 0.56,1.117 0.102,0.426 0.175,0.239 0.489,1.462 0.451,1.221 0.054,0.299 0.128,0.3 0.279,1.182 0.059,0.493 0.056,0.192 0.142,1.482 0.023,0.482 v 0.002 1.145 0 0.004 l -0.002,1.287 v 0 0.004 l -0.002,1.073 -0.005,0.024 -0.187,1.317 -0.25,0.862 -0.191,0.868 -0.62,1.495 -0.038,0.043 -0.008,0.028 -0.498,0.763 -0.419,0.669 -0.053,0.05 -0.017,0.057 -0.531,0.79 -0.331,0.3 -0.368,0.517 -0.38,0.354 -0.344,0.41 -0.838,0.645 -0.376,0.379 -0.782,0.461 -0.205,0.056 -1.049,0.462 -0.867,0.22 L 8.119,23.564 7.868,23.605 7.661,23.69 6.829,23.877 5.793,23.994 5.72,23.993 4.716,23.977 4.64,23.961 3.777,23.864 2.747,23.632 2.474,23.517 2.212,23.471 1.182,23.094 0.793,22.793 0.299,22.646 -0.717,21.988 -0.82,21.876 -1.039,21.755 -2.049,20.96 -2.342,20.597 -2.727,20.297 -3.251,19.666 -3.962,19.006 -4.647,18.049 -4.9,17.778 -5.493,16.646 -6.113,15.735 -6.121,15.71 -6.154,15.674 -6.769,14.289 -7.015,13.329 -7.459,12.371 -7.552,11.955 -7.848,11.051 -8.04,9.642 -8.055,9.419 -8.07,9.368 -8.188,7.88 -8.203,7.51 v 0 l 0.002,-0.107 0.029,-1.22 v 0 l 0.029,-1.351 0.009,-0.037 0.031,-0.458 0.178,-1.306 0.048,-0.147 0.034,-0.278 0.179,-0.738 0.121,-0.276 0.045,-0.24 0.395,-1.02 0.103,-0.129 0.049,-0.208 0.397,-0.797 0.219,-0.24 0.083,-0.264 0.393,-0.568 0.81,-0.716 0.06,-0.076 0.251,-0.203 0.284,-0.278 0.199,-0.112 0.231,-0.188 0.297,-0.285 0.375,-0.207 0.178,-0.046 0.22,-0.148 0.585,-0.119 0.036,-0.151 0.249,-0.507 0.048,-0.053 0.019,-0.074 1.251,-1.344 0.047,-0.031 v 0 h 0.001 l 0.739,-0.481 0.541,-0.161 0.406,-0.299 0.739,-0.25 0.491,-0.082 0.371,-0.12 0.951,-0.127 0.628,-0.042 z M 2.724,1.302 2.674,1.486 2.46,1.694 2.26,1.99 2.239,2.051 2.201,2.077 2.123,2.194 2.012,2.269 1.885,2.457 1.298,2.853 1.161,3.021 0.99,3.437 0.822,3.956 0.786,4.183 0.709,5.078 0.734,6.19 V 6.192 L 0.758,7.208 0.892,8.402 1,9.059 l 0.357,0.735 0.069,0.297 0.24,0.526 0.161,0.595 0.332,0.477 0.081,0.255 0.214,0.228 0.353,0.665 0.356,0.327 0.183,0.254 0.226,0.175 0.409,0.489 0.449,0.351 0.364,0.232 0.212,0.073 0.162,0.033 0.026,-0.007 0.736,-0.288 0.21,-0.04 0.094,-0.067 0.098,-0.032 0.129,-0.202 0.209,-0.224 0.21,-0.349 0.39,-0.68 0.053,-0.054 0.019,-0.065 0.038,-0.062 0.041,-0.197 0.051,-0.128 0.023,-0.169 0.1,-0.356 -10e-4,-0.397 v -0.004 0 L 7.593,10.163 v -0.004 0 L 7.592,9.243 7.502,8.298 7.358,7.688 6.973,6.644 6.951,6.522 6.913,6.469 6.518,5.289 6.115,4.484 V 4.483 L 5.686,3.674 5.374,3.256 4.769,2.735 4.59,2.498 4.342,2.317 3.798,1.714 3.421,1.428 2.928,1.144 2.853,1.111 Z"
             id="path532"
             style="stroke:#000000;stroke-width:0.999657;stroke-miterlimit:4;stroke-dasharray:none;stroke-opacity:1;paint-order:stroke fill markers" />
        </g>
        <g
           transform="translate(40.5,-5.875)"
           id="g538"
           style="stroke:#000000;stroke-width:0.999657;stroke-miterlimit:4;stroke-dasharray:none;stroke-opacity:1;paint-order:stroke fill markers">
          <path
             fill-mode="evenodd"
             fill="orange"
             d="m 11.556,-29.448 0.461,0.346 0.03,0.061 0.08,0.031 0.183,0.381 0.068,0.035 0.216,0.295 0.156,0.476 -0.541,0.732 -0.071,0.156 -0.345,1.023 -0.508,0.666 -0.474,0.808 -0.119,0.117 -0.04,0.124 -0.968,1.339 -0.138,0.118 -0.134,0.211 -1.158,1.247 -1.221,1.403 -0.124,0.093 -0.095,0.138 -1.4,1.363 -1.185,1.52 -0.102,0.084 -0.09,0.142 -1.345,1.477 -1.161,1.612 -0.057,0.049 -0.017,0.049 -0.997,1.289 -0.72,1.386 -0.074,0.164 0.398,1.152 0.517,1.255 0.088,0.44 0.104,0.168 0.254,1.143 0.026,0.23 0.025,0.046 0.121,0.827 0.254,0.705 0.119,0.671 0.063,0.125 0.073,0.731 0.139,0.721 0.036,0.372 0.016,0.032 0.038,0.642 0.006,0.18 -0.001,0.042 0.088,0.469 0.068,0.126 0.049,0.357 0.004,0.058 0.118,0.45 L 2.254,0.466 2.264,0.49 2.269,0.469 2.268,0.54 2.243,0.641 2.268,0.683 2.292,0.769 2.383,0.885 2.748,2.048 3.119,2.683 3.336,3.006 3.352,3.083 3.399,3.163 3.639,4.506 3.399,5.849 3.352,5.929 3.336,6.006 3.119,6.329 2.735,6.986 2.638,7.043 2.51,7.231 1.286,8.057 0.666,8.182 0.462,8.3 0.278,8.333 0.137,8.346 0.083,8.364 -0.177,8.399 -0.715,8.435 -2.245,8.126 -2.35,8.055 -2.447,8.033 -2.843,7.839 -2.845,7.837 H -2.848 L -4.217,6.706 -4.261,6.648 -4.49,6.476 -4.81,6.093 -5.213,5.766 -5.712,5.134 -5.743,5.045 -5.846,4.954 -6.291,4.324 -7.005,3.419 -7.122,3.081 -7.447,2.724 -7.937,1.746 -7.941,1.732 -7.947,1.725 -8.438,0.747 -8.469,0.616 -8.537,0.536 -9.028,-0.583 -9.112,-0.978 -9.326,-1.592 -9.537,-2.928 -9.551,-3.103 -9.567,-3.156 -9.709,-4.497 -9.732,-4.935 v -1.288 l 0.015,-0.348 0.144,-1.661 0.041,-0.142 -0.453,-1.361 -0.015,-0.089 -0.023,-0.034 -0.46,-1.515 -0.576,-1.474 -0.001,-0.004 -0.436,-1.06 -0.566,-1.136 -0.1,-0.418 -0.152,-0.22 -0.301,-1.024 -0.208,-0.497 -0.356,-0.66 -0.281,-0.447 -0.077,-0.266 -0.176,-0.207 -0.278,-0.62 -0.009,-0.044 -0.019,-0.022 -0.153,-0.352 -0.281,-0.441 -0.249,-0.369 -0.006,-0.031 -0.019,-0.03 -0.271,-1.406 10e-4,-0.058 -0.06,-0.299 0.295,-1.463 0.805,-1.194 1.194,-0.805 1.462,-0.295 0.021,0.004 0.123,0.003 0.078,0.003 0.762,0.181 0.548,0.11 0.045,0.031 0.052,0.012 0.249,0.177 0.059,0.016 0.076,0.079 0.273,0.194 0.438,0.295 0.019,0.029 0.03,0.021 0.496,0.758 0.258,0.384 0.004,0.017 0.01,0.016 0.032,0.165 0.151,0.146 0.208,0.339 0.023,0.079 0.06,0.061 0.312,0.556 0.271,0.423 0.429,0.476 0.719,1.157 0.014,0.077 0.027,0.035 0.096,0.268 0.397,0.428 0.346,0.544 0.195,0.201 0.029,0.054 0.773,-1.074 0.146,-0.126 0.142,-0.227 1.417,-1.549 1.297,-1.614 0.281,-0.224 0.229,-0.301 1.686,-1.443 1.424,-1.239 0.285,-0.171 0.137,-0.148 1.463,-0.955 0.029,-0.008 0.023,-0.024 1.371,-0.871 0.527,-0.154 0.354,-0.24 1.028,-0.288 0.748,-0.105 0.01,-0.004 0.672,-0.005 0.306,-0.092 0.545,-0.082 z M 2.223,0.609 2.231,0.622 2.25,0.543 Z"
             id="path536"
             style="stroke:#000000;stroke-width:0.999657;stroke-miterlimit:4;stroke-dasharray:none;stroke-opacity:1;paint-order:stroke fill markers" />
        </g>
        <g
           transform="translate(63.375,-13.25)"
           id="g542"
           style="stroke:#000000;stroke-width:0.999657;stroke-miterlimit:4;stroke-dasharray:none;stroke-opacity:1;paint-order:stroke fill markers">
          <path
             fill-mode="evenodd"
             fill="orange"
             d="m -9.157,-25.497 0.381,0.15 0.111,0.089 0.177,0.042 0.723,0.615 0.014,0.005 0.293,0.223 0.094,0.113 0.095,0.081 0.187,0.253 0.348,0.305 0.349,0.492 0.052,0.164 0.148,0.15 0.19,0.337 0.447,0.621 0.047,0.145 0.136,0.135 0.414,0.703 0.009,0.033 0.023,0.023 0.483,0.846 0.057,0.212 0.123,0.148 0.484,1.119 0.513,0.895 0.092,0.342 0.17,0.225 0.307,0.856 0.136,-0.277 0.398,-0.925 0.313,-0.89 0.018,-0.024 0.009,-0.049 0.735,-1.222 0.493,-0.568 0.401,-0.467 0.343,-0.412 0.713,-0.552 0.331,-0.335 0.34,-0.203 0.344,-0.096 0.246,-0.196 0.33,-0.133 1.545,-0.303 v 0 l 1.279,0.205 0.458,0.15 0.1,0.073 0.192,0.04 0.528,0.223 0.234,0.196 0.303,0.086 0.636,0.697 0.603,0.504 0.071,0.235 0.181,0.199 0.132,0.262 0.245,0.391 0.04,0.138 0.104,0.11 0.49,0.908 0.036,0.142 0.082,0.094 0.437,0.94 0.551,0.981 0.086,0.326 0.171,0.217 0.489,1.26 0.018,0.094 0.287,-0.949 0.044,-0.062 0.024,-0.134 0.508,-1.387 0.055,-0.07 0.026,-0.126 0.313,-0.719 0.132,-0.711 0.501,-1.315 0.202,-0.237 0.042,-0.128 0.376,-0.5 0.184,-0.408 0.131,-0.151 0.691,-1.024 0.149,-0.15 0.301,-0.5 0.775,-0.627 0.146,-0.16 0.079,-0.022 0.108,-0.088 1.401,-0.468 0.478,-0.069 0.601,-0.044 v 0 h 0.143 l 1.593,0.321 0.537,0.362 0.252,0.081 0.512,0.367 0.618,0.712 0.461,0.441 0.347,0.556 v 0.001 l 0.483,0.76 0.141,0.48 0.269,0.356 0.313,0.878 0.428,0.978 0.062,0.292 0.101,0.142 0.397,1.256 0.515,1.347 0.044,0.237 0.069,0.1 0.495,1.687 0.047,0.321 0.074,0.21 0.238,1.481 0.539,1.674 0.044,0.274 0.057,0.091 0.423,1.832 0.022,0.187 0.034,0.096 0.278,1.693 0.019,0.221 0.019,0.066 0.18,1.836 0.207,1.382 0.005,0.054 0.006,0.018 0.234,1.713 0.038,0.546 -10e-4,0.085 -0.028,1.288 -0.022,0.098 -0.089,0.718 -0.241,0.966 -0.167,0.255 -0.119,0.486 -0.303,0.578 -0.025,0.027 -0.01,0.038 -0.797,0.833 -0.019,0.046 -0.042,0.017 -0.215,0.226 -0.022,0.013 -0.001,0.001 h -10e-4 l -0.19,0.119 -1.443,0.417 v 0 0 L 24.102,6.445 23.9,6.319 h -10e-4 v 0 L 23.864,6.297 23.654,6.076 23.62,6.062 23.604,6.024 22.804,5.183 22.791,5.134 22.76,5.101 22.475,4.559 22.346,4.039 22.175,3.775 21.944,2.858 21.94,2.831 21.936,2.825 21.635,1.614 21.19,0.041 21.168,-0.12 21.136,-0.169 20.797,-1.63 l -0.036,-0.306 -0.044,-0.138 -0.229,-1.847 -0.256,-1.507 -0.365,-1.574 -0.58,-1.804 -0.058,-0.364 -0.094,-0.27 -0.21,-1.308 -0.294,1.008 -0.329,1.634 -0.038,0.097 -0.018,0.134 -0.489,1.81 -0.362,1.567 -0.158,1.252 v 1.674 0.001 l -0.066,0.728 -0.237,1.302 -0.055,1.276 v 1.198 1.215 0.004 l -0.001,1.286 v 0.843 l 0.058,0.762 0.013,0.324 V 8.15 l 10e-4,0.628 0.001,0.201 V 8.999 9 l 0.001,0.34 0.002,0.123 v 0.05 l -0.321,1.588 -0.874,1.297 -1.297,0.874 -1.588,0.321 -1.588,-0.321 -0.53,-0.357 L 10.504,12.834 10.368,12.653 9.989,12.398 9.115,11.101 9.087,10.962 9.046,10.902 9.044,10.892 9.026,10.868 8.96,10.683 8.742,9.428 8.719,9.319 V 9.252 L 8.573,8.511 V 8.252 L 8.533,8.077 8.501,7.79 8.461,7.663 8.334,6.662 8.154,5.763 8.122,5.453 8.09,5.345 7.954,3.996 7.786,2.836 7.431,1.538 7.405,1.352 7.372,1.299 7.02,-0.319 7.011,-0.402 6.995,-0.444 6.667,-2.145 6.223,-3.736 6.216,-3.787 6.206,-3.802 5.713,-5.634 5.689,-5.81 5.658,-5.861 5.365,-7.218 4.837,-8.624 4.831,-8.66 4.82,-8.674 4.329,-10.005 4.311,-10.107 4.278,-10.151 3.959,-11.106 3.791,-10.664 3.33,-9.349 2.839,-7.635 2.522,-6.42 2.304,-4.973 2.224,-4.741 2.176,-4.421 1.735,-2.992 1.425,-1.801 1.289,-0.868 1.248,-0.487 1.303,-0.02 1.312,0.133 1.317,0.144 1.337,0.503 1.342,0.644 1.293,0.913 1.3,0.93 1.282,0.973 1.226,1.283 1.312,1.768 1.384,1.907 1.423,2.257 1.479,2.453 1.482,2.473 1.485,2.477 1.535,2.649 1.63,2.791 1.905,4.143 1.906,4.46 1.911,4.662 1.915,4.753 1.918,4.857 1.933,4.935 1.657,6.3 0.906,7.415 -0.209,8.166 -1.574,8.442 -2.886,8.188 -2.911,8.172 -2.938,8.166 -3.279,7.937 -3.475,7.811 -3.548,7.79 -3.609,7.725 -3.971,7.494 -4.121,7.354 -4.629,6.637 -4.826,6.427 -4.966,6.163 -5.003,6.015 -5.083,5.919 -5.229,5.589 -5.287,5.316 -5.554,4.789 -5.616,4.534 -5.731,4.383 -5.98,3.708 -6.079,3.156 -6.198,2.728 -6.249,2.102 -6.254,2 -6.257,1.985 -6.31,0.996 -6.312,0.942 -6.313,0.937 l -0.046,-1.135 -0.003,-0.16 0.002,-0.134 0.001,-0.029 -0.054,-0.181 v -0.004 l -0.329,-1.038 -0.459,-1.241 -0.017,-0.09 -0.029,-0.039 -0.493,-1.478 -0.021,-0.123 -0.032,-0.047 -0.293,-1.022 -0.581,-0.921 -0.148,-0.507 -0.247,-0.352 -0.43,-1.405 -0.522,-1.106 -0.04,-0.173 -0.076,-0.097 -0.553,-1.452 -0.573,-1.335 -0.583,-1.165 -0.017,-0.068 -0.036,-0.041 -0.49,-1.053 -0.015,-0.066 -0.031,-0.037 -0.488,-1.124 -0.035,-0.164 -0.062,-0.083 -0.286,-0.804 -0.25,-0.5 -0.165,-0.694 -0.156,-0.27 -0.11,-0.612 -0.087,-0.302 -0.129,-0.901 -0.012,-0.057 -0.004,-0.474 -0.004,-0.184 -0.001,-0.084 0.274,-1.358 0.058,-0.085 0.018,-0.079 0.149,-0.309 0.16,-0.177 0.477,-0.72 0.142,-0.146 0.008,-0.005 0.015,-0.023 0.409,-0.276 0.054,-0.059 0.06,-0.018 0.539,-0.363 0.034,-0.023 10e-4,-0.001 0.015,-0.01 1.362,-0.275 z"
             id="path540"
             style="stroke:#000000;stroke-width:0.999657;stroke-miterlimit:4;stroke-dasharray:none;stroke-opacity:1;paint-order:stroke fill markers" />
        </g>
        <g
           transform="translate(105,-34.625)"
           id="g546"
           style="stroke:#000000;stroke-width:0.999657;stroke-miterlimit:4;stroke-dasharray:none;stroke-opacity:1;paint-order:stroke fill markers">
          <path
             fill-mode="evenodd"
             fill="orange"
             d="m -3.379,-5.772 0.303,0.034 0.115,0.035 0.275,0.028 0.478,0.1 0.334,0.054 1.14,0.407 0.166,0.042 0.031,0.028 0.056,0.02 1.116,0.925 0.026,0.044 0.126,-0.025 1.616,0.326 1.319,0.89 0.89,1.32 0.088,0.433 0.076,0.191 0.054,0.276 0.081,0.12 0.047,0.17 0.462,0.621 0.107,0.49 0.143,0.219 0.204,0.795 0.418,0.926 0.019,0.09 0.04,0.049 0.581,1.397 0.688,1.295 0.006,0.024 0.013,0.014 1,1.904 0.012,0.05 0.029,0.031 0.853,1.69 0.005,0.02 0.01,0.01 0.994,1.977 0.021,0.09 0.048,0.055 0.76,1.639 1.001,1.625 0.047,0.165 0.118,0.128 0.98,1.896 0.786,1.414 0.007,0.027 0.016,0.017 0.943,1.721 0.14,0.542 0.215,0.311 0.322,1.108 0.378,0.903 0.1,0.49 0.191,0.673 0.083,0.94 0.015,0.327 -0.001,0.093 -0.015,0.567 -0.011,0.051 -0.042,0.445 -0.106,0.574 -0.379,0.642 -0.135,0.327 0.431,-0.648 -0.048,0.149 -0.46,0.684 -0.076,0.184 -0.066,0.028 -0.061,0.089 -0.102,0.088 0.101,-0.152 -0.035,0.015 -0.096,0.162 -1.736,0.629 L 12.89,29.061 12.34,28.847 12.288,28.805 12.199,28.786 11.665,28.543 11.622,28.506 11.555,28.49 10.323,27.458 9.789,26.749 9.061,25.859 8.721,25.263 8.567,25.093 8.041,24.031 7.113,22.535 7.096,22.477 7.05,22.431 6.185,20.959 6.152,20.841 6.071,20.753 5.712,20.066 l -0.447,1.172 -0.2,0.234 -0.042,0.125 -0.339,0.452 -0.173,0.418 -0.028,0.034 -0.012,0.053 -0.367,0.812 -0.019,0.023 -0.008,0.036 -1.079,1.373 -0.625,0.513 -0.564,0.571 -0.346,0.235 -0.198,0.225 -0.911,0.644 -0.243,0.078 -0.222,0.207 -0.686,0.362 -0.017,0.004 -0.01,0.009 -0.969,0.509 -0.004,10e-4 -0.962,0.512 -0.55,0.139 -0.301,0.204 -1.106,0.31 -0.474,0.066 -0.239,0.072 -0.79,0.083 -0.618,0.129 -0.888,0.093 -0.532,-0.033 -0.884,-0.112 -0.47,-0.151 -0.479,-0.088 -0.899,-0.339 -0.278,-0.218 -0.384,-0.106 -0.819,-0.491 -0.159,-0.163 -0.164,-0.054 -0.667,-0.492 -1.138,-1.342 -0.117,-0.125 -0.018,-0.035 -0.002,-0.002 -0.001,-0.003 -0.339,-0.645 -0.01,-0.037 -0.021,-0.023 -0.499,-0.972 -0.073,-0.3 -0.341,-0.889 -0.15,-0.776 -0.289,-0.761 -0.147,-0.791 -0.142,-0.57 -0.075,-1.491 -0.005,-0.222 v -0.001 l -0.003,-1.644 -0.003,-1.5 -0.001,-0.01 0.003,-0.163 0.07,-1.868 0.044,-0.188 0.106,-0.792 0.343,-1.266 0.175,-1.482 0.08,-0.256 0.062,-0.434 0.507,-1.748 0.005,-0.007 10e-4,-0.011 0.508,-1.676 0.019,-0.027 0.009,-0.056 0.51,-1.533 0.23,-0.312 0.125,-0.468 0.721,-1.248 0.447,-0.899 0.249,-0.273 0.094,-0.292 0.655,-0.921 0.594,-0.925 0.262,-0.245 0.317,-0.471 0.552,-0.552 0.49,-0.552 0.447,-0.33 0.283,-0.325 0.488,-0.349 0.446,-0.144 0.404,-0.335 0.287,-0.122 0.274,-0.153 0.568,-0.15 0.079,-0.06 0.136,-0.041 0.261,-0.173 0.473,-0.125 0.468,-0.062 0.219,-0.065 0.483,-0.052 0.478,-0.026 z M -3.004,2.93 -3.184,2.926 -3.34,2.92 -3.396,2.935 -3.403,2.94 -3.651,3.219 -3.75,3.292 -3.825,3.403 -4.133,3.711 -4.532,4.331 -4.618,4.411 -4.645,4.496 -5.16,5.215 -5.52,5.932 -5.603,6.023 -5.634,6.141 -6.196,7.111 -6.549,8.17 -7.032,9.755 v 10e-4 l -0.378,1.294 -0.176,1.447 -0.069,0.218 -0.053,0.389 -0.298,1.093 -0.051,1.274 -0.003,1.417 -0.003,1.541 0.033,0.714 0.177,0.475 0.07,0.388 0.143,0.383 0.101,0.553 0.14,0.287 0.333,-0.021 0.042,-0.01 0.626,-0.024 0.339,-0.075 0.574,-0.27 0.005,-0.001 0.983,-0.469 0.02,-0.005 0.009,-0.008 0.443,-0.211 0.368,-0.25 0.452,-0.447 0.179,-0.12 0.112,-0.141 0.046,-0.038 0.289,-0.695 0.344,-0.417 0.142,-0.426 0.078,-0.103 0.019,-0.105 0.128,-1.032 0.187,-0.585 0.09,-0.448 0.046,-0.113 v -0.549 -0.004 l 0.031,-0.5 0.111,-0.897 V 12.021 L -1.406,11.022 -1.527,9.892 -1.551,9.451 -1.552,9.448 -1.554,8.284 -1.712,7.352 -1.725,7.194 -1.743,7.139 -1.888,5.943 V 5.938 L -2.012,4.989 -2.188,4.188 -2.198,4.1 -2.215,4.055 -2.243,3.909 -2.704,3.301 -2.729,3.215 -2.778,3.148 -2.828,2.916 Z"
             id="path544"
             style="stroke:#000000;stroke-width:0.999657;stroke-miterlimit:4;stroke-dasharray:none;stroke-opacity:1;paint-order:stroke fill markers" />
        </g>
        <g
           transform="translate(123.125,-70.125)"
           id="g550"
           style="stroke:#000000;stroke-width:0.999657;stroke-miterlimit:4;stroke-dasharray:none;stroke-opacity:1;paint-order:stroke fill markers">
          <path
             fill-mode="evenodd"
             fill="orange"
             d="m 1.681,-3.882 0.422,0.372 0.186,0.077 0.057,0.137 0.225,0.198 0.129,0.183 v 0 l 0.263,0.363 0.106,0.327 0.24,0.298 0.17,0.422 0.483,0.812 0.109,0.393 0.192,0.262 0.421,1.263 0.032,0.191 0.045,0.069 0.495,1.922 0.044,0.337 0.052,0.166 0.232,1.896 0.506,2.071 0.027,0.22 0.042,0.119 0.448,2.75 0.007,0.087 0.011,0.031 0.398,2.854 0.643,3.032 0.018,0.166 0.027,0.079 0.515,3.243 0.56,2.967 0.001,0.008 0.619,3.168 0.734,2.843 0.037,0.282 0.055,0.158 0.461,2.968 0.486,2.626 0.012,0.122 0.017,0.05 0.363,2.442 0.443,2.27 0.057,0.579 0.017,0.073 0.066,2.29 0.002,0.111 v 0 l -0.015,0.331 -0.189,2.064 v 10e-4 l -0.16,1.758 -0.041,0.082 -0.074,0.507 -0.468,1.569 v 0.001 l -0.317,1.097 -0.016,0.022 -0.008,0.051 -0.418,1.259 -0.389,0.527 -0.114,0.273 -0.352,0.345 -0.176,0.335 -0.043,0.026 -0.027,0.09 L 9.115,54.102 9.084,54.119 9.067,54.167 8.891,54.388 8.225,54.709 7.558,54.387 7.385,54.169 7.367,54.116 7.333,54.098 7.105,53.758 7.074,53.658 7.028,53.63 6.737,53.08 6.612,52.577 6.546,52.446 6.485,51.815 6.246,50.725 5.95,49.705 5.893,49.315 5.855,49.242 5.69,47.84 5.309,46.352 5.275,46.089 5.241,46.028 4.929,44.096 4.503,42.191 3.777,40.143 3.728,39.861 3.66,39.756 3.042,37.313 3.033,37.242 3.021,37.223 2.388,34.55 2.367,34.38 2.333,34.287 1.829,31.459 1.086,28.669 1.061,28.48 1.015,28.36 0.375,25.098 0.37,25.044 0.361,25.02 -0.199,21.97 -0.211,21.841 -0.229,21.789 -0.699,18.571 -1.284,15.47 -1.312,15.175 -1.34,15.077 -1.636,12.085 -1.638,12.054 -1.64,12.048 -1.899,9.294 -2.177,6.999 -2.207,6.509 -2.201,6.294 -2.093,4.319 -2.152,2.479 -2.154,2.36 V 2.331 l 0.009,-1.044 -0.158,-0.857 -0.053,-0.573 0.051,-0.556 0.096,-0.525 0.023,-0.334 0.164,-0.34 0.318,-1.008 0.14,-0.2 0.208,-0.183 0.019,-0.039 0.007,-0.003 0.042,-0.102 0.183,-0.076 0.425,-0.373 1.181,-0.292 z"
             id="path548"
             style="stroke:#000000;stroke-width:0.999657;stroke-miterlimit:4;stroke-dasharray:none;stroke-opacity:1;paint-order:stroke fill markers" />
        </g>
        <g
           transform="translate(119.25,-38)"
           id="g556"
           style="stroke:#000000;stroke-width:0.999657;stroke-miterlimit:4;stroke-dasharray:none;stroke-opacity:1;paint-order:stroke fill markers">
          <path
             fill-mode="evenodd"
             fill="orange"
             d="m 20.703,-8.357 0.36,0.082 0.219,-0.005 -0.085,0.036 0.023,0.015 0.094,-0.051 0.265,0.025 0.311,0.059 0.167,0.099 0.741,0.213 0.301,0.19 0.267,0.281 0.042,0.029 -0.026,-0.011 0.002,0.002 0.36,0.242 0.323,0.479 0.018,0.019 0.003,0.013 0.393,0.582 0.27,1.337 -0.27,1.336 -0.117,0.277 -0.007,0.036 -0.505,1.321 -0.19,0.222 -0.041,0.122 -0.357,0.482 -1.146,0.968 -0.253,0.241 -1.072,0.582 -0.459,0.117 -0.277,0.203 -0.925,0.308 -0.86,0.324 -0.034,0.007 -0.013,0.01 L 16.898,2.329 16.565,2.39 16.229,2.524 15.113,2.76 13.885,3.168 13.607,3.214 13.374,3.307 11.756,3.651 11.42,3.687 11.289,3.727 9.803,3.891 8.264,4.28 7.972,4.317 7.814,4.371 6.258,4.607 5.998,4.627 5.934,4.645 4.156,4.79 3.915,4.8 3.897,4.804 2.184,4.846 2.074,4.848 H 2.064 L 0.657,4.844 -0.823,4.857 H -0.858 L -1.586,4.788 -2.781,4.559 -3.072,4.386 -3.737,4.224 -4.191,3.99 -4.883,3.685 -5.226,3.392 -5.547,3.28 -5.881,3.016 -6.029,2.909 -6.218,2.687 -6.351,2.632 -6.432,2.437 -6.862,1.933 -7.174,0.644 l 0.312,-1.289 0.233,-0.272 0.067,-0.191 0.211,-0.133 0.027,-0.032 0.028,-0.072 0.032,-0.017 0.012,-0.027 0.042,-0.017 0.189,-0.221 0.178,-0.13 0.635,-0.208 0.201,-0.128 0.014,-0.004 0.2,-0.023 0.382,-0.198 0.464,-0.052 0.087,-0.005 0.009,-0.005 0.552,-0.048 0.285,-0.074 0.203,-0.027 0.053,-0.031 1.016,-0.196 1.255,-0.355 0.248,-0.035 0.07,-0.043 1.374,-0.281 0.192,-0.02 0.084,-0.028 1.679,-0.24 h 0.004 l 1.626,-0.259 1.302,-0.278 1.663,-0.477 0.433,-0.062 0.251,-0.081 1.589,-0.207 1.221,-0.272 1.242,-0.418 0.288,-0.048 0.245,-0.098 1.049,-0.221 1.026,-0.376 0.093,-0.016 0.039,-0.029 0.976,-0.331 0.221,-0.037 0.195,-0.084 0.82,-0.198 0.949,-0.324 0.081,-0.014 0.032,-0.023 0.529,-0.169 0.29,-0.046 0.224,-0.085 0.349,-0.066 0.068,-0.166 0.562,-0.233 z"
             id="path552"
             style="stroke:#000000;stroke-width:0.999657;stroke-miterlimit:4;stroke-dasharray:none;stroke-opacity:1;paint-order:stroke fill markers" />
          <path
             fill-mode="evenodd"
             fill="orange"
             d="m 23.584,-7.309 0.142,0.14 -0.318,-0.215 z"
             id="path554"
             style="stroke:#000000;stroke-width:0.999657;stroke-miterlimit:4;stroke-dasharray:none;stroke-opacity:1;paint-order:stroke fill markers" />
        </g>
      </g>
      <g
         transform="translate(1953.1171,192.4311)"
         id="g566"
         style="stroke:#000000;stroke-width:0.999657;stroke-miterlimit:4;stroke-dasharray:none;stroke-opacity:1;paint-order:stroke fill markers">
        <path
           fill-mode="evenodd"
           fill="orange"
           d="m 0.628,-5.339 0.23,0.265 0.2,0.082 0.116,0.282 0.407,0.467 0.047,0.102 0.054,0.241 0.053,0.07 0.179,0.536 0.296,0.452 0.134,0.52 0.254,0.437 0.142,0.521 0.188,0.292 0.353,1.446 0.005,0.041 0.007,0.01 0.303,1.298 0.003,0.022 0.003,0.005 0.451,1.94 0.001,0.006 0.501,2.069 0.036,0.291 0.033,0.061 0.326,2.206 0.489,2.168 0.039,0.351 0.041,0.135 0.274,2.686 0.377,2.44 v 0.007 l 0.445,2.751 0.005,0.06 0.007,0.02 0.337,2.291 0.585,2.261 0.037,0.28 0.053,0.155 0.324,2.134 0.572,2.107 0.005,0.039 0.008,0.011 0.548,2.063 0.514,1.602 0.706,1.415 0.129,0.541 0.175,0.267 0.379,1.456 0.476,1.283 0.025,0.136 0.042,0.058 0.386,1.199 0.018,0.114 0.028,0.041 0.283,0.993 0.019,0.135 0.028,0.042 0.243,1.002 0.112,0.918 v 0.022 l -0.006,0.93 v 0.003 l -0.004,0.153 -0.035,0.715 -0.042,0.167 -0.074,0.56 -0.127,0.471 -0.306,0.454 -0.18,0.563 -0.267,0.375 -0.125,0.109 -0.035,0.095 -0.209,0.118 -0.688,0.597 -0.675,0.166 -0.253,0.141 -0.168,0.028 -0.453,0.037 v 0 L 8.558,47.15 8.229,47.096 7.788,46.844 7.568,46.782 7.507,46.718 7.384,46.684 7.254,46.552 6.886,46.399 6.848,46.308 6.749,46.251 6.705,46.132 6.683,46.094 6.586,46.063 6.011,45.293 5.981,45.204 5.904,45.087 5.551,44.741 5.295,44.13 5.545,43.527 5.339,42.889 5.006,42.197 4.982,42.094 4.931,42.033 4.519,41.085 4.495,40.97 4.448,40.91 3.994,39.735 3.992,39.728 v 0 L 3.415,38.258 3.35,37.921 3.26,37.784 2.934,36.544 2.274,35.23 2.183,34.849 2.031,34.638 1.393,32.665 1.367,32.501 1.328,32.442 0.76,30.325 0.759,30.318 0.119,27.989 0.077,27.68 0.014,27.498 -0.314,25.333 -0.897,23.056 -0.937,22.747 -0.991,22.584 -1.336,20.101 V 20.094 L -1.74,17.338 -1.747,17.254 -1.755,17.227 -2.071,14.667 -2.088,14.409 -2.098,14.368 -2.235,11.742 -2.54,9.556 -2.566,9.188 -2.576,9.144 -2.655,6.885 -2.845,4.845 -2.851,4.72 -2.856,4.701 -2.967,2.698 -2.973,2.503 -2.972,2.438 -2.948,1.184 -2.996,0.108 -3.145,-0.443 -3.221,-1.009 -3.245,-1.06 l -0.024,-0.451 -0.028,-0.066 -0.218,-1.069 0.038,-0.45 0.06,-0.364 0.1,-0.175 0.108,-0.49 0.061,-0.133 0.404,-0.461 0.113,-0.273 0.197,-0.081 0.232,-0.266 1.415,-0.417 z"
           id="path560"
           style="stroke:#000000;stroke-width:0.999657;stroke-miterlimit:4;stroke-dasharray:none;stroke-opacity:1;paint-order:stroke fill markers" />
        <g
           transform="translate(-3.375,24.375)"
           id="g564"
           style="stroke:#000000;stroke-width:0.999657;stroke-miterlimit:4;stroke-dasharray:none;stroke-opacity:1;paint-order:stroke fill markers">
          <path
             fill-mode="evenodd"
             fill="orange"
             d="m 17.198,-9.071 0.504,0.019 0.127,0.03 0.683,0.075 0.476,0.105 0.402,0.168 0.308,0.062 0.255,0.172 0.363,0.151 0.433,0.385 0.316,0.214 0.116,0.171 0.192,0.171 0.388,0.689 0.226,0.336 0.021,0.104 0.064,0.114 0.253,1.456 v 0 l -0.338,1.674 -0.006,0.009 -0.002,0.01 -0.306,0.447 -0.608,0.901 -0.017,0.012 -0.012,0.018 -0.326,0.319 -0.418,0.278 -0.223,0.245 -0.394,0.267 -0.048,0.015 -0.072,0.064 -1.473,0.618 -0.95,0.22 L 16.821,0.484 16.674,0.532 15.847,0.646 15.274,0.687 15.241,0.694 14.743,0.702 14.098,0.908 13.91,0.937 13.756,1.004 12.358,1.351 12.262,1.363 12.206,1.386 10.663,1.728 10.654,1.729 9.216,2.056 7.564,2.497 7.402,2.518 7.297,2.56 5.819,2.876 5.68,2.891 5.612,2.916 4.273,3.15 H 4.271 L 2.859,3.428 2.851,3.429 1.525,3.702 1.464,3.708 1.437,3.719 0.526,3.894 l -0.869,0.217 -0.8,0.1 -0.145,0.033 -0.53,0.017 -0.313,0.049 -0.506,0.04 -0.047,0.011 -0.642,0.016 -0.033,0.001 H -3.36 L -3.716,4.384 -3.791,4.385 -3.888,4.365 -3.934,4.375 -4.582,4.244 -4.084,4.374 -4.229,4.363 -5.009,4.158 -5.386,4.081 -5.443,4.043 -5.514,4.025 -6.572,3.282 -7.315,2.224 -7.333,2.153 -7.372,2.096 -7.451,1.702 -7.654,0.926 -7.663,0.808 -7.528,1.32 -7.665,0.644 -7.656,0.598 -7.675,0.501 l 0.338,-1.587 0.542,-0.752 0.007,-0.021 0.021,-0.018 0.349,-0.483 0.262,-0.241 0.994,-0.626 0.119,-0.1 0.305,-0.134 0.22,-0.139 0.538,-0.157 0.39,-0.288 0.512,-0.175 0.696,-0.331 0.217,-0.049 0.123,-0.097 0.937,-0.361 0.186,-0.035 0.082,-0.06 L 0.466,-5.574 0.578,-5.592 0.67,-5.635 2.122,-6.044 2.226,-6.059 2.298,-6.09 3.612,-6.416 3.62,-6.417 5.035,-6.791 v 0 l 1.647,-0.486 0.134,-0.019 0.098,-0.043 1.464,-0.366 0.065,-0.008 0.037,-0.016 1.538,-0.36 0.006,-10e-4 1.254,-0.318 1.181,-0.371 1.488,-0.232 0.079,10e-4 1.104,0.018 0.684,-0.021 0.927,-0.053 0.282,-0.008 z"
             id="path562"
             style="stroke:#000000;stroke-width:0.999657;stroke-miterlimit:4;stroke-dasharray:none;stroke-opacity:1;paint-order:stroke fill markers" />
        </g>
      </g>
      <g
         transform="translate(1986.7421,220.4311)"
         id="g574"
         style="stroke:#000000;stroke-width:0.999657;stroke-miterlimit:4;stroke-dasharray:none;stroke-opacity:1;paint-order:stroke fill markers">
        <path
           fill-mode="evenodd"
           fill="orange"
           d="m 4.534,-18.701 0.836,0.136 0.836,0.118 0.691,0.061 1.486,0.426 0.157,0.119 0.114,0.032 0.146,0.087 0.313,0.071 0.292,0.185 0.615,0.145 0.307,0.153 0.391,0.13 0.38,0.28 0.512,0.149 0.803,0.511 0.235,0.251 0.459,0.309 0.357,0.357 0.446,0.661 0.273,0.274 0.891,1.325 0.087,0.431 0.115,0.178 0.051,0.204 0.19,0.417 0.014,0.064 0.042,0.062 0.327,1.623 v 0.016 l -0.002,0.716 v 0 0.004 l -0.004,0.788 v 0 0.004 l -0.005,0.716 -10e-4,0.008 -0.019,0.379 -0.08,0.804 -0.081,0.272 -0.071,0.486 -0.306,1.027 -0.327,0.466 -0.187,0.615 -0.143,0.216 -0.172,0.421 -0.058,0.071 -0.026,0.114 -0.41,0.862 -0.116,0.131 -0.862,1.15 -0.304,0.265 -0.138,0.203 -0.457,0.407 -0.437,0.515 -0.679,0.502 -0.332,0.11 L 10.364,1.607 9.636,1.951 9.369,2.012 9.225,2.119 8.437,2.389 8.364,2.402 8.335,2.422 7.837,2.581 7.453,2.808 6.822,2.982 6.466,3.208 5.545,3.428 5.399,3.446 5.363,3.467 4.626,3.607 4.179,3.73 3.806,3.909 2.939,4.108 2.718,4.22 l 0.34,0.681 0.801,1.148 0.711,0.965 0.935,0.839 1.001,0.78 1.33,0.823 0.008,0.009 0.008,0.002 1.314,0.831 0.801,0.471 0.803,0.281 0.971,0.204 1.354,0.194 0.95,0.12 0.515,0.013 0.436,-0.079 0.023,-0.003 0.007,-0.002 0.89,-0.16 0.528,-0.135 0.284,-0.1 0.427,-0.303 0.225,-0.072 0.206,-0.189 0.528,-0.268 0.698,-0.425 0.287,-0.185 0.47,-0.432 0.009,-0.003 0.003,-0.008 0.398,-0.36 0.145,-0.056 0.192,-0.177 0.238,-0.122 0.059,-0.088 0.773,-0.408 0.774,0.412 0.23,0.339 0.21,0.684 v 0.024 l -0.005,0.248 0.076,0.179 0.129,0.635 0.025,0.056 0.027,0.695 0.07,0.419 0.039,0.462 v 0 l -0.163,0.927 -0.334,0.923 v 0 l -0.221,0.634 -0.164,0.217 -0.086,0.322 -0.526,0.917 -0.273,0.274 -0.462,0.617 -0.73,0.639 -0.226,0.137 -0.115,0.129 -0.687,0.476 -0.426,0.134 -0.364,0.291 -0.936,0.374 -0.195,0.038 -0.089,0.064 -0.811,0.262 -0.945,0.151 -0.23,0.051 -1.138,0.029 -0.107,10e-4 -0.443,-0.024 -1.236,-0.134 -0.03,-0.009 -0.088,-0.006 -1.524,-0.217 -0.08,-0.027 L 10.169,19.332 8.783,19.041 8.545,18.945 8.297,18.903 6.837,18.394 6.554,18.179 6.142,18.067 4.907,17.342 4.865,17.3 4.815,17.286 3.439,16.419 H 3.438 L 1.965,15.508 1.792,15.327 1.625,15.27 0.327,14.263 0.25,14.169 0.116,14.086 -1.248,12.868 -1.525,12.492 -1.813,12.246 -2.808,10.899 -2.823,10.853 -2.873,10.809 -3.868,9.393 -3.957,9.112 -4.189,8.857 -5.038,7.165 -5.101,6.902 -5.221,6.746 -5.858,5.059 -5.88,4.938 -5.919,4.885 -6.555,2.983 -6.634,2.508 -6.745,2.161 -6.945,0.573 -7.272,-1.125 -7.351,-1.929 V -1.93 -4.075 l -0.002,-1.644 v -0.003 l 0.003,-0.156 0.071,-1.868 0.062,-0.262 0.125,-0.814 0.436,-1.389 0.036,-0.049 0.018,-0.105 0.468,-1.277 0.328,-1.059 0.15,-0.211 0.089,-0.376 0.509,-1.026 0.31,-0.34 0.112,-0.326 0.506,-0.654 0.394,-0.324 0.322,-0.394 0.633,-0.497 0.087,-0.03 0.088,-0.1 0.701,-0.495 0.786,-0.251 0.595,-0.388 0.829,-0.212 0.101,-0.013 0.028,-0.018 0.615,-0.141 0.169,-0.019 0.088,-0.032 0.833,-0.142 0.702,-0.061 0.009,-0.002 1,-0.002 h 0.012 z m -1.764,8.343 -0.501,0.109 -0.032,0.007 -0.003,0.003 -0.105,0.081 -0.139,0.277 -0.267,0.853 -0.039,0.053 -0.02,0.112 -0.474,1.284 -0.227,0.718 -0.048,1.223 -0.001,1.563 v 1.75 l 0.035,0.18 0.116,-0.027 0.119,-0.075 0.333,-0.099 0.256,-0.204 0.818,-0.323 0.176,-0.034 0.079,-0.056 0.755,-0.237 0.26,-0.099 0.218,-0.18 0.294,-0.106 0.33,-0.309 0.766,-0.4 0.48,-0.278 0.13,-0.097 0.014,-0.031 0.129,-0.152 0.508,-0.842 0.094,-0.108 0.04,-0.112 0.235,-0.735 0.23,-0.317 0.129,-0.479 0.063,-0.108 0.03,-0.109 0.018,-0.222 -0.003,-0.529 V -8.419 -8.42 L 7.563,-9.084 7.534,-9.215 7.458,-9.327 7.377,-9.354 7.187,-9.494 6.86,-9.572 6.729,-9.637 6.251,-9.748 5.818,-10.023 5.355,-10.151 5.322,-10.154 5.276,-10.167 5.123,-10.178 4.099,-10.326 4.074,-10.335 4.023,-10.339 3.503,-10.427 3.195,-10.428 Z"
           id="path568"
           style="stroke:#000000;stroke-width:0.999657;stroke-miterlimit:4;stroke-dasharray:none;stroke-opacity:1;paint-order:stroke fill markers" />
        <g
           transform="translate(40,-34.125)"
           id="g572"
           style="stroke:#000000;stroke-width:0.999657;stroke-miterlimit:4;stroke-dasharray:none;stroke-opacity:1;paint-order:stroke fill markers">
          <path
             fill-mode="evenodd"
             fill="orange"
             d="m 0.829,-6.519 0.312,0.03 1.266,0.37 0.324,0.247 0.165,0.054 0.117,0.161 0.416,0.317 0.683,1.094 0.027,0.142 0.046,0.064 0.098,0.297 0.048,0.297 0.058,0.095 0.055,0.255 0.153,0.437 0.089,0.521 0.113,0.379 0.093,0.903 0.006,0.112 0.006,0.021 0.086,1.168 0.124,1.268 0.304,1.648 0.021,0.221 0.024,0.079 0.248,2.122 10e-4,0.003 0.3,2.293 0.002,0.02 10e-4,0.005 0.37,2.837 0.001,0.013 10e-4,0.002 0.359,2.724 0.488,2.89 0.002,0.023 0.002,0.007 0.46,2.74 0.772,2.568 0.014,0.096 0.022,0.032 0.741,2.696 0.924,2.51 0.043,0.24 0.066,0.097 0.636,2.233 0.869,1.994 10e-4,0.004 0.977,2.165 0.009,0.043 0.019,0.022 0.775,1.761 0.026,0.124 0.052,0.066 0.409,1.045 0.101,0.006 0.044,0.02 0.401,0.055 0.826,0.23 0.866,0.173 0.196,0.118 0.483,0.107 0.534,0.248 0.165,0.144 0.206,0.06 0.5,0.561 0.56,0.491 0.059,0.201 0.145,0.162 0.383,0.787 0.029,0.128 0.063,0.075 0.169,0.4 0.002,0.012 0.007,0.01 0.31,1.532 -0.252,1.387 -0.225,0.599 v 10e-4 l -0.001,10e-4 -0.017,0.046 -0.036,0.046 -0.638,1.1 -0.457,0.548 -0.452,0.35 -0.307,0.354 -0.758,0.545 -0.05,0.244 -0.106,0.158 -0.063,0.195 -0.462,0.584 -0.274,0.406 -0.103,0.069 -0.085,0.107 -0.772,0.471 -0.383,0.258 -0.061,0.012 -0.06,0.037 -1.523,0.283 -1.522,-0.283 -0.061,-0.037 -0.061,-0.012 -0.25,-0.169 -1.476,0.41 -0.33,0.046 L 9.121,50.378 7.283,50.652 7.11,50.665 7.061,50.679 5.075,50.877 4.916,50.885 4.89,50.892 2.897,51.009 2.646,51.016 2.297,51.001 0.139,50.817 0.005,50.779 -0.371,50.738 -2.246,50.326 -2.314,50.284 -2.515,50.254 -4.386,49.691 -4.56,49.569 -4.892,49.495 -6.395,48.792 -6.572,48.637 -7.313,48.182 -8.642,46.997 -8.779,46.811 -8.962,46.675 -9.929,45.58 l -0.158,-0.26 -0.144,-0.13 -0.971,-1.433 -0.123,-0.4 -0.266,-0.333 -0.62,-1.554 -0.033,-0.168 -0.056,-0.077 -0.486,-1.477 -0.063,-0.392 -0.096,-0.287 -0.276,-1.984 -0.038,-0.536 v 0 -0.009 l 0.004,-1.86 0.001,-0.006 0.04,-0.54 0.292,-1.951 0.015,-0.043 0.008,-0.087 0.361,-1.884 10e-4,-0.001 0.353,-1.855 0.064,-0.106 0.055,-0.341 0.503,-1.53 0.257,-0.349 0.138,-0.47 0.613,-0.959 0.378,-0.887 0.105,-0.125 0.532,-0.869 0.709,-0.799 1.25,-0.925 0.174,-0.038 0.093,-0.071 0.971,-0.358 0.999,-0.182 0.282,-0.06 0.64,-0.009 H -4.4 l 0.001,-10e-4 0.856,-0.008 h 0.038 l 1.482,0.299 0.105,0.071 0.097,0.023 1.026,0.505 0.145,0.132 -0.002,-0.012 -0.081,-0.228 -0.495,-2.979 -0.002,-0.023 -0.002,-0.007 -0.492,-2.98 -0.012,-0.143 -0.016,-0.05 L -2.097,12.065 -2.099,12.032 -2.101,12.024 -2.442,9.182 -2.445,9.138 -2.449,9.126 -2.71,6.783 -2.716,6.671 -2.723,6.646 -2.896,4.577 -3.114,2.82 -3.148,2.289 V 2.28 l 0.003,-1.503 10e-4,-0.002 0.01,-0.288 0.091,-1.223 0.005,-0.019 0.004,-0.084 0.062,-0.602 -0.024,-0.389 -0.008,-0.244 0.085,-0.795 -0.039,-0.207 0.271,-1.346 0.742,-1.099 1.099,-0.742 1.347,-0.272 z m -4.911,34.896 -0.53,0.81 -0.274,0.814 -0.316,1.633 v 0.001 l -0.339,1.76 -0.229,1.565 0.004,1.311 0.205,1.4 0.359,1.059 0.436,1.036 0.599,0.827 0.662,0.671 0.748,0.595 0.723,0.282 1.475,0.349 1.492,0.246 1.639,0.078 1.675,-0.141 1.85,-0.213 0.092,-0.015 -0.149,-0.226 v 0 L 5.29,41.113 5.266,41.036 5.197,40.969 4.364,39.63 3.418,38.191 3.415,38.182 3.408,38.175 2.43,36.684 1.338,35.092 1.336,35.086 1.332,35.082 0.205,33.443 0.156,33.285 0.018,33.145 -0.64,31.981 -1.444,31.064 -1.47,31.021 -1.503,30.995 -2.639,29.639 -2.705,29.526 -2.777,29.465 -3.424,28.598 -3.854,28.2 -4.001,28.105 Z"
             id="path570"
             style="stroke:#000000;stroke-width:0.999657;stroke-miterlimit:4;stroke-dasharray:none;stroke-opacity:1;paint-order:stroke fill markers" />
        </g>
      </g>
      <g
         transform="translate(1933.3671,271.4311)"
         id="g594"
         style="stroke:#000000;stroke-width:0.999657;stroke-miterlimit:4;stroke-dasharray:none;stroke-opacity:1;paint-order:stroke fill markers">
        <path
           fill-mode="evenodd"
           fill="orange"
           d="m -0.695,-18.32 0.016,0.01 0.017,0.003 0.489,0.33 0.965,0.635 0.021,0.029 0.029,0.02 0.378,0.561 0.137,0.194 0.028,0.03 0.016,0.033 0.412,0.588 0.012,0.052 0.031,0.046 0.095,0.47 0.095,0.2 0.136,0.466 0.084,0.58 0.088,0.298 0.029,0.293 0.161,0.563 0.065,0.457 0.086,0.264 0.174,1.335 0.409,1.521 0.065,0.487 0.074,0.242 0.268,2.37 0.467,2.69 0.022,0.25 0.024,0.082 0.333,3.106 0.596,3.142 0.019,0.195 0.025,0.078 0.492,3.624 0.011,0.158 0.012,0.042 0.325,3.317 0.714,3.361 0.042,0.391 0.042,0.143 0.33,3.278 0.454,3.213 0.524,3.038 0.005,0.053 0.007,0.02 0.46,2.84 10e-4,0.007 0.394,2.276 0.037,0.085 0.035,0.163 0.064,0.084 0.491,1.331 v 0.004 l 0.612,1.565 10e-4,0.005 0.471,1.144 0.023,0.116 0.044,0.057 0.49,1.33 0.072,0.399 0.136,0.379 0.177,1.059 0.213,0.745 0.018,0.124 0.025,0.039 0.065,0.259 0.101,0.169 0.027,0.097 0.102,0.131 0.446,1.464 0.046,0.42 0.089,0.398 0.104,0.927 v 0.358 l -0.317,1.594 -0.006,0.009 -0.002,0.011 -0.079,0.116 0.09,0.405 0.096,0.869 v 0.019 l -0.004,0.788 -0.325,1.577 -0.174,0.256 -0.052,0.191 -0.528,0.91 -0.099,0.098 -0.034,0.111 -0.496,0.739 -0.237,0.214 -0.261,0.389 -0.787,0.787 -0.868,0.586 -0.213,0.193 -0.978,0.49 -0.415,0.099 -0.225,0.16 L 5.844,52.873 5.696,52.896 5.644,52.931 4.6,53.209 3.505,53.356 H 2.146 L 1.37,53.283 -0.159,52.992 -0.29,52.942 -0.472,52.917 -2.29,52.41 -2.505,52.263 -2.926,52.168 -4.453,51.443 -4.681,51.241 -4.946,51.16 -6.678,50.007 -6.786,49.889 -7.005,49.763 -8.657,48.4 l -0.111,-0.142 -0.173,-0.117 -1.647,-1.643 -0.207,-0.307 -0.21,-0.18 -1.353,-1.847 -0.04,-0.123 -0.123,-0.117 -1.351,-2.128 -0.046,-0.159 -0.121,-0.127 -1.134,-2.124 -0.054,-0.215 -0.116,-0.14 -0.991,-2.334 -0.072,-0.35 -0.109,-0.158 -0.707,-2.474 -0.038,-0.26 -0.064,-0.173 -0.422,-2.335 -0.052,-0.57 -0.016,-0.069 -0.069,-2.283 -0.002,-0.131 v -0.005 l 0.003,-2.217 v -0.001 l 0.003,-0.158 0.074,-1.868 0.05,-0.21 0.107,-0.761 0.438,-1.531 0.288,-0.417 0.175,-0.609 0.726,-1.161 0.183,-0.174 0.057,-0.167 0.792,-1.011 0.235,-0.191 0.204,-0.285 0.926,-0.858 0.627,-0.398 0.22,-0.21 0.907,-0.492 0.591,-0.152 0.325,-0.216 1.042,-0.283 0.618,-0.084 0.222,-0.058 1.131,-0.075 0.288,-0.01 0.25,0.007 1.156,0.07 0.308,0.079 0.683,0.105 1.388,0.437 0.14,0.101 0.27,0.057 0.974,0.433 -10e-4,-0.014 -0.74,-3.372 L -3.27,11.79 -3.316,11.636 -3.674,8.136 -4.152,4.698 -4.772,1.5 -4.802,1.199 -4.835,1.09 l -0.347,-3.142 -0.474,-2.675 -0.02,-0.228 -0.025,-0.08 -0.25,-2.153 -0.402,-1.485 -0.057,-0.425 -0.074,-0.23 -0.17,-1.294 -0.181,-0.629 -0.082,-0.575 -0.086,-0.291 -0.029,-0.296 -0.021,-0.071 -0.186,-1.32 0.002,-0.145 0.005,-0.15 0.227,-0.984 0.142,-0.706 0.031,-0.045 0.012,-0.053 0.593,-0.845 0.378,-0.561 0.03,-0.02 0.02,-0.029 0.965,-0.635 0.489,-0.33 0.017,-0.003 0.016,-0.01 1.809,-0.358 z m -7.444,40.97 -0.203,0.054 -0.038,0.02 -0.298,0.274 -0.443,0.562 -0.283,0.454 -0.131,0.46 -0.048,1.279 0.003,2.071 0.062,1.915 0.341,1.862 0.591,2.063 0.831,1.958 0.985,1.846 1.2,1.897 1.085,1.486 1.276,1.278 1.328,1.099 1.292,0.861 0.912,0.435 1.28,0.358 0.937,0.179 h 0.418 l 0.484,-0.13 0.725,-0.228 0.1,-0.049 L 4.348,44.573 4.505,44.357 3.876,43.573 3.855,43.508 3.82,43.467 3.762,43.222 3.401,42.117 3.387,42.014 2.934,41.391 2.619,40.432 2.618,40.428 2.264,39.423 1.637,37.86 1.547,37.398 1.362,36.864 1.113,35.25 1.11,35.224 1.108,35.216 0.832,33.408 0.257,31.559 0.216,31.296 0.137,31.095 -0.208,29.417 -0.822,28.243 -1.605,27.183 -2.491,26.045 -3.298,25.132 -4.244,24.307 -4.245,24.306 v 0 l -0.78,-0.682 -0.668,-0.354 -0.94,-0.417 -0.652,-0.206 -0.382,-0.025 z"
           id="path576"
           style="stroke:#000000;stroke-width:0.999657;stroke-miterlimit:4;stroke-dasharray:none;stroke-opacity:1;paint-order:stroke fill markers" />
        <g
           transform="translate(27.25,17.5)"
           id="g580"
           style="stroke:#000000;stroke-width:0.999657;stroke-miterlimit:4;stroke-dasharray:none;stroke-opacity:1;paint-order:stroke fill markers">
          <path
             fill-mode="evenodd"
             fill="orange"
             d="m -1.991,-9.095 0.645,0.002 v 0 h 0.032 l 0.575,0.006 1.822,0.384 0.452,0.308 0.218,0.094 0.02,0.017 0.14,0.043 0.438,0.305 0.087,0.098 0.59,0.371 0.34,0.311 0.04,0.055 0.06,0.04 0.4,0.389 0.259,0.376 0.703,0.975 0.018,0.072 0.042,0.061 0.06,0.294 0.191,0.284 0.013,0.061 0.036,0.059 0.128,0.686 0.298,0.06 0.004,0.002 0.004,10e-4 0.099,0.067 0.042,0.009 0.022,0.015 0.025,0.005 0.838,0.577 0.552,0.372 0.01,0.014 0.014,0.01 0.284,0.425 0.102,0.083 0.278,0.35 0.071,0.128 0.166,0.14 0.176,0.236 0.23,0.29 0.146,0.263 0.191,0.222 0.149,0.387 0.235,0.423 0.008,0.047 0.04,0.131 0.206,0.267 0.26,0.871 0.45,0.764 0.04,0.219 0.062,0.09 0.203,0.685 0.062,0.42 0.086,0.262 0.137,0.977 10e-4,0.017 0.001,0.003 0.137,0.977 0.02,0.278 0.016,0.059 0.069,0.987 0.011,0.324 v 0.006 0.343 l 0.587,1.027 0.038,0.143 0.093,0.102 0.775,1.548 v 0.003 l 0.733,1.405 0.851,1.298 0.025,0.086 0.074,0.072 0.741,1.227 0.834,1.16 0.053,0.162 0.155,0.152 0.681,1.131 0.677,0.948 0.143,0.443 0.324,0.398 0.344,0.832 0.332,0.729 0.333,1.519 -0.039,0.19 0.004,0.018 0.034,-0.163 -0.004,0.355 -0.006,0.027 -0.041,0.484 -0.076,0.443 -0.125,0.217 -0.016,0.074 -0.177,0.26 -0.258,0.448 -0.207,0.5 -0.107,0.045 -0.066,0.115 -0.851,0.311 -0.042,0.029 -0.084,0.017 -0.845,0.31 -0.449,-0.036 -0.15,-0.024 -0.069,10e-4 0.032,-0.007 -0.025,-0.004 -0.054,0.011 -0.177,-0.048 H 15.055 L 15.053,25.959 13.4,25.509 12.591,25.034 12.432,24.873 12.059,24.653 11.348,24.05 10.321,23.195 10.069,22.871 9.754,22.623 8.821,21.488 7.8,20.273 7.701,20.104 7.505,20.415 6.86,21.112 6.386,21.798 6.252,21.917 6.114,22.149 5.252,23.156 5.043,23.315 4.882,23.538 4.027,24.322 3.427,24.699 3.196,24.925 2.588,25.268 2.311,25.546 1.012,26.424 0.941,26.484 0.89,26.506 0.887,26.509 H 0.883 l -1.058,0.466 -0.181,0.038 -0.094,0.073 -1.246,0.462 -0.979,0.431 -0.473,0.101 -0.796,0.254 -1.122,0.142 -0.575,0.037 -0.003,10e-4 -1.142,0.001 -1.07,0.003 h -0.012 l -1.322,-0.199 -1.178,-0.362 -0.052,-0.038 -0.118,-0.02 -1.293,-0.729 -0.505,-0.408 -0.568,-0.321 -0.349,-0.346 -0.819,-0.619 -0.724,-0.84 -0.527,-0.88 -0.161,-0.186 -0.512,-1.106 -0.063,-0.285 -0.203,-0.437 -0.253,-0.913 -0.429,-1.09 -0.205,-1.069 -0.123,-0.568 -0.028,-1.64 v -0.018 0 l -0.024,-1.713 -10e-4,-0.069 0.052,-0.692 0.272,-1.817 0.009,-0.027 0.005,-0.053 0.352,-2.032 v -0.002 l 0.274,-1.672 0.005,-0.013 0.001,-0.02 0.36,-2.032 0.108,-0.289 0.055,-0.341 0.563,-1.699 0.479,-1.582 0.002,-0.003 0.497,-1.641 0.207,-0.294 0.125,-0.503 0.655,-1.242 0.033,-0.035 0.012,-0.045 0.654,-1.168 0.095,-0.097 0.033,-0.114 0.653,-1.021 0.021,-0.02 0.007,-0.022 0.58,-0.878 0.624,-0.571 0.602,-0.679 0.462,-0.322 0.197,-0.223 0.639,-0.476 0.348,-0.371 0.766,-0.493 0.048,-0.014 1.36,-0.601 0.461,-0.117 0.24,-0.108 0.059,-0.013 0.056,-0.038 1.837,-0.375 0.643,-0.002 h 0.013 0.858 z M -2.684,0.369 -2.886,0.457 -3.379,0.819 -3.692,1.168 -3.883,1.3 -3.946,1.394 -4.484,2.227 -5.039,3.212 -5.432,3.954 -5.811,5.198 -5.813,5.2 l -0.499,1.641 -0.02,0.028 -0.01,0.059 -0.466,1.397 -0.303,1.69 h -0.001 l -0.281,1.668 -0.006,0.014 -0.001,0.022 -0.371,2.024 -0.229,1.349 -0.019,1.355 v 0.001 0.009 l -0.014,0.83 0.197,0.569 0.047,0.277 0.103,0.25 0.172,0.768 0.003,0.006 0.045,0.028 0.164,0.168 0.338,0.195 h 0.178 l 0.862,0.002 0.223,-0.028 0.523,-0.228 0.18,-0.038 0.093,-0.071 1.249,-0.46 0.237,-0.104 0.118,-0.117 0.699,-0.47 0.268,-0.262 0.695,-0.391 0.279,-0.256 0.533,-0.622 0.523,-0.754 0.186,-0.165 0.193,-0.305 0.544,-0.591 0.212,-0.354 0.373,-0.963 0.041,-0.051 0.018,-0.088 0.388,-0.891 0.162,-0.554 0.1,-0.969 L 1.918,10.801 1.921,10.754 2.038,9.8 1.582,8.937 1.491,8.577 1.322,8.356 0.833,7.027 0.788,6.777 0.68,6.528 0.443,5.579 0.321,5.333 0.246,5.017 -0.032,4.382 -0.309,3.269 -0.363,2.836 -0.422,2.642 -0.451,2.382 -0.482,2.277 -0.525,1.97 -0.747,1.916 -1.168,1.553 -1.339,1.482 -1.389,1.363 -1.485,1.28 -1.562,1.253 -1.663,1.102 -1.969,0.896 -2.324,0.369 Z"
             id="path578"
             style="stroke:#000000;stroke-width:0.999657;stroke-miterlimit:4;stroke-dasharray:none;stroke-opacity:1;paint-order:stroke fill markers" />
        </g>
        <g
           transform="translate(48.625,-11)"
           id="g584"
           style="stroke:#000000;stroke-width:0.999657;stroke-miterlimit:4;stroke-dasharray:none;stroke-opacity:1;paint-order:stroke fill markers">
          <path
             fill-mode="evenodd"
             fill="orange"
             d="m -0.418,-9.446 0.988,0.2 0.318,0.214 0.263,0.083 0.08,0.106 0.111,0.038 0.103,0.083 0.113,0.142 0.179,0.12 0.449,0.666 0.255,0.32 0.02,0.089 0.062,0.092 0.043,0.211 0.115,0.313 0.253,1.405 -0.176,0.873 10e-4,0.176 v 0.024 l -0.026,0.463 -0.054,0.491 0.034,1.045 10e-4,0.032 v 0.002 l 0.036,1.355 0.146,1.558 0.352,2.101 0.008,0.099 0.013,0.037 0.37,2.62 0.005,0.071 0.007,0.022 0.349,2.783 0.612,3.105 0.001,0.012 10e-4,0.002 0.64,3.189 0.005,0.058 0.01,0.026 0.638,3.406 v 0.001 l 0.691,3.25 0.752,3.101 0.001,0.007 0.825,3.238 10e-4,0.007 0.796,2.952 0.004,0.028 0.005,0.008 0.678,2.529 0.807,2.558 0.049,0.317 0.06,0.097 0.494,2.345 0.584,2.305 10e-4,0.007 0.484,1.819 0.053,0.401 0.039,0.074 0.229,1.887 0.005,0.075 0.004,0.009 0.136,1.383 0.008,0.176 0.003,0.007 0.041,1.296 10e-4,0.072 -0.028,0.353 -0.155,0.962 -0.07,0.698 -0.073,0.143 -0.121,0.448 -0.11,0.187 -0.063,0.277 -0.88,0.697 -0.643,-0.268 -0.307,-0.31 L 9.934,51.063 9.929,51.052 9.916,51.047 9.376,50.519 9.32,50.386 9.099,50.174 8.59,49.353 7.888,48.353 7.885,48.344 7.877,48.337 7.082,47.197 7.024,47.015 6.872,46.851 6.062,45.282 5.117,43.805 5.053,43.588 4.897,43.414 3.821,41.186 3.782,41.018 3.703,40.92 2.808,38.687 1.712,36.225 1.66,35.98 1.567,35.855 0.7,33.341 0.678,33.208 0.641,33.155 -0.255,30.196 -0.274,30.07 -0.303,30.027 -1.173,26.773 -1.182,26.704 -1.201,26.66 -1.988,23.473 -2.001,23.369 -2.025,23.308 -2.737,19.976 -2.747,19.885 -2.764,19.84 -3.404,16.435 -3.405,16.427 -4.037,13.266 -4.041,13.231 -4.046,13.216 -4.682,9.953 -4.707,9.7 -4.737,9.604 -5.083,6.691 V 6.686 L -5.419,4.088 V 4.085 L -5.742,1.867 -5.766,1.54 -5.783,1.476 -5.894,-0.373 -5.902,-0.644 -5.9,-0.757 -5.861,-2.264 v -0.001 l 10e-4,-0.02 0.044,-1.365 0.034,-0.146 0.094,-0.754 0.177,-0.699 0.128,-0.621 0.27,-0.671 0.07,-0.299 0.097,-0.119 0.082,-0.203 0.63,-0.721 0.432,-0.64 0.368,-0.248 0.138,-0.178 0.238,-0.075 0.483,-0.326 1.502,-0.303 z"
             id="path582"
             style="stroke:#000000;stroke-width:0.999657;stroke-miterlimit:4;stroke-dasharray:none;stroke-opacity:1;paint-order:stroke fill markers" />
        </g>
        <g
           transform="translate(41.75,11.375)"
           id="g588"
           style="stroke:#000000;stroke-width:0.999657;stroke-miterlimit:4;stroke-dasharray:none;stroke-opacity:1;paint-order:stroke fill markers">
          <path
             fill-mode="evenodd"
             fill="orange"
             d="m 28.463,-8.021 -0.051,-0.039 0.346,0.127 0.038,0.03 0.071,0.014 0.97,0.654 0.181,0.269 0.138,0.106 0.065,0.195 0.269,0.399 0.205,1.014 0.034,0.102 0.008,0.341 -0.038,-0.114 -0.001,0.003 0.04,0.199 -0.055,0.627 -0.131,0.735 -0.476,1.276 -0.28,0.331 -0.052,0.149 -0.659,0.817 -0.718,0.57 -0.364,0.374 -1.039,0.632 -0.283,0.08 -0.213,0.182 -1.23,0.555 -0.046,0.01 -0.023,0.019 -1.322,0.58 -0.387,0.082 -0.182,0.126 -1.539,0.45 -1.427,0.555 -0.451,0.086 -0.485,0.17 L 17.385,4.006 15.924,4.355 14.211,4.857 13.772,4.921 13.51,5.006 11.644,5.247 9.893,5.541 9.783,5.55 9.743,5.564 8.112,5.788 7.923,5.801 7.876,5.815 6.311,5.95 5.936,5.966 5.658,5.957 4.319,5.868 3.048,5.881 3.004,5.882 2.525,5.852 1.308,5.704 1.293,5.699 1.256,5.697 0.115,5.536 0.103,5.529 0.046,5.525 -0.949,5.36 -0.954,5.357 -0.968,5.356 -1.821,5.204 -2.159,5.007 -2.588,4.893 -2.862,4.85 -3.105,4.713 -3.758,4.558 -4.194,4.194 -4.345,4.107 -4.554,3.898 -4.715,3.807 -4.741,3.738 -4.758,3.724 -4.937,3.649 -5.032,3.419 -5.397,3.054 l -0.4,-1.48 0.167,-0.517 0.185,-0.837 0.146,-0.191 0.055,-0.17 0.074,-0.103 0.166,-0.143 0.032,-0.08 0.077,-0.034 0.069,-0.09 0.025,-0.062 0.031,-0.013 0.054,-0.07 0.067,-0.058 0.203,-0.075 0.269,-0.232 1.044,-0.254 0.272,-0.101 0.081,10e-4 0.338,0.01 0.082,-0.002 0.399,0.052 0.244,-0.019 0.112,0.002 0.151,0.005 0.464,-0.083 0.052,-0.005 0.009,-0.005 0.953,-0.159 0.094,-0.008 0.016,-0.009 1.102,-0.156 0.07,-0.005 0.021,-0.007 1.07,-0.131 1.247,-0.239 0.415,-0.04 0.104,-0.027 1.248,-0.083 1.289,-0.242 h 0.002 l 1.534,-0.325 0.008,-10e-4 1.814,-0.395 0.159,-0.018 0.079,-0.028 1.608,-0.269 1.509,-0.489 0.2,-0.032 0.071,-0.047 1.681,-0.441 0.252,-0.033 0.15,-0.054 1.693,-0.293 1.187,-0.468 0.29,-0.056 0.126,-0.087 1.508,-0.441 1.122,-0.455 0.206,-0.04 0.096,-0.07 1.279,-0.424 0.145,-0.024 0.055,-0.037 0.959,-0.276 0.698,-0.291 0.556,-0.253 1.492,-0.327 z"
             id="path586"
             style="stroke:#000000;stroke-width:0.999657;stroke-miterlimit:4;stroke-dasharray:none;stroke-opacity:1;paint-order:stroke fill markers" />
        </g>
        <g
           transform="translate(73.625,21.25)"
           id="g592"
           style="stroke:#000000;stroke-width:0.999657;stroke-miterlimit:4;stroke-dasharray:none;stroke-opacity:1;paint-order:stroke fill markers">
          <path
             fill-mode="evenodd"
             fill="orange"
             d="m 7.451,-21.028 0.553,0.179 0.492,0.086 1.468,0.545 0.031,0.009 0.015,0.008 0.004,0.002 0.003,0.002 0.86,0.497 0.103,0.104 0.118,0.035 0.876,0.581 0.086,0.095 0.18,0.098 0.654,0.508 0.324,0.396 0.419,0.331 0.585,0.715 0.502,0.566 0.305,0.498 0.217,0.213 0.416,0.695 0.048,0.174 0.489,1.126 0.205,0.826 0.013,0.104 0.025,0.061 0.133,0.613 0.021,0.192 0.033,0.093 0.101,0.635 0.14,0.534 0.159,1.209 -0.001,0.075 -0.011,0.719 -0.065,0.297 -0.206,1.188 -0.132,0.373 -0.104,0.462 -0.263,0.631 -0.075,0.329 -0.105,0.22 -0.252,0.656 -0.077,0.327 -0.089,0.106 -0.068,0.178 -0.833,0.972 -0.029,0.049 -0.071,0.069 -0.068,0.079 -0.035,0.021 -0.351,0.339 -0.701,0.805 -0.338,0.241 -0.322,0.33 L 12.408,-0.54 12.17,-0.274 11.514,0.177 11.058,0.32 10.67,0.634 10.118,0.86 9.508,1.181 8.878,1.338 8.556,1.548 8.247,1.626 8.085,1.738 7.545,1.906 7.106,2.233 6.501,2.442 6.765,3.308 7.641,4.937 8.634,6.635 9.68,8.006 l 1.255,1.274 1.264,0.971 1.455,0.911 1.99,0.794 2.084,0.743 1.96,0.527 2.376,0.363 2.226,0.124 2.783,0.121 2.217,-0.14 2.528,-0.224 0.003,-0.001 2.093,-0.207 1.969,-0.442 1.904,-0.49 0.107,-0.014 0.029,-0.017 1.682,-0.354 1.331,-0.323 1.093,-0.514 0.227,-0.052 0.102,-0.066 0.692,-0.171 0.733,-0.518 0.841,-0.652 0.507,-0.175 0.584,0.242 0.242,0.583 -0.093,0.38 -0.498,0.961 -0.506,1.05 -0.075,0.047 -0.054,0.166 -0.581,0.784 -0.003,0.002 -0.002,0.005 -0.865,1.149 -0.264,0.131 -0.132,0.266 -1.289,0.982 -0.115,0.039 -0.116,0.117 -1.483,0.888 -0.117,0.032 -0.087,0.079 -1.82,0.898 -0.173,0.041 -0.101,0.078 -2.068,0.785 -0.345,0.064 -0.121,0.074 -2.24,0.482 -0.079,0.008 -0.017,0.011 -2.53,0.48 -0.063,0.006 -0.013,0.008 -2.389,0.412 -0.395,0.035 -0.065,0.016 -2.98,0.129 -2.387,0.134 -0.219,0.007 L 21.475,21.039 18.668,20.891 18.606,20.876 18.284,20.851 15.881,20.476 15.757,20.433 15.548,20.407 13.13,19.801 13.08,19.769 12.949,19.749 10.456,18.983 10.209,18.807 9.782,18.703 7.712,17.63 7.554,17.482 7.367,17.427 5.59,16.269 5.411,16.076 5.054,15.854 3.289,14.256 3.101,13.999 2.867,13.817 1.401,12.07 1.2,11.725 1.035,11.569 -0.203,9.605 -0.236,9.492 -0.325,9.402 -1.48,7.363 -1.625,6.818 -1.869,6.479 -2.592,4.228 -2.618,4.06 -2.679,3.923 -2.74,3.683 -3.097,3.358 -3.433,3.219 -3.511,3.031 -3.744,2.847 -4.233,1.287 -3.744,-0.272 -3.683,-0.32 -3.876,-1.248 -3.934,-1.801 -3.969,-1.938 -4.112,-4.285 -4.121,-4.578 v -2.36 l 0.009,-0.284 0.141,-2.302 0.073,-0.279 0.101,-0.713 0.399,-1.377 0.168,-1.308 0.203,-0.627 0.1,-0.51 0.509,-1.248 0.117,-0.144 0.554,-0.982 0.932,-1.157 0.166,-0.131 0.139,-0.209 0.711,-0.72 0.518,-0.352 0.265,-0.283 0.765,-0.496 0.065,-0.019 0.053,-0.055 0.692,-0.423 0.248,-0.07 0.368,-0.25 1.804,-0.374 0.999,-0.006 h 0.03 z m -1.573,9.629 -0.01,0.024 -0.14,1.063 -0.085,0.26 -0.059,0.41 -0.359,1.225 -0.103,1.628 v 0.635 L 5.297,-6.236 5.663,-6.514 5.866,-6.583 6.069,-6.79 6.415,-6.997 6.442,-7.022 6.752,-7.404 7.074,-7.659 7.333,-7.997 7.434,-8.082 7.48,-8.317 7.559,-8.51 7.604,-8.77 7.66,-8.921 7.637,-9.083 l -0.073,-0.2 -0.131,-0.747 -0.111,-0.482 -0.157,-0.176 -0.058,-0.096 -0.07,-0.055 -0.312,-0.381 -0.1,-0.077 -0.536,-0.359 z"
             id="path590"
             style="stroke:#000000;stroke-width:0.999657;stroke-miterlimit:4;stroke-dasharray:none;stroke-opacity:1;paint-order:stroke fill markers" />
        </g>
      </g>
    </g>
  </g>
</svg>
