<?xml version="1.0" encoding="UTF-8" standalone="no"?>
<!-- Generator: Adobe Illustrator 19.0.0, SVG Export Plug-In . SVG Version: 6.00 Build 0)  -->

<svg
   version="1.1"
   id="Layer_1"
   x="0px"
   y="0px"
   viewBox="0 0 452.3813 461.87963"
   xml:space="preserve"
   sodipodi:docname="gbp_wallet.svg"
   inkscape:version="1.1.2 (0a00cf5339, 2022-02-04, custom)"
   width="45"
   height="46"
   xmlns:inkscape="http://www.inkscape.org/namespaces/inkscape"
   xmlns:sodipodi="http://sodipodi.sourceforge.net/DTD/sodipodi-0.dtd"
   xmlns="http://www.w3.org/2000/svg"
   xmlns:svg="http://www.w3.org/2000/svg"><defs
   id="defs1737"><filter
     style="color-interpolation-filters:sRGB"
     inkscape:label="Drop Shadow"
     id="filter2220"
     x="-0.020060816"
     y="-0.02961352"
     width="1.0459751"
     height="1.0678679"><feFlood
       flood-opacity="0.498039"
       flood-color="rgb(0,0,0)"
       result="flood"
       id="feFlood2210" /><feComposite
       in="flood"
       in2="SourceGraphic"
       operator="in"
       result="composite1"
       id="feComposite2212" /><feGaussianBlur
       in="composite1"
       stdDeviation="6.68693"
       result="blur"
       id="feGaussianBlur2214" /><feOffset
       dx="4.68278"
       dy="4.68278"
       result="offset"
       id="feOffset2216" /><feComposite
       in="SourceGraphic"
       in2="offset"
       operator="over"
       result="composite2"
       id="feComposite2218" /></filter><filter
     style="color-interpolation-filters:sRGB;"
     inkscape:label="Drop Shadow"
     id="filter2921"
     x="-0.020060816"
     y="-0.02961352"
     width="1.0459751"
     height="1.0678679"><feFlood
       flood-opacity="0.498039"
       flood-color="rgb(0,0,0)"
       result="flood"
       id="feFlood2911" /><feComposite
       in="flood"
       in2="SourceGraphic"
       operator="in"
       result="composite1"
       id="feComposite2913" /><feGaussianBlur
       in="composite1"
       stdDeviation="6.68693"
       result="blur"
       id="feGaussianBlur2915" /><feOffset
       dx="4.68278"
       dy="4.68278"
       result="offset"
       id="feOffset2917" /><feComposite
       in="SourceGraphic"
       in2="offset"
       operator="over"
       result="composite2"
       id="feComposite2919" /></filter><filter
     style="color-interpolation-filters:sRGB;"
     inkscape:label="Drop Shadow"
     id="filter3120"
     x="-0.020060816"
     y="-0.02961352"
     width="1.0459751"
     height="1.0678679"><feFlood
       flood-opacity="0.498039"
       flood-color="rgb(0,0,0)"
       result="flood"
       id="feFlood3110" /><feComposite
       in="flood"
       in2="SourceGraphic"
       operator="in"
       result="composite1"
       id="feComposite3112" /><feGaussianBlur
       in="composite1"
       stdDeviation="6.68693"
       result="blur"
       id="feGaussianBlur3114" /><feOffset
       dx="4.68278"
       dy="4.68278"
       result="offset"
       id="feOffset3116" /><feComposite
       in="SourceGraphic"
       in2="offset"
       operator="over"
       result="composite2"
       id="feComposite3118" /></filter><filter
     style="color-interpolation-filters:sRGB;"
     inkscape:label="Drop Shadow"
     id="filter4079"
     x="-0.020060791"
     y="-0.02961352"
     width="1.0459751"
     height="1.0678679"><feFlood
       flood-opacity="0.498039"
       flood-color="rgb(0,0,0)"
       result="flood"
       id="feFlood4069" /><feComposite
       in="flood"
       in2="SourceGraphic"
       operator="in"
       result="composite1"
       id="feComposite4071" /><feGaussianBlur
       in="composite1"
       stdDeviation="6.68693"
       result="blur"
       id="feGaussianBlur4073" /><feOffset
       dx="4.68278"
       dy="4.68278"
       result="offset"
       id="feOffset4075" /><feComposite
       in="SourceGraphic"
       in2="offset"
       operator="over"
       result="composite2"
       id="feComposite4077" /></filter></defs><sodipodi:namedview
   id="namedview1735"
   pagecolor="#505050"
   bordercolor="#eeeeee"
   borderopacity="1"
   inkscape:pageshadow="0"
   inkscape:pageopacity="0"
   inkscape:pagecheckerboard="0"
   showgrid="false"
   inkscape:zoom="1.1424637"
   inkscape:cx="223.20184"
   inkscape:cy="276.59522"
   inkscape:window-width="1757"
   inkscape:window-height="1251"
   inkscape:window-x="-2217"
   inkscape:window-y="-453"
   inkscape:window-maximized="0"
   inkscape:current-layer="Layer_1"
   fit-margin-top="0"
   fit-margin-left="0"
   fit-margin-right="0"
   fit-margin-bottom="0" />
<path
   style="fill:#fff8ef"
   d="m 268,108.7 c -3.1,-2.8 -6.4,-5.7 -9.3,-8.4 -5.8,-5.8 -14,-9.1 -22.5,-9.1 -6.4,0 -12.6,1.8 -18.1,5.4 L 151.5,141 h 142.1 l 2,-9.6 c -4.9,-2.1 -17.5,-13.5 -27.6,-22.7 z"
   id="path1658" />
<path
   style="fill:#cc9966"
   d="M 397,181 V 147 H 56 C 42.2,147 29.6,141.7 19.5,131.7 L 11,123.2 v 35.7 l 1.5,1.5 c 4.7,4.7 24,19.8 78.5,20.6 v 6 C 61.1,186.5 36.7,181.3 18.3,171.6 l -5.9,8 c 0.8,0.8 1.7,1.4 2.8,2 l 10.2,122.1 c 1.8,19.6 10.7,36.5 25.1,47.5 l 0.1,0.1 c 18.4,13.3 41.9,20.4 69.6,20.9 h 7.7 269 v -74 H 279.2 C 264.8,298.2 253,286.4 253,272 V 239.2 C 253,224.8 264.8,213 279.2,213 H 397 v -26 h -80 v -6 z m -250,6 h -30 v -6 h 30 z m 136,0 H 181 v -6 h 102 z"
   id="path1660" />
<g
   id="g1666"
   transform="translate(-12.016)">
	<path
   style="fill:#b37d4d"
   d="m 29.616,158.4 -1.6,-22.4 v 20.8 c 0.8,0.8 0.8,0.8 1.6,1.6 z"
   id="path1662" />
	<path
   style="fill:#b37d4d"
   d="m 132.416,367.2 v 0 c 2.5,0.1 5,0.1 7.6,0 v 0 z"
   id="path1664" />
</g>
<path
   style="fill:#fff8ef"
   d="m 296,243 c -7.2,0 -13,5.8 -13,13 0,7.2 5.8,13 13,13 7.2,0 13,-5.8 13,-13 0,-7.2 -5.8,-13 -13,-13 z"
   id="path1668" />
<g
   id="g1676"
   transform="translate(-12.016)">
	<path
   style="fill:#b37d4d"
   d="m 167.216,51 h -99.2 c -9.5,0 -19.4,3.3 -27,9 l -12,9 h 123.8 z"
   id="path1670" />
	<polygon
   style="fill:#b37d4d"
   points="353.016,75 353.016,69 385.016,69 385.016,51 298.016,51 365.516,141 385.016,141 385.016,75 "
   id="polygon1672" />
	<path
   style="fill:#b37d4d"
   d="m 291.216,219.8 c -11.1,0 -20.2,9.1 -20.2,20.2 v 32.8 c 0,10.3 9,19.9 19.7,21 h 0.2 142 v -74 z m 16.8,55.2 c -10.8,0 -19,-8.2 -19,-19 0,-10.8 8.2,-19 19,-19 10.8,0 19,8.2 19,19 0,10.8 -8.2,19 -19,19 z"
   id="path1674" />
</g>
<g
   id="g1686"
   transform="translate(-12.016)">
	<polygon
   style="fill:#7ac943"
   points="223.916,430 145.316,393.1 139.316,400.7 173.316,444.1 "
   id="polygon1678" />
	<polygon
   style="fill:#7ac943"
   points="325.516,379 152.016,379 149.916,388.5 267.716,444.5 "
   id="polygon1680" />
	<polygon
   style="fill:#7ac943"
   points="204.816,12 129.616,110.6 136.716,117.5 235.916,37.6 "
   id="polygon1682" />
	<path
   style="fill:#7ac943"
   d="m 155.316,141 102.9,-79.4 c 0.3,-0.2 0.8,-0.4 1.6,-0.4 1.2,0 2.3,0.5 2.6,1 l 63.2,78.8 h 32.3 L 268.116,20.1 116.916,141 Z"
   id="path1684" />
</g>
<path
   style="fill:#996632"
   d="m 56,141 h 30.3 l 16.2,-18.9 -14.8,3.4 -0.5,0.1 c -4.1,0.9 -8,1.4 -11.6,1.4 v 0 C 50.3,127 45.2,104 45,103 v -0.2 l -0.1,-0.2 C 42.6,94.8 42.8,86.3 43.5,80.6 L 44,75 H 15.6 l -1.1,3.4 C 12.8,83.5 11,89.6 11,96 c 0,25.2 19.8,45 45,45 z"
   id="path1688" />
<g
   id="g1694"
   transform="translate(-12.016)">
	<path
   style="fill:#b37d4d"
   d="m 52.016,104 c 0,0 7.1,35.7 48.2,26.5 l 39,-50.5 h -88.8 c -0.8,7.2 -0.8,16 1.6,24 z"
   id="path1690" />
	<path
   style="fill:#b37d4d"
   d="m 132.416,367.2 v 0 h -50 c -29.6,0.8 -54.4,-24 -54.4,-53.6 v -0.8 c 0,30.4 24.8,54.4 54.4,54.4 h 50 c -32.4,-0.7 -53.4,-10.3 -66.8,-20 -13.6,-10.4 -21.6,-26.4 -23.2,-44 l -10.4,-124.8 c -1.6,-0.8 -3.2,-1.6 -4,-2.4 2.6,1.4 5.7,2.9 9.2,4.3 l -0.4,-5.1 -2.5,-1.3 c -0.9,-0.4 -2.4,-1.2 -2.7,-1.5 l -8.5,-8.5 v 148.9 c 0,32.8 26.6,59.4 59.4,59.4 h 50 z"
   id="path1692" />
</g>
<path
   style="fill:#cc9966"
   d="m 16,312.8 v 0.8 c 0,29.6 24.8,54.4 54.4,53.6 h 50 v 0 h -50 C 40.8,367.2 16,343.2 16,312.8 Z"
   id="path1696" />
<path
   style="fill:#e0cbb5"
   d="m 248,68.2 -70.2,54.2 -12.8,9.6 5.8,8.2 6.2,-4.2 h -9 l 52.8,-35.2 c 11.2,-7.2 25.6,-5.6 34.4,3.2 13.6,12 31.2,28.8 38.4,32 h -9.2 c 2.9,2.1 5.3,3.7 7.2,4.6 l 1,0.4 h 13.9 z"
   id="path1698" />
<polygon
   style="fill:#fff8ef"
   points="179.216,136 180.016,136 192.816,126.4 258.716,75.6 258.416,75.2 "
   id="polygon1700"
   transform="translate(-12.016)" />
<path
   style="fill:#42210b"
   d="m 176,176 h 112 v 16 H 176 Z m 112,80 c 0,4 4,8 8,8 4,0 8,-4 8,-8 0,-4 -4,-8 -8,-8 -4,0 -8,4 -8,8 z m 32,0 c 0,13.6 -10.4,24 -24,24 -13.6,0 -24,-10.4 -24,-24 0,-13.6 10.4,-24 24,-24 13.6,0 24,10.4 24,24 z M 112,176 h 40 v 16 h -40 z m 85.6,252.8 -66.4,-31.2 32,40.8 z M 56,56 c -8.8,0 -16.8,3.2 -24,8 h 107.2 l 6.4,-8 z m 160,-18.4 -23.2,-18.4 -72,94.4 z M 140,384 254.4,438.4 302.4,384 Z M 246.4,75.2 167.2,136 h 128 z m 8,-16 61.6,76.8 h 20 L 254.4,27.2 119.2,136 h 22.4 L 243.2,57.6 c 3.2,-2.4 8,-2.4 11.2,1.6 z M 16,96 c 0,22.4 17.6,40 40,40 H 84 L 127.2,80 H 19.2 C 17.6,84.8 16,90.4 16,96 Z m 40,56 c -16,0 -29.6,-6.4 -40,-16.8 v 21.6 c 4.8,4.8 24.8,19.2 80,19.2 v 16 c -42.4,0 -66.4,-8 -80,-16 v 136.8 c 0,30.4 24.8,54.4 54.4,54.4 H 392 v -64 H 279.2 C 261.6,303.2 248,288.8 248,272 V 239.2 C 248,221.6 262.4,208 279.2,208 H 392 v -16 h -80 v -16 h 80 v -24 h -16 -16 z m 360,72 H 279.2 c -8.8,0 -15.2,7.2 -15.2,15.2 V 272 c 0,8.8 7.2,15.2 15.2,15.2 H 416 Z m -60,-88 h 4 8 V 80 H 336 V 64 h 32 v -8 h -72 z m 52,8 v 64 h 16 c 4,0 8,4 8,8 v 80 c 0,4 -4,8 -8,8 h -16 v 72 c 0,4 -4,8 -8,8 h -76 l -61.6,69.6 c -2.4,2.4 -6.4,3.2 -9.6,1.6 l -34.4,-16.8 v 0.8 l -56,16 c -0.8,0 -1.6,0 -2.4,0 -2.4,0 -4.8,-0.8 -6.4,-3.2 L 100,384 H 70.4 C 32,384 0,352 0,313.6 V 88 H 0.8 C 4.8,60.8 28,40 56,40 h 101.6 l 28,-36.8 c 1.6,-1.6 3.2,-3.2 5.6,-3.2 2.4,0 4,0 5.6,1.6 l 32,25.6 22.4,-17.6 c 1.6,-0.8 4,-1.6 5.6,-1.6 2.4,0 4,1.6 5.6,3.2 L 284,40 h 92 c 4,0 8,3.2 8,8 v 88 h 16 c 4,0 8,4 8,8 z"
   id="path1702" />
<g
   id="g1704"
   transform="translate(-12.016)">
</g>
<g
   id="g1706"
   transform="translate(-12.016)">
</g>
<g
   id="g1708"
   transform="translate(-12.016)">
</g>
<g
   id="g1710"
   transform="translate(-12.016)">
</g>
<g
   id="g1712"
   transform="translate(-12.016)">
</g>
<g
   id="g1714"
   transform="translate(-12.016)">
</g>
<g
   id="g1716"
   transform="translate(-12.016)">
</g>
<g
   id="g1718"
   transform="translate(-12.016)">
</g>
<g
   id="g1720"
   transform="translate(-12.016)">
</g>
<g
   id="g1722"
   transform="translate(-12.016)">
</g>
<g
   id="g1724"
   transform="translate(-12.016)">
</g>
<g
   id="g1726"
   transform="translate(-12.016)">
</g>
<g
   id="g1728"
   transform="translate(-12.016)">
</g>
<g
   id="g1730"
   transform="translate(-12.016)">
</g>
<g
   id="g1732"
   transform="translate(-12.016)">
</g>
<g
   id="g3346"
   transform="matrix(0.28677421,0,0,0.28677421,218.32216,264.42287)"
   style="filter:url(#filter4079)">
	<polygon
   fill="#103b9b"
   points="173.175,331.323 24.807,331.323 24.807,232.411 "
   id="polygon3284" />
	<polygon
   fill="#103b9b"
   points="169.872,330.323 25.807,234.279 25.807,330.323 "
   id="polygon3286" />
	<polygon
   fill="#103b9b"
   points="331.322,271.675 154.567,153.839 331.322,153.839 "
   id="polygon3288" />
	<polygon
   fill="#103b9b"
   points="330.322,269.807 330.322,154.839 157.87,154.839 "
   id="polygon3290" />
	<polygon
   fill="#103b9b"
   points="24.807,567.589 24.807,468.678 173.175,468.678 "
   id="polygon3292" />
	<polygon
   fill="#103b9b"
   points="169.872,469.678 25.807,469.678 25.807,565.721 "
   id="polygon3294" />
	<polygon
   fill="#103b9b"
   points="468.678,271.675 468.678,153.839 645.433,153.839 "
   id="polygon3296" />
	<polygon
   fill="#103b9b"
   points="469.678,269.807 642.13,154.839 469.678,154.839 "
   id="polygon3298" />
	<polygon
   fill="#103b9b"
   points="775.193,331.323 626.825,331.323 775.193,232.411 "
   id="polygon3300" />
	<polygon
   fill="#103b9b"
   points="630.128,330.323 774.193,330.323 774.193,234.279 "
   id="polygon3302" />
	<polygon
   fill="#103b9b"
   points="331.322,646.161 154.567,646.161 331.322,528.323 "
   id="polygon3304" />
	<polygon
   fill="#103b9b"
   points="330.322,530.191 157.87,645.161 330.322,645.161 "
   id="polygon3306" />
	<polygon
   fill="#103b9b"
   points="775.193,567.589 626.825,468.678 775.193,468.678 "
   id="polygon3308" />
	<polygon
   fill="#103b9b"
   points="630.128,469.678 774.193,565.721 774.193,469.678 "
   id="polygon3310" />
	<polygon
   fill="#103b9b"
   points="645.433,646.161 468.678,646.161 468.678,528.323 "
   id="polygon3312" />
	<polygon
   fill="#103b9b"
   points="469.678,530.191 469.678,645.161 642.13,645.161 "
   id="polygon3314" />
	<polygon
   fill="#ffffff"
   points="481.254,330.323 469.678,330.323 469.678,313.244 469.678,282.228 660.743,154.839 642.13,154.839 469.678,269.807 469.678,154.839 450.322,154.839 450.322,349.677 774.193,349.677 774.193,330.323 630.128,330.323 774.193,234.279 774.193,166.045 527.778,330.323 "
   id="polygon3316" />
	<polygon
   fill="#ffffff"
   points="318.746,469.678 330.322,469.678 330.322,486.77 330.322,517.786 139.262,645.161 157.87,645.161 330.322,530.191 330.322,645.161 349.678,645.161 349.678,450.322 25.807,450.322 25.807,469.678 169.872,469.678 25.807,565.721 25.807,633.954 272.222,469.678 "
   id="polygon3318" />
	<polygon
   fill="#ed1f34"
   points="318.443,468.678 331.322,468.678 331.322,487.305 93.041,646.161 52.217,646.161 "
   id="polygon3320" />
	<polygon
   fill="#ed1f34"
   points="55.52,645.161 92.738,645.161 330.322,486.77 330.322,469.678 318.746,469.678 "
   id="polygon3322" />
	<polygon
   fill="#ed1f34"
   points="275.525,331.323 234.126,331.323 24.807,191.44 24.807,164.177 "
   id="polygon3324" />
	<polygon
   fill="#ed1f34"
   points="272.222,330.323 25.807,166.045 25.807,190.906 234.429,330.323 "
   id="polygon3326" />
	<polygon
   fill="#ed1f34"
   points="775.193,635.822 524.476,468.678 564.026,468.678 775.193,609.788 "
   id="polygon3328" />
	<polygon
   fill="#ed1f34"
   points="527.778,469.678 774.193,633.954 774.193,610.322 563.723,469.678 "
   id="polygon3330" />
	<polygon
   fill="#ed1f34"
   points="468.678,312.708 706.959,153.839 747.783,153.839 481.557,331.323 468.678,331.323 "
   id="polygon3332" />
	<polygon
   fill="#ed1f34"
   points="744.48,154.839 707.262,154.839 469.678,313.244 469.678,330.323 481.254,330.323 "
   id="polygon3334" />
	<path
   d="m 800,657.979 v -54.572 c 0,-0.021 0,-0.041 0,-0.062 V 142.02 c 0,-0.014 0,-0.025 0,-0.039 v -0.045 c 0,-0.076 -0.011,-0.15 -0.012,-0.226 -0.006,-0.348 -0.02,-0.693 -0.054,-1.041 -0.014,-0.148 -0.041,-0.291 -0.061,-0.436 -0.036,-0.272 -0.07,-0.545 -0.125,-0.815 -0.038,-0.189 -0.09,-0.374 -0.136,-0.561 -0.054,-0.22 -0.104,-0.44 -0.169,-0.659 -0.069,-0.227 -0.153,-0.446 -0.232,-0.666 -0.063,-0.172 -0.118,-0.346 -0.189,-0.516 -0.111,-0.27 -0.239,-0.53 -0.368,-0.79 -0.059,-0.119 -0.108,-0.237 -0.17,-0.354 -0.178,-0.33 -0.37,-0.65 -0.573,-0.963 -0.027,-0.043 -0.05,-0.088 -0.077,-0.131 -0.002,-0.003 -0.005,-0.007 -0.009,-0.01 -0.241,-0.359 -0.497,-0.708 -0.772,-1.042 -0.125,-0.153 -0.265,-0.289 -0.396,-0.435 -0.146,-0.162 -0.287,-0.331 -0.442,-0.485 -0.217,-0.217 -0.447,-0.417 -0.678,-0.616 -0.084,-0.072 -0.162,-0.153 -0.249,-0.224 -0.221,-0.181 -0.451,-0.344 -0.682,-0.509 -0.11,-0.08 -0.217,-0.167 -0.33,-0.243 -0.2,-0.134 -0.408,-0.251 -0.614,-0.374 -0.158,-0.094 -0.313,-0.194 -0.475,-0.28 -0.164,-0.088 -0.334,-0.162 -0.503,-0.243 -0.215,-0.103 -0.427,-0.21 -0.646,-0.303 -0.126,-0.052 -0.255,-0.093 -0.382,-0.14 -0.267,-0.1 -0.532,-0.201 -0.806,-0.285 -0.1,-0.031 -0.201,-0.05 -0.303,-0.078 -0.301,-0.083 -0.602,-0.167 -0.91,-0.227 -0.138,-0.027 -0.276,-0.04 -0.414,-0.063 -0.298,-0.05 -0.596,-0.1 -0.9,-0.127 -0.398,-0.038 -0.8,-0.06 -1.202,-0.06 -0.009,-0.002 -0.018,-0.002 -0.024,-0.002 h -83.654 c -0.016,0 -0.029,0 -0.045,0 H 12.903 c -0.007,0 -0.014,0 -0.021,0 -0.403,0.002 -0.805,0.022 -1.206,0.06 -0.351,0.033 -0.695,0.088 -1.038,0.148 -0.091,0.016 -0.183,0.024 -0.272,0.042 -0.337,0.067 -0.666,0.155 -0.993,0.248 -0.072,0.021 -0.146,0.035 -0.218,0.057 -0.296,0.089 -0.583,0.198 -0.871,0.308 -0.105,0.04 -0.213,0.072 -0.316,0.117 -0.241,0.1 -0.473,0.215 -0.706,0.33 -0.146,0.072 -0.298,0.136 -0.442,0.213 -0.184,0.098 -0.359,0.21 -0.538,0.318 -0.184,0.11 -0.372,0.215 -0.552,0.335 -0.136,0.091 -0.262,0.193 -0.394,0.288 -0.208,0.151 -0.42,0.299 -0.621,0.464 -0.108,0.088 -0.207,0.188 -0.312,0.279 -0.208,0.182 -0.42,0.363 -0.618,0.561 -0.189,0.188 -0.361,0.391 -0.539,0.59 -0.1,0.114 -0.207,0.217 -0.303,0.333 -0.275,0.334 -0.532,0.682 -0.772,1.041 -0.003,0.005 -0.007,0.009 -0.01,0.014 -0.033,0.05 -0.059,0.104 -0.091,0.153 -0.198,0.306 -0.389,0.618 -0.561,0.939 -0.065,0.12 -0.117,0.246 -0.177,0.368 -0.126,0.256 -0.253,0.511 -0.361,0.776 -0.072,0.174 -0.129,0.351 -0.193,0.526 -0.079,0.218 -0.162,0.434 -0.23,0.657 -0.067,0.22 -0.115,0.44 -0.17,0.663 -0.046,0.186 -0.098,0.368 -0.134,0.557 -0.053,0.272 -0.089,0.545 -0.125,0.819 -0.019,0.145 -0.046,0.288 -0.06,0.434 -0.035,0.348 -0.046,0.695 -0.053,1.041 C 0.01,141.786 0,141.86 0,141.936 v 0.045 c 0,0.014 0,0.025 0,0.039 v 55.811 c 0,0.016 0,0.029 0,0.044 v 460.104 c 0,0.014 0,0.025 0,0.04 v 0.044 c 0,0.076 0.01,0.15 0.012,0.226 0.005,0.348 0.019,0.693 0.053,1.041 0.014,0.146 0.041,0.289 0.06,0.436 0.036,0.273 0.071,0.545 0.125,0.817 0.038,0.188 0.09,0.373 0.136,0.561 0.053,0.22 0.103,0.44 0.168,0.659 0.069,0.225 0.151,0.441 0.232,0.662 0.063,0.174 0.119,0.35 0.191,0.521 0.11,0.268 0.239,0.526 0.366,0.784 0.059,0.119 0.108,0.239 0.172,0.357 0.177,0.331 0.37,0.65 0.573,0.964 0.027,0.043 0.05,0.088 0.078,0.131 10e-4,0.003 0.005,0.007 0.007,0.01 0.278,0.417 0.585,0.811 0.908,1.191 0.1,0.118 0.207,0.227 0.31,0.342 0.224,0.246 0.458,0.481 0.699,0.709 0.134,0.126 0.268,0.249 0.406,0.368 0.256,0.22 0.523,0.427 0.797,0.628 0.115,0.084 0.224,0.176 0.34,0.255 0.389,0.265 0.792,0.507 1.209,0.73 0.1,0.054 0.203,0.097 0.305,0.146 0.335,0.167 0.676,0.322 1.027,0.461 0.133,0.052 0.265,0.099 0.397,0.146 0.332,0.119 0.669,0.222 1.012,0.313 0.136,0.036 0.272,0.073 0.41,0.104 0.354,0.081 0.714,0.145 1.079,0.196 0.125,0.018 0.25,0.043 0.375,0.057 0.459,0.052 0.926,0.083 1.399,0.084 0.022,0 0.044,0.004 0.068,0.004 0.005,0 0.012,0 0.018,0 h 83.623 c 0.017,0 0.036,0 0.053,0 h 690.458 c 0.005,0 0.013,0.002 0.018,0.002 0.022,0 0.045,-0.004 0.067,-0.004 0.473,-0.002 0.938,-0.032 1.398,-0.084 0.124,-0.014 0.246,-0.04 0.369,-0.057 0.367,-0.052 0.73,-0.115 1.086,-0.198 0.135,-0.031 0.269,-0.067 0.402,-0.104 0.348,-0.093 0.688,-0.197 1.022,-0.316 0.131,-0.046 0.26,-0.091 0.389,-0.143 0.356,-0.14 0.702,-0.298 1.041,-0.466 0.097,-0.049 0.196,-0.09 0.292,-0.142 0.42,-0.224 0.824,-0.468 1.215,-0.732 0.113,-0.078 0.221,-0.167 0.33,-0.248 0.277,-0.201 0.548,-0.411 0.806,-0.635 0.138,-0.119 0.271,-0.241 0.402,-0.365 0.244,-0.229 0.477,-0.466 0.704,-0.712 0.103,-0.113 0.208,-0.222 0.308,-0.339 0.323,-0.38 0.63,-0.775 0.908,-1.19 0.002,-0.004 0.005,-0.007 0.007,-0.011 0.029,-0.043 0.05,-0.087 0.078,-0.13 0.203,-0.313 0.396,-0.632 0.572,-0.964 0.063,-0.117 0.112,-0.237 0.171,-0.354 0.129,-0.26 0.256,-0.52 0.368,-0.79 0.07,-0.17 0.125,-0.344 0.188,-0.516 0.081,-0.221 0.164,-0.44 0.232,-0.666 0.065,-0.219 0.115,-0.438 0.169,-0.657 0.047,-0.188 0.098,-0.371 0.136,-0.563 0.054,-0.27 0.09,-0.544 0.124,-0.815 0.019,-0.146 0.047,-0.289 0.062,-0.437 0.035,-0.346 0.047,-0.693 0.054,-1.039 0.002,-0.076 0.012,-0.15 0.012,-0.226 V 658.02 C 800,658.006 800,657.992 800,657.979 Z M 469.678,313.244 707.262,154.839 h 37.219 L 481.254,330.323 h 46.524 L 774.193,166.046 v 68.234 96.043 19.354 H 450.322 V 154.839 h 19.355 172.453 18.613 L 469.678,282.228 Z m -120,36.433 H 25.807 V 330.323 234.28 221.945 l 162.176,108.378 h 46.446 L 25.807,190.906 v -24.86 l 246.416,164.277 h 46.524 L 55.52,154.839 h 102.352 172.45 19.355 V 349.677 Z M 330.322,486.77 92.738,645.161 H 55.52 L 318.746,469.678 H 272.222 L 25.807,633.954 V 565.721 469.678 450.323 H 349.678 V 645.162 H 330.323 157.87 139.262 L 330.323,517.787 V 486.77 Z m 120,-36.448 h 233.549 c 7.128,0 12.903,-5.777 12.903,-12.903 v 0 c 0,-7.126 -5.775,-12.902 -12.903,-12.902 H 437.419 c -7.127,0 -12.903,5.776 -12.903,12.902 V 645.161 H 375.485 V 437.419 c 0,-7.126 -5.776,-12.902 -12.903,-12.902 H 25.807 v -49.033 h 336.774 c 7.127,0 12.903,-5.777 12.903,-12.903 V 154.839 h 49.031 v 207.742 c 0,7.126 5.776,12.903 12.903,12.903 h 336.774 v 49.033 h -38.709 c -7.128,0 -12.903,5.776 -12.903,12.902 v 0 c 0,7.126 5.775,12.903 12.903,12.903 h 38.709 v 19.355 96.043 13.565 L 610.171,469.678 h -46.448 l 210.471,140.645 v 23.631 L 527.778,469.678 H 481.254 L 744.48,645.161 H 642.13 469.678 450.323 V 450.322 Z"
   id="path3336" />
	<polygon
   fill="#ffffff"
   points="25.807,349.677 349.678,349.677 349.678,154.839 330.322,154.839 330.322,269.807 157.87,154.839 55.52,154.839 318.746,330.323 272.222,330.323 234.429,330.323 187.983,330.323 25.807,221.944 25.807,234.279 169.872,330.323 25.807,330.323 "
   id="polygon3338" />
	<path
   fill="#ffffff"
   d="M 469.678,530.191 642.13,645.161 H 744.48 L 481.254,469.678 h 46.524 35.946 46.448 L 774.193,579.286 V 565.721 L 630.128,469.678 h 144.065 v -19.355 h -38.709 c -7.128,0 -12.903,-5.777 -12.903,-12.903 h -25.807 c 0,7.126 -5.775,12.903 -12.903,12.903 H 450.322 v 194.839 h 19.355 V 530.191 Z"
   id="path3340" />
	<path
   fill="#ed1f34"
   d="M 374.484,646.161 V 437.419 c 0,-6.563 -5.34,-11.902 -11.903,-11.902 H 24.807 v -51.033 h 337.774 c 6.563,0 11.903,-5.34 11.903,-11.903 V 153.839 h 51.031 v 208.742 c 0,6.563 5.34,11.903 11.903,11.903 h 337.774 v 51.033 h -39.709 c -6.563,0 -11.903,5.339 -11.903,11.902 v 1 h -27.807 v -1 c 0,-6.563 -5.34,-11.902 -11.903,-11.902 H 437.419 c -6.563,0 -11.903,5.339 -11.903,11.902 v 208.742 z"
   id="path3342" />
	<path
   fill="#ed1f34"
   d="m 722.581,437.419 c 0,-7.126 5.775,-12.902 12.903,-12.902 h 38.709 V 375.484 H 437.419 c -7.127,0 -12.903,-5.777 -12.903,-12.903 V 154.839 h -49.031 v 207.742 c 0,7.126 -5.776,12.903 -12.903,12.903 H 25.807 v 49.033 h 336.774 c 7.127,0 12.903,5.776 12.903,12.902 v 207.742 h 49.031 V 437.419 c 0,-7.126 5.776,-12.902 12.903,-12.902 H 683.87 c 7.128,0 12.903,5.776 12.903,12.902 v 0 z"
   id="path3344" />
</g></svg>
