<?xml version="1.0" encoding="UTF-8" standalone="no"?>
<svg
   viewBox="0 0 543.46741 499.63376"
   width="543.46741"
   height="499.63376"
   version="1.1"
   id="svg192"
   sodipodi:docname="signaturediagram.svg"
   inkscape:version="1.1.2 (0a00cf5339, 2022-02-04, custom)"
   xmlns:inkscape="http://www.inkscape.org/namespaces/inkscape"
   xmlns:sodipodi="http://sodipodi.sourceforge.net/DTD/sodipodi-0.dtd"
   xmlns:xlink="http://www.w3.org/1999/xlink"
   xmlns="http://www.w3.org/2000/svg"
   xmlns:svg="http://www.w3.org/2000/svg">
  <sodipodi:namedview
     id="namedview194"
     pagecolor="#505050"
     bordercolor="#eeeeee"
     borderopacity="1"
     inkscape:pageshadow="0"
     inkscape:pageopacity="0"
     inkscape:pagecheckerboard="0"
     showgrid="false"
     fit-margin-top="0"
     fit-margin-left="0"
     fit-margin-right="0"
     fit-margin-bottom="0"
     inkscape:zoom="1.1285424"
     inkscape:cx="281.33634"
     inkscape:cy="288.42513"
     inkscape:window-width="1920"
     inkscape:window-height="991"
     inkscape:window-x="-9"
     inkscape:window-y="-9"
     inkscape:window-maximized="1"
     inkscape:current-layer="g68" />
  <g
     transform="matrix(0.9921,0,0,0.9921,-615.87316,-227.02879)"
     id="g120">
    <g
       transform="translate(766.9691,234.6072)"
       id="g20"
       style="stroke:#000000;stroke-width:0.999899;stroke-miterlimit:4;stroke-dasharray:none;stroke-opacity:1;paint-order:stroke fill markers;filter:url(#filter446)">
      <use
         href="#0"
         xlink:href="#0"
         fill="#02a556"
         id="use8"
         x="0"
         y="0"
         width="100%"
         height="100%"
         style="stroke:#000000;stroke-width:0.999899;stroke-miterlimit:4;stroke-dasharray:none;stroke-opacity:1;paint-order:stroke fill markers" />
      <use
         href="#2"
         xlink:href="#2"
         fill="#02a556"
         id="use10"
         x="0"
         y="0"
         width="100%"
         height="100%"
         style="stroke:#000000;stroke-width:0.999899;stroke-miterlimit:4;stroke-dasharray:none;stroke-opacity:1;paint-order:stroke fill markers" />
      <use
         href="#4"
         xlink:href="#4"
         fill="#02a556"
         id="use12"
         x="0"
         y="0"
         width="100%"
         height="100%"
         style="stroke:#000000;stroke-width:0.999899;stroke-miterlimit:4;stroke-dasharray:none;stroke-opacity:1;paint-order:stroke fill markers" />
      <use
         href="#6"
         xlink:href="#6"
         fill="#02a556"
         id="use14"
         x="0"
         y="0"
         width="100%"
         height="100%"
         style="stroke:#000000;stroke-width:0.999899;stroke-miterlimit:4;stroke-dasharray:none;stroke-opacity:1;paint-order:stroke fill markers" />
      <use
         href="#8"
         xlink:href="#8"
         fill="#02a556"
         id="use16"
         x="0"
         y="0"
         width="100%"
         height="100%"
         style="stroke:#000000;stroke-width:0.999899;stroke-miterlimit:4;stroke-dasharray:none;stroke-opacity:1;paint-order:stroke fill markers" />
      <use
         href="#10"
         xlink:href="#10"
         fill="#02a556"
         id="use18"
         x="0"
         y="0"
         width="100%"
         height="100%"
         style="stroke:#000000;stroke-width:0.999899;stroke-miterlimit:4;stroke-dasharray:none;stroke-opacity:1;paint-order:stroke fill markers" />
    </g>
    <g
       transform="translate(665.0502,234.6072)"
       id="g28"
       style="stroke:#000000;stroke-width:0.999899;stroke-miterlimit:4;stroke-dasharray:none;stroke-opacity:1;paint-order:stroke fill markers;filter:url(#filter434)">
      <use
         href="#12"
         xlink:href="#12"
         fill="#0069bf"
         id="use22"
         x="0"
         y="0"
         width="100%"
         height="100%"
         style="stroke:#000000;stroke-width:0.999899;stroke-miterlimit:4;stroke-dasharray:none;stroke-opacity:1;paint-order:stroke fill markers" />
      <use
         href="#14"
         xlink:href="#14"
         fill="#0069bf"
         id="use24"
         x="0"
         y="0"
         width="100%"
         height="100%"
         style="stroke:#000000;stroke-width:0.999899;stroke-miterlimit:4;stroke-dasharray:none;stroke-opacity:1;paint-order:stroke fill markers" />
      <use
         href="#16"
         xlink:href="#16"
         fill="#0069bf"
         id="use26"
         x="0"
         y="0"
         width="100%"
         height="100%"
         style="stroke:#000000;stroke-width:0.999899;stroke-miterlimit:4;stroke-dasharray:none;stroke-opacity:1;paint-order:stroke fill markers" />
    </g>
    <g
       transform="matrix(0.4097,0,0,0.4097,732.8833,244.8295)"
       id="g32"
       style="filter:url(#filter422)">
      <use
         href="#18"
         xlink:href="#18"
         fill="#d7f542"
         id="use30"
         x="0"
         y="0"
         width="100%"
         height="100%" />
    </g>
    <g
       transform="matrix(0.442,0,0,0.442,902.857,244.0936)"
       id="g36"
       style="filter:url(#filter410)">
      <use
         href="#20"
         xlink:href="#20"
         fill="#d7f542"
         id="use34"
         x="0"
         y="0"
         width="100%"
         height="100%" />
    </g>
    <g
       transform="translate(929.4571,231.4766)"
       id="g58"
       style="stroke-width:1.60468;stroke-miterlimit:4;stroke-dasharray:none;stroke-dashoffset:0;paint-order:stroke fill markers;filter:url(#filter398)"
       stroke="#000000">
      <use
         href="#22"
         xlink:href="#22"
         fill="#5b2d90"
         id="use38"
         x="0"
         y="0"
         width="100%"
         height="100%"
         style="stroke-width:1.60468;stroke-miterlimit:4;stroke-dasharray:none;stroke-dashoffset:0;paint-order:stroke fill markers" />
      <use
         href="#24"
         xlink:href="#24"
         fill="#5b2d90"
         id="use40"
         x="0"
         y="0"
         width="100%"
         height="100%"
         style="stroke-width:1.60468;stroke-miterlimit:4;stroke-dasharray:none;stroke-dashoffset:0;paint-order:stroke fill markers" />
      <use
         href="#26"
         xlink:href="#26"
         fill="#5b2d90"
         id="use42"
         x="0"
         y="0"
         width="100%"
         height="100%"
         style="stroke-width:1.60468;stroke-miterlimit:4;stroke-dasharray:none;stroke-dashoffset:0;paint-order:stroke fill markers" />
      <use
         href="#28"
         xlink:href="#28"
         fill="#5b2d90"
         id="use44"
         x="0"
         y="0"
         width="100%"
         height="100%"
         style="stroke-width:1.60468;stroke-miterlimit:4;stroke-dasharray:none;stroke-dashoffset:0;paint-order:stroke fill markers" />
      <use
         href="#30"
         xlink:href="#30"
         fill="#5b2d90"
         id="use46"
         x="0"
         y="0"
         width="100%"
         height="100%"
         style="stroke-width:1.60468;stroke-miterlimit:4;stroke-dasharray:none;stroke-dashoffset:0;paint-order:stroke fill markers" />
      <use
         href="#32"
         xlink:href="#32"
         fill="#5b2d90"
         id="use48"
         x="0"
         y="0"
         width="100%"
         height="100%"
         style="stroke-width:1.60468;stroke-miterlimit:4;stroke-dasharray:none;stroke-dashoffset:0;paint-order:stroke fill markers" />
      <use
         href="#34"
         xlink:href="#34"
         fill="#5b2d90"
         id="use50"
         x="0"
         y="0"
         width="100%"
         height="100%"
         style="stroke-width:1.60468;stroke-miterlimit:4;stroke-dasharray:none;stroke-dashoffset:0;paint-order:stroke fill markers" />
      <use
         href="#36"
         xlink:href="#36"
         fill="#5b2d90"
         id="use52"
         x="0"
         y="0"
         width="100%"
         height="100%"
         style="stroke-width:1.60468;stroke-miterlimit:4;stroke-dasharray:none;stroke-dashoffset:0;paint-order:stroke fill markers" />
      <use
         href="#38"
         xlink:href="#38"
         fill="#5b2d90"
         id="use54"
         x="0"
         y="0"
         width="100%"
         height="100%"
         style="stroke-width:1.60468;stroke-miterlimit:4;stroke-dasharray:none;stroke-dashoffset:0;paint-order:stroke fill markers" />
      <use
         href="#40"
         xlink:href="#40"
         fill="#5b2d90"
         id="use56"
         x="0"
         y="0"
         width="100%"
         height="100%"
         style="stroke-width:1.60468;stroke-miterlimit:4;stroke-dasharray:none;stroke-dashoffset:0;paint-order:stroke fill markers" />
    </g>
    <g
       transform="translate(864.7524,479.2992)"
       id="g68"
       style="filter:url(#filter386)">
      <rect
         style="mix-blend-mode:darken;fill:url(#linearGradient3225);fill-opacity:1;stroke:#000000;stroke-width:0.388582;stroke-miterlimit:4;stroke-dasharray:none;paint-order:stroke markers fill"
         id="rect1138"
         width="231.91231"
         height="159.49396"
         x="-118.274"
         y="-77.476997" />
      <path
         fill-mode="evenodd"
         fill="#d7f542"
         d="m 9.573,-81.964 9.631,0.354 9.638,-0.146 h 0.045 0.006 l 9.707,0.021 9.707,-0.014 h 0.005 0.038 l 9.708,0.133 9.708,0.105 v 0 h 0.032 l 9.71,0.235 h 0.001 0.015 l 9.667,0.314 9.675,-0.035 h 0.008 l 0.053,0.001 9.671,0.251 9.675,-0.126 h 0.026 l 1.357,0.562 0.563,1.358 -0.563,1.358 -1.357,0.562 h -0.025 l -9.676,-0.126 -9.668,0.251 -0.056,0.001 h -0.007 l -9.677,-0.035 -9.662,0.314 h -0.022 -0.001 l -9.703,0.235 h -0.037 -0.001 l -9.708,0.105 -9.704,0.133 -0.04,0.001 h -0.004 l -9.708,-0.014 -9.707,0.021 h -0.006 l -0.043,-0.001 -9.641,-0.146 -9.625,0.354 -0.116,0.003 -0.087,-0.002 -9.664,-0.278 -9.67,0.014 h -0.004 l -0.049,-0.001 -9.679,-0.171 -9.681,0.056 h -0.016 -0.025 l -9.713,-0.091 h -0.001 l -0.085,-0.002 -9.623,-0.424 -9.633,0.226 -0.057,0.001 -0.043,-0.001 -9.712,-0.178 v 0 l -9.71,-0.186 v 0 H -78 l -9.666,-0.244 -9.666,0.206 h -0.043 -0.02 l -9.679,-0.101 -9.671,0.244 -0.055,0.001 -1.474,-0.611 -0.611,-1.474 0.611,-1.474 1.474,-0.61 h 0.052 l 9.674,0.244 9.677,-0.101 h 0.022 l 0.041,10e-4 9.668,0.205 9.663,-0.244 h 0.015 v 0 l 9.707,-0.185 0.003,-0.001 v 0 l 9.707,-0.178 h 0.046 0.054 l 9.636,0.226 9.617,-0.423 0.093,-0.002 10e-4,-0.001 9.71,-0.091 h 0.026 0.015 l 9.682,0.056 9.677,-0.171 h 0.051 0.004 l 9.671,0.014 9.658,-0.279 0.092,-10e-4 z"
         id="path60" />
      <path
         fill-mode="evenodd"
         fill="#d7f542"
         d="m -112.787,-81.265 0.713,1.617 0.309,9.969 0.002,0.086 -10e-4,0.042 -0.159,9.921 0.311,9.911 v 0.01 0.001 l 0.288,9.97 0.001,0.09 -0.001,0.089 -0.299,9.943 -0.072,9.944 -0.023,9.971 0.004,9.973 0.047,9.976 v 0.013 l -0.001,0.076 -0.31,9.975 v 0 0.003 l -0.34,9.917 0.248,9.922 v 0.052 0 l -0.002,9.979 0.026,9.94 0.426,9.922 0.002,0.104 v 0.038 l -0.164,9.98 -0.633,1.477 -1.489,0.61 -1.485,-0.605 -0.638,-1.47 -0.228,-9.974 -0.001,-0.056 0.001,-0.084 0.362,-9.93 -0.04,-9.939 -0.067,-9.978 -0.001,-0.014 0.001,-0.037 0.183,-9.926 -0.404,-9.91 -10e-4,-0.01 v -0.001 l -0.375,-9.964 -0.002,-0.093 v 0 l -0.018,-9.976 -0.061,-9.974 -0.089,-9.971 -0.137,-9.944 -0.363,-9.934 -0.003,-0.114 10e-4,-0.066 0.223,-9.98 v 0 -0.003 l 0.246,-9.918 -0.224,-9.916 v -0.062 -0.065 l 0.244,-9.977 0.709,-1.624 1.644,-0.67 z"
         id="path62" />
      <path
         fill-mode="evenodd"
         fill="#d7f542"
         d="m 20.187,75.963 9.674,0.049 10e-4,0.001 0.072,10e-4 9.598,0.288 9.597,-0.205 0.065,-10e-4 0.053,10e-4 9.637,0.181 9.639,-0.063 h 0.019 v 0 h 0.008 l 9.674,0.028 v 0.001 h 0.06 l 9.622,0.244 9.625,-0.118 0.033,-0.001 0.029,0.001 9.674,0.108 h 0.001 l 0.045,0.001 9.669,0.294 1.494,0.66 0.615,1.518 -0.615,1.518 -1.497,0.66 -9.662,0.294 h -0.05 l -10e-4,0.001 -9.671,0.108 h -0.031 -0.032 l -9.626,-0.118 -9.618,0.243 -0.064,0.001 v 0 l -9.674,0.028 h -0.008 v 0 h -0.018 l -9.64,-0.062 -9.634,0.181 H 49.194 49.133 L 39.531,81.6 29.938,81.888 29.861,81.889 H 29.86 l -9.673,0.049 h -0.016 -0.005 l -9.674,-0.017 h -0.001 l -0.104,-0.002 -9.653,-0.36 -9.624,-0.275 -9.646,-0.046 v 0 h -0.011 l -9.642,-0.09 -9.637,0.181 h -0.047 l -0.092,-10e-4 -9.647,-0.374 -9.618,-0.233 -9.636,0.143 h -0.006 -0.001 l -9.671,0.115 h -0.025 -0.032 l -9.672,-0.15 -9.641,-0.129 -9.643,0.167 h -0.035 -0.016 l -9.675,-0.084 -1.284,-0.542 -0.531,-1.29 0.531,-1.29 1.285,-0.543 9.673,-0.084 h 0.017 l 0.033,10e-4 9.645,0.167 9.644,-0.129 v 0 l 9.667,-0.15 0.034,-0.001 0.024,0.001 9.674,0.115 v 0 h 0.004 l 9.637,0.143 9.62,-0.233 9.64,-0.374 0.097,-0.002 0.045,10e-4 9.64,0.181 9.64,-0.09 0.012,-0.001 v 0 l 9.646,-0.045 9.63,-0.275 9.641,-0.36 0.111,-0.002 v 0 l 9.674,-0.018 h 0.005 z"
         id="path64" />
      <path
         fill-mode="evenodd"
         fill="#d7f542"
         d="m 115.153,-81.528 0.541,1.234 0.258,9.472 0.359,9.459 10e-4,0.048 0.001,10e-4 0.177,9.465 0.331,9.451 0.001,0.032 v 10e-4 l 0.238,9.478 0.001,0.08 -0.001,0.069 -0.22,9.438 0.083,9.417 0.261,9.45 0.001,0.088 v 0 0.054 l -0.168,9.46 -0.008,9.463 v 0 0.029 l -0.105,9.471 0.003,9.472 v 10e-4 0.018 l -0.067,9.488 -0.001,0.001 -0.001,0.078 -0.362,9.424 0.065,9.437 v 0.016 l -0.002,0.092 -0.4,9.41 0.247,9.419 v 0.054 l -0.572,1.382 -1.383,0.573 -1.382,-0.573 -0.573,-1.382 0.001,-0.038 0.184,-9.424 -0.461,-9.401 -0.003,-0.112 v -10e-4 l 0.004,-9.439 -0.423,-9.415 -0.002,-0.084 -10e-4,-10e-4 -0.129,-9.485 v -0.021 0 l -0.059,-9.472 -0.167,-9.467 -0.001,-0.031 V 14.65 l -0.069,-9.463 -0.23,-9.455 -0.001,-0.077 0.001,-0.064 0.199,-9.457 0.022,-9.416 -0.282,-9.431 -10e-4,-0.094 v -0.056 l 0.176,-9.486 v -0.001 -0.024 l 0.27,-9.46 0.115,-9.466 0.001,-0.001 v -0.043 l 0.298,-9.468 0.196,-9.472 0.537,-1.24 1.253,-0.511 z"
         id="path66" />
    </g>
    <g
       transform="translate(823.1602,458.2531)"
       id="g78"
       style="filter:url(#filter374)">
      <use
         href="#42"
         xlink:href="#42"
         fill="#d7f542"
         id="use70"
         x="0"
         y="0"
         width="100%"
         height="100%" />
      <use
         href="#44"
         xlink:href="#44"
         fill="#d7f542"
         id="use72"
         x="0"
         y="0"
         width="100%"
         height="100%" />
      <use
         href="#46"
         xlink:href="#46"
         fill="#d7f542"
         id="use74"
         x="0"
         y="0"
         width="100%"
         height="100%" />
      <use
         href="#48"
         xlink:href="#48"
         fill="#d7f542"
         id="use76"
         x="0"
         y="0"
         width="100%"
         height="100%" />
    </g>
    <g
       transform="translate(742.3279,681.8489)"
       id="g98"
       style="stroke:#000000;stroke-width:0.999899;stroke-miterlimit:4;stroke-dasharray:none;stroke-opacity:1;paint-order:stroke fill markers;filter:url(#filter362)">
      <use
         href="#50"
         xlink:href="#50"
         fill="#f6630c"
         id="use80"
         x="0"
         y="0"
         width="100%"
         height="100%"
         style="stroke:#000000;stroke-width:0.999899;stroke-miterlimit:4;stroke-dasharray:none;stroke-opacity:1;paint-order:stroke fill markers" />
      <use
         href="#52"
         xlink:href="#52"
         fill="#f6630c"
         id="use82"
         x="0"
         y="0"
         width="100%"
         height="100%"
         style="stroke:#000000;stroke-width:0.999899;stroke-miterlimit:4;stroke-dasharray:none;stroke-opacity:1;paint-order:stroke fill markers" />
      <use
         href="#54"
         xlink:href="#54"
         fill="#f6630c"
         id="use84"
         x="0"
         y="0"
         width="100%"
         height="100%"
         style="stroke:#000000;stroke-width:0.999899;stroke-miterlimit:4;stroke-dasharray:none;stroke-opacity:1;paint-order:stroke fill markers" />
      <use
         href="#56"
         xlink:href="#56"
         fill="#f6630c"
         id="use86"
         x="0"
         y="0"
         width="100%"
         height="100%"
         style="stroke:#000000;stroke-width:0.999899;stroke-miterlimit:4;stroke-dasharray:none;stroke-opacity:1;paint-order:stroke fill markers" />
      <use
         href="#58"
         xlink:href="#58"
         fill="#f6630c"
         id="use88"
         x="0"
         y="0"
         width="100%"
         height="100%"
         style="stroke:#000000;stroke-width:0.999899;stroke-miterlimit:4;stroke-dasharray:none;stroke-opacity:1;paint-order:stroke fill markers" />
      <use
         href="#60"
         xlink:href="#60"
         fill="#f6630c"
         id="use90"
         x="0"
         y="0"
         width="100%"
         height="100%"
         style="stroke:#000000;stroke-width:0.999899;stroke-miterlimit:4;stroke-dasharray:none;stroke-opacity:1;paint-order:stroke fill markers" />
      <use
         href="#62"
         xlink:href="#62"
         fill="#f6630c"
         id="use92"
         x="0"
         y="0"
         width="100%"
         height="100%"
         style="stroke:#000000;stroke-width:0.999899;stroke-miterlimit:4;stroke-dasharray:none;stroke-opacity:1;paint-order:stroke fill markers" />
      <use
         href="#64"
         xlink:href="#64"
         fill="#f6630c"
         id="use94"
         x="0"
         y="0"
         width="100%"
         height="100%"
         style="stroke:#000000;stroke-width:0.999899;stroke-miterlimit:4;stroke-dasharray:none;stroke-opacity:1;paint-order:stroke fill markers" />
      <use
         href="#66"
         xlink:href="#66"
         fill="#f6630c"
         id="use96"
         x="0"
         y="0"
         width="100%"
         height="100%"
         style="stroke:#000000;stroke-width:0.999899;stroke-miterlimit:4;stroke-dasharray:none;stroke-opacity:1;paint-order:stroke fill markers" />
    </g>
    <g
       transform="translate(864.5163,564.1446)"
       id="g102"
       style="filter:url(#filter350)">
      <path
         fill-mode="evenodd"
         fill="#d7f542"
         d="m 1.192,-3.226 0.468,1.129 v 2.601 l 0.021,3.941 0.443,5.753 0.891,7.325 0.002,0.035 0.002,0.004 0.907,8.887 10e-4,0.031 0.002,0.004 0.787,9.255 0.99,8.793 10e-4,0.005 v 10e-4 l 0.925,8.121 0.004,0.067 0.003,0.006 0.528,6.954 0.657,5.598 0.653,4.597 10e-4,0.018 0.002,0.002 0.453,3.324 0.89,-0.319 0.252,-0.044 0.084,-0.052 1.19,-0.254 h 0.004 l 1.361,-0.31 0.298,-0.034 0.041,-0.02 1.132,-0.105 0.936,-0.295 0.082,-0.013 0.03,-0.02 1.38,-0.377 0.053,-0.007 0.015,-0.011 1.025,-0.256 0.41,-0.316 0.156,-0.053 0.158,-0.153 0.599,-0.334 0.534,-0.754 0.634,-0.928 0.238,-0.213 0.059,-0.144 0.19,-0.079 0.411,-0.368 1.207,-0.302 1.808,0.749 0.749,1.808 -0.064,0.217 -0.002,0.03 -10e-4,0.003 -0.002,0.049 -0.004,0.07 -0.005,0.191 -0.004,0.247 -0.01,0.023 v 0.123 l -0.489,1.474 -0.385,0.516 -0.429,0.36 -0.245,0.255 -0.431,0.267 -0.438,0.621 -1.486,2.915 -1.885,4.089 -10e-4,10e-4 -1.925,4.292 -1.624,4.204 -0.019,0.024 -0.009,0.042 -1.718,4.022 -0.006,0.007 -0.002,0.01 -1.195,2.689 -0.465,1.673 -0.022,0.032 -0.012,0.076 -0.298,0.894 -0.466,0.63 -0.143,0.344 -0.161,0.067 -0.143,0.193 -1.493,0.485 -1.798,-0.745 -0.744,-1.797 0.069,-0.59 0.218,-0.917 0.011,-0.017 0.006,-0.047 0.443,-1.62 -1.027,0.015 H 6.418 v 0 L 5.737,95.341 3.559,94.702 3.412,94.599 3.148,94.535 1.165,93.512 1.13,93.479 1.084,93.467 -1.149,92.186 v 0 l -2.138,-1.195 -0.101,-0.1 -0.108,-0.035 -1.975,-1.406 -0.024,-0.028 -0.025,-0.009 -1.779,-1.346 -0.151,-0.182 -0.105,-0.044 -0.984,-1 -0.913,-0.645 -0.09,-0.103 -0.079,-0.029 -0.567,-0.486 -0.48,-0.178 -0.077,-0.001 h -0.364 l -0.01,0.004 -1.712,-0.709 -0.709,-1.711 0.709,-1.712 1.712,-0.709 0.01,0.004 h 0.364 l 0.836,-0.004 0.978,-0.363 0.016,-0.003 0.006,-0.004 1.552,-0.572 2.084,-0.863 0.257,-0.052 0.106,-0.068 2.326,-0.578 1.954,-1.005 0.053,-0.013 0.033,-0.029 L 1.727,75.935 1.849,75.908 1.918,75.854 4.249,74.963 4.27,74.959 4.278,74.953 5.382,74.538 5.348,74.242 V 74.24 L 4.862,70.385 V 70.382 L 4.252,65.754 4.248,65.708 4.245,65.702 3.638,60.052 3.635,59.983 3.632,59.977 3.147,53.015 2.298,44.918 V 44.909 L 2.297,44.908 1.386,36.079 1.383,36.036 1.381,36.032 0.646,26.764 -0.223,17.899 -1.102,10.558 -1.106,10.486 -1.11,10.479 -1.55,4.638 -1.555,4.511 V 4.502 l 0.022,-3.998 v -2.601 l 0.468,-1.129 1.129,-0.467 z m 2.556,83.653 -2.166,1.02 -2.16,1.111 -0.379,0.093 -0.185,0.118 -2.427,0.582 -1.209,0.496 0.495,0.487 1.634,1.214 1.841,1.301 2.06,1.149 0.003,0.003 0.002,10e-4 2.191,1.246 1.715,0.885 1.622,0.478 0.878,0.013 L 7.443,89.229 7.075,87.516 7.059,87.363 7.045,87.337 6.796,85.288 6.425,83.193 6.424,83.186 V 83.185 L 5.981,80.719 5.965,80.543 5.955,80.523 5.885,79.624 Z m 11.225,-3.462 -0.073,0.036 -1.234,0.111 -1.218,0.278 -0.049,0.005 -0.012,0.008 -1.044,0.217 -1.6,0.571 H 9.739 l -0.23,0.085 0.158,1.858 0.428,2.381 10e-4,0.015 0.002,0.003 0.378,2.149 0.008,0.095 0.008,0.015 0.244,2.014 0.135,0.628 1.411,-3.625 0.031,-0.039 0.014,-0.066 1.979,-4.399 0.004,-0.004 v -0.003 l 1.11,-2.403 z"
         id="path100" />
    </g>
    <g
       transform="translate(629.6413,262.2696)"
       id="g106"
       style="filter:url(#filter338)">
      <path
         fill-mode="evenodd"
         fill="#d7f542"
         d="m 524.69,-7.959 0.032,0.057 0.053,0.022 0.111,0.267 0.292,0.515 0.528,3.185 0.025,0.291 -0.01,0.186 -0.439,4.033 -0.074,0.145 -0.123,0.511 -2.575,5.048 -0.165,0.179 -0.057,0.158 -4.883,5.987 -0.122,0.057 -0.058,0.135 -6.607,6.162 -0.073,0.029 -0.029,0.06 -7.493,6.098 -0.048,0.017 -0.017,0.034 -8.128,6.096 -0.088,0.029 -0.085,0.088 -8.37,5.028 -0.092,0.026 -0.069,0.062 -8.746,4.273 -0.128,0.03 -0.073,0.056 -8.815,3.243 -0.151,0.027 -0.058,0.038 -9.643,2.478 -0.137,0.017 -0.033,0.019 -9.455,1.65 -0.296,0.027 -0.011,0.005 -9.656,0.254 -0.056,0.001 h -18.617 l -0.109,-0.003 -9.409,-0.509 -0.005,-0.002 -0.069,-0.004 -9.476,-0.887 -0.009,-0.004 -0.066,-0.005 -9.86,-1.335 -10e-4,-10e-4 h -0.002 l -9.797,-1.398 -0.006,-0.003 -0.031,-0.003 -9.861,-1.649 -0.001,-10e-4 -9.897,-1.585 -0.002,-0.002 h -0.006 l -9.733,-1.655 -0.006,-0.004 -0.023,-0.002 -9.617,-1.837 -8.915,-1.27 -0.014,-0.008 -0.068,-0.007 -7.997,-1.523 -7.161,-1.191 -6.562,-0.75 -6.49,-0.379 h -15.925 l -4.459,0.121 -4.286,0.497 -0.097,0.006 -0.008,0.004 -3.743,0.254 h -0.001 l -3.329,0.248 -3.5,0.375 -2.813,0.385 -0.032,0.002 -0.004,0.002 -2.411,0.298 -2.149,0.702 -0.02,0.003 -0.006,0.005 -1.864,0.596 -1.693,0.882 -1.44,1.003 -1.317,1.172 -1.205,1.403 -1.158,1.45 -0.95,1.586 -0.496,1.509 -10e-4,0.002 -0.624,1.906 -0.049,0.066 -0.026,0.124 -0.888,1.986 -0.003,0.004 -0.001,0.002 -0.712,1.551 -0.6,1.807 -10e-4,10e-4 -0.489,1.529 -0.481,1.704 -0.002,1.294 -0.001,0.003 -0.089,0.603 -0.292,0.974 v 0.894 0.014 l -0.005,0.883 v 0.623 l 0.002,0.562 0.004,0.052 0.005,0.142 0.005,0.012 -0.625,1.507 -1.508,0.625 -0.134,-0.056 -0.145,-10e-4 -0.984,-0.418 -0.458,-0.19 -0.003,-0.006 -0.005,-0.002 -0.6,-1.459 0.137,-0.334 -0.015,-0.047 -0.343,-0.806 -0.046,-0.219 -0.056,-0.088 -0.25,-1.069 -0.004,-0.036 -0.006,-0.009 -0.243,-1.133 -0.004,-0.033 -0.004,-0.007 -0.208,-1.053 -0.533,-1.121 -0.021,-0.09 -0.039,-0.05 -0.627,-1.642 -0.07,-0.37 -0.041,-0.08 -0.16,-1.417 -0.552,-1.735 -0.017,-0.107 -0.022,-0.035 -0.492,-2.089 v -10e-4 l -0.612,-2.382 -0.001,-0.003 -0.607,-2.31 -0.733,-2.222 -0.027,-0.164 -0.03,-0.05 -0.338,-1.706 -0.731,-1.9 -0.002,-0.007 -0.001,-0.002 -0.57,-1.474 -0.009,-0.046 -0.016,-0.021 -0.413,-1.201 -0.635,-0.908 -0.799,-0.635 -2.131,-0.184 -3.803,0.013 -4.792,0.022 -5.436,0.265 -6.725,0.796 -7.501,1.586 -8.321,2.273 v 0 l -8.595,2.597 -0.003,10e-4 -8.818,2.728 -0.049,0.008 -0.017,0.011 -9.011,2.472 -0.017,0.003 -0.005,0.003 -9.011,2.412 -0.037,0.005 -0.011,0.007 -8.566,2.094 -0.011,0.002 -0.003,0.001 -8.373,2.038 -0.07,0.009 -0.018,0.01 -8.756,1.72 -0.028,0.002 -0.006,0.004 -8.376,1.527 h -10e-4 l -8.097,1.645 -0.137,0.015 -0.022,0.011 -8.316,0.952 h -0.002 l -8.112,1.015 -0.224,0.014 H 78.853 L 78.757,59.36 71.89,58.98 71.878,58.974 71.727,58.963 65.997,58.081 65.987,58.075 65.942,58.071 60.4,57.002 60.372,56.985 60.276,56.972 54.796,55.458 54.754,55.43 54.658,55.412 49.751,53.572 49.739,53.564 49.72,53.56 44.688,51.524 44.678,51.515 44.662,51.512 39.503,49.284 39.48,49.263 39.443,49.255 34.474,46.84 34.454,46.822 34.427,46.815 29.524,44.208 29.422,44.111 29.317,44.077 25.055,40.96 25.051,40.952 25.04,40.949 20.904,37.833 20.844,37.712 20.698,37.65 17.203,34.03 17.15,33.9 17.05,33.849 14.194,29.978 14.174,29.917 14.138,29.897 11.664,26.155 11.656,26.129 11.633,26.107 9.226,22.237 9.191,22.118 9.112,22.026 7.44,18.353 5.337,14.754 5.308,14.649 5.244,14.574 3.916,11.598 3.915,11.596 2.534,8.636 V 8.635 L 1.291,6.055 0.026,3.663 0.008,3.592 -0.031,3.545 -0.899,1.579 -0.9,1.571 -0.903,1.568 -1.518,0.173 l -0.146,-0.681 0.005,-0.127 0.049,-0.637 0.332,-0.686 0.136,-0.328 0.029,-0.012 0.014,-0.03 1.099,-0.431 1.099,0.431 0.014,0.03 0.029,0.012 0.141,0.34 0.328,0.679 0.025,0.329 0.517,1.104 0.003,0.012 0.005,0.006 0.877,1.895 1.334,2.311 0.017,0.063 0.041,0.045 1.279,2.588 0.006,0.027 0.014,0.015 1.397,2.974 0.006,0.026 0.012,0.014 1.297,2.899 2.11,3.587 0.026,0.096 0.061,0.07 1.677,3.645 2.348,3.762 2.437,3.687 2.761,3.742 3.313,3.436 4.011,3.025 4.14,3.028 4.758,2.536 4.888,2.386 5.1,2.203 4.981,2.019 4.786,1.81 5.32,1.499 5.426,1.073 5.592,0.878 6.726,0.375 h 21.891 l 8.018,-1.002 0.023,-0.002 0.003,-10e-4 8.251,-0.945 8.047,-1.635 0.038,-0.004 0.009,-0.005 8.377,-1.519 h 0.003 l 8.724,-1.701 8.333,-2.014 h 0.007 l 0.001,-10e-4 8.566,-2.094 h 10e-4 l 8.985,-2.405 0.003,-10e-4 9.005,-2.476 8.782,-2.717 0.019,-0.003 0.006,-0.005 8.631,-2.596 0.041,-0.006 0.014,-0.01 8.376,-2.281 0.092,-0.013 0.026,-0.015 7.618,-1.564 0.153,-0.016 0.023,-0.011 6.86,-0.714 0.1,-0.005 0.006,-0.003 5.525,-0.238 0.073,-0.001 h 0.008 l 4.828,0.021 3.875,0.014 h 0.001 l 0.158,0.008 2.673,0.278 0.339,0.173 0.486,0.175 1.327,1.093 0.099,0.21 0.183,0.095 0.886,1.266 0.057,0.182 0.123,0.156 0.511,1.33 0.659,1.359 0.012,0.05 0.024,0.029 0.86,2.007 0.048,0.229 0.054,0.089 0.378,1.748 0.734,2.18 0.012,0.073 0.019,0.027 0.649,2.334 0.003,0.02 0.004,0.005 0.646,2.399 0.005,0.033 0.006,0.01 0.505,2.02 0.63,1.806 0.053,0.304 0.036,0.069 0.175,1.371 0.023,0.06 0.058,-0.206 0.012,-0.018 0.007,-0.042 0.512,-1.604 0.003,-0.004 0.002,-0.006 0.641,-1.921 0.054,-0.073 0.029,-0.133 0.77,-1.663 0.001,-10e-4 0.842,-1.847 0.614,-1.813 0.001,-10e-4 0.577,-1.71 0.12,-0.162 0.065,-0.233 1.15,-1.914 0.118,-0.116 0.037,-0.106 1.276,-1.592 0.046,-0.022 0.022,-0.058 1.35,-1.515 0.134,-0.059 0.059,-0.13 1.533,-1.32 0.083,-0.031 0.096,-0.107 1.649,-1.135 0.125,-0.039 0.111,-0.102 1.963,-1.004 0.222,-0.054 0.122,-0.086 2.023,-0.619 h 0.003 l 2.32,-0.748 0.327,-0.053 0.067,-0.035 2.596,-0.312 h 0.003 l 2.837,-0.37 0.05,-0.003 0.006,-0.004 3.549,-0.38 0.064,-0.004 0.006,-0.003 3.361,-0.256 0.022,-0.001 0.002,-0.001 3.702,-0.251 4.326,-0.502 0.177,-0.01 0.007,-0.003 4.572,-0.13 0.06,-0.001 h 16.012 l 0.115,0.003 6.614,0.377 0.009,0.004 0.101,0.006 6.681,0.763 0.013,0.007 0.081,0.007 7.255,1.21 0.007,0.004 0.026,0.003 7.966,1.517 8.916,1.258 0.014,0.008 0.071,0.007 9.655,1.839 9.697,1.646 v 0 l 9.893,1.585 0.002,0.001 h 0.002 l 9.835,1.654 9.76,1.395 v 0 l 9.787,1.326 9.383,0.885 9.307,0.503 h 18.535 l 9.483,-0.25 9.246,-1.614 9.485,-2.431 8.646,-3.165 8.61,-4.155 8.228,-4.906 8.018,-6.014 7.416,-6.031 6.463,-6.028 4.696,-5.708 2.421,-4.588 0.74,-3.531 0.013,-1.748 -1.652,-0.16 -0.736,-0.371 -0.3,-0.775 0.3,-0.776 0.741,-0.371 2.953,-0.286 0.144,-0.007 z"
         id="path104" />
    </g>
    <g
       transform="translate(873.1413,362.3946)"
       id="g118"
       style="filter:url(#filter326)">
      <path
         fill-mode="evenodd"
         fill="#d7f542"
         d="m -21.084,-2.844 2.225,0.01 v 0 h 0.009 l 2.67,0.023 v 0 l 0.022,10e-4 2.607,0.048 10e-4,10e-4 h 0.048 l 2.605,0.104 0.002,0.002 0.046,10e-4 2.209,0.139 3.663,-0.034 H -4.956 0 l 0.17,0.007 4.9,0.385 0.005,0.002 0.049,0.003 5.019,0.539 4.488,0.43 0.009,0.005 0.062,0.004 4.072,0.55 0.002,0.001 0.009,0.001 3.185,0.465 0.026,0.013 0.114,0.013 2.36,0.53 0.202,0.126 0.36,0.098 1.137,0.667 0.237,0.239 0.15,0.063 0.065,0.154 0.247,0.251 0.266,0.989 v 0.48 l 0.014,0.477 0.001,0.06 -0.065,0.503 -0.237,0.909 -0.309,0.464 -0.135,0.354 -0.872,0.972 -0.126,0.056 -0.225,0.254 -1.497,1.043 -0.061,0.019 -0.054,0.055 -1.937,1.177 -0.108,0.031 -0.082,0.073 -2.83,1.363 -0.184,0.042 -0.099,0.072 -3.215,1.042 -10e-4,10e-4 -3.629,1.271 -0.397,0.069 -0.085,0.045 -4.434,0.532 -0.272,0.016 H 6.294 L 1.783,14.374 H 1.779 -3.24 l -4.892,0.003 h -10e-4 l -0.059,-0.001 -4.801,-0.126 -4.354,-0.002 v 0 l -0.208,-0.01 -4.138,-0.386 -0.014,-0.007 -0.103,-0.007 -3.38,-0.51 -10e-4,-10e-4 -3.241,-0.486 -0.069,-0.038 -0.27,-0.042 -2.313,-0.738 -0.249,-0.18 -0.317,-0.097 -1.367,-0.921 -0.177,-0.195 -0.128,-0.052 -0.081,-0.18 -0.357,-0.394 -0.227,-0.9 -0.05,-0.112 -0.037,-0.884 V 8.081 L -34.075,8.08 -34.102,7.195 -34.103,7.154 V 7.153 l -0.012,-0.76 V 6.354 l 0.318,-1.197 0.445,-0.777 0.002,-0.002 V 4.376 l 0.637,-1.094 0.026,-0.027 0.009,-0.031 0.887,-1.414 0.183,-0.172 0.052,-0.139 1.137,-1.281 0.124,-0.056 0.21,-0.255 1.575,-1.214 0.171,-0.058 0.175,-0.166 1.892,-1.013 1.164,-0.295 0.006,-0.002 1.97,-0.003 h 0.004 2.033 z m 11.973,4.626 -2.679,0.316 -1.58,0.931 -0.026,0.049 -0.313,0.186 -0.201,0.37 -0.345,0.224 -0.486,0.144 -0.483,-0.142 -0.354,-0.229 -0.203,-0.375 -0.31,-0.187 -0.259,-0.485 -0.134,-0.533 -2.365,0.021 h -0.011 v 0 l -2.223,0.01 h -0.012 -2.033 -0.004 l -1.354,-0.002 -1.199,0.637 -1.258,0.944 -0.86,0.942 -0.767,1.19 -0.621,1.044 -0.001,0.001 -0.115,0.195 -0.002,0.122 -10e-4,10e-4 v 0.035 l -0.018,0.579 0.048,0.037 1.755,0.609 3.053,0.499 3.269,0.494 3.96,0.361 4.28,-0.002 h 10e-4 v 0 l 0.059,10e-4 4.801,0.126 4.862,0.003 h 5.019 0.004 l 4.388,0.007 4.089,-0.444 3.445,-1.17 0.06,-0.01 0.024,-0.016 3.119,-0.947 2.67,-1.207 L 21.437,5.079 22.725,4.258 22.829,4.15 21.322,3.837 18.226,3.423 14.224,2.963 9.749,2.636 9.746,2.634 9.71,2.633 4.699,2.156 0.365,1.821 0,1.972 h -0.055 l -7.486,-0.209 -1.1,-0.01 z"
         id="path108" />
      <g
         transform="translate(-31.5,7.125)"
         id="g112">
        <path
           fill-mode="evenodd"
           fill="#d7f542"
           d="m 1.322,-1.527 0.002,0.005 0.005,0.002 0.17,0.41 0.354,0.835 0.007,0.618 0.042,1.36 0.465,2.431 0.685,3.031 0.915,3.423 10e-4,0.01 0.002,0.002 0.899,3.35 0.028,0.208 0.024,0.044 0.528,3.7 0.588,3.041 v 0.003 l 0.545,2.628 0.005,0.047 0.006,0.011 0.433,2.327 0.008,0.086 0.008,0.015 0.308,2.14 0.017,0.234 0.006,0.012 0.021,0.575 1.253,0.519 0.608,1.467 -0.037,0.392 -0.028,0.144 0.015,0.088 0.031,0.366 0.011,0.027 -0.666,1.627 -0.01,0.005 -0.004,0.009 -0.527,0.219 -1.074,0.461 -0.252,0.004 H 6.69 L 6.672,34.357 6.631,34.34 6.592,34.339 6.334,34.33 6.316,34.322 6.018,34.32 4.922,33.859 4.413,33.648 4.411,33.643 4.406,33.642 4.18,33.092 4.124,33.041 3.622,32.285 3.521,31.953 3.341,31.701 2.981,30.568 2.869,29.864 2.871,29.779 2.915,28.59 2.734,26.615 2.418,24.338 1.962,21.717 1.961,21.707 1.96,21.705 1.419,18.599 1.411,18.511 1.403,18.496 0.937,14.87 0.096,11.638 0.091,11.601 0.084,11.591 -0.761,8.1 -0.773,8.001 -0.787,7.977 -1.355,4.864 -1.361,4.804 -1.367,4.793 -1.758,2.19 -1.78,1.906 -1.779,1.85 l 0.046,-1.508 0.007,-0.618 0.361,-0.848 0.163,-0.396 0.005,-0.002 0.002,-0.005 1.259,-0.517 z"
           id="path110" />
      </g>
      <g
         transform="translate(25.125,5.375)"
         id="g116">
        <path
           fill-mode="evenodd"
           fill="#d7f542"
           d="m 1.525,-2.017 0.019,0.038 0.038,0.016 0.187,0.453 0.436,0.905 0.06,0.814 0.004,0.09 L 2.271,0.303 2.333,2.076 2.335,2.16 2.327,2.349 2.099,5.092 2.094,5.101 2.089,5.178 l -0.481,3.85 -0.349,3.719 -0.015,0.03 -0.021,0.21 -0.835,4.1 -0.568,3.543 -0.412,3.209 -0.004,0.007 -0.003,0.037 -0.363,2.385 -0.225,1.901 0.001,1.12 0.002,0.989 0.006,0.287 10e-4,0.061 -0.735,1.774 -1.773,0.735 -1.774,-0.735 -0.289,-0.697 -0.096,-0.105 -0.085,-0.331 -0.265,-0.641 0.001,-0.058 0.007,-0.291 0.001,-0.989 10e-4,-1.27 0.001,-0.001 0.018,-0.304 0.262,-2.108 0.006,-0.013 0.006,-0.07 0.394,-2.411 0.468,-3.209 0.009,-0.016 0.007,-0.076 0.691,-3.627 0.009,-0.015 0.005,-0.051 0.906,-3.993 0.397,-3.619 0.003,-0.007 0.003,-0.045 0.527,-3.841 0.268,-2.61 0.061,-1.703 10e-4,-0.004 0.003,-0.078 0.062,-0.829 0.441,-0.914 0.181,-0.437 0.038,-0.015 0.019,-0.039 1.462,-0.575 z"
           id="path114" />
      </g>
    </g>
  </g>
  <defs
     id="defs190">
    <linearGradient
       inkscape:collect="always"
       id="linearGradient3223">
      <stop
         style="stop-color:#000000;stop-opacity:1;"
         offset="0"
         id="stop3219" />
      <stop
         style="stop-color:#000000;stop-opacity:0;"
         offset="1"
         id="stop3221" />
    </linearGradient>
    <path
       id="1"
       d="m 18.35,-6.29 c 0,1.2 -0.39,2.38 -1.19,3.54 -0.8,1.15 -1.91,2.08 -3.33,2.8 C 12.42,0.76 10.81,1.12 9,1.12 7.49,1.12 6.26,0.99 5.3,0.73 4.35,0.46 3.87,0.03 3.87,-0.58 c 0,-0.28 0.19,-0.72 0.56,-1.33 0.38,-0.61 0.72,-0.91 1.04,-0.91 0.5,0 0.75,0.16 0.75,0.47 0,0.16 -0.04,0.28 -0.12,0.37 -0.08,0.09 -0.12,0.14 -0.12,0.14 0,-0.05 0.1,-0.02 0.31,0.08 0.21,0.1 0.59,0.2 1.15,0.31 0.55,0.1 1.24,0.16 2.07,0.16 1.28,0 2.4,-0.25 3.36,-0.74 0.95,-0.5 1.69,-1.12 2.2,-1.86 0.51,-0.75 0.77,-1.47 0.77,-2.16 0,-0.86 -0.44,-1.62 -1.32,-2.27 -0.88,-0.66 -2.29,-1.3 -4.22,-1.91 -2.17,-0.68 -3.8,-1.24 -4.92,-1.69 -1.11,-0.45 -2.03,-1.02 -2.76,-1.71 -0.73,-0.69 -1.1,-1.56 -1.1,-2.59 0,-1.33 0.73,-2.63 2.19,-3.88 1.46,-1.26 3.24,-2.28 5.34,-3.05 2.1,-0.77 4.05,-1.16 5.87,-1.16 1.09,0 1.69,0.27 1.79,0.8 0.08,0.4 0.11,0.82 0.11,1.27 0,0.57 -0.23,0.85 -0.71,0.85 -0.18,0 -0.35,-0.04 -0.52,-0.13 -0.17,-0.09 -0.3,-0.16 -0.39,-0.19 -0.09,-0.03 -0.23,-0.07 -0.41,-0.12 -0.18,-0.04 -0.42,-0.07 -0.72,-0.07 -1.13,0 -2.51,0.3 -4.13,0.91 -1.63,0.6 -3.02,1.33 -4.17,2.19 -1.15,0.86 -1.73,1.65 -1.73,2.38 0,0.6 0.25,1.13 0.76,1.58 0.5,0.45 1.2,0.85 2.09,1.18 0.89,0.34 2.23,0.78 4.01,1.33 2.47,0.72 4.33,1.55 5.58,2.51 1.25,0.95 1.87,2.13 1.87,3.53 z" />
    <use
       id="0"
       href="#1"
       xlink:href="#1"
       transform="translate(0,30.94)"
       x="0"
       y="0"
       width="100%"
       height="100%" />
    <path
       id="3"
       d="m 20.33,-22.03 c 0,0.41 -0.25,0.74 -0.74,1 -0.65,0.36 -1.63,0.74 -2.94,1.12 -1.3,0.39 -2.39,0.66 -3.27,0.83 -1.34,0.25 -2.66,0.45 -3.98,0.6 -1.31,0.15 -2.07,0.23 -2.27,0.24 0.02,1.09 0.06,2.34 0.1,3.73 0.05,1.39 0.08,2.24 0.09,2.54 0.66,-0.09 1.9,-0.3 3.72,-0.64 l 1.07,-0.15 c 1.43,-0.25 2.51,-0.69 3.25,-1.32 0.46,-0.36 0.82,-0.54 1.09,-0.54 0.29,0 0.51,0.13 0.66,0.38 0.15,0.25 0.22,0.48 0.22,0.71 0,0.54 -0.49,1.08 -1.48,1.61 -0.99,0.52 -2.04,0.9 -3.14,1.12 -0.99,0.22 -2.06,0.42 -3.2,0.6 -1.14,0.18 -1.81,0.28 -2,0.3 0.13,3.64 0.5,6.34 1.12,8.11 0.53,0.18 1.1,0.32 1.71,0.42 0.62,0.1 1.42,0.15 2.4,0.15 0.97,0 1.89,-0.13 2.76,-0.38 0.86,-0.25 1.55,-0.54 2.04,-0.89 0.5,-0.34 0.75,-0.64 0.75,-0.88 0,-0.13 -0.03,-0.26 -0.09,-0.41 -0.06,-0.14 -0.14,-0.29 -0.24,-0.45 -0.07,-0.11 -0.15,-0.24 -0.26,-0.39 -0.11,-0.15 -0.16,-0.31 -0.16,-0.48 0,-0.43 0.36,-0.65 1.09,-0.65 0.47,0 0.86,0.19 1.18,0.57 0.32,0.37 0.48,0.78 0.48,1.2 0,0.82 -0.34,1.6 -1.04,2.36 -0.69,0.75 -1.62,1.36 -2.78,1.82 C 15.3,0.65 14.01,0.88 12.61,0.88 11.19,0.88 10.02,0.81 9.1,0.65 8.18,0.5 7.47,0.19 6.98,-0.28 6.37,-0.97 5.95,-2.09 5.73,-3.63 5.51,-5.18 5.33,-7.13 5.19,-9.49 4.99,-9.37 4.63,-9.28 4.1,-9.2 3.57,-9.12 3.15,-9.08 2.85,-9.08 2.48,-9.08 2.18,-9.19 1.94,-9.43 1.71,-9.66 1.59,-9.95 1.59,-10.3 c 0,-0.21 0.05,-0.4 0.13,-0.58 0.09,-0.17 0.26,-0.29 0.5,-0.33 0.74,-0.09 1.28,-0.15 1.62,-0.17 l 1.19,-0.14 c -0.09,-2.71 -0.18,-4.89 -0.26,-6.53 -0.1,0 -0.25,0.01 -0.45,0.03 l -1.6,0.03 c -0.31,0 -0.55,-0.08 -0.73,-0.26 -0.17,-0.18 -0.26,-0.38 -0.26,-0.62 0,-0.7 0.45,-1.16 1.34,-1.38 0.26,-0.05 0.62,-0.1 1.07,-0.16 0.45,-0.06 0.69,-0.09 0.73,-0.09 0.43,-0.48 0.96,-0.72 1.58,-0.72 0.25,0 0.42,0.12 0.51,0.36 0.09,0.24 0.14,0.29 0.14,0.15 1.23,-0.04 2.88,-0.19 4.95,-0.47 1.34,-0.18 3.41,-0.6 6.22,-1.27 l 1.35,-0.3 c 0.47,0 0.71,0.24 0.71,0.72 z" />
    <use
       id="2"
       href="#3"
       xlink:href="#3"
       transform="translate(19.98,30.94)"
       x="0"
       y="0"
       width="100%"
       height="100%" />
    <path
       id="5"
       d="m 20.53,-6.43 c 0,0.3 -0.22,0.76 -0.65,1.39 -1,1.35 -2.32,2.65 -3.97,3.89 C 14.26,0.09 12.44,0.71 10.43,0.71 8.3,0.71 6.56,0.1 5.2,-1.13 3.84,-2.36 3.16,-4.17 3.16,-6.56 c 0,-1.59 0.27,-3.39 0.82,-5.38 0.55,-1.99 1.19,-3.72 1.93,-5.19 0.76,-1.49 1.65,-2.75 2.69,-3.78 1.03,-1.02 2.1,-1.53 3.19,-1.53 1.09,0 1.93,0.39 2.52,1.16 0.59,0.78 0.88,1.72 0.88,2.82 0,0.42 -0.08,0.84 -0.24,1.28 -0.16,0.44 -0.35,0.82 -0.57,1.15 -0.22,0.33 -0.44,0.49 -0.65,0.49 -0.41,0 -0.61,-0.21 -0.61,-0.64 0,-0.1 0.04,-0.27 0.12,-0.51 0.08,-0.24 0.12,-0.42 0.12,-0.55 0,-0.53 -0.07,-1.03 -0.2,-1.51 -0.09,-0.36 -0.28,-0.65 -0.56,-0.89 -0.29,-0.23 -0.59,-0.35 -0.91,-0.35 -1.49,0 -2.91,1.51 -4.28,4.53 -0.56,1.24 -1.03,2.65 -1.41,4.21 -0.38,1.57 -0.57,3.07 -0.57,4.52 0,0.98 0.2,1.87 0.6,2.66 0.4,0.79 0.96,1.42 1.68,1.88 0.72,0.46 1.57,0.69 2.55,0.69 1.59,0 3.04,-0.38 4.34,-1.15 1.31,-0.77 2.62,-1.77 3.92,-3.01 0.02,-0.01 0.17,-0.28 0.47,-0.79 0.3,-0.5 0.59,-0.76 0.86,-0.76 0.26,0 0.44,0.07 0.54,0.22 0.09,0.14 0.14,0.33 0.14,0.56 z" />
    <use
       id="4"
       href="#5"
       xlink:href="#5"
       transform="translate(41.388,30.94)"
       x="0"
       y="0"
       width="100%"
       height="100%" />
    <path
       id="7"
       d="m 22.54,-2.86 c 0,0.34 -0.14,0.74 -0.42,1.21 -0.27,0.46 -0.6,0.7 -0.98,0.7 -0.27,0 -0.52,-0.05 -0.75,-0.13 C 20.16,-1.17 19.8,-1.35 19.3,-1.63 17.95,-2.42 16.14,-3.21 13.86,-3.99 12.83,-4.33 11.64,-4.69 10.28,-5.06 8.92,-5.43 7.96,-5.7 7.41,-5.88 l 0.23,4.03 c 0.02,0.59 0.1,1.1 0.24,1.53 0.14,0.42 0.21,0.7 0.21,0.83 0,0.37 -0.17,0.67 -0.5,0.89 C 7.27,1.62 6.93,1.73 6.59,1.73 6.06,1.73 5.73,1.39 5.6,0.72 5.6,0.68 5.58,0.48 5.52,0.12 5.46,-0.24 5.43,-0.77 5.43,-1.46 5.43,-1.87 5.39,-2.78 5.3,-4.16 5.28,-4.66 5.25,-5.13 5.23,-5.57 5.21,-6.01 5.2,-6.36 5.2,-6.62 5.17,-6.64 5.11,-6.7 5,-6.8 4.9,-6.89 4.8,-7.04 4.7,-7.26 4.63,-7.48 4.57,-7.71 4.52,-7.95 4.47,-8.2 4.45,-8.39 4.45,-8.53 c 0,-0.24 0.06,-0.42 0.19,-0.55 0.12,-0.12 0.24,-0.22 0.35,-0.29 -0.13,-5.56 -0.2,-8.75 -0.2,-9.57 0,-0.73 0.01,-1.4 0.03,-2.02 0.02,-0.61 0.04,-0.9 0.04,-0.87 0.15,0.02 -0.12,0.08 -0.82,0.17 -0.69,0.09 -1.2,0.17 -1.54,0.25 -1.49,0.35 -2.61,0.67 -3.35,0.97 -0.74,0.3 -1.46,0.64 -2.15,1.02 -0.21,0.14 -0.43,0.26 -0.65,0.35 -0.22,0.09 -0.44,0.13 -0.67,0.13 -0.29,0 -0.54,-0.12 -0.73,-0.36 -0.2,-0.25 -0.29,-0.53 -0.29,-0.86 0,-0.57 0.76,-1.15 2.29,-1.74 1.52,-0.6 3.15,-1.08 4.87,-1.45 0.96,-0.2 2.19,-0.38 3.69,-0.53 1.5,-0.15 2.88,-0.23 4.14,-0.23 2.21,0 4.11,0.25 5.69,0.74 1.57,0.49 2.78,1.19 3.61,2.11 0.83,0.91 1.24,1.96 1.24,3.14 0,1.5 -0.43,2.79 -1.29,3.86 -0.85,1.07 -1.97,1.99 -3.35,2.76 -1.38,0.76 -3.23,1.62 -5.55,2.58 -0.56,0.26 -1.14,0.5 -1.73,0.73 -0.59,0.24 -0.91,0.36 -0.97,0.39 0,-0.04 -0.01,-0.09 -0.04,-0.17 2.35,0.52 4.7,1.13 7.07,1.83 l 0.81,0.23 c 2.42,0.73 4.26,1.32 5.51,1.77 1.26,0.45 1.89,0.87 1.89,1.28 z m -4.73,-15.26 c 0,-0.65 -0.3,-1.26 -0.91,-1.85 -0.6,-0.58 -1.55,-1.07 -2.83,-1.45 -1.29,-0.39 -2.85,-0.58 -4.69,-0.58 -1.38,0 -2.17,0.01 -2.36,0.04 0,0 -0.01,0.27 -0.04,0.81 -0.03,0.54 -0.05,1.2 -0.05,1.98 l 0.13,5.22 0.13,3.89 c -0.06,0 0.2,-0.09 0.77,-0.27 0.58,-0.19 1.08,-0.37 1.49,-0.56 2.84,-1.14 4.94,-2.27 6.31,-3.4 1.37,-1.12 2.05,-2.4 2.05,-3.83 z" />
    <use
       id="6"
       href="#7"
       xlink:href="#7"
       transform="translate(61.3,30.94)"
       x="0"
       y="0"
       width="100%"
       height="100%" />
    <path
       id="9"
       d="m 20.33,-22.03 c 0,0.41 -0.25,0.74 -0.74,1 -0.65,0.36 -1.63,0.74 -2.94,1.12 -1.3,0.39 -2.39,0.66 -3.27,0.83 -1.34,0.25 -2.66,0.45 -3.98,0.6 -1.31,0.15 -2.07,0.23 -2.27,0.24 0.02,1.09 0.06,2.34 0.1,3.73 0.05,1.39 0.08,2.24 0.09,2.54 0.66,-0.09 1.9,-0.3 3.72,-0.64 l 1.07,-0.15 c 1.43,-0.25 2.51,-0.69 3.25,-1.32 0.46,-0.36 0.82,-0.54 1.09,-0.54 0.29,0 0.51,0.13 0.66,0.38 0.15,0.25 0.22,0.48 0.22,0.71 0,0.54 -0.49,1.08 -1.48,1.61 -0.99,0.52 -2.04,0.9 -3.14,1.12 -0.99,0.22 -2.06,0.42 -3.2,0.6 -1.14,0.18 -1.81,0.28 -2,0.3 0.13,3.64 0.5,6.34 1.12,8.11 0.53,0.18 1.1,0.32 1.71,0.42 0.62,0.1 1.42,0.15 2.4,0.15 0.97,0 1.89,-0.13 2.76,-0.38 0.86,-0.25 1.55,-0.54 2.04,-0.89 0.5,-0.34 0.75,-0.64 0.75,-0.88 0,-0.13 -0.03,-0.26 -0.09,-0.41 -0.06,-0.14 -0.14,-0.29 -0.24,-0.45 -0.07,-0.11 -0.15,-0.24 -0.26,-0.39 -0.11,-0.15 -0.16,-0.31 -0.16,-0.48 0,-0.43 0.36,-0.65 1.09,-0.65 0.47,0 0.86,0.19 1.18,0.57 0.32,0.37 0.48,0.78 0.48,1.2 0,0.82 -0.34,1.6 -1.04,2.36 -0.69,0.75 -1.62,1.36 -2.78,1.82 C 15.3,0.65 14.01,0.88 12.61,0.88 11.19,0.88 10.02,0.81 9.1,0.65 8.18,0.5 7.47,0.19 6.98,-0.28 6.37,-0.97 5.95,-2.09 5.73,-3.63 5.51,-5.18 5.33,-7.13 5.19,-9.49 4.99,-9.37 4.63,-9.28 4.1,-9.2 3.57,-9.12 3.15,-9.08 2.85,-9.08 2.48,-9.08 2.18,-9.19 1.94,-9.43 1.71,-9.66 1.59,-9.95 1.59,-10.3 c 0,-0.21 0.05,-0.4 0.13,-0.58 0.09,-0.17 0.26,-0.29 0.5,-0.33 0.74,-0.09 1.28,-0.15 1.62,-0.17 l 1.19,-0.14 c -0.09,-2.71 -0.18,-4.89 -0.26,-6.53 -0.1,0 -0.25,0.01 -0.45,0.03 l -1.6,0.03 c -0.31,0 -0.55,-0.08 -0.73,-0.26 -0.17,-0.18 -0.26,-0.38 -0.26,-0.62 0,-0.7 0.45,-1.16 1.34,-1.38 0.26,-0.05 0.62,-0.1 1.07,-0.16 0.45,-0.06 0.69,-0.09 0.73,-0.09 0.43,-0.48 0.96,-0.72 1.58,-0.72 0.25,0 0.42,0.12 0.51,0.36 0.09,0.24 0.14,0.29 0.14,0.15 1.23,-0.04 2.88,-0.19 4.95,-0.47 1.34,-0.18 3.41,-0.6 6.22,-1.27 l 1.35,-0.3 c 0.47,0 0.71,0.24 0.71,0.72 z" />
    <use
       id="8"
       href="#9"
       xlink:href="#9"
       transform="translate(83.83,30.94)"
       x="0"
       y="0"
       width="100%"
       height="100%" />
    <path
       id="11"
       d="m 24.27,-21.11 c 0,0.26 -0.11,0.52 -0.33,0.79 -0.22,0.26 -0.5,0.4 -0.86,0.4 -0.12,0 -0.37,-0.07 -0.77,-0.19 -0.4,-0.13 -0.74,-0.19 -1.03,-0.19 -1.07,0 -2.29,0.06 -3.66,0.17 -1.37,0.11 -2.42,0.25 -3.14,0.41 0.06,0.89 0.12,2.55 0.18,4.98 0.06,2.43 0.09,4.86 0.09,7.29 0,0.96 -0.02,2.15 -0.05,3.57 -0.04,1.42 -0.1,2.32 -0.18,2.68 -0.05,0.31 -0.24,0.56 -0.57,0.76 -0.33,0.2 -0.67,0.3 -1,0.3 -0.27,0 -0.49,-0.1 -0.66,-0.31 -0.17,-0.2 -0.26,-0.44 -0.26,-0.71 l 0.04,-1.22 c 0.13,-1.76 0.2,-3.92 0.2,-6.49 0,-1.86 -0.02,-3.97 -0.07,-6.35 -0.04,-2.38 -0.08,-3.76 -0.11,-4.13 -4.28,0.5 -7.17,0.96 -8.67,1.39 -0.29,0.09 -0.63,0.14 -1.01,0.14 -0.49,0 -0.96,-0.17 -1.42,-0.52 -0.46,-0.35 -0.69,-0.76 -0.69,-1.21 0,-0.32 0.1,-0.56 0.31,-0.72 0.21,-0.15 0.48,-0.23 0.81,-0.23 1.22,-0.07 2.26,-0.13 3.13,-0.2 2.01,-0.18 4.46,-0.45 7.34,-0.81 0,-0.55 0.03,-1.02 0.07,-1.41 0.05,-0.38 0.23,-0.57 0.55,-0.57 0.53,0 0.99,0.2 1.39,0.6 0.12,0.12 0.21,0.34 0.26,0.67 0.05,0.32 0.08,0.42 0.08,0.29 0.24,0 0.97,-0.11 2.17,-0.34 2.39,-0.36 4.05,-0.54 4.97,-0.54 1.17,0 1.96,0.15 2.38,0.47 0.34,0.25 0.51,0.66 0.51,1.23 z" />
    <use
       id="10"
       href="#11"
       xlink:href="#11"
       transform="translate(105.238,30.94)"
       x="0"
       y="0"
       width="100%"
       height="100%" />
    <path
       id="13"
       d="m 21.18,-3.3 c 0,0.35 -0.1,0.69 -0.28,1 -0.19,0.31 -0.43,0.46 -0.71,0.46 -1.17,0 -3.54,-0.76 -7.12,-2.27 L 11.94,-4.59 C 10.74,-5.1 9.78,-5.48 9.06,-5.76 8.35,-6.03 7.81,-6.25 7.44,-6.43 7.44,-3.84 7.37,-1.96 7.23,-0.79 6.93,0.3 6.49,0.85 5.91,0.85 5.63,0.85 5.37,0.77 5.12,0.6 4.88,0.44 4.75,0.2 4.75,-0.1 c 0,-0.43 0.04,-0.99 0.11,-1.69 0.13,-1.45 0.2,-2.69 0.2,-3.72 V -6.75 C 4.9,-6.86 4.76,-7 4.62,-7.17 4.48,-7.34 4.41,-7.54 4.41,-7.79 c 0,-0.26 0.08,-0.49 0.23,-0.7 0.14,-0.2 0.3,-0.37 0.45,-0.52 0.16,-0.14 0.25,-0.23 0.28,-0.27 0.02,-0.42 0.03,-1.21 0.03,-2.38 0,-2.91 -0.41,-5.97 -1.24,-9.21 l -0.15,-0.78 c 0,-0.44 0.16,-0.78 0.5,-1.02 0.34,-0.23 0.71,-0.35 1.13,-0.35 0.42,0 0.78,0.53 1.06,1.6 0.28,1.06 0.51,2.35 0.67,3.88 0.16,1.53 0.24,3.05 0.24,4.55 v 1.94 c -0.14,-0.11 0.36,-0.81 1.49,-2.09 1.13,-1.28 2.29,-2.59 3.49,-3.93 1.65,-1.98 2.96,-3.8 3.94,-5.46 0.24,-0.44 0.56,-1.06 0.97,-1.87 0.35,-0.73 0.65,-1.1 0.89,-1.1 0.47,0 0.71,0.37 0.71,1.12 0,0.69 -0.11,1.35 -0.32,1.98 -0.21,0.63 -0.52,1.3 -0.92,2 -0.63,1.12 -1.37,2.22 -2.21,3.31 -0.84,1.1 -1.97,2.36 -3.39,3.8 -0.33,0.43 -0.68,0.83 -1.04,1.19 -0.36,0.36 -0.67,0.68 -0.94,0.97 -1.21,1.21 -2.12,2.08 -2.74,2.62 0.08,-0.04 0.69,0.15 1.85,0.57 1.15,0.42 2.6,0.93 4.34,1.52 1.19,0.42 2.18,0.76 2.98,1.01 0.8,0.26 1.47,0.48 2.02,0.67 0.03,0.01 0.16,0.05 0.4,0.12 0.23,0.08 0.5,0.17 0.82,0.27 0.82,0.27 1.23,0.62 1.23,1.05 z" />
    <use
       id="12"
       href="#13"
       xlink:href="#13"
       transform="translate(0,30.94)"
       x="0"
       y="0"
       width="100%"
       height="100%" />
    <path
       id="15"
       d="m 20.33,-22.03 c 0,0.41 -0.25,0.74 -0.74,1 -0.65,0.36 -1.63,0.74 -2.94,1.12 -1.3,0.39 -2.39,0.66 -3.27,0.83 -1.34,0.25 -2.66,0.45 -3.98,0.6 -1.31,0.15 -2.07,0.23 -2.27,0.24 0.02,1.09 0.06,2.34 0.1,3.73 0.05,1.39 0.08,2.24 0.09,2.54 0.66,-0.09 1.9,-0.3 3.72,-0.64 l 1.07,-0.15 c 1.43,-0.25 2.51,-0.69 3.25,-1.32 0.46,-0.36 0.82,-0.54 1.09,-0.54 0.29,0 0.51,0.13 0.66,0.38 0.15,0.25 0.22,0.48 0.22,0.71 0,0.54 -0.49,1.08 -1.48,1.61 -0.99,0.52 -2.04,0.9 -3.14,1.12 -0.99,0.22 -2.06,0.42 -3.2,0.6 -1.14,0.18 -1.81,0.28 -2,0.3 0.13,3.64 0.5,6.34 1.12,8.11 0.53,0.18 1.1,0.32 1.71,0.42 0.62,0.1 1.42,0.15 2.4,0.15 0.97,0 1.89,-0.13 2.76,-0.38 0.86,-0.25 1.55,-0.54 2.04,-0.89 0.5,-0.34 0.75,-0.64 0.75,-0.88 0,-0.13 -0.03,-0.26 -0.09,-0.41 -0.06,-0.14 -0.14,-0.29 -0.24,-0.45 -0.07,-0.11 -0.15,-0.24 -0.26,-0.39 -0.11,-0.15 -0.16,-0.31 -0.16,-0.48 0,-0.43 0.36,-0.65 1.09,-0.65 0.47,0 0.86,0.19 1.18,0.57 0.32,0.37 0.48,0.78 0.48,1.2 0,0.82 -0.34,1.6 -1.04,2.36 -0.69,0.75 -1.62,1.36 -2.78,1.82 C 15.3,0.65 14.01,0.88 12.61,0.88 11.19,0.88 10.02,0.81 9.1,0.65 8.18,0.5 7.47,0.19 6.98,-0.28 6.37,-0.97 5.95,-2.09 5.73,-3.63 5.51,-5.18 5.33,-7.13 5.19,-9.49 4.99,-9.37 4.63,-9.28 4.1,-9.2 3.57,-9.12 3.15,-9.08 2.85,-9.08 2.48,-9.08 2.18,-9.19 1.94,-9.43 1.71,-9.66 1.59,-9.95 1.59,-10.3 c 0,-0.21 0.05,-0.4 0.13,-0.58 0.09,-0.17 0.26,-0.29 0.5,-0.33 0.74,-0.09 1.28,-0.15 1.62,-0.17 l 1.19,-0.14 c -0.09,-2.71 -0.18,-4.89 -0.26,-6.53 -0.1,0 -0.25,0.01 -0.45,0.03 l -1.6,0.03 c -0.31,0 -0.55,-0.08 -0.73,-0.26 -0.17,-0.18 -0.26,-0.38 -0.26,-0.62 0,-0.7 0.45,-1.16 1.34,-1.38 0.26,-0.05 0.62,-0.1 1.07,-0.16 0.45,-0.06 0.69,-0.09 0.73,-0.09 0.43,-0.48 0.96,-0.72 1.58,-0.72 0.25,0 0.42,0.12 0.51,0.36 0.09,0.24 0.14,0.29 0.14,0.15 1.23,-0.04 2.88,-0.19 4.95,-0.47 1.34,-0.18 3.41,-0.6 6.22,-1.27 l 1.35,-0.3 c 0.47,0 0.71,0.24 0.71,0.72 z" />
    <use
       id="14"
       href="#15"
       xlink:href="#15"
       transform="translate(20.83,30.94)"
       x="0"
       y="0"
       width="100%"
       height="100%" />
    <path
       id="17"
       d="m 16.45,-22.17 c 0,0.42 -0.07,0.85 -0.2,1.27 -0.14,0.42 -0.37,1.08 -0.71,1.97 -0.24,0.58 -0.56,1.43 -0.95,2.55 -0.99,2.9 -1.74,6.12 -2.27,9.67 -0.06,0.58 -0.13,1.19 -0.19,1.84 -0.07,0.65 -0.1,1.22 -0.1,1.71 0,0.22 0.08,0.45 0.26,0.7 0.16,0.25 0.25,0.44 0.25,0.56 0,0.22 -0.16,0.52 -0.49,0.91 -0.32,0.38 -0.69,0.74 -1.09,1.07 -0.41,0.33 -0.76,0.5 -1.07,0.5 -0.68,0 -1.02,-0.31 -1.02,-0.92 0,-0.52 0.28,-2.25 0.86,-5.19 0.57,-2.95 1.04,-5.05 1.42,-6.3 -0.17,0.56 -0.49,1.02 -0.95,1.39 -0.47,0.36 -1.06,0.55 -1.77,0.55 -1.04,0 -2.04,-0.76 -3.01,-2.26 -0.97,-1.5 -1.92,-3.26 -2.85,-5.29 l -0.26,-0.52 c -0.35,-0.73 -0.7,-1.35 -1.03,-1.85 -0.34,-0.5 -0.5,-0.82 -0.5,-0.96 0,-0.26 0.13,-0.43 0.39,-0.52 0.27,-0.09 0.52,-0.13 0.76,-0.13 0.91,0 1.68,0.78 2.32,2.33 0.82,1.96 1.62,3.62 2.38,4.96 0.77,1.35 1.51,2.03 2.24,2.03 0.47,0 0.9,-0.17 1.28,-0.52 0.39,-0.34 0.71,-0.76 0.97,-1.25 0.23,-0.46 0.53,-1.13 0.88,-2.02 0.35,-0.89 0.63,-1.65 0.83,-2.28 0.7,-2.08 1.08,-3.31 1.16,-3.68 0.1,-0.45 0.22,-0.8 0.35,-1.07 0.12,-0.27 0.36,-0.4 0.72,-0.4 0.32,0 0.64,0.11 0.94,0.33 0.3,0.23 0.45,0.5 0.45,0.82 z" />
    <use
       id="16"
       href="#17"
       xlink:href="#17"
       transform="translate(42.238,30.94)"
       x="0"
       y="0"
       width="100%"
       height="100%" />
    <path
       id="19"
       d="m 23.96,-29.3 c 0.54,0 1.05,0.11 1.55,0.32 0.49,0.22 0.91,0.5 1.27,0.86 0.36,0.36 0.65,0.78 0.86,1.27 0.21,0.49 0.32,1 0.32,1.53 v 9.05 h 9.03 c 0.54,0 1.06,0.11 1.55,0.32 0.49,0.22 0.91,0.5 1.27,0.86 0.36,0.36 0.65,0.78 0.86,1.27 0.21,0.49 0.32,1 0.32,1.53 0,0.54 -0.11,1.06 -0.32,1.54 -0.21,0.49 -0.5,0.91 -0.86,1.27 -0.36,0.36 -0.78,0.65 -1.27,0.86 -0.48,0.21 -1,0.32 -1.55,0.32 h -9.03 v 9.05 c 0,0.54 -0.11,1.05 -0.32,1.54 -0.21,0.48 -0.5,0.91 -0.86,1.26 -0.36,0.36 -0.78,0.65 -1.27,0.86 -0.49,0.21 -1,0.32 -1.55,0.32 -0.55,0 -1.07,-0.1 -1.55,-0.32 C 21.92,4.2 21.5,3.92 21.15,3.56 20.79,3.2 20.5,2.78 20.29,2.3 20.08,1.81 19.97,1.3 19.97,0.75 V -8.3 h -9.04 c -0.55,0 -1.07,-0.11 -1.55,-0.32 -0.49,-0.21 -0.91,-0.5 -1.27,-0.85 -0.36,-0.36 -0.64,-0.78 -0.85,-1.27 -0.21,-0.48 -0.32,-1 -0.32,-1.55 0,-0.54 0.11,-1.05 0.32,-1.54 0.21,-0.48 0.49,-0.9 0.85,-1.26 0.36,-0.36 0.78,-0.65 1.27,-0.86 0.49,-0.21 1,-0.32 1.55,-0.32 h 9.04 v -9.05 c 0,-0.54 0.11,-1.06 0.32,-1.54 0.21,-0.48 0.5,-0.91 0.86,-1.26 0.35,-0.36 0.78,-0.65 1.26,-0.86 0.49,-0.22 1.01,-0.32 1.55,-0.32 z" />
    <use
       id="18"
       href="#19"
       xlink:href="#19"
       transform="translate(0,36.6895)"
       x="0"
       y="0"
       width="100%"
       height="100%" />
    <path
       id="21"
       d="m 23.96,-29.3 c 0.54,0 1.05,0.11 1.55,0.32 0.49,0.22 0.91,0.5 1.27,0.86 0.36,0.36 0.65,0.78 0.86,1.27 0.21,0.49 0.32,1 0.32,1.53 v 9.05 h 9.03 c 0.54,0 1.06,0.11 1.55,0.32 0.49,0.22 0.91,0.5 1.27,0.86 0.36,0.36 0.65,0.78 0.86,1.27 0.21,0.49 0.32,1 0.32,1.53 0,0.54 -0.11,1.06 -0.32,1.54 -0.21,0.49 -0.5,0.91 -0.86,1.27 -0.36,0.36 -0.78,0.65 -1.27,0.86 -0.48,0.21 -1,0.32 -1.55,0.32 h -9.03 v 9.05 c 0,0.54 -0.11,1.05 -0.32,1.54 -0.21,0.48 -0.5,0.91 -0.86,1.26 -0.36,0.36 -0.78,0.65 -1.27,0.86 -0.49,0.21 -1,0.32 -1.55,0.32 -0.55,0 -1.07,-0.1 -1.55,-0.32 C 21.92,4.2 21.5,3.92 21.15,3.56 20.79,3.2 20.5,2.78 20.29,2.3 20.08,1.81 19.97,1.3 19.97,0.75 V -8.3 h -9.04 c -0.55,0 -1.07,-0.11 -1.55,-0.32 -0.49,-0.21 -0.91,-0.5 -1.27,-0.85 -0.36,-0.36 -0.64,-0.78 -0.85,-1.27 -0.21,-0.48 -0.32,-1 -0.32,-1.55 0,-0.54 0.11,-1.05 0.32,-1.54 0.21,-0.48 0.49,-0.9 0.85,-1.26 0.36,-0.36 0.78,-0.65 1.27,-0.86 0.49,-0.21 1,-0.32 1.55,-0.32 h 9.04 v -9.05 c 0,-0.54 0.11,-1.06 0.32,-1.54 0.21,-0.48 0.5,-0.91 0.86,-1.26 0.35,-0.36 0.78,-0.65 1.26,-0.86 0.49,-0.22 1.01,-0.32 1.55,-0.32 z" />
    <use
       id="20"
       href="#21"
       xlink:href="#21"
       transform="translate(0,36.6895)"
       x="0"
       y="0"
       width="100%"
       height="100%" />
    <path
       id="23"
       d="m 13.97,-15.37 c 0,0.53 -0.13,1.71 -0.39,3.53 -0.27,1.96 -0.41,3.07 -0.44,3.31 -0.29,2.78 -0.5,4.88 -0.62,6.32 -0.12,1.43 -0.18,2.74 -0.18,3.94 0,0.97 0.07,1.72 0.21,2.26 0.14,0.54 0.3,0.98 0.47,1.32 0.18,0.34 0.27,0.57 0.27,0.67 0,0.36 -0.23,0.63 -0.68,0.83 -0.45,0.2 -0.89,0.3 -1.33,0.3 -0.48,0 -0.81,-0.45 -1,-1.34 -0.19,-0.89 -0.29,-2.19 -0.29,-3.9 0,-1.29 0.13,-3.04 0.38,-5.24 l 0.5,-4.25 c -0.2,1.09 -0.76,2.19 -1.7,3.31 -0.93,1.13 -1.93,1.69 -2.99,1.69 -1.03,0 -1.92,-0.81 -2.65,-2.42 -0.74,-1.62 -1.31,-3.41 -1.71,-5.39 -0.4,-1.97 -0.6,-3.43 -0.6,-4.36 0,-0.77 0.28,-1.16 0.85,-1.16 0.69,0 1.12,0.54 1.28,1.61 0.84,6.16 1.93,9.24 3.27,9.24 0.51,0 0.98,-0.22 1.4,-0.67 0.43,-0.44 0.95,-1.17 1.58,-2.17 0.28,-0.46 0.59,-1.08 0.92,-1.85 0.33,-0.77 0.58,-1.42 0.77,-1.94 l 0.23,-3.42 c 0.05,-0.52 0.13,-0.94 0.26,-1.23 0.12,-0.3 0.4,-0.45 0.83,-0.45 0.33,0 0.64,0.16 0.93,0.49 0.28,0.33 0.43,0.66 0.43,0.97 z" />
    <use
       id="22"
       href="#23"
       xlink:href="#23"
       transform="translate(0,30.94)"
       x="0"
       y="0"
       width="100%"
       height="100%" />
    <path
       id="25"
       d="m 13.97,-15.37 c 0,0.53 -0.13,1.71 -0.39,3.53 -0.27,1.96 -0.41,3.07 -0.44,3.31 -0.29,2.78 -0.5,4.88 -0.62,6.32 -0.12,1.43 -0.18,2.74 -0.18,3.94 0,0.97 0.07,1.72 0.21,2.26 0.14,0.54 0.3,0.98 0.47,1.32 0.18,0.34 0.27,0.57 0.27,0.67 0,0.36 -0.23,0.63 -0.68,0.83 -0.45,0.2 -0.89,0.3 -1.33,0.3 -0.48,0 -0.81,-0.45 -1,-1.34 -0.19,-0.89 -0.29,-2.19 -0.29,-3.9 0,-1.29 0.13,-3.04 0.38,-5.24 l 0.5,-4.25 c -0.2,1.09 -0.76,2.19 -1.7,3.31 -0.93,1.13 -1.93,1.69 -2.99,1.69 -1.03,0 -1.92,-0.81 -2.65,-2.42 -0.74,-1.62 -1.31,-3.41 -1.71,-5.39 -0.4,-1.97 -0.6,-3.43 -0.6,-4.36 0,-0.77 0.28,-1.16 0.85,-1.16 0.69,0 1.12,0.54 1.28,1.61 0.84,6.16 1.93,9.24 3.27,9.24 0.51,0 0.98,-0.22 1.4,-0.67 0.43,-0.44 0.95,-1.17 1.58,-2.17 0.28,-0.46 0.59,-1.08 0.92,-1.85 0.33,-0.77 0.58,-1.42 0.77,-1.94 l 0.23,-3.42 c 0.05,-0.52 0.13,-0.94 0.26,-1.23 0.12,-0.3 0.4,-0.45 0.83,-0.45 0.33,0 0.64,0.16 0.93,0.49 0.28,0.33 0.43,0.66 0.43,0.97 z" />
    <use
       id="24"
       href="#25"
       xlink:href="#25"
       transform="translate(15.73,30.94)"
       x="0"
       y="0"
       width="100%"
       height="100%" />
    <path
       id="27"
       d="m 13.97,-15.37 c 0,0.53 -0.13,1.71 -0.39,3.53 -0.27,1.96 -0.41,3.07 -0.44,3.31 -0.29,2.78 -0.5,4.88 -0.62,6.32 -0.12,1.43 -0.18,2.74 -0.18,3.94 0,0.97 0.07,1.72 0.21,2.26 0.14,0.54 0.3,0.98 0.47,1.32 0.18,0.34 0.27,0.57 0.27,0.67 0,0.36 -0.23,0.63 -0.68,0.83 -0.45,0.2 -0.89,0.3 -1.33,0.3 -0.48,0 -0.81,-0.45 -1,-1.34 -0.19,-0.89 -0.29,-2.19 -0.29,-3.9 0,-1.29 0.13,-3.04 0.38,-5.24 l 0.5,-4.25 c -0.2,1.09 -0.76,2.19 -1.7,3.31 -0.93,1.13 -1.93,1.69 -2.99,1.69 -1.03,0 -1.92,-0.81 -2.65,-2.42 -0.74,-1.62 -1.31,-3.41 -1.71,-5.39 -0.4,-1.97 -0.6,-3.43 -0.6,-4.36 0,-0.77 0.28,-1.16 0.85,-1.16 0.69,0 1.12,0.54 1.28,1.61 0.84,6.16 1.93,9.24 3.27,9.24 0.51,0 0.98,-0.22 1.4,-0.67 0.43,-0.44 0.95,-1.17 1.58,-2.17 0.28,-0.46 0.59,-1.08 0.92,-1.85 0.33,-0.77 0.58,-1.42 0.77,-1.94 l 0.23,-3.42 c 0.05,-0.52 0.13,-0.94 0.26,-1.23 0.12,-0.3 0.4,-0.45 0.83,-0.45 0.33,0 0.64,0.16 0.93,0.49 0.28,0.33 0.43,0.66 0.43,0.97 z" />
    <use
       id="26"
       href="#27"
       xlink:href="#27"
       transform="translate(31.46,30.94)"
       x="0"
       y="0"
       width="100%"
       height="100%" />
    <path
       id="29"
       d="m 13.97,-15.37 c 0,0.53 -0.13,1.71 -0.39,3.53 -0.27,1.96 -0.41,3.07 -0.44,3.31 -0.29,2.78 -0.5,4.88 -0.62,6.32 -0.12,1.43 -0.18,2.74 -0.18,3.94 0,0.97 0.07,1.72 0.21,2.26 0.14,0.54 0.3,0.98 0.47,1.32 0.18,0.34 0.27,0.57 0.27,0.67 0,0.36 -0.23,0.63 -0.68,0.83 -0.45,0.2 -0.89,0.3 -1.33,0.3 -0.48,0 -0.81,-0.45 -1,-1.34 -0.19,-0.89 -0.29,-2.19 -0.29,-3.9 0,-1.29 0.13,-3.04 0.38,-5.24 l 0.5,-4.25 c -0.2,1.09 -0.76,2.19 -1.7,3.31 -0.93,1.13 -1.93,1.69 -2.99,1.69 -1.03,0 -1.92,-0.81 -2.65,-2.42 -0.74,-1.62 -1.31,-3.41 -1.71,-5.39 -0.4,-1.97 -0.6,-3.43 -0.6,-4.36 0,-0.77 0.28,-1.16 0.85,-1.16 0.69,0 1.12,0.54 1.28,1.61 0.84,6.16 1.93,9.24 3.27,9.24 0.51,0 0.98,-0.22 1.4,-0.67 0.43,-0.44 0.95,-1.17 1.58,-2.17 0.28,-0.46 0.59,-1.08 0.92,-1.85 0.33,-0.77 0.58,-1.42 0.77,-1.94 l 0.23,-3.42 c 0.05,-0.52 0.13,-0.94 0.26,-1.23 0.12,-0.3 0.4,-0.45 0.83,-0.45 0.33,0 0.64,0.16 0.93,0.49 0.28,0.33 0.43,0.66 0.43,0.97 z" />
    <use
       id="28"
       href="#29"
       xlink:href="#29"
       transform="translate(47.19,30.94)"
       x="0"
       y="0"
       width="100%"
       height="100%" />
    <path
       id="31"
       d="m 11.08,-9.15 c 0,0.54 -0.2,0.89 -0.6,1.08 -0.4,0.19 -1.05,0.32 -1.95,0.42 l -2.31,0.27 c -0.53,0.07 -1.04,0.12 -1.53,0.15 -0.49,0.04 -1.08,0.06 -1.77,0.06 -0.36,0 -0.69,-0.08 -1,-0.24 -0.31,-0.15 -0.46,-0.44 -0.46,-0.85 0,-0.42 0.14,-0.7 0.43,-0.83 0.3,-0.13 0.71,-0.19 1.23,-0.19 0.95,0 1.57,-0.01 1.85,-0.02 0.28,-0.01 0.56,-0.04 0.82,-0.11 0.05,-0.01 0.32,-0.07 0.8,-0.17 0.48,-0.09 1.18,-0.2 2.09,-0.31 0.05,0 0.14,-0.15 0.27,-0.43 0.13,-0.28 0.34,-0.42 0.63,-0.42 0.36,0 0.69,0.17 1.02,0.52 0.32,0.35 0.48,0.71 0.48,1.07 z" />
    <use
       id="30"
       href="#31"
       xlink:href="#31"
       transform="translate(62.92,30.94)"
       x="0"
       y="0"
       width="100%"
       height="100%" />
    <path
       id="33"
       d="m 27.36,-2.14 c 0,0.27 -0.16,0.53 -0.5,0.78 -0.33,0.25 -0.7,0.37 -1.09,0.37 -0.31,0 -0.57,-0.02 -0.8,-0.07 -0.22,-0.05 -0.39,-0.2 -0.5,-0.46 -0.22,-0.36 -0.46,-1.39 -0.74,-3.07 -0.27,-1.68 -0.53,-3.62 -0.78,-5.82 -0.54,-6.53 -0.79,-9.83 -0.76,-9.89 -0.15,0.42 -0.49,1.37 -1,2.86 -0.52,1.49 -1.12,3.45 -1.8,5.87 -0.75,2.62 -1.32,4.44 -1.72,5.46 -0.4,1.02 -0.76,1.66 -1.08,1.9 -0.2,0.18 -0.46,0.35 -0.76,0.52 -0.3,0.17 -0.57,0.26 -0.81,0.26 -0.31,0 -0.53,-0.06 -0.65,-0.16 -0.13,-0.1 -0.24,-0.31 -0.34,-0.63 -0.1,-0.4 -0.33,-1.5 -0.67,-3.29 -0.34,-1.8 -0.6,-3.39 -0.78,-4.78 l -0.2,-1.42 c -0.39,-2.95 -0.59,-4.51 -0.59,-4.68 -0.14,0.28 -0.4,1.07 -0.78,2.37 -0.37,1.29 -0.81,3.17 -1.32,5.63 C 9.23,-8.56 8.66,-5.52 7.97,-1.27 7.94,-0.95 7.73,-0.66 7.34,-0.41 6.95,-0.16 6.6,-0.03 6.28,-0.03 5.71,-0.03 5.39,-0.49 5.33,-1.4 5.31,-2.08 5.16,-3.58 4.88,-5.89 4.6,-8.2 4.34,-10.27 4.11,-12.09 3.79,-14.58 3.37,-16.88 2.84,-18.98 2.67,-19.73 2.58,-20.17 2.58,-20.3 c 0,-0.44 0.2,-0.8 0.61,-1.06 0.4,-0.27 0.83,-0.4 1.29,-0.4 0.38,0 0.68,0.74 0.89,2.22 0.22,1.48 0.44,3.29 0.67,5.44 l 0.1,1.11 c 0.09,0.75 0.19,1.53 0.3,2.35 0.44,3.48 0.62,5.57 0.57,6.25 0.1,-2.4 0.45,-4.98 1.04,-7.75 L 8.4,-13.8 c 0.46,-2.23 0.99,-4 1.62,-5.31 0.62,-1.31 1.48,-1.97 2.55,-1.97 0.48,0 0.91,0.81 1.29,2.42 0.38,1.61 0.68,3.45 0.88,5.51 0.16,1.46 0.37,2.87 0.61,4.23 0.25,1.37 0.36,2.23 0.34,2.6 -0.05,-0.29 0.12,-1.01 0.53,-2.19 0.4,-1.17 0.79,-2.45 1.16,-3.85 1.11,-3.79 2.29,-7.17 3.52,-10.13 0.27,-0.56 0.53,-0.97 0.79,-1.23 0.26,-0.26 0.71,-0.39 1.36,-0.39 0.49,0 0.91,1.34 1.26,4 0.35,2.67 0.64,5.7 0.87,9.11 0.61,4.75 1.12,7.31 1.55,7.68 0.42,0.36 0.63,0.76 0.63,1.18 z" />
    <use
       id="32"
       href="#33"
       xlink:href="#33"
       transform="translate(75.76,30.94)"
       x="0"
       y="0"
       width="100%"
       height="100%" />
    <path
       id="35"
       d="m 27.36,-2.14 c 0,0.27 -0.16,0.53 -0.5,0.78 -0.33,0.25 -0.7,0.37 -1.09,0.37 -0.31,0 -0.57,-0.02 -0.8,-0.07 -0.22,-0.05 -0.39,-0.2 -0.5,-0.46 -0.22,-0.36 -0.46,-1.39 -0.74,-3.07 -0.27,-1.68 -0.53,-3.62 -0.78,-5.82 -0.54,-6.53 -0.79,-9.83 -0.76,-9.89 -0.15,0.42 -0.49,1.37 -1,2.86 -0.52,1.49 -1.12,3.45 -1.8,5.87 -0.75,2.62 -1.32,4.44 -1.72,5.46 -0.4,1.02 -0.76,1.66 -1.08,1.9 -0.2,0.18 -0.46,0.35 -0.76,0.52 -0.3,0.17 -0.57,0.26 -0.81,0.26 -0.31,0 -0.53,-0.06 -0.65,-0.16 -0.13,-0.1 -0.24,-0.31 -0.34,-0.63 -0.1,-0.4 -0.33,-1.5 -0.67,-3.29 -0.34,-1.8 -0.6,-3.39 -0.78,-4.78 l -0.2,-1.42 c -0.39,-2.95 -0.59,-4.51 -0.59,-4.68 -0.14,0.28 -0.4,1.07 -0.78,2.37 -0.37,1.29 -0.81,3.17 -1.32,5.63 C 9.23,-8.56 8.66,-5.52 7.97,-1.27 7.94,-0.95 7.73,-0.66 7.34,-0.41 6.95,-0.16 6.6,-0.03 6.28,-0.03 5.71,-0.03 5.39,-0.49 5.33,-1.4 5.31,-2.08 5.16,-3.58 4.88,-5.89 4.6,-8.2 4.34,-10.27 4.11,-12.09 3.79,-14.58 3.37,-16.88 2.84,-18.98 2.67,-19.73 2.58,-20.17 2.58,-20.3 c 0,-0.44 0.2,-0.8 0.61,-1.06 0.4,-0.27 0.83,-0.4 1.29,-0.4 0.38,0 0.68,0.74 0.89,2.22 0.22,1.48 0.44,3.29 0.67,5.44 l 0.1,1.11 c 0.09,0.75 0.19,1.53 0.3,2.35 0.44,3.48 0.62,5.57 0.57,6.25 0.1,-2.4 0.45,-4.98 1.04,-7.75 L 8.4,-13.8 c 0.46,-2.23 0.99,-4 1.62,-5.31 0.62,-1.31 1.48,-1.97 2.55,-1.97 0.48,0 0.91,0.81 1.29,2.42 0.38,1.61 0.68,3.45 0.88,5.51 0.16,1.46 0.37,2.87 0.61,4.23 0.25,1.37 0.36,2.23 0.34,2.6 -0.05,-0.29 0.12,-1.01 0.53,-2.19 0.4,-1.17 0.79,-2.45 1.16,-3.85 1.11,-3.79 2.29,-7.17 3.52,-10.13 0.27,-0.56 0.53,-0.97 0.79,-1.23 0.26,-0.26 0.71,-0.39 1.36,-0.39 0.49,0 0.91,1.34 1.26,4 0.35,2.67 0.64,5.7 0.87,9.11 0.61,4.75 1.12,7.31 1.55,7.68 0.42,0.36 0.63,0.76 0.63,1.18 z" />
    <use
       id="34"
       href="#35"
       xlink:href="#35"
       transform="translate(104.512,30.94)"
       x="0"
       y="0"
       width="100%"
       height="100%" />
    <path
       id="37"
       d="m 11.08,-9.15 c 0,0.54 -0.2,0.89 -0.6,1.08 -0.4,0.19 -1.05,0.32 -1.95,0.42 l -2.31,0.27 c -0.53,0.07 -1.04,0.12 -1.53,0.15 -0.49,0.04 -1.08,0.06 -1.77,0.06 -0.36,0 -0.69,-0.08 -1,-0.24 -0.31,-0.15 -0.46,-0.44 -0.46,-0.85 0,-0.42 0.14,-0.7 0.43,-0.83 0.3,-0.13 0.71,-0.19 1.23,-0.19 0.95,0 1.57,-0.01 1.85,-0.02 0.28,-0.01 0.56,-0.04 0.82,-0.11 0.05,-0.01 0.32,-0.07 0.8,-0.17 0.48,-0.09 1.18,-0.2 2.09,-0.31 0.05,0 0.14,-0.15 0.27,-0.43 0.13,-0.28 0.34,-0.42 0.63,-0.42 0.36,0 0.69,0.17 1.02,0.52 0.32,0.35 0.48,0.71 0.48,1.07 z" />
    <use
       id="36"
       href="#37"
       xlink:href="#37"
       transform="translate(133.264,30.94)"
       x="0"
       y="0"
       width="100%"
       height="100%" />
    <path
       id="39"
       d="m 14.89,-23.71 c 0,0.43 -0.03,1.32 -0.07,2.64 -0.05,1.33 -0.07,2.71 -0.07,4.14 0,2.66 0.06,5.31 0.17,7.94 0.11,2.64 0.2,4.4 0.27,5.29 0,0.11 0.01,0.23 0.03,0.38 0.02,0.14 0.04,0.27 0.06,0.38 0.1,0.68 0.15,1.1 0.15,1.24 0,0.35 -0.2,0.66 -0.61,0.91 -0.41,0.26 -0.74,0.38 -0.99,0.38 -0.4,0 -0.66,-0.14 -0.78,-0.42 -0.11,-0.28 -0.17,-0.61 -0.17,-1.01 0,-1.25 0.03,-2.56 0.1,-3.93 l 0.04,-1.88 c 0,-0.63 -0.02,-1.45 -0.04,-2.47 -0.02,-1.03 -0.01,-1.79 0.02,-2.29 -0.8,3.57 -1.95,6.61 -3.45,9.12 -1.51,2.51 -3.17,3.77 -5,3.77 -0.89,0 -1.62,-0.4 -2.21,-1.2 -0.59,-0.8 -0.88,-1.92 -0.88,-3.36 0,-1.84 0.61,-3.83 1.84,-5.97 1.23,-2.14 2.65,-3.99 4.25,-5.56 1.6,-1.56 2.82,-2.34 3.66,-2.34 0.96,0 1.43,0.34 1.43,1.02 0,0.37 -0.11,0.78 -0.35,1.23 -0.23,0.45 -0.5,0.88 -0.8,1.27 -0.3,0.39 -0.53,0.59 -0.68,0.59 -0.11,0 -0.24,-0.04 -0.37,-0.12 -0.14,-0.09 -0.21,-0.21 -0.21,-0.39 0,-0.15 0.05,-0.37 0.17,-0.64 0.11,-0.27 0.17,-0.43 0.17,-0.48 0,-0.05 0.01,-0.06 0.03,-0.02 0.02,0.04 0.04,0.05 0.07,0.05 -0.38,0 -1.16,0.63 -2.36,1.89 -1.19,1.26 -2.26,2.77 -3.22,4.52 -0.95,1.75 -1.42,3.36 -1.42,4.85 0,0.51 0.09,0.96 0.28,1.35 0.18,0.39 0.46,0.59 0.84,0.59 1.51,0 2.95,-1.37 4.33,-4.1 1.39,-2.74 2.59,-5.86 3.62,-9.38 l -0.06,-2.8 c -0.07,-2.52 -0.11,-3.86 -0.11,-4.02 0,-1.38 0.06,-2.38 0.18,-2.98 0.05,-0.26 0.13,-0.47 0.22,-0.63 0.1,-0.16 0.31,-0.23 0.62,-0.23 0.3,0 0.6,0.1 0.9,0.3 0.31,0.19 0.46,0.43 0.46,0.7 z" />
    <use
       id="38"
       href="#39"
       xlink:href="#39"
       transform="translate(146.104,30.94)"
       x="0"
       y="0"
       width="100%"
       height="100%" />
    <path
       id="41"
       d="m 14.89,-23.71 c 0,0.43 -0.03,1.32 -0.07,2.64 -0.05,1.33 -0.07,2.71 -0.07,4.14 0,2.66 0.06,5.31 0.17,7.94 0.11,2.64 0.2,4.4 0.27,5.29 0,0.11 0.01,0.23 0.03,0.38 0.02,0.14 0.04,0.27 0.06,0.38 0.1,0.68 0.15,1.1 0.15,1.24 0,0.35 -0.2,0.66 -0.61,0.91 -0.41,0.26 -0.74,0.38 -0.99,0.38 -0.4,0 -0.66,-0.14 -0.78,-0.42 -0.11,-0.28 -0.17,-0.61 -0.17,-1.01 0,-1.25 0.03,-2.56 0.1,-3.93 l 0.04,-1.88 c 0,-0.63 -0.02,-1.45 -0.04,-2.47 -0.02,-1.03 -0.01,-1.79 0.02,-2.29 -0.8,3.57 -1.95,6.61 -3.45,9.12 -1.51,2.51 -3.17,3.77 -5,3.77 -0.89,0 -1.62,-0.4 -2.21,-1.2 -0.59,-0.8 -0.88,-1.92 -0.88,-3.36 0,-1.84 0.61,-3.83 1.84,-5.97 1.23,-2.14 2.65,-3.99 4.25,-5.56 1.6,-1.56 2.82,-2.34 3.66,-2.34 0.96,0 1.43,0.34 1.43,1.02 0,0.37 -0.11,0.78 -0.35,1.23 -0.23,0.45 -0.5,0.88 -0.8,1.27 -0.3,0.39 -0.53,0.59 -0.68,0.59 -0.11,0 -0.24,-0.04 -0.37,-0.12 -0.14,-0.09 -0.21,-0.21 -0.21,-0.39 0,-0.15 0.05,-0.37 0.17,-0.64 0.11,-0.27 0.17,-0.43 0.17,-0.48 0,-0.05 0.01,-0.06 0.03,-0.02 0.02,0.04 0.04,0.05 0.07,0.05 -0.38,0 -1.16,0.63 -2.36,1.89 -1.19,1.26 -2.26,2.77 -3.22,4.52 -0.95,1.75 -1.42,3.36 -1.42,4.85 0,0.51 0.09,0.96 0.28,1.35 0.18,0.39 0.46,0.59 0.84,0.59 1.51,0 2.95,-1.37 4.33,-4.1 1.39,-2.74 2.59,-5.86 3.62,-9.38 l -0.06,-2.8 c -0.07,-2.52 -0.11,-3.86 -0.11,-4.02 0,-1.38 0.06,-2.38 0.18,-2.98 0.05,-0.26 0.13,-0.47 0.22,-0.63 0.1,-0.16 0.31,-0.23 0.62,-0.23 0.3,0 0.6,0.1 0.9,0.3 0.31,0.19 0.46,0.43 0.46,0.7 z" />
    <use
       id="40"
       href="#41"
       xlink:href="#41"
       transform="translate(163.534,30.94)"
       x="0"
       y="0"
       width="100%"
       height="100%" />
    <path
       id="43"
       d="m 18.35,-6.29 c 0,1.2 -0.39,2.38 -1.19,3.54 -0.8,1.15 -1.91,2.08 -3.33,2.8 C 12.42,0.76 10.81,1.12 9,1.12 7.49,1.12 6.26,0.99 5.3,0.73 4.35,0.46 3.87,0.03 3.87,-0.58 c 0,-0.28 0.19,-0.72 0.56,-1.33 0.38,-0.61 0.72,-0.91 1.04,-0.91 0.5,0 0.75,0.16 0.75,0.47 0,0.16 -0.04,0.28 -0.12,0.37 -0.08,0.09 -0.12,0.14 -0.12,0.14 0,-0.05 0.1,-0.02 0.31,0.08 0.21,0.1 0.59,0.2 1.15,0.31 0.55,0.1 1.24,0.16 2.07,0.16 1.28,0 2.4,-0.25 3.36,-0.74 0.95,-0.5 1.69,-1.12 2.2,-1.86 0.51,-0.75 0.77,-1.47 0.77,-2.16 0,-0.86 -0.44,-1.62 -1.32,-2.27 -0.88,-0.66 -2.29,-1.3 -4.22,-1.91 -2.17,-0.68 -3.8,-1.24 -4.92,-1.69 -1.11,-0.45 -2.03,-1.02 -2.76,-1.71 -0.73,-0.69 -1.1,-1.56 -1.1,-2.59 0,-1.33 0.73,-2.63 2.19,-3.88 1.46,-1.26 3.24,-2.28 5.34,-3.05 2.1,-0.77 4.05,-1.16 5.87,-1.16 1.09,0 1.69,0.27 1.79,0.8 0.08,0.4 0.11,0.82 0.11,1.27 0,0.57 -0.23,0.85 -0.71,0.85 -0.18,0 -0.35,-0.04 -0.52,-0.13 -0.17,-0.09 -0.3,-0.16 -0.39,-0.19 -0.09,-0.03 -0.23,-0.07 -0.41,-0.12 -0.18,-0.04 -0.42,-0.07 -0.72,-0.07 -1.13,0 -2.51,0.3 -4.13,0.91 -1.63,0.6 -3.02,1.33 -4.17,2.19 -1.15,0.86 -1.73,1.65 -1.73,2.38 0,0.6 0.25,1.13 0.76,1.58 0.5,0.45 1.2,0.85 2.09,1.18 0.89,0.34 2.23,0.78 4.01,1.33 2.47,0.72 4.33,1.55 5.58,2.51 1.25,0.95 1.87,2.13 1.87,3.53 z" />
    <use
       id="42"
       href="#43"
       xlink:href="#43"
       transform="translate(0,30.94)"
       x="0"
       y="0"
       width="100%"
       height="100%" />
    <path
       id="45"
       d="m 22.3,-9.59 c 0,0.53 -0.37,0.91 -1.09,1.12 -0.39,0.14 -0.88,0.22 -1.47,0.26 -0.59,0.03 -0.88,0.05 -0.86,0.05 -0.01,0.5 -0.06,1.19 -0.12,2.04 -0.07,0.86 -0.13,1.59 -0.18,2.18 l -0.1,1.05 -0.07,1.08 -0.2,2.59 c -0.1,1.36 -0.59,2.04 -1.45,2.04 -0.41,0 -0.75,-0.33 -1.02,-0.99 -0.28,-0.67 -0.41,-1.21 -0.41,-1.63 0,-0.15 0.09,-0.36 0.27,-0.63 0.19,-0.28 0.3,-0.61 0.34,-1.01 0.09,-0.63 0.2,-1.67 0.31,-3.13 0.11,-1.46 0.19,-2.57 0.23,-3.32 -0.61,0.07 -1.42,0.17 -2.43,0.3 -0.49,0.05 -1.52,0.16 -3.1,0.31 -1.58,0.16 -2.74,0.26 -3.47,0.3 -0.07,1.29 -0.17,3 -0.28,5.11 C 7.09,0.25 7.03,1.58 7.03,2.11 7.03,2.29 7.06,2.53 7.12,2.82 7.17,3.11 7.2,3.34 7.2,3.5 7.2,3.83 7.01,4.12 6.63,4.38 6.24,4.63 5.92,4.76 5.67,4.76 5.3,4.76 5.02,4.57 4.83,4.19 4.64,3.82 4.55,3.4 4.55,2.96 4.55,2.73 4.57,2.39 4.62,1.91 4.67,1.44 4.7,1.03 4.72,0.69 4.81,0.07 4.87,-0.42 4.89,-0.79 5.01,-2.13 5.1,-3.42 5.16,-4.66 5.23,-5.89 5.28,-6.61 5.3,-6.8 c -1.16,0.25 -2.4,0.37 -3.71,0.37 -0.5,0 -0.95,-0.13 -1.33,-0.4 -0.38,-0.27 -0.57,-0.67 -0.57,-1.19 0,-0.38 0.1,-0.67 0.31,-0.88 0.21,-0.21 0.51,-0.31 0.9,-0.31 l 2.06,0.03 c 1.1,0.05 1.94,0.07 2.53,0.07 0.1,-1.74 0.15,-3.18 0.15,-4.32 0,-2.62 -0.02,-4.98 -0.07,-7.07 v -1.26 c 0,-0.43 0.17,-0.78 0.5,-1.05 0.33,-0.28 0.7,-0.41 1.13,-0.41 0.43,0 0.71,0.24 0.82,0.72 0.11,0.48 0.17,0.96 0.17,1.45 0,0.47 -0.06,1.51 -0.18,3.11 -0.13,2.54 -0.2,3.88 -0.2,4 l -0.17,4.66 c 1.65,-0.02 4.66,-0.29 9.05,-0.82 0.07,-0.51 0.22,-2.16 0.44,-4.94 0.09,-1.48 0.17,-2.56 0.24,-3.25 l 0.21,-2.66 c 0.29,-3.3 0.43,-5.36 0.43,-6.18 0,-0.38 0.15,-0.7 0.45,-0.94 0.3,-0.23 0.64,-0.35 1.02,-0.35 0.63,0 0.95,0.49 0.95,1.49 0,0.49 -0.12,1.84 -0.35,4.04 -0.25,2.79 -0.38,4.34 -0.41,4.66 -0.13,1.75 -0.26,3.41 -0.39,5 -0.12,1.59 -0.2,2.53 -0.25,2.83 0.12,-0.04 0.33,-0.12 0.62,-0.25 0.46,-0.15 0.82,-0.23 1.08,-0.23 0.32,0 0.66,0.17 1.03,0.5 0.36,0.33 0.54,0.6 0.54,0.79 z" />
    <use
       id="44"
       href="#45"
       xlink:href="#45"
       transform="translate(19.98,30.94)"
       x="0"
       y="0"
       width="100%"
       height="100%" />
    <path
       id="47"
       d="m 20.9,-10.95 c 0,0.2 -0.05,0.42 -0.15,0.66 -0.11,0.24 -0.25,0.42 -0.44,0.54 -0.18,0.16 -0.54,0.3 -1.08,0.41 -0.54,0.11 -0.79,0.16 -0.77,0.15 -0.05,0.64 -0.19,0.85 -0.41,0.62 0.6,0.74 1,1.75 1.19,3.03 0.41,2.06 0.82,3.88 1.25,5.48 0.12,0.53 0.18,0.85 0.18,0.94 0,0.34 -0.13,0.61 -0.38,0.83 -0.25,0.22 -0.54,0.33 -0.88,0.33 -0.34,0 -0.62,-0.15 -0.85,-0.44 -0.23,-0.3 -0.38,-0.56 -0.46,-0.78 -0.22,-0.83 -0.41,-1.69 -0.57,-2.59 -0.16,-0.9 -0.36,-2.04 -0.59,-3.41 -0.1,-0.63 -0.25,-1.38 -0.45,-2.24 -0.21,-0.87 -0.32,-1.35 -0.33,-1.45 -1.1,0.17 -3.29,0.53 -6.59,1.08 l -1.78,0.31 -0.64,1.82 -1,2.83 C 5.4,-0.49 4.85,1.38 4.49,2.79 4.42,3.13 4.25,3.43 4,3.71 3.74,3.98 3.41,4.11 3.02,4.11 2.69,4.11 2.4,4.02 2.16,3.82 1.92,3.63 1.8,3.35 1.8,2.99 1.8,2.71 1.93,2.16 2.21,1.35 2.48,0.54 2.64,0.05 2.69,-0.12 2.79,-0.36 2.97,-0.88 3.24,-1.69 3.56,-2.64 3.94,-3.7 4.39,-4.87 4.84,-6.03 5.14,-6.73 5.3,-6.97 4.41,-6.7 3.72,-6.49 3.23,-6.36 2.28,-6.11 1.69,-5.98 1.46,-5.98 1.08,-5.98 0.81,-6.12 0.63,-6.39 0.46,-6.66 0.37,-6.95 0.37,-7.24 c 0,-0.37 0.09,-0.63 0.29,-0.77 0.19,-0.14 0.47,-0.27 0.85,-0.38 0.84,-0.2 1.73,-0.4 2.69,-0.6 0.95,-0.2 1.57,-0.33 1.85,-0.38 0.18,-0.52 0.33,-1.01 0.44,-1.47 0.09,-0.26 0.21,-0.62 0.36,-1.09 0.15,-0.46 0.32,-1.04 0.52,-1.75 L 7.9,-15.5 c 0.85,-3 1.33,-4.67 1.44,-5.02 0.13,-0.35 0.26,-0.65 0.4,-0.9 0.14,-0.25 0.37,-0.37 0.69,-0.37 0.49,0 0.87,0.05 1.13,0.17 -0.07,0.05 -0.05,0 0.06,-0.17 0.12,-0.16 0.26,-0.28 0.44,-0.36 0.17,-0.08 0.39,-0.12 0.65,-0.12 0.54,0 1.1,0.5 1.67,1.49 0.57,0.99 1.1,2.13 1.6,3.4 0.31,0.77 0.68,1.88 1.12,3.34 0.45,1.45 0.72,2.36 0.82,2.72 0.12,-0.02 0.3,-0.06 0.52,-0.14 0.23,-0.08 0.37,-0.12 0.42,-0.14 0.08,-0.03 0.19,-0.1 0.32,-0.21 0.13,-0.11 0.29,-0.21 0.47,-0.3 0.18,-0.09 0.38,-0.07 0.62,0.04 0.42,0.19 0.63,0.57 0.63,1.12 z m -5.13,-0.01 c -0.11,-0.18 -0.34,-0.92 -0.7,-2.21 -0.36,-1.3 -0.67,-2.29 -0.94,-2.96 -0.36,-0.95 -0.78,-1.86 -1.26,-2.71 -0.48,-0.86 -0.76,-1.36 -0.83,-1.53 l -0.24,0.75 c -0.41,0.83 -0.75,1.63 -1,2.4 -0.49,1.41 -1.33,3.91 -2.51,7.5 l 3.51,-0.63 3.34,-0.53 z" />
    <use
       id="46"
       href="#47"
       xlink:href="#47"
       transform="translate(44.516,30.94)"
       x="0"
       y="0"
       width="100%"
       height="100%" />
    <path
       id="49"
       d="m 11.31,-1.88 c 0.11,0.53 0.3,1.37 0.57,2.52 0.06,0.23 0.13,0.56 0.22,0.97 0.09,0.41 0.13,0.67 0.13,0.77 0,0.36 -0.18,0.68 -0.54,0.95 C 11.33,3.6 10.95,3.74 10.53,3.74 10.19,3.74 9.9,3.5 9.65,3.03 9.41,2.55 9.24,2 9.14,1.37 8.74,-1.01 8.37,-4.71 8.05,-9.73 l -0.42,-6.93 c -1.43,1.71 -3.1,3.19 -5.01,4.43 -0.55,0.36 -0.96,0.53 -1.23,0.53 -0.33,0 -0.6,-0.1 -0.79,-0.32 -0.2,-0.21 -0.3,-0.43 -0.3,-0.66 0,-0.4 0.31,-0.8 0.94,-1.21 1.11,-0.72 2.14,-1.51 3.07,-2.36 0.93,-0.85 1.92,-1.78 2.95,-2.79 l 0.18,-0.26 v 0.09 -0.51 -0.34 c 0,-0.26 0.07,-0.44 0.21,-0.53 0.1,-0.1 0.19,-0.15 0.28,-0.15 0.14,-0.07 0.32,-0.1 0.56,-0.1 0.51,0 0.94,0.09 1.3,0.27 0.36,0.18 0.54,0.46 0.54,0.85 0,0.35 -0.14,0.7 -0.41,1.04 0.11,0.46 0.18,0.97 0.2,1.53 0.05,1.33 0.21,3.89 0.51,7.7 0.29,3.81 0.52,6.33 0.68,7.57 z" />
    <use
       id="48"
       href="#49"
       xlink:href="#49"
       transform="translate(66.944,30.94)"
       x="0"
       y="0"
       width="100%"
       height="100%" />
    <path
       id="51"
       d="m 18.35,-6.29 c 0,1.2 -0.39,2.38 -1.19,3.54 -0.8,1.15 -1.91,2.08 -3.33,2.8 C 12.42,0.76 10.81,1.12 9,1.12 7.49,1.12 6.26,0.99 5.3,0.73 4.35,0.46 3.87,0.03 3.87,-0.58 c 0,-0.28 0.19,-0.72 0.56,-1.33 0.38,-0.61 0.72,-0.91 1.04,-0.91 0.5,0 0.75,0.16 0.75,0.47 0,0.16 -0.04,0.28 -0.12,0.37 -0.08,0.09 -0.12,0.14 -0.12,0.14 0,-0.05 0.1,-0.02 0.31,0.08 0.21,0.1 0.59,0.2 1.15,0.31 0.55,0.1 1.24,0.16 2.07,0.16 1.28,0 2.4,-0.25 3.36,-0.74 0.95,-0.5 1.69,-1.12 2.2,-1.86 0.51,-0.75 0.77,-1.47 0.77,-2.16 0,-0.86 -0.44,-1.62 -1.32,-2.27 -0.88,-0.66 -2.29,-1.3 -4.22,-1.91 -2.17,-0.68 -3.8,-1.24 -4.92,-1.69 -1.11,-0.45 -2.03,-1.02 -2.76,-1.71 -0.73,-0.69 -1.1,-1.56 -1.1,-2.59 0,-1.33 0.73,-2.63 2.19,-3.88 1.46,-1.26 3.24,-2.28 5.34,-3.05 2.1,-0.77 4.05,-1.16 5.87,-1.16 1.09,0 1.69,0.27 1.79,0.8 0.08,0.4 0.11,0.82 0.11,1.27 0,0.57 -0.23,0.85 -0.71,0.85 -0.18,0 -0.35,-0.04 -0.52,-0.13 -0.17,-0.09 -0.3,-0.16 -0.39,-0.19 -0.09,-0.03 -0.23,-0.07 -0.41,-0.12 -0.18,-0.04 -0.42,-0.07 -0.72,-0.07 -1.13,0 -2.51,0.3 -4.13,0.91 -1.63,0.6 -3.02,1.33 -4.17,2.19 -1.15,0.86 -1.73,1.65 -1.73,2.38 0,0.6 0.25,1.13 0.76,1.58 0.5,0.45 1.2,0.85 2.09,1.18 0.89,0.34 2.23,0.78 4.01,1.33 2.47,0.72 4.33,1.55 5.58,2.51 1.25,0.95 1.87,2.13 1.87,3.53 z" />
    <use
       id="50"
       href="#51"
       xlink:href="#51"
       transform="translate(0,30.94)"
       x="0"
       y="0"
       width="100%"
       height="100%" />
    <path
       id="53"
       d="m 21.89,-22.03 c 0,0.58 -0.26,0.98 -0.77,1.19 -0.51,0.22 -1.2,0.41 -2.06,0.57 -0.94,0.19 -2.13,0.36 -3.55,0.53 -1.42,0.17 -2.49,0.27 -3.2,0.31 -0.05,0.78 -0.14,3.49 -0.25,8.13 -0.11,4.63 -0.18,7.95 -0.2,9.94 0.97,0 2.45,-0.06 4.43,-0.2 1.76,-0.09 2.72,-0.14 2.88,-0.14 0.47,0 0.91,0.11 1.32,0.34 0.41,0.23 0.62,0.59 0.62,1.09 0,0.39 -0.08,0.69 -0.24,0.91 -0.16,0.21 -0.46,0.31 -0.92,0.31 -0.16,0 -0.55,-0.03 -1.17,-0.1 -0.45,-0.09 -0.82,-0.14 -1.11,-0.14 -1.05,0 -3.12,0.07 -6.21,0.2 C 11.38,1.02 11.25,1.13 11.05,1.24 10.86,1.34 10.67,1.39 10.5,1.39 10.3,1.39 10.1,1.34 9.89,1.24 9.68,1.13 9.57,1.05 9.57,0.99 L 8.4,1.15 C 6.61,1.38 5.27,1.5 4.38,1.5 3.55,1.5 2.91,1.32 2.48,0.96 2.18,0.7 2.03,0.27 2.03,-0.31 c 0,-0.19 0.1,-0.43 0.3,-0.7 0.2,-0.28 0.44,-0.42 0.72,-0.42 0.1,0 0.29,0.06 0.6,0.19 0.31,0.12 0.57,0.19 0.8,0.19 0.88,0 2.09,-0.05 3.62,-0.13 l 1.32,-0.09 0.19,-4.72 c 0.02,-0.53 0.05,-1 0.07,-1.42 0.02,-0.41 0.03,-0.77 0.03,-1.06 l 0.34,-10.77 c -1.9,-0.28 -2.8,-0.41 -2.68,-0.41 -2.52,0.61 -4,0.92 -4.42,0.92 -0.46,0 -0.9,-0.16 -1.32,-0.46 -0.41,-0.31 -0.62,-0.71 -0.62,-1.21 0,-0.34 0.1,-0.63 0.31,-0.85 0.21,-0.23 0.49,-0.34 0.85,-0.34 0.18,0 0.36,0.01 0.56,0.04 0.19,0.02 0.38,0.04 0.57,0.07 0.55,0.11 1.08,0.16 1.59,0.16 0.54,0 1.5,-0.04 2.87,-0.11 1.38,-0.08 2.21,-0.13 2.48,-0.14 0.02,-0.18 0.15,-0.4 0.39,-0.66 0.24,-0.25 0.56,-0.38 0.95,-0.38 0.28,0 0.49,0.13 0.62,0.4 0.13,0.26 0.2,0.41 0.2,0.45 1.04,-0.02 3.28,-0.3 6.71,-0.85 0.22,-0.03 0.5,-0.16 0.84,-0.37 0.34,-0.21 0.56,-0.31 0.68,-0.31 0.31,0 0.61,0.12 0.88,0.36 0.27,0.25 0.41,0.55 0.41,0.9 z" />
    <use
       id="52"
       href="#53"
       xlink:href="#53"
       transform="translate(19.98,30.94)"
       x="0"
       y="0"
       width="100%"
       height="100%" />
    <path
       id="55"
       d="m 23.39,2.93 c 0.04,0.68 0.11,1.17 0.21,1.47 0.1,0.3 0.23,0.53 0.38,0.69 0.15,0.16 0.22,0.33 0.22,0.52 0,0.3 -0.12,0.51 -0.38,0.65 -0.25,0.13 -0.51,0.2 -0.77,0.2 -0.59,0 -1.08,-0.17 -1.48,-0.52 -0.4,-0.34 -0.6,-0.84 -0.6,-1.49 0,-2.86 0.02,-5.19 0.07,-7 l 0.07,-3.04 c 0.07,-2.11 0.1,-3.57 0.1,-4.37 -1.85,4.95 -3.88,8.73 -6.1,11.36 C 12.89,4.02 10.38,5.34 7.58,5.34 5.47,5.34 3.92,4.69 2.94,3.39 1.95,2.09 1.46,0.11 1.46,-2.55 c 0,-3.51 0.79,-6.94 2.37,-10.3 1.58,-3.36 3.63,-6.1 6.14,-8.23 2.51,-2.13 5.07,-3.2 7.67,-3.2 0.93,0 1.56,0.29 1.89,0.87 0.33,0.58 0.49,1.17 0.49,1.75 0,0.6 -0.07,1.11 -0.2,1.54 -0.13,0.43 -0.35,0.64 -0.65,0.64 -0.29,0 -0.47,-0.15 -0.55,-0.45 -0.09,-0.29 -0.16,-0.7 -0.23,-1.24 -0.06,-0.44 -0.15,-0.75 -0.26,-0.92 -0.11,-0.16 -0.31,-0.25 -0.59,-0.25 -2,0 -4.08,1 -6.24,3 -2.17,2 -3.97,4.53 -5.41,7.6 -1.44,3.07 -2.16,6.06 -2.16,8.99 0,1.83 0.29,3.23 0.87,4.21 0.58,0.98 1.61,1.46 3.11,1.46 1.67,0 3.25,-0.67 4.72,-2.01 1.47,-1.34 2.8,-3.02 3.99,-5.04 1.18,-2.02 2.58,-4.55 4.18,-7.57 -0.88,0.23 -2.28,0.65 -4.2,1.27 -0.91,0.31 -1.37,0.46 -1.37,0.46 l -1.31,0.43 c -0.91,0.32 -1.64,0.55 -2.18,0.71 -0.55,0.15 -1,0.23 -1.38,0.23 -0.36,0 -0.63,-0.15 -0.8,-0.44 -0.17,-0.3 -0.25,-0.6 -0.25,-0.92 0,-0.46 0.5,-0.86 1.5,-1.22 1.01,-0.35 2.45,-0.74 4.34,-1.15 0.71,-0.16 1.74,-0.43 3.1,-0.81 0.16,-0.05 0.84,-0.23 2.04,-0.54 1.2,-0.31 2.04,-0.46 2.51,-0.46 0.05,0 0.21,0 0.5,0 0.29,0 0.5,0.12 0.63,0.37 0.13,0.25 0.2,0.58 0.2,0.99 0,0.33 -0.14,0.58 -0.42,0.74 l -0.03,2.43 c -0.06,1.68 -0.09,3.6 -0.09,5.77 v 4.83 z" />
    <use
       id="54"
       href="#55"
       xlink:href="#55"
       transform="translate(43.802,30.94)"
       x="0"
       y="0"
       width="100%"
       height="100%" />
    <path
       id="57"
       d="m 20.84,-0.38 c 0,0.37 -0.56,0.55 -1.67,0.55 -0.27,0 -1.4,-1.24 -3.39,-3.71 -1.99,-2.47 -3.63,-4.58 -4.91,-6.32 -0.21,-0.29 -0.79,-1.12 -1.74,-2.49 -1.42,-2.07 -2.1,-3.28 -2.06,-3.63 L 7.03,-13.7 7,-11.49 C 7,-9.84 6.98,-8.03 6.94,-6.05 6.91,-4.07 6.87,-2.51 6.82,-1.38 6.79,-1.04 6.64,-0.72 6.37,-0.43 6.09,-0.14 5.79,0 5.47,0 5.1,0 4.83,-0.11 4.68,-0.33 4.53,-0.56 4.45,-0.92 4.45,-1.43 c 0,-0.28 0.04,-1.13 0.13,-2.53 0.21,-2.61 0.31,-4.79 0.31,-6.55 0,-1.41 0.02,-2.74 0.07,-4 0.04,-1.26 0.07,-2.04 0.07,-2.33 l 0.03,-0.98 v -0.1 c 0,-0.3 0.06,-0.56 0.18,-0.78 0.12,-0.23 0.38,-0.34 0.77,-0.34 h 0.17 c 0.36,0 0.93,0.47 1.69,1.4 0.77,0.94 1.72,2.16 2.84,3.69 0.28,0.36 0.54,0.69 0.75,0.98 0.22,0.3 0.44,0.6 0.67,0.9 1.27,1.62 1.95,2.49 2.04,2.61 3.21,4.09 4.75,6.36 4.63,6.81 -0.05,0.1 -0.12,-0.18 -0.24,-0.84 -0.11,-0.65 -0.22,-1.52 -0.32,-2.6 -0.11,-1.08 -0.16,-2.2 -0.16,-3.36 0,-1.99 -0.19,-4.63 -0.57,-7.91 -0.12,-1.12 -0.18,-1.81 -0.18,-2.09 0,-1.06 0.6,-1.6 1.81,-1.6 0.4,0 0.67,0.28 0.81,0.83 0.13,0.54 0.22,1.6 0.27,3.18 0.05,1.57 0.07,3.94 0.07,7.11 0,1.07 0.04,2.1 0.12,3.07 0.08,0.98 0.15,1.84 0.21,2.59 0.12,1.11 0.18,2 0.18,2.65 z" />
    <use
       id="56"
       href="#57"
       xlink:href="#57"
       transform="translate(69.732,30.94)"
       x="0"
       y="0"
       width="100%"
       height="100%" />
    <path
       id="59"
       d="m 20.9,-10.95 c 0,0.2 -0.05,0.42 -0.15,0.66 -0.11,0.24 -0.25,0.42 -0.44,0.54 -0.18,0.16 -0.54,0.3 -1.08,0.41 -0.54,0.11 -0.79,0.16 -0.77,0.15 -0.05,0.64 -0.19,0.85 -0.41,0.62 0.6,0.74 1,1.75 1.19,3.03 0.41,2.06 0.82,3.88 1.25,5.48 0.12,0.53 0.18,0.85 0.18,0.94 0,0.34 -0.13,0.61 -0.38,0.83 -0.25,0.22 -0.54,0.33 -0.88,0.33 -0.34,0 -0.62,-0.15 -0.85,-0.44 -0.23,-0.3 -0.38,-0.56 -0.46,-0.78 -0.22,-0.83 -0.41,-1.69 -0.57,-2.59 -0.16,-0.9 -0.36,-2.04 -0.59,-3.41 -0.1,-0.63 -0.25,-1.38 -0.45,-2.24 -0.21,-0.87 -0.32,-1.35 -0.33,-1.45 -1.1,0.17 -3.29,0.53 -6.59,1.08 l -1.78,0.31 -0.64,1.82 -1,2.83 C 5.4,-0.49 4.85,1.38 4.49,2.79 4.42,3.13 4.25,3.43 4,3.71 3.74,3.98 3.41,4.11 3.02,4.11 2.69,4.11 2.4,4.02 2.16,3.82 1.92,3.63 1.8,3.35 1.8,2.99 1.8,2.71 1.93,2.16 2.21,1.35 2.48,0.54 2.64,0.05 2.69,-0.12 2.79,-0.36 2.97,-0.88 3.24,-1.69 3.56,-2.64 3.94,-3.7 4.39,-4.87 4.84,-6.03 5.14,-6.73 5.3,-6.97 4.41,-6.7 3.72,-6.49 3.23,-6.36 2.28,-6.11 1.69,-5.98 1.46,-5.98 1.08,-5.98 0.81,-6.12 0.63,-6.39 0.46,-6.66 0.37,-6.95 0.37,-7.24 c 0,-0.37 0.09,-0.63 0.29,-0.77 0.19,-0.14 0.47,-0.27 0.85,-0.38 0.84,-0.2 1.73,-0.4 2.69,-0.6 0.95,-0.2 1.57,-0.33 1.85,-0.38 0.18,-0.52 0.33,-1.01 0.44,-1.47 0.09,-0.26 0.21,-0.62 0.36,-1.09 0.15,-0.46 0.32,-1.04 0.52,-1.75 L 7.9,-15.5 c 0.85,-3 1.33,-4.67 1.44,-5.02 0.13,-0.35 0.26,-0.65 0.4,-0.9 0.14,-0.25 0.37,-0.37 0.69,-0.37 0.49,0 0.87,0.05 1.13,0.17 -0.07,0.05 -0.05,0 0.06,-0.17 0.12,-0.16 0.26,-0.28 0.44,-0.36 0.17,-0.08 0.39,-0.12 0.65,-0.12 0.54,0 1.1,0.5 1.67,1.49 0.57,0.99 1.1,2.13 1.6,3.4 0.31,0.77 0.68,1.88 1.12,3.34 0.45,1.45 0.72,2.36 0.82,2.72 0.12,-0.02 0.3,-0.06 0.52,-0.14 0.23,-0.08 0.37,-0.12 0.42,-0.14 0.08,-0.03 0.19,-0.1 0.32,-0.21 0.13,-0.11 0.29,-0.21 0.47,-0.3 0.18,-0.09 0.38,-0.07 0.62,0.04 0.42,0.19 0.63,0.57 0.63,1.12 z m -5.13,-0.01 c -0.11,-0.18 -0.34,-0.92 -0.7,-2.21 -0.36,-1.3 -0.67,-2.29 -0.94,-2.96 -0.36,-0.95 -0.78,-1.86 -1.26,-2.71 -0.48,-0.86 -0.76,-1.36 -0.83,-1.53 l -0.24,0.75 c -0.41,0.83 -0.75,1.63 -1,2.4 -0.49,1.41 -1.33,3.91 -2.51,7.5 l 3.51,-0.63 3.34,-0.53 z" />
    <use
       id="58"
       href="#59"
       xlink:href="#59"
       transform="translate(94.472,30.94)"
       x="0"
       y="0"
       width="100%"
       height="100%" />
    <path
       id="61"
       d="m 24.27,-21.11 c 0,0.26 -0.11,0.52 -0.33,0.79 -0.22,0.26 -0.5,0.4 -0.86,0.4 -0.12,0 -0.37,-0.07 -0.77,-0.19 -0.4,-0.13 -0.74,-0.19 -1.03,-0.19 -1.07,0 -2.29,0.06 -3.66,0.17 -1.37,0.11 -2.42,0.25 -3.14,0.41 0.06,0.89 0.12,2.55 0.18,4.98 0.06,2.43 0.09,4.86 0.09,7.29 0,0.96 -0.02,2.15 -0.05,3.57 -0.04,1.42 -0.1,2.32 -0.18,2.68 -0.05,0.31 -0.24,0.56 -0.57,0.76 -0.33,0.2 -0.67,0.3 -1,0.3 -0.27,0 -0.49,-0.1 -0.66,-0.31 -0.17,-0.2 -0.26,-0.44 -0.26,-0.71 l 0.04,-1.22 c 0.13,-1.76 0.2,-3.92 0.2,-6.49 0,-1.86 -0.02,-3.97 -0.07,-6.35 -0.04,-2.38 -0.08,-3.76 -0.11,-4.13 -4.28,0.5 -7.17,0.96 -8.67,1.39 -0.29,0.09 -0.63,0.14 -1.01,0.14 -0.49,0 -0.96,-0.17 -1.42,-0.52 -0.46,-0.35 -0.69,-0.76 -0.69,-1.21 0,-0.32 0.1,-0.56 0.31,-0.72 0.21,-0.15 0.48,-0.23 0.81,-0.23 1.22,-0.07 2.26,-0.13 3.13,-0.2 2.01,-0.18 4.46,-0.45 7.34,-0.81 0,-0.55 0.03,-1.02 0.07,-1.41 0.05,-0.38 0.23,-0.57 0.55,-0.57 0.53,0 0.99,0.2 1.39,0.6 0.12,0.12 0.21,0.34 0.26,0.67 0.05,0.32 0.08,0.42 0.08,0.29 0.24,0 0.97,-0.11 2.17,-0.34 2.39,-0.36 4.05,-0.54 4.97,-0.54 1.17,0 1.96,0.15 2.38,0.47 0.34,0.25 0.51,0.66 0.51,1.23 z" />
    <use
       id="60"
       href="#61"
       xlink:href="#61"
       transform="translate(116.9,30.94)"
       x="0"
       y="0"
       width="100%"
       height="100%" />
    <path
       id="63"
       d="m 22.37,-0.75 c 0,0.38 -0.15,0.69 -0.45,0.95 -0.3,0.25 -0.66,0.38 -1.08,0.38 -0.61,0 -1.12,-0.52 -1.53,-1.56 -0.41,-1.03 -0.66,-2.07 -0.75,-3.1 -0.09,-0.88 -0.18,-2.9 -0.27,-6.07 -0.05,-1.3 -0.05,-2.01 0,-2.12 -1.21,3.68 -2.83,7 -4.88,9.93 C 11.36,0.6 9.39,2.07 7.51,2.07 6.49,2.07 5.64,1.51 4.95,0.37 4.27,-0.76 3.75,-2.25 3.4,-4.08 3.06,-5.91 2.88,-7.92 2.88,-10.1 c 0,-1.76 0.11,-3.75 0.31,-5.97 0.21,-2.23 0.46,-3.81 0.75,-4.75 0.11,-0.37 0.28,-0.66 0.5,-0.88 0.22,-0.22 0.49,-0.33 0.82,-0.33 0.8,0 1.19,0.32 1.19,0.95 0,0.09 -0.21,0.92 -0.64,2.48 -0.43,1.56 -0.65,4.48 -0.65,8.74 0,2.82 0.25,5.09 0.76,6.82 0.51,1.73 1.16,2.6 1.96,2.6 0.84,0 1.9,-0.75 3.17,-2.25 1.27,-1.5 2.5,-3.33 3.68,-5.47 1.19,-2.14 2.04,-4 2.57,-5.56 0.36,-1.23 0.6,-3.03 0.71,-5.41 0.08,-1 0.17,-1.55 0.28,-1.66 0.22,-0.29 0.57,-0.43 1.05,-0.43 0.63,0 0.95,0.66 0.95,1.98 0,1.5 0.04,4.07 0.12,7.72 0.08,3.64 0.17,5.96 0.28,6.97 0.09,0.8 0.25,1.43 0.48,1.89 0.22,0.45 0.48,0.84 0.77,1.18 0.28,0.33 0.43,0.58 0.43,0.73 z" />
    <use
       id="62"
       href="#63"
       xlink:href="#63"
       transform="translate(142.15,30.94)"
       x="0"
       y="0"
       width="100%"
       height="100%" />
    <path
       id="65"
       d="m 22.54,-2.86 c 0,0.34 -0.14,0.74 -0.42,1.21 -0.27,0.46 -0.6,0.7 -0.98,0.7 -0.27,0 -0.52,-0.05 -0.75,-0.13 C 20.16,-1.17 19.8,-1.35 19.3,-1.63 17.95,-2.42 16.14,-3.21 13.86,-3.99 12.83,-4.33 11.64,-4.69 10.28,-5.06 8.92,-5.43 7.96,-5.7 7.41,-5.88 l 0.23,4.03 c 0.02,0.59 0.1,1.1 0.24,1.53 0.14,0.42 0.21,0.7 0.21,0.83 0,0.37 -0.17,0.67 -0.5,0.89 C 7.27,1.62 6.93,1.73 6.59,1.73 6.06,1.73 5.73,1.39 5.6,0.72 5.6,0.68 5.58,0.48 5.52,0.12 5.46,-0.24 5.43,-0.77 5.43,-1.46 5.43,-1.87 5.39,-2.78 5.3,-4.16 5.28,-4.66 5.25,-5.13 5.23,-5.57 5.21,-6.01 5.2,-6.36 5.2,-6.62 5.17,-6.64 5.11,-6.7 5,-6.8 4.9,-6.89 4.8,-7.04 4.7,-7.26 4.63,-7.48 4.57,-7.71 4.52,-7.95 4.47,-8.2 4.45,-8.39 4.45,-8.53 c 0,-0.24 0.06,-0.42 0.19,-0.55 0.12,-0.12 0.24,-0.22 0.35,-0.29 -0.13,-5.56 -0.2,-8.75 -0.2,-9.57 0,-0.73 0.01,-1.4 0.03,-2.02 0.02,-0.61 0.04,-0.9 0.04,-0.87 0.15,0.02 -0.12,0.08 -0.82,0.17 -0.69,0.09 -1.2,0.17 -1.54,0.25 -1.49,0.35 -2.61,0.67 -3.35,0.97 -0.74,0.3 -1.46,0.64 -2.15,1.02 -0.21,0.14 -0.43,0.26 -0.65,0.35 -0.22,0.09 -0.44,0.13 -0.67,0.13 -0.29,0 -0.54,-0.12 -0.73,-0.36 -0.2,-0.25 -0.29,-0.53 -0.29,-0.86 0,-0.57 0.76,-1.15 2.29,-1.74 1.52,-0.6 3.15,-1.08 4.87,-1.45 0.96,-0.2 2.19,-0.38 3.69,-0.53 1.5,-0.15 2.88,-0.23 4.14,-0.23 2.21,0 4.11,0.25 5.69,0.74 1.57,0.49 2.78,1.19 3.61,2.11 0.83,0.91 1.24,1.96 1.24,3.14 0,1.5 -0.43,2.79 -1.29,3.86 -0.85,1.07 -1.97,1.99 -3.35,2.76 -1.38,0.76 -3.23,1.62 -5.55,2.58 -0.56,0.26 -1.14,0.5 -1.73,0.73 -0.59,0.24 -0.91,0.36 -0.97,0.39 0,-0.04 -0.01,-0.09 -0.04,-0.17 2.35,0.52 4.7,1.13 7.07,1.83 l 0.81,0.23 c 2.42,0.73 4.26,1.32 5.51,1.77 1.26,0.45 1.89,0.87 1.89,1.28 z m -4.73,-15.26 c 0,-0.65 -0.3,-1.26 -0.91,-1.85 -0.6,-0.58 -1.55,-1.07 -2.83,-1.45 -1.29,-0.39 -2.85,-0.58 -4.69,-0.58 -1.38,0 -2.17,0.01 -2.36,0.04 0,0 -0.01,0.27 -0.04,0.81 -0.03,0.54 -0.05,1.2 -0.05,1.98 l 0.13,5.22 0.13,3.89 c -0.06,0 0.2,-0.09 0.77,-0.27 0.58,-0.19 1.08,-0.37 1.49,-0.56 2.84,-1.14 4.94,-2.27 6.31,-3.4 1.37,-1.12 2.05,-2.4 2.05,-3.83 z" />
    <use
       id="64"
       href="#65"
       xlink:href="#65"
       transform="translate(165.462,30.94)"
       x="0"
       y="0"
       width="100%"
       height="100%" />
    <path
       id="67"
       d="m 20.33,-22.03 c 0,0.41 -0.25,0.74 -0.74,1 -0.65,0.36 -1.63,0.74 -2.94,1.12 -1.3,0.39 -2.39,0.66 -3.27,0.83 -1.34,0.25 -2.66,0.45 -3.98,0.6 -1.31,0.15 -2.07,0.23 -2.27,0.24 0.02,1.09 0.06,2.34 0.1,3.73 0.05,1.39 0.08,2.24 0.09,2.54 0.66,-0.09 1.9,-0.3 3.72,-0.64 l 1.07,-0.15 c 1.43,-0.25 2.51,-0.69 3.25,-1.32 0.46,-0.36 0.82,-0.54 1.09,-0.54 0.29,0 0.51,0.13 0.66,0.38 0.15,0.25 0.22,0.48 0.22,0.71 0,0.54 -0.49,1.08 -1.48,1.61 -0.99,0.52 -2.04,0.9 -3.14,1.12 -0.99,0.22 -2.06,0.42 -3.2,0.6 -1.14,0.18 -1.81,0.28 -2,0.3 0.13,3.64 0.5,6.34 1.12,8.11 0.53,0.18 1.1,0.32 1.71,0.42 0.62,0.1 1.42,0.15 2.4,0.15 0.97,0 1.89,-0.13 2.76,-0.38 0.86,-0.25 1.55,-0.54 2.04,-0.89 0.5,-0.34 0.75,-0.64 0.75,-0.88 0,-0.13 -0.03,-0.26 -0.09,-0.41 -0.06,-0.14 -0.14,-0.29 -0.24,-0.45 -0.07,-0.11 -0.15,-0.24 -0.26,-0.39 -0.11,-0.15 -0.16,-0.31 -0.16,-0.48 0,-0.43 0.36,-0.65 1.09,-0.65 0.47,0 0.86,0.19 1.18,0.57 0.32,0.37 0.48,0.78 0.48,1.2 0,0.82 -0.34,1.6 -1.04,2.36 -0.69,0.75 -1.62,1.36 -2.78,1.82 C 15.3,0.65 14.01,0.88 12.61,0.88 11.19,0.88 10.02,0.81 9.1,0.65 8.18,0.5 7.47,0.19 6.98,-0.28 6.37,-0.97 5.95,-2.09 5.73,-3.63 5.51,-5.18 5.33,-7.13 5.19,-9.49 4.99,-9.37 4.63,-9.28 4.1,-9.2 3.57,-9.12 3.15,-9.08 2.85,-9.08 2.48,-9.08 2.18,-9.19 1.94,-9.43 1.71,-9.66 1.59,-9.95 1.59,-10.3 c 0,-0.21 0.05,-0.4 0.13,-0.58 0.09,-0.17 0.26,-0.29 0.5,-0.33 0.74,-0.09 1.28,-0.15 1.62,-0.17 l 1.19,-0.14 c -0.09,-2.71 -0.18,-4.89 -0.26,-6.53 -0.1,0 -0.25,0.01 -0.45,0.03 l -1.6,0.03 c -0.31,0 -0.55,-0.08 -0.73,-0.26 -0.17,-0.18 -0.26,-0.38 -0.26,-0.62 0,-0.7 0.45,-1.16 1.34,-1.38 0.26,-0.05 0.62,-0.1 1.07,-0.16 0.45,-0.06 0.69,-0.09 0.73,-0.09 0.43,-0.48 0.96,-0.72 1.58,-0.72 0.25,0 0.42,0.12 0.51,0.36 0.09,0.24 0.14,0.29 0.14,0.15 1.23,-0.04 2.88,-0.19 4.95,-0.47 1.34,-0.18 3.41,-0.6 6.22,-1.27 l 1.35,-0.3 c 0.47,0 0.71,0.24 0.71,0.72 z" />
    <use
       id="66"
       href="#67"
       xlink:href="#67"
       transform="translate(187.992,30.94)"
       x="0"
       y="0"
       width="100%"
       height="100%" />
    <filter
       style="color-interpolation-filters:sRGB"
       inkscape:label="Drop Shadow"
       id="filter326"
       x="-0.11693057"
       y="-0.16243288"
       width="1.3313033"
       height="1.4602265">
      <feFlood
         flood-opacity="0.498039"
         flood-color="rgb(0,0,0)"
         result="flood"
         id="feFlood316" />
      <feComposite
         in="flood"
         in2="SourceGraphic"
         operator="in"
         result="composite1"
         id="feComposite318" />
      <feGaussianBlur
         in="composite1"
         stdDeviation="3"
         result="blur"
         id="feGaussianBlur320" />
      <feOffset
         dx="6"
         dy="6"
         result="offset"
         id="feOffset322" />
      <feComposite
         in="SourceGraphic"
         in2="offset"
         operator="over"
         result="composite2"
         id="feComposite324" />
    </filter>
    <filter
       style="color-interpolation-filters:sRGB"
       inkscape:label="Drop Shadow"
       id="filter338"
       x="-0.013652007"
       y="-0.099554769"
       width="1.0386807"
       height="1.2820718">
      <feFlood
         flood-opacity="0.498039"
         flood-color="rgb(0,0,0)"
         result="flood"
         id="feFlood328" />
      <feComposite
         in="flood"
         in2="SourceGraphic"
         operator="in"
         result="composite1"
         id="feComposite330" />
      <feGaussianBlur
         in="composite1"
         stdDeviation="3"
         result="blur"
         id="feGaussianBlur332" />
      <feOffset
         dx="6"
         dy="6"
         result="offset"
         id="feOffset334" />
      <feComposite
         in="SourceGraphic"
         in2="offset"
         operator="over"
         result="composite2"
         id="feComposite336" />
    </filter>
    <filter
       style="color-interpolation-filters:sRGB"
       inkscape:label="Drop Shadow"
       id="filter350"
       x="-0.18750488"
       y="-0.068670183"
       width="1.5312638"
       height="1.1945655">
      <feFlood
         flood-opacity="0.498039"
         flood-color="rgb(0,0,0)"
         result="flood"
         id="feFlood340" />
      <feComposite
         in="flood"
         in2="SourceGraphic"
         operator="in"
         result="composite1"
         id="feComposite342" />
      <feGaussianBlur
         in="composite1"
         stdDeviation="3"
         result="blur"
         id="feGaussianBlur344" />
      <feOffset
         dx="6"
         dy="6"
         result="offset"
         id="feOffset346" />
      <feComposite
         in="SourceGraphic"
         in2="offset"
         operator="over"
         result="composite2"
         id="feComposite348" />
    </filter>
    <filter
       style="color-interpolation-filters:sRGB"
       inkscape:label="Drop Shadow"
       id="filter362"
       x="-0.037233438"
       y="-0.2502421"
       width="1.1034801"
       height="1.6954793">
      <feFlood
         flood-opacity="0.498039"
         flood-color="rgb(0,0,0)"
         result="flood"
         id="feFlood352" />
      <feComposite
         in="flood"
         in2="SourceGraphic"
         operator="in"
         result="composite1"
         id="feComposite354" />
      <feGaussianBlur
         in="composite1"
         stdDeviation="3"
         result="blur"
         id="feGaussianBlur356" />
      <feOffset
         dx="6"
         dy="6"
         result="offset"
         id="feOffset358" />
      <feComposite
         in="SourceGraphic"
         in2="offset"
         operator="over"
         result="composite2"
         id="feComposite360" />
    </filter>
    <filter
       style="color-interpolation-filters:sRGB"
       inkscape:label="Drop Shadow"
       id="filter374"
       x="-0.092718984"
       y="-0.21699819"
       width="1.2627038"
       height="1.6148282">
      <feFlood
         flood-opacity="0.498039"
         flood-color="rgb(0,0,0)"
         result="flood"
         id="feFlood364" />
      <feComposite
         in="flood"
         in2="SourceGraphic"
         operator="in"
         result="composite1"
         id="feComposite366" />
      <feGaussianBlur
         in="composite1"
         stdDeviation="3"
         result="blur"
         id="feGaussianBlur368" />
      <feOffset
         dx="6"
         dy="6"
         result="offset"
         id="feOffset370" />
      <feComposite
         in="SourceGraphic"
         in2="offset"
         operator="over"
         result="composite2"
         id="feComposite372" />
    </filter>
    <filter
       style="color-interpolation-filters:sRGB"
       inkscape:label="Drop Shadow"
       id="filter386"
       x="-0.030255152"
       y="-0.043627902"
       width="1.0857229"
       height="1.1236124">
      <feFlood
         flood-opacity="0.498039"
         flood-color="rgb(0,0,0)"
         result="flood"
         id="feFlood376" />
      <feComposite
         in="flood"
         in2="SourceGraphic"
         operator="in"
         result="composite1"
         id="feComposite378" />
      <feGaussianBlur
         in="composite1"
         stdDeviation="3"
         result="blur"
         id="feGaussianBlur380" />
      <feOffset
         dx="6"
         dy="6"
         result="offset"
         id="feOffset382" />
      <feComposite
         in="SourceGraphic"
         in2="offset"
         operator="over"
         result="composite2"
         id="feComposite384" />
    </filter>
    <filter
       style="color-interpolation-filters:sRGB"
       inkscape:label="Drop Shadow"
       id="filter398"
       x="-0.045021716"
       y="-0.23894715"
       width="1.1237998"
       height="1.6570523">
      <feFlood
         flood-opacity="0.498039"
         flood-color="rgb(0,0,0)"
         result="flood"
         id="feFlood388" />
      <feComposite
         in="flood"
         in2="SourceGraphic"
         operator="in"
         result="composite1"
         id="feComposite390" />
      <feGaussianBlur
         in="composite1"
         stdDeviation="3"
         result="blur"
         id="feGaussianBlur392" />
      <feOffset
         dx="6"
         dy="6"
         result="offset"
         id="feOffset394" />
      <feComposite
         in="SourceGraphic"
         in2="offset"
         operator="over"
         result="composite2"
         id="feComposite396" />
    </filter>
    <filter
       style="color-interpolation-filters:sRGB"
       inkscape:label="Drop Shadow"
       id="filter410"
       x="-0.21145374"
       y="-0.21157802"
       width="1.5991189"
       height="1.5994711">
      <feFlood
         flood-opacity="0.498039"
         flood-color="rgb(0,0,0)"
         result="flood"
         id="feFlood400" />
      <feComposite
         in="flood"
         in2="SourceGraphic"
         operator="in"
         result="composite1"
         id="feComposite402" />
      <feGaussianBlur
         in="composite1"
         stdDeviation="3"
         result="blur"
         id="feGaussianBlur404" />
      <feOffset
         dx="6"
         dy="6"
         result="offset"
         id="feOffset406" />
      <feComposite
         in="SourceGraphic"
         in2="offset"
         operator="over"
         result="composite2"
         id="feComposite408" />
    </filter>
    <filter
       style="color-interpolation-filters:sRGB"
       inkscape:label="Drop Shadow"
       id="filter422"
       x="-0.21145374"
       y="-0.21157802"
       width="1.5991189"
       height="1.5994711">
      <feFlood
         flood-opacity="0.498039"
         flood-color="rgb(0,0,0)"
         result="flood"
         id="feFlood412" />
      <feComposite
         in="flood"
         in2="SourceGraphic"
         operator="in"
         result="composite1"
         id="feComposite414" />
      <feGaussianBlur
         in="composite1"
         stdDeviation="3"
         result="blur"
         id="feGaussianBlur416" />
      <feOffset
         dx="6"
         dy="6"
         result="offset"
         id="feOffset418" />
      <feComposite
         in="SourceGraphic"
         in2="offset"
         operator="over"
         result="composite2"
         id="feComposite420" />
    </filter>
    <filter
       style="color-interpolation-filters:sRGB"
       inkscape:label="Drop Shadow"
       id="filter434"
       x="-0.14082354"
       y="-0.29188588"
       width="1.3913804"
       height="1.8112168">
      <feFlood
         flood-opacity="0.498039"
         flood-color="rgb(0,0,0)"
         result="flood"
         id="feFlood424" />
      <feComposite
         in="flood"
         in2="SourceGraphic"
         operator="in"
         result="composite1"
         id="feComposite426" />
      <feGaussianBlur
         in="composite1"
         stdDeviation="3"
         result="blur"
         id="feGaussianBlur428" />
      <feOffset
         dx="6"
         dy="6"
         result="offset"
         id="feOffset430" />
      <feComposite
         in="SourceGraphic"
         in2="offset"
         operator="over"
         result="composite2"
         id="feComposite432" />
    </filter>
    <filter
       style="color-interpolation-filters:sRGB"
       inkscape:label="Drop Shadow"
       id="filter446"
       x="-0.060161496"
       y="-0.29569699"
       width="1.1672024"
       height="1.8218087">
      <feFlood
         flood-opacity="0.498039"
         flood-color="rgb(0,0,0)"
         result="flood"
         id="feFlood436" />
      <feComposite
         in="flood"
         in2="SourceGraphic"
         operator="in"
         result="composite1"
         id="feComposite438" />
      <feGaussianBlur
         in="composite1"
         stdDeviation="3"
         result="blur"
         id="feGaussianBlur440" />
      <feOffset
         dx="6"
         dy="6"
         result="offset"
         id="feOffset442" />
      <feComposite
         in="SourceGraphic"
         in2="offset"
         operator="over"
         result="composite2"
         id="feComposite444" />
    </filter>
    <linearGradient
       inkscape:collect="always"
       xlink:href="#linearGradient3223"
       id="linearGradient3225"
       x1="-116.8"
       y1="-76.865997"
       x2="-28.626356"
       y2="67.023697"
       gradientUnits="userSpaceOnUse" />
  </defs>
</svg>
