<?xml version="1.0" encoding="UTF-8" standalone="no"?>
<svg
   width="1123.75"
   height="361.42"
   version="1.1"
   id="svg1518"
   sodipodi:docname="Transaction Lifecycle.svg"
   inkscape:version="1.1.2 (0a00cf5339, 2022-02-04, custom)"
   xmlns:inkscape="http://www.inkscape.org/namespaces/inkscape"
   xmlns:sodipodi="http://sodipodi.sourceforge.net/DTD/sodipodi-0.dtd"
   xmlns:xlink="http://www.w3.org/1999/xlink"
   xmlns="http://www.w3.org/2000/svg"
   xmlns:svg="http://www.w3.org/2000/svg"
   xmlns:lucid="lucid">
  <defs
     id="defs1522">
    <meshgradient
       inkscape:collect="always"
       id="meshgradient4015"
       gradientUnits="userSpaceOnUse"
       x="1.0601884"
       y="168.24007">
      <meshrow
         id="meshrow4017">
        <meshpatch
           id="meshpatch4019">
          <stop
             path="c 374.953,0  749.907,0  1124.86,0"
             style="stop-color:#ffffff;stop-opacity:1"
             id="stop4021" />
          <stop
             path="c 0,64.0747  0,128.149  0,192.224"
             style="stop-color:#d388e2;stop-opacity:1"
             id="stop4023" />
          <stop
             path="c -374.953,0  -749.907,0  -1124.86,0"
             style="stop-color:#ffffff;stop-opacity:1"
             id="stop4025" />
          <stop
             path="c 0,-64.0747  0,-128.149  0,-192.224"
             style="stop-color:#d388e2;stop-opacity:1"
             id="stop4027" />
        </meshpatch>
      </meshrow>
    </meshgradient>
    <filter
       style="color-interpolation-filters:sRGB;"
       inkscape:label="Drop Shadow"
       id="filter23408"
       x="-0.014267227"
       y="-0.083489224"
       width="1.0326974"
       height="1.1913395">
      <feFlood
         flood-opacity="0.498039"
         flood-color="rgb(0,0,0)"
         result="flood"
         id="feFlood23398" />
      <feComposite
         in="flood"
         in2="SourceGraphic"
         operator="in"
         result="composite1"
         id="feComposite23400" />
      <feGaussianBlur
         in="composite1"
         stdDeviation="6.68693"
         result="blur"
         id="feGaussianBlur23402" />
      <feOffset
         dx="4.68278"
         dy="4.68278"
         result="offset"
         id="feOffset23404" />
      <feComposite
         in="SourceGraphic"
         in2="offset"
         operator="over"
         result="composite2"
         id="feComposite23406" />
    </filter>
  </defs>
  <sodipodi:namedview
     id="namedview1520"
     pagecolor="#505050"
     bordercolor="#eeeeee"
     borderopacity="1"
     inkscape:pageshadow="0"
     inkscape:pageopacity="0"
     inkscape:pagecheckerboard="0"
     showgrid="false"
     inkscape:lockguides="true"
     inkscape:zoom="0.94322853"
     inkscape:cx="452.17037"
     inkscape:cy="200.37562"
     inkscape:window-width="2400"
     inkscape:window-height="1261"
     inkscape:window-x="-2409"
     inkscape:window-y="-462"
     inkscape:window-maximized="1"
     inkscape:current-layer="layer3" />
  <g
     inkscape:groupmode="layer"
     id="layer2"
     inkscape:label="bg">
    <rect
       style="fill:url(#meshgradient4015);stroke-width:1.10077;stroke-linecap:square;paint-order:stroke markers fill;fill-opacity:1;filter:url(#filter23408)"
       id="rect1933"
       width="1124.86"
       height="192.224"
       x="1.0601884"
       y="168.24007" />
    <text
       xml:space="preserve"
       style="font-size:40px;line-height:1.25;font-family:'MesloLGM NF';-inkscape-font-specification:'MesloLGM NF'"
       x="471.54019"
       y="351.59357"
       id="text11601"><tspan
         sodipodi:role="line"
         id="tspan11599"
         x="471.54019"
         y="351.59357"
         style="font-style:normal;font-variant:normal;font-weight:normal;font-stretch:normal;font-family:'Segoe UI Emoji';-inkscape-font-specification:'Segoe UI Emoji'">🕛</tspan></text>
    <g
       inkscape:groupmode="layer"
       id="layer3"
       inkscape:label="clocks"
       style="display:inline">
      <text
         xml:space="preserve"
         style="font-size:40px;line-height:1.25;font-family:'MesloLGM NF';-inkscape-font-specification:'MesloLGM NF'"
         x="41.981331"
         y="351.59357"
         id="text6278"><tspan
           sodipodi:role="line"
           id="tspan6276"
           x="41.981331"
           y="351.59357"
           style="font-style:normal;font-variant:normal;font-weight:normal;font-stretch:normal;font-family:'Segoe UI Emoji';-inkscape-font-specification:'Segoe UI Emoji'">🕛</tspan></text>
      <text
         xml:space="preserve"
         style="font-size:40px;line-height:1.25;font-family:'MesloLGM NF';-inkscape-font-specification:'MesloLGM NF'"
         x="146.18497"
         y="351.59357"
         id="text11597"><tspan
           sodipodi:role="line"
           id="tspan11595"
           x="146.18497"
           y="351.59357"
           style="font-style:normal;font-variant:normal;font-weight:normal;font-stretch:normal;font-family:'Segoe UI Emoji';-inkscape-font-specification:'Segoe UI Emoji'">🕐</tspan></text>
      <text
         xml:space="preserve"
         style="font-size:40px;line-height:1.25;font-family:'MesloLGM NF';-inkscape-font-specification:'MesloLGM NF'"
         x="471.54019"
         y="351.59357"
         id="text11605"><tspan
           sodipodi:role="line"
           id="tspan11603"
           x="471.54019"
           y="351.59357"
           style="font-style:normal;font-variant:normal;font-weight:normal;font-stretch:normal;font-family:'Segoe UI Emoji';-inkscape-font-specification:'Segoe UI Emoji'">🕑</tspan></text>
      <text
         xml:space="preserve"
         style="font-size:40px;line-height:1.25;font-family:'MesloLGM NF';-inkscape-font-specification:'MesloLGM NF'"
         x="798.39478"
         y="351.59357"
         id="text11609"><tspan
           sodipodi:role="line"
           id="tspan11607"
           x="798.39478"
           y="351.59357"
           style="font-style:normal;font-variant:normal;font-weight:normal;font-stretch:normal;font-family:'Segoe UI Emoji';-inkscape-font-specification:'Segoe UI Emoji'">🕒</tspan></text>
    </g>
  </g>
  <g
     inkscape:groupmode="layer"
     id="layer1"
     inkscape:label="Chart"
     sodipodi:insensitive="true">
    <g
       transform="translate(-44.167602,-280)"
       lucid:page-tab-id="0_0"
       id="g1516">
      <path
         d="M 137.26,360 H 280"
         stroke="#5e5e5e"
         stroke-width="2"
         fill="none"
         id="path1174" />
      <path
         d="m 137.28,361 h -1.14 l 0.12,-0.97 -0.1,-1.03 h 1.12 z"
         stroke="#5e5e5e"
         stroke-width="0.05"
         fill="#5e5e5e"
         id="path1176" />
      <path
         d="M 295.26,360 281,364.64 v -9.28 z"
         stroke="#5e5e5e"
         stroke-width="2"
         fill="#5e5e5e"
         id="path1178" />
      <use
         xlink:href="#a"
         transform="translate(160.87792,306.22222)"
         id="use1180"
         x="0"
         y="0"
         width="100%"
         height="100%" />
      <use
         xlink:href="#b"
         transform="translate(226.90261,306.22222)"
         id="use1182"
         x="0"
         y="0"
         width="100%"
         height="100%" />
      <use
         xlink:href="#c"
         transform="translate(160.87792,327.55556)"
         id="use1184"
         x="0"
         y="0"
         width="100%"
         height="100%" />
      <use
         xlink:href="#d"
         transform="translate(207.19891,327.55556)"
         id="use1186"
         x="0"
         y="0"
         width="100%"
         height="100%" />
      <use
         xlink:href="#e"
         transform="translate(160.87792,348.88889)"
         id="use1188"
         x="0"
         y="0"
         width="100%"
         height="100%" />
      <use
         xlink:href="#f"
         transform="translate(192.38409,348.88889)"
         id="use1190"
         x="0"
         y="0"
         width="100%"
         height="100%" />
      <path
         d="m 300,306 c 0,-3.3 2.7,-6 6,-6 h 148 c 3.3,0 6,2.7 6,6 v 108 c 0,3.3 -2.7,6 -6,6 H 306 c -3.3,0 -6,-2.7 -6,-6 z"
         stroke="#5e5e5e"
         stroke-width="3"
         fill="#ffffff"
         id="path1192" />
      <use
         xlink:href="#g"
         transform="translate(340.52469,365.77778)"
         id="use1194"
         x="0"
         y="0"
         width="100%"
         height="100%" />
      <path
         d="M 462.5,360 H 606.66"
         stroke="#5e5e5e"
         stroke-width="2"
         fill="none"
         id="path1196" />
      <path
         d="m 462.53,361 h -1.03 v -2 h 1.03 z"
         stroke="#5e5e5e"
         stroke-width="0.05"
         fill="#5e5e5e"
         id="path1198" />
      <path
         d="m 621.93,360 -14.27,4.64 v -9.28 z"
         stroke="#5e5e5e"
         stroke-width="2"
         fill="#5e5e5e"
         id="path1200" />
      <use
         xlink:href="#h"
         transform="translate(506.88889,327.55556)"
         id="use1202"
         x="0"
         y="0"
         width="100%"
         height="100%" />
      <use
         xlink:href="#i"
         transform="translate(548.2716,327.55556)"
         id="use1204"
         x="0"
         y="0"
         width="100%"
         height="100%" />
      <use
         xlink:href="#e"
         transform="translate(506.88889,348.88889)"
         id="use1206"
         x="0"
         y="0"
         width="100%"
         height="100%" />
      <use
         xlink:href="#f"
         transform="translate(538.39506,348.88889)"
         id="use1208"
         x="0"
         y="0"
         width="100%"
         height="100%" />
      <path
         d="m 626.67,306 c 0,-3.3 2.68,-6 6,-6 h 148 c 3.3,0 6,2.7 6,6 v 108 c 0,3.3 -2.7,6 -6,6 h -148 c -3.32,0 -6,-2.7 -6,-6 z"
         stroke="#5e5e5e"
         stroke-width="3"
         fill="#ffffff"
         id="path1210" />
      <use
         xlink:href="#j"
         transform="translate(651.82099,365.77778)"
         id="use1212"
         x="0"
         y="0"
         width="100%"
         height="100%" />
      <use
         xlink:href="#k"
         transform="translate(675.21605,365.77778)"
         id="use1214"
         x="0"
         y="0"
         width="100%"
         height="100%" />
      <path
         d="M 789.17,360 H 933.33"
         stroke="#5e5e5e"
         stroke-width="2"
         fill="none"
         id="path1216" />
      <path
         d="m 789.2,361 h -1.03 v -2 h 1.02 z"
         stroke="#5e5e5e"
         stroke-width="0.05"
         fill="#5e5e5e"
         id="path1218" />
      <path
         d="m 948.6,360 -14.27,4.64 v -9.28 z"
         stroke="#5e5e5e"
         stroke-width="2"
         fill="#5e5e5e"
         id="path1220" />
      <use
         xlink:href="#l"
         transform="translate(838.91358,327.55556)"
         id="use1222"
         x="0"
         y="0"
         width="100%"
         height="100%" />
      <use
         xlink:href="#m"
         transform="translate(838.91358,348.88889)"
         id="use1224"
         x="0"
         y="0"
         width="100%"
         height="100%" />
      <path
         d="m 953.33,306 c 0,-3.3 2.7,-6 6,-6 h 148 c 3.32,0 6,2.7 6,6 v 108 c 0,3.3 -2.68,6 -6,6 h -148 c -3.3,0 -6,-2.7 -6,-6 z"
         stroke="#5e5e5e"
         stroke-width="3"
         fill="#ffffff"
         id="path1226" />
      <use
         xlink:href="#n"
         transform="translate(981.51235,365.77778)"
         id="use1228"
         x="0"
         y="0"
         width="100%"
         height="100%" />
      <path
         d="m 134.75,360 c 0,11.78 -9.55,21.33 -21.33,21.33 -11.78,0 -21.34,-9.55 -21.34,-21.33 0,-11.78 9.56,-21.33 21.34,-21.33 11.78,0 21.33,9.55 21.33,21.33 z"
         stroke="#5e5e5e"
         stroke-width="3"
         fill="#ffffff"
         id="path1230" />
      <use
         xlink:href="#o"
         transform="translate(105.07028,365.56944)"
         id="use1232"
         x="0"
         y="0"
         width="100%"
         height="100%" />
      <path
         d="m 64.17,387.33 c 0,-3.3 2.68,-6 6,-6 h 86.5 c 3.3,0 6,2.7 6,6 V 400 c 0,3.3 -2.7,6 -6,6 h -86.5 c -3.32,0 -6,-2.7 -6,-6 z"
         stroke="#000000"
         stroke-opacity="0"
         stroke-width="3"
         fill="#ffffff"
         fill-opacity="0"
         id="path1234" />
      <use
         xlink:href="#p"
         transform="translate(70.389824,402.33333)"
         id="use1236"
         x="0"
         y="0"
         width="100%"
         height="100%" />
      <g
         fill="none"
         id="g1242">
        <path
           d="m 294,536.08 c 3.3,0 6,2.7 6,6 v 68 c 0,3.3 -2.7,6 -6,6 H 140.75 c -3.3,0 -6,-2.7 -6,-6 v -68 c 0,-3.3 2.7,-6 6,-6 z"
           id="path1238" />
        <path
           d="m 134.75,536.08 c 0,5.52 4.48,10 10,10 h 62.63 c 5.52,0 10,4.48 10,10 0,-5.52 4.47,-10 10,-10 H 290 c 5.52,0 10,-4.48 10,-10"
           stroke="#5e5e5e"
           stroke-width="3"
           id="path1240" />
      </g>
      <use
         xlink:href="#q"
         transform="translate(192.3801,588.85854)"
         id="use1244"
         x="0"
         y="0"
         width="100%"
         height="100%" />
      <use
         xlink:href="#r"
         transform="translate(211.63936,588.85854)"
         id="use1246"
         x="0"
         y="0"
         width="100%"
         height="100%" />
      <use
         xlink:href="#s"
         transform="translate(230.77516,588.85854)"
         id="use1248"
         x="0"
         y="0"
         width="100%"
         height="100%" />
      <path
         d="m 120.5,520.7 c 0,-0.27 0.22,-0.5 0.5,-0.5 h 1025.92 c 0.27,0 0.5,0.23 0.5,0.5 0,0.28 -0.23,0.5 -0.5,0.5 H 121 c -0.28,0 -0.5,-0.22 -0.5,-0.5 z"
         fill="none"
         id="path1250" />
      <path
         d="m 121,520.7 c 0,0.28 -0.22,0.5 -0.5,0.5 -0.28,0 -0.5,-0.22 -0.5,-0.5 0,-0.27 0.22,-0.5 0.5,-0.5 0.28,0 0.5,0.23 0.5,0.5 z m 8.5,-0.5 c 0,0.28 -0.2,0.5 -0.5,0.5 -0.26,0 -0.5,-0.22 -0.5,-0.5 0,-0.27 0.24,-0.5 0.5,-0.5 0.3,0 0.5,0.23 0.5,0.5 z m 8.03,0 c 0,0.28 -0.22,0.5 -0.5,0.5 -0.28,0 -0.5,-0.22 -0.5,-0.5 0,-0.27 0.22,-0.5 0.5,-0.5 0.28,0 0.5,0.23 0.5,0.5 z m 8,0 c 0,0.28 -0.2,0.5 -0.5,0.5 -0.26,0 -0.5,-0.22 -0.5,-0.5 0,-0.27 0.24,-0.5 0.5,-0.5 0.3,0 0.5,0.23 0.5,0.5 z m 8.03,0 c 0,0.28 -0.22,0.5 -0.5,0.5 -0.28,0 -0.5,-0.22 -0.5,-0.5 0,-0.27 0.22,-0.5 0.5,-0.5 0.28,0 0.5,0.23 0.5,0.5 z m 8,0 c 0,0.28 -0.2,0.5 -0.5,0.5 -0.26,0 -0.5,-0.22 -0.5,-0.5 0,-0.27 0.24,-0.5 0.5,-0.5 0.3,0 0.5,0.23 0.5,0.5 z m 8.03,0 c 0,0.28 -0.23,0.5 -0.5,0.5 -0.3,0 -0.5,-0.22 -0.5,-0.5 0,-0.27 0.2,-0.5 0.5,-0.5 0.27,0 0.5,0.23 0.5,0.5 z m 8,0 c 0,0.28 -0.22,0.5 -0.5,0.5 -0.27,0 -0.5,-0.22 -0.5,-0.5 0,-0.27 0.23,-0.5 0.5,-0.5 0.28,0 0.5,0.23 0.5,0.5 z m 8.02,0 c 0,0.28 -0.22,0.5 -0.5,0.5 -0.28,0 -0.5,-0.22 -0.5,-0.5 0,-0.27 0.22,-0.5 0.5,-0.5 0.28,0 0.5,0.23 0.5,0.5 z m 8,0 c 0,0.28 -0.2,0.5 -0.5,0.5 -0.26,0 -0.5,-0.22 -0.5,-0.5 0,-0.27 0.24,-0.5 0.5,-0.5 0.3,0 0.5,0.23 0.5,0.5 z m 8.03,0 c 0,0.28 -0.22,0.5 -0.5,0.5 -0.28,0 -0.5,-0.22 -0.5,-0.5 0,-0.27 0.22,-0.5 0.5,-0.5 0.28,0 0.5,0.23 0.5,0.5 z m 8,0 c 0,0.28 -0.2,0.5 -0.5,0.5 -0.26,0 -0.5,-0.22 -0.5,-0.5 0,-0.27 0.24,-0.5 0.5,-0.5 0.3,0 0.5,0.23 0.5,0.5 z m 8.03,0 c 0,0.28 -0.22,0.5 -0.5,0.5 -0.28,0 -0.5,-0.22 -0.5,-0.5 0,-0.27 0.22,-0.5 0.5,-0.5 0.28,0 0.5,0.23 0.5,0.5 z m 8,0 c 0,0.28 -0.2,0.5 -0.5,0.5 -0.26,0 -0.5,-0.22 -0.5,-0.5 0,-0.27 0.24,-0.5 0.5,-0.5 0.3,0 0.5,0.23 0.5,0.5 z m 8.03,0 c 0,0.28 -0.2,0.5 -0.5,0.5 -0.27,0 -0.5,-0.22 -0.5,-0.5 0,-0.27 0.23,-0.5 0.5,-0.5 0.3,0 0.5,0.23 0.5,0.5 z m 8.02,0 c 0,0.28 -0.22,0.5 -0.5,0.5 -0.27,0 -0.5,-0.22 -0.5,-0.5 0,-0.27 0.23,-0.5 0.5,-0.5 0.28,0 0.5,0.23 0.5,0.5 z m 8.02,0 c 0,0.28 -0.22,0.5 -0.5,0.5 -0.28,0 -0.5,-0.22 -0.5,-0.5 0,-0.27 0.22,-0.5 0.5,-0.5 0.28,0 0.5,0.23 0.5,0.5 z m 8,0 c 0,0.28 -0.2,0.5 -0.5,0.5 -0.26,0 -0.5,-0.22 -0.5,-0.5 0,-0.27 0.24,-0.5 0.5,-0.5 0.3,0 0.5,0.23 0.5,0.5 z m 8.03,0 c 0,0.28 -0.22,0.5 -0.5,0.5 -0.28,0 -0.5,-0.22 -0.5,-0.5 0,-0.27 0.22,-0.5 0.5,-0.5 0.28,0 0.5,0.23 0.5,0.5 z m 8,0 c 0,0.28 -0.2,0.5 -0.5,0.5 -0.26,0 -0.5,-0.22 -0.5,-0.5 0,-0.27 0.24,-0.5 0.5,-0.5 0.3,0 0.5,0.23 0.5,0.5 z m 8.03,0 c 0,0.28 -0.22,0.5 -0.5,0.5 -0.28,0 -0.5,-0.22 -0.5,-0.5 0,-0.27 0.22,-0.5 0.5,-0.5 0.28,0 0.5,0.23 0.5,0.5 z m 8,0 c 0,0.28 -0.2,0.5 -0.5,0.5 -0.26,0 -0.5,-0.22 -0.5,-0.5 0,-0.27 0.24,-0.5 0.5,-0.5 0.3,0 0.5,0.23 0.5,0.5 z m 8.03,0 c 0,0.28 -0.22,0.5 -0.5,0.5 -0.28,0 -0.5,-0.22 -0.5,-0.5 0,-0.27 0.22,-0.5 0.5,-0.5 0.28,0 0.5,0.23 0.5,0.5 z m 8,0 c 0,0.28 -0.2,0.5 -0.5,0.5 -0.26,0 -0.5,-0.22 -0.5,-0.5 0,-0.27 0.24,-0.5 0.5,-0.5 0.3,0 0.5,0.23 0.5,0.5 z m 8.03,0 c 0,0.28 -0.22,0.5 -0.5,0.5 -0.28,0 -0.5,-0.22 -0.5,-0.5 0,-0.27 0.22,-0.5 0.5,-0.5 0.28,0 0.5,0.23 0.5,0.5 z m 8,0 c 0,0.28 -0.2,0.5 -0.5,0.5 -0.26,0 -0.5,-0.22 -0.5,-0.5 0,-0.27 0.24,-0.5 0.5,-0.5 0.3,0 0.5,0.23 0.5,0.5 z m 8.03,0 c 0,0.28 -0.23,0.5 -0.5,0.5 -0.3,0 -0.5,-0.22 -0.5,-0.5 0,-0.27 0.2,-0.5 0.5,-0.5 0.27,0 0.5,0.23 0.5,0.5 z m 8,0 c 0,0.28 -0.22,0.5 -0.5,0.5 -0.27,0 -0.5,-0.22 -0.5,-0.5 0,-0.27 0.23,-0.5 0.5,-0.5 0.28,0 0.5,0.23 0.5,0.5 z m 8.02,0 c 0,0.28 -0.22,0.5 -0.5,0.5 -0.28,0 -0.5,-0.22 -0.5,-0.5 0,-0.27 0.22,-0.5 0.5,-0.5 0.28,0 0.5,0.23 0.5,0.5 z m 8,0 c 0,0.28 -0.2,0.5 -0.5,0.5 -0.26,0 -0.5,-0.22 -0.5,-0.5 0,-0.27 0.24,-0.5 0.5,-0.5 0.3,0 0.5,0.23 0.5,0.5 z m 8.03,0 c 0,0.28 -0.22,0.5 -0.5,0.5 -0.28,0 -0.5,-0.22 -0.5,-0.5 0,-0.27 0.22,-0.5 0.5,-0.5 0.28,0 0.5,0.23 0.5,0.5 z m 8,0 c 0,0.28 -0.2,0.5 -0.5,0.5 -0.26,0 -0.5,-0.22 -0.5,-0.5 0,-0.27 0.24,-0.5 0.5,-0.5 0.3,0 0.5,0.23 0.5,0.5 z m 8.03,0 c 0,0.28 -0.22,0.5 -0.5,0.5 -0.28,0 -0.5,-0.22 -0.5,-0.5 0,-0.27 0.22,-0.5 0.5,-0.5 0.28,0 0.5,0.23 0.5,0.5 z m 8,0 c 0,0.28 -0.2,0.5 -0.5,0.5 -0.26,0 -0.5,-0.22 -0.5,-0.5 0,-0.27 0.24,-0.5 0.5,-0.5 0.3,0 0.5,0.23 0.5,0.5 z m 8.03,0 c 0,0.28 -0.2,0.5 -0.5,0.5 -0.27,0 -0.5,-0.22 -0.5,-0.5 0,-0.27 0.23,-0.5 0.5,-0.5 0.3,0 0.5,0.23 0.5,0.5 z m 8.02,0 c 0,0.28 -0.22,0.5 -0.5,0.5 -0.27,0 -0.5,-0.22 -0.5,-0.5 0,-0.27 0.23,-0.5 0.5,-0.5 0.28,0 0.5,0.23 0.5,0.5 z m 8.02,0 c 0,0.28 -0.22,0.5 -0.5,0.5 -0.28,0 -0.5,-0.22 -0.5,-0.5 0,-0.27 0.22,-0.5 0.5,-0.5 0.28,0 0.5,0.23 0.5,0.5 z m 8,0 c 0,0.28 -0.2,0.5 -0.5,0.5 -0.26,0 -0.5,-0.22 -0.5,-0.5 0,-0.27 0.24,-0.5 0.5,-0.5 0.3,0 0.5,0.23 0.5,0.5 z m 8.03,0 c 0,0.28 -0.22,0.5 -0.5,0.5 -0.28,0 -0.5,-0.22 -0.5,-0.5 0,-0.27 0.22,-0.5 0.5,-0.5 0.28,0 0.5,0.23 0.5,0.5 z m 8,0 c 0,0.28 -0.2,0.5 -0.5,0.5 -0.26,0 -0.5,-0.22 -0.5,-0.5 0,-0.27 0.24,-0.5 0.5,-0.5 0.3,0 0.5,0.23 0.5,0.5 z m 8.03,0 c 0,0.28 -0.23,0.5 -0.5,0.5 -0.28,0 -0.5,-0.22 -0.5,-0.5 0,-0.27 0.22,-0.5 0.5,-0.5 0.27,0 0.5,0.23 0.5,0.5 z m 8,0 c 0,0.28 -0.2,0.5 -0.5,0.5 -0.26,0 -0.5,-0.22 -0.5,-0.5 0,-0.27 0.24,-0.5 0.5,-0.5 0.3,0 0.5,0.23 0.5,0.5 z m 8.03,0 c 0,0.28 -0.23,0.5 -0.5,0.5 -0.28,0 -0.5,-0.22 -0.5,-0.5 0,-0.27 0.22,-0.5 0.5,-0.5 0.27,0 0.5,0.23 0.5,0.5 z m 8,0 c 0,0.28 -0.2,0.5 -0.5,0.5 -0.26,0 -0.5,-0.22 -0.5,-0.5 0,-0.27 0.24,-0.5 0.5,-0.5 0.3,0 0.5,0.23 0.5,0.5 z m 8.03,0 c 0,0.28 -0.23,0.5 -0.5,0.5 -0.28,0 -0.5,-0.22 -0.5,-0.5 0,-0.27 0.22,-0.5 0.5,-0.5 0.27,0 0.5,0.23 0.5,0.5 z m 8,0 c 0,0.28 -0.2,0.5 -0.5,0.5 -0.26,0 -0.5,-0.22 -0.5,-0.5 0,-0.27 0.24,-0.5 0.5,-0.5 0.3,0 0.5,0.23 0.5,0.5 z m 8.03,0 c 0,0.28 -0.24,0.5 -0.5,0.5 -0.3,0 -0.5,-0.22 -0.5,-0.5 0,-0.27 0.2,-0.5 0.5,-0.5 0.26,0 0.5,0.23 0.5,0.5 z m 8,0 c 0,0.28 -0.22,0.5 -0.5,0.5 -0.27,0 -0.5,-0.22 -0.5,-0.5 0,-0.27 0.23,-0.5 0.5,-0.5 0.28,0 0.5,0.23 0.5,0.5 z m 8.02,0 c 0,0.28 -0.23,0.5 -0.5,0.5 -0.28,0 -0.5,-0.22 -0.5,-0.5 0,-0.27 0.22,-0.5 0.5,-0.5 0.27,0 0.5,0.23 0.5,0.5 z m 8,0 c 0,0.28 -0.2,0.5 -0.5,0.5 -0.26,0 -0.5,-0.22 -0.5,-0.5 0,-0.27 0.24,-0.5 0.5,-0.5 0.3,0 0.5,0.23 0.5,0.5 z m 8.03,0 c 0,0.28 -0.23,0.5 -0.5,0.5 -0.28,0 -0.5,-0.22 -0.5,-0.5 0,-0.27 0.22,-0.5 0.5,-0.5 0.27,0 0.5,0.23 0.5,0.5 z m 8,0 c 0,0.28 -0.2,0.5 -0.5,0.5 -0.26,0 -0.5,-0.22 -0.5,-0.5 0,-0.27 0.24,-0.5 0.5,-0.5 0.3,0 0.5,0.23 0.5,0.5 z m 8.03,0 c 0,0.28 -0.23,0.5 -0.5,0.5 -0.28,0 -0.5,-0.22 -0.5,-0.5 0,-0.27 0.22,-0.5 0.5,-0.5 0.27,0 0.5,0.23 0.5,0.5 z m 8,0 c 0,0.28 -0.2,0.5 -0.5,0.5 -0.26,0 -0.5,-0.22 -0.5,-0.5 0,-0.27 0.24,-0.5 0.5,-0.5 0.3,0 0.5,0.23 0.5,0.5 z m 8.03,0 c 0,0.28 -0.22,0.5 -0.5,0.5 -0.27,0 -0.5,-0.22 -0.5,-0.5 0,-0.27 0.23,-0.5 0.5,-0.5 0.28,0 0.5,0.23 0.5,0.5 z m 8.02,0 c 0,0.28 -0.22,0.5 -0.5,0.5 -0.27,0 -0.5,-0.22 -0.5,-0.5 0,-0.27 0.23,-0.5 0.5,-0.5 0.28,0 0.5,0.23 0.5,0.5 z m 8.02,0 c 0,0.28 -0.23,0.5 -0.5,0.5 -0.28,0 -0.5,-0.22 -0.5,-0.5 0,-0.27 0.22,-0.5 0.5,-0.5 0.27,0 0.5,0.23 0.5,0.5 z m 8,0 c 0,0.28 -0.2,0.5 -0.5,0.5 -0.26,0 -0.5,-0.22 -0.5,-0.5 0,-0.27 0.24,-0.5 0.5,-0.5 0.3,0 0.5,0.23 0.5,0.5 z m 8.03,0 c 0,0.28 -0.23,0.5 -0.5,0.5 -0.28,0 -0.5,-0.22 -0.5,-0.5 0,-0.27 0.22,-0.5 0.5,-0.5 0.27,0 0.5,0.23 0.5,0.5 z m 8,0 c 0,0.28 -0.2,0.5 -0.5,0.5 -0.26,0 -0.5,-0.22 -0.5,-0.5 0,-0.27 0.24,-0.5 0.5,-0.5 0.3,0 0.5,0.23 0.5,0.5 z m 8.03,0 c 0,0.28 -0.23,0.5 -0.5,0.5 -0.28,0 -0.5,-0.22 -0.5,-0.5 0,-0.27 0.22,-0.5 0.5,-0.5 0.27,0 0.5,0.23 0.5,0.5 z m 8,0 c 0,0.28 -0.2,0.5 -0.5,0.5 -0.26,0 -0.5,-0.22 -0.5,-0.5 0,-0.27 0.24,-0.5 0.5,-0.5 0.3,0 0.5,0.23 0.5,0.5 z m 8.03,0 c 0,0.28 -0.23,0.5 -0.5,0.5 -0.28,0 -0.5,-0.22 -0.5,-0.5 0,-0.27 0.22,-0.5 0.5,-0.5 0.27,0 0.5,0.23 0.5,0.5 z m 8,0 c 0,0.28 -0.2,0.5 -0.5,0.5 -0.26,0 -0.5,-0.22 -0.5,-0.5 0,-0.27 0.24,-0.5 0.5,-0.5 0.3,0 0.5,0.23 0.5,0.5 z m 8.03,0 c 0,0.28 -0.23,0.5 -0.5,0.5 -0.28,0 -0.5,-0.22 -0.5,-0.5 0,-0.27 0.22,-0.5 0.5,-0.5 0.27,0 0.5,0.23 0.5,0.5 z m 8,0 c 0,0.28 -0.2,0.5 -0.5,0.5 -0.26,0 -0.5,-0.22 -0.5,-0.5 0,-0.27 0.24,-0.5 0.5,-0.5 0.3,0 0.5,0.23 0.5,0.5 z m 8.03,0 c 0,0.28 -0.24,0.5 -0.5,0.5 -0.3,0 -0.5,-0.22 -0.5,-0.5 0,-0.27 0.2,-0.5 0.5,-0.5 0.26,0 0.5,0.23 0.5,0.5 z m 8,0 c 0,0.28 -0.22,0.5 -0.5,0.5 -0.27,0 -0.5,-0.22 -0.5,-0.5 0,-0.27 0.23,-0.5 0.5,-0.5 0.28,0 0.5,0.23 0.5,0.5 z m 8.02,0 c 0,0.28 -0.23,0.5 -0.5,0.5 -0.28,0 -0.5,-0.22 -0.5,-0.5 0,-0.27 0.22,-0.5 0.5,-0.5 0.27,0 0.5,0.23 0.5,0.5 z m 8,0 c 0,0.28 -0.2,0.5 -0.5,0.5 -0.26,0 -0.5,-0.22 -0.5,-0.5 0,-0.27 0.24,-0.5 0.5,-0.5 0.3,0 0.5,0.23 0.5,0.5 z m 8.03,0 c 0,0.28 -0.23,0.5 -0.5,0.5 -0.28,0 -0.5,-0.22 -0.5,-0.5 0,-0.27 0.22,-0.5 0.5,-0.5 0.27,0 0.5,0.23 0.5,0.5 z m 8,0 c 0,0.28 -0.2,0.5 -0.5,0.5 -0.26,0 -0.5,-0.22 -0.5,-0.5 0,-0.27 0.24,-0.5 0.5,-0.5 0.3,0 0.5,0.23 0.5,0.5 z m 8.03,0 c 0,0.28 -0.23,0.5 -0.5,0.5 -0.28,0 -0.5,-0.22 -0.5,-0.5 0,-0.27 0.22,-0.5 0.5,-0.5 0.27,0 0.5,0.23 0.5,0.5 z m 8,0 c 0,0.28 -0.2,0.5 -0.5,0.5 -0.26,0 -0.5,-0.22 -0.5,-0.5 0,-0.27 0.24,-0.5 0.5,-0.5 0.3,0 0.5,0.23 0.5,0.5 z m 8.03,0 c 0,0.28 -0.22,0.5 -0.5,0.5 -0.27,0 -0.5,-0.22 -0.5,-0.5 0,-0.27 0.23,-0.5 0.5,-0.5 0.28,0 0.5,0.23 0.5,0.5 z m 8.02,0 c 0,0.28 -0.22,0.5 -0.5,0.5 -0.27,0 -0.5,-0.22 -0.5,-0.5 0,-0.27 0.23,-0.5 0.5,-0.5 0.28,0 0.5,0.23 0.5,0.5 z m 8.02,0 c 0,0.28 -0.23,0.5 -0.5,0.5 -0.28,0 -0.5,-0.22 -0.5,-0.5 0,-0.27 0.22,-0.5 0.5,-0.5 0.27,0 0.5,0.23 0.5,0.5 z m 8,0 c 0,0.28 -0.2,0.5 -0.5,0.5 -0.26,0 -0.5,-0.22 -0.5,-0.5 0,-0.27 0.24,-0.5 0.5,-0.5 0.3,0 0.5,0.23 0.5,0.5 z m 8.03,0 c 0,0.28 -0.23,0.5 -0.5,0.5 -0.28,0 -0.5,-0.22 -0.5,-0.5 0,-0.27 0.22,-0.5 0.5,-0.5 0.27,0 0.5,0.23 0.5,0.5 z m 8,0 c 0,0.28 -0.2,0.5 -0.5,0.5 -0.26,0 -0.5,-0.22 -0.5,-0.5 0,-0.27 0.24,-0.5 0.5,-0.5 0.3,0 0.5,0.23 0.5,0.5 z m 8.03,0 c 0,0.28 -0.23,0.5 -0.5,0.5 -0.28,0 -0.5,-0.22 -0.5,-0.5 0,-0.27 0.22,-0.5 0.5,-0.5 0.27,0 0.5,0.23 0.5,0.5 z m 8,0 c 0,0.28 -0.2,0.5 -0.5,0.5 -0.26,0 -0.5,-0.22 -0.5,-0.5 0,-0.27 0.24,-0.5 0.5,-0.5 0.3,0 0.5,0.23 0.5,0.5 z m 8.03,0 c 0,0.28 -0.23,0.5 -0.5,0.5 -0.28,0 -0.5,-0.22 -0.5,-0.5 0,-0.27 0.22,-0.5 0.5,-0.5 0.27,0 0.5,0.23 0.5,0.5 z m 8,0 c 0,0.28 -0.2,0.5 -0.5,0.5 -0.26,0 -0.5,-0.22 -0.5,-0.5 0,-0.27 0.24,-0.5 0.5,-0.5 0.3,0 0.5,0.23 0.5,0.5 z m 8.03,0 c 0,0.28 -0.23,0.5 -0.5,0.5 -0.28,0 -0.5,-0.22 -0.5,-0.5 0,-0.27 0.22,-0.5 0.5,-0.5 0.27,0 0.5,0.23 0.5,0.5 z m 8,0 c 0,0.28 -0.2,0.5 -0.5,0.5 -0.26,0 -0.5,-0.22 -0.5,-0.5 0,-0.27 0.24,-0.5 0.5,-0.5 0.3,0 0.5,0.23 0.5,0.5 z m 8.03,0 c 0,0.28 -0.24,0.5 -0.5,0.5 -0.3,0 -0.5,-0.22 -0.5,-0.5 0,-0.27 0.2,-0.5 0.5,-0.5 0.26,0 0.5,0.23 0.5,0.5 z m 8,0 c 0,0.28 -0.22,0.5 -0.5,0.5 -0.27,0 -0.5,-0.22 -0.5,-0.5 0,-0.27 0.23,-0.5 0.5,-0.5 0.28,0 0.5,0.23 0.5,0.5 z m 8.02,0 c 0,0.28 -0.23,0.5 -0.5,0.5 -0.28,0 -0.5,-0.22 -0.5,-0.5 0,-0.27 0.22,-0.5 0.5,-0.5 0.27,0 0.5,0.23 0.5,0.5 z m 8,0 c 0,0.28 -0.2,0.5 -0.5,0.5 -0.26,0 -0.5,-0.22 -0.5,-0.5 0,-0.27 0.24,-0.5 0.5,-0.5 0.3,0 0.5,0.23 0.5,0.5 z m 8.03,0 c 0,0.28 -0.23,0.5 -0.5,0.5 -0.28,0 -0.5,-0.22 -0.5,-0.5 0,-0.27 0.22,-0.5 0.5,-0.5 0.27,0 0.5,0.23 0.5,0.5 z m 8,0 c 0,0.28 -0.2,0.5 -0.5,0.5 -0.26,0 -0.5,-0.22 -0.5,-0.5 0,-0.27 0.24,-0.5 0.5,-0.5 0.3,0 0.5,0.23 0.5,0.5 z m 8.03,0 c 0,0.28 -0.23,0.5 -0.5,0.5 -0.28,0 -0.5,-0.22 -0.5,-0.5 0,-0.27 0.22,-0.5 0.5,-0.5 0.27,0 0.5,0.23 0.5,0.5 z m 8,0 c 0,0.28 -0.2,0.5 -0.5,0.5 -0.26,0 -0.5,-0.22 -0.5,-0.5 0,-0.27 0.24,-0.5 0.5,-0.5 0.3,0 0.5,0.23 0.5,0.5 z m 8.03,0 c 0,0.28 -0.22,0.5 -0.5,0.5 -0.27,0 -0.5,-0.22 -0.5,-0.5 0,-0.27 0.23,-0.5 0.5,-0.5 0.28,0 0.5,0.23 0.5,0.5 z m 8.02,0 c 0,0.28 -0.22,0.5 -0.5,0.5 -0.27,0 -0.5,-0.22 -0.5,-0.5 0,-0.27 0.23,-0.5 0.5,-0.5 0.28,0 0.5,0.23 0.5,0.5 z m 8.02,0 c 0,0.28 -0.23,0.5 -0.5,0.5 -0.28,0 -0.5,-0.22 -0.5,-0.5 0,-0.27 0.22,-0.5 0.5,-0.5 0.27,0 0.5,0.23 0.5,0.5 z m 8,0 c 0,0.28 -0.2,0.5 -0.5,0.5 -0.26,0 -0.5,-0.22 -0.5,-0.5 0,-0.27 0.24,-0.5 0.5,-0.5 0.3,0 0.5,0.23 0.5,0.5 z m 8.03,0 c 0,0.28 -0.23,0.5 -0.5,0.5 -0.28,0 -0.5,-0.22 -0.5,-0.5 0,-0.27 0.22,-0.5 0.5,-0.5 0.27,0 0.5,0.23 0.5,0.5 z m 8,0 c 0,0.28 -0.2,0.5 -0.5,0.5 -0.26,0 -0.5,-0.22 -0.5,-0.5 0,-0.27 0.24,-0.5 0.5,-0.5 0.3,0 0.5,0.23 0.5,0.5 z m 8.03,0 c 0,0.28 -0.23,0.5 -0.5,0.5 -0.28,0 -0.5,-0.22 -0.5,-0.5 0,-0.27 0.22,-0.5 0.5,-0.5 0.27,0 0.5,0.23 0.5,0.5 z m 8,0 c 0,0.28 -0.2,0.5 -0.5,0.5 -0.26,0 -0.5,-0.22 -0.5,-0.5 0,-0.27 0.24,-0.5 0.5,-0.5 0.3,0 0.5,0.23 0.5,0.5 z m 8.03,0 c 0,0.28 -0.23,0.5 -0.5,0.5 -0.28,0 -0.5,-0.22 -0.5,-0.5 0,-0.27 0.22,-0.5 0.5,-0.5 0.27,0 0.5,0.23 0.5,0.5 z m 8,0 c 0,0.28 -0.2,0.5 -0.5,0.5 -0.26,0 -0.5,-0.22 -0.5,-0.5 0,-0.27 0.24,-0.5 0.5,-0.5 0.3,0 0.5,0.23 0.5,0.5 z m 8.03,0 c 0,0.28 -0.23,0.5 -0.5,0.5 -0.28,0 -0.5,-0.22 -0.5,-0.5 0,-0.27 0.22,-0.5 0.5,-0.5 0.27,0 0.5,0.23 0.5,0.5 z m 8,0 c 0,0.28 -0.2,0.5 -0.5,0.5 -0.26,0 -0.5,-0.22 -0.5,-0.5 0,-0.27 0.24,-0.5 0.5,-0.5 0.3,0 0.5,0.23 0.5,0.5 z m 8.03,0 c 0,0.28 -0.24,0.5 -0.5,0.5 -0.3,0 -0.5,-0.22 -0.5,-0.5 0,-0.27 0.2,-0.5 0.5,-0.5 0.26,0 0.5,0.23 0.5,0.5 z m 8,0 c 0,0.28 -0.22,0.5 -0.5,0.5 -0.27,0 -0.5,-0.22 -0.5,-0.5 0,-0.27 0.23,-0.5 0.5,-0.5 0.28,0 0.5,0.23 0.5,0.5 z m 8.02,0 c 0,0.28 -0.23,0.5 -0.5,0.5 -0.28,0 -0.5,-0.22 -0.5,-0.5 0,-0.27 0.22,-0.5 0.5,-0.5 0.27,0 0.5,0.23 0.5,0.5 z m 8,0 c 0,0.28 -0.2,0.5 -0.5,0.5 -0.26,0 -0.5,-0.22 -0.5,-0.5 0,-0.27 0.24,-0.5 0.5,-0.5 0.3,0 0.5,0.23 0.5,0.5 z m 8.03,0 c 0,0.28 -0.23,0.5 -0.5,0.5 -0.28,0 -0.5,-0.22 -0.5,-0.5 0,-0.27 0.22,-0.5 0.5,-0.5 0.27,0 0.5,0.23 0.5,0.5 z m 8,0 c 0,0.28 -0.2,0.5 -0.5,0.5 -0.26,0 -0.5,-0.22 -0.5,-0.5 0,-0.27 0.24,-0.5 0.5,-0.5 0.3,0 0.5,0.23 0.5,0.5 z m 8.03,0 c 0,0.28 -0.23,0.5 -0.5,0.5 -0.28,0 -0.5,-0.22 -0.5,-0.5 0,-0.27 0.22,-0.5 0.5,-0.5 0.27,0 0.5,0.23 0.5,0.5 z m 8,0 c 0,0.28 -0.2,0.5 -0.5,0.5 -0.26,0 -0.5,-0.22 -0.5,-0.5 0,-0.27 0.24,-0.5 0.5,-0.5 0.3,0 0.5,0.23 0.5,0.5 z m 8.03,0 c 0,0.28 -0.22,0.5 -0.5,0.5 -0.27,0 -0.5,-0.22 -0.5,-0.5 0,-0.27 0.23,-0.5 0.5,-0.5 0.28,0 0.5,0.23 0.5,0.5 z m 8.02,0 c 0,0.28 -0.22,0.5 -0.5,0.5 -0.27,0 -0.5,-0.22 -0.5,-0.5 0,-0.27 0.23,-0.5 0.5,-0.5 0.28,0 0.5,0.23 0.5,0.5 z m 8.02,0 c 0,0.28 -0.23,0.5 -0.5,0.5 -0.28,0 -0.5,-0.22 -0.5,-0.5 0,-0.27 0.22,-0.5 0.5,-0.5 0.27,0 0.5,0.23 0.5,0.5 z m 8,0 c 0,0.28 -0.2,0.5 -0.5,0.5 -0.26,0 -0.5,-0.22 -0.5,-0.5 0,-0.27 0.24,-0.5 0.5,-0.5 0.3,0 0.5,0.23 0.5,0.5 z m 8.03,0 c 0,0.28 -0.23,0.5 -0.5,0.5 -0.28,0 -0.5,-0.22 -0.5,-0.5 0,-0.27 0.22,-0.5 0.5,-0.5 0.27,0 0.5,0.23 0.5,0.5 z m 8,0 c 0,0.28 -0.2,0.5 -0.5,0.5 -0.26,0 -0.5,-0.22 -0.5,-0.5 0,-0.27 0.24,-0.5 0.5,-0.5 0.3,0 0.5,0.23 0.5,0.5 z m 8.03,0 c 0,0.28 -0.23,0.5 -0.5,0.5 -0.28,0 -0.5,-0.22 -0.5,-0.5 0,-0.27 0.22,-0.5 0.5,-0.5 0.27,0 0.5,0.23 0.5,0.5 z m 8,0 c 0,0.28 -0.2,0.5 -0.5,0.5 -0.26,0 -0.5,-0.22 -0.5,-0.5 0,-0.27 0.24,-0.5 0.5,-0.5 0.3,0 0.5,0.23 0.5,0.5 z m 8.03,0 c 0,0.28 -0.23,0.5 -0.5,0.5 -0.28,0 -0.5,-0.22 -0.5,-0.5 0,-0.27 0.22,-0.5 0.5,-0.5 0.27,0 0.5,0.23 0.5,0.5 z m 8,0 c 0,0.28 -0.2,0.5 -0.5,0.5 -0.26,0 -0.5,-0.22 -0.5,-0.5 0,-0.27 0.24,-0.5 0.5,-0.5 0.3,0 0.5,0.23 0.5,0.5 z m 8.03,0 c 0,0.28 -0.23,0.5 -0.5,0.5 -0.28,0 -0.5,-0.22 -0.5,-0.5 0,-0.27 0.22,-0.5 0.5,-0.5 0.27,0 0.5,0.23 0.5,0.5 z m 8,0 c 0,0.28 -0.2,0.5 -0.5,0.5 -0.26,0 -0.5,-0.22 -0.5,-0.5 0,-0.27 0.24,-0.5 0.5,-0.5 0.3,0 0.5,0.23 0.5,0.5 z m 8.03,0 c 0,0.28 -0.24,0.5 -0.5,0.5 -0.3,0 -0.5,-0.22 -0.5,-0.5 0,-0.27 0.2,-0.5 0.5,-0.5 0.26,0 0.5,0.23 0.5,0.5 z m 8,0 c 0,0.28 -0.22,0.5 -0.5,0.5 -0.27,0 -0.5,-0.22 -0.5,-0.5 0,-0.27 0.23,-0.5 0.5,-0.5 0.28,0 0.5,0.23 0.5,0.5 z m 8.02,0 c 0,0.28 -0.23,0.5 -0.5,0.5 -0.28,0 -0.5,-0.22 -0.5,-0.5 0,-0.27 0.22,-0.5 0.5,-0.5 0.27,0 0.5,0.23 0.5,0.5 z m -8.02,1 c 0,0.28 -0.22,0.5 -0.5,0.5 -0.27,0 -0.5,-0.22 -0.5,-0.5 0,-0.27 0.23,-0.5 0.5,-0.5 0.28,0 0.5,0.23 0.5,0.5 z m -8,0 c 0,0.28 -0.24,0.5 -0.5,0.5 -0.3,0 -0.5,-0.22 -0.5,-0.5 0,-0.27 0.2,-0.5 0.5,-0.5 0.26,0 0.5,0.23 0.5,0.5 z m -8.03,0 c 0,0.28 -0.22,0.5 -0.5,0.5 -0.27,0 -0.5,-0.22 -0.5,-0.5 0,-0.27 0.23,-0.5 0.5,-0.5 0.28,0 0.5,0.23 0.5,0.5 z m -8,0 c 0,0.28 -0.24,0.5 -0.5,0.5 -0.3,0 -0.5,-0.22 -0.5,-0.5 0,-0.27 0.2,-0.5 0.5,-0.5 0.26,0 0.5,0.23 0.5,0.5 z m -8.03,0 c 0,0.28 -0.22,0.5 -0.5,0.5 -0.27,0 -0.5,-0.22 -0.5,-0.5 0,-0.27 0.23,-0.5 0.5,-0.5 0.28,0 0.5,0.23 0.5,0.5 z m -8,0 c 0,0.28 -0.24,0.5 -0.5,0.5 -0.3,0 -0.5,-0.22 -0.5,-0.5 0,-0.27 0.2,-0.5 0.5,-0.5 0.26,0 0.5,0.23 0.5,0.5 z m -8.03,0 c 0,0.28 -0.2,0.5 -0.5,0.5 -0.26,0 -0.5,-0.22 -0.5,-0.5 0,-0.27 0.24,-0.5 0.5,-0.5 0.3,0 0.5,0.23 0.5,0.5 z m -8,0 c 0,0.28 -0.23,0.5 -0.5,0.5 -0.28,0 -0.5,-0.22 -0.5,-0.5 0,-0.27 0.22,-0.5 0.5,-0.5 0.27,0 0.5,0.23 0.5,0.5 z m -8.02,0 c 0,0.28 -0.22,0.5 -0.5,0.5 -0.27,0 -0.5,-0.22 -0.5,-0.5 0,-0.27 0.23,-0.5 0.5,-0.5 0.28,0 0.5,0.23 0.5,0.5 z m -8,0 c 0,0.28 -0.24,0.5 -0.5,0.5 -0.3,0 -0.5,-0.22 -0.5,-0.5 0,-0.27 0.2,-0.5 0.5,-0.5 0.26,0 0.5,0.23 0.5,0.5 z m -8.03,0 c 0,0.28 -0.22,0.5 -0.5,0.5 -0.27,0 -0.5,-0.22 -0.5,-0.5 0,-0.27 0.23,-0.5 0.5,-0.5 0.28,0 0.5,0.23 0.5,0.5 z m -8,0 c 0,0.28 -0.24,0.5 -0.5,0.5 -0.3,0 -0.5,-0.22 -0.5,-0.5 0,-0.27 0.2,-0.5 0.5,-0.5 0.26,0 0.5,0.23 0.5,0.5 z m -8.03,0 c 0,0.28 -0.22,0.5 -0.5,0.5 -0.27,0 -0.5,-0.22 -0.5,-0.5 0,-0.27 0.23,-0.5 0.5,-0.5 0.28,0 0.5,0.23 0.5,0.5 z m -8,0 c 0,0.28 -0.24,0.5 -0.5,0.5 -0.3,0 -0.5,-0.22 -0.5,-0.5 0,-0.27 0.2,-0.5 0.5,-0.5 0.26,0 0.5,0.23 0.5,0.5 z m -8.03,0 c 0,0.28 -0.23,0.5 -0.5,0.5 -0.28,0 -0.5,-0.22 -0.5,-0.5 0,-0.27 0.22,-0.5 0.5,-0.5 0.27,0 0.5,0.23 0.5,0.5 z m -8.02,0 c 0,0.28 -0.23,0.5 -0.5,0.5 -0.28,0 -0.5,-0.22 -0.5,-0.5 0,-0.27 0.22,-0.5 0.5,-0.5 0.27,0 0.5,0.23 0.5,0.5 z m -8.02,0 c 0,0.28 -0.22,0.5 -0.5,0.5 -0.27,0 -0.5,-0.22 -0.5,-0.5 0,-0.27 0.23,-0.5 0.5,-0.5 0.28,0 0.5,0.23 0.5,0.5 z m -8,0 c 0,0.28 -0.24,0.5 -0.5,0.5 -0.3,0 -0.5,-0.22 -0.5,-0.5 0,-0.27 0.2,-0.5 0.5,-0.5 0.26,0 0.5,0.23 0.5,0.5 z m -8.03,0 c 0,0.28 -0.22,0.5 -0.5,0.5 -0.27,0 -0.5,-0.22 -0.5,-0.5 0,-0.27 0.23,-0.5 0.5,-0.5 0.28,0 0.5,0.23 0.5,0.5 z m -8,0 c 0,0.28 -0.24,0.5 -0.5,0.5 -0.3,0 -0.5,-0.22 -0.5,-0.5 0,-0.27 0.2,-0.5 0.5,-0.5 0.26,0 0.5,0.23 0.5,0.5 z m -8.03,0 c 0,0.28 -0.22,0.5 -0.5,0.5 -0.27,0 -0.5,-0.22 -0.5,-0.5 0,-0.27 0.23,-0.5 0.5,-0.5 0.28,0 0.5,0.23 0.5,0.5 z m -8,0 c 0,0.28 -0.24,0.5 -0.5,0.5 -0.3,0 -0.5,-0.22 -0.5,-0.5 0,-0.27 0.2,-0.5 0.5,-0.5 0.26,0 0.5,0.23 0.5,0.5 z m -8.03,0 c 0,0.28 -0.22,0.5 -0.5,0.5 -0.27,0 -0.5,-0.22 -0.5,-0.5 0,-0.27 0.23,-0.5 0.5,-0.5 0.28,0 0.5,0.23 0.5,0.5 z m -8,0 c 0,0.28 -0.24,0.5 -0.5,0.5 -0.3,0 -0.5,-0.22 -0.5,-0.5 0,-0.27 0.2,-0.5 0.5,-0.5 0.26,0 0.5,0.23 0.5,0.5 z m -8.03,0 c 0,0.28 -0.22,0.5 -0.5,0.5 -0.27,0 -0.5,-0.22 -0.5,-0.5 0,-0.27 0.23,-0.5 0.5,-0.5 0.28,0 0.5,0.23 0.5,0.5 z m -8,0 c 0,0.28 -0.24,0.5 -0.5,0.5 -0.3,0 -0.5,-0.22 -0.5,-0.5 0,-0.27 0.2,-0.5 0.5,-0.5 0.26,0 0.5,0.23 0.5,0.5 z m -8.03,0 c 0,0.28 -0.2,0.5 -0.5,0.5 -0.26,0 -0.5,-0.22 -0.5,-0.5 0,-0.27 0.24,-0.5 0.5,-0.5 0.3,0 0.5,0.23 0.5,0.5 z m -8,0 c 0,0.28 -0.23,0.5 -0.5,0.5 -0.28,0 -0.5,-0.22 -0.5,-0.5 0,-0.27 0.22,-0.5 0.5,-0.5 0.27,0 0.5,0.23 0.5,0.5 z m -8.02,0 c 0,0.28 -0.22,0.5 -0.5,0.5 -0.27,0 -0.5,-0.22 -0.5,-0.5 0,-0.27 0.23,-0.5 0.5,-0.5 0.28,0 0.5,0.23 0.5,0.5 z m -8,0 c 0,0.28 -0.24,0.5 -0.5,0.5 -0.3,0 -0.5,-0.22 -0.5,-0.5 0,-0.27 0.2,-0.5 0.5,-0.5 0.26,0 0.5,0.23 0.5,0.5 z m -8.03,0 c 0,0.28 -0.22,0.5 -0.5,0.5 -0.27,0 -0.5,-0.22 -0.5,-0.5 0,-0.27 0.23,-0.5 0.5,-0.5 0.28,0 0.5,0.23 0.5,0.5 z m -8,0 c 0,0.28 -0.24,0.5 -0.5,0.5 -0.3,0 -0.5,-0.22 -0.5,-0.5 0,-0.27 0.2,-0.5 0.5,-0.5 0.26,0 0.5,0.23 0.5,0.5 z m -8.03,0 c 0,0.28 -0.22,0.5 -0.5,0.5 -0.27,0 -0.5,-0.22 -0.5,-0.5 0,-0.27 0.23,-0.5 0.5,-0.5 0.28,0 0.5,0.23 0.5,0.5 z m -8,0 c 0,0.28 -0.24,0.5 -0.5,0.5 -0.3,0 -0.5,-0.22 -0.5,-0.5 0,-0.27 0.2,-0.5 0.5,-0.5 0.26,0 0.5,0.23 0.5,0.5 z m -8.03,0 c 0,0.28 -0.23,0.5 -0.5,0.5 -0.28,0 -0.5,-0.22 -0.5,-0.5 0,-0.27 0.22,-0.5 0.5,-0.5 0.27,0 0.5,0.23 0.5,0.5 z m -8.02,0 c 0,0.28 -0.23,0.5 -0.5,0.5 -0.28,0 -0.5,-0.22 -0.5,-0.5 0,-0.27 0.22,-0.5 0.5,-0.5 0.27,0 0.5,0.23 0.5,0.5 z m -8.02,0 c 0,0.28 -0.22,0.5 -0.5,0.5 -0.27,0 -0.5,-0.22 -0.5,-0.5 0,-0.27 0.23,-0.5 0.5,-0.5 0.28,0 0.5,0.23 0.5,0.5 z m -8,0 c 0,0.28 -0.24,0.5 -0.5,0.5 -0.3,0 -0.5,-0.22 -0.5,-0.5 0,-0.27 0.2,-0.5 0.5,-0.5 0.26,0 0.5,0.23 0.5,0.5 z m -8.03,0 c 0,0.28 -0.22,0.5 -0.5,0.5 -0.27,0 -0.5,-0.22 -0.5,-0.5 0,-0.27 0.23,-0.5 0.5,-0.5 0.28,0 0.5,0.23 0.5,0.5 z m -8,0 c 0,0.28 -0.24,0.5 -0.5,0.5 -0.3,0 -0.5,-0.22 -0.5,-0.5 0,-0.27 0.2,-0.5 0.5,-0.5 0.26,0 0.5,0.23 0.5,0.5 z m -8.03,0 c 0,0.28 -0.22,0.5 -0.5,0.5 -0.27,0 -0.5,-0.22 -0.5,-0.5 0,-0.27 0.23,-0.5 0.5,-0.5 0.28,0 0.5,0.23 0.5,0.5 z m -8,0 c 0,0.28 -0.24,0.5 -0.5,0.5 -0.3,0 -0.5,-0.22 -0.5,-0.5 0,-0.27 0.2,-0.5 0.5,-0.5 0.26,0 0.5,0.23 0.5,0.5 z m -8.03,0 c 0,0.28 -0.22,0.5 -0.5,0.5 -0.27,0 -0.5,-0.22 -0.5,-0.5 0,-0.27 0.23,-0.5 0.5,-0.5 0.28,0 0.5,0.23 0.5,0.5 z m -8,0 c 0,0.28 -0.24,0.5 -0.5,0.5 -0.3,0 -0.5,-0.22 -0.5,-0.5 0,-0.27 0.2,-0.5 0.5,-0.5 0.26,0 0.5,0.23 0.5,0.5 z m -8.03,0 c 0,0.28 -0.22,0.5 -0.5,0.5 -0.27,0 -0.5,-0.22 -0.5,-0.5 0,-0.27 0.23,-0.5 0.5,-0.5 0.28,0 0.5,0.23 0.5,0.5 z m -8,0 c 0,0.28 -0.24,0.5 -0.5,0.5 -0.3,0 -0.5,-0.22 -0.5,-0.5 0,-0.27 0.2,-0.5 0.5,-0.5 0.26,0 0.5,0.23 0.5,0.5 z m -8.03,0 c 0,0.28 -0.2,0.5 -0.5,0.5 -0.26,0 -0.5,-0.22 -0.5,-0.5 0,-0.27 0.24,-0.5 0.5,-0.5 0.3,0 0.5,0.23 0.5,0.5 z m -8,0 c 0,0.28 -0.23,0.5 -0.5,0.5 -0.28,0 -0.5,-0.22 -0.5,-0.5 0,-0.27 0.22,-0.5 0.5,-0.5 0.27,0 0.5,0.23 0.5,0.5 z m -8.02,0 c 0,0.28 -0.22,0.5 -0.5,0.5 -0.27,0 -0.5,-0.22 -0.5,-0.5 0,-0.27 0.23,-0.5 0.5,-0.5 0.28,0 0.5,0.23 0.5,0.5 z m -8,0 c 0,0.28 -0.24,0.5 -0.5,0.5 -0.3,0 -0.5,-0.22 -0.5,-0.5 0,-0.27 0.2,-0.5 0.5,-0.5 0.26,0 0.5,0.23 0.5,0.5 z m -8.03,0 c 0,0.28 -0.22,0.5 -0.5,0.5 -0.27,0 -0.5,-0.22 -0.5,-0.5 0,-0.27 0.23,-0.5 0.5,-0.5 0.28,0 0.5,0.23 0.5,0.5 z m -8,0 c 0,0.28 -0.24,0.5 -0.5,0.5 -0.3,0 -0.5,-0.22 -0.5,-0.5 0,-0.27 0.2,-0.5 0.5,-0.5 0.26,0 0.5,0.23 0.5,0.5 z m -8.03,0 c 0,0.28 -0.22,0.5 -0.5,0.5 -0.27,0 -0.5,-0.22 -0.5,-0.5 0,-0.27 0.23,-0.5 0.5,-0.5 0.28,0 0.5,0.23 0.5,0.5 z m -8,0 c 0,0.28 -0.24,0.5 -0.5,0.5 -0.3,0 -0.5,-0.22 -0.5,-0.5 0,-0.27 0.2,-0.5 0.5,-0.5 0.26,0 0.5,0.23 0.5,0.5 z m -8.03,0 c 0,0.28 -0.23,0.5 -0.5,0.5 -0.28,0 -0.5,-0.22 -0.5,-0.5 0,-0.27 0.22,-0.5 0.5,-0.5 0.27,0 0.5,0.23 0.5,0.5 z m -8.02,0 c 0,0.28 -0.23,0.5 -0.5,0.5 -0.28,0 -0.5,-0.22 -0.5,-0.5 0,-0.27 0.22,-0.5 0.5,-0.5 0.27,0 0.5,0.23 0.5,0.5 z m -8.02,0 c 0,0.28 -0.22,0.5 -0.5,0.5 -0.27,0 -0.5,-0.22 -0.5,-0.5 0,-0.27 0.23,-0.5 0.5,-0.5 0.28,0 0.5,0.23 0.5,0.5 z m -8,0 c 0,0.28 -0.24,0.5 -0.5,0.5 -0.3,0 -0.5,-0.22 -0.5,-0.5 0,-0.27 0.2,-0.5 0.5,-0.5 0.26,0 0.5,0.23 0.5,0.5 z m -8.03,0 c 0,0.28 -0.22,0.5 -0.5,0.5 -0.27,0 -0.5,-0.22 -0.5,-0.5 0,-0.27 0.23,-0.5 0.5,-0.5 0.28,0 0.5,0.23 0.5,0.5 z m -8,0 c 0,0.28 -0.24,0.5 -0.5,0.5 -0.3,0 -0.5,-0.22 -0.5,-0.5 0,-0.27 0.2,-0.5 0.5,-0.5 0.26,0 0.5,0.23 0.5,0.5 z m -8.03,0 c 0,0.28 -0.22,0.5 -0.5,0.5 -0.27,0 -0.5,-0.22 -0.5,-0.5 0,-0.27 0.23,-0.5 0.5,-0.5 0.28,0 0.5,0.23 0.5,0.5 z m -8,0 c 0,0.28 -0.24,0.5 -0.5,0.5 -0.3,0 -0.5,-0.22 -0.5,-0.5 0,-0.27 0.2,-0.5 0.5,-0.5 0.26,0 0.5,0.23 0.5,0.5 z m -8.03,0 c 0,0.28 -0.22,0.5 -0.5,0.5 -0.27,0 -0.5,-0.22 -0.5,-0.5 0,-0.27 0.23,-0.5 0.5,-0.5 0.28,0 0.5,0.23 0.5,0.5 z m -8,0 c 0,0.28 -0.24,0.5 -0.5,0.5 -0.3,0 -0.5,-0.22 -0.5,-0.5 0,-0.27 0.2,-0.5 0.5,-0.5 0.26,0 0.5,0.23 0.5,0.5 z m -8.03,0 c 0,0.28 -0.22,0.5 -0.5,0.5 -0.27,0 -0.5,-0.22 -0.5,-0.5 0,-0.27 0.23,-0.5 0.5,-0.5 0.28,0 0.5,0.23 0.5,0.5 z m -8,0 c 0,0.28 -0.24,0.5 -0.5,0.5 -0.3,0 -0.5,-0.22 -0.5,-0.5 0,-0.27 0.2,-0.5 0.5,-0.5 0.26,0 0.5,0.23 0.5,0.5 z m -8.03,0 c 0,0.28 -0.2,0.5 -0.5,0.5 -0.26,0 -0.5,-0.22 -0.5,-0.5 0,-0.27 0.24,-0.5 0.5,-0.5 0.3,0 0.5,0.23 0.5,0.5 z m -8,0 c 0,0.28 -0.23,0.5 -0.5,0.5 -0.28,0 -0.5,-0.22 -0.5,-0.5 0,-0.27 0.22,-0.5 0.5,-0.5 0.27,0 0.5,0.23 0.5,0.5 z m -8.02,0 c 0,0.28 -0.22,0.5 -0.5,0.5 -0.27,0 -0.5,-0.22 -0.5,-0.5 0,-0.27 0.23,-0.5 0.5,-0.5 0.28,0 0.5,0.23 0.5,0.5 z m -8,0 c 0,0.28 -0.24,0.5 -0.5,0.5 -0.3,0 -0.5,-0.22 -0.5,-0.5 0,-0.27 0.2,-0.5 0.5,-0.5 0.26,0 0.5,0.23 0.5,0.5 z m -8.03,0 c 0,0.28 -0.22,0.5 -0.5,0.5 -0.27,0 -0.5,-0.22 -0.5,-0.5 0,-0.27 0.23,-0.5 0.5,-0.5 0.28,0 0.5,0.23 0.5,0.5 z m -8,0 c 0,0.28 -0.24,0.5 -0.5,0.5 -0.3,0 -0.5,-0.22 -0.5,-0.5 0,-0.27 0.2,-0.5 0.5,-0.5 0.26,0 0.5,0.23 0.5,0.5 z m -8.03,0 c 0,0.28 -0.22,0.5 -0.5,0.5 -0.27,0 -0.5,-0.22 -0.5,-0.5 0,-0.27 0.23,-0.5 0.5,-0.5 0.28,0 0.5,0.23 0.5,0.5 z m -8,0 c 0,0.28 -0.24,0.5 -0.5,0.5 -0.3,0 -0.5,-0.22 -0.5,-0.5 0,-0.27 0.2,-0.5 0.5,-0.5 0.26,0 0.5,0.23 0.5,0.5 z m -8.03,0 c 0,0.28 -0.23,0.5 -0.5,0.5 -0.28,0 -0.5,-0.22 -0.5,-0.5 0,-0.27 0.22,-0.5 0.5,-0.5 0.27,0 0.5,0.23 0.5,0.5 z m -8.02,0 c 0,0.28 -0.23,0.5 -0.5,0.5 -0.28,0 -0.5,-0.22 -0.5,-0.5 0,-0.27 0.22,-0.5 0.5,-0.5 0.27,0 0.5,0.23 0.5,0.5 z m -8.02,0 c 0,0.28 -0.22,0.5 -0.5,0.5 -0.27,0 -0.5,-0.22 -0.5,-0.5 0,-0.27 0.23,-0.5 0.5,-0.5 0.28,0 0.5,0.23 0.5,0.5 z m -8,0 c 0,0.28 -0.24,0.5 -0.5,0.5 -0.3,0 -0.5,-0.22 -0.5,-0.5 0,-0.27 0.2,-0.5 0.5,-0.5 0.26,0 0.5,0.23 0.5,0.5 z m -8.03,0 c 0,0.28 -0.22,0.5 -0.5,0.5 -0.27,0 -0.5,-0.22 -0.5,-0.5 0,-0.27 0.23,-0.5 0.5,-0.5 0.28,0 0.5,0.23 0.5,0.5 z m -8,0 c 0,0.28 -0.24,0.5 -0.5,0.5 -0.3,0 -0.5,-0.22 -0.5,-0.5 0,-0.27 0.2,-0.5 0.5,-0.5 0.26,0 0.5,0.23 0.5,0.5 z m -8.03,0 c 0,0.28 -0.22,0.5 -0.5,0.5 -0.27,0 -0.5,-0.22 -0.5,-0.5 0,-0.27 0.23,-0.5 0.5,-0.5 0.28,0 0.5,0.23 0.5,0.5 z m -8,0 c 0,0.28 -0.24,0.5 -0.5,0.5 -0.3,0 -0.5,-0.22 -0.5,-0.5 0,-0.27 0.2,-0.5 0.5,-0.5 0.26,0 0.5,0.23 0.5,0.5 z m -8.03,0 c 0,0.28 -0.22,0.5 -0.5,0.5 -0.27,0 -0.5,-0.22 -0.5,-0.5 0,-0.27 0.23,-0.5 0.5,-0.5 0.28,0 0.5,0.23 0.5,0.5 z m -8,0 c 0,0.28 -0.24,0.5 -0.5,0.5 -0.3,0 -0.5,-0.22 -0.5,-0.5 0,-0.27 0.2,-0.5 0.5,-0.5 0.26,0 0.5,0.23 0.5,0.5 z m -8.03,0 c 0,0.28 -0.22,0.5 -0.5,0.5 -0.27,0 -0.5,-0.22 -0.5,-0.5 0,-0.27 0.23,-0.5 0.5,-0.5 0.28,0 0.5,0.23 0.5,0.5 z m -8,0 c 0,0.28 -0.24,0.5 -0.5,0.5 -0.3,0 -0.5,-0.22 -0.5,-0.5 0,-0.27 0.2,-0.5 0.5,-0.5 0.26,0 0.5,0.23 0.5,0.5 z m -8.03,0 c 0,0.28 -0.2,0.5 -0.5,0.5 -0.26,0 -0.5,-0.22 -0.5,-0.5 0,-0.27 0.24,-0.5 0.5,-0.5 0.3,0 0.5,0.23 0.5,0.5 z m -8,0 c 0,0.28 -0.23,0.5 -0.5,0.5 -0.28,0 -0.5,-0.22 -0.5,-0.5 0,-0.27 0.22,-0.5 0.5,-0.5 0.27,0 0.5,0.23 0.5,0.5 z m -8.02,0 c 0,0.28 -0.22,0.5 -0.5,0.5 -0.27,0 -0.5,-0.22 -0.5,-0.5 0,-0.27 0.23,-0.5 0.5,-0.5 0.28,0 0.5,0.23 0.5,0.5 z m -8,0 c 0,0.28 -0.23,0.5 -0.5,0.5 -0.3,0 -0.5,-0.22 -0.5,-0.5 0,-0.27 0.2,-0.5 0.5,-0.5 0.27,0 0.5,0.23 0.5,0.5 z m -8.03,0 c 0,0.28 -0.22,0.5 -0.5,0.5 -0.27,0 -0.5,-0.22 -0.5,-0.5 0,-0.27 0.23,-0.5 0.5,-0.5 0.28,0 0.5,0.23 0.5,0.5 z m -8,0 c 0,0.28 -0.23,0.5 -0.5,0.5 -0.3,0 -0.5,-0.22 -0.5,-0.5 0,-0.27 0.2,-0.5 0.5,-0.5 0.27,0 0.5,0.23 0.5,0.5 z m -8.03,0 c 0,0.28 -0.22,0.5 -0.5,0.5 -0.27,0 -0.5,-0.22 -0.5,-0.5 0,-0.27 0.23,-0.5 0.5,-0.5 0.28,0 0.5,0.23 0.5,0.5 z m -8,0 c 0,0.28 -0.23,0.5 -0.5,0.5 -0.3,0 -0.5,-0.22 -0.5,-0.5 0,-0.27 0.2,-0.5 0.5,-0.5 0.27,0 0.5,0.23 0.5,0.5 z m -8.03,0 c 0,0.28 -0.23,0.5 -0.5,0.5 -0.28,0 -0.5,-0.22 -0.5,-0.5 0,-0.27 0.22,-0.5 0.5,-0.5 0.27,0 0.5,0.23 0.5,0.5 z m -8.02,0 c 0,0.28 -0.22,0.5 -0.5,0.5 -0.28,0 -0.5,-0.22 -0.5,-0.5 0,-0.27 0.22,-0.5 0.5,-0.5 0.28,0 0.5,0.23 0.5,0.5 z m -8.02,0 c 0,0.28 -0.22,0.5 -0.5,0.5 -0.27,0 -0.5,-0.22 -0.5,-0.5 0,-0.27 0.23,-0.5 0.5,-0.5 0.28,0 0.5,0.23 0.5,0.5 z m -8,0 c 0,0.28 -0.23,0.5 -0.5,0.5 -0.3,0 -0.5,-0.22 -0.5,-0.5 0,-0.27 0.2,-0.5 0.5,-0.5 0.27,0 0.5,0.23 0.5,0.5 z m -8.03,0 c 0,0.28 -0.22,0.5 -0.5,0.5 -0.27,0 -0.5,-0.22 -0.5,-0.5 0,-0.27 0.23,-0.5 0.5,-0.5 0.28,0 0.5,0.23 0.5,0.5 z m -8,0 c 0,0.28 -0.23,0.5 -0.5,0.5 -0.3,0 -0.5,-0.22 -0.5,-0.5 0,-0.27 0.2,-0.5 0.5,-0.5 0.27,0 0.5,0.23 0.5,0.5 z m -8.03,0 c 0,0.28 -0.22,0.5 -0.5,0.5 -0.27,0 -0.5,-0.22 -0.5,-0.5 0,-0.27 0.23,-0.5 0.5,-0.5 0.28,0 0.5,0.23 0.5,0.5 z m -8,0 c 0,0.28 -0.23,0.5 -0.5,0.5 -0.3,0 -0.5,-0.22 -0.5,-0.5 0,-0.27 0.2,-0.5 0.5,-0.5 0.27,0 0.5,0.23 0.5,0.5 z m -8.03,0 c 0,0.28 -0.22,0.5 -0.5,0.5 -0.27,0 -0.5,-0.22 -0.5,-0.5 0,-0.27 0.23,-0.5 0.5,-0.5 0.28,0 0.5,0.23 0.5,0.5 z m -8,0 c 0,0.28 -0.23,0.5 -0.5,0.5 -0.3,0 -0.5,-0.22 -0.5,-0.5 0,-0.27 0.2,-0.5 0.5,-0.5 0.27,0 0.5,0.23 0.5,0.5 z m -8.03,0 c 0,0.28 -0.22,0.5 -0.5,0.5 -0.27,0 -0.5,-0.22 -0.5,-0.5 0,-0.27 0.23,-0.5 0.5,-0.5 0.28,0 0.5,0.23 0.5,0.5 z m -8,0 c 0,0.28 -0.23,0.5 -0.5,0.5 -0.3,0 -0.5,-0.22 -0.5,-0.5 0,-0.27 0.2,-0.5 0.5,-0.5 0.27,0 0.5,0.23 0.5,0.5 z m -8.03,0 c 0,0.28 -0.2,0.5 -0.5,0.5 -0.26,0 -0.5,-0.22 -0.5,-0.5 0,-0.27 0.24,-0.5 0.5,-0.5 0.3,0 0.5,0.23 0.5,0.5 z m -8,0 c 0,0.28 -0.22,0.5 -0.5,0.5 -0.28,0 -0.5,-0.22 -0.5,-0.5 0,-0.27 0.22,-0.5 0.5,-0.5 0.28,0 0.5,0.23 0.5,0.5 z m -8.02,0 c 0,0.28 -0.22,0.5 -0.5,0.5 -0.27,0 -0.5,-0.22 -0.5,-0.5 0,-0.27 0.23,-0.5 0.5,-0.5 0.28,0 0.5,0.23 0.5,0.5 z m -8,0 c 0,0.28 -0.23,0.5 -0.5,0.5 -0.3,0 -0.5,-0.22 -0.5,-0.5 0,-0.27 0.2,-0.5 0.5,-0.5 0.27,0 0.5,0.23 0.5,0.5 z m -8.03,0 c 0,0.28 -0.22,0.5 -0.5,0.5 -0.27,0 -0.5,-0.22 -0.5,-0.5 0,-0.27 0.23,-0.5 0.5,-0.5 0.28,0 0.5,0.23 0.5,0.5 z m -8,0 c 0,0.28 -0.23,0.5 -0.5,0.5 -0.3,0 -0.5,-0.22 -0.5,-0.5 0,-0.27 0.2,-0.5 0.5,-0.5 0.27,0 0.5,0.23 0.5,0.5 z m -8.03,0 c 0,0.28 -0.22,0.5 -0.5,0.5 -0.27,0 -0.5,-0.22 -0.5,-0.5 0,-0.27 0.23,-0.5 0.5,-0.5 0.28,0 0.5,0.23 0.5,0.5 z m -8,0 c 0,0.28 -0.23,0.5 -0.5,0.5 -0.3,0 -0.5,-0.22 -0.5,-0.5 0,-0.27 0.2,-0.5 0.5,-0.5 0.27,0 0.5,0.23 0.5,0.5 z m -8.03,0 c 0,0.28 -0.23,0.5 -0.5,0.5 -0.28,0 -0.5,-0.22 -0.5,-0.5 0,-0.27 0.22,-0.5 0.5,-0.5 0.27,0 0.5,0.23 0.5,0.5 z m -8.02,0 c 0,0.28 -0.22,0.5 -0.5,0.5 -0.28,0 -0.5,-0.22 -0.5,-0.5 0,-0.27 0.22,-0.5 0.5,-0.5 0.28,0 0.5,0.23 0.5,0.5 z m -8.02,0 c 0,0.28 -0.22,0.5 -0.5,0.5 -0.27,0 -0.5,-0.22 -0.5,-0.5 0,-0.27 0.23,-0.5 0.5,-0.5 0.28,0 0.5,0.23 0.5,0.5 z m -8,0 c 0,0.28 -0.23,0.5 -0.5,0.5 -0.3,0 -0.5,-0.22 -0.5,-0.5 0,-0.27 0.2,-0.5 0.5,-0.5 0.27,0 0.5,0.23 0.5,0.5 z m -8.03,0 c 0,0.28 -0.22,0.5 -0.5,0.5 -0.27,0 -0.5,-0.22 -0.5,-0.5 0,-0.27 0.23,-0.5 0.5,-0.5 0.28,0 0.5,0.23 0.5,0.5 z m -8,0 c 0,0.28 -0.23,0.5 -0.5,0.5 -0.3,0 -0.5,-0.22 -0.5,-0.5 0,-0.27 0.2,-0.5 0.5,-0.5 0.27,0 0.5,0.23 0.5,0.5 z m -8.03,0 c 0,0.28 -0.22,0.5 -0.5,0.5 -0.27,0 -0.5,-0.22 -0.5,-0.5 0,-0.27 0.23,-0.5 0.5,-0.5 0.28,0 0.5,0.23 0.5,0.5 z m -8,0 c 0,0.28 -0.23,0.5 -0.5,0.5 -0.3,0 -0.5,-0.22 -0.5,-0.5 0,-0.27 0.2,-0.5 0.5,-0.5 0.27,0 0.5,0.23 0.5,0.5 z m -8.03,0 c 0,0.28 -0.22,0.5 -0.5,0.5 -0.27,0 -0.5,-0.22 -0.5,-0.5 0,-0.27 0.23,-0.5 0.5,-0.5 0.28,0 0.5,0.23 0.5,0.5 z m -8,0 c 0,0.28 -0.23,0.5 -0.5,0.5 -0.3,0 -0.5,-0.22 -0.5,-0.5 0,-0.27 0.2,-0.5 0.5,-0.5 0.27,0 0.5,0.23 0.5,0.5 z m -8.03,0 c 0,0.28 -0.22,0.5 -0.5,0.5 -0.27,0 -0.5,-0.22 -0.5,-0.5 0,-0.27 0.23,-0.5 0.5,-0.5 0.28,0 0.5,0.23 0.5,0.5 z m -8,0 c 0,0.28 -0.23,0.5 -0.5,0.5 -0.3,0 -0.5,-0.22 -0.5,-0.5 0,-0.27 0.2,-0.5 0.5,-0.5 0.27,0 0.5,0.23 0.5,0.5 z m -8.03,0 c 0,0.28 -0.2,0.5 -0.5,0.5 -0.26,0 -0.5,-0.22 -0.5,-0.5 0,-0.27 0.24,-0.5 0.5,-0.5 0.3,0 0.5,0.23 0.5,0.5 z m -8,0 c 0,0.28 -0.22,0.5 -0.5,0.5 -0.28,0 -0.5,-0.22 -0.5,-0.5 0,-0.27 0.22,-0.5 0.5,-0.5 0.28,0 0.5,0.23 0.5,0.5 z"
         fill="#5e5e5e"
         id="path1252" />
      <path
         d="m 113.42,550.42 v -8.54 m 0,-8.54 v -1.7 m 0,-8.54 v -17.07 m 0,-8.54 v -1.72 m 0,-8.53 V 465.8 m 0,-12.9 v -2.58 m 0,-12.9 V 424.5"
         stroke="#5e5e5e"
         stroke-width="2"
         fill="none"
         id="path1254" />
      <path
         d="m 114.42,551.42 h -2 v -1.03 h 2 z"
         stroke="#5e5e5e"
         stroke-width="0.05"
         fill="#5e5e5e"
         id="path1256" />
      <path
         d="m 113.42,409.24 4.63,14.26 h -9.27 z"
         stroke="#5e5e5e"
         stroke-width="2"
         fill="#5e5e5e"
         id="path1258" />
      <path
         d="m 70.74,557.42 c 0,-3.32 2.7,-6 6,-6 h 73.35 c 3.3,0 6,2.68 6,6 v 48 c 0,3.3 -2.7,6 -6,6 H 76.73 c -3.3,0 -6,-2.7 -6,-6 z"
         stroke="#000000"
         stroke-opacity="0"
         stroke-width="3"
         fill="#ffffff"
         fill-opacity="0"
         id="path1260" />
      <use
         xlink:href="#t"
         transform="translate(106.98495,586.6951)"
         id="use1262"
         x="0"
         y="0"
         width="100%"
         height="100%" />
      <g
         fill="none"
         id="g1280">
        <path
           d="m 620.67,541.42 c 3.3,0 6,2.68 6,6 v 68 c 0,3.3 -2.7,6 -6,6 H 466 c -3.3,0 -6,-2.7 -6,-6 v -68 c 0,-3.32 2.7,-6 6,-6 z"
           id="path1276" />
        <path
           d="m 460,541.42 c 0,5.52 4.48,10 10,10 h 63.33 c 5.53,0 10,4.47 10,10 0,-5.53 4.48,-10 10,-10 h 63.34 c 5.52,0 10,-4.48 10,-10"
           stroke="#5e5e5e"
           stroke-width="3"
           id="path1278" />
      </g>
      <g
         id="g1288">
        <use
           xlink:href="#q"
           transform="translate(518.12963,594.1951)"
           id="use1282"
           x="0"
           y="0"
           width="100%"
           height="100%" />
        <use
           xlink:href="#r"
           transform="translate(537.38889,594.1951)"
           id="use1284"
           x="0"
           y="0"
           width="100%"
           height="100%" />
        <use
           xlink:href="#s"
           transform="translate(556.52469,594.1951)"
           id="use1286"
           x="0"
           y="0"
           width="100%"
           height="100%" />
      </g>
      <g
         fill="none"
         id="g1294">
        <path
           d="m 945.92,536.08 c 3.3,0 6,2.7 6,6 v 68 c 0,3.3 -2.7,6 -6,6 H 792.67 c -3.32,0 -6,-2.7 -6,-6 v -68 c 0,-3.3 2.68,-6 6,-6 z"
           id="path1290" />
        <path
           d="m 786.67,536.08 c 0,5.52 4.47,10 10,10 h 62.62 c 5.5,0 10,4.48 10,10 0,-5.52 4.47,-10 10,-10 h 62.62 c 5.52,0 10,-4.48 10,-10"
           stroke="#5e5e5e"
           stroke-width="3"
           id="path1292" />
      </g>
      <g
         id="g1302">
        <use
           xlink:href="#q"
           transform="translate(844.2963,588.85854)"
           id="use1296"
           x="0"
           y="0"
           width="100%"
           height="100%" />
        <use
           xlink:href="#r"
           transform="translate(863.55556,588.85854)"
           id="use1298"
           x="0"
           y="0"
           width="100%"
           height="100%" />
        <use
           xlink:href="#s"
           transform="translate(882.69136,588.85854)"
           id="use1300"
           x="0"
           y="0"
           width="100%"
           height="100%" />
      </g>
      <defs
         id="defs1514">
        <path
           fill="#333333"
           d="M 231,0 H 179 L 140,-155 100,0 H 48 L -1,-190 h 46 l 32,145 c 9,-52 24,-97 36,-145 h 53 l 37,145 32,-145 h 46"
           id="u" />
        <path
           fill="#333333"
           d="M 133,-34 C 117,-15 103,5 69,4 32,3 11,-16 11,-54 c -1,-60 55,-63 116,-61 1,-26 -3,-47 -28,-47 -18,1 -26,9 -28,27 l -52,-2 c 7,-38 36,-58 82,-57 46,1 74,22 75,68 l 1,82 c -1,14 12,18 25,15 v 27 c -30,8 -71,5 -69,-32 z m -48,3 c 29,0 43,-24 42,-57 -32,0 -66,-3 -65,30 0,17 8,27 23,27"
           id="v" />
        <path
           fill="#333333"
           d="m 25,-224 v -37 h 50 v 37 z M 25,0 V -190 H 75 V 0 H 25"
           id="w" />
        <path
           fill="#333333"
           d="M 115,-3 C 79,11 28,4 28,-45 V -157 H 4 v -33 h 27 l 15,-45 h 31 v 45 h 36 v 33 H 77 v 99 c -1,23 16,31 38,25 v 30"
           id="x" />
        <path
           fill="#333333"
           d="m 135,-194 c 87,-1 58,113 63,194 h -50 c -7,-57 23,-157 -34,-157 -59,0 -34,97 -39,157 H 25 l -1,-190 h 47 c 2,12 -1,28 3,38 12,-26 28,-41 61,-42"
           id="y" />
        <path
           fill="#333333"
           d="M 195,-6 C 206,82 75,100 31,46 27,40 25,33 23,25 l 49,-6 c 3,16 16,24 34,25 40,0 42,-37 40,-79 C 135,-13 116,0 85,0 32,0 15,-43 15,-97 c 0,-56 18,-96 73,-97 30,0 46,14 59,34 l 2,-30 h 47 z m -90,-29 c 32,0 41,-27 41,-63 0,-35 -9,-62 -40,-62 -32,0 -39,29 -40,63 0,36 9,62 39,62"
           id="z" />
        <g
           id="a">
          <use
             transform="scale(0.04938272)"
             xlink:href="#u"
             id="use1310"
             x="0"
             y="0"
             width="100%"
             height="100%" />
          <use
             transform="matrix(0.04938272,0,0,0.04938272,13.82716,0)"
             xlink:href="#v"
             id="use1312"
             x="0"
             y="0"
             width="100%"
             height="100%" />
          <use
             transform="matrix(0.04938272,0,0,0.04938272,23.703704,0)"
             xlink:href="#w"
             id="use1314"
             x="0"
             y="0"
             width="100%"
             height="100%" />
          <use
             transform="matrix(0.04938272,0,0,0.04938272,28.641975,0)"
             xlink:href="#x"
             id="use1316"
             x="0"
             y="0"
             width="100%"
             height="100%" />
          <use
             transform="matrix(0.04938272,0,0,0.04938272,34.518519,0)"
             xlink:href="#w"
             id="use1318"
             x="0"
             y="0"
             width="100%"
             height="100%" />
          <use
             transform="matrix(0.04938272,0,0,0.04938272,39.45679,0)"
             xlink:href="#y"
             id="use1320"
             x="0"
             y="0"
             width="100%"
             height="100%" />
          <use
             transform="matrix(0.04938272,0,0,0.04938272,50.271605,0)"
             xlink:href="#z"
             id="use1322"
             x="0"
             y="0"
             width="100%"
             height="100%" />
        </g>
        <path
           fill="#333333"
           d="m 110,-194 c 64,0 96,36 96,99 0,64 -35,99 -97,99 -61,0 -95,-36 -95,-99 0,-62 34,-99 96,-99 z m -1,164 c 35,0 45,-28 45,-65 0,-40 -10,-65 -43,-65 -34,0 -45,26 -45,65 0,36 10,65 43,65"
           id="A" />
        <g
           id="b">
          <use
             transform="scale(0.04938272)"
             xlink:href="#x"
             id="use1326"
             x="0"
             y="0"
             width="100%"
             height="100%" />
          <use
             transform="matrix(0.04938272,0,0,0.04938272,5.8765432,0)"
             xlink:href="#A"
             id="use1328"
             x="0"
             y="0"
             width="100%"
             height="100%" />
        </g>
        <path
           fill="#333333"
           d="m 137,-138 c 1,-29 -70,-34 -71,-4 15,46 118,7 119,86 1,83 -164,76 -172,9 l 43,-7 c 4,19 20,25 44,25 33,8 57,-30 24,-41 -43,-14 -102,-11 -104,-66 -2,-80 154,-74 161,-7"
           id="B" />
        <path
           fill="#333333"
           d="M 185,-48 C 172,-18 148,5 103,4 43,2 14,-33 14,-96 c 0,-63 30,-98 90,-98 62,0 83,45 84,108 H 66 c 0,31 8,55 39,56 18,0 30,-7 34,-22 z m -45,-69 c 5,-46 -57,-63 -70,-21 -2,6 -4,13 -4,21 h 74"
           id="C" />
        <path
           fill="#333333"
           d="m 88,-194 c 31,-1 46,15 58,34 l -1,-101 h 50 l 1,261 h -48 c -2,-10 0,-23 -3,-31 C 134,-8 116,4 84,4 32,4 16,-41 15,-95 c 0,-56 19,-97 73,-99 z m 17,164 c 33,0 40,-30 41,-66 1,-37 -9,-64 -41,-64 -32,0 -38,30 -39,65 0,43 13,65 39,65"
           id="D" />
        <g
           id="c">
          <use
             transform="scale(0.04938272)"
             xlink:href="#B"
             id="use1334"
             x="0"
             y="0"
             width="100%"
             height="100%" />
          <use
             transform="matrix(0.04938272,0,0,0.04938272,9.8765432,0)"
             xlink:href="#C"
             id="use1336"
             x="0"
             y="0"
             width="100%"
             height="100%" />
          <use
             transform="matrix(0.04938272,0,0,0.04938272,19.753086,0)"
             xlink:href="#y"
             id="use1338"
             x="0"
             y="0"
             width="100%"
             height="100%" />
          <use
             transform="matrix(0.04938272,0,0,0.04938272,30.567901,0)"
             xlink:href="#D"
             id="use1340"
             x="0"
             y="0"
             width="100%"
             height="100%" />
        </g>
        <g
           id="d">
          <use
             transform="scale(0.04938272)"
             xlink:href="#x"
             id="use1343"
             x="0"
             y="0"
             width="100%"
             height="100%" />
          <use
             transform="matrix(0.04938272,0,0,0.04938272,5.8765432,0)"
             xlink:href="#A"
             id="use1345"
             x="0"
             y="0"
             width="100%"
             height="100%" />
        </g>
        <path
           fill="#333333"
           d="M 114,-157 C 55,-157 80,-60 75,0 H 25 v -261 h 50 l -1,109 c 12,-26 28,-41 61,-42 86,-1 58,113 63,194 h -50 c -7,-57 23,-157 -34,-157"
           id="E" />
        <g
           id="e">
          <use
             transform="scale(0.04938272)"
             xlink:href="#x"
             id="use1349"
             x="0"
             y="0"
             width="100%"
             height="100%" />
          <use
             transform="matrix(0.04938272,0,0,0.04938272,5.8765432,0)"
             xlink:href="#E"
             id="use1351"
             x="0"
             y="0"
             width="100%"
             height="100%" />
          <use
             transform="matrix(0.04938272,0,0,0.04938272,16.691358,0)"
             xlink:href="#C"
             id="use1353"
             x="0"
             y="0"
             width="100%"
             height="100%" />
        </g>
        <path
           fill="#333333"
           d="m 135,-194 c 52,0 70,43 70,98 C 205,-40 186,3 132,4 102,5 86,-11 74,-31 L 72,0 H 24 l 1,-261 h 50 v 104 c 11,-23 29,-37 60,-37 z m -21,164 c 31,0 40,-27 40,-66 0,-37 -7,-63 -39,-63 -32,0 -41,28 -41,65 0,36 8,64 40,64"
           id="F" />
        <path
           fill="#333333"
           d="M 147,0 96,-86 75,-71 V 0 H 25 v -261 h 50 v 150 l 67,-79 h 53 l -66,74 72,116 h -54"
           id="G" />
        <g
           id="f">
          <use
             transform="scale(0.04938272)"
             xlink:href="#F"
             id="use1358"
             x="0"
             y="0"
             width="100%"
             height="100%" />
          <use
             transform="matrix(0.04938272,0,0,0.04938272,10.814815,0)"
             xlink:href="#v"
             id="use1360"
             x="0"
             y="0"
             width="100%"
             height="100%" />
          <use
             transform="matrix(0.04938272,0,0,0.04938272,20.691358,0)"
             xlink:href="#y"
             id="use1362"
             x="0"
             y="0"
             width="100%"
             height="100%" />
          <use
             transform="matrix(0.04938272,0,0,0.04938272,31.506173,0)"
             xlink:href="#G"
             id="use1364"
             x="0"
             y="0"
             width="100%"
             height="100%" />
        </g>
        <path
           fill="#333333"
           d="m 115,-194 c 55,1 70,41 70,98 C 185,-39 169,2 115,4 84,4 66,-9 55,-30 L 56,75 H 24 l -1,-265 h 31 l 2,30 c 10,-21 28,-34 59,-34 z m -8,174 c 40,0 45,-34 45,-75 0,-41 -6,-73 -45,-74 -42,0 -51,32 -51,76 0,43 10,73 51,73"
           id="H" />
        <path
           fill="#333333"
           d="m 100,-194 c 63,0 86,42 84,106 H 49 c 0,40 14,67 53,68 26,1 43,-12 49,-29 l 28,8 C 168,-13 142,4 102,4 44,4 14,-33 15,-96 c 1,-61 26,-98 85,-98 z m 52,81 c 6,-60 -76,-77 -97,-28 -3,7 -6,17 -6,28 h 103"
           id="I" />
        <path
           fill="#333333"
           d="m 117,-194 c 89,-4 53,116 60,194 h -32 v -121 c 0,-31 -8,-49 -39,-48 C 34,-167 62,-67 57,0 H 25 l -1,-190 h 30 c 1,10 -1,24 2,32 11,-22 29,-35 61,-36"
           id="J" />
        <path
           fill="#333333"
           d="m 85,-194 c 31,0 48,13 60,33 l -1,-100 h 32 l 1,261 h -30 c -2,-10 0,-23 -3,-31 C 134,-8 116,4 85,4 32,4 16,-35 15,-94 c 0,-66 23,-100 70,-100 z m 9,24 c -40,0 -46,34 -46,75 0,40 6,74 45,74 42,0 51,-32 51,-76 0,-42 -9,-74 -50,-73"
           id="K" />
        <path
           fill="#333333"
           d="m 24,-231 v -30 h 32 v 30 z M 24,0 V -190 H 56 V 0 H 24"
           id="L" />
        <path
           fill="#333333"
           d="M 177,-190 C 167,-65 218,103 67,71 44,65 29,51 23,28 L 55,23 C 70,70 155,55 144,-5 V -35 C 133,-14 115,1 83,1 29,1 15,-40 15,-95 c 0,-56 16,-97 71,-98 29,-1 48,16 59,35 1,-10 0,-23 2,-32 z M 94,-22 c 36,0 50,-32 50,-73 0,-42 -14,-75 -50,-75 -39,0 -46,34 -46,75 0,41 6,73 46,73"
           id="M" />
        <g
           id="g">
          <use
             transform="scale(0.0617284)"
             xlink:href="#H"
             id="use1373"
             x="0"
             y="0"
             width="100%"
             height="100%" />
          <use
             transform="matrix(0.0617284,0,0,0.0617284,12.345679,0)"
             xlink:href="#I"
             id="use1375"
             x="0"
             y="0"
             width="100%"
             height="100%" />
          <use
             transform="matrix(0.0617284,0,0,0.0617284,24.691358,0)"
             xlink:href="#J"
             id="use1377"
             x="0"
             y="0"
             width="100%"
             height="100%" />
          <use
             transform="matrix(0.0617284,0,0,0.0617284,37.037037,0)"
             xlink:href="#K"
             id="use1379"
             x="0"
             y="0"
             width="100%"
             height="100%" />
          <use
             transform="matrix(0.0617284,0,0,0.0617284,49.382716,0)"
             xlink:href="#L"
             id="use1381"
             x="0"
             y="0"
             width="100%"
             height="100%" />
          <use
             transform="matrix(0.0617284,0,0,0.0617284,54.259259,0)"
             xlink:href="#J"
             id="use1383"
             x="0"
             y="0"
             width="100%"
             height="100%" />
          <use
             transform="matrix(0.0617284,0,0,0.0617284,66.604938,0)"
             xlink:href="#M"
             id="use1385"
             x="0"
             y="0"
             width="100%"
             height="100%" />
        </g>
        <g
           id="h">
          <use
             transform="scale(0.04938272)"
             xlink:href="#B"
             id="use1388"
             x="0"
             y="0"
             width="100%"
             height="100%" />
          <use
             transform="matrix(0.04938272,0,0,0.04938272,9.8765432,0)"
             xlink:href="#C"
             id="use1390"
             x="0"
             y="0"
             width="100%"
             height="100%" />
          <use
             transform="matrix(0.04938272,0,0,0.04938272,19.753086,0)"
             xlink:href="#y"
             id="use1392"
             x="0"
             y="0"
             width="100%"
             height="100%" />
          <use
             transform="matrix(0.04938272,0,0,0.04938272,30.567901,0)"
             xlink:href="#x"
             id="use1394"
             x="0"
             y="0"
             width="100%"
             height="100%" />
        </g>
        <g
           id="i">
          <use
             transform="scale(0.04938272)"
             xlink:href="#x"
             id="use1397"
             x="0"
             y="0"
             width="100%"
             height="100%" />
          <use
             transform="matrix(0.04938272,0,0,0.04938272,5.8765432,0)"
             xlink:href="#A"
             id="use1399"
             x="0"
             y="0"
             width="100%"
             height="100%" />
        </g>
        <g
           id="j">
          <use
             transform="scale(0.0617284)"
             xlink:href="#L"
             id="use1402"
             x="0"
             y="0"
             width="100%"
             height="100%" />
          <use
             transform="matrix(0.0617284,0,0,0.0617284,4.8765432,0)"
             xlink:href="#J"
             id="use1404"
             x="0"
             y="0"
             width="100%"
             height="100%" />
        </g>
        <path
           fill="#333333"
           d="M 114,-163 C 36,-179 61,-72 57,0 H 25 l -1,-190 h 30 c 1,12 -1,29 2,39 6,-27 23,-49 58,-41 v 29"
           id="N" />
        <path
           fill="#333333"
           d="m 100,-194 c 62,-1 85,37 85,99 1,63 -27,99 -86,99 -59,0 -83,-39 -84,-99 0,-66 28,-99 85,-99 z m -1,174 c 44,1 53,-31 53,-75 0,-43 -8,-75 -51,-75 -43,0 -53,32 -53,75 0,43 10,74 51,75"
           id="O" />
        <path
           fill="#333333"
           d="m 135,-143 c -3,-34 -86,-38 -87,0 15,53 115,12 119,90 4,78 -150,74 -157,8 l 28,-5 c 4,36 97,45 98,0 -10,-56 -113,-15 -118,-90 -4,-57 82,-63 122,-42 12,7 21,19 24,35"
           id="P" />
        <g
           id="k">
          <use
             transform="scale(0.0617284)"
             xlink:href="#H"
             id="use1410"
             x="0"
             y="0"
             width="100%"
             height="100%" />
          <use
             transform="matrix(0.0617284,0,0,0.0617284,12.345679,0)"
             xlink:href="#N"
             id="use1412"
             x="0"
             y="0"
             width="100%"
             height="100%" />
          <use
             transform="matrix(0.0617284,0,0,0.0617284,19.691358,0)"
             xlink:href="#O"
             id="use1414"
             x="0"
             y="0"
             width="100%"
             height="100%" />
          <use
             transform="matrix(0.0617284,0,0,0.0617284,32.037037,0)"
             xlink:href="#M"
             id="use1416"
             x="0"
             y="0"
             width="100%"
             height="100%" />
          <use
             transform="matrix(0.0617284,0,0,0.0617284,44.382716,0)"
             xlink:href="#N"
             id="use1418"
             x="0"
             y="0"
             width="100%"
             height="100%" />
          <use
             transform="matrix(0.0617284,0,0,0.0617284,51.728395,0)"
             xlink:href="#I"
             id="use1420"
             x="0"
             y="0"
             width="100%"
             height="100%" />
          <use
             transform="matrix(0.0617284,0,0,0.0617284,64.074074,0)"
             xlink:href="#P"
             id="use1422"
             x="0"
             y="0"
             width="100%"
             height="100%" />
          <use
             transform="matrix(0.0617284,0,0,0.0617284,75.185185,0)"
             xlink:href="#P"
             id="use1424"
             x="0"
             y="0"
             width="100%"
             height="100%" />
        </g>
        <path
           fill="#333333"
           d="m 121,-226 c -27,-7 -43,5 -38,36 h 38 v 33 H 83 V 0 H 34 V -157 H 6 v -33 h 28 c -9,-59 32,-81 87,-68 v 32"
           id="Q" />
        <path
           fill="#333333"
           d="M 85,4 C -2,5 27,-109 22,-190 h 50 c 7,57 -23,150 33,157 60,-5 35,-97 40,-157 h 50 l 1,190 h -47 c -2,-12 1,-28 -3,-38 -12,25 -28,42 -61,42"
           id="R" />
        <g
           id="l">
          <use
             transform="scale(0.04938272)"
             xlink:href="#Q"
             id="use1429"
             x="0"
             y="0"
             width="100%"
             height="100%" />
          <use
             transform="matrix(0.04938272,0,0,0.04938272,5.8765432,0)"
             xlink:href="#R"
             id="use1431"
             x="0"
             y="0"
             width="100%"
             height="100%" />
          <use
             transform="matrix(0.04938272,0,0,0.04938272,16.691358,0)"
             xlink:href="#y"
             id="use1433"
             x="0"
             y="0"
             width="100%"
             height="100%" />
          <use
             transform="matrix(0.04938272,0,0,0.04938272,27.506173,0)"
             xlink:href="#D"
             id="use1435"
             x="0"
             y="0"
             width="100%"
             height="100%" />
          <use
             transform="matrix(0.04938272,0,0,0.04938272,38.320988,0)"
             xlink:href="#B"
             id="use1437"
             x="0"
             y="0"
             width="100%"
             height="100%" />
        </g>
        <path
           fill="#333333"
           d="M 190,-63 C 183,-21 152,4 104,4 45,4 20,-34 14,-94 2,-204 168,-231 188,-130 l -49,2 c -2,-19 -15,-32 -35,-32 -30,0 -35,28 -38,64 -6,74 65,87 74,30"
           id="S" />
        <path
           fill="#333333"
           d="M 25,0 V -261 H 75 V 0 H 25"
           id="T" />
        <path
           fill="#333333"
           d="m 135,-150 c -39,-12 -60,13 -60,57 V 0 H 25 l -1,-190 h 47 c 2,13 -1,29 3,40 6,-28 27,-53 61,-41 v 41"
           id="U" />
        <g
           id="m">
          <use
             transform="scale(0.04938272)"
             xlink:href="#S"
             id="use1443"
             x="0"
             y="0"
             width="100%"
             height="100%" />
          <use
             transform="matrix(0.04938272,0,0,0.04938272,9.8765432,0)"
             xlink:href="#T"
             id="use1445"
             x="0"
             y="0"
             width="100%"
             height="100%" />
          <use
             transform="matrix(0.04938272,0,0,0.04938272,14.814815,0)"
             xlink:href="#C"
             id="use1447"
             x="0"
             y="0"
             width="100%"
             height="100%" />
          <use
             transform="matrix(0.04938272,0,0,0.04938272,24.691358,0)"
             xlink:href="#v"
             id="use1449"
             x="0"
             y="0"
             width="100%"
             height="100%" />
          <use
             transform="matrix(0.04938272,0,0,0.04938272,34.567901,0)"
             xlink:href="#U"
             id="use1451"
             x="0"
             y="0"
             width="100%"
             height="100%" />
          <use
             transform="matrix(0.04938272,0,0,0.04938272,41.481481,0)"
             xlink:href="#C"
             id="use1453"
             x="0"
             y="0"
             width="100%"
             height="100%" />
          <use
             transform="matrix(0.04938272,0,0,0.04938272,51.358025,0)"
             xlink:href="#D"
             id="use1455"
             x="0"
             y="0"
             width="100%"
             height="100%" />
        </g>
        <path
           fill="#333333"
           d="M 84,4 C -5,8 30,-112 23,-190 h 32 v 120 c 0,31 7,50 39,49 72,-2 45,-101 50,-169 h 31 l 1,190 h -30 c -1,-10 1,-25 -2,-33 -11,22 -28,36 -60,37"
           id="V" />
        <path
           fill="#333333"
           d="m 96,-169 c -40,0 -48,33 -48,73 0,40 9,75 48,75 24,0 41,-14 43,-38 l 32,2 C 165,-20 140,4 97,4 38,4 21,-37 15,-95 c -10,-93 101,-131 147,-64 4,7 5,14 7,22 l -32,3 c -4,-21 -16,-35 -41,-35"
           id="W" />
        <path
           fill="#333333"
           d="m 101,-234 c -31,-9 -42,10 -38,44 h 38 v 23 H 63 V 0 H 32 V -167 H 5 v -23 h 27 c -7,-52 17,-82 69,-68 v 24"
           id="X" />
        <path
           fill="#333333"
           d="M 24,0 V -261 H 56 V 0 H 24"
           id="Y" />
        <g
           id="n">
          <use
             transform="scale(0.0617284)"
             xlink:href="#P"
             id="use1462"
             x="0"
             y="0"
             width="100%"
             height="100%" />
          <use
             transform="matrix(0.0617284,0,0,0.0617284,11.111111,0)"
             xlink:href="#V"
             id="use1464"
             x="0"
             y="0"
             width="100%"
             height="100%" />
          <use
             transform="matrix(0.0617284,0,0,0.0617284,23.45679,0)"
             xlink:href="#W"
             id="use1466"
             x="0"
             y="0"
             width="100%"
             height="100%" />
          <use
             transform="matrix(0.0617284,0,0,0.0617284,34.567901,0)"
             xlink:href="#W"
             id="use1468"
             x="0"
             y="0"
             width="100%"
             height="100%" />
          <use
             transform="matrix(0.0617284,0,0,0.0617284,45.679012,0)"
             xlink:href="#I"
             id="use1470"
             x="0"
             y="0"
             width="100%"
             height="100%" />
          <use
             transform="matrix(0.0617284,0,0,0.0617284,58.024691,0)"
             xlink:href="#P"
             id="use1472"
             x="0"
             y="0"
             width="100%"
             height="100%" />
          <use
             transform="matrix(0.0617284,0,0,0.0617284,69.135802,0)"
             xlink:href="#P"
             id="use1474"
             x="0"
             y="0"
             width="100%"
             height="100%" />
          <use
             transform="matrix(0.0617284,0,0,0.0617284,80.246914,0)"
             xlink:href="#X"
             id="use1476"
             x="0"
             y="0"
             width="100%"
             height="100%" />
          <use
             transform="matrix(0.0617284,0,0,0.0617284,86.419753,0)"
             xlink:href="#V"
             id="use1478"
             x="0"
             y="0"
             width="100%"
             height="100%" />
          <use
             transform="matrix(0.0617284,0,0,0.0617284,98.765432,0)"
             xlink:href="#Y"
             id="use1480"
             x="0"
             y="0"
             width="100%"
             height="100%" />
        </g>
        <path
           fill="#333333"
           d="M 1,44 V -231 L 276,-94"
           id="Z" />
        <use
           transform="scale(0.0617284)"
           xlink:href="#Z"
           id="o"
           x="0"
           y="0"
           width="100%"
           height="100%" />
        <path
           fill="#333333"
           d="m 115,-194 c 53,0 69,39 70,98 C 185,-30 162,4 115,4 84,3 66,-7 56,-30 L 54,0 H 23 l 1,-261 h 32 v 101 c 10,-23 28,-34 59,-34 z m -8,174 c 40,0 45,-34 45,-75 0,-40 -5,-75 -45,-74 -42,0 -51,32 -51,76 0,43 10,73 51,73"
           id="aa" />
        <path
           fill="#333333"
           d="m 210,-169 c -67,3 -38,105 -44,169 h -31 v -121 c 0,-29 -5,-50 -35,-48 C 34,-165 62,-65 56,0 H 25 l -1,-190 h 30 c 1,10 -1,24 2,32 10,-44 99,-50 107,0 11,-21 27,-35 58,-36 85,-2 47,119 55,194 h -31 v -121 c 0,-29 -5,-49 -35,-48"
           id="ab" />
        <path
           fill="#333333"
           d="m 59,-47 c -2,24 18,29 38,22 V -1 C 64,9 27,4 27,-40 V -167 H 5 v -23 h 24 l 9,-43 h 21 v 43 h 35 v 23 H 59 v 120"
           id="ac" />
        <g
           id="p">
          <use
             transform="scale(0.05555556)"
             xlink:href="#P"
             id="use1488"
             x="0"
             y="0"
             width="100%"
             height="100%" />
          <use
             transform="matrix(0.05555556,0,0,0.05555556,10,0)"
             xlink:href="#V"
             id="use1490"
             x="0"
             y="0"
             width="100%"
             height="100%" />
          <use
             transform="matrix(0.05555556,0,0,0.05555556,21.111111,0)"
             xlink:href="#aa"
             id="use1492"
             x="0"
             y="0"
             width="100%"
             height="100%" />
          <use
             transform="matrix(0.05555556,0,0,0.05555556,32.222222,0)"
             xlink:href="#ab"
             id="use1494"
             x="0"
             y="0"
             width="100%"
             height="100%" />
          <use
             transform="matrix(0.05555556,0,0,0.05555556,48.833333,0)"
             xlink:href="#L"
             id="use1496"
             x="0"
             y="0"
             width="100%"
             height="100%" />
          <use
             transform="matrix(0.05555556,0,0,0.05555556,53.222222,0)"
             xlink:href="#ac"
             id="use1498"
             x="0"
             y="0"
             width="100%"
             height="100%" />
          <use
             transform="matrix(0.05555556,0,0,0.05555556,58.777778,0)"
             xlink:href="#ac"
             id="use1500"
             x="0"
             y="0"
             width="100%"
             height="100%" />
          <use
             transform="matrix(0.05555556,0,0,0.05555556,64.333333,0)"
             xlink:href="#I"
             id="use1502"
             x="0"
             y="0"
             width="100%"
             height="100%" />
          <use
             transform="matrix(0.05555556,0,0,0.05555556,75.444444,0)"
             xlink:href="#K"
             id="use1504"
             x="0"
             y="0"
             width="100%"
             height="100%" />
        </g>
        <path
           fill="#333333"
           d="M 127,-220 V 0 H 93 V -220 H 8 v -28 h 204 v 28 h -85"
           id="ad" />
        <use
           transform="scale(0.0617284)"
           xlink:href="#ad"
           id="q"
           x="0"
           y="0"
           width="100%"
           height="100%" />
        <path
           fill="#333333"
           d="m 118,-107 v 75 H 92 v -75 H 18 v -26 h 74 v -75 h 26 v 75 h 74 v 26 h -74"
           id="ae" />
        <use
           transform="scale(0.0617284)"
           xlink:href="#ae"
           id="r"
           x="0"
           y="0"
           width="100%"
           height="100%" />
        <path
           fill="#333333"
           d="m 103,-251 c 84,0 111,97 45,133 -19,10 -37,24 -39,52 H 78 c 0,-63 77,-55 77,-114 0,-30 -21,-42 -52,-43 -32,0 -53,17 -56,46 l -32,-2 c 7,-45 34,-72 88,-72 z M 77,0 v -35 h 34 V 0 H 77"
           id="af" />
        <use
           transform="scale(0.0617284)"
           xlink:href="#af"
           id="s"
           x="0"
           y="0"
           width="100%"
           height="100%" />
        <use
           transform="scale(0.0617284)"
           xlink:href="#ad"
           id="t"
           x="0"
           y="0"
           width="100%"
           height="100%" />
      </defs>
    </g>
  </g>
  <script
     id="mesh_polyfill"
     type="text/javascript">
!function(){const t=&quot;http://www.w3.org/2000/svg&quot;,e=&quot;http://www.w3.org/1999/xlink&quot;,s=&quot;http://www.w3.org/1999/xhtml&quot;,r=2;if(document.createElementNS(t,&quot;meshgradient&quot;).x)return;const n=(t,e,s,r)=&gt;{let n=new x(.5*(e.x+s.x),.5*(e.y+s.y)),o=new x(.5*(t.x+e.x),.5*(t.y+e.y)),i=new x(.5*(s.x+r.x),.5*(s.y+r.y)),a=new x(.5*(n.x+o.x),.5*(n.y+o.y)),h=new x(.5*(n.x+i.x),.5*(n.y+i.y)),l=new x(.5*(a.x+h.x),.5*(a.y+h.y));return[[t,o,a,l],[l,h,i,r]]},o=t=&gt;{let e=t[0].distSquared(t[1]),s=t[2].distSquared(t[3]),r=.25*t[0].distSquared(t[2]),n=.25*t[1].distSquared(t[3]),o=e&gt;s?e:s,i=r&gt;n?r:n;return 18*(o&gt;i?o:i)},i=(t,e)=&gt;Math.sqrt(t.distSquared(e)),a=(t,e)=&gt;t.scale(2/3).add(e.scale(1/3)),h=t=&gt;{let e,s,r,n,o,i,a,h=new g;return t.match(/(\w+\(\s*[^)]+\))+/g).forEach(t=&gt;{let l=t.match(/[\w.-]+/g),d=l.shift();switch(d){case&quot;translate&quot;:2===l.length?e=new g(1,0,0,1,l[0],l[1]):(console.error(&quot;mesh.js: translate does not have 2 arguments!&quot;),e=new g(1,0,0,1,0,0)),h=h.append(e);break;case&quot;scale&quot;:1===l.length?s=new g(l[0],0,0,l[0],0,0):2===l.length?s=new g(l[0],0,0,l[1],0,0):(console.error(&quot;mesh.js: scale does not have 1 or 2 arguments!&quot;),s=new g(1,0,0,1,0,0)),h=h.append(s);break;case&quot;rotate&quot;:if(3===l.length&amp;&amp;(e=new g(1,0,0,1,l[1],l[2]),h=h.append(e)),l[0]){r=l[0]*Math.PI/180;let t=Math.cos(r),e=Math.sin(r);Math.abs(t)&lt;1e-16&amp;&amp;(t=0),Math.abs(e)&lt;1e-16&amp;&amp;(e=0),a=new g(t,e,-e,t,0,0),h=h.append(a)}else console.error(&quot;math.js: No argument to rotate transform!&quot;);3===l.length&amp;&amp;(e=new g(1,0,0,1,-l[1],-l[2]),h=h.append(e));break;case&quot;skewX&quot;:l[0]?(r=l[0]*Math.PI/180,n=Math.tan(r),o=new g(1,0,n,1,0,0),h=h.append(o)):console.error(&quot;math.js: No argument to skewX transform!&quot;);break;case&quot;skewY&quot;:l[0]?(r=l[0]*Math.PI/180,n=Math.tan(r),i=new g(1,n,0,1,0,0),h=h.append(i)):console.error(&quot;math.js: No argument to skewY transform!&quot;);break;case&quot;matrix&quot;:6===l.length?h=h.append(new g(...l)):console.error(&quot;math.js: Incorrect number of arguments for matrix!&quot;);break;default:console.error(&quot;mesh.js: Unhandled transform type: &quot;+d)}}),h},l=t=&gt;{let e=[],s=t.split(/[ ,]+/);for(let t=0,r=s.length-1;t&lt;r;t+=2)e.push(new x(parseFloat(s[t]),parseFloat(s[t+1])));return e},d=(t,e)=&gt;{for(let s in e)t.setAttribute(s,e[s])},c=(t,e,s,r,n)=&gt;{let o,i,a=[0,0,0,0];for(let h=0;h&lt;3;++h)e[h]&lt;t[h]&amp;&amp;e[h]&lt;s[h]||t[h]&lt;e[h]&amp;&amp;s[h]&lt;e[h]?a[h]=0:(a[h]=.5*((e[h]-t[h])/r+(s[h]-e[h])/n),o=Math.abs(3*(e[h]-t[h])/r),i=Math.abs(3*(s[h]-e[h])/n),a[h]&gt;o?a[h]=o:a[h]&gt;i&amp;&amp;(a[h]=i));return a},u=[[1,0,0,0,0,0,0,0,0,0,0,0,0,0,0,0],[0,0,0,0,1,0,0,0,0,0,0,0,0,0,0,0],[-3,3,0,0,-2,-1,0,0,0,0,0,0,0,0,0,0],[2,-2,0,0,1,1,0,0,0,0,0,0,0,0,0,0],[0,0,0,0,0,0,0,0,1,0,0,0,0,0,0,0],[0,0,0,0,0,0,0,0,0,0,0,0,1,0,0,0],[0,0,0,0,0,0,0,0,-3,3,0,0,-2,-1,0,0],[0,0,0,0,0,0,0,0,2,-2,0,0,1,1,0,0],[-3,0,3,0,0,0,0,0,-2,0,-1,0,0,0,0,0],[0,0,0,0,-3,0,3,0,0,0,0,0,-2,0,-1,0],[9,-9,-9,9,6,3,-6,-3,6,-6,3,-3,4,2,2,1],[-6,6,6,-6,-3,-3,3,3,-4,4,-2,2,-2,-2,-1,-1],[2,0,-2,0,0,0,0,0,1,0,1,0,0,0,0,0],[0,0,0,0,2,0,-2,0,0,0,0,0,1,0,1,0],[-6,6,6,-6,-4,-2,4,2,-3,3,-3,3,-2,-1,-2,-1],[4,-4,-4,4,2,2,-2,-2,2,-2,2,-2,1,1,1,1]],f=t=&gt;{let e=[];for(let s=0;s&lt;16;++s){e[s]=0;for(let r=0;r&lt;16;++r)e[s]+=u[s][r]*t[r]}return e},p=(t,e,s)=&gt;{const r=e*e,n=s*s,o=e*e*e,i=s*s*s;return t[0]+t[1]*e+t[2]*r+t[3]*o+t[4]*s+t[5]*s*e+t[6]*s*r+t[7]*s*o+t[8]*n+t[9]*n*e+t[10]*n*r+t[11]*n*o+t[12]*i+t[13]*i*e+t[14]*i*r+t[15]*i*o},y=t=&gt;{let e=[],s=[],r=[];for(let s=0;s&lt;4;++s)e[s]=[],e[s][0]=n(t[0][s],t[1][s],t[2][s],t[3][s]),e[s][1]=[],e[s][1].push(...n(...e[s][0][0])),e[s][1].push(...n(...e[s][0][1])),e[s][2]=[],e[s][2].push(...n(...e[s][1][0])),e[s][2].push(...n(...e[s][1][1])),e[s][2].push(...n(...e[s][1][2])),e[s][2].push(...n(...e[s][1][3]));for(let t=0;t&lt;8;++t){s[t]=[];for(let r=0;r&lt;4;++r)s[t][r]=[],s[t][r][0]=n(e[0][2][t][r],e[1][2][t][r],e[2][2][t][r],e[3][2][t][r]),s[t][r][1]=[],s[t][r][1].push(...n(...s[t][r][0][0])),s[t][r][1].push(...n(...s[t][r][0][1])),s[t][r][2]=[],s[t][r][2].push(...n(...s[t][r][1][0])),s[t][r][2].push(...n(...s[t][r][1][1])),s[t][r][2].push(...n(...s[t][r][1][2])),s[t][r][2].push(...n(...s[t][r][1][3]))}for(let t=0;t&lt;8;++t){r[t]=[];for(let e=0;e&lt;8;++e)r[t][e]=[],r[t][e][0]=s[t][0][2][e],r[t][e][1]=s[t][1][2][e],r[t][e][2]=s[t][2][2][e],r[t][e][3]=s[t][3][2][e]}return r};class x{constructor(t,e){this.x=t||0,this.y=e||0}toString(){return`(x=${this.x}, y=${this.y})`}clone(){return new x(this.x,this.y)}add(t){return new x(this.x+t.x,this.y+t.y)}scale(t){return void 0===t.x?new x(this.x*t,this.y*t):new x(this.x*t.x,this.y*t.y)}distSquared(t){let e=this.x-t.x,s=this.y-t.y;return e*e+s*s}transform(t){let e=this.x*t.a+this.y*t.c+t.e,s=this.x*t.b+this.y*t.d+t.f;return new x(e,s)}}class g{constructor(t,e,s,r,n,o){void 0===t?(this.a=1,this.b=0,this.c=0,this.d=1,this.e=0,this.f=0):(this.a=t,this.b=e,this.c=s,this.d=r,this.e=n,this.f=o)}toString(){return`affine: ${this.a} ${this.c} ${this.e} \n       ${this.b} ${this.d} ${this.f}`}append(t){t instanceof g||console.error(&quot;mesh.js: argument to Affine.append is not affine!&quot;);let e=this.a*t.a+this.c*t.b,s=this.b*t.a+this.d*t.b,r=this.a*t.c+this.c*t.d,n=this.b*t.c+this.d*t.d,o=this.a*t.e+this.c*t.f+this.e,i=this.b*t.e+this.d*t.f+this.f;return new g(e,s,r,n,o,i)}}class w{constructor(t,e){this.nodes=t,this.colors=e}paintCurve(t,e){if(o(this.nodes)&gt;r){const s=n(...this.nodes);let r=[[],[]],o=[[],[]];for(let t=0;t&lt;4;++t)r[0][t]=this.colors[0][t],r[1][t]=(this.colors[0][t]+this.colors[1][t])/2,o[0][t]=r[1][t],o[1][t]=this.colors[1][t];let i=new w(s[0],r),a=new w(s[1],o);i.paintCurve(t,e),a.paintCurve(t,e)}else{let s=Math.round(this.nodes[0].x);if(s&gt;=0&amp;&amp;s&lt;e){let r=4*(~~this.nodes[0].y*e+s);t[r]=Math.round(this.colors[0][0]),t[r+1]=Math.round(this.colors[0][1]),t[r+2]=Math.round(this.colors[0][2]),t[r+3]=Math.round(this.colors[0][3])}}}}class m{constructor(t,e){this.nodes=t,this.colors=e}split(){let t=[[],[],[],[]],e=[[],[],[],[]],s=[[[],[]],[[],[]]],r=[[[],[]],[[],[]]];for(let s=0;s&lt;4;++s){const r=n(this.nodes[0][s],this.nodes[1][s],this.nodes[2][s],this.nodes[3][s]);t[0][s]=r[0][0],t[1][s]=r[0][1],t[2][s]=r[0][2],t[3][s]=r[0][3],e[0][s]=r[1][0],e[1][s]=r[1][1],e[2][s]=r[1][2],e[3][s]=r[1][3]}for(let t=0;t&lt;4;++t)s[0][0][t]=this.colors[0][0][t],s[0][1][t]=this.colors[0][1][t],s[1][0][t]=(this.colors[0][0][t]+this.colors[1][0][t])/2,s[1][1][t]=(this.colors[0][1][t]+this.colors[1][1][t])/2,r[0][0][t]=s[1][0][t],r[0][1][t]=s[1][1][t],r[1][0][t]=this.colors[1][0][t],r[1][1][t]=this.colors[1][1][t];return[new m(t,s),new m(e,r)]}paint(t,e){let s,n=!1;for(let t=0;t&lt;4;++t)if((s=o([this.nodes[0][t],this.nodes[1][t],this.nodes[2][t],this.nodes[3][t]]))&gt;r){n=!0;break}if(n){let s=this.split();s[0].paint(t,e),s[1].paint(t,e)}else{new w([...this.nodes[0]],[...this.colors[0]]).paintCurve(t,e)}}}class b{constructor(t){this.readMesh(t),this.type=t.getAttribute(&quot;type&quot;)||&quot;bilinear&quot;}readMesh(t){let e=[[]],s=[[]],r=Number(t.getAttribute(&quot;x&quot;)),n=Number(t.getAttribute(&quot;y&quot;));e[0][0]=new x(r,n);let o=t.children;for(let t=0,r=o.length;t&lt;r;++t){e[3*t+1]=[],e[3*t+2]=[],e[3*t+3]=[],s[t+1]=[];let r=o[t].children;for(let n=0,o=r.length;n&lt;o;++n){let o=r[n].children;for(let r=0,i=o.length;r&lt;i;++r){let i=r;0!==t&amp;&amp;++i;let h,d=o[r].getAttribute(&quot;path&quot;),c=&quot;l&quot;;null!=d&amp;&amp;(c=(h=d.match(/\s*([lLcC])\s*(.*)/))[1]);let u=l(h[2]);switch(c){case&quot;l&quot;:0===i?(e[3*t][3*n+3]=u[0].add(e[3*t][3*n]),e[3*t][3*n+1]=a(e[3*t][3*n],e[3*t][3*n+3]),e[3*t][3*n+2]=a(e[3*t][3*n+3],e[3*t][3*n])):1===i?(e[3*t+3][3*n+3]=u[0].add(e[3*t][3*n+3]),e[3*t+1][3*n+3]=a(e[3*t][3*n+3],e[3*t+3][3*n+3]),e[3*t+2][3*n+3]=a(e[3*t+3][3*n+3],e[3*t][3*n+3])):2===i?(0===n&amp;&amp;(e[3*t+3][3*n+0]=u[0].add(e[3*t+3][3*n+3])),e[3*t+3][3*n+1]=a(e[3*t+3][3*n],e[3*t+3][3*n+3]),e[3*t+3][3*n+2]=a(e[3*t+3][3*n+3],e[3*t+3][3*n])):(e[3*t+1][3*n]=a(e[3*t][3*n],e[3*t+3][3*n]),e[3*t+2][3*n]=a(e[3*t+3][3*n],e[3*t][3*n]));break;case&quot;L&quot;:0===i?(e[3*t][3*n+3]=u[0],e[3*t][3*n+1]=a(e[3*t][3*n],e[3*t][3*n+3]),e[3*t][3*n+2]=a(e[3*t][3*n+3],e[3*t][3*n])):1===i?(e[3*t+3][3*n+3]=u[0],e[3*t+1][3*n+3]=a(e[3*t][3*n+3],e[3*t+3][3*n+3]),e[3*t+2][3*n+3]=a(e[3*t+3][3*n+3],e[3*t][3*n+3])):2===i?(0===n&amp;&amp;(e[3*t+3][3*n+0]=u[0]),e[3*t+3][3*n+1]=a(e[3*t+3][3*n],e[3*t+3][3*n+3]),e[3*t+3][3*n+2]=a(e[3*t+3][3*n+3],e[3*t+3][3*n])):(e[3*t+1][3*n]=a(e[3*t][3*n],e[3*t+3][3*n]),e[3*t+2][3*n]=a(e[3*t+3][3*n],e[3*t][3*n]));break;case&quot;c&quot;:0===i?(e[3*t][3*n+1]=u[0].add(e[3*t][3*n]),e[3*t][3*n+2]=u[1].add(e[3*t][3*n]),e[3*t][3*n+3]=u[2].add(e[3*t][3*n])):1===i?(e[3*t+1][3*n+3]=u[0].add(e[3*t][3*n+3]),e[3*t+2][3*n+3]=u[1].add(e[3*t][3*n+3]),e[3*t+3][3*n+3]=u[2].add(e[3*t][3*n+3])):2===i?(e[3*t+3][3*n+2]=u[0].add(e[3*t+3][3*n+3]),e[3*t+3][3*n+1]=u[1].add(e[3*t+3][3*n+3]),0===n&amp;&amp;(e[3*t+3][3*n+0]=u[2].add(e[3*t+3][3*n+3]))):(e[3*t+2][3*n]=u[0].add(e[3*t+3][3*n]),e[3*t+1][3*n]=u[1].add(e[3*t+3][3*n]));break;case&quot;C&quot;:0===i?(e[3*t][3*n+1]=u[0],e[3*t][3*n+2]=u[1],e[3*t][3*n+3]=u[2]):1===i?(e[3*t+1][3*n+3]=u[0],e[3*t+2][3*n+3]=u[1],e[3*t+3][3*n+3]=u[2]):2===i?(e[3*t+3][3*n+2]=u[0],e[3*t+3][3*n+1]=u[1],0===n&amp;&amp;(e[3*t+3][3*n+0]=u[2])):(e[3*t+2][3*n]=u[0],e[3*t+1][3*n]=u[1]);break;default:console.error(&quot;mesh.js: &quot;+c+&quot; invalid path type.&quot;)}if(0===t&amp;&amp;0===n||r&gt;0){let e=window.getComputedStyle(o[r]).stopColor.match(/^rgb\s*\(\s*(\d+)\s*,\s*(\d+)\s*,\s*(\d+)\s*\)$/i),a=window.getComputedStyle(o[r]).stopOpacity,h=255;a&amp;&amp;(h=Math.floor(255*a)),e&amp;&amp;(0===i?(s[t][n]=[],s[t][n][0]=Math.floor(e[1]),s[t][n][1]=Math.floor(e[2]),s[t][n][2]=Math.floor(e[3]),s[t][n][3]=h):1===i?(s[t][n+1]=[],s[t][n+1][0]=Math.floor(e[1]),s[t][n+1][1]=Math.floor(e[2]),s[t][n+1][2]=Math.floor(e[3]),s[t][n+1][3]=h):2===i?(s[t+1][n+1]=[],s[t+1][n+1][0]=Math.floor(e[1]),s[t+1][n+1][1]=Math.floor(e[2]),s[t+1][n+1][2]=Math.floor(e[3]),s[t+1][n+1][3]=h):3===i&amp;&amp;(s[t+1][n]=[],s[t+1][n][0]=Math.floor(e[1]),s[t+1][n][1]=Math.floor(e[2]),s[t+1][n][2]=Math.floor(e[3]),s[t+1][n][3]=h))}}e[3*t+1][3*n+1]=new x,e[3*t+1][3*n+2]=new x,e[3*t+2][3*n+1]=new x,e[3*t+2][3*n+2]=new x,e[3*t+1][3*n+1].x=(-4*e[3*t][3*n].x+6*(e[3*t][3*n+1].x+e[3*t+1][3*n].x)+-2*(e[3*t][3*n+3].x+e[3*t+3][3*n].x)+3*(e[3*t+3][3*n+1].x+e[3*t+1][3*n+3].x)+-1*e[3*t+3][3*n+3].x)/9,e[3*t+1][3*n+2].x=(-4*e[3*t][3*n+3].x+6*(e[3*t][3*n+2].x+e[3*t+1][3*n+3].x)+-2*(e[3*t][3*n].x+e[3*t+3][3*n+3].x)+3*(e[3*t+3][3*n+2].x+e[3*t+1][3*n].x)+-1*e[3*t+3][3*n].x)/9,e[3*t+2][3*n+1].x=(-4*e[3*t+3][3*n].x+6*(e[3*t+3][3*n+1].x+e[3*t+2][3*n].x)+-2*(e[3*t+3][3*n+3].x+e[3*t][3*n].x)+3*(e[3*t][3*n+1].x+e[3*t+2][3*n+3].x)+-1*e[3*t][3*n+3].x)/9,e[3*t+2][3*n+2].x=(-4*e[3*t+3][3*n+3].x+6*(e[3*t+3][3*n+2].x+e[3*t+2][3*n+3].x)+-2*(e[3*t+3][3*n].x+e[3*t][3*n+3].x)+3*(e[3*t][3*n+2].x+e[3*t+2][3*n].x)+-1*e[3*t][3*n].x)/9,e[3*t+1][3*n+1].y=(-4*e[3*t][3*n].y+6*(e[3*t][3*n+1].y+e[3*t+1][3*n].y)+-2*(e[3*t][3*n+3].y+e[3*t+3][3*n].y)+3*(e[3*t+3][3*n+1].y+e[3*t+1][3*n+3].y)+-1*e[3*t+3][3*n+3].y)/9,e[3*t+1][3*n+2].y=(-4*e[3*t][3*n+3].y+6*(e[3*t][3*n+2].y+e[3*t+1][3*n+3].y)+-2*(e[3*t][3*n].y+e[3*t+3][3*n+3].y)+3*(e[3*t+3][3*n+2].y+e[3*t+1][3*n].y)+-1*e[3*t+3][3*n].y)/9,e[3*t+2][3*n+1].y=(-4*e[3*t+3][3*n].y+6*(e[3*t+3][3*n+1].y+e[3*t+2][3*n].y)+-2*(e[3*t+3][3*n+3].y+e[3*t][3*n].y)+3*(e[3*t][3*n+1].y+e[3*t+2][3*n+3].y)+-1*e[3*t][3*n+3].y)/9,e[3*t+2][3*n+2].y=(-4*e[3*t+3][3*n+3].y+6*(e[3*t+3][3*n+2].y+e[3*t+2][3*n+3].y)+-2*(e[3*t+3][3*n].y+e[3*t][3*n+3].y)+3*(e[3*t][3*n+2].y+e[3*t+2][3*n].y)+-1*e[3*t][3*n].y)/9}}this.nodes=e,this.colors=s}paintMesh(t,e){let s=(this.nodes.length-1)/3,r=(this.nodes[0].length-1)/3;if(&quot;bilinear&quot;===this.type||s&lt;2||r&lt;2){let n;for(let o=0;o&lt;s;++o)for(let s=0;s&lt;r;++s){let r=[];for(let t=3*o,e=3*o+4;t&lt;e;++t)r.push(this.nodes[t].slice(3*s,3*s+4));let i=[];i.push(this.colors[o].slice(s,s+2)),i.push(this.colors[o+1].slice(s,s+2)),(n=new m(r,i)).paint(t,e)}}else{let n,o,a,h,l,d,u;const x=s,g=r;s++,r++;let w=new Array(s);for(let t=0;t&lt;s;++t){w[t]=new Array(r);for(let e=0;e&lt;r;++e)w[t][e]=[],w[t][e][0]=this.nodes[3*t][3*e],w[t][e][1]=this.colors[t][e]}for(let t=0;t&lt;s;++t)for(let e=0;e&lt;r;++e)0!==t&amp;&amp;t!==x&amp;&amp;(n=i(w[t-1][e][0],w[t][e][0]),o=i(w[t+1][e][0],w[t][e][0]),w[t][e][2]=c(w[t-1][e][1],w[t][e][1],w[t+1][e][1],n,o)),0!==e&amp;&amp;e!==g&amp;&amp;(n=i(w[t][e-1][0],w[t][e][0]),o=i(w[t][e+1][0],w[t][e][0]),w[t][e][3]=c(w[t][e-1][1],w[t][e][1],w[t][e+1][1],n,o));for(let t=0;t&lt;r;++t){w[0][t][2]=[],w[x][t][2]=[];for(let e=0;e&lt;4;++e)n=i(w[1][t][0],w[0][t][0]),o=i(w[x][t][0],w[x-1][t][0]),w[0][t][2][e]=n&gt;0?2*(w[1][t][1][e]-w[0][t][1][e])/n-w[1][t][2][e]:0,w[x][t][2][e]=o&gt;0?2*(w[x][t][1][e]-w[x-1][t][1][e])/o-w[x-1][t][2][e]:0}for(let t=0;t&lt;s;++t){w[t][0][3]=[],w[t][g][3]=[];for(let e=0;e&lt;4;++e)n=i(w[t][1][0],w[t][0][0]),o=i(w[t][g][0],w[t][g-1][0]),w[t][0][3][e]=n&gt;0?2*(w[t][1][1][e]-w[t][0][1][e])/n-w[t][1][3][e]:0,w[t][g][3][e]=o&gt;0?2*(w[t][g][1][e]-w[t][g-1][1][e])/o-w[t][g-1][3][e]:0}for(let s=0;s&lt;x;++s)for(let r=0;r&lt;g;++r){let n=i(w[s][r][0],w[s+1][r][0]),o=i(w[s][r+1][0],w[s+1][r+1][0]),c=i(w[s][r][0],w[s][r+1][0]),x=i(w[s+1][r][0],w[s+1][r+1][0]),g=[[],[],[],[]];for(let t=0;t&lt;4;++t){(d=[])[0]=w[s][r][1][t],d[1]=w[s+1][r][1][t],d[2]=w[s][r+1][1][t],d[3]=w[s+1][r+1][1][t],d[4]=w[s][r][2][t]*n,d[5]=w[s+1][r][2][t]*n,d[6]=w[s][r+1][2][t]*o,d[7]=w[s+1][r+1][2][t]*o,d[8]=w[s][r][3][t]*c,d[9]=w[s+1][r][3][t]*x,d[10]=w[s][r+1][3][t]*c,d[11]=w[s+1][r+1][3][t]*x,d[12]=0,d[13]=0,d[14]=0,d[15]=0,u=f(d);for(let e=0;e&lt;9;++e){g[t][e]=[];for(let s=0;s&lt;9;++s)g[t][e][s]=p(u,e/8,s/8),g[t][e][s]&gt;255?g[t][e][s]=255:g[t][e][s]&lt;0&amp;&amp;(g[t][e][s]=0)}}h=[];for(let t=3*s,e=3*s+4;t&lt;e;++t)h.push(this.nodes[t].slice(3*r,3*r+4));l=y(h);for(let s=0;s&lt;8;++s)for(let r=0;r&lt;8;++r)(a=new m(l[s][r],[[[g[0][s][r],g[1][s][r],g[2][s][r],g[3][s][r]],[g[0][s][r+1],g[1][s][r+1],g[2][s][r+1],g[3][s][r+1]]],[[g[0][s+1][r],g[1][s+1][r],g[2][s+1][r],g[3][s+1][r]],[g[0][s+1][r+1],g[1][s+1][r+1],g[2][s+1][r+1],g[3][s+1][r+1]]]])).paint(t,e)}}}transform(t){if(t instanceof x)for(let e=0,s=this.nodes.length;e&lt;s;++e)for(let s=0,r=this.nodes[0].length;s&lt;r;++s)this.nodes[e][s]=this.nodes[e][s].add(t);else if(t instanceof g)for(let e=0,s=this.nodes.length;e&lt;s;++e)for(let s=0,r=this.nodes[0].length;s&lt;r;++s)this.nodes[e][s]=this.nodes[e][s].transform(t)}scale(t){for(let e=0,s=this.nodes.length;e&lt;s;++e)for(let s=0,r=this.nodes[0].length;s&lt;r;++s)this.nodes[e][s]=this.nodes[e][s].scale(t)}}document.querySelectorAll(&quot;rect,circle,ellipse,path,text&quot;).forEach((r,n)=&gt;{let o=r.getAttribute(&quot;id&quot;);o||(o=&quot;patchjs_shape&quot;+n,r.setAttribute(&quot;id&quot;,o));const i=r.style.fill.match(/^url\(\s*&quot;?\s*#([^\s&quot;]+)&quot;?\s*\)/),a=r.style.stroke.match(/^url\(\s*&quot;?\s*#([^\s&quot;]+)&quot;?\s*\)/);if(i&amp;&amp;i[1]){const a=document.getElementById(i[1]);if(a&amp;&amp;&quot;meshgradient&quot;===a.nodeName){const i=r.getBBox();let l=document.createElementNS(s,&quot;canvas&quot;);d(l,{width:i.width,height:i.height});const c=l.getContext(&quot;2d&quot;);let u=c.createImageData(i.width,i.height);const f=new b(a);&quot;objectBoundingBox&quot;===a.getAttribute(&quot;gradientUnits&quot;)&amp;&amp;f.scale(new x(i.width,i.height));const p=a.getAttribute(&quot;gradientTransform&quot;);null!=p&amp;&amp;f.transform(h(p)),&quot;userSpaceOnUse&quot;===a.getAttribute(&quot;gradientUnits&quot;)&amp;&amp;f.transform(new x(-i.x,-i.y)),f.paintMesh(u.data,l.width),c.putImageData(u,0,0);const y=document.createElementNS(t,&quot;image&quot;);d(y,{width:i.width,height:i.height,x:i.x,y:i.y});let g=l.toDataURL();y.setAttributeNS(e,&quot;xlink:href&quot;,g),r.parentNode.insertBefore(y,r),r.style.fill=&quot;none&quot;;const w=document.createElementNS(t,&quot;use&quot;);w.setAttributeNS(e,&quot;xlink:href&quot;,&quot;#&quot;+o);const m=&quot;patchjs_clip&quot;+n,M=document.createElementNS(t,&quot;clipPath&quot;);M.setAttribute(&quot;id&quot;,m),M.appendChild(w),r.parentElement.insertBefore(M,r),y.setAttribute(&quot;clip-path&quot;,&quot;url(#&quot;+m+&quot;)&quot;),u=null,l=null,g=null}}if(a&amp;&amp;a[1]){const o=document.getElementById(a[1]);if(o&amp;&amp;&quot;meshgradient&quot;===o.nodeName){const i=parseFloat(r.style.strokeWidth.slice(0,-2))*(parseFloat(r.style.strokeMiterlimit)||parseFloat(r.getAttribute(&quot;stroke-miterlimit&quot;))||1),a=r.getBBox(),l=Math.trunc(a.width+i),c=Math.trunc(a.height+i),u=Math.trunc(a.x-i/2),f=Math.trunc(a.y-i/2);let p=document.createElementNS(s,&quot;canvas&quot;);d(p,{width:l,height:c});const y=p.getContext(&quot;2d&quot;);let g=y.createImageData(l,c);const w=new b(o);&quot;objectBoundingBox&quot;===o.getAttribute(&quot;gradientUnits&quot;)&amp;&amp;w.scale(new x(l,c));const m=o.getAttribute(&quot;gradientTransform&quot;);null!=m&amp;&amp;w.transform(h(m)),&quot;userSpaceOnUse&quot;===o.getAttribute(&quot;gradientUnits&quot;)&amp;&amp;w.transform(new x(-u,-f)),w.paintMesh(g.data,p.width),y.putImageData(g,0,0);const M=document.createElementNS(t,&quot;image&quot;);d(M,{width:l,height:c,x:0,y:0});let S=p.toDataURL();M.setAttributeNS(e,&quot;xlink:href&quot;,S);const k=&quot;pattern_clip&quot;+n,A=document.createElementNS(t,&quot;pattern&quot;);d(A,{id:k,patternUnits:&quot;userSpaceOnUse&quot;,width:l,height:c,x:u,y:f}),A.appendChild(M),o.parentNode.appendChild(A),r.style.stroke=&quot;url(#&quot;+k+&quot;)&quot;,g=null,p=null,S=null}}})}();
</script>
</svg>
